<svg width="100" height="100" viewBox="0 0 100 100" fill="none" xmlns="http://www.w3.org/2000/svg">
<path d="M50 13.6914C35.1562 13.6914 23.0859 25.7617 23.0859 40.6055C23.0859 46.7187 27.4023 56.1914 35.8984 68.75C42.1289 77.9297 48.4375 85.5273 48.4961 85.6055C48.8672 86.0547 49.4141 86.3086 50 86.3086C50.5859 86.3086 51.1328 86.0547 51.5039 85.6055C51.5625 85.5273 57.8711 77.9297 64.1016 68.75C72.6172 56.1914 76.914 46.7187 76.914 40.6055C76.914 25.7617 64.8437 13.6914 50 13.6914ZM60.8789 66.5234C56.5625 72.8906 52.207 78.4766 50 81.25C47.7734 78.4766 43.418 72.8906 39.1211 66.5234C31.1914 54.8047 26.9922 45.8398 26.9922 40.6055C26.9922 27.9102 37.3242 17.5977 50 17.5977C62.6758 17.5977 73.0078 27.9297 73.0078 40.6055C73.0078 45.8594 68.8281 54.8047 60.8789 66.5234Z" fill="#231F20"/>
<path d="M50 26.3477C42.1289 26.3477 35.7422 32.7344 35.7422 40.6055C35.7422 48.4766 42.1289 54.8633 50 54.8633C57.8711 54.8633 64.2578 48.4766 64.2578 40.6055C64.2578 32.7344 57.8711 26.3477 50 26.3477ZM50 50.957C44.2969 50.957 39.6484 46.3086 39.6484 40.6055C39.6484 34.9023 44.2969 30.2539 50 30.2539C55.7031 30.2539 60.3516 34.9023 60.3516 40.6055C60.3516 46.3086 55.7031 50.957 50 50.957Z" fill="#231F20"/>
<path d="M51.9531 38.6523V34.2578C51.9531 33.1836 51.0742 32.3047 50 32.3047C48.9258 32.3047 48.0469 33.1836 48.0469 34.2578V38.6523H43.6523C42.5781 38.6523 41.6992 39.5312 41.6992 40.6055C41.6992 41.6797 42.5781 42.5586 43.6523 42.5586H48.0469V46.9531C48.0469 48.0273 48.9258 48.9062 50 48.9062C51.0742 48.9062 51.9531 48.0273 51.9531 46.9531V42.5586H56.3477C57.4219 42.5586 58.3008 41.6797 58.3008 40.6055C58.3008 39.5312 57.4219 38.6523 56.3477 38.6523H51.9531Z" fill="#231F20"/>
</svg>
