<svg width="100" height="100" viewBox="0 0 100 100" fill="none" xmlns="http://www.w3.org/2000/svg">
<g clip-path="url(#clip0_1241_445)">
<path d="M77.8119 41.7359L80.1834 39.3645C88.6662 30.8813 88.6689 17.1551 80.1895 8.675C76.0824 4.56856 70.623 2.38086 64.815 2.38086C64.8125 2.38086 64.8092 2.38086 64.8068 2.38086C58.9969 2.38086 53.5336 4.57402 49.4234 8.68399L6.38242 51.6889C2.26621 55.8049 -0.0001953 61.252 1.26226e-08 67.061C0.00058595 72.8662 2.26387 78.3367 6.37324 82.4459C10.4813 86.5543 15.9418 88.8303 21.7486 88.8303C21.7514 88.8303 21.7533 88.8303 21.7562 88.8303C27.5598 88.8303 33.0162 86.5512 37.1193 82.4481L44.1211 75.4363C46.9127 88.1102 58.2268 97.6195 71.7272 97.6195C87.3168 97.6195 99.9998 84.934 99.9998 69.3443C100 55.844 90.4859 44.5274 77.8119 41.7359ZM52.4996 11.7598C55.7885 8.4707 60.1598 6.73047 64.8086 6.73047C64.8109 6.73047 64.8129 6.73047 64.8152 6.73047C69.4611 6.73047 73.8289 8.46602 77.1137 11.7508C83.8975 18.5344 83.8949 29.5383 77.1076 36.3254L72.3119 41.1025C72.1168 41.0984 71.9232 41.0787 71.7273 41.0787C63.0564 41.0787 55.2885 45.0012 50.098 51.1662L31.5613 32.6641L52.4996 11.7598ZM43.4545 69.3426C43.4545 69.5389 43.4654 69.7416 43.4693 69.9367L34.0434 79.3719C30.7615 82.6541 26.398 84.4805 21.7557 84.4805C21.7539 84.4805 21.7518 84.4805 21.7496 84.4805C17.1043 84.4805 12.7357 82.6481 9.44883 79.3609C6.16074 76.0734 4.35 71.6955 4.34941 67.0522C4.34922 62.4051 6.16309 58.0266 9.45781 54.7324L28.4854 35.7027L47.5256 54.7418C44.9434 59.0067 43.4545 64.0035 43.4545 69.3426ZM71.7273 93.2651C58.5361 93.2651 47.8043 82.5332 47.8043 69.342C47.8043 63.5277 49.8912 58.1932 53.3525 54.0428L87.0266 87.7166C82.8762 91.1781 77.5416 93.2651 71.7273 93.2651ZM90.102 84.6412L56.4281 50.9672C60.5783 47.5059 65.9133 45.419 71.7273 45.419C84.9186 45.419 95.6504 56.1508 95.6504 69.342C95.6504 75.1563 93.5637 80.4908 90.102 84.6412Z" fill="black"/>
</g>
<defs>
<clipPath id="clip0_1241_445">
<rect width="100" height="100" fill="white"/>
</clipPath>
</defs>
</svg>
