<svg width="100" height="100" viewBox="0 0 100 100" fill="none" xmlns="http://www.w3.org/2000/svg">
<path d="M71.0547 15.0781H64.5703C64.1602 12.2656 61.7187 10.0977 58.7891 10.0977H40.4297C37.5 10.0977 35.0586 12.2656 34.6289 15.0781H28.9258C25.7031 15.0781 23.0664 17.7148 23.0664 20.9375V84.0234C23.0664 87.2461 25.7031 89.8828 28.9258 89.8828H71.0547C74.2773 89.8828 76.9141 87.2461 76.9141 84.0234V20.9375C76.9141 17.7148 74.2969 15.0781 71.0547 15.0781ZM38.4766 15.957C38.4766 14.8828 39.3555 14.0039 40.4297 14.0039H58.7891C59.8633 14.0039 60.7422 14.8828 60.7422 15.957V18.1055C60.7422 19.1797 59.8633 20.0586 58.7891 20.0586H40.4297C39.3555 20.0586 38.4766 19.1797 38.4766 18.1055V15.957ZM73.0078 84.0429C73.0078 85.1172 72.1289 85.9961 71.0547 85.9961H28.9453C27.8711 85.9961 26.9922 85.1172 26.9922 84.0429V20.957C26.9922 19.8828 27.8711 19.0039 28.9453 19.0039H34.6484C35.0781 21.8164 37.5195 23.9844 40.4492 23.9844H58.8086C61.7383 23.9844 64.1797 21.8164 64.6094 19.0039H71.0937C72.168 19.0039 73.0469 19.8828 73.0469 20.957V84.0429H73.0078Z" fill="#231F20"/>
<path d="M67.3828 59.5117H32.4219C31.3477 59.5117 30.4688 60.3906 30.4688 61.4648C30.4688 62.5391 31.3477 63.418 32.4219 63.418H67.3828C68.457 63.418 69.3359 62.5391 69.3359 61.4648C69.3359 60.3906 68.457 59.5117 67.3828 59.5117Z" fill="#231F20"/>
<path d="M67.3828 50.7227H32.4219C31.3477 50.7227 30.4688 51.6016 30.4688 52.6758C30.4688 53.75 31.3477 54.6289 32.4219 54.6289H67.3828C68.457 54.6289 69.3359 53.75 69.3359 52.6758C69.3359 51.6016 68.457 50.7227 67.3828 50.7227Z" fill="#231F20"/>
<path d="M67.3828 41.9336H32.4219C31.3477 41.9336 30.4688 42.8125 30.4688 43.8867C30.4688 44.9609 31.3477 45.8398 32.4219 45.8398H67.3828C68.457 45.8398 69.3359 44.9609 69.3359 43.8867C69.3359 42.8125 68.457 41.9336 67.3828 41.9336Z" fill="#231F20"/>
<path d="M67.3828 33.1445H32.4219C31.3477 33.1445 30.4688 34.0234 30.4688 35.0977C30.4688 36.1719 31.3477 37.0508 32.4219 37.0508H67.3828C68.457 37.0508 69.3359 36.1719 69.3359 35.0977C69.3359 34.0234 68.457 33.1445 67.3828 33.1445Z" fill="#231F20"/>
</svg>
