<svg width="100" height="100" viewBox="0 0 100 100" fill="none" xmlns="http://www.w3.org/2000/svg">
<path d="M29.0039 29.8828H19.2383C17.8906 29.8828 16.7969 28.7891 16.7969 27.4414C16.7969 24.4727 19.1992 22.0703 22.168 22.0703H26.0742C29.043 22.0703 31.4453 24.4727 31.4453 27.4414C31.4453 28.7891 30.3516 29.8828 29.0039 29.8828ZM19.7852 26.9531H28.4766C28.2422 25.8398 27.2656 25 26.0938 25H22.1875C20.9961 25 20 25.8398 19.7852 26.9531Z" fill="black"/>
<path d="M80.7617 29.8828H70.9961C69.6484 29.8828 68.5547 28.7891 68.5547 27.4414C68.5547 24.4727 70.957 22.0703 73.9258 22.0703H77.832C80.8008 22.0703 83.2031 24.4727 83.2031 27.4414C83.2031 28.7891 82.1094 29.8828 80.7617 29.8828ZM71.543 26.9531H80.2344C80 25.8398 79.0234 25 77.8516 25H73.9453C72.7539 25 71.7578 25.8398 71.543 26.9531Z" fill="black"/>
<path d="M81.1523 83.7891H76.6602C75.8594 83.7891 75.1953 83.125 75.1953 82.3242C75.1953 81.5234 75.8594 80.8594 76.6602 80.8594H81.1523C85.3516 80.8594 88.7695 77.4414 88.7695 73.2422V37.5C88.7695 33.3008 85.3516 29.8828 81.1523 29.8828H18.8477C14.6484 29.8828 11.2305 33.3008 11.2305 37.5V73.2422C11.2305 77.4414 14.6484 80.8594 18.8477 80.8594H70.5078C71.3086 80.8594 71.9727 81.5234 71.9727 82.3242C71.9727 83.125 71.3086 83.7891 70.5078 83.7891H18.8477C13.0273 83.7891 8.30078 79.0625 8.30078 73.2422V37.5C8.30078 31.6797 13.0273 26.9531 18.8477 26.9531H81.1523C86.9727 26.9531 91.6992 31.6797 91.6992 37.5V73.2422C91.6992 79.0625 86.9727 83.7891 81.1523 83.7891Z" fill="black"/>
<path d="M55.2539 69.7266H44.7656C43.9648 69.7266 43.3008 69.0625 43.3008 68.2617V61.8164H36.8555C36.0547 61.8164 35.3906 61.1523 35.3906 60.3516V49.8633C35.3906 49.0625 36.0547 48.3984 36.8555 48.3984H43.3008V41.9531C43.3008 41.1523 43.9648 40.4883 44.7656 40.4883H55.2539C56.0547 40.4883 56.7187 41.1523 56.7187 41.9531V48.3984H63.1641C63.9648 48.3984 64.6289 49.0625 64.6289 49.8633V60.3516C64.6289 61.1523 63.9648 61.8164 63.1641 61.8164H56.7187V68.2617C56.7187 69.0625 56.0547 69.7266 55.2539 69.7266ZM46.2109 66.7969H53.7695V60.3516C53.7695 59.5508 54.4336 58.8867 55.2344 58.8867H61.6797V51.3281H55.2344C54.4336 51.3281 53.7695 50.6641 53.7695 49.8633V43.418H46.2109V49.8633C46.2109 50.6641 45.5469 51.3281 44.7461 51.3281H38.3008V58.8867H44.7461C45.5469 58.8867 46.2109 59.5508 46.2109 60.3516V66.7969V66.7969Z" fill="black"/>
<path d="M65.7227 29.8828H57.3242V25.3906C57.3242 24.8438 56.8945 24.4141 56.3477 24.4141H43.2617C42.7148 24.4141 42.2852 24.8438 42.2852 25.3906V29.8828H34.2773V23.9258C34.2773 19.668 37.7344 16.2109 41.9922 16.2109H58.0078C62.2656 16.2109 65.7227 19.668 65.7227 23.9258V29.8828ZM60.2539 26.9531H62.793V23.9258C62.793 21.2891 60.6445 19.1406 58.0078 19.1406H41.9922C39.3555 19.1406 37.207 21.2891 37.207 23.9258V26.9531H39.3555V25.3906C39.3555 23.2422 41.1133 21.4844 43.2617 21.4844H56.3477C58.4961 21.4844 60.2539 23.2422 60.2539 25.3906V26.9531Z" fill="black"/>
</svg>
