<svg width="100" height="100" viewBox="0 0 100 100" fill="none" xmlns="http://www.w3.org/2000/svg">
<path d="M49.9992 82.2992C57.5992 82.2992 63.7992 76.0992 63.7992 68.4992C63.7992 64.0992 61.7992 60.0992 58.2992 57.4992V25.9992C58.2992 23.7992 57.3992 21.6992 55.8992 20.0992C54.2992 18.4992 52.1992 17.6992 49.9992 17.6992C45.3992 17.6992 41.6992 21.3992 41.6992 25.9992V57.4992C38.2992 60.0992 36.1992 64.0992 36.1992 68.4992C36.1992 76.0992 42.3992 82.2992 49.9992 82.2992ZM44.7992 60.2992L45.6992 59.6992V48.1992H49.9992V44.1992H45.6992V42.3992H49.9992V38.3992H45.6992V36.5992H49.9992V32.5992H45.6992V30.7992H49.9992V26.7992H45.6992V25.9992C45.6992 23.5992 47.5992 21.6992 49.9992 21.6992C51.0992 21.6992 52.1992 22.0992 52.9992 22.9992C53.7992 23.7992 54.2992 24.8992 54.2992 25.9992V59.5992L55.1992 60.1992C57.9992 61.9992 59.6992 65.0992 59.6992 68.3992C59.6992 73.7992 55.2992 78.1992 49.8992 78.1992C44.4992 78.1992 40.0992 73.7992 40.0992 68.3992C40.1992 65.0992 41.8992 62.0992 44.7992 60.2992Z" fill="black"/>
<path d="M49.9984 76.5996C54.4984 76.5996 58.0984 72.9996 58.0984 68.4996C58.0984 64.6996 55.4984 61.5996 51.9984 60.6996V52.5996H47.9984V60.6996C44.4984 61.5996 41.8984 64.7996 41.8984 68.4996C41.8984 72.9996 45.4984 76.5996 49.9984 76.5996ZM49.9984 64.3996C52.2984 64.3996 54.0984 66.1996 54.0984 68.4996C54.0984 70.7996 52.2984 72.5996 49.9984 72.5996C47.6984 72.5996 45.8984 70.7996 45.8984 68.4996C45.8984 66.1996 47.6984 64.3996 49.9984 64.3996Z" fill="black"/>
</svg>
