<svg width="100" height="100" viewBox="0 0 100 100" fill="none" xmlns="http://www.w3.org/2000/svg">
<path d="M16.9531 56.2109C16.9531 52.5781 19.9219 49.6094 23.5547 49.6094C27.1875 49.6094 30.1562 52.5391 30.1562 56.2109C30.1562 59.8437 27.1875 62.8125 23.5547 62.8125C19.9219 62.8125 16.9531 59.8828 16.9531 56.2109ZM33.0078 52.1875V71.25H86.0156V57.3047C85.9766 54.4141 83.6328 52.1484 80.7422 52.1484L33.0078 52.1875ZM26.9141 71.25C28.7109 71.25 30.1562 69.8047 30.1562 68.0078C30.1562 66.2109 28.7109 64.7656 26.9141 64.7656H17.5391C15.7422 64.7656 14.2969 66.2109 14.2969 68.0078C14.2969 69.8047 15.7422 71.25 17.5391 71.25H26.9141ZM89.1797 84.9609V99.4922H97.7734V53.4375C97.7734 51.0547 95.8594 49.1406 93.4766 49.1406C91.0938 49.1406 89.1797 51.0547 89.1797 53.4375V74.5703H11.9531V44.7266C11.9531 42.3438 9.88281 40.4297 7.5 40.4297C5.11719 40.4297 3.28125 42.3438 3.28125 44.7266V99.4922H11.9531V84.9609H89.1797ZM61.9141 0.78125C59.0625 0.78125 55.0391 1.91406 52.1484 4.84375L55.5859 11.1328C57.0703 9.25781 59.3359 8.04688 61.9141 8.04688C64.5313 8.04688 66.8359 9.25781 68.3203 11.1719L71.7188 4.6875C69.1797 1.95312 64.6484 0.78125 61.9141 0.78125ZM60.9375 5.42969H59.0234V3.47656H60.9375V1.5625H62.8516V3.47656H64.7656V5.39063H62.8516V7.30469H60.9375V5.42969ZM68.0859 16.5234C68.0859 13.0859 65.3125 10.3125 61.875 10.3125C58.4375 10.3125 55.6641 13.0859 55.6641 16.5234C55.6641 19.9609 58.4375 22.7344 61.875 22.7344C65.3125 22.7344 68.0859 19.9609 68.0859 16.5234ZM55.9375 24.5312C51.6016 24.5703 49.1016 28.0859 48.5156 30.0781L43.2422 47.4219H48.5938L52.5 34.1016H55.2734L51.4063 47.3828H72.4609L68.5938 34.1016H71.3672L75.3516 47.4219H80.625L75.3125 30.0781C74.7656 28.125 72.3047 24.6484 68.0469 24.5703L55.9375 24.5312ZM16.4062 28.5156C24.0234 28.5156 30.1953 22.3438 30.1953 14.7266C30.1953 7.07031 24.0234 0.898437 16.4062 0.898437C8.78906 0.898437 2.61719 7.07031 2.61719 14.6875C2.61719 22.3047 8.78906 28.5156 16.4062 28.5156ZM16.4062 25.0781C10.6641 25.0781 6.01562 20.4297 6.01562 14.6875C6.01562 8.98437 10.6641 4.29688 16.4062 4.29688C22.1484 4.29688 26.7969 8.98437 26.7969 14.6875C26.7969 20.4297 22.1484 25.0781 16.4062 25.0781ZM23.2812 13.2812C23.7891 13.0469 24.0234 12.4219 23.7891 11.9141C23.5547 11.4063 22.9297 11.1719 22.4219 11.4063L17.1094 13.9062V7.69531C17.1094 7.10938 16.6406 6.64062 16.0547 6.64062C15.4687 6.64062 15 7.10938 15 7.69531V15.7031C15.0391 15.9766 15.1953 16.25 15.4687 16.4062C15.7812 16.6016 16.1719 16.6406 16.4453 16.4844L23.2812 13.2812Z" fill="black"/>
</svg>
