<svg width="100" height="35" viewBox="0 0 100 35" fill="none" xmlns="http://www.w3.org/2000/svg">
<g clip-path="url(#clip0_1241_505)">
<path d="M50.0008 34.018C43.5808 34.0185 37.4223 33.1528 32.8764 31.6106C28.3304 30.0685 25.7683 27.9759 25.752 25.792V1C25.752 0.734784 26.0617 0.480414 26.613 0.292877C27.1643 0.105341 27.9119 0 28.6916 0C29.4712 0 30.2189 0.105341 30.7702 0.292877C31.3214 0.480414 31.6312 0.734784 31.6312 1V25.792C31.6312 27.4496 33.5668 29.0393 37.0124 30.2114C40.4579 31.3835 45.1311 32.042 50.0038 32.042C54.8765 32.042 59.5497 31.3835 62.9953 30.2114C66.4408 29.0393 68.3764 27.4496 68.3764 25.792V1C68.3764 0.734784 68.6862 0.480414 69.2375 0.292877C69.7888 0.105341 70.5364 0 71.3161 0C72.0957 0 72.8434 0.105341 73.3946 0.292877C73.9459 0.480414 74.2557 0.734784 74.2557 1V25.792C74.2401 27.9764 71.6774 30.0694 67.13 31.6116C62.5826 33.1539 56.422 34.0193 50.0008 34.018V34.018Z" fill="black"/>
<path d="M37.9455 6.2793H28.6916C27.9119 6.2793 27.1643 6.17393 26.613 5.98639C26.0617 5.79885 25.752 5.54451 25.752 5.2793C25.752 5.01408 26.0617 4.75971 26.613 4.57217C27.1643 4.38464 27.9119 4.2793 28.6916 4.2793H37.9455C38.7252 4.2793 39.4728 4.38464 40.0241 4.57217C40.5754 4.75971 40.8851 5.01408 40.8851 5.2793C40.8851 5.54451 40.5754 5.79885 40.0241 5.98639C39.4728 6.17393 38.7252 6.2793 37.9455 6.2793Z" fill="black"/>
<path d="M37.9455 15.5996H28.6916C27.9119 15.5996 27.1643 15.4942 26.613 15.3067C26.0617 15.1192 25.752 14.8648 25.752 14.5996C25.752 14.3344 26.0617 14.08 26.613 13.8925C27.1643 13.705 27.9119 13.5996 28.6916 13.5996H37.9455C38.7252 13.5996 39.4728 13.705 40.0241 13.8925C40.5754 14.08 40.8851 14.3344 40.8851 14.5996C40.8851 14.8648 40.5754 15.1192 40.0241 15.3067C39.4728 15.4942 38.7252 15.5996 37.9455 15.5996Z" fill="black"/>
<path d="M37.9455 24.4883H28.6916C27.9119 24.4883 27.1643 24.3829 26.613 24.1954C26.0617 24.0078 25.752 23.7535 25.752 23.4883C25.752 23.2231 26.0617 22.9687 26.613 22.7812C27.1643 22.5936 27.9119 22.4883 28.6916 22.4883H37.9455C38.7252 22.4883 39.4728 22.5936 40.0241 22.7812C40.5754 22.9687 40.8851 23.2231 40.8851 23.4883C40.8851 23.7535 40.5754 24.0078 40.0241 24.1954C39.4728 24.3829 38.7252 24.4883 37.9455 24.4883Z" fill="black"/>
</g>
<defs>
<clipPath id="clip0_1241_505">
<rect width="100" height="34.018" fill="white"/>
</clipPath>
</defs>
</svg>
