<svg width="100" height="100" viewBox="0 0 100 100" fill="none" xmlns="http://www.w3.org/2000/svg">
<path d="M68.77 27.9107L68.0474 27.188C67.3833 26.524 67.3833 25.4693 68.0279 24.8052L68.6138 24.2193C69.2779 23.5552 70.3325 23.5552 70.9966 24.1997L71.7193 24.9224C72.3833 25.5865 72.3833 26.6411 71.7388 27.3052L71.1529 27.8911C70.4888 28.5552 69.4341 28.5552 68.77 27.9107Z" fill="white"/>
<path d="M69.8057 22.2461C70.6456 22.2461 71.4268 22.5781 72.0128 23.1641L72.7354 23.8867C73.9659 25.1172 73.9854 27.1094 72.7549 28.3398L72.169 28.9258C71.5831 29.5313 70.7823 29.8633 69.9424 29.8633C69.1026 29.8633 68.3018 29.5508 67.7159 28.9453L66.9932 28.2227C65.7628 26.9922 65.7432 25 66.9737 23.7695L67.5596 23.1836C68.1456 22.5781 68.9463 22.2461 69.8057 22.2461C69.7862 22.2461 69.7862 22.2461 69.8057 22.2461ZM69.9424 26.9336C69.9815 26.9336 70.0401 26.9141 70.0987 26.875L70.6846 26.2891C70.7432 26.2305 70.7432 26.1719 70.7432 26.1328C70.7432 26.0938 70.7237 26.0352 70.6846 25.9766L69.962 25.2539C69.9034 25.1953 69.8448 25.1758 69.8057 25.1953C69.7667 25.1953 69.7081 25.2148 69.6495 25.2539L69.0635 25.8398C68.9854 25.9375 68.9854 26.0742 69.0635 26.1523L69.7862 26.875C69.8448 26.9141 69.9034 26.9336 69.9424 26.9336Z" fill="black"/>
<path d="M26.7003 61.9922C27.501 61.9922 28.2237 62.3047 28.7706 62.8516L33.3604 67.3828C34.5128 68.5352 34.5323 70.4297 33.3799 71.582L21.3292 83.8281C20.7823 84.3945 20.0206 84.707 19.2393 84.707H19.2198C18.419 84.707 17.6964 84.3945 17.1495 83.8477L12.5596 79.3164C11.4073 78.1641 11.3878 76.2695 12.5401 75.1172L24.6299 62.8711C25.1573 62.3047 25.8995 61.9922 26.7003 61.9922ZM19.2198 81.9531C19.2589 81.9531 19.3174 81.9336 19.376 81.8945L31.4659 69.6484C31.544 69.5508 31.544 69.4336 31.4659 69.3555L26.876 64.8242C26.8174 64.7656 26.7589 64.7656 26.7198 64.7656C26.6807 64.7656 26.6221 64.7852 26.5635 64.8242L14.4737 77.0703C14.3956 77.168 14.3956 77.2852 14.4737 77.3633L19.0635 81.8945C19.1026 81.9336 19.1807 81.9531 19.2198 81.9531Z" fill="black"/>
<path d="M23.8479 51.6602C24.6682 51.6602 25.4494 51.9727 26.0159 52.5391L34.883 61.2891C35.4495 61.8555 35.469 62.793 34.9026 63.3594C34.3362 63.9258 33.3987 63.9453 32.8323 63.3789L23.9651 54.6289C23.926 54.5898 23.8674 54.5898 23.8284 54.5898C23.7307 54.5898 23.633 54.6484 23.5549 54.7266L22.3244 55.957C22.1682 56.1133 22.1682 56.3086 22.2268 56.3672L39.9416 73.8672C40.0002 73.9258 40.1956 73.9258 40.3518 73.7695L41.5823 72.5391C41.7385 72.3828 41.7385 72.1875 41.6799 72.1289L36.6604 67.1875C36.094 66.6211 36.0745 65.6836 36.6409 65.1172C37.2073 64.5508 38.1448 64.5312 38.7112 65.0977L43.7307 70.0391C44.9612 71.2695 44.9416 73.3008 43.6721 74.5898L42.4416 75.8203C41.1721 77.1094 39.1213 77.168 37.8909 75.9375L20.176 58.4375C18.9455 57.207 18.9651 55.1758 20.2346 53.8867L21.4651 52.6563C22.0705 52.0508 22.8518 51.6992 23.6916 51.6602C23.7502 51.6797 23.7893 51.6602 23.8479 51.6602Z" fill="black"/>
<path d="M20.1952 88.1054C19.3748 88.9257 18.1834 89.0624 17.5194 88.3983L15.5858 86.4843L13.8084 84.7265L11.953 82.9101L7.9686 78.9843C7.30454 78.3202 7.42172 77.1288 8.24204 76.3085C9.06235 75.4882 10.2538 75.3515 10.9178 76.0155L20.4686 85.4491C21.1327 86.0937 21.0155 87.2851 20.1952 88.1054Z" fill="white"/>
<path d="M9.84432 74.1211C10.6451 74.1211 11.4068 74.4141 11.9537 74.9609L21.4849 84.3945C22.1099 85.0195 22.4224 85.918 22.3248 86.8555C22.2467 87.6953 21.856 88.4961 21.231 89.1406C20.606 89.7852 19.8053 90.1758 18.9654 90.2735C18.0279 90.3711 17.1295 90.0781 16.4849 89.4531L6.93416 80.0195C5.7037 78.7891 5.82088 76.6602 7.18807 75.2734C7.81307 74.6289 8.61385 74.2383 9.4537 74.1406C9.60995 74.1211 9.72713 74.1211 9.84432 74.1211ZM18.5553 87.3438C18.6334 87.3633 18.9068 87.3438 19.1607 87.0703C19.4342 86.7969 19.4537 86.5234 19.4342 86.4649L9.90291 77.0508C9.82479 77.0313 9.57088 77.0508 9.29745 77.3242C9.02401 77.5977 9.00448 77.8711 9.02401 77.9297L18.5553 87.3438Z" fill="black"/>
<path d="M65.938 32.8716L62.9302 29.9029C62.2661 29.2388 62.2661 28.1841 62.9107 27.52L64.4146 25.9966C65.0786 25.3325 66.1333 25.3325 66.7974 25.9771L69.8052 28.9458C70.4693 29.6099 70.4693 30.6646 69.8247 31.3286L68.3208 32.8521C67.6763 33.5161 66.6021 33.5357 65.938 32.8716Z" fill="white"/>
<path d="M65.625 24.0234C66.4648 24.0234 67.2461 24.3555 67.832 24.9414L70.8399 27.9102C72.0703 29.1406 72.0899 31.1328 70.8594 32.3633L69.3555 33.8867C68.125 35.1172 66.1328 35.1367 64.9023 33.9063L61.8945 30.9375C61.2891 30.3516 60.957 29.5508 60.957 28.7109C60.957 27.8711 61.2695 27.0703 61.875 26.4844L63.3789 24.9609C63.9648 24.3555 64.7656 24.0234 65.625 24.0234C65.625 24.0234 65.6055 24.0234 65.625 24.0234ZM67.1289 31.8945C67.1875 31.8945 67.2461 31.875 67.2852 31.8359L68.7891 30.3125C68.8672 30.2148 68.8672 30.0781 68.7891 30L65.7813 27.0312C65.7227 26.9727 65.6641 26.9727 65.625 26.9727C65.5859 26.9727 65.5274 26.9922 65.4688 27.0312L63.9648 28.5547C63.9063 28.6133 63.9063 28.6719 63.9063 28.7109C63.9063 28.75 63.9258 28.8086 63.9648 28.8672L66.9727 31.8359C67.0117 31.875 67.0703 31.8945 67.1289 31.8945Z" fill="black"/>
<path d="M87.3839 6.85547C87.755 6.85547 88.1261 6.99219 88.4191 7.28516C88.9855 7.85156 89.005 8.78906 88.4386 9.35547L72.5402 25.4297C71.9738 25.9961 71.0363 26.0156 70.4699 25.4492C69.9034 24.8828 69.8839 23.9453 70.4503 23.3789L86.3488 7.28516C86.6222 7.01172 87.0128 6.85547 87.3839 6.85547Z" fill="black"/>
<path d="M56.9346 31.6797C57.3057 31.6797 57.6768 31.8164 57.9697 32.1094L62.0713 36.2109C62.6377 36.7773 62.6377 37.7148 62.0713 38.2812C61.5049 38.8477 60.5674 38.8477 60.001 38.2812L55.8994 34.1797C55.333 33.6133 55.333 32.6758 55.8994 32.1094C56.1729 31.8164 56.5439 31.6797 56.9346 31.6797Z" fill="black"/>
<path d="M52.8916 35.7227C53.2627 35.7227 53.6338 35.8594 53.9268 36.1523L58.0283 40.2539C58.5947 40.8203 58.5947 41.7578 58.0283 42.3242C57.4619 42.8906 56.5244 42.8906 55.958 42.3242L51.8564 38.2227C51.29 37.6563 51.29 36.7188 51.8564 36.1523C52.1299 35.8594 52.5205 35.7227 52.8916 35.7227Z" fill="black"/>
<path d="M48.3994 40.2148C48.7705 40.2148 49.1416 40.3516 49.4346 40.6445L53.5361 44.7461C54.1025 45.3125 54.1025 46.25 53.5361 46.8164C52.9697 47.3828 52.0322 47.3828 51.4658 46.8164L47.3643 42.7148C46.7979 42.1484 46.7979 41.2109 47.3643 40.6445C47.6572 40.3516 48.0283 40.2148 48.3994 40.2148Z" fill="black"/>
<path d="M44.3564 44.2383C44.7275 44.2383 45.0986 44.375 45.3916 44.668L49.4932 48.7695C50.0596 49.3359 50.0596 50.2734 49.4932 50.8399C48.9268 51.4063 47.9893 51.4063 47.4228 50.8399L43.3213 46.7383C42.7549 46.1719 42.7549 45.2344 43.3213 44.668C43.6143 44.3945 43.9854 44.2383 44.3564 44.2383Z" fill="black"/>
<path d="M27.3828 54.6875L29.5117 56.7773C29.4922 56.7383 29.4922 56.6992 29.4922 56.6797C29.4922 56.6406 29.4922 56.582 29.5508 56.5234L57.1484 28.4961C57.7148 27.8906 58.6914 27.8711 59.2773 28.457L67.4023 36.5039C67.6953 36.7969 67.8516 37.168 67.8516 37.5781C67.8516 37.9883 67.6953 38.3594 67.4023 38.6523L39.8047 66.6797C39.7656 66.7187 39.707 66.7383 39.6484 66.7383C39.6289 66.7383 39.5898 66.7383 39.5703 66.7188L41.6797 68.7891C41.7187 68.75 41.7773 68.7109 41.8164 68.6523L69.4141 40.625C70.2344 39.7852 70.6836 38.6719 70.6836 37.5C70.6836 36.3281 70.2344 35.2344 69.4141 34.4141L61.2891 26.3672C60.4492 25.5273 59.3359 25.1172 58.2422 25.1172C57.1094 25.1172 55.9766 25.5469 55.1172 26.4453L27.5586 54.4922C27.5 54.5508 27.4414 54.6289 27.3828 54.6875Z" fill="black"/>
</svg>
