<svg width="100" height="100" viewBox="0 0 100 100" fill="none" xmlns="http://www.w3.org/2000/svg">
<path d="M51.6128 64.5154C51.6128 54.7331 43.6531 46.7734 33.8708 46.7734C24.0886 46.7734 16.1289 54.7331 16.1289 64.5154C16.1289 74.2976 24.0886 82.2573 33.8708 82.2573C43.6531 82.2573 51.6128 74.2976 51.6128 64.5154ZM33.8708 79.0315C25.866 79.0315 19.3547 72.5202 19.3547 64.5154C19.3547 56.5105 25.866 49.9992 33.8708 49.9992C41.8757 49.9992 48.387 56.5105 48.387 64.5154C48.387 72.5202 41.8757 79.0315 33.8708 79.0315Z" fill="black"/>
<path d="M88.7097 77.4194H67.7419V66.6242C68.3242 67.4548 68.971 68.2548 69.7129 68.9968C73.1726 72.4565 77.7145 74.1855 82.2581 74.1855C86.8016 74.1855 91.3452 72.4565 94.8032 68.9968C101.721 62.079 101.721 50.8226 94.8032 43.9048C87.8855 36.9871 76.629 36.9871 69.7113 43.9048C68.9694 44.6468 68.3242 45.4468 67.7403 46.2774V40.5194C67.7403 36.2952 65.1435 32.5774 61.2887 31.0806V29.0323H67.7403V0H0V29.0323H6.45161V31.0823C2.59677 32.5806 0 36.2968 0 40.521V100H56.4516H58.0645H88.7097C94.9339 100 100 94.9339 100 88.7097C100 82.4855 94.9339 77.4194 88.7097 77.4194ZM92.5226 66.7161C87.2468 71.9919 78.8952 72.3452 73.2 67.7887L93.5952 47.3935C98.15 53.0903 97.7968 61.4419 92.5226 66.7161ZM71.9936 46.1871C74.8242 43.3565 78.5419 41.9419 82.2581 41.9419C85.4677 41.9419 88.6758 43.0016 91.3145 45.1129L70.9194 65.5081C66.3661 59.8129 66.7194 51.4613 71.9936 46.1871ZM3.22581 25.8065V3.22581H6.45161V22.5806H9.67742V3.22581H12.9032V22.5806H16.129V3.22581H19.3548V22.5806H22.5806V3.22581H25.8065V22.5806H29.0323V3.22581H32.2581V22.5806H35.4839V3.22581H38.7097V22.5806H41.9355V3.22581H45.1613V22.5806H48.3871V3.22581H51.6129V22.5806H54.8387V3.22581H58.0645V22.5806H61.2903V3.22581H64.5161V25.8065H3.22581ZM8.45484 33.8226L9.67742 33.5161V29.0323H58.0645V33.5161L59.2871 33.821C62.3016 34.5742 64.4113 37.2323 64.5 40.321H3.24194C3.33065 37.2339 5.44194 34.5758 8.45484 33.8226ZM3.22581 43.5484H64.5161V77.4194H56.4516C51.3484 77.4194 47.029 80.8258 45.6371 85.4839H3.22581V43.5484ZM3.22581 96.7742V88.7097H45.1613C45.1613 91.8677 46.4677 94.7226 48.5661 96.7742H3.22581ZM70.9677 96.7742H58.0645H56.4516C52.0048 96.7742 48.3871 93.1565 48.3871 88.7097C48.3871 84.2629 52.0048 80.6452 56.4516 80.6452H70.9677V96.7742ZM88.7097 96.7742H74.1935V80.6452H88.7097C93.1565 80.6452 96.7742 84.2629 96.7742 88.7097C96.7742 93.1565 93.1565 96.7742 88.7097 96.7742Z" fill="black"/>
<path d="M38.7091 59.6782V53.2266H29.0317V59.6782H22.5801V69.3556H29.0317V75.8072H38.7091V69.3556H45.1607V59.6782H38.7091ZM41.9349 66.1298H35.4833V72.5814H32.2575V66.1298H25.8059V62.904H32.2575V56.4524H35.4833V62.904H41.9349V66.1298Z" fill="black"/>
</svg>
