<svg width="100" height="100" viewBox="0 0 100 100" fill="none" xmlns="http://www.w3.org/2000/svg">
<path d="M82.9172 0H16.6109C12.1234 0 8.33398 3.98125 8.33398 8.6916V16.6666C8.33398 17.8172 9.2666 18.75 10.4172 18.75H12.5006V86.7813C12.5006 94.9354 17.9297 100 26.6672 100H72.8193C81.7381 100 87.5006 94.8125 87.5006 86.7813V18.75H89.584C90.7346 18.75 91.6674 17.8172 91.6674 16.6666V8.6916C91.6672 4.14375 87.5006 0 82.9172 0ZM83.334 86.7813C83.334 92.45 79.4027 95.8334 72.8193 95.8334H26.6672C22.9318 95.8334 16.6672 94.6584 16.6672 86.7813V18.75H83.3338V86.7813H83.334ZM87.5006 14.5834H12.5006V8.6916C12.5006 6.28125 14.4215 4.1666 16.6109 4.1666H82.9172C85.2297 4.1666 87.5006 6.4082 87.5006 8.6916V14.5834Z" fill="black"/>
<path d="M22.9174 83.3342H77.084C78.2346 83.3342 79.1674 82.4014 79.1674 81.2508V29.1674C79.1674 28.0168 78.2346 27.084 77.084 27.084H22.9174C21.7668 27.084 20.834 28.0168 20.834 29.1674V81.2508C20.8342 82.4014 21.7668 83.3342 22.9174 83.3342ZM25.0008 31.2508H75.0008V79.1674H25.0008V31.2508Z" fill="black"/>
<path d="M68.7514 45.8328H60.418V37.4994C60.418 36.3488 59.4852 35.416 58.3346 35.416H41.668C40.5174 35.416 39.5846 36.3488 39.5846 37.4994V45.8328H31.2514C30.1008 45.8328 29.168 46.7656 29.168 47.9162V62.4994C29.168 63.65 30.1008 64.5828 31.2514 64.5828H39.5848V72.9162C39.5848 74.0668 40.5176 74.9996 41.6682 74.9996H58.3348C59.4854 74.9996 60.4182 74.0668 60.4182 72.9162V64.5828H68.7514C69.902 64.5828 70.8348 63.65 70.8348 62.4994V47.916C70.8348 46.7654 69.902 45.8328 68.7514 45.8328ZM66.668 60.416H58.3346C57.184 60.416 56.2512 61.3488 56.2512 62.4994V70.8328H43.7512V62.4994C43.7512 61.3488 42.8184 60.416 41.6678 60.416H33.3344V49.9994H41.6678C42.8184 49.9994 43.7512 49.0666 43.7512 47.916V39.5826H56.2512V47.916C56.2512 49.0666 57.184 49.9994 58.3346 49.9994H66.668V60.416V60.416Z" fill="black"/>
</svg>
