<svg width="100" height="100" viewBox="0 0 100 100" fill="none" xmlns="http://www.w3.org/2000/svg">
<path d="M9.29688 23.5156V23.6328C9.29688 23.5937 9.33594 23.5547 9.33594 23.5156H9.29688Z" fill="black"/>
<path d="M9.25781 23.6719C9.25781 23.6719 9.29687 23.6719 9.25781 23.6719C9.29687 23.6328 9.25781 23.6328 9.25781 23.6719Z" fill="black"/>
<path d="M66.7969 42.1875C73.1827 42.1875 78.3594 37.0108 78.3594 30.625C78.3594 24.2392 73.1827 19.0625 66.7969 19.0625C60.4111 19.0625 55.2344 24.2392 55.2344 30.625C55.2344 37.0108 60.4111 42.1875 66.7969 42.1875Z" fill="black"/>
<path d="M80.7813 44.1406H54.1406C45.8984 44.1406 37.8516 49.7656 37.8516 59.3359V66.0156L22.9297 66.0547C22.8125 66.0547 22.3047 66.0156 21.6406 65.3906C21.2891 65.0781 21.2109 64.2578 21.25 64.0625V50.625H29.4531C32.3828 50.625 34.7266 48.2422 34.7266 45.3125V16.875C34.7656 13.9453 32.4609 11.7188 29.5312 11.7188H21.25C22.1094 9.76563 22.4219 7.30469 22.4219 6.875C22.4219 5 20.8203 3.4375 18.8672 3.4375C16.9141 3.4375 15.3125 5.03906 15.3125 6.875C15.3125 7.26563 15.625 9.72656 16.4844 11.6797H8.67188C5.78125 11.7188 3.51562 13.9453 3.51562 16.875V45.2344C3.51562 48.1641 5.85938 50.5469 8.78906 50.5469H16.9922V63.9063C16.9922 64.0234 16.8359 66.7188 18.75 68.5156C20.4688 70.1172 22.1484 70.3125 23.0469 70.3125C23.2031 70.3125 23.3203 70.2734 23.3594 70.2734H37.8906V87.8516C37.8906 94.8828 47.2656 94.8828 47.2656 87.8516V70.2734H48.8281V65.9766H47.2656V60.1172H51.9141L51.9531 96.8359H83.0859L83.0469 60.1172H87.8906V87.4609C87.8906 94.4922 96.875 94.4922 96.875 87.4609V59.2969C96.875 49.5703 89.0625 44.1406 80.7813 44.1406ZM18.9063 5.78125C19.5703 5.78125 20.0781 6.25 20.0781 6.79688C20.0781 7.69531 19.4531 10.0781 18.9063 11.0156C18.3594 10.0781 17.7344 7.73438 17.7344 6.79688C17.6953 6.25 18.2422 5.78125 18.9063 5.78125ZM9.375 23.5156C9.33594 23.5547 9.375 23.5938 9.375 23.6328V23.6719V42.8906C9.375 44.2969 9.96094 44.9219 11.3672 44.9219H15.8203L16.7578 47.2656H8.71094C7.65625 47.2656 6.64062 46.3281 6.64062 45.2344V16.875C6.64062 15.8203 7.65625 14.8438 8.71094 14.8438H29.5312C30.5859 14.8438 31.6406 15.8203 31.6406 16.875V45.2344C31.6406 46.2891 30.5859 47.2656 29.5312 47.2656H21.7578L22.6953 44.9219H26.9531C28.3594 44.9219 29.0625 44.2578 29.0625 42.8516V23.6328C29.0625 23.5938 23.9062 24.8047 18.9844 23.5547C14.0625 22.3047 9.375 23.5156 9.375 23.5156ZM48.0469 66.9922V69.375H23.3203C22.7734 69.4141 21.1328 69.4141 19.4141 67.8125C17.8125 66.3281 17.9688 63.9453 17.9688 63.9063V61.3281H20.3125V63.9844C20.3125 63.9844 20.3125 65.3516 21.0547 66.0547C21.6406 66.6016 22.1875 66.8359 22.5391 66.9141V66.9922H48.0469Z" fill="black"/>
</svg>
