<svg width="100" height="100" viewBox="0 0 100 100" fill="none" xmlns="http://www.w3.org/2000/svg">
<path d="M64.0619 9.375C62.1869 9.375 60.6244 9.6875 58.7494 10C55.3119 6.5625 49.0619 6.5625 45.6244 10C43.1244 12.5 41.2494 19.6875 40.6244 23.4375C38.4369 24.6875 35.3119 24.6875 33.4369 22.5C32.1869 21.25 30.3119 21.25 29.0619 22.5C27.8119 23.75 27.8119 25.625 29.0619 26.875C31.2494 29.6875 34.3744 30.625 37.4994 30.625C39.9994 30.625 42.4994 29.6875 44.6869 28.125C48.4369 27.5 56.2494 25.625 59.0619 23.125C60.9369 21.25 61.8744 18.4375 61.8744 15.625C62.4994 15.625 63.1244 15.625 64.0619 15.625C75.3119 15.625 84.3744 24.6875 84.3744 35.9375C84.3744 47.1875 75.3119 56.25 64.0619 56.25H54.0619L73.7494 43.125C74.9994 42.5 75.3119 40.9375 74.9994 39.6875C74.6869 38.4375 73.4369 37.5 71.8744 37.5H15.6244C14.3744 37.5 13.1244 38.4375 12.4994 39.6875C12.1869 40.9375 12.4994 42.5 13.7494 43.125L33.7494 56.25C28.7494 57.5 24.9994 61.875 24.9994 67.1875C24.9994 73.125 29.9994 78.125 35.9369 78.125H40.6244V87.5H34.3744C32.4994 87.5 31.2494 88.75 31.2494 90.625C31.2494 92.5 32.4994 93.75 34.3744 93.75H48.4369C54.3744 93.75 59.3744 88.75 59.3744 82.8125C59.3744 76.875 54.3744 71.875 48.4369 71.875H46.8744V62.5H64.0619C78.7494 62.5 90.6244 50.625 90.6244 35.9375C90.6244 21.25 78.7494 9.375 64.0619 9.375ZM31.2494 67.1875C31.2494 64.6875 33.4369 62.5 35.9369 62.5H40.6244V71.875H35.9369C33.4369 71.875 31.2494 69.6875 31.2494 67.1875ZM53.1244 82.8125C53.1244 85.3125 50.9369 87.5 48.4369 87.5H46.8744V78.125H48.4369C50.9369 78.125 53.1244 80.3125 53.1244 82.8125Z" fill="black"/>
</svg>
