<svg width="100" height="100" viewBox="0 0 100 100" fill="none" xmlns="http://www.w3.org/2000/svg">
<path d="M29.166 12.5H70.8327" stroke="black" stroke-width="1.5" stroke-linecap="round" stroke-linejoin="round"/>
<path d="M37.5 12.5H62.5V75C62.5 78.3152 61.183 81.4946 58.8388 83.8388C56.4946 86.183 53.3152 87.5 50 87.5C46.6848 87.5 43.5054 86.183 41.1612 83.8388C38.817 81.4946 37.5 78.3152 37.5 75V12.5Z" stroke="black" stroke-width="1.5" stroke-linecap="round" stroke-linejoin="round"/>
<path d="M37.5 50C39.1408 51.6428 41.0893 52.9461 43.2342 53.8353C45.379 54.7245 47.6781 55.1822 50 55.1822C52.3219 55.1822 54.621 54.7245 56.7658 53.8353C58.9107 52.9461 60.8592 51.6428 62.5 50V50" stroke="black" stroke-width="1.5" stroke-linecap="round" stroke-linejoin="round"/>
</svg>
