<svg width="100" height="100" viewBox="0 0 100 100" fill="none" xmlns="http://www.w3.org/2000/svg">
<path d="M63.2445 31.4438H57.5896V25.7889C57.5896 24.7059 56.7115 23.8281 55.6289 23.8281H44.5568C43.474 23.8281 42.5961 24.7061 42.5961 25.7889V31.4438H36.9412C35.8584 31.4438 34.9805 32.3217 34.9805 33.4045V44.4764C34.9805 45.5594 35.8586 46.4371 36.9412 46.4371H42.5961V52.0924C42.5961 53.1752 43.4742 54.0531 44.5568 54.0531H55.6289C56.7117 54.0531 57.5896 53.175 57.5896 52.0924V46.4371H63.2445C64.3273 46.4371 65.2053 45.5592 65.2053 44.4764V33.4045C65.2053 32.3215 64.3273 31.4438 63.2445 31.4438ZM61.2838 42.5156H55.6289C54.5461 42.5156 53.6682 43.3936 53.6682 44.4764V50.1316H46.5176V44.4764C46.5176 43.3934 45.6395 42.5156 44.5568 42.5156H38.902V35.3652H44.5568C45.6396 35.3652 46.5176 34.4873 46.5176 33.4045V27.7496H53.6682V33.4045C53.6682 34.4875 54.5463 35.3652 55.6289 35.3652H61.2838V42.5156Z" fill="black"/>
<path d="M10.9807 86.7064C10.9922 81.7232 14.926 77.64 19.8449 77.3895C20.0035 77.3814 20.1633 77.3775 20.324 77.3775H90.9801C92.0629 77.3775 92.9408 76.4996 92.9408 75.4168V1.96074C92.9408 0.87793 92.0627 0 90.9801 0H22.6793C14.066 0 7.05859 7.01094 7.05859 15.6287V86.7018C7.05859 86.7047 7.05898 86.7074 7.05898 86.7105C7.05898 86.7162 7.05859 86.7223 7.05859 86.7279C7.0584 94.0463 13.0094 100 20.3238 100H90.9801C92.0629 100 92.9408 99.1219 92.9408 98.0393C92.9408 96.9566 92.0627 96.0785 90.9801 96.0785H20.3238C15.1717 96.0785 10.9799 91.8838 10.9799 86.7281C10.9799 86.7213 10.9805 86.7145 10.9805 86.7076C10.9807 86.707 10.9807 86.7068 10.9807 86.7064ZM10.9799 77.3172V15.6287C10.9801 9.17344 16.2283 3.92168 22.6793 3.92168H89.0191V73.4559H20.3238C20.0959 73.4559 19.8697 73.4615 19.6445 73.473C19.4539 73.4828 19.265 73.4986 19.077 73.5162C19.0432 73.5195 19.009 73.5205 18.9752 73.524C15.8705 73.8389 13.0795 75.2303 10.9799 77.3172Z" fill="black"/>
<path d="M75.757 84.7676H18.3201C17.2373 84.7676 16.3594 85.6457 16.3594 86.7283C16.3594 87.8111 17.2375 88.6891 18.3201 88.6891H75.757C76.8398 88.6891 77.7178 87.8109 77.7178 86.7283C77.7178 85.6457 76.8398 84.7676 75.757 84.7676Z" fill="black"/>
<path d="M90.9814 84.7676H81.6678C80.585 84.7676 79.707 85.6457 79.707 86.7283C79.707 87.8111 80.5852 88.6891 81.6678 88.6891H90.9814C92.0643 88.6891 92.9422 87.8109 92.9422 86.7283C92.9422 85.6457 92.0641 84.7676 90.9814 84.7676Z" fill="black"/>
<path d="M16.5369 22.9414C15.4541 22.9414 14.5762 23.8193 14.5762 24.9021V63.017C14.5762 64.0998 15.4543 64.9777 16.5369 64.9777C17.6195 64.9777 18.4977 64.0996 18.4977 63.017V24.9021C18.4977 23.8191 17.6195 22.9414 16.5369 22.9414Z" fill="black"/>
<path d="M16.5369 12.582C15.4541 12.582 14.5762 13.46 14.5762 14.5428V18.9928C14.5762 20.0758 15.4543 20.9535 16.5369 20.9535C17.6195 20.9535 18.4977 20.0756 18.4977 18.9928V14.5428C18.4977 13.4598 17.6195 12.582 16.5369 12.582Z" fill="black"/>
</svg>
