<svg width="100" height="100" viewBox="0 0 100 100" fill="none" xmlns="http://www.w3.org/2000/svg">
<path d="M82.4088 0H82.4079H63.8894H36.1117H32.4079H8.33398V100H32.4079H36.1117H82.4088C87.5142 100 91.6672 95.8516 91.6672 90.7518V9.24824C91.6672 4.14837 87.5142 0 82.4088 0ZM32.4079 96.2962H12.0378V3.70379H32.4079V96.2962V96.2962ZM67.5932 3.70379H78.7041V28.8631L73.1487 23.3076L67.5932 28.8631V3.70379V3.70379ZM87.9634 90.7518C87.9634 93.8097 85.4714 96.2962 82.4088 96.2962H36.1117V3.70379H63.8894V37.8038L73.1487 28.5445L82.4079 37.8038V3.70379H82.4088C85.4714 3.70379 87.9634 6.19024 87.9634 9.24824V90.7518Z" fill="black"/>
<path d="M67.5929 51.8516H56.4825V62.9625H45.3711V74.0734H56.482V85.1843H67.5929V74.0734H78.7038V62.9625H67.5929V51.8516ZM75.0005 66.6667V70.3705H63.8896V81.4814H60.1858V70.3705H49.0749V66.6667H60.1858V55.5558H63.8896V66.6667H75.0005Z" fill="black"/>
</svg>
