<svg width="100" height="100" viewBox="0 0 100 100" fill="none" xmlns="http://www.w3.org/2000/svg">
<path d="M91.2961 23.6327C90.4798 22.449 85.541 14.6327 91.3982 6.79592C92.6635 5.53061 93.3573 0.530612 88.2145 0H22.8267C14.3369 0 7.54102 7 7.54102 15.2857C7.54102 16.1429 7.7451 81.7347 7.7451 81.7347C7.7451 91.7143 16.0308 100 26.0104 100H88.2145C90.3369 100 92.2553 98.0816 92.4594 95.9592V26.5306C92.4798 25.4082 92.0308 24.3878 91.2961 23.6327ZM22.8267 8.4898H81.2145C79.7247 13.5918 80.1533 18.4694 81.4186 22.2857H22.8267C19.2145 22.2857 16.0308 19.3061 16.0308 15.4898C16.0308 11.6735 19.2349 8.4898 22.8267 8.4898ZM26.2349 91.7143C20.7247 91.7143 16.2553 87.2653 16.2553 81.7347V29.0612C18.2553 30.0204 20.5002 30.5714 22.8471 30.5714H83.99V91.7143H26.2349V91.7143Z" fill="black"/>
<path d="M66.4597 57.755H53.3985V44.6938C53.3985 42.755 51.827 41.1836 49.8883 41.1836C47.9495 41.1836 46.3781 42.755 46.3781 44.6938V57.755H33.3168C31.3781 57.755 29.8066 59.3265 29.8066 61.2652C29.8066 63.204 31.3781 64.7754 33.3168 64.7754H46.3781V77.8367C46.3781 79.7754 47.9495 81.3469 49.8883 81.3469C51.827 81.3469 53.3985 79.7754 53.3985 77.8367V64.7754H66.4597C68.3985 64.7754 69.9699 63.204 69.9699 61.2652C69.9699 59.3265 68.3985 57.755 66.4597 57.755Z" fill="black"/>
</svg>
