<svg width="100" height="100" viewBox="0 0 100 100" fill="none" xmlns="http://www.w3.org/2000/svg">
<path d="M68.1306 22.8795L59.4515 12.7814H60.6384C61.1189 12.7814 61.5081 12.3922 61.5081 11.9117V6.34311C61.5079 2.84536 58.6626 0 55.1648 0H44.8336C41.3361 0 38.4905 2.84536 38.4905 6.34311V11.9117C38.4905 12.3922 38.8799 12.7814 39.3602 12.7814H40.547L31.8679 22.8795C29.3585 23.0905 27.3809 25.2003 27.3809 27.7631V95.099C27.3809 97.8015 29.5795 100 32.2821 100H67.7162C70.4189 100 72.6176 97.8015 72.6176 95.099V27.7631C72.6178 25.2003 70.6399 23.0905 68.1306 22.8795ZM29.1203 79.5897H56.98C57.4605 79.5897 57.8497 79.2005 57.8497 78.72C57.8497 78.2395 57.4605 77.8503 56.98 77.8503H29.1203V43.4547H70.8783V44.48H55.3887C54.9082 44.48 54.519 44.8692 54.519 45.3497C54.519 45.8302 54.9082 46.2194 55.3887 46.2194H70.8783V81.4147H29.1203V79.5897ZM40.23 6.34311C40.23 3.80472 42.2952 1.73946 44.8336 1.73946H55.1648C57.7032 1.73946 59.7685 3.80472 59.7685 6.34311V11.0419H57.3948V6.93474C57.3948 6.45423 57.0056 6.065 56.5251 6.065C56.0446 6.065 55.6554 6.45423 55.6554 6.93474V11.0419H51.4158V3.66045C51.4158 3.17995 51.0265 2.79072 50.546 2.79072C50.0657 2.79072 49.6763 3.17995 49.6763 3.66045V11.0419H45.1162V6.93474C45.1162 6.45423 44.7268 6.065 44.2465 6.065C43.7662 6.065 43.3768 6.45423 43.3768 6.93474V11.0419H40.23V6.34311ZM57.1578 12.7814L65.822 22.8621H34.1764L42.8408 12.7814H57.1578ZM32.2821 24.6016C32.2976 24.6016 32.3123 24.5973 32.3279 24.5966C32.3447 24.5977 32.3604 24.6016 32.3774 24.6016H67.7164C69.4599 24.6016 70.8783 26.0199 70.8783 27.7631V41.7152H29.1203V27.7631C29.1203 26.0197 30.5387 24.6016 32.2821 24.6016ZM67.7162 98.2605H32.2821C30.5387 98.2605 29.1203 96.8422 29.1203 95.099V83.1542H70.8783V95.099C70.8783 96.8424 69.4597 98.2605 67.7162 98.2605Z" fill="black"/>
<path d="M48.7662 46.2199H52.3276C52.8081 46.2199 53.1973 45.8307 53.1973 45.3502C53.1973 44.8697 52.8081 44.4805 52.3276 44.4805H48.7662C48.2859 44.4805 47.8965 44.8697 47.8965 45.3502C47.8965 45.8305 48.2859 46.2199 48.7662 46.2199Z" fill="black"/>
<path d="M60.8819 56.2637H54.902V50.2838C54.902 49.8033 54.5128 49.4141 54.0323 49.4141H44.5473C44.067 49.4141 43.6775 49.8033 43.6775 50.2838V56.2637H37.6979C37.2176 56.2637 36.8281 56.6529 36.8281 57.1334V66.6182C36.8281 67.0987 37.2176 67.4879 37.6979 67.4879H43.6775V73.4678C43.6775 73.9483 44.067 74.3375 44.5473 74.3375H54.0323C54.5128 74.3375 54.902 73.9483 54.902 73.4678V67.4879H60.8819C61.3624 67.4879 61.7516 67.0987 61.7516 66.6182V57.1334C61.7516 56.6531 61.3624 56.2637 60.8819 56.2637ZM60.0121 65.7485H54.0323C53.5518 65.7485 53.1625 66.1377 53.1625 66.6182V72.5981H45.417V66.6182C45.417 66.1377 45.0276 65.7485 44.5473 65.7485H38.5676V58.0031H44.5473C45.0276 58.0031 45.417 57.6139 45.417 57.1334V51.1535H53.1625V57.1334C53.1625 57.6139 53.5518 58.0031 54.0323 58.0031H60.0121V65.7485Z" fill="black"/>
</svg>
