<svg width="100" height="100" viewBox="0 0 100 100" fill="none" xmlns="http://www.w3.org/2000/svg">
<path d="M63.5491 9.5H36.4518C35.8016 9.5 35.2736 10.028 35.2736 10.6782V20.6506H20.6185H5.891C2.64397 20.6506 0 23.2945 0 26.5416V84.6103C0 87.8551 2.64397 90.5013 5.891 90.5013H20.6185H79.3832H94.1086C97.3621 90.5013 99.9996 87.8551 99.9996 84.6103V26.5411C99.9996 23.2941 97.3621 20.6501 94.1086 20.6501H79.3811H64.7273V10.6782C64.7277 10.0258 64.2006 9.5 63.5491 9.5ZM37.63 11.8564H62.3709V20.6501H37.63V11.8564ZM2.3564 84.6103V26.5411C2.3564 24.5919 3.94304 23.0065 5.891 23.0065H14.7275V88.1449H5.891C3.94566 88.1449 2.3564 86.5569 2.3564 84.6103ZM97.6458 26.5411V84.6099C97.6458 86.5569 96.0552 88.1449 94.1107 88.1449H85.4169V23.0065H94.1086C96.0556 23.0065 97.6458 24.5919 97.6458 26.5411ZM78.205 88.1449H21.7967V23.0065H36.4518H63.5495H78.2055V88.1449H78.205Z" fill="black"/>
<path d="M54.7041 41.6352C54.7041 40.9837 54.1774 40.457 53.5259 40.457H46.4763C45.8261 40.457 45.2981 40.9837 45.2981 41.6352V50.8719H36.061C35.4108 50.8719 34.8828 51.399 34.8828 52.0488V59.097C34.8828 59.7437 35.4108 60.2752 36.061 60.2752H45.2981V69.5193C45.2981 70.1656 45.8261 70.6975 46.4763 70.6975H53.5259C54.1774 70.6975 54.7041 70.1656 54.7041 69.5193V60.2752H63.946C64.5944 60.2752 65.1237 59.7437 65.1237 59.097V52.0488C65.1237 51.399 64.5944 50.8719 63.946 50.8719H54.7041V41.6352Z" fill="black"/>
</svg>
