<svg width="100" height="100" viewBox="0 0 100 100" fill="none" xmlns="http://www.w3.org/2000/svg">
<path d="M81.9531 27.1582C81.7492 26.5313 81.3522 25.985 80.819 25.5973C80.2858 25.2097 79.6436 25.0006 78.9844 25H71.875V14.0625C71.875 12.334 70.4785 10.9375 68.75 10.9375H31.25C29.5215 10.9375 28.125 12.334 28.125 14.0625V25H21.0156C20.356 24.9991 19.7132 25.2076 19.1797 25.5955C18.6461 25.9833 18.2495 26.5305 18.0469 27.1582L10.9375 49.0234V85.9375C10.9375 87.666 12.334 89.0625 14.0625 89.0625H85.9375C87.666 89.0625 89.0625 87.666 89.0625 85.9375V49.0234L81.9531 27.1582ZM64.4531 61.3281C64.4531 61.7578 64.1016 62.1094 63.6719 62.1094H53.125V72.6562C53.125 73.0859 52.7734 73.4375 52.3438 73.4375H47.6562C47.2266 73.4375 46.875 73.0859 46.875 72.6562V62.1094H36.3281C35.8984 62.1094 35.5469 61.7578 35.5469 61.3281V56.6406C35.5469 56.2109 35.8984 55.8594 36.3281 55.8594H46.875V45.3125C46.875 44.8828 47.2266 44.5312 47.6562 44.5312H52.3438C52.7734 44.5312 53.125 44.8828 53.125 45.3125V55.8594H63.6719C64.1016 55.8594 64.4531 56.2109 64.4531 56.6406V61.3281ZM64.8438 25H35.1562V17.9688H64.8438V25Z" fill="black"/>
</svg>
