<svg width="100" height="100" viewBox="0 0 100 100" fill="none" xmlns="http://www.w3.org/2000/svg">
<path d="M87.1326 20.9562H85.1902V17.8703C85.1902 17.1198 84.5821 16.5116 83.8315 16.5116H76.2228C75.4723 16.5116 74.8641 17.1198 74.8641 17.8703V20.9562H68.1158V17.51C68.1158 12.2415 63.8293 7.95508 58.5609 7.95508H41.4386C36.1701 7.95508 31.8837 12.2415 31.8837 17.51V20.9562H25.1359V17.8703C25.1359 17.1198 24.5277 16.5116 23.7772 16.5116H16.1685C15.4179 16.5116 14.8098 17.1198 14.8098 17.8703V20.9562H12.8674C5.76087 20.9562 0 26.717 0 33.8236V79.1768C0 86.2833 5.76087 92.0442 12.8674 92.0442H87.1326C94.2391 92.0442 100 86.2833 100 79.1768V33.8236C100 26.717 94.2391 20.9562 87.1326 20.9562ZM37.3185 17.51C37.3185 15.2382 39.1668 13.3899 41.4386 13.3899H58.5609C60.8326 13.3899 62.681 15.2382 62.681 17.51V20.9562H37.3185V17.51ZM50 79.6768C37.2 79.6768 26.8234 69.3002 26.8234 56.5002C26.8234 43.7002 37.2 33.3236 50 33.3236C62.8 33.3236 73.1766 43.7002 73.1766 56.5002C73.1766 69.3002 62.8 79.6768 50 79.6768ZM67.3995 62.192C67.3995 62.5524 67.2571 62.898 67.0027 63.1534C66.7478 63.4083 66.4027 63.5518 66.0424 63.5524L57.0668 63.5605V72.5355C57.0668 73.2861 56.4587 73.8942 55.7082 73.8942H44.2918C43.5413 73.8942 42.9332 73.2861 42.9332 72.5355V63.5736L33.9712 63.5817C33.9707 63.5817 33.9707 63.5817 33.9701 63.5817C33.6103 63.5817 33.2652 63.4388 33.0103 63.185C32.7554 62.9301 32.612 62.585 32.6114 62.2246L32.6011 50.8089C32.6005 50.0583 33.2082 49.4496 33.9587 49.4491L42.9337 49.4409V40.4649C42.9337 39.7143 43.5418 39.1062 44.2924 39.1062H55.7082C56.4587 39.1062 57.0668 39.7143 57.0668 40.4649V49.4268L66.0288 49.4187C66.0293 49.4187 66.0299 49.4187 66.0299 49.4187C66.7799 49.4187 67.388 50.0263 67.3886 50.7763L67.3995 62.192Z" fill="black"/>
</svg>
