<svg width="100" height="100" viewBox="0 0 100 100" fill="none" xmlns="http://www.w3.org/2000/svg">
<path d="M77.85 2.73438H22.5408C17.3414 2.74022 12.3566 4.80826 8.68011 8.48479C5.00357 12.1613 2.93553 17.1461 2.92969 22.3455V77.6547C2.93558 82.8541 5.00365 87.8388 8.68018 91.5153C12.3567 95.1918 17.3415 97.2598 22.5408 97.2656H77.85C83.0493 97.2597 88.034 95.1917 91.7105 91.5152C95.387 87.8387 97.455 82.854 97.4609 77.6547V22.3455C97.4551 17.1461 95.3871 12.1614 91.7106 8.48486C88.0341 4.80833 83.0494 2.74027 77.85 2.73438V2.73438ZM95.1172 77.6547C95.112 82.2326 93.2911 86.6216 90.054 89.8587C86.8169 93.0958 82.4279 94.9167 77.85 94.9219H22.5408C17.9628 94.9167 13.5739 93.0958 10.3367 89.8587C7.09958 86.6216 5.27866 82.2327 5.27344 77.6547V22.3455C5.27861 17.7675 7.0995 13.3785 10.3366 10.1413C13.5738 6.90419 17.9628 5.08329 22.5408 5.07812H77.85C82.428 5.08335 86.8169 6.90427 90.054 10.1414C93.2911 13.3785 95.112 17.7675 95.1172 22.3455V77.6547Z" fill="black"/>
<path d="M78.9023 33.9844H64.6484V30.248C64.6469 28.7531 64.0523 27.3197 62.9952 26.2626C61.9381 25.2055 60.5048 24.6109 59.0098 24.6094H40.9902C39.4952 24.6109 38.0619 25.2055 37.0048 26.2626C35.9477 27.3197 35.3531 28.7531 35.3516 30.248V33.9844H21.0977C19.8021 33.9858 18.5599 34.5011 17.6438 35.4173C16.7277 36.3334 16.2124 37.5755 16.2109 38.8711V70.5037C16.2124 71.7993 16.7277 73.0415 17.6438 73.9576C18.5599 74.8738 19.802 75.3891 21.0977 75.3906H78.9023C80.198 75.3891 81.4401 74.8738 82.3562 73.9576C83.2723 73.0415 83.7876 71.7993 83.7891 70.5037V38.8711C83.7876 37.5755 83.2723 36.3334 82.3562 35.4173C81.4401 34.5011 80.1979 33.9858 78.9023 33.9844V33.9844ZM33.2031 36.3281H66.7969V73.0469H33.2031V36.3281ZM30.8594 73.0469H25.7812V36.3281H30.8594V73.0469ZM69.1406 36.3281H74.2188V73.0469H69.1406V36.3281ZM37.6953 30.248C37.6963 29.3745 38.0438 28.537 38.6615 27.9193C39.2792 27.3016 40.1167 26.9541 40.9902 26.9531H59.0098C59.8833 26.9541 60.7208 27.3016 61.3385 27.9193C61.9562 28.537 62.3037 29.3745 62.3047 30.248V33.9844H37.6953V30.248ZM18.5547 70.5037V38.8711C18.5555 38.1969 18.8236 37.5505 19.3004 37.0738C19.7771 36.5971 20.4235 36.3289 21.0977 36.3281H23.4375V73.0469H21.0977C20.4234 73.0461 19.777 72.7779 19.3003 72.3011C18.8236 71.8244 18.5554 71.1779 18.5547 70.5037ZM81.4453 70.5037C81.4446 71.1779 81.1764 71.8244 80.6997 72.3011C80.223 72.7779 79.5766 73.0461 78.9023 73.0469H76.5625V36.3281H78.9023C79.5765 36.3289 80.2229 36.5971 80.6996 37.0738C81.1764 37.5505 81.4445 38.1969 81.4453 38.8711V70.5037Z" fill="black"/>
<path d="M59.2031 47.6562H57.0312V45.4844C57.0302 44.4549 56.6208 43.4679 55.8929 42.74C55.1649 42.012 54.1779 41.6026 53.1484 41.6016H46.8516C45.8221 41.6026 44.8351 42.012 44.1071 42.74C43.3792 43.4679 42.9698 44.4549 42.9688 45.4844V47.6562H40.7969C39.7674 47.6573 38.7804 48.0667 38.0525 48.7946C37.3245 49.5226 36.9151 50.5096 36.9141 51.5391V57.8359C36.9151 58.8654 37.3245 59.8524 38.0525 60.5804C38.7804 61.3083 39.7674 61.7177 40.7969 61.7188H42.9688V63.8906C42.9698 64.9201 43.3792 65.9071 44.1071 66.635C44.8351 67.363 45.8221 67.7724 46.8516 67.7734H53.1484C54.1779 67.7724 55.1649 67.363 55.8929 66.635C56.6208 65.9071 57.0302 64.9201 57.0312 63.8906V61.7188H59.2031C60.2326 61.7177 61.2196 61.3083 61.9475 60.5804C62.6755 59.8524 63.0849 58.8654 63.0859 57.8359V51.5391C63.0849 50.5096 62.6755 49.5226 61.9475 48.7946C61.2196 48.0667 60.2326 47.6573 59.2031 47.6562V47.6562ZM60.7422 57.8359C60.7417 58.244 60.5794 58.6352 60.2909 58.9237C60.0024 59.2122 59.6112 59.3745 59.2031 59.375H55.8594C55.5486 59.375 55.2505 59.4985 55.0307 59.7182C54.811 59.938 54.6875 60.2361 54.6875 60.5469V63.8906C54.687 64.2987 54.5247 64.6899 54.2362 64.9784C53.9477 65.2669 53.5565 65.4292 53.1484 65.4297H46.8516C46.4435 65.4292 46.0523 65.2669 45.7638 64.9784C45.4753 64.6899 45.313 64.2987 45.3125 63.8906V60.5469C45.3125 60.2361 45.189 59.938 44.9693 59.7182C44.7495 59.4985 44.4514 59.375 44.1406 59.375H40.7969C40.3888 59.3745 39.9976 59.2122 39.7091 58.9237C39.4206 58.6352 39.2583 58.244 39.2578 57.8359V51.5391C39.2583 51.131 39.4206 50.7398 39.7091 50.4513C39.9976 50.1628 40.3888 50.0005 40.7969 50H44.1406C44.4514 50 44.7495 49.8765 44.9693 49.6568C45.189 49.437 45.3125 49.1389 45.3125 48.8281V45.4844C45.313 45.0763 45.4753 44.6851 45.7638 44.3966C46.0523 44.1081 46.4435 43.9458 46.8516 43.9453H53.1484C53.5565 43.9458 53.9477 44.1081 54.2362 44.3966C54.5247 44.6851 54.687 45.0763 54.6875 45.4844V48.8281C54.6875 49.1389 54.811 49.437 55.0307 49.6568C55.2505 49.8765 55.5486 50 55.8594 50H59.2031C59.6112 50.0005 60.0024 50.1628 60.2909 50.4513C60.5794 50.7398 60.7417 51.131 60.7422 51.5391V57.8359Z" fill="black"/>
</svg>
