<svg width="100" height="100" viewBox="0 0 100 100" fill="none" xmlns="http://www.w3.org/2000/svg">
<g clip-path="url(#clip0_1241_727)">
<path d="M80.8947 0H19.1036C14.2175 0 10.2422 3.97533 10.2422 8.86139V91.139C10.2422 96.0251 14.2175 100 19.1036 100H80.8952C85.7817 100 89.7566 96.0251 89.7566 91.139V8.86139C89.7561 3.97533 85.7812 0 80.8947 0ZM83.6797 88.0162C83.6797 91.1805 81.1054 93.7548 77.9415 93.7548H22.0572C18.8929 93.7548 16.3191 91.1805 16.3191 88.0162V11.9837C16.3191 8.81944 18.8934 6.2456 22.0572 6.2456H77.9415C81.1058 6.2456 83.6797 8.81944 83.6797 11.9837V88.0162V88.0162ZM77.9415 10.7568H22.0572C21.3806 10.7568 20.8299 11.3076 20.8299 11.9842V88.0167C20.8299 88.6938 21.3806 89.2445 22.0572 89.2445H77.9415C78.6181 89.2445 79.1689 88.6938 79.1689 88.0167V11.9837C79.1689 11.3071 78.6181 10.7568 77.9415 10.7568ZM67.3417 54.5112C67.3417 55.7571 66.3317 56.7666 65.0863 56.7666H57.418V65.0871C57.418 66.333 56.408 67.3425 55.1626 67.3425H46.1411C44.8957 67.3425 43.8857 66.333 43.8857 65.0871V56.7666H34.912C33.6666 56.7666 32.6566 55.7571 32.6566 54.5112V45.4897C32.6566 44.2438 33.6666 43.2343 34.912 43.2343H43.8862V34.9128C43.8862 33.667 44.8961 32.6575 46.1415 32.6575H55.1631C56.4085 32.6575 57.4185 33.667 57.4185 34.9128V43.2339H65.0868C66.3322 43.2339 67.3421 44.2434 67.3421 45.4892V54.5112H67.3417ZM74.6617 82.6033C74.6617 83.8492 73.6518 84.8587 72.4064 84.8587C71.1609 84.8587 70.151 83.8492 70.151 82.6033V70.1234C70.151 68.8775 71.1609 67.868 72.4064 67.868C73.6518 67.868 74.6617 68.8775 74.6617 70.1234V82.6033Z" fill="black"/>
</g>
<defs>
<clipPath id="clip0_1241_727">
<rect width="100" height="100" fill="white"/>
</clipPath>
</defs>
</svg>
