<svg width="100" height="100" viewBox="0 0 100 100" fill="none" xmlns="http://www.w3.org/2000/svg">
<path d="M69.1672 10.209L50.0006 29.3757C48.6096 30.7305 47.5041 32.3503 46.7492 34.1394C45.9944 35.9284 45.6055 37.8505 45.6055 39.7923C45.6055 41.7341 45.9944 43.6562 46.7492 45.4453C47.5041 47.2343 48.6096 48.8541 50.0006 50.209V50.209C51.3693 51.5865 53.0001 52.6759 54.7967 53.4129C56.5933 54.1499 58.5194 54.5196 60.4612 54.5002C62.403 54.4808 64.3212 54.0726 66.1028 53.2998C67.8843 52.527 69.4929 51.4053 70.8339 50.0007L90.0006 30.834" stroke="black" stroke-width="1.5" stroke-linecap="round" stroke-linejoin="round"/>
<path d="M30.834 89.7918L50.0007 70.8335C51.3916 69.4786 52.4971 67.8589 53.252 66.0698C54.0068 64.2807 54.3957 62.3586 54.3957 60.4168C54.3957 58.4751 54.0068 56.5529 53.252 54.7639C52.4971 52.9748 51.3916 51.3551 50.0007 50.0002C48.6492 48.6408 47.0424 47.5621 45.2726 46.826C43.5028 46.0899 41.6049 45.7109 39.6882 45.7109C37.7714 45.7109 35.8735 46.0899 34.1037 46.826C32.3339 47.5621 30.7271 48.6408 29.3757 50.0002L10.209 69.1668" stroke="black" stroke-width="1.5" stroke-linecap="round" stroke-linejoin="round"/>
<path d="M51.459 27.918L72.084 48.543" stroke="black" stroke-width="1.5" stroke-linecap="round" stroke-linejoin="round"/>
<path d="M63.25 16.125L83.875 36.75" stroke="black" stroke-width="1.5" stroke-linecap="round" stroke-linejoin="round"/>
<path d="M27.918 51.459L48.543 72.084" stroke="black" stroke-width="1.5" stroke-linecap="round" stroke-linejoin="round"/>
<path d="M16.125 63.25L36.75 83.875" stroke="black" stroke-width="1.5" stroke-linecap="round" stroke-linejoin="round"/>
</svg>
