<svg width="100" height="100" viewBox="0 0 100 100" fill="none" xmlns="http://www.w3.org/2000/svg">
<g clip-path="url(#clip0_1241_752)">
<path d="M65.3336 60.3254C66.1578 60.8526 67.0734 61.1849 68.021 61.272C69.6265 61.4194 71.286 60.9259 72.5845 59.7719C75.0805 57.5539 75.3092 53.7341 73.0909 51.2401L70.7185 48.5704L96.0155 23.2727C101.327 17.9623 101.327 9.35313 96.0155 4.04276C90.7058 -1.26686 82.0979 -1.26686 76.7843 4.04276L52.6217 28.2057L51.0825 26.4683C48.8637 23.9733 45.0432 23.7473 42.5484 25.9639C40.0536 28.1814 39.8284 32.0002 42.0459 34.4965L65.3336 60.3254Z" fill="black"/>
<path d="M28.7806 90.5097L60.1619 59.1279L46.613 44.2097L18.1687 73.2308C17.7856 73.623 17.2743 73.8204 16.7664 73.8204C16.2697 73.8204 15.7742 73.632 15.3906 73.2579C14.6149 72.4989 14.6049 71.2533 15.3641 70.4783L43.889 41.3771C43.9155 41.3476 43.9531 41.3396 43.9828 41.3131L41.8574 38.9727L9.54924 71.2786C5.09941 75.7266 4.39452 82.4896 7.40177 87.6879L0.763934 95.0143C-0.33057 96.2184 -0.237234 98.0819 0.968372 99.1769C1.53239 99.6874 2.23954 99.9411 2.94644 99.9411C3.74817 99.9411 4.5469 99.6151 5.12944 98.9725L11.4032 92.0451C13.7313 93.6656 16.4438 94.4891 19.1628 94.4891C22.646 94.4909 26.1267 93.1631 28.7806 90.5097Z" fill="black"/>
</g>
<defs>
<clipPath id="clip0_1241_752">
<rect width="100" height="100" fill="white"/>
</clipPath>
</defs>
</svg>
