<svg width="100" height="100" viewBox="0 0 100 100" fill="none" xmlns="http://www.w3.org/2000/svg">
<path d="M95.5185 4.50987C92.6293 1.61851 88.7834 0.0273438 84.6964 0.0273438C80.6094 0.0273438 76.766 1.61886 73.8747 4.50987L54.0359 24.3493L56.076 26.3917L7.5861 74.8865L3.91589 89.7513L0 93.669L6.30473 99.9737L10.1325 96.1477L25.1398 92.4433L73.6353 43.9479L75.6774 45.99L95.5182 26.1506C98.4074 23.2592 99.9997 19.4155 99.9997 15.3285C100 11.2411 98.4078 7.39913 95.5185 4.50987ZM23.0608 88.7512L8.05342 92.4555L6.30682 94.2032L5.77295 93.6693L7.60701 91.8321L11.2776 76.9673L58.9697 29.2754L70.7523 41.0586L23.0608 88.7512ZM92.6331 23.2655L75.6798 40.2178L59.8106 24.3475L76.7622 7.3953C78.8803 5.27513 81.7019 4.10842 84.6985 4.10842C87.6958 4.10842 90.5133 5.27513 92.6334 7.3953C94.7536 9.51546 95.9214 12.3329 95.9214 15.3309C95.921 18.3279 94.7533 21.1464 92.6331 23.2655Z" fill="#030303"/>
</svg>
