<svg width="100" height="100" viewBox="0 0 100 100" fill="none" xmlns="http://www.w3.org/2000/svg">
<path d="M83.4906 24.9273V34.3236C83.4906 39.0898 82.1566 43.7495 79.6331 47.7989C79.1927 48.5053 78.4349 48.8934 77.6598 48.8934C77.2403 48.8934 76.8158 48.7799 76.4335 48.5416C75.3448 47.8631 75.0123 46.4306 75.6908 45.3419C77.7547 42.0305 78.8455 38.2203 78.8455 34.3236V27.2499H31.7175C30.4348 27.2499 29.3949 26.21 29.3949 24.9273C29.3949 23.6447 30.4348 22.6048 31.7175 22.6048H81.168C82.4507 22.6048 83.4906 23.6447 83.4906 24.9273ZM28.4903 50.8656C28.9876 50.8656 29.4887 50.7065 29.9123 50.3781C30.9258 49.5917 31.1098 48.1328 30.3236 47.1193C28.9432 45.3393 27.8652 43.3692 27.1199 41.2629C26.692 40.0543 25.3652 39.4217 24.1557 39.8482C22.9463 40.2761 22.3131 41.6032 22.7407 42.8126C23.6517 45.3872 24.9681 47.794 26.6537 49.9665C27.1112 50.557 27.797 50.8656 28.4903 50.8656ZM81.5399 97.6768C81.5399 98.9595 80.5 99.9994 79.2174 99.9994H52.3994C52.3957 99.9994 52.3919 100 52.3881 100C52.3843 100 52.3806 99.9994 52.3768 99.9994H25.5586C24.2759 99.9994 23.236 98.9595 23.236 97.6768C23.236 96.3942 24.2759 95.3543 25.5586 95.3543H50.0658V72.6258H47.131C45.8483 72.6258 44.8084 71.5859 44.8084 70.3032V62.1109H36.6164C35.3337 62.1109 34.2938 61.071 34.2938 59.7884V49.2738C34.2938 47.9911 35.3337 46.9512 36.6164 46.9512H44.8084V38.7589C44.8084 37.4762 45.8483 36.4363 47.131 36.4363H57.6456C58.9282 36.4363 59.9681 37.4762 59.9681 38.7589V46.9512H68.1604C69.4431 46.9512 70.483 47.9911 70.483 49.2738V59.7884C70.483 61.071 69.4431 62.1109 68.1604 62.1109H59.9681V70.3032C59.9681 71.5859 58.9282 72.6258 57.6456 72.6258H54.711V95.3543H79.2177C80.5003 95.3543 81.5399 96.3942 81.5399 97.6768ZM49.4533 59.7884V67.9807H55.3227V59.7884C55.3227 58.5057 56.3626 57.4658 57.6453 57.4658H65.8376V51.5963H57.6453C56.3626 51.5963 55.3227 50.5564 55.3227 49.2738V41.0814H49.4533V49.2738C49.4533 50.5564 48.4133 51.5963 47.1307 51.5963H38.9387V57.4658H47.1307C48.4136 57.4658 49.4533 58.506 49.4533 59.7884ZM34.6521 40.8297C34.9891 41.001 35.3485 41.0823 35.7027 41.0823C36.5493 41.0823 37.3651 40.6178 37.775 39.8116C38.3563 38.6683 37.9008 37.2701 36.7572 36.6886C30.6259 33.572 26.019 29.2383 23.4349 24.1568C21.3219 20.0017 20.6431 15.3926 21.573 11.5107C22.3679 8.19173 24.6444 4.64515 28.6482 4.64515H35.9051C37.1877 4.64515 38.2277 3.60522 38.2277 2.32258C38.2277 1.03993 37.1877 0 35.9051 0H28.6482C23.1237 0 18.5734 4.09354 17.0556 10.4287C15.8549 15.4399 16.65 21.0632 19.294 26.2625C22.3273 32.2269 27.6379 37.264 34.6521 40.8297ZM66.942 81.06C65.7522 81.5393 65.1762 82.8925 65.6558 84.0822C66.0205 84.9874 66.8912 85.5373 67.8106 85.5373C68.0998 85.5373 68.3936 85.483 68.6781 85.3683C74.0604 83.1993 77.1471 79.7579 77.1471 75.9262C77.1471 72.0942 74.0601 68.6525 68.6781 66.4838C67.4889 66.0036 66.1352 66.5799 65.6558 67.7699C65.1762 68.9596 65.7522 70.3128 66.942 70.7921C70.3715 72.1744 72.5022 74.1416 72.5022 75.9265C72.5022 77.7105 70.3715 79.6777 66.942 81.06Z" fill="black"/>
</svg>
