<svg width="100" height="100" viewBox="0 0 100 100" fill="none" xmlns="http://www.w3.org/2000/svg">
<path d="M95.3564 89.5499L65.5564 23.8739C65.2175 23.0801 64.9428 21.7368 64.9428 20.8734V14.8188C64.9428 13.9554 65.6296 13.0778 66.3859 12.6603C68.4588 11.5079 69.8735 9.31195 69.8735 6.77168C69.8735 3.03798 66.8355 0 63.1 0H38.1022C34.3685 0 31.3306 3.03798 31.3306 6.77168C31.3306 9.07826 32.4919 11.1101 34.2597 12.3285C34.9679 12.8191 35.6351 13.7628 35.6351 14.6244V21.6137C35.6351 22.4771 35.3408 23.8115 34.9751 24.5928L4.76117 89.5838C3.5499 92.1901 3.59093 94.8338 4.86998 96.8407C6.15082 98.8476 8.53411 100 11.4062 100H88.4528C91.3106 100 93.7081 98.8476 95.0318 96.8407C96.3608 94.8356 96.4785 92.1794 95.3564 89.5499ZM26.6139 61.268L11.2278 93.1552C11.0744 93.4727 10.7551 93.6565 10.425 93.6565C10.2948 93.6565 10.1628 93.6279 10.0362 93.5673C9.59375 93.3532 9.40822 92.8198 9.62229 92.3756L25.0084 60.4884C25.2207 60.046 25.7577 59.8587 26.2001 60.0728C26.6425 60.2886 26.828 60.822 26.6139 61.268ZM72.7687 56.3872H26.9279C26.0645 56.3872 25.6595 55.754 26.0235 54.9708L39.6631 25.6311C40.0271 24.8497 40.2286 23.5154 40.2286 22.6519V10.6392C40.2286 9.65268 39.7506 8.85527 39.1637 8.85527H38.0987C36.9498 8.85527 36.0151 7.92229 36.0151 6.77168C36.0151 5.62285 36.9498 4.68809 38.0987 4.68809H63.0964C64.2488 4.68809 65.18 5.62285 65.18 6.77168C65.18 7.92051 64.2488 8.85527 63.0964 8.85527C63.0964 8.85527 62.4721 8.85527 61.7014 8.85527C60.9308 8.85527 60.3046 9.65268 60.3046 10.6392V21.8314C60.3046 22.693 60.5276 24.0362 60.8666 24.8319L73.7124 54.9512C74.0549 55.745 73.6339 56.3872 72.7687 56.3872Z" fill="#030104"/>
</svg>
