<svg width="100" height="100" viewBox="0 0 100 100" fill="none" xmlns="http://www.w3.org/2000/svg">
<g clip-path="url(#clip0_1241_825)">
<path d="M57.8952 64.1091V61.0197H63.7794C69.1037 61.0197 73.4307 56.6868 73.4307 51.3685V9.65079C73.4307 4.3289 69.0999 0 63.7794 0H36.222C30.8992 0 26.5703 4.33078 26.5703 9.65079V51.3685C26.5703 56.6899 30.9006 61.0197 36.222 61.0197H42.1059V64.1091C42.1059 66.2659 43.855 68.018 46.0147 68.018H48.128C48.1928 72.3188 48.9747 80.9203 54.0219 84.2032C57.9268 86.7417 57.8583 94.9804 57.503 97.9399C57.3808 98.9465 58.1018 99.8628 59.1105 99.9862C59.1855 99.9965 59.2617 100 59.3349 100C60.2524 100 61.0446 99.3131 61.1602 98.382C61.225 97.8536 62.6554 85.426 56.0304 81.114C52.74 78.9749 51.9035 72.2015 51.8162 68.0182H53.99C56.143 68.018 57.8952 66.2659 57.8952 64.1091ZM42.1762 14.32H39.2617C38.2458 14.32 37.4205 15.1458 37.4205 16.1613C37.4205 17.1772 38.2458 18.0025 39.2617 18.0025H42.1762V19.4608H40.4492C39.9412 19.4608 39.5286 19.8734 39.5286 20.3813C39.5286 20.8893 39.9412 21.3021 40.4492 21.3021H42.1762V23.3734H40.4492C39.9412 23.3734 39.5286 23.786 39.5286 24.294C39.5286 24.8019 39.9412 25.2145 40.4492 25.2145H42.1762V26.8254H39.2617C38.2458 26.8254 37.4205 27.6507 37.4205 28.6667C37.4205 29.6822 38.2458 30.508 39.2617 30.508H42.1762V32.235H40.4492C39.9412 32.235 39.5286 32.6476 39.5286 33.1556C39.5286 33.6631 39.9412 34.0756 40.4492 34.0756H42.1762V36.147H40.4492C39.9412 36.147 39.5286 36.5597 39.5286 37.0677C39.5286 37.5757 39.9412 37.9882 40.4492 37.9882H42.1762V40.5711H40.0957C37.8194 40.5711 35.9673 38.7192 35.9673 36.4441V13.672C35.9673 11.3966 37.8192 9.54455 40.0957 9.54455H42.1762V14.32ZM45.8585 40.5685V37.9859H49.4266C49.9341 37.9859 50.3474 37.5733 50.3474 37.0654C50.3474 36.5574 49.9341 36.1448 49.4266 36.1448H45.8585V34.074H49.4266C49.9341 34.074 50.3474 33.6612 50.3474 33.1532C50.3474 32.6452 49.9341 32.2327 49.4266 32.2327H45.8585V30.5056H52.8699C53.8859 30.5056 54.7112 29.6803 54.7112 28.6644C54.7112 27.6484 53.8859 26.8231 52.8699 26.8231H45.8585V25.214H49.4266C49.9341 25.214 50.3474 24.8015 50.3474 24.2935C50.3474 23.7855 49.9341 23.373 49.4266 23.373H45.8585V21.3016H49.4266C49.9341 21.3016 50.3474 20.8889 50.3474 20.3809C50.3474 19.8729 49.9341 19.4604 49.4266 19.4604H45.8585V18.0023H52.8699C53.8859 18.0023 54.7112 17.177 54.7112 16.161C54.7112 15.1455 53.8859 14.3198 52.8699 14.3198H45.8585V9.54244H59.6149C61.8894 9.54244 63.7419 11.3947 63.7419 13.6703V36.4401C63.7419 38.7155 61.8896 40.5676 59.6149 40.5676H45.8585V40.5685V40.5685Z" fill="black"/>
</g>
<defs>
<clipPath id="clip0_1241_825">
<rect width="100" height="100" fill="white"/>
</clipPath>
</defs>
</svg>
