<svg width="100" height="100" viewBox="0 0 100 100" fill="none" xmlns="http://www.w3.org/2000/svg">
<path fill-rule="evenodd" clip-rule="evenodd" d="M63.7085 65.1676L50.0002 78.6676L37.7919 66.6676L63.7085 65.1676ZM83.0419 41.6676L18.5835 46.1676C16.4856 42.5425 15.8034 38.2693 16.6683 34.1712C17.5332 30.0731 19.8841 26.4401 23.268 23.972C26.6519 21.5039 30.8295 20.3754 34.9959 20.8038C39.1623 21.2323 43.0228 23.1874 45.8335 26.2926L50.0002 30.6676L54.3752 26.2926C55.9503 24.7153 57.8208 23.4639 59.8799 22.6102C61.939 21.7564 64.1462 21.3169 66.3752 21.3169C68.6043 21.3169 70.8115 21.7564 72.8705 22.6102C74.9296 23.4639 76.8002 24.7153 78.3752 26.2926C80.3482 28.2803 81.805 30.7205 82.6184 33.4004C83.4318 36.0803 83.5772 38.9186 83.0419 41.6676V41.6676Z" stroke="black" stroke-width="1.5" stroke-linecap="round" stroke-linejoin="round"/>
<path d="M8.33398 62.5013H25.0007L41.6673 41.668L54.1673 54.168H87.5006" stroke="black" stroke-width="1.5" stroke-linecap="round" stroke-linejoin="round"/>
</svg>
