<svg width="100" height="100" viewBox="0 0 100 100" fill="none" xmlns="http://www.w3.org/2000/svg">
<path d="M54.166 12.5H66.666V29.1667C66.666 35.7971 64.0321 42.1559 59.3437 46.8443C54.6553 51.5327 48.2964 54.1667 41.666 54.1667C35.0356 54.1667 28.6768 51.5327 23.9883 46.8443C19.2999 42.1559 16.666 35.7971 16.666 29.1667V12.5H29.166" stroke="black" stroke-width="1.5" stroke-linecap="round" stroke-linejoin="round"/>
<path d="M41.6661 54.166V72.916C41.6606 75.3798 42.1418 77.8205 43.0821 80.0978C44.0225 82.3752 45.4034 84.4443 47.1456 86.1865C48.8878 87.9287 50.9569 89.3096 53.2343 90.2499C55.5116 91.1903 57.9522 91.6715 60.4161 91.666V91.666C62.8799 91.6715 65.3205 91.1903 67.5979 90.2499C69.8752 89.3096 71.9444 87.9287 73.6866 86.1865C75.4288 84.4443 76.8097 82.3752 77.75 80.0978C78.6903 77.8205 79.1716 75.3798 79.1661 72.916V62.4993" stroke="black" stroke-width="1.5" stroke-linecap="round" stroke-linejoin="round"/>
<path d="M79.1654 62.5006C83.7677 62.5006 87.4987 58.7697 87.4987 54.1673C87.4987 49.5649 83.7677 45.834 79.1654 45.834C74.563 45.834 70.832 49.5649 70.832 54.1673C70.832 58.7697 74.563 62.5006 79.1654 62.5006Z" stroke="black" stroke-width="1.5" stroke-linecap="round" stroke-linejoin="round"/>
</svg>
