<svg width="100" height="100" viewBox="0 0 100 100" fill="none" xmlns="http://www.w3.org/2000/svg">
<path d="M91.3177 8.6744C85.7239 3.08066 78.2864 0 70.3754 0C62.4643 0 55.0269 3.08066 49.4329 8.6744L8.66647 49.4408C-2.88105 60.9888 -2.88105 79.7778 8.66672 91.3259C14.2607 96.9198 21.6982 100 29.609 100C37.5198 100 44.9575 96.9198 50.5515 91.3259L91.3179 50.5595C96.9119 44.9652 99.9926 37.5277 99.9926 29.6169C99.9923 21.7056 96.9117 14.2684 91.3177 8.6744ZM47.7867 88.561C42.9313 93.4169 36.4754 96.0907 29.6087 96.0907C22.7421 96.0907 16.286 93.4169 11.4306 88.561C1.40726 78.5377 1.40726 62.2287 11.4306 52.2049L31.8138 31.822C31.8138 31.822 53.0561 10.7537 53.3704 10.5106C53.6882 10.2724 54.0185 10.0503 54.3403 9.8208C55.6469 8.92768 57.0054 8.13483 58.4081 7.48549C61.2094 6.17707 64.1616 5.43147 66.9817 5.22194C68.3936 5.13143 69.7696 5.15793 71.0842 5.29645C71.412 5.33896 71.7363 5.38121 72.0584 5.42297C72.3787 5.47248 72.6937 5.53673 73.0062 5.59249C73.319 5.6445 73.6248 5.71801 73.9269 5.79202C74.2279 5.86803 74.5297 5.92704 74.8192 6.02105C75.1095 6.10931 75.3971 6.19657 75.6811 6.28283C75.9649 6.36759 76.2372 6.47861 76.51 6.57337C77.0575 6.7594 77.5728 6.99118 78.0762 7.2062C78.3289 7.31247 78.5675 7.44199 78.8075 7.55625C79.0448 7.67652 79.2841 7.78328 79.5101 7.9098C79.7356 8.03507 79.9579 8.15833 80.1769 8.2796C80.286 8.34086 80.3937 8.40161 80.501 8.46187C80.6052 8.52713 80.7093 8.59214 80.8115 8.6564C82.4607 9.67128 83.7887 10.6862 84.8433 11.556C86.195 12.6709 86.8676 13.2898 87.3436 13.8376C87.5819 14.1119 87.9927 14.6129 87.8645 14.744C87.7569 14.854 87.3316 14.5434 86.7576 14.1031C86.1892 13.6611 85.3766 13.0417 84.2617 12.3181C83.1328 11.6148 81.7319 10.8214 80.0594 10.1056C78.3927 9.38149 76.4399 8.76616 74.2834 8.41061C73.2033 8.25009 72.0771 8.12033 70.9105 8.12283C69.7456 8.12083 68.5469 8.19384 67.3332 8.38386C64.9079 8.76791 62.4321 9.58752 60.0733 10.8427C58.8999 11.4815 57.7467 12.2086 56.6398 13.035C56.3675 13.2475 36.1856 32.8023 35.0985 33.9135C34.7117 34.3088 34.7327 34.7674 35.2015 35.2362C42.7982 42.8329 63.9981 64.01 67.6355 67.6437C67.9831 67.9908 68.0621 68.2835 67.7033 68.6443C61.3402 75.0439 47.7867 88.561 47.7867 88.561Z" fill="black"/>
</svg>
