<svg width="100" height="100" viewBox="0 0 100 100" fill="none" xmlns="http://www.w3.org/2000/svg">
<path d="M58.7 36.3008C61.1 33.9008 62.4 30.8008 62.4 27.4008C62.4 24.0008 61.1 20.9008 58.7 18.5008C56.3 16.1008 53.2 14.8008 49.8 14.8008C46.4 14.8008 43.3 16.1008 40.9 18.5008L20.2 39.3008C17.8 41.7008 16.5 44.8008 16.5 48.2008C16.5 51.6008 17.8 54.7008 20.2 57.1008C22.6 59.5008 25.7 60.8008 29.1 60.8008C32.5 60.8008 35.6 59.5008 38 57.1008L58.7 36.3008ZM26.6 38.6008L28.5 36.7008V56.7008C27.8 56.7008 27.2 56.5008 26.6 56.4008V38.6008ZM32.5 33.6008L35 36.1008V54.3008C34.3 55.0008 33.4 55.6008 32.5 56.0008V33.6008ZM41 48.3008L39 50.3008V40.1008L41 42.1008V48.3008ZM43.8 21.3008C45.4 19.7008 47.6 18.8008 49.8 18.8008C52.1 18.8008 54.2 19.7008 55.8 21.3008C57.4 22.9008 58.3 25.1008 58.3 27.3008C58.3 29.6008 57.4 31.7008 55.8 33.3008L46.8 42.3008L34.9 30.3008L43.8 21.3008ZM22.6 42.7008V53.7008C21.3 52.2008 20.6 50.2008 20.6 48.2008C20.6 46.2008 21.3 44.2008 22.6 42.7008Z" fill="black"/>
<path d="M70.8996 39.3008C67.4996 39.3008 64.3996 40.6008 61.9996 43.0008L41.2996 63.7008C38.8996 66.1008 37.5996 69.2008 37.5996 72.6008C37.5996 76.0008 38.8996 79.1008 41.2996 81.5008C43.6996 83.9008 46.7996 85.2008 50.1996 85.2008C53.5996 85.2008 56.6996 83.9008 59.0996 81.5008L79.8996 60.7008C82.2996 58.3008 83.5996 55.2008 83.5996 51.8008C83.5996 48.4008 82.2996 45.3008 79.8996 42.9008C77.3996 40.6008 74.2996 39.3008 70.8996 39.3008ZM61.9996 72.8008L59.9996 74.8008V64.6008L61.9996 66.6008V72.8008ZM55.9996 78.8008C55.2996 79.5008 54.3996 80.1008 53.4996 80.5008V58.1008L55.9996 60.6008V78.8008ZM47.5996 63.1008L49.4996 61.2008V81.2008C48.7996 81.2008 48.1996 81.0008 47.5996 80.9008V63.1008ZM43.5996 67.1008V78.1008C42.2996 76.6008 41.5996 74.6008 41.5996 72.6008C41.5996 70.6008 42.2996 68.6008 43.5996 67.1008ZM76.9996 57.9008L67.9996 66.9008L55.8996 54.8008L64.8996 45.8008C66.4996 44.2008 68.6996 43.3008 70.8996 43.3008C73.1996 43.3008 75.2996 44.2008 76.8996 45.8008C78.4996 47.4008 79.3996 49.6008 79.3996 51.8008C79.3996 54.0008 78.5996 56.3008 76.9996 57.9008Z" fill="black"/>
</svg>
