<svg width="100" height="100" viewBox="0 0 100 100" fill="none" xmlns="http://www.w3.org/2000/svg">
<path d="M89.7565 36.2163C89.7565 36.2163 52.0463 36.2163 40.0542 36.2163C38.7849 36.2163 38.073 34.776 38.073 34.776L29.9328 15.9968C30.1844 15.5787 30.4105 15.1418 30.6057 14.6851C31.7127 12.0967 31.7454 9.23245 30.698 6.62007C29.0858 2.59834 25.2448 0 20.9129 0C19.5696 0 18.2506 0.255438 16.9944 0.759031C11.6008 2.92176 8.97148 9.06926 11.1337 14.4629C12.3928 17.6036 15.0141 19.8694 18.164 20.7142L23.8503 34.7695C23.8503 34.7695 24.0744 36.2163 22.6764 36.2163C20.4211 36.2163 10.2441 36.2163 10.2441 36.2163C7.41781 36.2163 5.11914 38.5153 5.11914 41.3413V48.3449C5.11914 51.1709 7.3493 53.4699 10.0909 53.4699C10.8847 53.4699 11.8018 54.278 11.9777 55.1325L20.2507 95.3217C20.7907 97.9454 23.3119 100 25.9895 100H74.0105C76.6889 100 79.2093 97.9449 79.7491 95.3217L88.0223 55.133C88.1982 54.278 89.115 53.4699 89.9089 53.4699C92.6504 53.4699 94.8808 51.1709 94.8808 48.3449V41.3413C94.8814 38.5155 92.5825 36.2163 89.7565 36.2163ZM58.7538 72.1263H54.6085C54.5543 72.1276 54.0186 72.1522 54.0186 72.5236V76.8617C54.0186 79.0776 52.216 80.8802 50.0004 80.8802C47.7848 80.8802 45.9822 79.0773 45.9822 76.8617V72.581C45.9822 72.4564 45.9822 72.1249 45.5622 72.1249L45.5172 72.1265H41.2473C39.0311 72.1265 37.2288 70.3242 37.2288 68.1086C37.2288 65.8924 39.0314 64.0898 41.2473 64.0898H45.4022C45.4028 64.0898 45.4033 64.0898 45.4039 64.0898C45.6787 64.0898 45.9822 64.0003 45.9822 63.5765V59.3552C45.9822 57.1393 47.7848 55.337 50.0004 55.337C52.216 55.337 54.0186 57.1396 54.0186 59.3552V63.689C54.0186 63.997 54.349 64.0906 54.4321 64.0906L58.7535 64.0898C60.9694 64.0898 62.772 65.8927 62.772 68.1086C62.7726 70.3242 60.9697 72.1263 58.7538 72.1263Z" fill="black"/>
</svg>
