<svg width="100" height="100" viewBox="0 0 100 100" fill="none" xmlns="http://www.w3.org/2000/svg">
<path d="M61.7828 54.2929V31.4962H65.9274V19.8801C65.9274 17.6294 64.1029 15.8081 61.8523 15.8081H59.3523V15.7576V11.6225C59.3523 5.18939 55.173 0 50.0246 0H49.9646C44.8131 0 40.6307 5.18624 40.6307 11.6225V15.7576V15.8112H38.1338C35.8832 15.8112 34.0619 17.6326 34.0619 19.8832V31.4994H38.9293V54.3182L33.44 56.6888C28.9482 58.6269 26.041 63.0524 26.041 67.9388V95.8554C26.041 95.8554 35.0214 99.9968 49.3712 99.9968C63.7115 99.9968 73.9545 95.8554 73.9545 95.8554V68.7626C73.9545 63.3523 70.8011 58.4343 65.88 56.1774L61.7828 54.2929ZM55.4634 52.2917H45.1288V33.5638H55.4634V52.2917ZM60.4571 90.3535H39.5353V69.315H60.4571V90.3535Z" fill="black"/>
</svg>
