<svg width="100" height="100" viewBox="0 0 100 100" fill="none" xmlns="http://www.w3.org/2000/svg">
<path d="M72.5819 0H27.3982C25.1737 0 23.3574 1.81633 23.3574 4.04082V95.9592C23.3574 98.1837 25.1737 100 27.3982 100H72.6023C74.8268 100 76.6431 98.1837 76.6431 95.9592V4.04082C76.6431 1.81633 74.8064 0 72.5819 0ZM37.5411 89.2857C37.5411 91.4286 35.8064 93.102 33.7248 93.102C31.5819 93.102 29.9084 91.3674 29.9084 89.2857V82.3061H37.6023V89.2857H37.5411ZM37.5411 78.2653H29.8472V71.2857C29.8472 69.1429 31.5819 67.4694 33.6635 67.4694C35.8064 67.4694 37.4799 69.2041 37.4799 71.2857V78.2653H37.5411ZM37.5411 59C37.5411 61.1429 35.8064 62.8163 33.7248 62.8163C31.5819 62.8163 29.9084 61.0816 29.9084 59V52.0204H37.6023V59H37.5411ZM37.5411 47.898H29.8472V40.9184C29.8472 38.7755 31.5819 37.102 33.6635 37.102C35.8064 37.102 37.4799 38.8367 37.4799 40.9184V47.898H37.5411ZM37.5411 28.7143C37.5411 30.8571 35.8064 32.5306 33.7248 32.5306C31.5819 32.5306 29.9084 30.7959 29.9084 28.7143V21.7347H37.6023V28.7143H37.5411ZM37.5411 17.6122H29.8472V10.6327C29.8472 8.4898 31.5819 6.81633 33.6635 6.81633C35.8064 6.81633 37.4799 8.55102 37.4799 10.6327V17.6122H37.5411V17.6122ZM53.8064 89.2857C53.8064 91.4286 52.0717 93.102 49.9901 93.102C47.8472 93.102 46.1737 91.3674 46.1737 89.2857V82.3061H53.8676V89.2857H53.8064ZM53.8064 78.2653H46.1125V71.2857C46.1125 69.1429 47.8472 67.4694 49.9288 67.4694C52.0717 67.4694 53.7452 69.2041 53.7452 71.2857V78.2653H53.8064ZM53.8064 59C53.8064 61.1429 52.0717 62.8163 49.9901 62.8163C47.8472 62.8163 46.1737 61.0816 46.1737 59V52.0204H53.8676V59H53.8064ZM53.8064 47.898H46.1125V40.9184C46.1125 38.7755 47.8472 37.102 49.9288 37.102C52.0717 37.102 53.7452 38.8367 53.7452 40.9184V47.898H53.8064ZM53.8064 28.7143C53.8064 30.8571 52.0717 32.5306 49.9901 32.5306C47.8472 32.5306 46.1737 30.7959 46.1737 28.7143V21.7347H53.8676V28.7143H53.8064ZM53.8064 17.6122H46.1125V10.6327C46.1125 8.4898 47.8472 6.81633 49.9288 6.81633C52.0717 6.81633 53.7452 8.55102 53.7452 10.6327V17.6122H53.8064V17.6122ZM70.1329 89.2857C70.1329 91.4286 68.3982 93.102 66.3166 93.102C64.1737 93.102 62.5003 91.3674 62.5003 89.2857V82.3061H70.2146V89.2857H70.1329ZM70.1329 78.2653H62.439V71.2857C62.439 69.1429 64.1737 67.4694 66.2554 67.4694C68.3982 67.4694 70.0717 69.2041 70.0717 71.2857V78.2653H70.1329ZM70.1329 59C70.1329 61.1429 68.3982 62.8163 66.3166 62.8163C64.1737 62.8163 62.5003 61.0816 62.5003 59V52.0204H70.2146V59H70.1329ZM70.1329 47.898H62.439V40.9184C62.439 38.7755 64.1737 37.102 66.2554 37.102C68.3982 37.102 70.0717 38.8367 70.0717 40.9184V47.898H70.1329ZM70.1329 28.7143C70.1329 30.8571 68.3982 32.5306 66.3166 32.5306C64.1737 32.5306 62.5003 30.7959 62.5003 28.7143V21.7347H70.2146V28.7143H70.1329ZM70.1329 17.6122H62.439V10.6327C62.439 8.4898 64.1737 6.81633 66.2554 6.81633C68.3982 6.81633 70.0717 8.55102 70.0717 10.6327V17.6122H70.1329V17.6122Z" fill="black"/>
</svg>
