<svg width="100" height="100" viewBox="0 0 100 100" fill="none" xmlns="http://www.w3.org/2000/svg">
<path d="M90.3706 27.3444H72.3824L91.7378 13.3405C93.5152 12.0515 93.9253 9.55147 92.6363 7.77413C91.3472 5.99678 88.8472 5.58663 87.0699 6.87569L58.7691 27.3444H9.62844C3.82766 27.364 1.93313 32.7155 2.1675 35.821C3.7886 56.778 16.1128 74.8835 33.7691 81.9929C33.7495 81.9929 33.7495 82.0124 33.7495 82.071V85.9382C33.7495 90.3132 37.1089 93.8679 41.23 93.8679H58.7886C62.9097 93.8679 66.2691 90.3132 66.2691 85.9382L66.3081 81.9929C83.9449 74.864 96.5425 56.7976 97.8511 35.8405C98.0659 32.1687 95.7808 27.2858 90.3706 27.3444V27.3444ZM63.105 74.6687C60.2144 75.821 58.2808 78.7898 58.2808 82.0905L58.2417 85.8991H41.7378V82.0905C41.7378 78.8093 39.8042 75.821 36.9136 74.6687C22.0113 68.7507 11.523 53.3601 10.1558 35.3327H89.8628C88.5152 53.3015 78.0269 68.7312 63.105 74.6687V74.6687Z" fill="black"/>
<path d="M40.6641 60.957H46.0156V66.3086C46.0156 68.5156 47.793 70.293 50 70.293C52.207 70.293 53.9844 68.5156 53.9844 66.3086V60.957H59.3359C61.543 60.957 63.3203 59.1797 63.3203 56.9727C63.3203 54.7656 61.543 52.9883 59.3359 52.9883H53.9844V47.6367C53.9844 45.4297 52.207 43.6523 50 43.6523C47.793 43.6523 46.0156 45.4297 46.0156 47.6367V52.9883H40.6641C38.457 52.9883 36.6797 54.7656 36.6797 56.9727C36.6797 59.1797 38.457 60.957 40.6641 60.957V60.957Z" fill="black"/>
</svg>
