<svg width="100" height="100" viewBox="0 0 100 100" fill="none" xmlns="http://www.w3.org/2000/svg">
<path d="M95.1362 46.5686C92.0316 43.4641 82.6975 38.5825 74.7114 46.5686L64.9279 56.3521V37.4183C64.9279 30.0245 59.9851 23.8154 53.2244 21.875V4.24837C53.2244 1.89951 51.3045 0 48.9761 0H15.7857C13.4369 0 11.5374 1.91993 11.5374 4.24837V21.9567C4.87886 23.9583 0.0585938 30.1266 0.0585938 37.4387V83.8235C0.0585938 92.7492 7.28899 100 16.2351 100H48.5472C53.4287 99.857 55.7163 98.3864 55.9614 98.2026C56.9418 98.4069 64.0088 99.7549 69.1762 94.2606L95.7694 67.6675C101.305 61.8873 101.57 53.0229 95.1362 46.5686ZM44.7073 8.29248V21.2623H19.8298V8.29248H44.7073ZM8.55533 83.8031V37.4183C8.55533 32.9453 11.9663 29.5547 16.2146 29.5547H48.7514C52.9998 29.5547 56.4107 33.1699 56.4107 37.4183V64.8693L48.1182 73.1618C43.1754 78.2884 42.6648 86.1111 46.5251 91.6667H16.2146C11.9458 91.6667 8.55533 88.0515 8.55533 83.8031ZM63.4369 88.2761C61.088 90.625 57.2686 90.625 54.9197 88.2761C54.9197 88.2761 49.9769 84.0278 54.2865 79.1258L64.6828 68.7296L73.7514 77.9412L63.4369 88.2761ZM90.03 61.683L79.7155 71.9975L70.6468 62.7859L80.8797 52.5531C81.9418 51.491 85.8225 48.9992 90.03 53.1863C92.4401 55.5964 92.3584 59.3342 90.03 61.683Z" fill="black"/>
</svg>
