<svg width="100" height="100" viewBox="0 0 100 100" fill="none" xmlns="http://www.w3.org/2000/svg">
<path d="M80.7134 34.3878C79.8154 32.4082 75.9175 31.2449 73.9175 34.3878C73.2848 35.3673 71.0603 38.8367 68.346 43.4694V29.7143C68.346 27.3878 66.4277 25.4694 64.1011 25.4694H55.3868V4.2449C55.3868 1.91837 53.4685 0 51.1419 0H17.3868C15.0603 0 13.1419 1.91837 13.1419 4.2449V25.4694H4.85623C2.5297 25.4694 0.611328 27.3878 0.611328 29.7143V94.4898C0.611328 96.8163 2.5297 98.7347 4.85623 98.7347H64.1011C65.2644 98.7347 66.3664 98.1633 67.1624 97.2857C70.1828 99.0204 73.6317 100 77.3052 100C89.4072 100 99.3868 88.9592 99.3868 75.5918C99.3868 63.4898 82.6113 37.3673 80.7134 34.3878ZM21.6317 8.4898H47.1011V25.4694H21.6317V8.4898ZM8.89704 82.7959H17.3868C19.7134 82.7959 21.6317 80.8776 21.6317 78.551C21.6317 76.2245 19.7134 74.3061 17.3868 74.3061H8.89704V66.2449H17.3868C19.7134 66.2449 21.6317 64.3265 21.6317 62C21.6317 59.6735 19.7134 57.7551 17.3868 57.7551H8.89704V49.6939H17.3868C19.7134 49.6939 21.6317 47.7755 21.6317 45.449C21.6317 43.1224 19.7134 41.2041 17.3868 41.2041H8.89704V33.9796H59.8562V59.7347C57.2032 65.6735 55.2236 71.4694 55.2236 75.6122C55.2236 81.1837 56.9175 86.3469 59.7746 90.4694H8.89704V82.7959ZM77.3052 91.5102C69.6521 91.5102 63.5093 84.2857 63.5093 75.3673C63.5093 69.4286 70.9379 54.9796 77.3052 44.3673C83.6726 54.9796 91.1011 69.4286 91.1011 75.3673C91.1011 84.2857 84.9583 91.5102 77.3052 91.5102Z" fill="black"/>
</svg>
