<svg width="100" height="100" viewBox="0 0 100 100" fill="none" xmlns="http://www.w3.org/2000/svg">
<path d="M71.6538 0H28.3477V11.6531H71.6538V0Z" fill="black"/>
<path d="M64.0406 15.6934H35.959V23.3872H64.0406V15.6934Z" fill="black"/>
<path d="M67.2865 27.4277H32.715C32.715 27.4277 23.7559 37.142 23.7559 40.04V96.1216C23.7559 98.2645 25.4906 99.9992 27.6334 99.9992H72.3681C74.5109 99.9992 76.2456 98.2645 76.2456 96.1216V39.9583C76.2456 36.7951 67.2865 27.4277 67.2865 27.4277ZM56.9803 47.4277C59.511 47.04 61.8171 48.7747 62.2048 51.3053C62.5926 53.8359 60.8579 56.142 58.3273 56.5298L52.5314 57.4073L51.1844 48.2849L56.9803 47.4277ZM38.8987 89.4481C37.8579 91.7543 35.164 92.8563 32.8783 91.8359C30.5722 90.7951 29.4701 88.1012 30.4905 85.8155L32.7967 80.4277L41.2048 84.0808L38.8987 89.4481ZM45.164 75.0196L42.8579 80.4073L34.4497 76.7543L36.7559 71.3665C37.7967 69.0604 40.4905 67.9583 42.7763 68.9788C45.164 70.0196 46.1844 72.7134 45.164 75.0196ZM42.715 58.7543C40.1844 59.142 37.8783 57.4073 37.4905 54.8767C37.1028 52.3461 38.8375 50.04 41.3681 49.6522L47.1436 48.7747L48.4905 57.8971L42.715 58.7543ZM56.5109 88.9788C54.613 90.6522 51.6742 90.489 50.0007 88.591C48.3273 86.693 48.4905 83.7543 50.3885 82.0808L54.7558 78.2032L60.7763 85.1012L56.5109 88.9788ZM68.3273 78.591L63.9599 82.4686L57.9395 75.5706L62.3069 71.693C64.2048 70.0196 67.1436 70.1828 68.8171 72.0808C70.3885 73.9788 70.2252 76.9175 68.3273 78.591Z" fill="black"/>
</svg>
