<svg width="100" height="100" viewBox="0 0 100 100" fill="none" xmlns="http://www.w3.org/2000/svg">
<path d="M78.098 95.9786V36.3135C78.098 35.252 77.6694 34.3947 77.0366 33.5578L66.6263 22.5964V4.24576C66.6263 1.91876 64.7076 0 62.3806 0H38.3962C36.0692 0 34.1504 1.91876 34.1504 4.24576V21.6983L22.9032 33.5374C22.2705 34.1702 21.8418 35.2316 21.8418 36.293V95.754C21.8418 98.081 23.7606 99.9998 26.0876 99.9998H74.4851C76.608 100.02 78.5267 98.1015 78.098 95.9786ZM42.4174 8.49151H58.1348V19.3304H42.4174V8.49151V8.49151ZM70.2393 91.7328H30.3129V37.8036L39.8863 27.6178H60.666L70.2393 37.8036V91.7328Z" fill="black"/>
<path d="M52.6236 53.2957C52.6236 51.8872 51.4805 50.7441 50.072 50.7441C48.6636 50.7441 47.5205 51.8872 47.5205 53.2957V62.8486H37.9676C36.5591 62.8486 35.416 63.9917 35.416 65.4002C35.416 66.8086 36.5591 67.9517 37.9676 67.9517H47.745V77.7292C47.745 79.1376 48.8881 80.2807 50.2966 80.2807H50.5007C51.9091 80.2807 53.0522 79.1376 53.0522 77.7292V67.9517H62.6052C64.0136 67.9517 65.1567 66.8086 65.1567 65.4002C65.1567 63.9917 64.0136 62.8486 62.6052 62.8486H52.6236V53.2957V53.2957Z" fill="black"/>
</svg>
