<svg width="100" height="100" viewBox="0 0 100 100" fill="none" xmlns="http://www.w3.org/2000/svg">
<path d="M59.0778 81.8409C58.2561 81.431 57.2678 81.7759 56.8579 82.5993C56.6028 83.1077 56.638 83.6876 56.8962 84.1544C56.6128 84.6378 56.5796 85.2511 56.8612 85.7828C57.1612 86.346 57.738 86.6662 58.3344 86.6662C58.5977 86.6662 58.8661 86.6029 59.1161 86.4712C60.5245 85.7212 60.7245 84.6995 60.7178 84.1579C60.7028 83.0476 59.8612 82.2327 59.0778 81.8409Z" fill="black"/>
<path d="M55.9058 30.9082C56.5342 31.4199 56.6691 31.7199 56.6676 31.6765C56.6592 32.3299 55.9592 33.3431 55.4293 33.8849L53.2459 36.3099C52.6308 36.9933 52.6859 38.0467 53.3691 38.6633C53.6875 38.95 54.0875 39.0916 54.4842 39.0916C54.9408 39.0916 55.3941 38.9049 55.7242 38.5398L57.8459 36.1781C58.0658 35.9582 60.0009 33.9582 60.0009 31.6664C60.0009 30.5097 59.3509 29.4164 58.0142 28.3263C57.301 27.7447 56.251 27.8513 55.6693 28.5631C55.0875 29.2765 55.1941 30.3265 55.9058 30.9082Z" fill="black"/>
<path d="M40.6406 71.7809C38.8273 69.8441 36.6672 66.8074 36.6672 63.3326C36.6672 61.2576 37.4439 59.101 38.9772 56.9209C39.5072 56.1676 39.3254 55.1293 38.5738 54.5992C37.8205 54.0691 36.7805 54.2492 36.2506 55.0025C34.3156 57.7558 33.334 60.5576 33.334 63.3326C33.334 67.8959 35.984 71.6844 38.2072 74.0594C38.5355 74.4094 38.9805 74.5859 39.4238 74.5859C39.8322 74.5859 40.2422 74.4377 40.5639 74.1359C41.2356 73.5076 41.2705 72.4525 40.6406 71.7809Z" fill="black"/>
<path d="M22.8066 38.4188C17.8584 40.0703 15.0133 39.7637 13.0232 37.3621L11.4066 34.7738L18.4717 34.1871C19.3883 34.1121 20.0699 33.3055 19.9949 32.3889C19.9182 31.4723 19.1148 30.7871 18.1949 30.8656L9.41816 31.594L7.10176 27.8871L18.6301 25.807C19.5352 25.6438 20.1367 24.777 19.9734 23.8703C19.8102 22.9652 18.95 22.3604 18.0367 22.527L5.2 24.8436L4.78496 24.1818C3.70664 22.2686 3.3332 21.5301 3.3332 20.0002C3.3332 19.3936 4.21484 18.6668 5.39648 18.2885L41.9648 11.6402C42.8699 11.4752 43.4715 10.6068 43.3064 9.70196C43.1414 8.79708 42.2764 8.19864 41.3682 8.36036L4.70176 15.0272C4.64004 15.0389 4.58008 15.0539 4.51836 15.0705C1.77324 15.9004 0 17.8338 0 20.0004C0 22.3688 0.680078 23.6887 1.91992 25.8838L10.2533 39.2172C10.2883 39.2738 10.3266 39.3289 10.3684 39.3789C12.4416 41.9506 15.0117 42.7939 17.6201 42.7939C19.7584 42.7939 21.9234 42.2273 23.8602 41.5822C24.7334 41.2906 25.2068 40.3473 24.9152 39.4738C24.6232 38.6022 23.6834 38.1254 22.8066 38.4188Z" fill="black"/>
<path d="M64.0786 15.175C62.8452 14.5584 60.7886 14.1118 58.437 13.9518C57.5388 13.9018 56.7237 14.5819 56.6603 15.5001C56.597 16.4184 57.2903 17.2133 58.2085 17.2768C60.3052 17.4202 61.9185 17.8217 62.5886 18.1584C65.3419 19.5334 70.0003 23.9284 70.0003 31.6669C70.0003 39.0835 62.0786 45.5352 61.9985 45.6003C61.2819 46.177 61.1651 47.2253 61.7401 47.9419C62.0702 48.3536 62.5534 48.5669 63.0419 48.5669C63.4069 48.5669 63.7753 48.4469 64.0819 48.2018C64.4587 47.9001 73.3337 40.6967 73.3337 31.6669C73.3337 22.3018 67.5169 16.895 64.0786 15.175Z" fill="black"/>
<path d="M95.4816 15.0698C95.4198 15.0532 95.3599 15.0382 95.2982 15.0265L58.6315 8.35985C57.7216 8.19989 56.8583 8.79814 56.6933 9.70146C56.5282 10.6065 57.13 11.4747 58.0349 11.6397L94.6032 18.288C95.7849 18.6663 96.6665 19.3931 96.6665 19.9997C96.6665 21.5298 96.2933 22.2681 95.2532 24.1163L94.7982 24.8431L81.9632 22.5265C81.0532 22.3599 80.1899 22.9647 80.0265 23.8698C79.8632 24.7765 80.4648 25.6431 81.3698 25.8065L92.8966 27.8866L90.5816 31.5933L81.8048 30.8649C80.8882 30.7866 80.0816 31.4716 80.0048 32.3882C79.9298 33.3048 80.6114 34.1114 81.528 34.1864L88.5931 34.7714L86.9765 37.3614C84.9882 39.7632 82.1448 40.0698 77.1931 38.4181C76.3163 38.1247 75.3765 38.6015 75.0847 39.4731C74.7931 40.3464 75.2663 41.2897 76.1398 41.5815C78.0765 42.2265 80.2415 42.7933 82.3798 42.7933C84.9882 42.7933 87.5581 41.9499 89.6314 39.3782C89.673 39.3282 89.7114 39.2731 89.7464 39.2165L98.1181 25.8183C99.3198 23.6882 99.9997 22.3683 99.9997 19.9999C99.9999 17.8333 98.2267 15.8999 95.4816 15.0698Z" fill="black"/>
<path d="M45.899 60.5457C45.0457 60.1975 44.074 60.609 43.7273 61.4608C43.4656 62.1024 43.334 62.7325 43.334 63.334C43.334 64.2707 43.6539 65.2623 44.2855 66.2858C44.6006 66.7957 45.1455 67.0774 45.7055 67.0774C46.0037 67.0774 46.3072 66.9973 46.5787 66.8291C47.3621 66.3442 47.6055 65.3174 47.1221 64.5342C46.7271 63.8942 46.667 63.5075 46.667 63.3342C46.667 63.1676 46.7187 62.9541 46.8137 62.7159C47.1607 61.8641 46.7508 60.8924 45.899 60.5457Z" fill="black"/>
<path d="M45.05 23.3332C45.9717 23.3332 46.7166 22.5865 46.7166 21.6666C46.7166 20.7467 45.9717 20 45.05 20H45.0334C44.1135 20 43.375 20.7467 43.375 21.6666C43.375 22.5865 44.1301 23.3332 45.05 23.3332Z" fill="black"/>
<path d="M51.6658 40.9768V27.4568C53.4908 26.4051 54.9992 24.7402 54.9992 21.6668C54.9992 19.14 53.8158 17.1484 51.6658 15.8084V9.69336C53.6025 9.00176 54.9992 7.16992 54.9992 5C54.9992 2.24336 52.7559 0 49.9992 0C47.2426 0 44.9992 2.24336 44.9992 5C44.9992 7.16992 46.3959 9.00176 48.3326 9.6916V14.4449C46.8693 14.0783 45.191 13.885 43.316 13.885C40.3928 13.885 37.491 14.3916 35.9211 15.175C32.4828 16.8949 26.666 22.3018 26.666 31.6666C26.666 40.6967 35.2594 47.675 35.6244 47.9684L48.3328 58.1334V70.0684L43.8211 75.4883C43.6645 75.6449 39.9994 79.375 39.9994 85C39.9994 91.0301 44.2061 93.1334 47.5877 94.825L47.9127 94.9867C48.0527 95.0566 48.1928 95.1268 48.3326 95.1967V98.3334C48.3326 99.2533 49.0793 100 49.9992 100C50.9191 100 51.6658 99.2533 51.6658 98.3334V96.7201C52.8041 97.1551 53.9008 97.4502 54.8959 97.4502C56.5525 97.4502 57.4959 96.6652 57.9943 96.0068C60.0293 93.3234 57.7527 90.1752 55.9994 88.6668L50.8693 84.8201L61.0727 74.6102C61.2994 74.4168 66.666 69.8334 66.666 63.3334C66.666 56.0602 61.4027 50.7117 61.1777 50.4885L51.6658 40.9768ZM49.9992 3.3334C50.9176 3.3334 51.6658 4.08164 51.6658 5C51.6658 5.91836 50.9176 6.6666 49.9992 6.6666C49.0809 6.6666 48.3326 5.91836 48.3326 5C48.3326 4.08164 49.0809 3.3334 49.9992 3.3334ZM58.8209 72.1551L47.1543 83.8217C46.8127 84.1633 46.6359 84.6367 46.6693 85.1184C46.7043 85.6 46.9461 86.0434 47.3326 86.3334L53.9109 91.2617C54.5127 91.7816 55.8209 93.3566 55.3377 93.9934C55.3076 94.0334 55.2443 94.1166 54.8961 94.1166C53.6178 94.1166 51.3811 92.9949 49.4061 92.0066L49.0777 91.8416C45.516 90.0615 43.3328 88.7783 43.3328 85C43.3328 80.79 46.1545 77.8699 46.2795 77.7334L54.5111 67.8451C54.7311 67.6252 56.6662 65.6252 56.6662 63.3334C56.6662 61.0416 54.7313 59.0418 54.5111 58.8217C54.4678 58.7783 54.4211 58.7367 54.3744 58.6984L37.7078 45.3668C37.6328 45.3051 29.9994 39.0818 29.9994 31.6668C29.9994 23.9285 34.6578 19.5334 37.4111 18.1584C38.3461 17.69 40.6744 17.2184 43.3162 17.2184C45.2762 17.2184 51.6662 17.5383 51.6662 21.6666C51.6662 23.985 50.368 24.6482 47.1813 25.71C46.2045 26.0367 45.193 26.3732 44.2547 26.8416C43.2563 27.3416 39.9996 29.165 39.9996 31.6666C39.9996 33.9582 41.9346 35.9582 42.1547 36.1783L48.7496 42.7732C48.8063 42.8383 48.8613 42.8949 48.9264 42.9516L58.8213 52.8449C58.8662 52.8898 63.333 57.425 63.333 63.3332C63.3326 68.26 58.9676 72.0217 58.8209 72.1551ZM51.6658 66.065V60.8L52.2074 61.235C52.6807 61.74 53.3324 62.7066 53.3324 63.3332C53.3324 63.9865 52.6258 65.0082 52.0523 65.5998L51.6658 66.065ZM48.3326 28.84V37.6434L44.516 33.8268C44.0393 33.3418 43.3326 32.3201 43.3244 31.74C43.4527 31.325 44.6527 30.375 45.7443 29.825C46.4727 29.46 47.3277 29.175 48.2344 28.8732C48.2658 28.8617 48.301 28.85 48.3326 28.84Z" fill="black"/>
</svg>
