<svg width="100" height="100" viewBox="0 0 100 100" fill="none" xmlns="http://www.w3.org/2000/svg">
<path d="M51.2679 25.7464H45.317V4.25358C45.317 1.92229 43.3947 0 41.0634 0H14.2536C11.9223 0 10 1.92229 10 4.25358V25.7464H4.25358C1.92229 25.7464 0 27.6687 0 30V95.7464C0 98.0777 1.92229 100 4.25358 100H51.0634C53.3947 100 55.317 98.0777 55.5215 95.7464V30C55.5215 27.6687 53.6196 25.7464 51.2679 25.7464ZM18.5072 8.30266H37.0143V25.7464H18.5072V8.30266ZM47.0143 91.6973H8.30266V83.8241H14.2536C16.5849 83.8241 18.5072 81.9018 18.5072 79.5706C18.5072 77.2393 16.5849 75.317 14.2536 75.317H8.30266V67.0143H14.2536C16.5849 67.0143 18.5072 65.317 18.5072 62.7607C18.5072 60.4294 16.5849 58.5072 14.2536 58.5072H8.30266V50.2045H14.2536C16.5849 50.2045 18.5072 48.2822 18.5072 45.9509C18.5072 43.6196 16.5849 41.6973 14.2536 41.6973H8.30266V34.2536H47.0143V91.6973Z" fill="black"/>
<path d="M99.9993 30.6334C99.9993 16.3798 92.3306 5.31641 82.985 5.31641C73.619 5.31641 65.9707 16.5843 65.9707 30.8379C65.9707 42.9033 71.3081 52.6784 78.7314 55.3982V95.7254C78.7314 98.0567 80.6537 99.979 82.985 99.979C85.3163 99.979 87.2386 98.0567 87.2386 95.7254V55.3982C94.6619 52.617 99.9993 42.6988 99.9993 30.6334ZM82.985 47.8726C78.7314 47.8726 74.2529 40.6334 74.2529 30.8583C74.2529 21.0628 78.9359 13.844 82.985 13.844C87.0341 13.844 91.7171 21.0833 91.7171 30.8583C91.6967 40.6334 87.0136 47.8726 82.985 47.8726Z" fill="black"/>
</svg>
