<svg width="100" height="100" viewBox="0 0 100 100" fill="none" xmlns="http://www.w3.org/2000/svg">
<path d="M92.4238 37.3492H80.5418L88.9439 28.9475C91.8973 25.9937 91.8973 21.1875 88.9439 18.2332L81.7668 11.0564C78.8127 8.10312 74.0068 8.10312 71.0527 11.0564L62.651 19.4586V7.57617C62.651 3.39883 59.2521 0 55.0748 0H44.9252C40.7477 0 37.349 3.39883 37.349 7.57617V19.4582L28.9473 11.0561C25.9932 8.10273 21.1869 8.10273 18.233 11.0561L11.0561 18.2332C8.09492 21.1945 8.09531 25.9861 11.0561 28.9473L19.4578 37.349H7.57617C3.39844 37.3488 0 40.7477 0 44.925V55.0746C0 59.2519 3.39844 62.6508 7.57617 62.6508H19.4582L11.0564 71.0525C8.09531 74.0139 8.09531 78.8055 11.0564 81.7668L18.2332 88.9435C21.1873 91.8973 25.9936 91.8973 28.9475 88.9435L37.3492 80.5414V92.4234C37.3492 96.6008 40.7477 99.9996 44.9254 99.9996H55.075C59.2523 99.9996 62.6512 96.6008 62.6512 92.4234V80.5414L71.0529 88.9435C74.007 91.8973 78.8133 91.8965 81.7672 88.9435L88.9439 81.7668C91.8977 78.8127 91.8977 74.0064 88.9439 71.0525L80.5418 62.6508H92.4238C96.6012 62.6508 100 59.2519 100 55.0746V44.925C100 40.748 96.6016 37.3492 92.4238 37.3492ZM94.9492 55.075C94.9492 56.4676 93.8164 57.6004 92.4238 57.6004H74.4449C72.2041 57.6004 71.0697 60.3215 72.659 61.9117L85.3721 74.6248C86.357 75.6094 86.357 77.2115 85.3721 78.1957L78.1953 85.3725C77.2102 86.357 75.6076 86.357 74.624 85.3725L61.9109 72.6594C60.326 71.0752 57.5996 72.1967 57.5996 74.4453V92.4242C57.5996 93.8168 56.467 94.9496 55.0742 94.9496H44.9246C43.532 94.9496 42.3992 93.817 42.3992 92.4242V74.4453C42.3992 72.1859 39.6648 71.0828 38.0883 72.6594L25.3756 85.3725C24.391 86.3576 22.7889 86.3574 21.8041 85.3725L14.6277 78.1957C13.6408 77.2092 13.6408 75.6113 14.6277 74.6248L27.3404 61.9117C28.9246 60.3271 27.8033 57.6004 25.5549 57.6004H7.57617C6.18359 57.6004 5.05078 56.4678 5.05078 55.075V44.9254C5.05078 43.5328 6.1834 42.4 7.57617 42.4H25.5551C27.7963 42.4 28.9307 39.6789 27.3406 38.0887L14.6275 25.3756C13.6406 24.3891 13.6406 22.7912 14.6275 21.8047L21.8043 14.6275C22.7893 13.6426 24.3912 13.643 25.3758 14.6275L38.0885 27.3406C39.6791 28.9316 42.3994 27.7941 42.3994 25.5547V7.57617C42.3994 6.18359 43.532 5.05078 44.9248 5.05078H55.0744C56.467 5.05078 57.5998 6.1834 57.5998 7.57617V25.5551C57.5998 27.7969 60.3209 28.9303 61.9111 27.341L74.6242 14.6279C75.6084 13.6437 77.2105 13.643 78.1951 14.6279L85.3719 21.8047C86.3564 22.7896 86.3568 24.3916 85.3719 25.376L72.6588 38.0891C71.0746 39.674 72.1961 42.4004 74.4447 42.4004H92.4236C93.8162 42.4004 94.949 43.533 94.949 44.9258V55.075H94.9492Z" fill="black"/>
<path d="M63.3902 44.6951H56.8424C55.9932 44.6951 55.3049 44.0068 55.3049 43.1576V36.6098C55.3049 35.7605 54.6166 35.0723 53.7674 35.0723H46.2326C45.3834 35.0723 44.6951 35.7605 44.6951 36.6098V43.1576C44.6951 44.0068 44.0064 44.6951 43.1576 44.6951H36.6098C35.7605 44.6951 35.0723 45.3834 35.0723 46.2326V53.7676C35.0723 54.6168 35.7609 55.3051 36.6098 55.3051H43.1576C44.0068 55.3051 44.6951 55.9934 44.6951 56.8426V63.3904C44.6951 64.2396 45.3834 64.9279 46.2326 64.9279H53.7674C54.6166 64.9283 55.3049 64.2396 55.3049 63.3904V56.8426C55.3049 55.9934 55.9932 55.3051 56.8424 55.3051H63.3902C64.2395 55.3051 64.9279 54.6168 64.9279 53.7676V46.2326C64.9279 45.3834 64.2397 44.6951 63.3902 44.6951Z" fill="black"/>
</svg>
