<svg width="100" height="100" viewBox="0 0 100 100" fill="none" xmlns="http://www.w3.org/2000/svg">
<g clip-path="url(#clip0_1241_1080)">
<path d="M84.5557 25.4447C78.5834 23.3103 71.7492 24.5827 65.3459 28.8516C59.4353 24.788 52.7652 23.4334 46.9777 25.1574C46.9366 23.0435 45.2537 21.1553 42.9141 21.1553H37.147V4.30578C37.147 2.17137 35.4436 0.242188 33.0834 0.242188H14.0995C11.965 0.242188 10.0359 1.94561 10.0359 4.30578V21.1759H4.0636C1.92918 21.1759 0 22.8793 0 25.2395V95.6957C0 97.8301 1.70343 99.7593 4.0636 99.7593H43.1398C47.4497 99.5951 47.2034 95.4084 47.2034 95.4084C48.1064 96.2703 48.9479 97.1939 49.974 97.8301C53.8735 100.293 58.758 98.9794 58.7375 92.2888C58.6964 82.684 62.8011 76.7117 65.5717 76.7117C68.3423 76.7117 72.4265 82.684 72.4059 92.2888C72.3854 98.0558 77.1878 100.293 80.7384 97.8301C87.7778 92.0631 93.5449 83.0944 96.9722 72.6276C103.971 51.0577 98.4294 30.3497 84.5557 25.4447ZM18.3683 8.34886H29.0404V20.9501H18.3683V8.34886ZM8.33243 91.4063V29.2825H38.871V30.0624C30.6001 38.518 28.281 55.3676 33.7402 72.6276C35.1563 77.0196 36.9418 81.1242 39.0762 84.8184V91.4063H8.33243V91.4063ZM89.4607 70.0622C87.3263 76.6912 84.1247 82.4377 80.2869 86.9323C78.7887 76.0344 73.0216 68.3587 65.5512 68.3587C58.0807 68.3587 52.3137 76.2602 51.0413 86.9323C47.2034 82.4582 44.0018 76.4654 41.8674 70.0622C36.5313 53.4179 39.733 36.322 49.1326 33.1204C53.1962 31.6222 58.3065 33.1204 63.0063 37.184C64.5045 38.4564 66.8441 38.4564 68.3423 37.184C73.2474 33.1204 78.173 31.6427 82.216 33.1204C91.3899 36.322 94.7968 53.3973 89.4607 70.0622Z" fill="black"/>
</g>
<defs>
<clipPath id="clip0_1241_1080">
<rect width="100" height="100" fill="white"/>
</clipPath>
</defs>
</svg>
