<svg width="100" height="100" viewBox="0 0 100 100" fill="none" xmlns="http://www.w3.org/2000/svg">
<path d="M78.3651 34.9046L65.8998 20.1432H69.4183C70.7637 20.1432 71.8539 19.0528 71.8539 17.7077V2.43556C71.8539 1.09024 70.7637 0 69.4183 0H30.5805C29.2352 0 28.145 1.09024 28.145 2.43556V17.7075C28.145 19.0526 29.2352 20.143 30.5805 20.143H34.0987L21.6334 34.9044C21.2623 35.3441 21.0586 35.9003 21.0586 36.4759C21.0586 39.3324 21.0586 95.5465 21.0586 97.5645C21.0586 98.9096 22.149 100 23.4942 100H76.5037C77.849 100 78.9393 98.9096 78.9393 97.5645C78.9393 94.3277 78.9393 38.7861 78.9393 36.4759C78.9399 35.9009 78.7362 35.3443 78.3651 34.9046ZM33.0161 15.2719V4.87111H66.9828V15.2719C60.4396 15.2719 40.4069 15.2719 33.0161 15.2719ZM74.0688 95.1293H25.9303V83.4726H74.0688V95.1293ZM74.0688 78.6015H25.9303V50.7951H74.0688V78.6015ZM74.0688 45.924H25.9303V37.3668L40.4749 20.143H59.5242L74.0688 37.3668V45.924Z" fill="black"/>
<path d="M41.9637 67.8819H45.893C46.4026 67.8819 46.8156 68.295 46.8156 68.8045V72.7339C46.8156 73.2434 47.2287 73.6565 47.7383 73.6565H52.26C52.7696 73.6565 53.1827 73.2434 53.1827 72.7339V68.8045C53.1827 68.295 53.5958 67.8819 54.1055 67.8819H58.0348C58.5444 67.8819 58.9575 67.4688 58.9575 66.9592V62.4375C58.9575 61.9279 58.5444 61.5149 58.0348 61.5149H54.1055C53.5959 61.5149 53.1827 61.1018 53.1827 60.5922V56.6629C53.1827 56.1533 52.7696 55.7402 52.26 55.7402H47.7383C47.2287 55.7402 46.8156 56.1533 46.8156 56.6629V60.5922C46.8156 61.1018 46.4026 61.5149 45.893 61.5149H41.9637C41.4541 61.5149 41.041 61.9279 41.041 62.4375V66.9592C41.041 67.4688 41.4541 67.8819 41.9637 67.8819Z" fill="black"/>
</svg>
