<svg width="100" height="100" viewBox="0 0 100 100" fill="none" xmlns="http://www.w3.org/2000/svg">
<path d="M98.1351 75.3544L85.4916 49.1891C85.6551 48.9848 101.505 29.6009 84.9606 8.76669C80.3648 2.98622 73.2567 0.0449219 66.2302 0.0449219C59.2038 0.0449219 52.4021 3.02707 47.4999 8.76669L46.2335 10.2578L44.9671 8.76669C40.065 3.23133 33.2632 0.0449219 26.2368 0.0449219C19.2103 0.0449219 12.4086 3.23133 7.50643 8.76669C-2.50214 20.0417 -2.50214 38.5473 7.50643 49.8223L42.8224 90.2447C45.0488 93.3698 48.4599 91.552 49.4199 90.449L61.1238 77.4787L67.2924 90.2447C73.9307 102.909 86.1248 100.233 90.2713 98.3333C94.336 96.4745 104.059 89.0192 98.1351 75.3544ZM59.4285 54.7245C58.3664 52.6002 56.8344 46.4112 63.4728 42.8163C64.7187 42.1422 71.5613 39.9771 75.3809 47.0648L81.2635 59.2385L65.2907 66.8573L59.4285 54.7245ZM46.4378 81.3187L14.1039 44.3074C6.87324 36.0145 6.87324 22.6153 14.1039 14.302C17.2903 10.4824 21.7636 8.33775 26.441 8.33775C30.9143 8.33775 35.3671 10.462 38.7781 14.302L42.8224 18.9795C45.0897 21.88 48.3578 20.6749 49.4199 19.4085L53.8931 14.302C57.0795 10.4824 61.5528 8.33775 66.2302 8.33775C70.7035 8.33775 75.1563 10.462 78.5673 14.302C84.6338 21.3285 85.6346 32.4196 81.0797 40.6103C77.9137 36.1779 69.866 30.4996 59.6327 35.1362C55.568 36.9745 46.2131 45.0223 51.7689 58.1151L57.1612 69.2675L46.4378 81.3187ZM86.8602 91.1026C85.5121 91.5724 79.2822 94.0439 74.952 86.854L68.906 74.3331L84.8789 66.7143L90.9249 79.1944C93.907 85.5264 89.1478 90.3264 86.8602 91.1026Z" fill="black"/>
</svg>
