<svg width="100" height="100" viewBox="0 0 100 100" fill="none" xmlns="http://www.w3.org/2000/svg">
<path d="M95.5398 0H4.45899C3.11387 0 2.02344 1.09024 2.02344 2.43556V17.7075C2.02344 19.0526 3.11387 20.143 4.45899 20.143H7.42424V90.108C7.42424 95.5623 11.8618 100 17.3163 100H82.6826C88.1369 100 92.5746 95.5625 92.5746 90.108V20.143H95.5398C96.885 20.143 97.9754 19.0526 97.9754 17.7075V2.43556C97.9754 1.09024 96.8852 0 95.5398 0ZM87.7035 90.1084C87.7035 92.8767 85.4511 95.1293 82.6826 95.1293H17.3163C14.5479 95.1293 12.2954 92.8769 12.2954 90.1084V20.143H87.7033V90.1084H87.7035ZM93.1043 15.2719C91.6209 15.2719 8.40608 15.2719 6.89475 15.2719V4.87111H93.1043V15.2719Z" fill="black"/>
<path d="M23.4942 76.4099H76.5037C77.8491 76.4099 78.9393 75.3197 78.9393 73.9744V41.2969C78.9393 39.9516 77.8491 38.8613 76.5037 38.8613H23.4942C22.149 38.8613 21.0586 39.9516 21.0586 41.2969V73.9744C21.0586 75.3195 22.1488 76.4099 23.4942 76.4099ZM25.9297 43.7324H74.0682V71.5388H25.9297V43.7324Z" fill="black"/>
<path d="M58.0348 54.4524H54.1055C53.5959 54.4524 53.1827 54.0393 53.1827 53.5297V49.6004C53.1827 49.0908 52.7696 48.6777 52.26 48.6777H47.7383C47.2287 48.6777 46.8157 49.0908 46.8157 49.6004V53.5297C46.8157 54.0393 46.4026 54.4524 45.893 54.4524H41.9637C41.4541 54.4524 41.041 54.8655 41.041 55.375V59.8967C41.041 60.4063 41.4541 60.8194 41.9637 60.8194H45.893C46.4026 60.8194 46.8157 61.2325 46.8157 61.742V65.6714C46.8157 66.1809 47.2287 66.594 47.7383 66.594H52.26C52.7696 66.594 53.1827 66.1809 53.1827 65.6714V61.742C53.1827 61.2325 53.5958 60.8194 54.1055 60.8194H58.0348C58.5444 60.8194 58.9575 60.4063 58.9575 59.8967V55.375C58.9575 54.8653 58.5444 54.4524 58.0348 54.4524Z" fill="black"/>
</svg>
