<svg width="100" height="100" viewBox="0 0 100 100" fill="none" xmlns="http://www.w3.org/2000/svg">
<path d="M43.2935 35.0751V16.2204H46.1219V35.0751H43.2935ZM50.8364 35.0751V16.2204H48.0063V35.0751C48.0063 35.0751 50.8364 35.0751 50.8364 35.0751ZM32.8053 20.6833C32.4511 21.9006 32.1418 23.2311 31.9189 24.6858L30.3276 35.0751H32.8053V20.6833ZM55.5492 35.0751V16.2204H52.7208V35.0751C52.7208 35.0751 55.5492 35.0751 55.5492 35.0751ZM36.6946 16.2204H34.6915V35.0751H36.6946V16.2204ZM41.4073 35.0751V16.2204H38.5807V35.0751H41.4073ZM60.2619 35.0751V16.2204H57.4354V35.0751H60.2619ZM56.6802 6.18538C56.6802 2.76904 55.2507 0 49.9985 0C44.7463 0 43.3169 2.76904 43.3169 6.18538C43.3169 6.18538 42.7505 7.42246 42.033 8.99398H57.2825C56.9337 8.14708 56.6802 7.1977 56.6802 6.18538ZM73.7799 40.1402C73.7799 38.4069 72.9258 36.999 71.8703 36.999H69.9608C69.9608 36.999 69.9572 36.9774 69.9536 36.9613H30.0363L30.0309 36.999C30.0309 36.999 29.184 36.999 28.1411 36.999C27.0964 36.999 26.2495 38.4069 26.2495 40.1402V41.9887H73.7781C73.7799 41.4672 73.7799 40.8343 73.7799 40.1402ZM75.159 44.2309V51.9284C75.159 52.4499 74.8731 52.8706 74.5297 52.8706C74.1791 52.8706 73.8985 53.2914 73.8985 53.8128V54.4421C73.8985 54.9618 74.0388 55.3825 74.2132 55.3825C74.3894 55.3825 74.5297 55.8051 74.5297 56.3247V95.289C74.5297 97.8927 72.4187 100 69.8133 100H30.2179C27.6161 100 25.5051 97.8927 25.5051 95.289V56.3193C25.5051 55.8015 25.6454 55.3789 25.8198 55.3789C25.9942 55.3789 26.1345 54.9582 26.1345 54.4385V53.8092C26.1345 53.2878 25.845 52.867 25.4872 52.867C25.1293 52.867 24.8398 52.4463 24.8398 51.9248V44.2273C24.8398 44.1014 24.8578 43.9827 24.892 43.8731H75.1087C75.1356 43.9827 75.1572 44.1014 75.159 44.2309ZM70.6746 76.2348L70.6728 60.2104C70.6728 58.6496 69.407 57.3838 67.8444 57.3838H32.1796C30.6171 57.3838 29.3512 58.6496 29.3512 60.2104V76.2348C29.3512 77.7974 30.6171 79.065 32.1796 79.065H67.8462C69.4088 79.065 70.6746 77.7974 70.6746 76.2348ZM68.0764 24.6858C67.7887 22.8122 67.3589 21.1454 66.8609 19.6727V35.0751H69.6659C69.335 32.8904 68.7471 29.0587 68.0764 24.6858ZM62.1499 35.0751H64.9765V16.2204H62.1499V35.0751ZM62.8494 12.3708C62.0636 11.5616 60.5856 11.3225 59.3539 10.8784H39.478C38.7947 11.1481 38.0108 11.5454 37.1459 12.3708C36.7413 12.7573 36.2001 13.4172 35.6085 14.3361H64.3436C63.7646 13.4298 63.2342 12.7699 62.8494 12.3708ZM56.3781 66.367H52.5284C52.2731 66.367 52.0663 66.162 52.0663 65.9067V62.057C52.0663 61.8017 51.8613 61.5967 51.6078 61.5967H48.3856C48.1321 61.5967 47.9271 61.8017 47.9271 62.057V65.9067C47.9271 66.162 47.7204 66.367 47.465 66.367H43.6154C43.36 66.367 43.155 66.5702 43.155 66.8273V70.0494C43.155 70.3048 43.36 70.5098 43.6154 70.5098H47.465C47.7204 70.5098 47.9271 70.7129 47.9271 70.9683V74.8215C47.9271 75.0751 48.1321 75.2818 48.3856 75.2818H51.6078C51.8613 75.2818 52.0663 75.0751 52.0663 74.8215V70.9683C52.0663 70.7129 52.2731 70.5098 52.5284 70.5098H56.3781C56.6334 70.5098 56.8384 70.3048 56.8384 70.0494V66.8273C56.8366 66.5702 56.6316 66.367 56.3781 66.367Z" fill="#010002"/>
</svg>
