<svg width="100" height="100" viewBox="0 0 100 100" fill="none" xmlns="http://www.w3.org/2000/svg">
<path d="M36.7578 25.5273H63.2422C65.4492 25.5273 67.2266 23.75 67.2266 21.543V6.13281C67.2266 3.92578 65.4492 2.14844 63.2422 2.14844H36.7578C34.5508 2.14844 32.7734 3.92578 32.7734 6.13281V21.543C32.7734 23.7305 34.5508 25.5273 36.7578 25.5273V25.5273Z" fill="black"/>
<path d="M67.0313 42.5781V32.9297C65.8399 33.3203 64.5703 33.5547 63.2422 33.5547H36.7578C35.4297 33.5547 34.1602 33.3398 32.9688 32.9297V42.5781C23.457 47.2266 18.8086 53.4766 18.8086 61.6602V93.8672C18.8086 96.0742 20.5859 97.8516 22.793 97.8516H77.207C79.4141 97.8516 81.1914 96.0742 81.1914 93.8672V61.6406C81.1914 53.4766 76.5625 47.207 67.0313 42.5781V42.5781ZM62.793 71.1133H54.0039V79.9023C54.0039 82.1094 52.2266 83.8867 50.0195 83.8867C47.8125 83.8867 46.0352 82.1094 46.0352 79.9023V71.1133H37.2461C35.0391 71.1133 33.2617 69.3359 33.2617 67.1289C33.2617 64.9219 35.0391 63.1445 37.2461 63.1445H46.0352V54.3555C46.0352 52.1484 47.8125 50.3711 50.0195 50.3711C52.2266 50.3711 54.0039 52.1484 54.0039 54.3555V63.1445H62.793C65 63.1445 66.7773 64.9219 66.7773 67.1289C66.7773 69.3359 64.9805 71.1133 62.793 71.1133Z" fill="black"/>
</svg>
