<svg width="100" height="100" viewBox="0 0 100 100" fill="none" xmlns="http://www.w3.org/2000/svg">
<g clip-path="url(#clip0_1241_1182)">
<path d="M98.7323 40.5775L59.4527 1.31834C57.7591 -0.171219 55.0045 -0.171219 53.5149 1.31834L1.27822 53.3306C-1.10916 56.0036 0.421212 58.4318 1.27822 59.2684L40.3333 98.548C42.8431 100.874 45.6386 99.405 46.2711 98.548L98.7119 46.5357C100.426 44.8217 100.426 42.2915 98.7323 40.5775ZM43.3124 89.631L9.99113 56.2893L56.4736 10.0109L89.5909 43.3526L43.3124 89.631Z" fill="black"/>
<path d="M50.3327 22.3363C48.6391 24.0299 48.6391 26.5805 50.3327 28.2741L54.3729 32.3143C57.0255 34.7017 59.4741 33.1713 60.3107 32.3143C62.0043 30.6207 62.0043 28.0701 60.3107 26.3765L56.2705 22.3363C54.5769 20.6223 52.0263 20.6223 50.3327 22.3363Z" fill="black"/>
<path d="M46.2912 46.3107C47.9848 44.6171 47.9848 42.0665 46.2912 40.3729L42.251 36.3327C40.5574 34.6391 38.0068 34.6391 36.3132 36.3327C34.6196 38.0263 34.6196 40.5769 36.3132 42.2706L40.3534 46.3107C43.006 48.7185 45.4342 47.1678 46.2912 46.3107Z" fill="black"/>
<path d="M28.253 50.3522C26.5594 48.6586 24.0087 48.6586 22.3151 50.3522C20.6215 52.0459 20.6215 54.5965 22.3151 56.2901L26.3553 60.3303C29.008 62.7176 31.4565 61.1873 32.2932 60.3303C33.9868 58.6366 33.9868 56.086 32.2932 54.3924L28.253 50.3522Z" fill="black"/>
<path d="M71.5537 49.4943C74.2063 51.8817 76.6549 50.3514 77.4915 49.4943C79.1851 47.8007 79.1851 45.2501 77.4915 43.5565L73.4717 39.5163C71.7781 37.8227 69.2275 37.8227 67.5339 39.5163C65.8403 41.2099 65.8403 43.7605 67.5339 45.4542L71.5537 49.4943Z" fill="black"/>
<path d="M53.5144 53.5339C51.8207 55.2275 51.8207 57.7781 53.5144 59.4717L57.5545 63.5119C60.2072 65.8993 62.6558 64.3689 63.4924 63.5119C65.186 61.8183 65.186 59.2677 63.4924 57.5741L59.4522 53.5339C57.7586 51.8403 55.208 51.8403 53.5144 53.5339Z" fill="black"/>
<path d="M45.4346 67.5319C43.741 65.8383 41.1904 65.8383 39.4968 67.5319C37.8032 69.2255 37.8032 71.7762 39.4968 73.4698L43.5369 77.51C46.1896 79.8973 48.6382 78.367 49.4748 77.51C51.1684 75.8163 51.1684 73.2657 49.4748 71.5721L45.4346 67.5319Z" fill="black"/>
</g>
<defs>
<clipPath id="clip0_1241_1182">
<rect width="100" height="100" fill="white"/>
</clipPath>
</defs>
</svg>
