<svg width="100" height="100" viewBox="0 0 100 100" fill="none" xmlns="http://www.w3.org/2000/svg">
<g clip-path="url(#clip0_1241_1207)">
<path d="M81.5117 25.3115V4.24923C81.5117 1.8999 79.5914 0 77.2625 0H22.9826C20.6333 0 18.7334 1.92033 18.7334 4.24923V25.3115C8.39632 25.4341 0 33.8917 0 44.2492V81.0623C0 91.4811 8.5189 100 18.9377 100H81.0623C91.4811 100 100 91.4811 100 81.0623V44.2492C100.02 33.953 91.7263 25.5363 81.5117 25.3115ZM27.0276 8.29418H72.7681V25.3115H27.0276V8.29418ZM91.7058 81.0623C91.7058 87.0276 87.0276 91.7058 81.0623 91.7058H18.9377C12.9724 91.7058 8.29418 87.0276 8.29418 81.0623H49.1522C51.5015 81.0623 53.4014 79.142 53.4014 76.8131V48.4985C53.4014 46.1491 51.4811 44.2492 49.1522 44.2492H8.29418C8.29418 38.284 12.9724 33.6057 18.9377 33.6057H81.0623C87.0276 33.6057 91.7058 38.284 91.7058 44.2492V81.0623ZM8.5189 72.7477V52.7477H45.1073V72.7477H8.5189Z" fill="black"/>
</g>
<defs>
<clipPath id="clip0_1241_1207">
<rect width="100" height="100" fill="white"/>
</clipPath>
</defs>
</svg>
