<svg width="100" height="100" viewBox="0 0 100 100" fill="none" xmlns="http://www.w3.org/2000/svg">
<g clip-path="url(#clip0_1241_1225)">
<path d="M98.7736 69.5525L63.7308 34.5098C61.607 32.386 58.8502 31.1199 55.6645 30.8952L46.2708 30.3643C45.9032 26.4026 44.2491 22.8493 41.4309 20.0516C39.736 18.3566 37.9185 16.7842 35.6926 16.2328C29.2803 14.6196 19.7641 3.49004 19.7641 3.49004C17.4156 1.36624 10.9626 -2.55463 4.244 2.63235C-3.31183 9.5347 1.05829 17.2947 3.38631 19.4185C3.38631 19.4185 13.8419 28.9757 16.1291 35.7759C16.8643 37.9406 18.2529 39.8193 19.9479 41.5143C22.7864 44.3528 26.3193 46.0273 30.0768 46.3337L30.7915 55.7478C30.9957 58.7293 32.2823 61.4862 34.4061 63.61L69.4692 98.6731C71.205 100.368 73.288 99.9392 73.921 99.735C93.2599 93.3636 99.6313 74.6578 99.8355 73.8205C100.264 72.3094 99.8355 70.6144 98.7736 69.5525ZM23.7871 33.0191C19.7232 22.4613 9.12465 13.6802 9.12465 13.6802C8.4916 13.0471 7.55223 10.8008 9.34929 9.00375C11.371 7.59469 13.168 8.79954 13.8011 9.4326C13.8011 9.4326 21.99 19.4798 32.7111 24.095C40.7366 27.5462 37.3263 35.0816 35.8968 36.2048C34.1814 37.5321 26.6256 40.4115 23.7871 33.0191ZM39.0825 55.1148L38.3065 44.7816C39.6543 44.1077 40.9 43.2296 42.064 42.1473C43.0646 41.065 43.9223 39.8806 44.6166 38.594L55.0314 39.1658C56.0933 39.37 57.1552 39.7989 57.7883 40.4319L68.2439 50.9693C64.1189 61.1594 55.1948 66.6323 51.1514 68.6336L40.369 57.8512C39.5113 57.0139 39.0825 56.1767 39.0825 55.1148ZM73.4922 91.0152L57.2165 74.7395C62.2809 71.8397 69.7143 66.3464 74.4724 57.259L90.7072 73.5959C88.7876 77.8435 83.7027 86.7676 73.4922 91.0152Z" fill="black"/>
</g>
<defs>
<clipPath id="clip0_1241_1225">
<rect width="100" height="100" fill="white"/>
</clipPath>
</defs>
</svg>
