<svg width="100" height="100" viewBox="0 0 100 100" fill="none" xmlns="http://www.w3.org/2000/svg">
<g clip-path="url(#clip0_1241_386)">
<path d="M26.6818 56.8257H34.8888V65.0366C34.8888 66.5422 36.103 67.7497 37.6019 67.7497H51.2747C52.7726 67.7497 53.9877 66.5422 53.9877 65.0366V56.8257H62.2005C63.6965 56.8257 64.9136 55.6193 64.9136 54.1127V40.4612C64.9136 38.9565 63.6965 37.7481 62.2005 37.7481H53.9877V29.5324C53.9877 28.0403 52.7726 26.8203 51.2747 26.8203H37.6019C36.104 26.8203 34.8888 28.0413 34.8888 29.5324V37.7471H26.6818C25.1829 37.7471 23.9688 38.9555 23.9688 40.4602V54.1117C23.9687 55.6183 25.1829 56.8257 26.6818 56.8257ZM29.3939 43.1742H37.6019C39.1007 43.1742 40.3149 41.9523 40.3149 40.4602V32.2455H48.5616V40.4602C48.5616 41.9523 49.7768 43.1742 51.2756 43.1742H59.4845V51.3967H51.2756C49.7768 51.3967 48.5616 52.6177 48.5616 54.1127V62.3235H40.3149V54.1127C40.3149 52.6177 39.1017 51.3967 37.6019 51.3967H29.3939V43.1742Z" fill="black"/>
<path d="M97.2879 4.19141H21.9708C20.4739 4.19141 19.2577 5.40754 19.2577 6.90447V16.9182H2.7121C1.21323 16.9182 0 18.145 0 19.6303V73.7154C0 75.2085 1.21323 76.4285 2.7121 76.4285H19.9936V93.0971C19.9936 94.1244 20.5726 95.0675 21.4905 95.5245C21.8749 95.7143 22.2884 95.8101 22.7067 95.8101C23.2809 95.8101 23.856 95.6426 24.3324 95.2689L49.4684 76.4178H86.1655C87.6537 76.4178 88.8786 75.2036 88.8786 73.7048V56.4271H97.2879C98.7887 56.4271 100.001 55.2158 100.001 53.715V6.89963C100 5.39399 98.7877 4.19141 97.2879 4.19141ZM83.4524 70.9927H48.5612C47.9763 70.9927 47.406 71.1776 46.9335 71.5329L25.4091 87.6719V73.7057C25.4091 72.2214 24.1968 70.9927 22.696 70.9927H5.42032V22.3385H83.4495L83.4524 70.9927ZM94.5748 51.0078H88.8786V19.6303C88.8786 18.144 87.6537 16.9173 86.1655 16.9173H24.6839V9.61657H94.5748V51.0078Z" fill="black"/>
</g>
<defs>
<clipPath id="clip0_1241_386">
<rect width="100" height="100" fill="white"/>
</clipPath>
</defs>
</svg>
