<svg width="100" height="100" viewBox="0 0 100 100" fill="none" xmlns="http://www.w3.org/2000/svg">
<g clip-path="url(#clip0_1241_1243)">
<path d="M41.2836 32.5028C43.7077 32.5028 45.6727 30.5377 45.6727 28.1137C45.6727 25.6897 43.7077 23.7246 41.2836 23.7246C38.8596 23.7246 36.8945 25.6897 36.8945 28.1137C36.8945 30.5377 38.8596 32.5028 41.2836 32.5028Z" fill="black"/>
<path d="M71.6801 62.8993C74.1042 62.8993 76.0692 60.9342 76.0692 58.5102C76.0692 56.0862 74.1042 54.1211 71.6801 54.1211C69.2561 54.1211 67.291 56.0862 67.291 58.5102C67.291 60.9342 69.2561 62.8993 71.6801 62.8993Z" fill="black"/>
<path d="M56.3696 47.8133C58.7936 47.8133 60.7587 45.8483 60.7587 43.4242C60.7587 41.0002 58.7936 39.0352 56.3696 39.0352C53.9455 39.0352 51.9805 41.0002 51.9805 43.4242C51.9805 45.8483 53.9455 47.8133 56.3696 47.8133Z" fill="black"/>
<path d="M28.1977 45.5673C30.6217 45.5673 32.5868 43.6022 32.5868 41.1782C32.5868 38.7541 30.6217 36.7891 28.1977 36.7891C25.7737 36.7891 23.8086 38.7541 23.8086 41.1782C23.8086 43.6022 25.7737 45.5673 28.1977 45.5673Z" fill="black"/>
<path d="M58.6157 75.9852C61.0397 75.9852 63.0048 74.0202 63.0048 71.5961C63.0048 69.1721 61.0397 67.207 58.6157 67.207C56.1916 67.207 54.2266 69.1721 54.2266 71.5961C54.2266 74.0202 56.1916 75.9852 58.6157 75.9852Z" fill="black"/>
<path d="M43.3032 60.8778C45.7272 60.8778 47.6923 58.9127 47.6923 56.4887C47.6923 54.0647 45.7272 52.0996 43.3032 52.0996C40.8791 52.0996 38.9141 54.0647 38.9141 56.4887C38.9141 58.9127 40.8791 60.8778 43.3032 60.8778Z" fill="black"/>
<path d="M97.4227 55.285L44.4677 2.55459C42.8754 0.758124 36.9348 -2.16114 31.7087 2.55459L2.57732 31.686C-2.24048 37.4428 0.882923 42.7506 2.57732 44.445L55.5119 97.3795C60.3909 102.095 66.5765 99.4006 68.2709 97.3795L97.4023 68.044C99.3621 66.2884 102.077 60.4499 97.4227 55.285ZM91.4617 62.3076L62.3303 91.4389C62.1262 91.8676 61.9016 91.8676 61.4729 91.4389L8.53833 38.5044C8.33418 38.3002 8.33418 37.8715 8.53833 37.647L37.6697 8.5156C37.8738 8.31146 38.323 8.25021 38.5271 8.5156L91.4617 61.4502C91.6658 61.6747 91.6658 62.1034 91.4617 62.3076Z" fill="black"/>
</g>
<defs>
<clipPath id="clip0_1241_1243">
<rect width="100" height="100" fill="white"/>
</clipPath>
</defs>
</svg>
