<svg width="100" height="100" viewBox="0 0 100 100" fill="none" xmlns="http://www.w3.org/2000/svg">
<path d="M93.4632 18.7375C82.573 12.094 60.4283 22.1672 54.6476 25.0103C53.2611 24.3356 50.6699 23.1443 47.4795 21.864C46.6032 9.67916 36.521 0 24.1346 0C11.1561 0 0.601562 10.551 0.601562 23.5285C0.601562 31.6817 4.77265 38.8642 11.0977 43.0884C15.2796 66.2759 31.8227 100 54.6602 100C79.3529 100 99.4004 58.2711 99.4004 31.0232C99.4004 25.2704 97.4013 21.138 93.4632 18.7375ZM5.64268 23.533C5.64268 13.3437 13.9354 5.04652 24.1355 5.04652C33.8848 5.04652 41.8185 12.6761 42.4789 22.2725C42.4204 22.3778 42.3332 22.4596 42.2945 22.5748C42.0165 23.3054 42.128 24.0665 42.4897 24.6963C41.8806 34.3413 33.9253 42.0186 24.1364 42.0186C13.9354 42.0195 5.64268 33.7214 5.64268 23.533ZM54.6602 94.9598C38.2053 94.9598 22.1579 69.8334 16.7785 45.7659C19.1025 46.5343 21.5425 47.0561 24.1346 47.0561C35.83 47.0561 45.4786 38.4359 47.2753 27.2281C49.3599 28.1018 51.0433 28.8827 52.1365 29.4019V63.9825C52.1365 65.3717 53.2611 66.5035 54.6602 66.5035C56.0466 66.5035 57.1812 65.3717 57.1812 63.9825V29.3875C65.1248 25.5205 83.2532 18.4163 90.8441 23.0436C93.2077 24.4867 94.3593 27.0977 94.3593 31.0241C94.3593 55.1104 75.799 94.9598 54.6602 94.9598ZM21.6136 26.054H10.8592C9.46288 26.054 8.33733 24.924 8.33733 23.533C8.33733 22.142 9.46198 21.012 10.8592 21.012H21.6145V10.2748C21.6145 8.88201 22.7364 7.75467 24.1355 7.75467C25.5219 7.75467 26.6556 8.88201 26.6556 10.2748V21.0174H37.3883C38.7829 21.0174 39.9093 22.1474 39.9093 23.5384C39.9093 24.9285 38.7838 26.0603 37.3883 26.0603H26.6547V36.802C26.6547 38.1948 25.5201 39.3231 24.1346 39.3231C22.7355 39.3231 21.6136 38.1957 21.6136 36.802V26.054Z" fill="black"/>
</svg>
