<svg width="100" height="100" viewBox="0 0 100 100" fill="none" xmlns="http://www.w3.org/2000/svg">
<path d="M77.0479 26.3867L71.7514 19.7338V14.0092H72.9035C75.1264 14.0092 76.9348 12.2008 76.9348 9.97793V4.03145C76.9348 1.8084 75.1264 0 72.9035 0H27.0963C24.8734 0 23.065 1.8084 23.065 4.03145V9.97793C23.065 12.2008 24.8734 14.0092 27.0963 14.0092H28.2484V19.734L22.952 26.3871C21.0824 28.7354 20.0527 31.6818 20.0527 34.6836V36.8818V70.6459C20.0527 71.5061 20.7498 72.2033 21.6102 72.2033C22.4705 72.2033 23.1676 71.5061 23.1676 70.6459V38.4389H76.832V80.4547H23.1676V75.7506V75.7488C23.1676 74.8887 22.4705 74.1914 21.6102 74.1914C20.7498 74.1914 20.0527 74.8887 20.0527 75.7488V75.7506V82.0121V90.6951C20.0527 95.8258 24.2268 99.9998 29.3574 99.9998H70.6426C75.7733 99.9998 79.9473 95.8258 79.9473 90.6951V82.0121V36.8813V34.683C79.9471 31.6816 78.9176 28.7352 77.0479 26.3867ZM76.8322 90.6953C76.8322 94.1084 74.0555 96.885 70.6426 96.885H29.3574C25.9443 96.885 23.1678 94.1082 23.1678 90.6953V83.5699H76.8322V90.6953ZM27.0963 10.8941C26.591 10.8939 26.1801 10.483 26.1801 9.97773V8.05117H41.6154C42.4758 8.05117 43.1729 7.35391 43.1729 6.49375C43.1729 5.63359 42.4758 4.93633 41.6154 4.93633H26.1801V4.03145C26.1801 3.52617 26.591 3.11504 27.0963 3.11504H72.9035C73.4088 3.11504 73.8197 3.52598 73.8197 4.03145V9.97793C73.8197 10.4832 73.4088 10.8941 72.9035 10.8941H70.194H29.8059H27.0963V10.8941ZM76.8322 35.3242H23.1676V35.324V34.6834C23.1676 32.3834 23.9564 30.1262 25.3887 28.3271L31.0244 21.2482C31.2441 20.9725 31.3635 20.6305 31.3635 20.2783V14.0092H68.6363V20.2783C68.6363 20.6307 68.7557 20.9729 68.9754 21.2482L74.6111 28.3271C76.0432 30.1262 76.8322 32.3836 76.8322 34.6834V35.3242V35.3242Z" fill="black"/>
<path d="M60.763 71.3141C59.7027 66.535 55.1103 59.8691 50.0406 59.8691H49.9611C44.8914 59.8691 40.2992 66.535 39.2386 71.3141C38.3086 75.5059 40.2482 76.9107 41.1255 77.3199C42.8855 78.1414 44.9398 78.284 47.1 77.7369C48.0314 77.501 48.9939 77.3815 49.9607 77.3815H50.0056H50.0412C51.0082 77.3815 51.9707 77.501 52.9019 77.7369C53.7619 77.9545 54.6105 78.065 55.4248 78.0652C55.425 78.0652 55.425 78.0652 55.425 78.0652C56.6558 78.0652 57.817 77.8145 58.8759 77.3199C59.7533 76.9106 61.6929 75.5057 60.763 71.3141ZM57.5584 74.4977C56.4505 75.0148 55.1228 75.0863 53.6666 74.7176C52.4855 74.4186 51.2658 74.2668 50.0412 74.2668H50.0056H49.9607C48.7361 74.2668 47.5164 74.4184 46.3353 74.7176C44.8781 75.0863 43.5507 75.0145 42.4431 74.4977C42.1271 74.3498 41.9623 73.4205 42.2796 71.9889C43.1791 67.9354 46.9002 62.9842 49.9611 62.9842H50.0406C53.1013 62.9842 56.8226 67.9354 57.722 71.9889C58.0394 73.4205 57.8746 74.3498 57.5584 74.4977Z" fill="black"/>
<path d="M48.6029 47.6141C47.5054 45.1764 45.0689 43.6016 42.3951 43.6016C41.4297 43.6016 40.4908 43.8039 39.6047 44.2027C37.9474 44.9488 36.6798 46.2957 36.0355 47.9951C35.391 49.6947 35.4472 51.5434 36.1933 53.2008C37.4332 55.9547 41.5728 60.1182 44.9873 60.1184C44.9875 60.1184 44.9875 60.1184 44.9877 60.1184C45.5691 60.1184 46.1173 60.0041 46.6173 59.7793C50.4775 58.0412 49.8914 50.4768 48.6029 47.6141ZM45.3388 56.9385C45.2423 56.9818 45.1273 57.0031 44.9879 57.0031H44.9877C43.2177 57.0029 39.9791 54.0205 39.0341 51.9217C38.6296 51.023 38.599 50.0207 38.9486 49.0992C39.298 48.1775 39.9853 47.4475 40.8838 47.043C41.365 46.8262 41.8736 46.7166 42.3951 46.7166C43.8455 46.7166 45.1671 47.5707 45.7625 48.8928C46.9162 51.4564 46.6589 56.3439 45.3388 56.9385Z" fill="black"/>
<path d="M39.8571 60.8324C38.9122 59.1164 37.4751 57.4588 36.1963 56.61C35.2008 55.949 34.045 55.5996 32.8536 55.5996C30.8188 55.5998 28.9331 56.6107 27.8086 58.3041C26.9147 59.6506 26.5985 61.2647 26.9186 62.8486C27.2385 64.4326 28.1565 65.7975 29.5028 66.6912C31.0727 67.7338 33.8032 68.4904 35.995 68.4904C35.9954 68.4904 35.9952 68.4904 35.9956 68.4904C38.5952 68.4904 39.8083 67.4854 40.3682 66.6424C41.3159 65.2152 41.1344 63.1522 39.8571 60.8324ZM37.7729 64.9197C37.6604 65.0893 37.1596 65.3758 35.9956 65.3758C35.9956 65.3758 35.9954 65.3758 35.9952 65.3758C34.2393 65.3756 32.1526 64.7117 31.2258 64.0965C30.5725 63.6627 30.1272 63.0006 29.9719 62.232C29.8168 61.4635 29.97 60.6803 30.4036 60.0272C30.9491 59.2055 31.8649 58.7148 32.8534 58.7148C33.4297 58.7148 33.9899 58.8844 34.4731 59.2051C35.1801 59.6744 36.3126 60.8541 37.1282 62.335C37.9135 63.7615 37.944 64.6623 37.7729 64.9197Z" fill="black"/>
<path d="M63.9641 47.9949C63.3196 46.2955 62.052 44.9486 60.3948 44.2027C59.5087 43.8041 58.57 43.6016 57.6046 43.6016C54.9309 43.6016 52.4942 45.1766 51.3968 47.6139C50.1083 50.4766 49.5221 58.0408 53.3825 59.7791C53.8821 60.0039 54.4305 60.1182 55.0122 60.1182C58.4264 60.1182 62.5663 55.9545 63.8063 53.2006C64.5524 51.5432 64.6085 49.6945 63.9641 47.9949ZM60.9657 51.9217C60.0206 54.0207 56.7821 57.0031 55.0122 57.0031C54.8723 57.0031 54.7575 56.982 54.6612 56.9385C53.3409 56.3439 53.0833 51.4562 54.2374 48.8926C54.8325 47.5705 56.1542 46.7164 57.6048 46.7164C58.1266 46.7164 58.635 46.8264 59.1161 47.0428C60.0147 47.4473 60.702 48.1775 61.0514 49.099C61.4005 50.0207 61.3702 51.0232 60.9657 51.9217Z" fill="black"/>
<path d="M72.1916 58.3039C71.0674 56.6105 69.1815 55.5996 67.1467 55.5996C65.9555 55.5996 64.7994 55.9488 63.8039 56.61C62.5248 57.4588 61.0879 59.1162 60.1432 60.8322C58.866 63.1518 58.6846 65.215 59.6321 66.6424C60.1916 67.4855 61.4049 68.4904 64.0051 68.4904C66.1969 68.4904 68.9272 67.7336 70.4975 66.6912C71.8438 65.7975 72.7617 64.4326 73.0817 62.8486C73.4018 61.2645 73.0858 59.6504 72.1916 58.3039ZM70.0282 62.2316C69.8729 63.0002 69.4274 63.6625 68.7742 64.0961C67.8477 64.7111 65.7608 65.3754 64.0049 65.3754C62.8405 65.3754 62.3395 65.0889 62.227 64.9193C62.0561 64.6617 62.0864 63.7607 62.8715 62.335C63.6869 60.8543 64.8194 59.6746 65.5266 59.2051C66.0098 58.8842 66.5699 58.7148 67.1463 58.7148C68.1348 58.7148 69.0506 59.2053 69.5961 60.0271C70.0301 60.6801 70.1832 61.4631 70.0282 62.2316Z" fill="black"/>
<path d="M51.5793 4.93555H46.7039C45.8436 4.93555 45.1465 5.63281 45.1465 6.49297C45.1465 7.35313 45.8436 8.05039 46.7039 8.05039H51.5793C52.4396 8.05039 53.1367 7.35313 53.1367 6.49297C53.1367 5.63281 52.4396 4.93555 51.5793 4.93555Z" fill="black"/>
</svg>
