<svg width="100" height="100" viewBox="0 0 100 100" fill="none" xmlns="http://www.w3.org/2000/svg">
<g clip-path="url(#clip0_1241_88)">
<path d="M96.4063 72.3047C94.8828 71.5234 93.75 69.9609 93.75 68.1641V25.1953C93.75 23.0469 92.1875 21.3281 90.0391 21.3281C89.7656 21.3281 89.4531 21.3281 89.4531 21.4062V50.7422C89.4531 51.5625 88.7109 52.2656 87.8906 52.2656C87.0703 52.2656 86.3281 51.5625 86.3281 50.7422V19.0234C86.3281 16.875 84.5703 15.1562 82.4219 15.1562C80.2734 15.1562 78.5156 16.875 78.5156 19.0234V21.7188C78.9062 21.9922 79.2969 22.2656 79.6094 22.6172C80.9375 23.9453 81.6406 25.6641 81.6406 27.5391V50.7422C81.6406 51.5625 80.8984 52.2656 80.0781 52.2656C79.2578 52.2656 78.5156 51.5625 78.5156 50.7422V27.5391C78.5156 25.3906 76.7578 23.6719 74.6094 23.6719C72.4609 23.6719 70.7031 25.3906 70.7031 27.5391V60.8203C70.7031 61.6406 69.9609 62.3437 69.1406 62.3437C68.3203 62.3437 67.5781 61.6406 67.5781 60.8203V49.9219C67.5781 47.7734 65.8203 46.0547 63.6719 46.0547C61.5234 46.0547 59.7656 47.7734 59.7656 49.9219V70.7813C59.7656 76.1328 62.8906 80.8203 67.3047 83.125L100 100V75.3125L96.4063 72.3047Z" fill="black"/>
<path d="M48.0859 51.4453C48.0859 44.9609 42.8906 39.7656 36.4063 39.7656C30.9375 39.7656 26.2891 43.6328 25 48.8672C23.7109 47.0313 22.3828 44.7266 20.5859 42.6172L17.9687 44.9609C20.3125 47.5781 22.1094 50.6641 23.4375 53.2813C23.2031 53.2813 22.9297 53.2813 22.6562 53.2813C16.1719 53.2813 10.9766 58.4766 10.9766 64.9609C10.9766 71.4453 16.1719 76.6406 22.6562 76.6406C36.6797 76.6016 48.0859 65.4297 48.0859 51.4453Z" fill="black"/>
<path d="M49.1797 19.8047V12.9688H31.5234C31.7578 12.5 31.7578 12.0703 31.7578 11.6016C31.7578 10.2344 30.625 8.90625 29.0625 8.90625C27.6953 8.90625 26.3672 10.0391 26.3672 11.6016C26.3672 12.0703 26.6016 12.5 26.6016 12.9688H8.90625V20.0391C6.40625 20.7031 4.60938 23.0078 4.60938 25.9375V75.9375C4.60938 79.336 7.57813 82.0703 10.9375 82.0703H47.3828C50.7813 82.0703 53.7109 79.375 53.7109 75.7422V25.8984C53.7109 22.9688 51.6406 20.4688 49.1797 19.8047ZM50.9766 75.7031C50.9766 77.7344 49.375 79.3359 47.3438 79.3359H10.8984C8.86719 79.3359 7.26563 77.7344 7.26563 75.7031V25.8984C7.26563 23.8672 8.86719 22.2656 10.8984 22.2656H47.3438C49.375 22.2656 50.9766 23.8672 50.9766 25.8984V75.7031Z" fill="black"/>
</g>
<defs>
<clipPath id="clip0_1241_88">
<rect width="100" height="100" fill="white"/>
</clipPath>
</defs>
</svg>
