<svg width="100" height="100" viewBox="0 0 100 100" fill="none" xmlns="http://www.w3.org/2000/svg">
<path d="M86.3047 92.4848C86.0598 95.7293 83.2438 98.1168 79.9992 97.8723C78.9586 97.8109 78.2238 97.4437 77.3055 97.0152C77.3055 97.0152 60.6539 85.6898 59.6742 84.8938C58.0211 83.4855 56.3684 81.8328 55.6336 79.4453C55.3887 78.5883 52.0215 67.1402 52.0215 67.1402L50.5102 99.2188H16.7187L17.5352 86.3016H9.53555C4.69922 86.3016 0.78125 82.3832 0.78125 77.5469C0.78125 76.3836 0.964844 75.2816 1.39336 74.3023C1.39336 74.3023 10.4539 53.9773 12.168 50.6715C14.6781 45.7125 19.0859 43.5699 25.2688 43.7535H41.6145L7.39258 68.3023L4.33164 75.4648C4.02539 76.077 3.90312 76.8117 3.90312 77.5461C3.90312 80.607 6.41328 83.1172 9.47422 83.1172H37.9414C42.7777 83.1172 46.6957 79.1992 46.6957 74.3629C46.6957 70.0773 43.6348 66.4656 39.5941 65.7309L47.9199 43.6305H49.8789C54.4703 43.6305 58.0824 46.7527 59.123 50.3035L65.6734 73.9344C65.7957 74.3016 66.2246 75.0363 66.7754 75.4648C67.4488 75.9547 84.0391 87.3414 84.0391 87.3414C85.5703 88.5055 86.4887 90.4031 86.3047 92.4848ZM36.0438 39.7133C43.2063 40.2645 49.4508 34.9383 50.002 27.7754C50.5527 20.6129 45.227 14.3684 38.0641 13.8172C30.9016 13.266 24.657 18.5922 24.1059 25.7551C23.5551 32.918 28.8809 39.1625 36.0438 39.7133ZM43.5125 74.3023C43.5125 71.425 41.3086 69.0988 38.5535 68.7926L34.5129 79.9344L37.941 79.873C41.0023 79.8734 43.5125 77.3633 43.5125 74.3023ZM94.9898 8.47266V7.85313V6.24922H95.573H96.9219V0.78125H95.573H71.2961H69.9473V6.24883H71.2961H71.8793V7.85273V8.47227C69.4371 8.69141 67.5781 10.7324 67.5781 13.2113V42.3574C67.5781 44.2164 68.6719 45.8203 70.2027 46.6223C70.8223 46.9504 71.5516 47.1324 72.3168 47.1324H94.4793C95.2449 47.1324 95.9375 46.95 96.5934 46.6223C98.1609 45.8566 99.218 44.2164 99.218 42.3574V13.2113C99.2547 10.7324 97.3957 8.69141 94.9898 8.47266ZM75.0508 8.43594V7.81641V6.24883H75.5609H91.3082H91.8184V7.81641V8.43594V8.47227H75.0508V8.43594ZM96.6301 42.3574C96.6301 43.5238 95.6824 44.4715 94.516 44.4715H72.3531C71.1867 44.4715 70.2391 43.5238 70.2391 42.3574V39.8785H96.6301V42.3574ZM90.8059 26.134V30.5105H85.6227V35.6934H81.2461V30.5109H76.0629V26.134H81.2461V20.9512H85.6227V26.134H90.8059V26.134ZM96.6668 17.2211H70.2391V13.175C70.2391 12.0086 71.1867 11.0609 72.3531 11.0609H93.9324C93.9687 11.0609 94.0418 11.0609 94.0781 11.0609C94.1145 11.0609 94.1145 11.0609 94.1512 11.0609C94.2242 11.0609 94.2969 11.0609 94.3699 11.0609H94.5523C95.7188 11.0609 96.6664 12.0086 96.6664 13.175V17.2211H96.6668Z" fill="black"/>
</svg>
