<svg width="100" height="100" viewBox="0 0 100 100" fill="none" xmlns="http://www.w3.org/2000/svg">
<path d="M49.9996 0C22.4295 0 0 22.4301 0 50.0002C0 77.5703 22.4295 100 49.9996 100C77.5697 100 99.9992 77.5701 99.9992 50.0002C99.9992 22.4301 77.5693 0 49.9996 0ZM49.9996 95.8326C24.7275 95.8326 4.16738 75.2723 4.16738 50.0002C4.16719 24.7277 24.7273 4.16738 49.9996 4.16738C75.2719 4.16738 95.8318 24.7277 95.8318 50C95.8318 75.2723 75.2717 95.8326 49.9996 95.8326Z" fill="black"/>
<path d="M52.083 10.4178C52.083 9.26699 51.1496 8.33398 49.9992 8.33398C27.0236 8.33398 8.33203 27.0256 8.33203 50.0006C8.33203 51.576 8.42324 53.1717 8.60352 54.7436C8.7252 55.8065 9.62617 56.5904 10.6709 56.5904C10.7498 56.5904 10.8301 56.586 10.9105 56.5768C12.0537 56.4459 12.8746 55.4127 12.7436 54.2695C12.5816 52.8545 12.4994 51.4184 12.4994 50.0008C12.4994 29.3238 29.3213 12.5016 49.9992 12.5016C51.1496 12.5016 52.083 11.5686 52.083 10.4178Z" fill="black"/>
<path d="M91.3955 45.2572C91.2645 44.1137 90.2291 43.2922 89.0885 43.424C87.9453 43.5547 87.1244 44.5877 87.2551 45.7311C87.4166 47.1422 87.4984 48.5785 87.4984 50.0002C87.4984 70.6772 70.6768 87.4994 49.9998 87.4994C48.849 87.4994 47.916 88.4323 47.916 89.5832C47.916 90.7342 48.8488 91.667 49.9998 91.667C72.9746 91.667 91.6658 72.9754 91.6658 50.0004C91.6658 48.4211 91.575 46.8252 91.3955 45.2572Z" fill="black"/>
<path d="M13.7512 59.6088C13.4284 58.5044 12.2704 57.8708 11.1667 58.1936C10.0768 58.5124 9.44597 59.6438 9.74011 60.7352L11.7653 60.246L9.74187 60.7428L9.74109 60.7399C9.74187 60.742 9.74187 60.7442 9.74285 60.7463C9.97761 61.695 10.8278 62.3299 11.7639 62.3299C11.9284 62.3299 12.0956 62.3104 12.2626 62.2694C13.3802 61.995 14.0636 60.8665 13.7891 59.7487C13.7774 59.7022 13.7651 59.6555 13.7512 59.6088Z" fill="black"/>
<path d="M9.74023 60.7344L9.74141 60.7393C9.74102 60.7375 9.74102 60.7359 9.74062 60.7344H9.74023Z" fill="black"/>
<path d="M86.2519 40.4051C86.5222 41.3084 87.3505 41.8916 88.2472 41.8916C88.4448 41.8916 88.6464 41.8633 88.8454 41.8037C89.9347 41.4778 90.5585 40.341 90.2562 39.251C90.2558 39.2492 90.2554 39.2481 90.2554 39.2477C89.9745 38.1322 88.8451 37.4598 87.7292 37.7389C86.6138 38.0184 85.9366 39.1531 86.2148 40.269C86.2261 40.3141 86.2384 40.3604 86.2519 40.4051Z" fill="black"/>
<path d="M51.6906 40.2502C52.0185 40.4399 52.3771 40.5299 52.7304 40.5299C53.4508 40.5299 54.1512 40.1563 54.5371 39.4879L54.5566 39.4543C55.1322 38.4576 54.7906 37.1834 53.7939 36.6078C52.7972 36.032 51.5228 36.3738 50.9476 37.3703L50.9285 37.4039C50.3523 38.4002 50.6937 39.6746 51.6906 40.2502Z" fill="black"/>
<path d="M59.4593 75.1217C63.5431 75.1217 67.4083 74.66 70.3435 73.8215C74.1804 72.7252 76.1259 71.06 76.1259 68.8715V58.476C76.1259 58.469 76.1267 58.4621 76.1267 58.4549C76.1267 52.3795 61.1654 52.2043 59.4593 52.2043C59.0898 52.2043 58.0976 52.2127 56.7712 52.2873L61.7751 43.6207C63.4388 40.7389 63.8781 37.3717 63.0117 34.1385C62.1453 30.9053 60.0812 28.2088 57.1992 26.5451C51.2296 23.099 43.5695 25.1518 40.1236 31.1203L32.8326 43.7486C32.8322 43.749 32.8322 43.7494 32.8318 43.75C32.8314 43.7506 32.8314 43.751 32.831 43.7514L25.54 56.3793C23.8763 59.2611 23.4371 62.6285 24.3031 65.8615C25.1695 69.0943 27.2335 71.7912 30.1154 73.4547C32.048 74.5703 34.1847 75.1033 36.3064 75.1033C39.3111 75.1033 42.2818 74.0309 44.591 72.0289C45.5441 72.7356 46.8724 73.3346 48.5753 73.8211C51.5103 74.66 55.3757 75.1217 59.4593 75.1217ZM59.4595 56.3717C65.9771 56.3719 70.1812 57.5875 71.5949 58.4551C70.181 59.3225 65.9765 60.5385 59.4593 60.5385C52.9421 60.5385 48.7378 59.3227 47.3242 58.4551C48.1269 57.9627 49.829 57.3584 52.3425 56.9275C52.3433 56.9273 52.3447 56.9272 52.3455 56.927C52.6283 56.8787 52.9218 56.8324 53.2249 56.7889C53.258 56.7846 53.2908 56.7809 53.3236 56.7752C55.0519 56.5311 57.1041 56.3717 59.4595 56.3717ZM43.7324 33.2041C46.0292 29.2252 51.1365 27.8574 55.1156 30.1543C57.0331 31.2613 58.4076 33.0594 58.9859 35.2172C59.5642 37.3748 59.2728 39.6195 58.1658 41.5369L51.9158 52.3619L48.308 50.2791L51.5271 44.7025C52.1027 43.7059 51.7607 42.4314 50.764 41.8563C49.7673 41.2805 48.4931 41.6227 47.9181 42.6191L44.699 48.1957L37.4824 44.0295L43.7324 33.2041ZM42.7923 58.4551V67.9283C40.2412 71.0139 35.7113 71.8736 32.1992 69.8457C30.2816 68.7387 28.9066 66.9408 28.3289 64.783C27.7505 62.6254 28.0419 60.3809 29.149 58.4631L35.399 47.6381L46.6865 54.1545C44.4318 55.0803 42.7923 56.4443 42.7923 58.4551ZM46.9597 62.8649C51.522 64.6303 58.3404 64.7057 59.4591 64.7057C60.5779 64.7057 67.3964 64.6303 71.9582 62.8652V68.6045C71.0824 69.459 66.7021 70.9543 59.4591 70.9543C52.2158 70.9543 47.8355 69.459 46.9597 68.6045V62.8649V62.8649Z" fill="black"/>
</svg>
