<svg width="100" height="100" viewBox="0 0 100 100" fill="none" xmlns="http://www.w3.org/2000/svg">
<path d="M99.981 72.6595C99.979 72.6084 99.9773 72.5574 99.9751 72.5062C99.9612 72.1884 99.9415 71.8722 99.9161 71.5578C99.9144 71.5363 99.9122 71.5146 99.9105 71.4931C99.855 70.8359 99.7737 70.1861 99.6679 69.5441C99.6642 69.5216 99.6618 69.4988 99.6581 69.4763C99.6565 69.4666 99.6536 69.4572 99.6519 69.447C97.6677 57.6963 87.4202 48.7168 75.1136 48.7168C62.807 48.7168 52.5598 57.6963 50.5754 69.447C50.5736 69.4568 50.5709 69.4662 50.5693 69.4763C50.5654 69.4988 50.5633 69.5216 50.5596 69.5441C50.4537 70.1859 50.3727 70.8359 50.317 71.4931C50.3152 71.5146 50.3129 71.5363 50.3113 71.5578C50.2856 71.8722 50.2662 72.1884 50.2523 72.5062C50.25 72.5574 50.2484 72.6084 50.2465 72.6595C50.2346 72.9732 50.2266 73.2876 50.2266 73.6042C50.2266 73.9209 50.2346 74.2353 50.2465 74.549C50.2482 74.6001 50.25 74.6509 50.2522 74.7021C50.266 75.0199 50.2857 75.3363 50.3113 75.6509C50.3131 75.6722 50.3152 75.6935 50.317 75.7146C50.3725 76.3722 50.4539 77.0224 50.5598 77.6648C50.5635 77.687 50.5658 77.7095 50.5695 77.7318C50.5711 77.7415 50.5738 77.7509 50.5756 77.7607C52.56 89.5116 62.8072 98.4913 75.1138 98.4913C87.4204 98.4913 97.6679 89.5116 99.6521 77.7607C99.6538 77.7511 99.6565 77.7417 99.6581 77.7318C99.6614 77.7097 99.6638 77.687 99.6675 77.6648C99.7733 77.0224 99.8546 76.3722 99.9103 75.7146C99.912 75.6933 99.9142 75.672 99.9159 75.6509C99.9417 75.3363 99.9612 75.0201 99.9751 74.7021C99.9773 74.6509 99.979 74.6 99.981 74.549C99.9929 74.2353 100 73.9207 100 73.6042C100 73.2878 99.9925 72.9732 99.981 72.6595ZM75.113 95.4263C64.9465 95.4263 56.3818 88.4376 53.9695 79.0124H96.2564C93.8443 88.4376 85.2796 95.4263 75.113 95.4263ZM96.9271 74.1843C96.9265 74.207 96.9253 74.2294 96.9243 74.2521C96.9193 74.4248 96.9126 74.5974 96.9034 74.7703C96.9026 74.7843 96.9017 74.7982 96.9007 74.8125C96.8907 74.9935 96.8788 75.1746 96.8644 75.3554C96.8634 75.3677 96.862 75.38 96.861 75.3923C96.8464 75.5728 96.8296 75.7531 96.8103 75.933C96.8097 75.9376 96.8091 75.9423 96.8087 75.947H53.417C53.4166 75.9423 53.416 75.9376 53.4154 75.933C53.3963 75.7529 53.3795 75.5726 53.3648 75.3923C53.3639 75.38 53.3627 75.3677 53.3615 75.3554C53.3471 75.1746 53.3352 74.9935 53.3252 74.8125C53.3244 74.7984 53.3234 74.7845 53.3225 74.7703C53.3133 74.5976 53.3066 74.4248 53.3016 74.2521C53.301 74.2294 53.2996 74.207 53.2988 74.1843C53.2937 73.991 53.291 73.7976 53.291 73.6046C53.291 73.4117 53.2937 73.2185 53.2988 73.025C53.2994 73.0019 53.3008 72.9791 53.3016 72.9558C53.3066 72.7835 53.3133 72.6113 53.3225 72.4388C53.3232 72.4242 53.3244 72.4095 53.3254 72.3949C53.3353 72.2144 53.3473 72.0341 53.3617 71.8539C53.3627 71.8408 53.3643 71.8277 53.3652 71.8146C53.3799 71.6349 53.3967 71.4556 53.4156 71.2763C53.4162 71.2714 53.4168 71.2666 53.4172 71.2617H63.3603C64.207 71.2617 64.8929 70.5755 64.8929 69.7291C64.8929 68.8826 64.207 68.1964 63.3603 68.1964H53.9699C56.3818 58.7711 64.9465 51.7826 75.1132 51.7826C85.2798 51.7826 93.8445 58.7713 96.2566 68.1964H68.3923C67.5457 68.1964 66.8597 68.8826 66.8597 69.7291C66.8597 70.5755 67.5457 71.2617 68.3923 71.2617H96.8089C96.8095 71.2666 96.8101 71.2714 96.8105 71.2763C96.8296 71.4556 96.8462 71.6349 96.8608 71.8146C96.8618 71.8277 96.8634 71.8408 96.8644 71.8539C96.8788 72.0341 96.8907 72.2146 96.9005 72.3949C96.9013 72.4095 96.9025 72.4242 96.9034 72.4388C96.9126 72.6111 96.9193 72.7835 96.9243 72.9558C96.9249 72.9789 96.9263 73.0017 96.9271 73.025C96.9321 73.2183 96.9349 73.4117 96.9349 73.6046C96.9349 73.7974 96.9321 73.9908 96.9271 74.1843Z" fill="black"/>
<path d="M70.7809 7.90419C62.2522 -0.624313 48.3755 -0.624313 39.847 7.90419L37.3909 10.3602C36.7923 10.9589 36.7923 11.9292 37.3909 12.5276C37.9896 13.1262 38.9599 13.1262 39.5585 12.5276L42.0144 10.0716C49.3478 2.73838 61.2798 2.73857 68.6131 10.0716C75.9463 17.4048 75.9463 29.3368 68.6131 36.6704L50.9067 54.3768C52.7417 47.143 50.8358 39.1473 45.1866 33.4981C41.0554 29.3667 35.5624 27.0917 29.7197 27.0917C27.8771 27.0917 26.0693 27.3184 24.3281 27.7579L36.0011 16.0848C36.5997 15.4862 36.5997 14.5159 36.0011 13.9175C35.4025 13.3188 34.4322 13.3188 33.8337 13.9175L10.9842 36.7668L6.40585 41.345C6.37264 41.378 6.341 41.4118 6.30839 41.4451C6.21093 41.5438 6.11346 41.6428 6.01796 41.7432C5.98866 41.7739 5.96054 41.8051 5.93163 41.836C5.83163 41.9422 5.73222 42.0487 5.63475 42.1565C5.62401 42.1686 5.61327 42.1811 5.60253 42.193C1.98144 46.2135 0 51.3598 0 56.8113C0 62.2736 1.98925 67.4303 5.62421 71.4541C5.62733 71.4574 5.63007 71.4607 5.63319 71.464C5.74159 71.5838 5.85155 71.7021 5.96288 71.8199C5.98104 71.839 5.99862 71.8588 6.01679 71.8779C6.14491 72.0127 6.27479 72.1461 6.40682 72.2781C6.53885 72.4101 6.67245 72.5402 6.80721 72.6683C6.82499 72.6853 6.84315 72.7017 6.86112 72.7183C6.98007 72.831 7.09979 72.9424 7.22108 73.0519C7.22381 73.0541 7.22635 73.0564 7.22889 73.059C11.2533 76.6951 16.4105 78.6847 21.8738 78.6847C27.3371 78.6847 32.4943 76.6949 36.5187 73.059C36.5214 73.0566 36.524 73.0545 36.5265 73.0519C36.6474 72.9424 36.7673 72.831 36.8865 72.7183C36.9042 72.7015 36.9226 72.6853 36.9404 72.6683C37.0753 72.54 37.2087 72.4099 37.3407 72.2781L70.7813 38.8377C79.3092 30.3094 79.3092 16.4325 70.7809 7.90419ZM43.0202 62.2635L35.173 70.1107C34.9458 70.3379 34.714 70.558 34.4783 70.7713C34.4439 70.8023 34.4079 70.831 34.3734 70.8619C34.1675 71.0453 33.9599 71.2256 33.7482 71.3984C33.741 71.4043 33.7337 71.4095 33.7265 71.4154C26.8458 77.0086 16.9025 77.0088 10.0213 71.416C10.0138 71.4101 10.0062 71.4045 9.99881 71.3984C9.78709 71.226 9.57986 71.0455 9.37401 70.8625C9.33924 70.8316 9.3033 70.8027 9.26873 70.7715C9.03299 70.5584 8.80115 70.3383 8.57401 70.1109C2.21914 63.7557 1.37558 53.9484 6.03514 46.6721C6.08026 46.6018 6.12167 46.5297 6.16776 46.4598C6.26874 46.3069 6.37714 46.1576 6.483 46.0069C6.55741 45.9008 6.62792 45.793 6.70487 45.6883C6.82889 45.5194 6.96092 45.3545 7.09139 45.1889C7.15682 45.1059 7.21815 45.0209 7.28495 44.9387C7.40448 44.792 7.53202 44.6496 7.65663 44.5055C7.741 44.4082 7.82127 44.3084 7.90799 44.2127C8.01659 44.0926 8.13221 43.977 8.24412 43.859C8.35428 43.7434 8.46053 43.6254 8.5742 43.5117L16.4207 35.6657C19.9732 32.1133 24.6962 30.1569 29.7201 30.1569C34.7439 30.1569 39.4667 32.1133 43.0193 35.6659C50.3521 42.9987 50.3524 54.9303 43.0202 62.2635Z" fill="black"/>
</svg>
