<svg width="100" height="100" viewBox="0 0 100 100" fill="none" xmlns="http://www.w3.org/2000/svg">
<g clip-path="url(#clip0_1241_144)">
<path d="M93.181 0H29.5448C25.7856 0 22.7266 3.05902 22.7266 6.81819V15.9092C22.7266 19.6683 25.7856 22.7274 29.5448 22.7274V93.182C29.5448 96.9412 32.6038 100 36.3629 100H86.363C90.1222 100 93.1812 96.9412 93.1812 93.182V22.7274C96.9404 22.7274 99.9994 19.6683 99.9994 15.9092V6.81819C99.9992 3.05902 96.9402 0 93.181 0ZM88.6356 79.5454H81.8174C80.5629 79.5454 79.5446 78.525 79.5446 77.2726V63.6363C79.5446 62.3841 80.5629 61.3635 81.8174 61.3635H88.6356V79.5454ZM88.6356 47.7273H81.8174C80.5629 47.7273 79.5446 46.7069 79.5446 45.4545V40.9091C79.5446 39.6569 80.5629 38.6363 81.8174 38.6363H88.6356V47.7273ZM88.6356 34.0909H81.8174C78.0583 34.0909 74.9993 37.15 74.9993 40.9091V45.4545C74.9993 49.2137 78.0583 52.2727 81.8174 52.2727H88.6356V56.8181H81.8174C78.0583 56.8181 74.9993 59.8771 74.9993 63.6363V77.2726C74.9993 81.0318 78.0583 84.0908 81.8174 84.0908H88.6356V93.1818C88.6356 94.434 87.6174 95.4546 86.3628 95.4546H36.3629C35.1107 95.4546 34.0901 94.4342 34.0901 93.1818V84.0908H61.3629C65.122 84.0908 68.1811 81.0318 68.1811 77.2726V40.9091C68.1811 37.15 65.122 34.0909 61.3629 34.0909H34.0901V22.7274H88.6356V34.0909ZM56.0607 70.4547H34.0901V61.3637H40.9083C42.1629 61.3637 43.1811 60.3454 43.1811 59.0909C43.1811 57.8363 42.1629 56.8181 40.9083 56.8181H34.0901V47.5385H56.0607C57.3176 47.5385 58.3335 46.5203 58.3335 45.2657C58.3335 44.0112 57.3176 42.9929 56.0607 42.9929H34.0901V38.6361H61.3629C62.6174 38.6361 63.6357 39.6565 63.6357 40.9089V56.8181H49.9993C48.7448 56.8181 47.7265 57.8363 47.7265 59.0909C47.7265 60.3454 48.7448 61.3637 49.9993 61.3637H63.6357V77.2728C63.6357 78.525 62.6174 79.5457 61.3629 79.5457H34.0901V75H56.0607C57.3176 75 58.3335 73.9818 58.3335 72.7273C58.3335 71.4727 57.3174 70.4547 56.0607 70.4547ZM95.4538 11.3636V15.909C95.4538 17.1612 94.4356 18.1818 93.181 18.1818H90.9082H31.8173H29.5445C28.2923 18.1818 27.2717 17.1614 27.2717 15.909V11.3636V6.81819C27.2717 5.56598 28.2921 4.54539 29.5445 4.54539H93.181C94.4356 4.54539 95.4538 5.56598 95.4538 6.81819V11.3636Z" fill="black"/>
<path d="M29.5462 13.6354C30.8015 13.6354 31.819 12.6179 31.819 11.3626C31.819 10.1074 30.8015 9.08984 29.5462 9.08984C28.291 9.08984 27.2734 10.1074 27.2734 11.3626C27.2734 12.6179 28.291 13.6354 29.5462 13.6354Z" fill="black"/>
<path d="M38.6361 13.6354C39.8913 13.6354 40.9089 12.6179 40.9089 11.3626C40.9089 10.1074 39.8913 9.08984 38.6361 9.08984C37.3808 9.08984 36.3633 10.1074 36.3633 11.3626C36.3633 12.6179 37.3808 13.6354 38.6361 13.6354Z" fill="black"/>
<path d="M47.7279 13.6354C48.9831 13.6354 50.0007 12.6179 50.0007 11.3626C50.0007 10.1074 48.9831 9.08984 47.7279 9.08984C46.4726 9.08984 45.4551 10.1074 45.4551 11.3626C45.4551 12.6179 46.4726 13.6354 47.7279 13.6354Z" fill="black"/>
<path d="M56.8177 13.6354C58.073 13.6354 59.0905 12.6179 59.0905 11.3626C59.0905 10.1074 58.073 9.08984 56.8177 9.08984C55.5625 9.08984 54.5449 10.1074 54.5449 11.3626C54.5449 12.6179 55.5625 13.6354 56.8177 13.6354Z" fill="black"/>
<path d="M65.9095 13.6354C67.1648 13.6354 68.1823 12.6179 68.1823 11.3626C68.1823 10.1074 67.1648 9.08984 65.9095 9.08984C64.6543 9.08984 63.6367 10.1074 63.6367 11.3626C63.6367 12.6179 64.6543 13.6354 65.9095 13.6354Z" fill="black"/>
<path d="M74.9994 13.6354C76.2546 13.6354 77.2722 12.6179 77.2722 11.3626C77.2722 10.1074 76.2546 9.08984 74.9994 9.08984C73.7441 9.08984 72.7266 10.1074 72.7266 11.3626C72.7266 12.6179 73.7441 13.6354 74.9994 13.6354Z" fill="black"/>
<path d="M84.0912 13.6354C85.3464 13.6354 86.364 12.6179 86.364 11.3626C86.364 10.1074 85.3464 9.08984 84.0912 9.08984C82.8359 9.08984 81.8184 10.1074 81.8184 11.3626C81.8184 12.6179 82.8359 13.6354 84.0912 13.6354Z" fill="black"/>
<path d="M93.181 13.6354C94.4362 13.6354 95.4538 12.6179 95.4538 11.3626C95.4538 10.1074 94.4362 9.08984 93.181 9.08984C91.9258 9.08984 90.9082 10.1074 90.9082 11.3626C90.9082 12.6179 91.9258 13.6354 93.181 13.6354Z" fill="black"/>
<path d="M19.5931 79.036L16.284 75.7268L11.8726 71.3131C9.24312 68.6836 4.6613 68.6858 2.03842 71.3131C0.722728 72.6269 0 74.3723 0 76.2314C0 78.0883 0.722728 79.8337 2.03629 81.1473L6.45 85.561L9.7613 88.8702C11.0749 90.1861 12.8203 90.9088 14.6772 90.9088C16.5341 90.9088 18.2796 90.1861 19.5931 88.8725C20.9067 87.5589 21.6294 85.8111 21.6294 83.9542C21.6296 82.095 20.9069 80.3496 19.5931 79.036ZM8.05675 80.7405L5.25 77.9338C4.79553 77.4793 4.54539 76.8746 4.54539 76.2316C4.54539 75.5885 4.79532 74.9839 5.25213 74.527C5.70661 74.0726 6.3113 73.8203 6.95434 73.8203C7.59738 73.8203 8.20207 74.0702 8.65654 74.527L11.4633 77.3338L8.05675 80.7405ZM16.3796 85.6564C15.4705 86.5677 13.8818 86.5656 12.975 85.6564L11.2705 83.9542L12.9727 82.2497L14.6749 80.5475L16.3771 82.252C16.8315 82.7065 17.0838 83.3112 17.0838 83.9542C17.0864 84.5973 16.8364 85.202 16.3796 85.6564Z" fill="black"/>
<path d="M18.1818 44.3999C13.8433 41.8976 8.27049 43.3863 5.76374 47.7272C3.25912 52.0703 4.75231 57.6408 9.09102 60.1476C10.5205 60.9726 12.0795 61.3635 13.6228 61.3635C16.766 61.3635 19.8297 59.7316 21.5114 56.8181C24.016 52.4771 22.525 46.9066 18.1818 44.3999ZM17.5728 54.5453C16.966 55.5977 15.9865 56.3498 14.8138 56.6635C13.6366 56.9771 12.4138 56.8179 11.3638 56.209C9.91389 55.3727 9.11829 53.8499 9.11147 52.2862L10.532 53.1067C10.8889 53.3136 11.282 53.4112 11.6662 53.4112C12.4526 53.4088 13.2162 53.0021 13.6366 52.2725C14.2639 51.1861 13.8912 49.7952 12.8048 49.1679L11.3706 48.3406C12.0616 47.9428 12.8478 47.7293 13.6456 47.7293C14.416 47.7293 15.1978 47.9247 15.9115 48.3385C18.0819 49.5909 18.8274 52.3748 17.5728 54.5453Z" fill="black"/>
<path d="M18.2908 22.6674L14.7795 16.9855C14.3636 16.315 13.634 15.9082 12.8454 15.9082H5.81824C5.02967 15.9082 4.30013 16.315 3.88422 16.9855L0.370508 22.6674C-0.081836 23.3993 -0.081836 24.3242 0.370508 25.0582L3.88422 30.7401C4.30013 31.4106 5.02967 31.8174 5.81824 31.8174H12.8454C13.634 31.8174 14.3636 31.4106 14.7795 30.7401L18.2908 25.0582C18.7432 24.3265 18.7432 23.4016 18.2908 22.6674ZM11.5773 27.272H7.08642L4.97726 23.8629L7.08642 20.4538H11.5796L13.6864 23.8629L11.5773 27.272Z" fill="black"/>
</g>
<defs>
<clipPath id="clip0_1241_144">
<rect width="100" height="100" fill="white"/>
</clipPath>
</defs>
</svg>
