<svg width="100" height="100" viewBox="0 0 100 100" fill="none" xmlns="http://www.w3.org/2000/svg">
<path d="M76.6016 16.0937C76.6016 17.0312 75.8203 17.8125 74.8438 17.8125H26.7188C25.7422 17.8125 24.9609 17.0312 24.9609 16.0937V3.63281C24.9609 2.69531 25.7422 1.91406 26.7188 1.91406H74.8438C75.8203 1.91406 76.6016 2.69531 76.6016 3.63281V16.0937V16.0937ZM72.6953 4.14062H70.3125V15.5469H72.6953V4.14062ZM62.0703 4.14062H59.6875V15.5469H62.0703V4.14062ZM67.3828 4.14062H65V15.5469H67.3828V4.14062Z" fill="black"/>
<path d="M72.6953 21.0156V95.7812C72.6953 97.5781 71.2109 99.0625 69.3359 99.0625H32.2266C30.3516 99.0625 28.8281 97.5781 28.8281 95.7812V21.0156H72.6953ZM68.3984 25.8594H33.2031V74.2578H68.3984V25.8594ZM59.7656 70.5078L56.0547 63.75L52.3437 70.5078H48.9062L54.375 60.625L47.8125 48.6719C47.4609 48.7109 47.1484 48.75 46.7969 48.75H42.4609V61.5234H37.5V30.625H47.3047C53.2422 30.625 55.8203 34.3359 55.8203 39.6094C55.8203 43.0859 54.5313 45.7812 52.1875 47.3437L56.9141 56.0156L60.5078 49.4922H63.9453L58.6328 59.1406L64.8437 70.5078H59.7656ZM50.8984 39.7266C50.8984 36.4062 49.5703 34.375 45.625 34.375H42.4609V45.0781H45.9766C48.5937 45.0391 50.8984 43.5937 50.8984 39.7266Z" fill="black"/>
</svg>
