<svg width="100" height="100" viewBox="0 0 100 100" fill="none" xmlns="http://www.w3.org/2000/svg">
<path d="M20.3708 80C20.4413 80.2642 20.5973 80.4977 20.8143 80.6641C21.0313 80.8305 21.2973 80.9204 21.5708 80.92C21.6836 80.9347 21.7979 80.9347 21.9108 80.92C22.229 80.829 22.4986 80.6165 22.6614 80.3283C22.8242 80.0401 22.8671 79.6995 22.7808 79.38C22.5656 78.4011 22.5632 77.3874 22.7737 76.4075C22.9842 75.4275 23.4026 74.5042 24.0008 73.7C25.8308 71.31 29.5308 69.91 34.7408 69.61C34.2656 71.2689 33.9311 72.9649 33.7408 74.68L29.8108 78.62C29.2311 79.1978 28.7713 79.8844 28.4575 80.6403C28.1437 81.3962 27.9822 82.2066 27.9822 83.025C27.9822 83.8434 28.1437 84.6538 28.4575 85.4097C28.7713 86.1656 29.2311 86.8522 29.8108 87.43L30.3208 87.94C30.4347 88.0581 30.5714 88.1518 30.7227 88.2155C30.874 88.2791 31.0367 88.3112 31.2008 88.31C31.4477 88.3077 31.6884 88.2329 31.8932 88.0949C32.0979 87.957 32.2576 87.7619 32.3524 87.5339C32.4473 87.3059 32.473 87.0551 32.4265 86.8126C32.38 86.5702 32.2632 86.3467 32.0908 86.17L31.5808 85.66C31.2325 85.3142 30.956 84.9029 30.7674 84.4498C30.5787 83.9967 30.4816 83.5108 30.4816 83.02C30.4816 82.5292 30.5787 82.0433 30.7674 81.5902C30.956 81.1371 31.2325 80.7258 31.5808 80.38L35.0008 77C35.1874 76.9883 35.3688 76.9336 35.5308 76.84L39.3808 80.69C40.0794 81.391 40.4716 82.3403 40.4716 83.33C40.4716 84.3197 40.0794 85.269 39.3808 85.97C39.2644 86.0861 39.172 86.2241 39.109 86.3759C39.046 86.5278 39.0135 86.6906 39.0135 86.855C39.0135 87.0194 39.046 87.1822 39.109 87.3341C39.172 87.4859 39.2644 87.6239 39.3808 87.74C39.6178 87.9703 39.9353 88.0991 40.2658 88.0991C40.5963 88.0991 40.9137 87.9703 41.1508 87.74C42.3171 86.5687 42.9719 84.983 42.9719 83.33C42.9719 81.677 42.3171 80.0913 41.1508 78.92L36.3608 74.14C36.5337 72.8078 36.8078 71.4906 37.1808 70.2C40.7988 73.4292 45.4813 75.2096 50.3308 75.2V75.2C55.5353 75.2015 60.5302 73.1496 64.2308 69.49H64.7408C65.3123 71.3422 65.6877 73.2493 65.8608 75.18C64.5906 75.5488 63.5 76.371 62.7957 77.4905C62.0915 78.6101 61.8226 79.9491 62.0401 81.2538C62.2575 82.5584 62.9463 83.7378 63.9756 84.5684C65.005 85.3989 66.3033 85.8228 67.6244 85.7596C68.9455 85.6965 70.1976 85.1507 71.143 84.2257C72.0884 83.3007 72.6614 82.061 72.7535 80.7416C72.8455 79.4221 72.4501 78.1148 71.6423 77.0676C70.8344 76.0203 69.6703 75.306 68.3708 75.06C68.2021 73.2334 67.8674 71.4259 67.3708 69.66C71.7808 70.13 74.9608 71.46 76.6108 73.66C77.2134 74.4659 77.6353 75.3922 77.8475 76.3758C78.0598 77.3595 78.0575 78.3773 77.8408 79.36C77.7914 79.5201 77.7747 79.6884 77.7917 79.855C77.8087 80.0217 77.859 80.1832 77.9396 80.33C78.0203 80.4768 78.1296 80.6059 78.2611 80.7096C78.3926 80.8134 78.5436 80.8896 78.7051 80.9339C78.8667 80.9781 79.0354 80.9895 79.2015 80.9672C79.3675 80.9449 79.5273 80.8895 79.6715 80.8043C79.8156 80.719 79.9412 80.6057 80.0407 80.4709C80.1403 80.3362 80.2117 80.1829 80.2508 80.02C80.5629 78.6715 80.5788 77.2713 80.2974 75.9161C80.016 74.5608 79.444 73.2827 78.6208 72.17C76.3708 69.17 72.3108 67.52 66.5308 67.17C65.9252 65.4645 65.1017 63.8444 64.0808 62.35C67.3466 58.6144 69.635 54.1271 70.7408 49.29C70.8108 49.07 70.8908 48.84 70.9508 48.6C73.6308 48.14 75.6908 45.47 75.6908 42.24C75.6908 39.01 73.6908 36.46 71.1408 35.91C69.5808 24.32 67.8108 14.5 50.3008 14.5C32.7908 14.5 31.0008 24.3 29.4808 35.89C28.12 36.2747 26.9296 37.1088 26.1034 38.2564C25.2772 39.404 24.8639 40.7975 24.9308 42.21C24.9308 45.43 26.9908 48.1 29.6708 48.57C29.7308 48.81 29.8108 49.04 29.8808 49.26C31.0582 54.5251 33.6555 59.367 37.3908 63.26C36.6624 64.4886 36.0465 65.7805 35.5508 67.12C29.0008 67.29 24.4308 69 22.0008 72.19C21.1814 73.297 20.6115 74.5683 20.3301 75.9164C20.0488 77.2646 20.0626 78.6577 20.3708 80V80ZM70.2508 80.42C70.2527 80.9999 70.0826 81.5674 69.7618 82.0505C69.4411 82.5337 68.9842 82.9108 68.449 83.1341C67.9138 83.3574 67.3243 83.4168 66.7553 83.3049C66.1863 83.193 65.6633 82.9147 65.2525 82.5054C64.8417 82.096 64.5617 81.5739 64.4478 81.0053C64.3339 80.4367 64.3914 79.847 64.6129 79.3111C64.8343 78.7751 65.2099 78.3169 65.6919 77.9945C66.174 77.6721 66.7408 77.5 67.3208 77.5C67.7081 77.5 68.0915 77.5767 68.449 77.7259C68.8065 77.875 69.1308 78.0935 69.4033 78.3688C69.6757 78.644 69.8909 78.9706 70.0364 79.3295C70.1819 79.6885 70.2547 80.0727 70.2508 80.46V80.42ZM50.3108 17C63.3908 17 66.4108 22.78 68.0008 31.44C65.7608 30.44 63.0008 31.63 59.8808 32.96L58.0008 33.74C58.8474 32.3771 59.3143 30.8127 59.3531 29.2087C59.3919 27.6047 59.0013 26.0195 58.2216 24.6172C57.4419 23.215 56.3015 22.0466 54.9185 21.2332C53.5355 20.4198 51.9602 19.9909 50.3558 19.9909C48.7513 19.9909 47.176 20.4198 45.793 21.2332C44.4101 22.0466 43.2697 23.215 42.49 24.6172C41.7102 26.0195 41.3196 27.6047 41.3584 29.2087C41.3972 30.8127 41.8641 32.3771 42.7108 33.74L40.7908 33C37.6508 31.67 34.9208 30.51 32.6808 31.48C34.2208 22.78 37.2308 17 50.3108 17ZM50.3108 35.52C49.0188 35.52 47.7559 35.1368 46.6819 34.4188C45.6078 33.7008 44.7708 32.6804 44.2769 31.4866C43.7829 30.2928 43.6542 28.9793 43.907 27.7124C44.1597 26.4454 44.7827 25.2819 45.6969 24.3691C46.6111 23.4562 47.7756 22.8351 49.043 22.5843C50.3103 22.3334 51.6236 22.4642 52.8166 22.9599C54.0096 23.4557 55.0288 24.2942 55.7451 25.3694C56.4614 26.4446 56.8427 27.7081 56.8408 29C56.8276 30.7241 56.1341 32.3733 54.9112 33.5887C53.6883 34.8041 52.0349 35.4874 50.3108 35.49V35.52ZM27.4308 42.21C27.3915 41.4717 27.5576 40.7369 27.9106 40.0873C28.2637 39.4377 28.7899 38.8986 29.4308 38.53C29.5259 38.6823 29.6529 38.8122 29.8031 38.9106C29.9533 39.009 30.1231 39.0737 30.3008 39.1H30.4708H30.6508H30.8608L31.0508 39.01C31.1277 38.9692 31.2013 38.9224 31.2708 38.87C31.3026 38.845 31.3297 38.8145 31.3508 38.78C31.5497 38.5993 31.6803 38.3557 31.7208 38.09C32.0408 35.77 32.6408 34.35 33.4908 33.87C34.7308 33.17 37.0808 34.17 39.8108 35.32C42.9008 36.63 46.4108 38.12 50.3008 38.12C54.1908 38.12 57.7108 36.63 60.8008 35.32C63.5308 34.17 65.8808 33.17 67.1208 33.87C67.9708 34.35 68.5708 35.77 68.8908 38.09C68.9416 38.4138 69.1175 38.7047 69.3808 38.9V38.9C69.4924 38.9816 69.6177 39.0425 69.7508 39.08C69.794 39.0846 69.8376 39.0846 69.8808 39.08C69.954 39.0857 70.0275 39.0857 70.1008 39.08H70.2808C70.4593 39.0525 70.6296 38.9864 70.7799 38.8862C70.9302 38.786 71.0567 38.6542 71.1508 38.5C71.7932 38.8694 72.3205 39.41 72.6736 40.0616C73.0268 40.7132 73.192 41.45 73.1508 42.19C73.1818 42.8933 73.0316 43.5928 72.7147 44.2214C72.3978 44.85 71.9247 45.3867 71.3408 45.78C71.367 45.458 71.2675 45.1384 71.0632 44.8882C70.8589 44.6379 70.5657 44.4765 70.245 44.4377C69.9243 44.3989 69.601 44.4858 69.343 44.6801C69.0849 44.8744 68.9121 45.1611 68.8608 45.48C68.7108 46.58 68.4908 47.65 68.2408 48.7C68.052 49.3601 67.6425 49.9354 67.0808 50.33C65.8408 51.03 63.4908 50.04 60.7608 48.88C57.6708 47.57 54.1608 46.09 50.2608 46.09C46.3608 46.09 42.8608 47.57 39.7708 48.88C37.0408 50.04 34.6908 51.03 33.4508 50.33C32.889 49.9354 32.4795 49.3601 32.2908 48.7C32.0408 47.7 31.8208 46.58 31.6708 45.48C31.626 45.1503 31.4526 44.8517 31.1884 44.6493C30.9242 44.447 30.5908 44.3574 30.2608 44.4C29.9395 44.4449 29.6483 44.6129 29.4486 44.8686C29.249 45.1242 29.1565 45.4474 29.1908 45.77C28.6192 45.375 28.1576 44.8408 27.8497 44.2179C27.5418 43.5951 27.3976 42.904 27.4308 42.21V42.21ZM33.7108 53C35.7108 53.32 38.1208 52.32 40.7908 51.19C43.6708 49.97 46.9208 48.59 50.3108 48.59C53.7008 48.59 57.0008 50 59.8308 51.21C62.1708 52.21 64.2808 53.08 66.1308 53.08C66.3952 53.0803 66.6594 53.0602 66.9208 53.02C63.6608 61.08 57.2908 66.55 50.3108 66.55C43.3308 66.55 37.0008 61.08 33.7108 53ZM50.3108 69C54.7845 68.9054 59.0626 67.1478 62.3108 64.07C62.8866 65.0043 63.385 65.9843 63.8008 67H63.7008C63.5331 67.0008 63.3672 67.0348 63.2128 67.1C63.0583 67.1652 62.9183 67.2604 62.8008 67.38C61.2054 69.0505 59.2909 70.3838 57.1707 71.3008C55.0506 72.2178 52.7679 72.7 50.4581 72.7186C48.1482 72.7373 45.858 72.2921 43.7234 71.4094C41.5887 70.5267 39.6529 69.2245 38.0308 67.58C38.3984 66.663 38.8191 65.7681 39.2908 64.9C42.3774 67.5097 46.2694 68.9754 50.3108 69.05V69Z" fill="black"/>
<path d="M57.0502 44.8601C57.4769 44.8781 57.8991 44.768 58.2627 44.5441C58.6262 44.3201 58.9145 43.9925 59.0903 43.6034C59.2662 43.2143 59.3216 42.7814 59.2495 42.3606C59.1773 41.9397 58.981 41.55 58.6856 41.2417C58.3902 40.9333 58.0093 40.7204 57.5919 40.6302C57.1745 40.5401 56.7397 40.5769 56.3434 40.7359C55.9471 40.8949 55.6075 41.1688 55.3681 41.5224C55.1287 41.876 55.0006 42.2931 55.0002 42.7201C54.9921 43.2747 55.2027 43.8101 55.5863 44.2106C55.97 44.6111 56.4959 44.8444 57.0502 44.8601V44.8601Z" fill="black"/>
<path d="M43.5704 44.8592C43.9961 44.8712 44.4155 44.7559 44.7753 44.5281C45.135 44.3003 45.4186 43.9704 45.5898 43.5806C45.761 43.1908 45.8121 42.7587 45.7364 42.3397C45.6607 41.9207 45.4618 41.5339 45.165 41.2285C44.8683 40.9232 44.4872 40.7134 44.0705 40.6258C43.6538 40.5383 43.2205 40.577 42.826 40.737C42.4314 40.8971 42.0936 41.1712 41.8557 41.5243C41.6178 41.8774 41.4906 42.2935 41.4905 42.7192C41.4865 42.9963 41.5371 43.2715 41.6395 43.529C41.7419 43.7865 41.894 44.0214 42.0872 44.2201C42.2803 44.4188 42.5107 44.5775 42.7652 44.6872C43.0197 44.7969 43.2934 44.8553 43.5704 44.8592V44.8592Z" fill="black"/>
<path d="M47.9096 55.3394L49.4996 54.6594C49.7547 54.5464 50.0306 54.488 50.3096 54.488C50.5886 54.488 50.8645 54.5464 51.1196 54.6594L52.7096 55.3394C52.8672 55.4091 53.0372 55.4465 53.2096 55.4494C53.4986 55.4517 53.7795 55.3539 54.0044 55.1725C54.2294 54.9911 54.3846 54.7373 54.4435 54.4544C54.5024 54.1714 54.4615 53.8768 54.3277 53.6207C54.1939 53.3645 53.9755 53.1626 53.7096 53.0494L52.1196 52.3594C51.5487 52.1171 50.9348 51.9922 50.3146 51.9922C49.6944 51.9922 49.0805 52.1171 48.5096 52.3594L46.9196 53.0494C46.6164 53.1812 46.3777 53.4278 46.2559 53.7352C46.1341 54.0425 46.139 54.3856 46.2696 54.6894C46.3338 54.8404 46.4273 54.9771 46.5448 55.0917C46.6622 55.2063 46.8013 55.2965 46.9538 55.3569C47.1064 55.4174 47.2694 55.447 47.4335 55.444C47.5975 55.4409 47.7594 55.4054 47.9096 55.3394V55.3394Z" fill="black"/>
<path d="M50.3098 25C49.5582 25 48.8235 25.2229 48.1986 25.6404C47.5737 26.058 47.0866 26.6514 46.799 27.3458C46.5114 28.0402 46.4362 28.8042 46.5828 29.5413C46.7294 30.2785 47.0913 30.9556 47.6228 31.487C48.1542 32.0184 48.8313 32.3804 49.5684 32.527C50.3056 32.6736 51.0696 32.5984 51.764 32.3107C52.4583 32.0231 53.0518 31.5361 53.4694 30.9112C53.8869 30.2863 54.1098 29.5516 54.1098 28.8C54.1098 27.7922 53.7094 26.8256 52.9968 26.113C52.2841 25.4004 51.3176 25 50.3098 25ZM50.3098 30.09C50.0522 30.09 49.8005 30.0135 49.5865 29.8702C49.3725 29.7269 49.2059 29.5233 49.1078 29.2852C49.0097 29.047 48.9845 28.7851 49.0355 28.5327C49.0865 28.2802 49.2113 28.0486 49.3941 27.8672C49.5769 27.6858 49.8095 27.5628 50.0623 27.5138C50.3152 27.4647 50.5769 27.4919 50.8142 27.5919C51.0516 27.6918 51.2539 27.86 51.3956 28.0751C51.5372 28.2901 51.6117 28.5425 51.6098 28.8C51.6085 28.9694 51.5738 29.1369 51.5078 29.2929C51.4417 29.4489 51.3456 29.5904 51.2249 29.7092C51.1042 29.8281 50.9612 29.922 50.8042 29.9856C50.6472 30.0493 50.4792 30.0813 50.3098 30.08V30.09Z" fill="black"/>
<path d="M76.2996 57.2492C76.2869 57.1697 76.2634 57.0923 76.2296 57.0192C76.199 56.943 76.1622 56.8694 76.1196 56.7992C76.0718 56.7314 76.0183 56.6678 75.9596 56.6092C75.9034 56.5508 75.8394 56.5004 75.7696 56.4592C75.702 56.4095 75.628 56.3692 75.5496 56.3392L75.3196 56.2692C75.1178 56.2302 74.9096 56.2407 74.7128 56.3C74.5159 56.3592 74.3364 56.4653 74.1896 56.6092C74.1313 56.6655 74.0809 56.7294 74.0396 56.7992C73.99 56.8668 73.9496 56.9408 73.9196 57.0192C73.8904 57.0939 73.867 57.1708 73.8496 57.2492C73.8392 57.3322 73.8392 57.4162 73.8496 57.4992C73.8549 57.8292 73.9874 58.1445 74.2196 58.3792C74.3957 58.5511 74.6183 58.6676 74.8599 58.7145C75.1014 58.7614 75.3514 58.7365 75.579 58.6429C75.8066 58.5493 76.0018 58.3911 76.1405 58.1879C76.2793 57.9846 76.3554 57.7452 76.3596 57.4992C76.3505 57.4136 76.3303 57.3296 76.2996 57.2492V57.2492Z" fill="black"/>
<path d="M74.8297 61.82L74.5997 61.89C74.5213 61.92 74.4473 61.9603 74.3797 62.01C74.3099 62.0512 74.246 62.1017 74.1897 62.16C74.0188 62.3368 73.9025 62.5591 73.8546 62.8003C73.8067 63.0414 73.8293 63.2913 73.9197 63.52C73.9785 63.6748 74.0707 63.8148 74.1897 63.93C74.3051 64.0476 74.4428 64.141 74.5948 64.2048C74.7467 64.2686 74.9099 64.3014 75.0747 64.3014C75.2395 64.3014 75.4026 64.2686 75.5546 64.2048C75.7065 64.141 75.8442 64.0476 75.9597 63.93C76.0786 63.8148 76.1708 63.6748 76.2297 63.52C76.333 63.2966 76.3664 63.0471 76.3253 62.8044C76.2843 62.5616 76.1708 62.337 75.9997 62.16C75.8504 62.0074 75.6643 61.8959 75.4593 61.8364C75.2543 61.7768 75.0375 61.7712 74.8297 61.82V61.82Z" fill="black"/>
<path d="M77.8509 61.5199C78.0151 61.5217 78.1779 61.4898 78.3293 61.4262C78.4806 61.3625 78.6173 61.2685 78.7309 61.1499C78.8494 61.0361 78.9445 60.9002 79.0109 60.7499C79.0714 60.5972 79.102 60.4342 79.1009 60.2699C79.1105 60.1902 79.1105 60.1096 79.1009 60.0299C79.0868 59.9475 79.0634 59.8669 79.0309 59.7899C79.0003 59.7169 78.9635 59.6466 78.9209 59.5799C78.8757 59.5102 78.8219 59.4463 78.7609 59.3899C78.6176 59.2333 78.437 59.1154 78.236 59.0472C78.0349 58.979 77.8199 58.9628 77.6109 58.9999C77.5282 59.0175 77.4477 59.0443 77.3709 59.0799L77.1609 59.1899C77.025 59.2856 76.9066 59.404 76.8109 59.5399C76.7683 59.6066 76.7315 59.6769 76.7009 59.7499C76.6653 59.8267 76.6385 59.9072 76.6209 59.9899C76.6159 60.0698 76.6159 60.15 76.6209 60.2299C76.6203 60.3939 76.6527 60.5564 76.7163 60.7076C76.7798 60.8588 76.8732 60.9956 76.9909 61.1099C77.1047 61.2284 77.2406 61.3235 77.3909 61.3899C77.5347 61.4617 77.6908 61.5058 77.8509 61.5199V61.5199Z" fill="black"/>
<path d="M71.4201 59.3903C71.3591 59.4467 71.3054 59.5105 71.2601 59.5803C71.2175 59.647 71.1807 59.7173 71.1501 59.7903C71.1146 59.867 71.0877 59.9475 71.0701 60.0303C71.0652 60.1102 71.0652 60.1904 71.0701 60.2703C71.0727 60.601 71.2053 60.9174 71.4391 61.1513C71.673 61.3851 71.9894 61.5177 72.3201 61.5203C72.4844 61.5214 72.6474 61.4908 72.8001 61.4303C72.9522 61.3617 73.091 61.267 73.2101 61.1503C73.4398 60.9149 73.5683 60.5991 73.5683 60.2703C73.5683 59.9414 73.4398 59.6256 73.2101 59.3903C72.9697 59.1587 72.6489 59.0293 72.3151 59.0293C71.9813 59.0293 71.6605 59.1587 71.4201 59.3903V59.3903Z" fill="black"/>
<path d="M23.4102 28.85C23.5744 28.8519 23.7372 28.82 23.8885 28.7563C24.0399 28.6927 24.1766 28.5986 24.2902 28.48C24.4091 28.3648 24.5013 28.2248 24.5602 28.07C24.6277 27.9227 24.6619 27.7622 24.6602 27.6C24.661 27.4345 24.6287 27.2705 24.5652 27.1176C24.5016 26.9648 24.4081 26.8262 24.2902 26.71C24.0513 26.4872 23.7368 26.3633 23.4102 26.3633C23.0835 26.3633 22.769 26.4872 22.5302 26.71C22.4122 26.8262 22.3187 26.9648 22.2552 27.1176C22.1916 27.2705 22.1593 27.4345 22.1602 27.6C22.1595 27.7641 22.192 27.9265 22.2555 28.0777C22.3191 28.2289 22.4125 28.3658 22.5302 28.48C22.6437 28.5986 22.7804 28.6927 22.9318 28.7563C23.0832 28.82 23.246 28.8519 23.4102 28.85V28.85Z" fill="black"/>
<path d="M22.2498 33.6191C22.316 33.77 22.4073 33.9086 22.5198 34.0291C22.6367 34.1459 22.7762 34.2378 22.9298 34.2991C23.0819 34.3628 23.2448 34.3967 23.4098 34.3991C23.5738 34.3997 23.7362 34.3673 23.8874 34.3037C24.0386 34.2401 24.1755 34.1467 24.2898 34.0291C24.4087 33.9138 24.5009 33.7739 24.5598 33.6191C24.6273 33.4717 24.6615 33.3112 24.6598 33.1491C24.6618 32.9834 24.63 32.819 24.5664 32.666C24.5028 32.513 24.4086 32.3745 24.2898 32.2591C24.2356 32.1984 24.1713 32.1477 24.0998 32.1091C24.0356 32.0596 23.9649 32.0192 23.8898 31.9891L23.6498 31.9191C23.4878 31.889 23.3217 31.889 23.1598 31.9191L22.9298 31.9891C22.8546 32.0192 22.7839 32.0596 22.7198 32.1091C22.6471 32.1505 22.5799 32.2009 22.5198 32.2591C22.3489 32.4359 22.2325 32.6582 22.1847 32.8993C22.1368 33.1405 22.1594 33.3904 22.2498 33.6191Z" fill="black"/>
<path d="M25.2997 31.2496C25.414 31.3673 25.5508 31.4607 25.702 31.5243C25.8532 31.5878 26.0157 31.6203 26.1797 31.6196C26.344 31.6207 26.5069 31.5901 26.6597 31.5296C26.8117 31.4611 26.9505 31.3663 27.0697 31.2496C27.1851 31.1342 27.2763 30.9969 27.3382 30.8458C27.4 30.6947 27.4311 30.5329 27.4297 30.3696C27.4303 30.0403 27.3009 29.7241 27.0697 29.4896L26.8797 29.3296L26.6597 29.2196C26.5866 29.1859 26.5092 29.1623 26.4297 29.1496C26.2689 29.109 26.1005 29.109 25.9397 29.1496C25.8602 29.1623 25.7828 29.1859 25.7097 29.2196L25.4897 29.3296L25.2997 29.4896C25.0657 29.7231 24.9328 30.0391 24.9297 30.3696C24.932 30.5345 24.966 30.6975 25.0297 30.8496C25.0887 31.0015 25.1809 31.1381 25.2997 31.2496Z" fill="black"/>
<path d="M20.3909 29.1506C20.3114 29.1633 20.234 29.1869 20.1609 29.2206L19.9409 29.3306L19.7509 29.4906C19.5169 29.7241 19.384 30.0401 19.3809 30.3706C19.3832 30.5355 19.4171 30.6985 19.4809 30.8506C19.5398 31.0025 19.6321 31.1391 19.7509 31.2506C19.8683 31.3694 20.0075 31.4645 20.1609 31.5306C20.3104 31.5901 20.4699 31.6207 20.6309 31.6206C20.7964 31.6215 20.9604 31.5892 21.1133 31.5256C21.2661 31.4621 21.4047 31.3686 21.5209 31.2506C21.6396 31.1391 21.7319 31.0025 21.7909 30.8506C21.8546 30.6985 21.8885 30.5355 21.8909 30.3706C21.8877 30.0401 21.7548 29.7241 21.5209 29.4906C21.3756 29.3445 21.1962 29.2369 20.9989 29.1776C20.8016 29.1182 20.5926 29.109 20.3909 29.1506Z" fill="black"/>
</svg>
