<svg width="100" height="100" viewBox="0 0 100 100" fill="none" xmlns="http://www.w3.org/2000/svg">
<path d="M94.1406 1.5625H5.46875V71.0938H53.2031L58.3984 84.6094C59.8828 88.6719 63.3594 91.4453 67.3047 92.1875L69.7266 99.5703H90.1563L85.3125 85.625C87.8516 82.5 88.75 78.0859 87.2656 74.0625L85.9375 71.0938H94.1406V1.5625ZM89.8438 66.7969H83.7109L78.6719 53.0078C78.0859 51.5234 76.6016 50.4297 74.8828 50.4297C72.6172 50.4297 70.8203 52.2656 70.8203 54.4922C70.8203 55.4297 71.8359 57.9297 72.0312 58.4766L75.0781 66.7969H9.76562V5.46875H89.8438V66.7969Z" fill="black"/>
<path d="M29.6484 30.0781H46.0938V34.7656H31.4844C30.625 34.7656 29.9609 35.4687 29.9609 36.3281C29.9609 37.1875 30.6641 37.8906 31.4844 37.8906H46.0938V42.5781H31.9922C31.4063 42.5781 30.5469 43.1641 30.5469 44.1016C30.5469 52.3438 31.2891 56.25 35.625 56.25C40.3125 56.25 41.0156 46.25 46.0938 45.8594V55.0781H53.9062V45.8984C58.5938 46.5234 59.5312 56.2891 64.0234 56.2891C68.3594 56.2891 69.375 52.3438 69.375 44.1016C69.375 43.1641 68.4766 42.5781 67.8906 42.5781H53.9062V37.8906H68.4375C69.2969 37.8906 69.9609 37.1875 69.9609 36.3281C69.9609 35.4687 69.2578 34.7656 68.4375 34.7656H53.9062V30.0781H70.3516C71.2109 30.0781 71.875 29.375 71.875 28.5156C71.875 27.6562 71.1719 26.9531 70.3516 26.9531H53.9062V22.2656H69.3359C70.1953 22.2656 70.8594 21.5625 70.8594 20.7031C70.8594 19.8437 70.1562 19.1406 69.3359 19.1406H53.9062V14.0625H65.8984C66.7578 14.0625 67.4219 13.3594 67.4219 12.5C67.4219 11.6406 66.7187 10.9375 65.8984 10.9375H53.9062V8.59375H46.0938V10.9375H34.0234C33.1641 10.9375 32.5 11.6406 32.5 12.5C32.5 13.3594 33.1641 14.0625 34.0234 14.0625H46.0938V19.1406H30.6641C29.8047 19.1406 29.1406 19.8437 29.1406 20.7031C29.1406 21.5625 29.8438 22.2656 30.6641 22.2656H46.0938V26.9531H29.6484C28.7891 26.9531 28.125 27.6562 28.125 28.5156C28.125 29.375 28.7891 30.0781 29.6484 30.0781Z" fill="black"/>
</svg>
