<svg width="100" height="100" viewBox="0 0 100 100" fill="none" xmlns="http://www.w3.org/2000/svg">
<path d="M76.3672 76.2109C75.8594 76.0156 75.2734 75.8984 74.6875 75.8984C71.9922 75.8984 69.8047 78.0859 69.8047 80.7812C69.8047 83.4766 71.9922 85.6641 74.6875 85.6641C77.3828 85.6641 79.5703 83.4766 79.5703 80.7812C79.5703 79.9609 79.375 79.1797 78.9844 78.4766C78.4375 77.4609 77.5 76.6406 76.3672 76.2109Z" fill="black"/>
<path d="M50.1953 48.8281C62.0608 48.8281 71.6797 39.2092 71.6797 27.3438C71.6797 15.4783 62.0608 5.85938 50.1953 5.85938C38.3298 5.85938 28.7109 15.4783 28.7109 27.3438C28.7109 39.2092 38.3298 48.8281 50.1953 48.8281Z" fill="black"/>
<path d="M97.5009 73.8672C96.0165 70.5859 92.9306 68.0859 89.9228 65.8594C88.7118 64.9609 87.4618 64.1016 86.2118 63.3203C85.8603 64.7266 85.4696 66.1328 85.0009 67.4609C83.9853 70.3125 82.6962 73.0078 81.1728 75.4687C82.3837 76.9141 83.1259 78.7891 83.1259 80.8203C83.1259 83.2812 82.0321 85.5469 80.3134 87.0703C78.829 88.3984 76.8759 89.1797 74.7665 89.1797C74.5712 89.1797 74.3368 89.1797 74.1415 89.1797C69.8056 88.8672 66.3681 85.2734 66.3681 80.8594C66.3681 76.25 70.1181 72.5 74.7274 72.5C76.0556 72.5 77.3056 72.8125 78.3993 73.3594C79.9618 70.8594 81.1728 68.0859 82.1103 65.1172C82.4618 63.9844 82.7743 62.7734 83.0868 61.5625C81.7978 60.8594 80.5478 60.1953 79.3759 59.6094L78.4774 59.1406C77.1493 58.4766 75.8212 57.7734 74.4931 57.1484C74.454 57.1484 74.454 57.1094 74.4149 57.1094C73.0087 56.4453 71.5634 55.8594 70.1181 55.4297C69.8837 55.3516 69.6103 55.2344 69.3759 55.1562C69.3759 55.1562 69.3368 55.1953 69.3368 55.2344C68.9071 55.8984 60.8603 67.0313 58.9853 69.375C58.3603 70.1953 57.0712 71.6016 56.2899 72.6562V54.6875H44.5712V72.8906C43.7899 71.8359 42.4618 70.3906 41.8368 69.6094C39.8837 67.1094 31.6806 55.7812 31.2118 55.0781C31.2118 55.0391 31.1727 55.0391 31.1337 55C30.8993 55.0781 30.6259 55.1953 30.3915 55.2734C28.9071 55.7031 27.4618 56.3281 26.0556 56.9531C26.0556 56.9531 26.0165 56.9531 25.9774 56.9922C24.6493 57.6172 23.3212 58.3203 21.9931 58.9844L21.1337 59.4531C20.5087 59.7656 19.9227 60.0781 19.2977 60.3906C19.7665 61.4063 20.2352 62.4219 20.7821 63.4375C21.2118 64.3359 21.7196 65.2344 22.2274 66.1328C22.6962 66.0547 23.204 66.0156 23.7118 66.0156C29.3368 66.0156 34.9618 71.0547 37.4228 78.2031C37.5009 78.4375 37.579 78.6328 37.6571 78.8672C37.8915 79.5703 38.1649 80.2734 38.3212 81.0938C38.4384 81.6406 38.4774 82.1484 38.4774 82.6172C38.4774 84.0625 37.9306 85 36.8368 85.4297C36.5243 86.2109 35.8993 86.7578 35.079 87.0313C34.7665 87.1484 34.454 87.1875 34.1415 87.1875C32.8915 87.1875 31.7977 86.4062 31.4071 85.2344C30.8993 83.7109 31.7196 82.0703 33.204 81.5625C33.7118 81.3672 34.2977 81.3281 34.8056 81.4844C34.6884 81.0156 34.5321 80.5469 34.3368 80.0391V80C34.2587 79.7656 34.1806 79.5313 34.1024 79.2969C32.1493 73.5937 27.8134 69.4531 23.7509 69.4531C23.204 69.4531 22.6962 69.5312 22.1884 69.6875C17.9696 71.3281 16.3681 78.0078 18.5946 84.6094C18.6727 84.8438 18.7509 85.1172 18.829 85.3516C18.9462 85.7813 19.0634 86.1719 19.2196 86.5234C19.2977 86.7188 19.3759 86.875 19.454 87.0313C19.4931 87.1484 19.5712 87.2656 19.6102 87.3438C19.6102 87.3828 19.6493 87.4219 19.6884 87.4609C20.0009 86.2109 21.1727 85.2734 22.5009 85.2734C24.1024 85.2734 25.3915 86.6016 25.3915 88.2031C25.3915 88.3984 25.3915 88.5937 25.3524 88.75C25.3524 88.75 25.3524 88.75 25.3915 88.75C25.1962 89.7656 24.4931 90.625 23.4384 90.9766C22.6962 91.2109 21.8759 91.1719 21.1727 90.7812C20.8212 90.8984 20.6259 90.9375 20.2352 91.0156L20.1571 91.0547C19.9227 91.0938 19.6884 91.1328 19.454 91.1328C17.6571 91.1328 16.6415 89.1406 16.329 88.4766C15.9774 87.7344 15.7431 86.9922 15.5087 86.2891C15.4306 86.0547 15.3524 85.8594 15.2743 85.625C15.079 85.1172 14.9227 84.5703 14.8056 84.0234C13.0868 77.4609 14.6102 70.8594 18.6337 67.6953C18.2431 67.0313 17.8915 66.3672 17.5399 65.7031C16.954 64.5703 16.3681 63.3984 15.8602 62.2656C14.0634 63.3203 12.2274 64.4531 10.5477 65.7422C7.50087 67.9688 4.454 70.4688 2.96962 73.75C1.6415 76.6406 1.79775 80.1172 1.87587 83.4375L1.91494 84.4531C1.91494 84.8047 1.954 94.0234 1.954 99.4922H98.5556C98.5556 94.0234 98.5556 84.8437 98.5556 84.4531L98.5946 83.4375C98.6728 80.2344 98.7899 76.7969 97.5009 73.8672Z" fill="black"/>
</svg>
