<svg width="100" height="101" viewBox="0 0 100 101" fill="none" xmlns="http://www.w3.org/2000/svg">
<g clip-path="url(#clip0_1241_227)">
<path d="M97.935 61.4125C96.1763 59.7977 93.4444 59.9135 91.836 61.6753L84.1598 70.0462L74.3525 61.0495L84.2756 50.2377C85.8903 48.4759 85.7745 45.744 84.0127 44.1324L83.0395 43.2469C81.2808 41.6321 78.5489 41.7479 76.9373 43.5066L75.6825 44.8741L40.3495 12.4576C39.3826 11.5783 38.0338 11.2435 36.7759 11.6033L22.1339 15.7027L9.49773 4.10553C7.19143 1.99951 3.60838 2.14033 1.48984 4.45288C-0.625567 6.75605 -0.469102 10.3422 1.83719 12.4608L14.6267 24.1925C14.683 24.2457 14.7518 24.2614 14.8144 24.3052L11.6663 38.9034C11.3816 40.2146 11.8197 41.5758 12.8054 42.4833L48.1321 74.8904L46.8804 76.261C45.2657 78.0197 45.3846 80.7609 47.1432 82.3663L48.1133 83.2519C48.9582 84.0279 50.0754 84.4347 51.2207 84.3847C52.3598 84.3283 53.4425 83.8277 54.2186 82.989L64.1354 72.1804L73.9395 81.1771L66.2695 89.5418C65.4997 90.3898 65.0867 91.5038 65.1399 92.646C65.1962 93.7882 65.7 94.8678 66.5387 95.6439L67.1927 96.2447C68.9514 97.8595 71.6926 97.7437 73.2948 95.9819L98.8612 68.1217C99.6373 67.2736 100.05 66.1596 99.994 65.0143C99.9409 63.8721 99.4402 62.7925 98.5984 62.0195L97.935 61.4125ZM22.6439 23.8201C22.7816 23.6699 22.8317 23.4822 22.9443 23.3226L36.7915 19.4485L70.2375 50.1313L52.9074 69.0198L44.33 61.1465L50.4415 54.4842C51.1456 53.7206 51.0987 52.5221 50.3257 51.8149C49.5653 51.1108 48.3668 51.1609 47.6565 51.9307L41.5481 58.5898L38.763 56.0426L44.8682 49.3834C45.5786 48.6167 45.5223 47.4213 44.7587 46.7172C43.9983 46.0163 42.8029 46.0632 42.0926 46.833L35.981 53.4891L33.1959 50.9387L39.3043 44.2795C40.0116 43.5128 39.9615 42.3175 39.1886 41.6134C38.4281 40.9124 37.2327 40.9625 36.5193 41.7291L30.414 48.3883L27.6258 45.8317L33.7373 39.1756C34.4414 38.4058 34.3882 37.2104 33.6215 36.5032C32.8611 35.8022 31.6626 35.8523 30.9554 36.619L24.8438 43.2781L19.5115 38.3839L22.6439 23.8201Z" fill="black"/>
</g>
<defs>
<clipPath id="clip0_1241_227">
<rect width="100" height="100.003" fill="white"/>
</clipPath>
</defs>
</svg>
