<svg width="100" height="100" viewBox="0 0 100 100" fill="none" xmlns="http://www.w3.org/2000/svg">
<g clip-path="url(#clip0_1241_245)">
<path d="M98.9356 24.2513L75.7558 1.07142C74.3324 -0.351932 72.0273 -0.351932 70.6071 1.07142C69.1806 2.49477 69.1806 4.7967 70.6071 6.2232L79.6196 15.2357L70.8622 23.9931L62.5929 15.7206C61.7143 14.842 60.5208 14.3445 59.2738 14.3445C58.0268 14.3445 56.8365 14.8389 55.9516 15.7206L16.9606 54.7148C14.4099 57.2687 13.1849 60.8585 13.6478 64.4358L15.5687 79.2866L1.06751 93.7846C-0.355838 95.2111 -0.355838 97.513 1.06751 98.9364C1.77919 99.6512 2.70815 100.001 3.64026 100.001C4.57236 100.001 5.50447 99.6481 6.2193 98.9364L20.9441 84.2116L35.6531 86.2774C39.2808 86.7875 42.9336 85.5562 45.519 82.9615L84.2896 44.0428C86.116 42.2101 86.1129 39.2437 84.2833 37.4142L76.0077 29.1386L84.7619 20.3812L93.7744 29.3968C94.4892 30.1116 95.4213 30.4674 96.3534 30.4674C97.2824 30.4674 98.2145 30.1116 98.9293 29.3999C100.356 27.9766 100.356 25.6746 98.9356 24.2513ZM23.2019 74.6796C22.1596 75.7219 20.4749 75.7219 19.4357 74.6796C18.3934 73.6404 18.3934 71.9557 19.4357 70.9165C20.4749 69.8773 22.1596 69.8773 23.2019 70.9165C24.2411 71.9588 24.2411 73.6404 23.2019 74.6796ZM37.1016 54.1449L26.5525 64.694C25.8408 65.4089 24.9087 65.7616 23.9797 65.7616C23.0476 65.7616 22.1155 65.4089 21.4038 64.694C19.9805 63.2707 19.9805 60.9656 21.4038 59.5454L31.953 48.9962C33.3732 47.5729 35.6814 47.5729 37.1016 48.9962C38.5281 50.4196 38.5281 52.7247 37.1016 54.1449ZM38.7139 43.2619L39.4949 42.4809L42.7163 45.7024C43.069 46.0582 43.5351 46.2314 44.0011 46.2314C44.4703 46.2314 44.9332 46.055 45.2891 45.7024C46.0008 44.9875 46.0008 43.8381 45.2891 43.1233L42.0739 39.905L43.8626 38.1164L47.084 41.3378C47.4399 41.6937 47.9028 41.8669 48.3688 41.8669C48.8349 41.8669 49.3009 41.6905 49.6568 41.3378C50.3684 40.6261 50.3684 39.4736 49.6568 38.7619L46.4385 35.5405L48.2271 33.7519L51.4454 36.9701C51.8012 37.326 52.2673 37.5055 52.7333 37.5055C53.1994 37.5055 53.6654 37.326 54.0213 36.9701C54.733 36.2616 54.733 35.1059 54.0213 34.3974L50.7998 31.176L52.5916 29.3842L55.8068 32.6025C56.1626 32.9583 56.6318 33.1378 57.0947 33.1378C57.5639 33.1378 58.0237 32.9583 58.3827 32.6025C59.0943 31.8908 59.0943 30.7414 58.3827 30.0297L55.1644 26.8146L57.2648 24.7142C58.3764 23.6026 60.165 23.6026 61.2735 24.7142L65.7104 29.1512L45.2198 49.6418L38.7139 43.2619ZM75.2929 38.7273C75.825 39.2595 76.1242 39.9806 76.1242 40.7332C76.1273 41.4858 75.825 42.207 75.2929 42.7391L56.9215 61.1105L50.4157 54.7337L70.8559 34.2935L75.2929 38.7273Z" fill="black"/>
</g>
<defs>
<clipPath id="clip0_1241_245">
<rect width="100" height="100" fill="white"/>
</clipPath>
</defs>
</svg>
