<svg width="100" height="101" viewBox="0 0 100 101" fill="none" xmlns="http://www.w3.org/2000/svg">
<g clip-path="url(#clip0_1241_263)">
<path d="M63.2574 31.6816H37.7668L23.8247 38.6433C21.1069 40.0007 19.3906 42.7778 19.3906 45.814V89.3251C19.3906 92.2302 21.2067 94.8201 23.9371 95.8062C28.8985 97.5973 37.6919 100.003 49.2 100.003C60.9608 100.003 70.5467 97.4912 75.9201 95.6876C78.7253 94.7453 80.6132 92.1116 80.6163 89.1504V45.6861C80.6163 42.7154 78.9719 39.9882 76.3476 38.5996L63.2574 31.6816ZM23.469 45.0027C23.469 43.4206 24.3927 41.9759 25.828 41.3081L39.4143 34.955C41.4613 34.0064 43.889 34.8801 44.8439 36.9208C45.7956 38.9616 44.9125 41.3893 42.8718 42.3441L31.6351 47.5989V73.4921C31.6351 75.745 29.8035 77.5736 27.5536 77.5736C25.3007 77.5736 23.4721 75.745 23.4721 73.4921L23.469 45.0027ZM28.2464 90.1458C25.8062 90.1458 23.8279 88.1705 23.8279 85.7273C23.8279 83.284 25.8031 81.3087 28.2464 81.3087C30.6865 81.3087 32.6618 83.284 32.6618 85.7273C32.6618 88.1705 30.6865 90.1458 28.2464 90.1458ZM61.7596 82.7878C61.7596 84.4042 60.4491 85.7148 58.8327 85.7148H41.1649C39.5485 85.7148 38.2379 84.4042 38.2379 82.7878V57.7371C38.2379 56.1176 39.5485 54.8102 41.1649 54.8102H58.8327C60.4491 54.8102 61.7596 56.1207 61.7596 57.7371V82.7878Z" fill="black"/>
<path d="M76.5314 0H73.411C70.0753 0.580398 69.6884 2.38088 69.6884 2.38088C69.5105 0.798827 67.0298 0.193466 64.9703 0H60.5019C57.1693 0.580398 56.7792 2.38088 56.7792 2.38088C56.6013 0.798827 54.1268 0.193466 52.0674 0H47.5989C44.2663 0.580398 43.8794 2.38088 43.8794 2.38088C43.7015 0.798827 41.2239 0.193466 39.1644 0H34.6991C31.3634 0.580398 30.9734 2.38088 30.9734 2.38088C30.8017 0.798827 28.3179 0.193466 26.2646 0H23.4688V22.4327C23.4688 24.9633 25.522 27.0197 28.0526 27.0197H71.9475C74.4813 27.0197 76.5314 24.9665 76.5314 22.4358V0V0ZM34.7428 18.0891C34.7428 20.342 32.9111 22.1706 30.6582 22.1706C28.4084 22.1706 26.5767 20.342 26.5767 18.0891V11.0307C26.5767 8.77773 28.4084 6.94917 30.6582 6.94917C32.9111 6.94917 34.7428 8.77773 34.7428 11.0307V18.0891Z" fill="black"/>
</g>
<defs>
<clipPath id="clip0_1241_263">
<rect width="100" height="100.003" fill="white"/>
</clipPath>
</defs>
</svg>
