<svg width="100" height="100" viewBox="0 0 100 100" fill="none" xmlns="http://www.w3.org/2000/svg">
<path d="M92.548 30.3572C84.3618 22.171 71.9472 20.7337 62.2612 26.0454C59.6991 11.1311 46.6386 0.0078125 31.3701 0.0078125C14.1228 0.0078125 0.0833854 14.0056 0 31.2113C0 31.2322 0 31.2322 0 31.2529C0 31.2738 0 31.2738 0 31.2738C0 31.2738 0 31.3363 0 31.3779C0 46.6671 11.1233 59.7069 26.0375 62.269C19.2886 74.6212 23.8295 90.1187 36.1818 96.8677C46.0969 102.283 58.3868 100.534 66.4062 92.5559L92.548 66.414C102.484 56.4574 102.484 40.3349 92.548 30.3572ZM31.3492 4.17376C44.9512 4.17376 56.5328 14.3181 58.3034 27.7742C58.345 28.0241 58.4284 28.2741 58.5533 28.4825C58.1368 28.8158 57.741 29.1908 57.3451 29.5448C57.0118 29.3157 56.6369 29.1699 56.2203 29.149H4.27023C5.39506 15.1929 17.1014 4.17376 31.3492 4.17376ZM4.27023 33.336H53.4916L30.3287 56.4781C29.6829 57.1446 29.058 57.832 28.4748 58.5612C28.2665 58.4571 28.0374 58.3737 27.8291 58.3321C14.9977 56.6656 5.18669 46.084 4.27023 33.336ZM63.4485 89.5979C55.0332 97.8466 41.5353 97.7217 33.2866 89.3271C25.142 81.0368 25.142 67.747 33.2866 59.4567L44.8889 47.8544L65.1773 68.1431L75.0508 78.0165L63.4485 89.5979ZM89.5901 63.477L77.9878 75.0793L68.1144 65.2058L47.8259 44.9174L59.4282 33.3151C67.7603 24.983 81.2582 24.983 89.5901 33.3151C97.9222 41.6472 97.9222 55.1451 89.5901 63.477Z" fill="black"/>
</svg>
