<svg width="100" height="100" viewBox="0 0 100 100" fill="none" xmlns="http://www.w3.org/2000/svg">
<path d="M77.85 2.73438H22.5408C17.3414 2.74022 12.3566 4.80826 8.68011 8.48479C5.00357 12.1613 2.93553 17.1461 2.92969 22.3455V77.6547C2.93558 82.8541 5.00365 87.8388 8.68018 91.5153C12.3567 95.1918 17.3415 97.2598 22.5408 97.2656H77.85C83.0493 97.2597 88.034 95.1917 91.7105 91.5152C95.387 87.8387 97.455 82.854 97.4609 77.6547V22.3455C97.4551 17.1461 95.3871 12.1614 91.7106 8.48486C88.0341 4.80833 83.0494 2.74027 77.85 2.73438V2.73438ZM95.1172 77.6547C95.112 82.2326 93.2911 86.6216 90.054 89.8587C86.8169 93.0958 82.4279 94.9167 77.85 94.9219H22.5408C17.9628 94.9167 13.5739 93.0958 10.3367 89.8587C7.09958 86.6216 5.27866 82.2327 5.27344 77.6547V22.3455C5.27861 17.7675 7.0995 13.3785 10.3366 10.1413C13.5738 6.90419 17.9628 5.08329 22.5408 5.07812H77.85C82.428 5.08335 86.8169 6.90427 90.054 10.1414C93.2911 13.3785 95.112 17.7675 95.1172 22.3455V77.6547Z" fill="black"/>
<path d="M60.8904 43.6117C60.1563 42.876 59.717 41.7535 59.6852 40.5229L59.634 39.0143C60.0749 38.7704 60.4425 38.413 60.6985 37.9791C60.9546 37.5452 61.0899 37.0507 61.0902 36.5469V33.0957C61.0894 32.3485 60.7922 31.6321 60.2638 31.1037C59.7355 30.5754 59.0191 30.2782 58.2719 30.2773H54.4926V21.1602C54.4926 19.917 53.9987 18.7247 53.1196 17.8456C52.2406 16.9665 51.0483 16.4727 49.8051 16.4727C48.5619 16.4727 47.3696 16.9665 46.4905 17.8456C45.6114 18.7247 45.1176 19.917 45.1176 21.1602V30.2773H41.4848C40.7375 30.2782 40.0212 30.5754 39.4928 31.1037C38.9644 31.6321 38.6672 32.3485 38.6664 33.0957V36.5469C38.667 37.0487 38.8014 37.5413 39.0558 37.9739C39.3102 38.4065 39.6754 38.7634 40.1137 39.0078L40.002 40.6906C39.969 41.7522 39.568 42.7692 38.8676 43.5676L38.2346 44.2398C35.2492 47.4121 33.5371 52.0266 33.5371 56.9004V74.7928C33.5371 79.6092 36.7641 83.5273 40.7305 83.5273H59.2695C63.2361 83.5273 66.4629 79.6092 66.4629 74.7928V57.1602C66.4629 52.1109 64.6465 47.3889 61.4797 44.2055L60.8904 43.6117ZM47.4613 21.1602C47.4613 20.5386 47.7083 19.9424 48.1478 19.5029C48.5873 19.0633 49.1835 18.8164 49.8051 18.8164C50.4267 18.8164 51.0228 19.0633 51.4624 19.5029C51.9019 19.9424 52.1488 20.5386 52.1488 21.1602V30.2773H47.4613V21.1602ZM41.0102 33.0957C41.0103 32.9699 41.0604 32.8492 41.1493 32.7603C41.2383 32.6713 41.3589 32.6213 41.4848 32.6211H58.2719C58.3977 32.6213 58.5183 32.6713 58.6073 32.7603C58.6963 32.8492 58.7463 32.9699 58.7465 33.0957V36.5469C58.7465 36.6729 58.6966 36.7939 58.6077 36.8832C58.5187 36.9726 58.3979 37.023 58.2719 37.0234H41.4848C41.3587 37.023 41.2379 36.9726 41.1489 36.8833C41.06 36.7939 41.0101 36.673 41.0102 36.5469V33.0957ZM48.8285 39.3672H50.7816V73.5039C50.7816 73.7629 50.6788 74.0113 50.4956 74.1944C50.3125 74.3776 50.0641 74.4805 49.8051 74.4805C49.5461 74.4805 49.2977 74.3776 49.1145 74.1944C48.9314 74.0113 48.8285 73.7629 48.8285 73.5039V39.3672ZM64.1195 74.7928C64.1195 78.3166 61.9439 81.1836 59.2699 81.1836H40.7309C38.0568 81.1836 35.8813 78.3166 35.8813 74.7928V56.9004C35.8813 52.6172 37.3613 48.5881 39.9414 45.8457L40.5752 45.1729C41.6573 43.9781 42.2829 42.4396 42.3416 40.8287L42.4393 39.3664H46.4848V73.5039C46.4848 74.3845 46.8346 75.229 47.4573 75.8517C48.0799 76.4744 48.9245 76.8242 49.8051 76.8242C50.6857 76.8242 51.5302 76.4744 52.1529 75.8517C52.7756 75.229 53.1254 74.3845 53.1254 73.5039V39.3672H57.301L57.3426 40.5928C57.3895 42.4076 58.0777 44.1113 59.2295 45.2652L59.818 45.8578C62.5523 48.6059 64.1195 52.7256 64.1195 57.1602V74.7928Z" fill="black"/>
</svg>
