<svg width="100" height="100" viewBox="0 0 100 100" fill="none" xmlns="http://www.w3.org/2000/svg">
<g clip-path="url(#clip0_1241_305)">
<path d="M51.6406 39.375C54.6875 38.3984 57.9297 40.0781 58.9063 43.125C59.8828 46.1719 58.2031 49.4141 55.1562 50.3906L39.4531 55.4297C37.6172 56.0156 35.625 55.6641 34.1406 54.4922L27.6172 49.4141L41.7578 100.234H0.585938V35.625C0.585938 31.7969 3.67188 28.7109 7.5 28.7109H17.8125C19.2969 28.7109 20.625 29.1797 21.7578 30.0391C21.7578 30.0391 35.1953 40.5469 38.9062 43.4375L51.6406 39.375ZM21.7969 59.8437H17.3047V55.3125H11.875V59.8437H7.38281V65.2344H11.875V69.7266H17.2656V65.2344H21.7969V59.8437V59.8437ZM13.9844 25.625C20.8594 25.625 26.4062 20.0781 26.4062 13.2031C26.4062 6.32812 20.8594 0.78125 13.9844 0.78125C7.10937 0.78125 1.5625 6.32812 1.5625 13.2031C1.5625 20.0781 7.10937 25.625 13.9844 25.625ZM87.1094 25.6641C93.9844 25.6641 99.5313 20.0781 99.5313 13.2422C99.5313 6.36719 93.9453 0.78125 87.1094 0.78125C80.2344 0.78125 74.6484 6.36719 74.6484 13.2422C74.6484 20.1172 80.2344 25.6641 87.1094 25.6641ZM83.3203 29.0234C78.2422 29.0234 75.9375 30.7813 73.9844 33.7891L72.7344 36.2109L65.4688 34.1016L65.7812 32.1094L48.4375 28.2031L47.9688 30.3516L44.7266 29.6094L45.1953 27.4219L43.9063 27.1484L42.4219 33.7891L43.7109 34.0625L44.2187 31.875L47.4609 32.6172L46.9922 34.8047L64.375 38.7109L64.9219 36.6797L71.9531 37.8125L53.75 72.6562C52.3438 75.4687 53.4766 78.8672 56.2891 80.2734C59.1016 81.6797 62.5 80.5469 63.9063 77.7344L79.0234 48.3984H81.4844V100.195H99.2969V29.0234H83.3203Z" fill="black"/>
</g>
<defs>
<clipPath id="clip0_1241_305">
<rect width="100" height="100" fill="white"/>
</clipPath>
</defs>
</svg>
