<svg width="100" height="100" viewBox="0 0 100 100" fill="none" xmlns="http://www.w3.org/2000/svg">
<path d="M20.568 46.4853V27.0503C20.568 12.1345 32.7028 0 47.6185 0C62.5345 0 74.6698 12.1345 74.6698 27.0503V46.4853C74.6698 53.2001 69.207 58.6627 62.4924 58.6627C61.2072 58.6627 60.1657 57.6211 60.1657 56.336C60.1657 55.0509 61.2072 54.0093 62.4924 54.0093C66.6411 54.0093 70.0164 50.6338 70.0164 46.4853V27.0503C70.0164 14.7004 59.9689 4.65341 47.6188 4.65341C35.2686 4.65341 25.2214 14.7004 25.2214 27.0503V46.4853C25.2214 50.634 28.5966 54.0093 32.7454 54.0093C34.0305 54.0093 35.0721 55.0509 35.0721 56.336C35.0721 57.6211 34.0305 58.6627 32.7454 58.6627C26.0308 58.6627 20.568 53.1999 20.568 46.4853ZM39.6591 31.4465C38.6793 31.963 37.6664 32.4971 36.6845 33.0493C34.6293 34.2049 32.658 35.5689 32.155 37.7076C31.7142 39.5819 32.5978 41.2065 33.4171 42.4125C35.2888 45.1676 40.3703 51.5771 47.1196 51.588C49.2045 51.5846 51.2688 50.922 53.8137 49.4389C59.8898 45.8974 63.6642 39.1644 63.6642 31.8673C63.6642 28.8212 63.1741 26.0102 62.2077 23.5129C61.7439 22.3141 60.396 21.719 59.198 22.1826C57.9995 22.6463 57.4041 23.9938 57.8676 25.1923C58.6261 27.1519 59.0106 29.3979 59.0106 31.8673C59.0106 37.515 56.1213 42.7077 51.4705 45.4183C49.6745 46.4648 48.3305 46.9322 47.1193 46.9343C43.4253 46.9284 39.6071 43.2436 37.266 39.7975C36.8415 39.1724 36.7306 38.8679 36.7016 38.7549C36.8016 38.5982 37.2347 38.0781 38.9644 37.1053C39.8918 36.5838 40.8765 36.065 41.8289 35.5627C47.1322 32.7667 52.6163 29.8757 53.5674 24.1248C54.4179 18.9802 52.5865 15.8562 50.9005 14.1415C48.1847 11.3794 43.7975 10.2158 38.8618 10.9456C37.5907 11.1341 36.7127 12.3171 36.9012 13.5882C37.0896 14.8596 38.2734 15.735 39.5438 15.5491C42.9912 15.0375 45.921 15.7148 47.5826 17.4043C48.9344 18.7788 49.4031 20.7847 48.9765 23.3661C48.4026 26.837 44.1553 29.0761 39.6591 31.4465ZM53.2357 94.996H41.1029L23.3616 72.7739C29.897 71.0656 40.8899 67.2273 44.0951 60.2095C44.6289 59.0407 44.1142 57.6602 42.9452 57.1263C41.7764 56.5925 40.3961 57.1074 39.8623 58.276C37.4565 63.5436 27.0344 67.3742 18.8211 69.0592C18.6489 69.0908 18.4796 69.1422 18.316 69.2138C18.0099 69.3469 17.742 69.5419 17.5251 69.7802C17.345 69.9775 17.2041 70.2003 17.1035 70.4374C16.9445 70.811 16.8814 71.2295 16.9388 71.6561C16.9629 71.8376 17.0086 72.0172 17.0764 72.1912C17.1697 72.4322 17.301 72.6509 17.4616 72.8422L38.1651 98.7746C38.4311 99.1078 38.7698 99.3485 39.1405 99.492C39.3127 99.559 39.4949 99.6058 39.6842 99.6301C39.7837 99.6432 39.8843 99.6494 39.9848 99.6494C39.998 99.6494 40.0115 99.6494 40.0247 99.6492H53.2357C54.5208 99.6492 55.5624 98.6076 55.5624 97.3225C55.5624 96.0374 54.5208 94.996 53.2357 94.996ZM57.1427 66.6821C57.8757 67.1707 58.6828 67.6554 59.5413 68.1231C59.8947 68.3154 60.2763 68.407 60.6522 68.407C61.4766 68.407 62.2755 67.9677 62.6976 67.1927C63.3121 66.064 62.8957 64.6511 61.7669 64.0364C61.0291 63.6346 60.3414 63.2223 59.7228 62.8097C57.529 61.3485 56.0582 59.8232 55.352 58.2765C54.8181 57.108 53.4384 56.5925 52.2688 57.1268C51.1 57.6607 50.5851 59.0409 51.1192 60.21C52.191 62.5561 54.2178 64.7336 57.1427 66.6821ZM83.0811 85.1729C83.0811 88.935 80.0205 91.9956 76.2587 91.9956H75.0767V93.1776C75.0767 96.9396 72.0161 100 68.2541 100C64.492 100 61.4314 96.9396 61.4314 93.1776V91.9956H60.2497C56.4876 91.9956 53.4273 88.935 53.4273 85.1729C53.4273 81.4109 56.4876 78.3503 60.2497 78.3503H61.4314V77.1686C61.4314 73.4065 64.492 70.3459 68.2541 70.3459C72.0161 70.3459 75.0767 73.4065 75.0767 77.1686V78.3503H76.2587C80.0205 78.3503 83.0811 81.4109 83.0811 85.1729ZM78.4277 85.1729C78.4277 83.9768 77.4546 83.0037 76.2587 83.0037H72.75C71.4649 83.0037 70.4233 81.9621 70.4233 80.677V77.1686C70.4233 75.9724 69.4502 74.9993 68.2541 74.9993C67.0579 74.9993 66.0848 75.9724 66.0848 77.1686V80.677C66.0848 81.9621 65.0432 83.0037 63.7581 83.0037H60.2497C59.0537 83.0037 58.0807 83.9768 58.0807 85.1729C58.0807 86.3691 59.0537 87.3422 60.2497 87.3422H63.7581C65.0432 87.3422 66.0848 88.3838 66.0848 89.6689V93.1776C66.0848 94.3735 67.0579 95.3466 68.2541 95.3466C69.4502 95.3466 70.4233 94.3735 70.4233 93.1776V89.6689C70.4233 88.3838 71.4649 87.3422 72.75 87.3422H76.2587C77.4549 87.3422 78.4277 86.3691 78.4277 85.1729Z" fill="black"/>
</svg>
