<svg width="100" height="100" viewBox="0 0 100 100" fill="none" xmlns="http://www.w3.org/2000/svg">
<g clip-path="url(#clip0_1241_420)">
<path d="M58.9873 39.6976C58.9873 37.7993 58.7031 35.9698 58.189 34.2376C57.7125 30.8505 56.6384 27.4493 55.0346 24.3323C47.3736 9.46266 36.108 0 36.108 0C36.108 0 35.9477 8.0239 29.775 15.1785C18.3385 28.4264 20.636 41.7712 20.636 41.7712L20.6381 41.7733C21.6735 51.419 29.8351 58.9331 39.7552 58.9331C50.3759 58.9312 58.9873 50.3217 58.9873 39.6976ZM30.1501 25.8087C29.9119 25.9599 24.5786 29.4819 25.3125 40.9729C25.3469 41.5445 24.9155 42.039 24.3407 42.0766C24.3185 42.0766 24.2973 42.0782 24.2748 42.0782C23.7291 42.0782 23.2744 41.6539 23.2389 41.1059C22.4194 28.255 28.7908 24.2041 29.063 24.0383C29.5501 23.7348 30.1919 23.8924 30.4933 24.3837C30.7892 24.8705 30.6377 25.5073 30.1501 25.8087Z" fill="black"/>
<path d="M79.5544 64.6657C79.5544 63.5363 79.3854 62.4528 79.079 61.4211C78.7945 59.4065 78.1585 57.3866 77.2042 55.5341C72.6517 46.6971 65.9574 41.0742 65.9574 41.0742C65.9574 41.0742 65.8618 45.8421 62.1902 50.0943C55.394 57.9672 56.7609 65.896 56.7609 65.896V65.9003C57.3754 71.6309 62.2275 76.0953 68.1216 76.0953C74.4372 76.0942 79.5544 70.9773 79.5544 64.6657ZM62.4175 56.4111C62.2763 56.5012 59.1079 58.5944 59.5431 65.4225C59.5632 65.7644 59.3053 66.0581 58.9636 66.0785C58.9519 66.0785 58.9371 66.0785 58.9252 66.0785C58.6004 66.0785 58.3297 65.8272 58.3075 65.5001C57.8225 57.8652 61.6096 55.4565 61.7698 55.358C62.0607 55.1784 62.4418 55.2698 62.6211 55.5609C62.7954 55.8528 62.7062 56.2326 62.4175 56.4111Z" fill="black"/>
<path d="M63.0343 89.8968C62.8388 88.5126 62.4005 87.1233 61.7423 85.8485C58.6092 79.7643 54.0023 75.8945 54.0023 75.8945C54.0023 75.8945 53.9377 79.1776 51.4114 82.1038C46.7325 87.5212 47.673 92.9793 47.673 92.9793V92.9814C48.0971 96.9269 51.4371 99.9996 55.4925 99.9996C59.8358 99.9996 63.3588 96.4766 63.3588 92.1357C63.3609 91.3551 63.2433 90.6079 63.0343 89.8968ZM51.5674 86.4514C51.4699 86.5139 49.2882 87.9545 49.5878 92.6543C49.6015 92.8879 49.4254 93.0898 49.1907 93.1054C49.1823 93.1054 49.1711 93.1054 49.1632 93.1054C48.9386 93.1054 48.754 92.9303 48.7386 92.7052C48.4049 87.4523 51.0101 85.7932 51.1227 85.7262C51.3221 85.5998 51.5833 85.6655 51.7054 85.8642C51.8275 86.067 51.765 86.3271 51.5674 86.4514Z" fill="black"/>
</g>
<defs>
<clipPath id="clip0_1241_420">
<rect width="100" height="100" fill="white"/>
</clipPath>
</defs>
</svg>
