<svg width="100" height="100" viewBox="0 0 100 100" fill="none" xmlns="http://www.w3.org/2000/svg">
<path d="M77.6953 87.9687C77.6953 90.5469 75.5859 92.6172 73.0469 92.6172C70.4688 92.6172 68.3984 90.5469 68.3984 87.9687V83.9063H77.7344V87.9687H77.6953ZM65.3906 83.9063H34.4531V99.0625H47.7344V92.5391H52.1875V99.0625H65.4297V83.9063H65.3906ZM31.3672 83.9063H22.0313V87.9687C22.0313 90.5469 24.1406 92.6172 26.6797 92.6172C29.2578 92.6172 31.3281 90.5469 31.3281 87.9687V83.9063H31.3672ZM49.8828 0.78125C43.2422 0.78125 37.8516 6.17187 37.8516 12.8125C37.8516 19.4531 43.2422 24.8437 49.8828 24.8437C56.5234 24.8437 61.9141 19.4531 61.9141 12.8125C61.9141 6.17187 56.5234 0.78125 49.8828 0.78125ZM84.1406 39.1797H15.625V79.2188H84.1406V39.1797ZM73.4375 75.9375H26.5625V42.4609H73.4375V75.9375ZM61.0547 62.2656C61.5625 62.2656 61.9922 61.8359 61.9922 61.3281C61.9922 60.8203 61.5625 60.3906 61.0547 60.3906H52.1484V57.4609H62.2266C62.7344 57.4609 63.1641 57.0312 63.1641 56.5234C63.1641 56.0156 62.7344 55.5859 62.2266 55.5859H52.1484V52.6563H61.6016C62.1094 52.6563 62.5391 52.2266 62.5391 51.7187C62.5391 51.2109 62.1094 50.7812 61.6016 50.7812H52.1484V47.8516H59.5312C60.0391 47.8516 60.4688 47.4219 60.4688 46.9141C60.4688 46.4062 60.0391 45.9766 59.5312 45.9766H52.1484V44.3359H47.5781V45.9766H40.1953C39.6875 45.9766 39.2578 46.4062 39.2578 46.9141C39.2578 47.4219 39.6875 47.8516 40.1953 47.8516H47.5781V50.7812H38.125C37.6172 50.7812 37.1875 51.2109 37.1875 51.7187C37.1875 52.2266 37.6172 52.6563 38.125 52.6563H47.5391V55.5859H37.5391C37.0312 55.5859 36.6016 56.0156 36.6016 56.5234C36.6016 57.0312 37.0312 57.4609 37.5391 57.4609H47.5781V60.3906H38.6328C38.125 60.3906 37.6953 60.8203 37.6953 61.3281C37.6953 61.8359 38.125 62.2656 38.6328 62.2656H47.5391V65.1953H38.9453C38.5937 65.1953 38.0469 65.5078 38.0469 66.0547C38.0469 71.0547 38.5156 73.3984 41.1719 73.3984C44.0234 73.3984 44.4922 67.3047 47.5391 67.0703V72.7344H52.1094V67.0703C55 67.4609 55.5859 73.3984 58.3203 73.3984C60.9375 73.3984 61.6016 71.0547 61.6016 66.0547C61.6016 65.5078 61.0937 65.1953 60.7031 65.1953H52.1094V62.2656H61.0547ZM63.9063 27.8125H36.25C31.25 27.8125 26.6016 30.4687 24.0234 34.4531H75.7812C73.3203 30.5078 68.9063 27.8125 63.9063 27.8125Z" fill="black"/>
</svg>
