<svg width="100" height="83" viewBox="0 0 100 83" fill="none" xmlns="http://www.w3.org/2000/svg">
<path d="M42.4609 4.41406C40.1562 4.41406 38.2031 6.25 38.2031 8.55469C38.2031 10.8594 40.1172 12.6953 42.3438 12.6953H48.125C49.1016 12.6953 49.8438 13.4766 49.8438 14.4141C49.8438 15.3516 49.0625 16.1328 48.125 16.1328H33.9844C31.6797 16.1328 29.8438 18.0469 29.8438 20.2734C29.8438 22.5781 31.7578 24.4141 33.9844 24.4141H48.1641C49.1406 24.4141 49.8828 25.1953 49.8828 26.1328C49.8828 27.1094 48.1641 27.8516 48.1641 27.8516H25.8984C23.5938 27.8516 21.7578 29.7656 21.7578 31.9922C21.7578 34.2969 23.6719 36.1328 25.8984 36.1328H48.1641C49.1406 36.1328 49.8828 36.9141 49.8828 37.8516C49.8828 38.8281 49.1016 39.5703 48.1641 39.5703H9.10156C6.79687 39.5703 4.96094 41.4844 4.96094 43.7109C4.96094 46.0156 6.875 47.8516 9.10156 47.8516H58.9063C59.8828 47.8516 60.625 48.6328 60.625 49.5703C60.625 50.5078 59.8438 51.2891 58.9063 51.2891H43.9844C41.6797 51.2891 39.8438 53.2031 39.8438 55.4297C39.8438 57.7344 41.7578 59.5703 43.9844 59.5703H69.8047V59.4922C70.2734 59.5703 70.7812 59.5703 71.25 59.5703C73.75 59.5703 75.9766 58.5156 77.5 56.6797L90.4297 43.75H98.0469V4.88281H42.4609V4.41406Z" fill="black"/>
<path d="M1.40625 69.4531C1.40625 73.3984 4.57031 76.4844 8.4375 76.4844C12.3828 76.4844 15.4688 73.3203 15.4688 69.4531C15.4688 65.5078 8.4375 55.2734 8.4375 55.2734C8.4375 55.2734 1.40625 65.5078 1.40625 69.4531Z" fill="black"/>
</svg>
