<svg width="100" height="100" viewBox="0 0 100 100" fill="none" xmlns="http://www.w3.org/2000/svg">
<path fill-rule="evenodd" clip-rule="evenodd" d="M48.3112 2.18654C40.4811 3.06682 33.0176 6.40158 28.1118 11.2119C26.2759 13.0121 25.7264 14.5563 25.2501 19.2563C24.9913 21.8092 25.111 31.1658 25.4475 34.686C25.6278 36.5715 25.6161 36.683 25.1106 37.9086C24.6839 38.9434 24.5868 39.4852 24.5858 40.8383C24.5846 42.3508 24.6489 42.6336 25.3083 44.018C26.6143 46.7606 28.9776 48.602 31.4454 48.8L32.6536 48.8969L33.1786 50.3852C33.9094 52.4573 35.455 55.4112 36.5989 56.9223C37.6303 58.2848 41.0471 61.4614 42.8927 62.7739C44.1475 63.666 44.1456 63.6563 43.5118 65.9604C43.2739 66.8252 43.1698 66.9614 42.7469 66.9614C42.478 66.9614 42.1257 67.0709 41.9641 67.2049C41.6235 67.4877 41.5716 68.5908 41.8841 68.9033C42.193 69.2123 41.63 69.9883 40.4899 70.8252C39.9723 71.2051 37.6944 72.475 35.4276 73.6471C31.3907 75.7348 27.8448 77.8809 26.78 78.8813C25.7225 79.8748 26.0925 79.1619 27.7729 76.967C29.4028 74.8383 29.5335 74.7178 30.5436 74.4133C31.2206 74.2092 31.7448 73.9047 31.9944 73.5703C32.3559 73.0862 32.3626 73.0075 32.0843 72.5188C31.7899 72.0024 31.8059 71.9623 32.8177 70.7032C34.0415 69.1801 34.444 68.302 34.444 67.1555C34.444 66.1553 33.78 64.7479 33.0612 64.2252C32.1065 63.5305 30.6464 63.4295 29.3503 63.9686C29.0909 64.0764 28.61 62.6073 26.3374 54.7625C24.8499 49.6285 23.4717 45.1004 23.2749 44.6998C22.7928 43.7196 21.9854 43.3272 20.6194 43.4096L19.5346 43.475L18.5171 39.9594C16.6219 33.4127 16.6926 33.6106 16.1706 33.4119C15.5512 33.1766 14.7448 33.5326 14.601 34.1049C14.5405 34.3467 15.0915 36.5864 15.8753 39.2826C16.635 41.8961 17.2565 44.0885 17.2565 44.1549C17.2565 44.2211 16.9657 44.3807 16.6102 44.5092C15.7241 44.8295 14.92 45.7205 14.7891 46.527C14.7116 47.0047 14.9708 48.1969 15.6874 50.6596L16.6944 54.1209L15.8524 55.4858C15.3893 56.2364 14.9409 56.8514 14.8561 56.8522C14.7712 56.8532 14.4417 56.6617 14.1241 56.427C13.2807 55.8035 11.5159 55.7092 10.4895 56.2328C8.89987 57.0438 7.48991 59.1795 6.79167 61.8344C6.51648 62.8803 6.43015 63.9362 6.42429 66.3266C6.4155 69.9446 6.47605 70.1914 8.60827 75.2125C9.31511 76.8772 9.93425 78.6006 9.98405 79.0426C10.0598 79.7158 9.65632 80.9819 7.49362 86.8559C4.55007 94.8504 4.52448 94.9942 5.81276 96.2826L6.52077 96.9907L49.5532 97.0408L92.5856 97.0908L93.2511 96.6475C94.5073 95.8108 94.563 95.5203 94.8202 88.4588C95.08 81.3242 94.88 76.1547 94.2966 74.9254C93.9339 74.161 93.0046 73.6508 91.9751 73.6508C90.7126 73.6508 89.1868 74.7022 88.8335 75.8153C88.652 76.3867 88.4784 76.2817 87.6735 75.1129C86.6559 73.6356 84.7663 71.9321 83.4712 71.3244C82.5884 70.9104 82.1104 70.8196 80.8307 70.8235C79.4975 70.8276 79.0819 70.9164 77.9987 71.4287C76.3612 72.2033 74.9579 73.328 73.8169 74.7805L72.9055 75.9403L68.6651 73.6977C64.6401 71.5692 62.569 70.294 62.569 69.9442C62.569 69.8574 62.7016 69.7354 62.8637 69.6733C63.0257 69.6112 63.2579 69.3416 63.3798 69.0744C63.8221 68.1033 62.7067 67.1828 61.7124 67.6987C61.2391 67.9442 61.2104 67.9241 60.9192 67.1401C60.7532 66.6926 60.4796 65.718 60.3114 64.9741C60.035 63.7518 60.0348 63.6051 60.3087 63.4518C61.2925 62.9012 66.0841 58.7315 66.945 57.6766C68.5177 55.75 70.4415 52.1121 71.1649 49.6973L71.4073 48.8885L72.6034 48.8115C75.3708 48.6336 78.0514 46.2944 79.1843 43.0686C79.7411 41.483 79.643 39.2031 78.9581 37.811C78.5135 36.9073 78.4889 36.7104 78.6298 35.1742C79.1143 29.885 79.0934 20.0891 78.5911 16.9932C78.0864 13.8846 77.5514 12.7102 75.9143 11.1176C71.9372 7.24826 65.6196 4.03225 59.5417 2.78322C55.8208 2.01858 51.7356 1.80139 48.3112 2.18654ZM55.4966 4.52092C62.5735 5.29026 69.2856 8.19104 73.9231 12.4846C76.1727 14.5674 76.4235 15.5981 76.5688 23.3578C76.6563 28.0213 76.4321 34.8528 76.1837 35.1012C76.1421 35.1428 75.1053 34.7024 73.8796 34.1225C61.2026 28.1244 41.6743 28.2922 29.3374 34.5049C28.5792 34.8869 27.9284 35.1692 27.8915 35.1321C27.6536 34.8942 27.3768 26.6072 27.4788 22.7719C27.6706 15.5572 28.0083 14.3789 30.5114 12.1905C37.0743 6.45275 46.5391 3.54748 55.4966 4.52092ZM56.2214 32.2457C57.7253 32.352 59.3512 32.4977 59.8346 32.5696L60.7136 32.7002L59.1964 32.9596C57.251 33.292 56.3759 33.6641 56.0964 34.2772C55.9157 34.674 55.935 34.8623 56.1981 35.2639C56.6034 35.8824 57.1616 35.8971 58.8581 35.3332C60.7069 34.7186 64.2581 34.7145 66.2139 35.3246C67.7971 35.8186 68.2057 35.7508 68.362 34.9692L68.4714 34.4227L69.5729 34.8311C70.1788 35.0557 70.7495 35.3043 70.8413 35.3836C71.0735 35.5838 70.1663 39.077 69.4108 40.8914C68.8546 42.228 67.1112 45.3569 66.6843 45.785C66.5956 45.874 66.0509 45.5875 65.4739 45.1485C62.0532 42.5467 54.0114 41.1846 47.555 42.1135C43.5792 42.6856 39.5977 44.133 38.2221 45.5067L37.6059 46.1221L36.7321 44.7985C34.9518 42.102 33.4626 38.3461 33.237 35.9838C33.176 35.3442 33.2036 35.3178 34.3952 34.8697C35.5307 34.443 35.6159 34.4354 35.6159 34.7623C35.6159 34.9555 35.7864 35.268 35.9948 35.4565C36.3469 35.7754 36.4395 35.778 37.3132 35.4944C39.7925 34.6897 42.6913 34.6123 44.9909 35.2899C46.7598 35.811 47.3081 35.8449 47.7341 35.4594C48.2604 34.9828 48.212 34.3016 47.6186 33.8348C47.1268 33.4481 44.938 32.8489 43.8782 32.811C42.7573 32.7707 44.7501 32.4483 47.1915 32.2748C50.5995 32.0326 53.0893 32.0246 56.2214 32.2457ZM30.8053 36.9809C30.87 37.2227 30.9243 37.9713 30.9257 38.6448C30.9284 39.8537 30.9223 39.8676 30.4401 39.7467C29.7028 39.5615 29.068 39.7955 28.818 40.3446C28.4999 41.0426 28.8192 41.7739 29.5055 41.919C29.8048 41.9823 30.3225 42.1532 30.6565 42.2987C31.228 42.5479 31.2821 42.6655 31.5843 44.3166C31.9882 46.5248 31.9891 46.5024 31.4784 46.5024C30.7733 46.5024 29.4348 45.7471 28.7016 44.9354C27.5005 43.6061 26.9526 42.2998 26.9419 40.7406C26.929 38.8506 27.2591 38.3108 29.0262 37.3307C29.804 36.8994 30.4958 36.5453 30.5637 36.544C30.6319 36.5426 30.7405 36.7391 30.8053 36.9809ZM75.2356 37.4528C76.2659 38.028 76.5436 38.2971 76.8712 39.0373C77.3688 40.1625 77.2714 41.928 76.6436 43.1584C75.7407 44.9281 73.8337 46.4862 72.5559 46.4981C72.153 46.5018 72.1087 46.4334 72.2104 45.9653C72.2747 45.6699 72.4335 44.7846 72.5636 43.9979C72.7702 42.7471 72.8673 42.5326 73.3387 42.2889C73.6352 42.1356 74.0579 42.0102 74.278 42.0102C74.7893 42.0102 75.4596 41.3453 75.4596 40.8383C75.4596 40.6235 75.2737 40.2617 75.0464 40.0344C74.7198 39.7078 74.4739 39.6424 73.8745 39.7229C73.1317 39.8225 73.1159 39.8117 73.1177 39.2084C73.1184 38.8696 73.1753 38.1262 73.2436 37.5569C73.3858 36.3723 73.3077 36.3764 75.2356 37.4528ZM38.8385 37.3678C37.4579 37.7055 37.1784 37.8723 37.1784 38.3586C37.1784 38.6108 37.3848 39.011 37.6372 39.2481C38.0171 39.6051 38.2938 39.6719 39.2485 39.6375C39.9868 39.6108 40.6116 39.7057 40.987 39.9014C41.3093 40.0694 42.0563 40.3127 42.6471 40.4422C43.5819 40.6471 43.8602 40.6311 44.7909 40.3186C46.171 39.8551 46.6108 39.2022 46.0843 38.3987C45.7497 37.8879 45.6884 37.8719 44.5333 37.9934C43.5329 38.0985 43.0934 38.0364 41.9184 37.6235C40.4149 37.0953 40.0698 37.0666 38.8385 37.3678ZM62.0807 37.6373C60.96 38.0315 60.5007 38.0959 59.5321 37.9949C58.152 37.8508 57.8178 38.0828 57.9171 39.1166C57.9682 39.6502 58.1139 39.8299 58.746 40.1385C59.7913 40.6487 61.3973 40.6172 62.7643 40.0596C63.4968 39.761 64.194 39.6305 64.9559 39.6496C66.2247 39.6819 66.8659 39.2598 66.8659 38.3928C66.8659 37.8563 66.6237 37.7164 65.0565 37.3467C63.8337 37.0584 63.6852 37.0729 62.0807 37.6373ZM56.4893 44.4666C59.0747 44.85 62.4382 45.9209 63.6665 46.7516C65.0251 47.6703 65.4987 48.6889 65.4987 50.6912C65.4987 55.6063 62.5632 59.7574 57.1378 62.5145C53.2036 64.5137 51.0602 64.5168 47.0417 62.5295C41.5661 59.8219 38.5589 55.6301 38.5485 50.691C38.5452 49.093 39.1391 47.6403 40.0805 46.9442C41.3358 46.0162 44.6891 44.9047 47.6276 44.4428C49.8544 44.0928 54.0454 44.1039 56.4893 44.4666ZM69.5116 46.9776C69.2624 47.8836 68.8071 49.2678 68.4999 50.0537L67.9415 51.4828L67.8218 49.9203L67.702 48.3578L68.43 47.3813C68.8303 46.8442 69.3116 46.1629 69.4993 45.8676C69.687 45.5723 69.8684 45.3305 69.9026 45.3305C69.9368 45.3305 69.7608 46.0717 69.5116 46.9776ZM35.6286 47.3813L36.3622 48.3578L36.2303 49.9203L36.0985 51.4828L35.476 49.7899C34.9067 48.2412 34.2487 45.9955 34.2487 45.6006C34.2487 45.5117 34.394 45.6563 34.5718 45.9217C34.7495 46.1873 35.2251 46.8442 35.6286 47.3813ZM21.5206 46.6315C21.6544 47.1321 21.6946 47.6018 21.6098 47.6752C21.3171 47.9287 17.7592 48.841 17.6239 48.6973C17.3751 48.4332 17.0667 47.0047 17.2245 46.8469C17.4194 46.652 20.3405 45.7676 20.8782 45.7408C21.1936 45.7252 21.328 45.9114 21.5206 46.6315ZM22.7108 50.7395C22.8204 51.1362 22.8839 51.4871 22.8518 51.5192C22.8198 51.5512 22.4487 51.6965 22.027 51.842C21.1048 52.1604 20.7682 52.8434 21.136 53.6504C21.3651 54.1531 21.4184 54.169 22.5089 54.0549L23.6436 53.9364L23.8805 54.7604C24.0108 55.2135 24.1557 55.7199 24.2028 55.8856C24.2645 56.103 24.0534 56.2496 23.4452 56.4123C22.3223 56.7127 21.928 57.4565 22.4936 58.2074C22.8848 58.727 23.4809 58.8256 24.4878 58.5373C24.9555 58.4033 24.9967 58.4563 25.2969 59.5764L25.613 60.7565L24.8522 60.9614C24.403 61.0823 23.9563 61.3721 23.7618 61.6692C23.4653 62.1217 23.4616 62.2242 23.7241 62.6869C23.9872 63.1508 24.1286 63.2016 25.1563 63.2016H26.2966L26.5501 63.9297C26.6893 64.3301 26.7428 64.6936 26.6686 64.7373C26.3038 64.9526 22.7014 65.8795 22.605 65.7832C22.4993 65.6774 18.4751 51.9838 18.3774 51.3973C18.3448 51.2006 18.8579 50.9576 20.0885 50.5869C22.4413 49.8781 22.4735 49.8801 22.7108 50.7395ZM18.9864 61.9897L20.3282 66.6069L19.6698 66.8242C18.901 67.078 18.5415 67.6326 18.7102 68.3045C18.9159 69.1244 19.5534 69.2498 21.1778 68.7901C21.9678 68.5664 22.6698 68.4481 22.7374 68.527C22.8489 68.6567 24.2878 73.4594 24.2878 73.7016C24.2878 73.7578 24.0462 73.8631 23.7507 73.9358C22.8079 74.1676 22.3346 74.5914 22.3346 75.2039C22.3346 76.3471 22.9081 76.5369 24.9469 76.0686L25.5087 75.9397L24.5346 77.383C22.3673 80.5951 21.7069 82.5168 20.1798 90.0571L19.2503 94.6469L13.3655 94.6987C8.55944 94.7409 7.46218 94.7018 7.37937 94.4858C7.32351 94.3401 8.42429 91.1108 9.82565 87.3094C12.6167 79.7389 12.7044 79.3373 12.0014 77.3436C11.7966 76.7627 11.1073 75.0571 10.4694 73.5532C8.76823 69.542 8.5823 68.7067 8.72175 65.6948C8.88444 62.1787 9.53581 60.1379 10.9245 58.7918C11.7311 58.01 12.3774 57.9991 13.3135 58.751C15.0096 60.1137 16.3649 62.3264 16.7649 64.3864C16.978 65.4836 15.5815 66.5709 14.9626 65.7895C14.8561 65.6553 14.6202 65.0889 14.4384 64.5309C14.2563 63.9731 13.9128 63.226 13.6749 62.8707C13.1643 62.1088 11.5241 60.9555 10.951 60.9555C10.3764 60.9555 9.83405 61.5172 9.83757 62.1088C9.84148 62.7701 9.99616 62.9821 10.7606 63.3737C11.5342 63.7701 11.8604 64.2489 12.3741 65.7418C12.9901 67.5325 14.0231 68.3774 15.5964 68.3774C17.1143 68.3774 18.6005 67.1799 19.0212 65.618C19.388 64.2557 18.5548 61.4348 17.2315 59.5582C17.0303 59.2731 16.8659 58.9407 16.8659 58.8196C16.8659 58.4772 17.4456 57.1731 17.5509 57.2785C17.6024 57.3301 18.2485 59.45 18.9864 61.9897ZM65.8952 62.4366C64.3708 63.0979 63.4718 64.6528 63.4573 66.6533C63.4466 68.1543 63.7382 68.6875 65.0934 69.6461C65.8147 70.1563 66.1231 70.2407 67.4973 70.303C69.3292 70.3862 70.1999 70.1703 71.3266 69.3543C71.9964 68.8692 72.1393 68.6524 72.1393 68.1223C72.1393 67.7684 72.0339 67.3735 71.905 67.2446C71.6219 66.9616 70.4526 66.9324 70.2844 67.2045C70.2184 67.3114 70.0079 67.4824 69.8163 67.585C69.5155 67.7461 69.5302 67.649 69.9249 66.8694C70.6321 65.4723 70.4817 64.3391 69.4413 63.2264C68.4505 62.1664 67.1735 61.8821 65.8952 62.4366ZM67.6805 64.7944C67.877 64.9721 68.0378 65.2719 68.0378 65.4606C68.0378 66.0934 66.1423 67.3283 65.7591 66.9451C65.5528 66.7389 65.8952 65.493 66.2993 64.9791C66.7608 64.3924 67.1751 64.3369 67.6805 64.7944ZM47.3848 65.3373C48.5229 65.8407 51.0128 66.4242 52.0221 66.4242C53.0565 66.4242 55.5882 65.833 56.6905 65.3338C57.271 65.0711 57.7684 64.8793 57.7962 64.9078C57.8239 64.9362 57.9944 65.5307 58.1751 66.2289C58.3555 66.9272 58.6282 67.7977 58.7809 68.1633C58.9337 68.5287 59.0169 68.8698 58.9657 68.9207C58.9147 68.9717 58.1885 69.1774 57.3518 69.3776C55.446 69.8336 52.0971 69.8617 49.8759 69.4405C48.5991 69.1983 45.6813 68.3127 45.4266 68.0903C45.3698 68.0407 46.1979 64.8617 46.2677 64.8617C46.2907 64.8617 46.7934 65.0758 47.3848 65.3373ZM32.0216 66.7229C32.0882 66.9883 32.0909 67.4032 32.0278 67.6449C31.9073 68.1063 29.3745 71.3809 29.2413 71.2475C29.0428 71.0492 28.1825 67.7127 28.2704 67.4832C28.3741 67.2131 29.6178 66.4907 30.6354 66.1094C31.355 65.8399 31.8553 66.0614 32.0216 66.7229ZM26.4663 70.2338C26.927 71.8338 27.1288 72.8405 27.012 72.9575C26.6909 73.2793 26.4901 72.8565 25.7675 70.3367C24.96 67.5217 24.9635 67.5471 25.4022 67.6317C25.6473 67.6789 25.9286 68.3666 26.4663 70.2338ZM49.3264 71.71C52.1384 72.2893 56.4266 72.1752 58.8155 71.4574L60.4331 70.9715L60.8104 71.5012C61.3981 72.3266 63.0548 73.3723 67.5237 75.7383C70.6831 77.411 71.6444 78.0065 71.6229 78.2774C71.6075 78.4721 71.4905 79.1506 71.3632 79.7852C70.786 82.6608 72.0384 86.417 75.6344 92.5961L76.828 94.6469L49.3542 94.6963C34.2434 94.7237 21.835 94.7006 21.7796 94.6453C21.7243 94.5899 22.0087 92.8537 22.4114 90.7871C23.3768 85.8328 23.7141 85.1194 26.3176 82.5198C28.7762 80.0649 31.054 78.5492 36.5401 75.7174C40.8801 73.4772 42.7663 72.2188 43.6938 70.9449L44.2524 70.178L45.7833 70.7367C46.6253 71.0442 48.2196 71.4821 49.3264 71.71ZM82.6387 73.566C85.0057 74.7455 87.8341 79.0213 88.7284 82.7719C88.9835 83.8418 89.1516 84.0662 89.8606 84.2836C90.1823 84.3821 90.4274 84.2867 90.7932 83.9209C91.343 83.3711 91.337 83.2418 90.6622 81.1256C90.2022 79.683 90.3067 78.2133 90.9614 76.9166C91.4721 75.9051 91.9692 75.7567 92.2991 76.5174C92.5684 77.1383 92.5759 90.2932 92.3085 93.0844L92.1589 94.6469H85.8423H79.5255L78.0548 92.1078C74.6841 86.2885 73.3235 82.7623 73.5989 80.5592C73.8583 78.4836 75.7579 75.5768 77.7518 74.2051C79.5083 72.9967 81.0829 72.7907 82.6387 73.566Z" fill="black"/>
</svg>
