<svg width="100" height="100" viewBox="0 0 100 100" fill="none" xmlns="http://www.w3.org/2000/svg">
<path fill-rule="evenodd" clip-rule="evenodd" d="M95.4757 0.341658C94.9742 0.541201 94.2703 0.914424 93.9115 1.17087C93.1917 1.68554 74.88 20.2552 70.0547 25.3635L67.0122 28.5846L65.9596 27.6416C60.516 22.7639 53.8813 19.4839 46.7227 18.1316C44.168 17.649 39.2866 17.5602 36.6528 17.9484C28.3671 19.1697 21.1115 23.0064 14.4646 29.6814C10.2906 33.8734 7.22565 38.1844 4.71404 43.3972C2.48088 48.0316 1.15615 52.152 0.353689 56.9581C-0.0665091 59.4738 -0.126537 66.0193 0.250448 68.1986C1.63325 76.1927 5.00558 82.6083 10.8682 88.3988C14.3622 91.8497 17.084 93.7966 21.4336 95.956C30.5565 100.485 40.6049 101.222 50.7311 98.1054C61.2029 94.8822 70.0748 87.7761 75.0296 78.6433C80.3281 68.8768 81.3816 56.6963 77.8728 45.7726C77.0348 43.164 74.9715 38.7156 73.6151 36.5932L72.8058 35.3271L74.948 33.2111C78.4717 29.7308 93.8147 13.0219 96.4649 9.77887C99.6451 5.88728 100.686 3.04633 99.5612 1.33241C98.6965 0.0153864 97.2048 -0.346497 95.4757 0.341658ZM98.0497 1.94954C98.6308 2.54081 98.5409 3.51564 97.7656 5.02903C97.0396 6.44632 95.7636 8.31582 95.5221 8.31582C95.4407 8.31582 95.2712 7.96607 95.1453 7.53853C94.8837 6.65004 93.9043 5.68575 92.881 5.30934C92.4976 5.16829 92.1838 4.98864 92.1838 4.91046C92.1838 4.5997 94.6514 2.52052 95.5774 2.051C96.7662 1.4482 97.5263 1.41696 98.0497 1.94954ZM92.9452 6.21614C93.8655 6.69063 94.1483 7.06922 94.7143 8.584C94.9036 9.09051 94.8528 9.22719 94.1893 9.9987C93.0161 11.3627 84.2943 20.9439 84.1762 20.998C84.1173 21.0251 83.8178 20.5576 83.5104 19.9591C83.01 18.9847 82.0351 17.9211 80.8621 17.0694C80.4646 16.7808 80.6294 16.5898 85.881 11.2503C88.8879 8.19307 91.4648 5.72952 91.656 5.72952C91.8459 5.72952 92.426 5.94856 92.9452 6.21614ZM80.6228 17.949C81.6258 18.5932 82.8909 20.1282 83.1973 21.073L83.4459 21.8394L82.405 22.9857C77.3365 28.5677 72.2307 33.7019 70.067 35.3922C63.128 40.8135 60.9671 42.6965 55.9916 47.6574C53.989 49.6542 52.2059 51.2882 52.0296 51.2882C51.6542 51.2882 51.6217 50.7689 51.96 50.1751C52.3909 49.4189 64.5788 33.6713 65.8314 32.2524C67.267 30.6262 79.703 17.4673 79.8043 17.4673C79.8422 17.4673 80.2104 17.684 80.6228 17.949ZM44.6747 19.4673C51.3683 20.3135 57.7465 23.0639 63.3428 27.5169C64.2032 28.2015 65.1142 28.9889 65.3672 29.2666L65.8273 29.7718L64.5098 31.3287C63.7851 32.185 63.081 33.0078 62.9451 33.1568C62.7392 33.3828 62.5558 33.2989 61.8472 32.6535C57.658 28.8391 52.2503 26.056 46.5709 24.7915C43.7246 24.1579 39.1257 24.0777 36.2085 24.6113C23.7004 26.8986 12.5775 37.4843 8.13409 51.3302C6.68618 55.8415 6.27752 58.6299 6.405 63.1255C6.51431 66.9818 6.75911 68.503 7.74948 71.4812C10.0057 78.2673 14.8371 84.2621 21.4074 88.4282C27.4851 92.2822 35.2043 94.0725 42.2254 93.2571C53.0788 91.9965 62.9889 85.9585 68.402 77.3085C73.6937 68.8525 74.9864 58.0462 71.9069 48.0056C71.3385 46.1516 69.499 42.1377 68.4621 40.4886C68.0661 39.8589 67.7423 39.3116 67.7423 39.2722C67.7423 39.1809 71.4177 36.3672 71.5372 36.3672C71.6928 36.3672 73.5297 39.5778 74.4397 41.4403C75.9652 44.5634 76.9388 47.5747 77.7201 51.5866C78.3345 54.7413 78.4788 60.8875 78.0177 64.2553C76.4006 76.0645 70.2565 85.6378 60.1938 92.0272C52.9904 96.6009 43.7572 98.9557 35.7099 98.2711C30.631 97.8392 26.7511 96.7691 22.2223 94.5512C8.89744 88.0258 0.880255 75.2345 1.52805 61.5339C2.04308 50.6406 6.9435 39.6926 15.0676 31.2853C21.6226 24.5017 29.2605 20.4935 37.7282 19.3937C39.0158 19.2264 43.1128 19.2698 44.6747 19.4673ZM45.4664 26.2309C48.4873 26.7824 51.2823 27.7652 54.25 29.3194C56.5749 30.5369 60.2134 33.0938 61.2743 34.2558L61.7475 34.7741L61.1621 35.5209C57.5301 40.1538 50.7154 49.1503 50.4653 49.6423C49.2562 52.0217 51.4471 53.8985 53.5858 52.3151C54.0052 52.0048 54.9117 51.1318 55.6004 50.3754C58.0502 47.6843 65.9497 40.3461 66.3967 40.3461C66.4671 40.3461 66.8759 40.9503 67.3051 41.689C72.4263 50.4994 73.411 60.7138 70.0521 70.1881C67.7515 76.6777 63.7787 81.7701 57.868 85.8061C51.512 90.1461 43.2672 92.3984 36.2289 91.7172C28.6209 90.9809 22.526 88.1805 16.9041 82.8384C12.1871 78.3562 9.12602 72.658 8.18375 66.6058C7.74928 63.8136 7.89515 58.7894 8.49269 55.9688C9.44356 51.4814 11.6284 46.0857 13.9733 42.4351C17.6729 36.6748 22.9335 31.7234 28.2359 29.0108C31.2088 27.49 34.2702 26.4708 37.1457 26.0449C39.3781 25.7141 43.0901 25.797 45.4664 26.2309ZM41.3252 31.8641C40.6774 32.1925 40.452 33.1624 40.7617 34.2878C40.9547 34.9891 41.2431 35.3974 41.9961 36.0338C43.8262 37.5812 44.083 37.8913 44.083 38.5534C44.083 39.3468 43.8495 39.7861 42.7076 41.1419C42.2006 41.7437 41.6867 42.4317 41.5657 42.6706C41.2104 43.3719 41.3105 44.5664 41.8344 45.8784C42.4691 47.4674 42.4507 48.3553 41.7366 50.6235C41.0829 52.6997 41.0247 53.3833 41.4196 54.3448C41.8048 55.283 42.6124 55.8639 43.5316 55.8639C44.9621 55.8639 45.7253 54.5035 45.4296 52.4807C44.9973 49.5221 44.9953 49.6208 45.5182 48.0794C46.0506 46.5099 46.0358 46.0567 45.4181 45.0214C44.6741 43.774 45.0135 42.6899 46.8175 40.5538C48.0098 39.1417 48.1891 38.7713 48.1891 37.7197C48.1891 36.9018 47.4461 35.3725 47.049 35.3725C46.9673 35.3725 46.2006 34.7347 45.3451 33.9552C43.0156 31.8324 42.2117 31.4143 41.3252 31.8641ZM51.5132 32.1086C49.9831 32.783 49.1113 34.1018 49.0921 35.7704C49.0526 39.2235 52.9969 41.0918 55.5789 38.8431C57.6967 36.9989 57.307 33.5076 54.8421 32.2391C53.8261 31.7163 52.5196 31.6651 51.5132 32.1086ZM42.9282 32.9368C43.4211 33.2738 45.4169 35.0295 46.7489 36.2976C47.6593 37.1644 47.6669 38.1924 46.7715 39.3373C46.4221 39.7843 45.747 40.6477 45.2712 41.2561C44.1283 42.7176 43.9774 43.9325 44.7464 45.477L45.257 46.5019L44.7677 47.8245C44.2036 49.3494 44.177 49.8492 44.553 51.8546C44.8287 53.3266 44.7423 54.2011 44.2629 54.789C43.9103 55.2211 43.0295 55.1239 42.5451 54.5992C41.8342 53.8295 41.8303 52.9995 42.5269 50.792C43.2752 48.4202 43.2944 47.3767 42.6202 45.6884C41.87 43.81 42.0133 42.8533 43.2121 41.7388C44.1594 40.858 44.8653 39.5448 44.8637 38.6658C44.8622 37.6451 44.423 36.9696 43.1153 35.9769C41.9507 35.0928 41.6596 34.7289 41.4646 33.9132C41.1684 32.6746 41.8651 32.2096 42.9282 32.9368ZM54.3288 32.8646C54.6876 33.0172 55.2261 33.4686 55.5253 33.8677C57.1079 35.9787 55.6461 39.054 53.0786 39.0146C50.1943 38.9702 48.7595 35.6188 50.7762 33.6357C51.8436 32.5859 53.0549 32.323 54.3288 32.8646ZM27.6509 33.5326C26.2505 33.9166 25.8671 34.6601 25.6944 37.3275C25.5325 39.8287 25.4242 40.005 23.0469 41.6393C20.1591 43.6246 19.8601 44.4651 20.8208 47.8965C21.6627 50.9044 21.623 51.0628 19.4403 53.3938C17.4234 55.548 16.9512 56.6374 17.1792 58.6112C17.4574 61.0192 18.6926 62.4292 20.524 62.4292C21.9101 62.4292 22.5745 61.9093 22.5745 60.8253C22.5745 60.1693 22.4198 59.8723 21.5968 58.9476C21.0591 58.3434 20.6196 57.7382 20.62 57.6025C20.6204 57.4671 20.7856 57.0807 20.9874 56.7443C21.2674 56.2769 21.7404 55.9761 22.9908 55.4698C24.9549 54.6748 25.4009 54.3689 25.7943 53.546C26.3494 52.3852 26.1864 51.4734 25.0186 49.208C23.3695 46.0083 23.5107 45.2494 25.9805 44.0408C27.2256 43.4314 27.4814 43.2153 27.8206 42.4862C28.2113 41.6469 29.6136 35.8207 29.6136 35.0377C29.6136 34.153 28.5011 33.2997 27.6509 33.5326ZM51.9193 34.4949C51.4342 34.9103 51.3177 35.1624 51.3177 35.797C51.3177 36.9702 52.1199 37.7004 53.273 37.5766C54.793 37.4133 55.3323 35.3574 54.1114 34.3801C53.431 33.8356 52.641 33.877 51.9193 34.4949ZM28.6984 34.8017C28.8438 35.0383 28.6991 35.9819 28.1644 38.2833C27.1742 42.5457 27.1226 42.642 25.3995 43.4409C23.6509 44.2517 23.1611 44.8795 23.1611 46.31C23.1611 47.1708 23.3363 47.6779 24.2365 49.4245C25.9298 52.7095 25.6874 53.6425 22.8787 54.6514C19.814 55.7521 19.0604 57.7161 21.0167 59.5033C22.2513 60.6309 22.0204 61.6334 20.5259 61.6334C19.5471 61.6334 18.9718 61.245 18.4709 60.2459C17.9242 59.1555 17.798 58.0428 18.0839 56.8306C18.2974 55.9252 18.569 55.5263 20.049 53.9455C21.7145 52.1667 22.1791 51.3497 22.1823 50.1936C22.1828 49.9745 21.9165 48.8555 21.5904 47.7068C20.6988 44.567 20.8802 44.0985 23.7475 42.1369C26.0462 40.5642 26.3438 40.0549 26.4859 37.4475C26.6183 35.0184 26.9435 34.3191 27.8951 34.4158C28.2271 34.4496 28.5887 34.6233 28.6984 34.8017ZM53.7671 35.1795C54.2821 35.7584 53.9642 36.641 53.2086 36.7297C52.5014 36.8129 52.0998 36.4601 52.0998 35.7559C52.0998 34.8152 53.1273 34.4601 53.7671 35.1795ZM34.5997 36.067C32.2932 36.9036 31.6591 39.7352 33.4247 41.3126C34.3085 42.1022 35.2516 42.2793 36.3333 41.8589C37.4875 41.4105 38.0833 40.5334 38.1697 39.1557C38.3169 36.8063 36.6166 35.3353 34.5997 36.067ZM36.8972 37.3721C37.9716 38.5568 37.4122 40.6955 35.9082 41.1541C35.2676 41.3492 35.0324 41.3325 34.4474 41.05C33.7439 40.7102 33.1332 39.7591 33.1332 39.0027C33.1332 38.3929 33.9544 37.2969 34.7014 36.9097C35.5549 36.4673 36.1995 36.603 36.8972 37.3721ZM31.8623 45.5211C30.9321 45.7243 30.4159 46.1502 29.9726 47.0801C29.6308 47.7971 29.5796 48.1719 29.6735 49.2685C29.7358 49.9964 29.9691 51.1244 30.192 51.7754C30.4147 52.4264 30.6501 53.4191 30.7151 53.9813C30.8594 55.2293 30.4358 56.2545 29.1379 57.7989C27.8648 59.3143 27.8216 59.861 28.809 61.9549C30.0987 64.6898 29.9623 65.2313 27.2549 68.123C25.9513 69.5154 25.4725 70.1767 25.2998 70.8235C25.022 71.8642 25.1651 74.2201 25.5653 75.1945C25.9214 76.0617 26.8508 76.761 27.8237 76.8937C28.4201 76.9751 28.6743 76.8937 29.1833 76.458C29.9073 75.8381 29.9842 75.1522 29.526 73.4006C29.0787 71.6905 29.5325 71.0117 31.8623 69.9079C35.2229 68.3158 35.626 66.7232 33.3854 63.8922C32.135 62.3122 31.6874 61.3763 31.8556 60.6942C31.9215 60.4276 32.4203 59.7921 32.9645 59.2822C34.7133 57.6431 34.8398 56.9416 33.9153 54.0056C33.2517 51.8976 33.2232 51.5112 33.6486 50.3929C34.5758 47.9562 34.5817 46.8175 33.6713 45.9791C33.1305 45.4811 32.6281 45.354 31.8623 45.5211ZM33.2779 46.5632C33.7253 47.1411 33.6881 47.851 33.1248 49.4887C32.8069 50.4132 32.5466 51.4481 32.5466 51.7883C32.5466 52.1287 32.8106 53.2018 33.1332 54.1729C34.0377 56.8957 33.9675 57.2424 32.1628 58.9599C30.5692 60.4767 30.6685 61.713 32.5787 64.1288C34.5915 66.6747 34.3699 67.8421 31.6288 69.1307C28.914 70.4069 28.2213 71.4368 28.733 73.4359C29.1215 74.9532 29.1041 75.4271 28.6438 75.8509C28.1978 76.2615 27.5797 76.1654 26.8347 75.5692C26.0024 74.9029 25.6469 72.6102 26.1119 70.9063C26.2632 70.3522 26.7966 69.6461 27.9909 68.4194C30.6644 65.674 30.9059 64.6866 29.6062 61.8158C28.6712 59.7506 28.697 59.4667 29.9539 57.9899C31.7271 55.9067 31.8947 54.8762 30.9835 51.662C30.6617 50.5264 30.3977 49.2585 30.3969 48.8447C30.3956 47.9152 30.8259 46.8238 31.3062 46.5399C31.8028 46.2461 33.0437 46.2608 33.2779 46.5632ZM63.8317 47.0974C60.5704 48.1104 59.0842 51.4268 61.113 53.1636C63.2904 55.028 66.7647 52.9959 66.7647 49.858C66.7647 48.4608 66.3357 47.555 65.507 47.2026C64.7567 46.8837 64.5596 46.8712 63.8317 47.0974ZM65.6953 48.373C66.0568 48.8984 66.066 50.3066 65.7133 51.1453C64.9765 52.8973 62.9496 53.6371 61.7352 52.5974C60.9787 51.9497 60.7845 51.1557 61.1593 50.2427C61.6171 49.1282 62.794 48.2021 64.125 47.9095C64.9055 47.7378 65.3478 47.8685 65.6953 48.373ZM62.82 49.2414C62.3044 49.5669 61.8764 50.2616 61.8764 50.7733C61.8764 50.9175 62.0588 51.2715 62.2817 51.5597C63.169 52.7077 65.0049 51.7569 65.0049 50.1496C65.0049 49.7255 64.8993 49.2709 64.7702 49.1396C64.4372 48.8008 63.4351 48.8533 62.82 49.2414ZM64.2227 50.1798C64.2227 51.064 63.3472 51.5942 62.8644 51.0025C62.6055 50.6852 62.8515 50.0096 63.2918 49.8291C63.898 49.5806 64.2227 49.703 64.2227 50.1798ZM36.7505 57.2309C35.7905 57.8375 35.2461 58.573 34.9775 59.6268C34.6566 60.8859 34.8951 61.8868 35.7277 62.7735C37.3579 64.5097 40.2826 63.967 41.3463 61.7311C42.1148 60.1162 41.5117 58.237 39.9053 57.2404C39.0961 56.7383 37.5374 56.7337 36.7505 57.2309ZM58.5173 57.3234C57.3719 57.6519 56.5391 58.2939 55.0934 59.9624C53.0667 62.3016 52.1907 62.5597 48.4691 61.9143C45.4157 61.3847 44.6289 61.7595 39.7584 66.0639C38.0788 67.548 36.5171 69.0714 36.2877 69.449C35.3863 70.9329 36.056 72.7517 37.5096 72.768C38.3883 72.7779 39.162 72.1592 40.9093 70.049C41.7984 68.9749 42.9604 67.7947 43.4913 67.4261C44.8354 66.4928 45.6556 66.3838 47.8425 66.8482C49.3936 67.1774 49.8252 67.1997 50.8288 67.0019C52.5966 66.6536 54.0211 65.7693 56.31 63.5988C57.4497 62.5177 58.3984 61.6244 58.4184 61.6133C58.4383 61.6023 59.5104 61.5283 60.8009 61.449C63.4715 61.2846 64.2984 60.9745 64.708 59.9831C64.9288 59.4487 64.9245 59.2671 64.6793 58.7849C64.0231 57.4935 60.6844 56.7017 58.5173 57.3234ZM39.7195 58.1021C40.0752 58.3484 40.4985 58.8318 40.6602 59.1766C41.6666 61.321 39.573 63.562 37.2304 62.8477C34.5618 62.0343 35.462 57.6793 38.3027 57.6598C38.7862 57.6564 39.3134 57.821 39.7195 58.1021ZM63.0975 58.4876C64.0587 59.026 64.2366 59.5884 63.6242 60.1522C63.2709 60.4777 62.8626 60.5477 61.0583 60.5929C59.7736 60.6249 58.6481 60.7588 58.2539 60.9265C57.8916 61.0805 56.8647 61.9099 55.9719 62.7696C52.4302 66.1797 51.1651 66.6854 47.8425 66.0191C44.7978 65.4086 43.5009 65.902 41.2096 68.5424C38.7538 71.3726 38.1114 71.9786 37.5675 71.9786C36.5716 71.9786 36.3415 70.5949 37.1707 69.5922C37.8142 68.8141 42.9354 64.2611 43.9729 63.5447C44.3931 63.2546 45.1836 62.8853 45.7297 62.7242C46.6046 62.466 46.9319 62.466 48.4824 62.725C50.9843 63.143 52.3411 63.1117 53.2994 62.6144C53.7356 62.388 54.942 61.3254 55.9803 60.2531C58.1296 58.0333 58.5734 57.823 60.8488 57.9453C61.8621 57.9998 62.5026 58.1542 63.0975 58.4876ZM37.6304 58.3917C36.6017 58.7743 36.02 60.1618 36.4479 61.2122C37.1901 63.0357 40.1723 62.3392 40.1723 60.3424C40.1723 59.41 39.909 58.9255 39.1986 58.5517C38.6155 58.2449 38.1523 58.1978 37.6304 58.3917ZM38.9556 59.3568C39.8742 60.0114 39.2854 61.4344 38.0958 61.4344C37.0159 61.4344 36.6972 60.3764 37.5239 59.5355C38.0831 58.9663 38.3594 58.9319 38.9556 59.3568ZM12.7952 59.7217C12.5248 59.8777 12.0967 60.3796 11.8441 60.837C11.4652 61.5228 11.3995 61.8765 11.4691 62.8543C11.5399 63.8506 11.6488 64.1371 12.1519 64.6488C13.2343 65.7504 15.2227 65.5916 16.0291 64.3394C16.8908 63.0015 16.7566 61.1412 15.7262 60.1367C15.0485 59.476 13.581 59.2683 12.7952 59.7217ZM15.1947 60.7443C16.9019 62.4813 14.9337 65.6358 12.9882 64.281C12.3009 63.8025 12.2178 63.629 12.2142 62.6679C12.2109 61.7251 12.611 60.7692 13.1401 60.4556C13.7676 60.0838 14.6703 60.2107 15.1947 60.7443ZM20.7169 65.0974C19.6169 65.5948 19.1775 66.2913 19.102 67.6579C18.9468 70.4712 20.9887 71.9215 23.409 70.7169C25.2603 69.7951 25.9179 68.2997 25.1129 66.842C24.1949 65.1804 22.2448 64.4063 20.7169 65.0974ZM23.6609 66.3036C24.8839 67.2528 25.0053 68.5519 23.9548 69.4514C22.6259 70.5889 21.2191 70.6349 20.3376 69.5691C19.4648 68.5137 19.7792 66.4109 20.8968 65.8292C21.5685 65.4796 22.8916 65.7068 23.6609 66.3036ZM20.9037 66.6975C19.8161 67.8039 20.5676 69.7902 22.0737 69.7902C23.044 69.7902 24.0083 68.8975 24.0083 67.9997C24.0083 67.51 23.8484 67.1951 23.3861 66.7749C22.5755 66.0378 21.5824 66.0068 20.9037 66.6975ZM59.8186 67.3141C58.9608 67.8124 57.8631 68.3436 57.3791 68.4944C56.8952 68.6452 55.8833 68.9614 55.1305 69.1969C53.51 69.7038 52.9286 70.1194 50.7539 72.3259C48.7683 74.3405 48.2316 74.6287 42.5187 76.7487C40.099 77.6467 37.6605 78.6019 37.0998 78.8715C35.1398 79.8139 34.017 81.7242 34.3948 83.4741C34.6173 84.505 35.757 85.3108 36.9821 85.3036C38.2045 85.2964 39.3458 84.6083 41.2294 82.7426C42.2074 81.7739 43.2238 80.8675 43.4882 80.728C43.7527 80.5888 44.662 80.4037 45.5092 80.3168C47.3454 80.1286 47.7897 79.8674 48.5174 78.548C49.1899 77.329 49.7495 77.0414 51.7635 76.8796C52.6001 76.8124 53.5498 76.6178 53.874 76.4473C54.5326 76.1007 55.1499 75.1882 55.3434 74.2744C55.5628 73.2387 56.151 72.2672 56.728 71.9879C57.0323 71.8405 58.3372 71.6581 59.6277 71.5823C62.2039 71.4311 62.695 71.2922 63.4799 70.4924C65.068 68.8744 64.2875 66.4081 62.1875 66.4081C61.5854 66.4081 60.9785 66.6403 59.8186 67.3141ZM22.6617 67.1279C22.8347 67.1953 23.0696 67.4277 23.1832 67.6439C23.3492 67.9595 23.3029 68.1318 22.9482 68.5157C22.1891 69.338 21.2058 69.0467 21.2058 67.9997C21.2058 67.1545 21.8074 66.7942 22.6617 67.1279ZM63.0873 67.552C63.5785 68.1339 63.6457 68.5861 63.3483 69.3103C62.918 70.3582 61.847 70.773 59.53 70.7893C56.4335 70.8112 55.3982 71.4725 54.5764 73.9531C54.014 75.6499 53.6361 75.9066 51.3474 76.1449C50.2927 76.2547 49.3168 76.4704 49.0407 76.6544C48.7773 76.8299 48.2527 77.4655 47.8747 78.0667C47.1037 79.2928 46.6585 79.5377 45.1946 79.5405C43.6743 79.5433 42.4845 80.2199 40.6612 82.1179C38.2927 84.5834 36.9566 85.0814 35.6687 83.9788C35.0977 83.49 35.0529 83.3672 35.1337 82.512C35.2418 81.3668 35.8274 80.4911 36.9099 79.8553C37.36 79.5909 39.8399 78.5949 42.421 77.642C48.5837 75.3666 49.0458 75.1168 51.415 72.7764C53.6443 70.5742 53.9581 70.38 56.5597 69.5912C57.6018 69.2753 59.1563 68.6088 60.0141 68.1103C61.6898 67.1362 62.5973 66.9715 63.0873 67.552ZM16.1507 70.0858C15.8214 70.4672 15.4165 71.2445 15.2505 71.8129C14.4445 74.5744 15.2909 76.3602 17.5433 76.6494C19.9368 76.9568 20.2234 77.2481 20.6231 79.7767C20.8964 81.5071 21.2658 82.2456 22.2335 82.9966C23.148 83.7062 27.5627 86.2327 28.5775 86.627C29.6529 87.0448 30.6009 86.8592 31.3658 86.0809C31.8642 85.5738 31.96 85.3209 31.96 84.5122C31.96 82.7316 30.8201 81.9293 28.2875 81.9271C25.9619 81.9249 25.1234 81.1842 23.4254 77.6314C22.2233 75.1164 21.7564 74.6041 20.0869 73.9686C18.4941 73.3622 18.4668 73.3244 18.5123 71.7872C18.5417 70.7976 18.4632 70.3092 18.2124 69.9197C17.7118 69.1426 16.9088 69.2073 16.1507 70.0858ZM17.6862 71.9012C17.741 72.8022 17.898 73.6503 18.0427 73.8272C18.185 74.0011 18.9089 74.3795 19.6513 74.6681C21.3039 75.3107 21.7095 75.7737 22.9354 78.4181C24.5028 81.7992 25.6103 82.7093 28.1669 82.7173C30.4861 82.7246 31.1779 83.1536 31.1779 84.5842C31.1779 85.3617 30.4701 86.1038 29.7284 86.1038C28.642 86.1038 22.3537 82.44 21.8968 81.5409C21.7368 81.2266 21.5063 80.3116 21.3845 79.5079C21.2625 78.7041 21.0421 77.8081 20.8949 77.5168C20.522 76.7797 19.7231 76.1861 18.9374 76.0621C18.5718 76.0046 17.9515 75.9062 17.5591 75.8433C16.5292 75.6788 15.7305 74.8004 15.7321 73.8341C15.7342 72.2406 16.643 70.1085 17.2684 70.2294C17.5233 70.2788 17.6084 70.619 17.6862 71.9012ZM60.5162 73.0881C59.3593 73.5988 58.6012 74.322 58.2545 75.2455C57.9374 76.0904 57.9389 76.1666 58.286 76.8772C58.8051 77.9402 59.522 78.4111 60.5966 78.3944C62.3435 78.3675 63.6361 77.0607 63.6361 75.3213C63.6361 73.1539 62.3892 72.2615 60.5162 73.0881ZM62.5496 74.0124C62.9023 74.5247 62.9487 75.7277 62.6419 76.4127C62.218 77.3591 60.5024 77.8795 59.5376 77.3543C58.9866 77.0543 58.7465 76.1393 59.0368 75.4462C59.6659 73.9444 61.8805 73.0403 62.5496 74.0124ZM53.2315 78.7712C52.2599 79.0475 50.8132 80.3735 50.5299 81.2473C49.875 83.266 51.5693 85.3539 53.8621 85.3539C55.189 85.3539 56.38 84.6136 57.1676 83.2992C57.6525 82.4901 57.7092 80.9773 57.2861 80.1447C56.6862 78.9642 54.7997 78.3252 53.2315 78.7712ZM55.5022 79.6169C56.7394 80.1429 57.1345 81.4311 56.4854 82.8227C56.0894 83.672 55.6233 84.0914 54.7273 84.4047C53.1975 84.9399 51.4954 83.988 51.2095 82.437C51.0197 81.4078 51.574 80.5573 52.8713 79.8867C54.0655 79.2694 54.5645 79.2182 55.5022 79.6169Z" fill="black"/>
</svg>
