<svg width="100" height="100" viewBox="0 0 100 100" fill="none" xmlns="http://www.w3.org/2000/svg">
<path fill-rule="evenodd" clip-rule="evenodd" d="M34.7569 1.37606C32.7563 2.15907 30.3563 4.20594 29.7569 5.64071C29.5151 6.21942 29.5087 6.60711 29.7137 8.20711C30.063 10.9317 30.0098 17.8075 29.6194 20.4159C29.1325 23.6688 29.0753 23.7931 27.4208 25.1938L25.9622 26.4288L24.3876 24.9009C23.5216 24.0606 22.2294 22.67 21.5163 21.8106C19.9417 19.913 19.7762 19.7739 19.0854 19.7661C16.9844 19.7421 14.1753 23.5302 14.7167 25.6575C14.7798 25.905 15.3702 26.7667 16.0288 27.5723L17.2264 29.0372L15.1081 29.1384C12.7835 29.2495 12.4641 29.3645 11.5325 30.4257C9.70144 32.5108 9.45456 36.0979 11.0991 36.7181C11.387 36.8266 13.0288 36.9688 14.7475 37.0341C16.4663 37.0995 18.1092 37.2038 18.3987 37.2661L18.9247 37.3794L18.5286 38.3841C17.8262 40.1649 17.1874 42.861 17.0639 44.5645C16.8624 47.3491 17.4735 49.2202 18.8817 50.1309L19.4858 50.5216L19.386 52.7677C19.1003 59.188 21.2044 64.6188 26.5745 71.3224C27.478 72.4503 31.035 76.2296 34.4788 79.7208C41.6036 86.9438 41.3887 86.6415 43.079 91.8302C45.4313 99.0513 46.8735 100.189 52.2665 99.0755C61.5106 97.1677 70.4631 86.5972 75.5233 71.6153C78.9368 61.5095 79.5934 52.195 77.4135 44.8063C77.1366 43.8677 76.8692 42.9583 76.8192 42.7856C76.7573 42.5722 77.0044 42.3097 77.5901 41.9663C78.7567 41.2827 80.6399 39.2311 81.352 37.8686C81.6727 37.255 82.0063 36.7528 82.0936 36.7524C82.1807 36.7522 83.0391 36.9784 84.001 37.2552C85.109 37.5739 85.9567 37.7128 86.3145 37.6343C87.1524 37.4503 88.2575 36.2628 88.9407 34.8122C89.4301 33.7735 89.5458 33.2753 89.5487 32.1946C89.5518 30.9722 89.5061 30.82 89.0042 30.388C88.4858 29.9415 88.3198 29.9161 85.928 29.9161H83.3999V29.0688V28.2214L85.4995 27.8686C88.0053 27.4477 88.234 27.3456 88.5922 26.4888C89.219 24.9888 88.6895 22.7304 87.3942 21.3784C86.9178 20.8813 86.4145 20.5411 86.1553 20.5411C85.9153 20.5411 84.742 20.8225 83.5483 21.1667L81.3774 21.7921L80.9725 21.2282C80.7501 20.9179 80.2874 20.3458 79.9444 19.9567C79.5362 19.4934 79.1133 18.6126 78.7198 17.405C78.3893 16.3905 77.996 15.3411 77.8458 15.0729C77.5819 14.6016 77.6001 14.572 78.3868 14.194C79.6567 13.5837 80.1772 12.4764 80.1772 10.3848C80.1772 8.97664 80.1032 8.59246 79.6889 7.85321C78.9337 6.50496 78.5122 6.35086 76.3315 6.62625C75.328 6.75301 73.6864 7.06981 72.6838 7.33016L70.861 7.8036L69.6151 7.23875C68.9299 6.92801 68.2356 6.67391 68.0721 6.67391C67.8256 6.67391 67.7749 6.33719 67.7749 4.70145C67.7749 2.76883 67.7631 2.71825 67.1983 2.19051C66.446 1.48758 65.0792 1.10438 63.3803 1.12C61.7256 1.13504 60.5424 1.45184 59.819 2.07313C59.313 2.5077 59.2725 2.65848 59.1811 4.45907L59.0835 6.38094H58.3999H57.7163L57.6186 4.4575C57.5253 2.61922 57.4958 2.51395 56.9528 2.08153C56.1579 1.44871 54.8264 1.10536 53.2241 1.12C51.4717 1.13602 50.2786 1.48387 49.5799 2.1825C49.0434 2.71903 49.0249 2.8036 49.0249 4.70575C49.0249 6.38114 48.9784 6.67391 48.7118 6.67391C48.1505 6.67391 45.245 8.1577 44.0124 9.07371L42.8085 9.96864L42.1932 8.44227C41.2413 6.08094 39.9132 3.98036 38.3899 2.42723C36.8276 0.834261 36.4331 0.720003 34.7569 1.37606ZM36.0446 3.10946C35.2839 4.34813 32.2905 6.4786 31.311 6.4786C30.4655 6.4786 32.9421 4.0034 34.6335 3.15828C36.1592 2.39578 36.4899 2.38446 36.0446 3.10946ZM55.519 2.96844C55.8143 3.10731 56.0561 3.28075 56.0561 3.3536C56.0561 3.62703 54.9421 3.98797 53.81 4.08153C52.3313 4.20379 50.2237 3.65203 50.6274 3.24852C51.286 2.58973 54.3419 2.41473 55.519 2.96844ZM65.6753 2.96844C65.9706 3.10731 66.2124 3.28075 66.2124 3.3536C66.2124 3.62703 65.0983 3.98797 63.9663 4.08153C62.4876 4.20379 60.3799 3.65203 60.7837 3.24852C61.4422 2.58973 64.4981 2.41473 65.6753 2.96844ZM39.3606 6.26512C39.8331 7.06102 40.5294 8.48641 40.9081 9.4327L41.5969 11.1534L40.5923 12.4782C39.327 14.1464 38.4094 16.0675 37.8596 18.1997L37.4311 19.8622L36.0503 20.1962C35.2907 20.38 33.8067 20.9569 32.7524 21.4788C31.059 22.3165 30.8471 22.3798 30.9364 22.0214C31.4577 19.93 31.7354 12.0964 31.3876 9.29911L31.2405 8.1159L32.3063 7.77996C33.7286 7.33153 35.545 6.09227 36.6762 4.79813L37.5991 3.74266L38.0505 4.28055C38.2987 4.57645 38.8883 5.46942 39.3606 6.26512ZM53.3217 5.59969C54.02 5.59969 54.921 5.52977 55.3237 5.44442C56.0458 5.29129 56.0561 5.29754 56.0561 5.89344C56.0561 7.28446 56.9262 8.0411 58.5262 8.0411C59.2772 8.0411 59.5188 7.93778 60.0796 7.37704C60.5919 6.86473 60.7436 6.55028 60.7436 6.00106V5.28895L61.476 5.44442C62.4139 5.64325 64.5378 5.64422 65.47 5.44618L66.1924 5.29266L66.2512 6.41629C66.3147 7.62938 66.3753 7.69598 67.9579 8.29422L68.6294 8.54793L67.3719 9.00438C66.6805 9.25555 65.3756 9.80145 64.4725 10.2175L62.8301 10.9741L61.277 10.6796C55.9272 9.66454 50.009 11.678 46.718 15.6325C45.7883 16.7497 44.1421 19.7065 44.1421 20.2593C44.1421 20.7194 43.819 20.7386 42.6792 20.3464C42.0641 20.1348 41.0005 19.9044 40.3155 19.8341C39.0967 19.7093 39.0723 19.6956 39.1819 19.196C40.2456 14.3493 43.7292 10.2587 48.2868 8.50497C50.5159 7.64715 50.4825 7.67801 50.5485 6.41629L50.6073 5.29266L51.3298 5.44618C51.727 5.53055 52.6235 5.59969 53.3217 5.59969ZM78.4573 8.837C78.9237 10.1755 78.5838 12.6309 77.9319 12.6309C77.4833 12.6309 77.102 11.2276 77.2094 9.97157C77.3733 8.05848 77.9903 7.49735 78.4573 8.837ZM75.769 8.86981C75.4063 10.1345 75.5647 11.5263 76.2547 13.1401C76.3538 13.3716 76.2194 13.5239 75.744 13.72C74.6254 14.1811 71.8194 16.1733 70.7649 17.255C69.1491 18.9124 68.4692 20.2638 67.0862 24.5682C66.3905 26.7331 65.4612 29.2243 65.0206 30.1042C62.8813 34.3784 58.9835 36.1429 54.0087 35.0891C49.546 34.1438 47.4833 31.0489 48.5383 26.8809C50.3573 19.6944 60.6817 12.0884 72.9237 8.9159C74.335 8.55008 75.5934 8.24754 75.7202 8.24364C75.8876 8.23836 75.9008 8.41004 75.769 8.86981ZM60.101 12.1036C60.2534 12.2003 59.7741 12.5915 58.7542 13.2026C54.1928 15.936 50.063 19.9216 48.3618 23.2319L48.0329 23.872L46.7612 22.7436C45.311 21.4569 45.3008 21.3919 46.2311 19.319C46.8913 17.8477 48.1575 16.205 49.4745 15.111C50.7317 14.0667 53.6454 12.6343 55.0796 12.3554C55.6704 12.2405 56.3296 12.1118 56.5444 12.0696C57.2676 11.9272 59.8626 11.952 60.101 12.1036ZM61.5249 15.8897C58.835 17.5167 55.2749 20.2729 55.2749 20.7284C55.2749 21.5159 56.3342 21.8309 56.8587 21.1991C57.3294 20.6317 60.012 18.6747 61.9155 17.5098C63.6704 16.4358 64.2592 15.9649 64.2592 15.6348C64.2592 15.405 63.6674 14.8766 63.4153 14.8811C63.2885 14.8835 62.4379 15.3374 61.5249 15.8897ZM76.6626 16.2848C76.9217 16.8442 77.1038 17.3321 77.067 17.3688C77.0301 17.4056 76.4653 17.2554 75.8116 17.0352C75.1579 16.8149 74.4665 16.6325 74.2753 16.6298C74.0741 16.627 74.3768 16.3384 74.9924 15.9462C75.5782 15.5729 76.0876 15.2677 76.1245 15.2677C76.1612 15.2677 76.4034 15.7255 76.6626 16.2848ZM76.112 18.7995C77.3717 19.4077 78.7342 20.7126 79.6905 22.2264C80.5879 23.6475 80.676 23.6733 82.6186 23.0802C83.3169 22.8669 83.9419 22.6919 84.0075 22.6911C84.0731 22.6901 84.178 23.1233 84.2409 23.6534C84.3036 24.1835 84.5356 24.9909 84.7563 25.4479C84.977 25.9048 85.1577 26.2919 85.1577 26.3083C85.1577 26.3245 84.5206 26.4501 83.7417 26.5872C82.9628 26.7243 82.2159 26.9249 82.0815 27.0331C81.7518 27.2985 81.7434 30.9159 82.0717 31.2442C82.2163 31.3888 82.9249 31.4786 83.919 31.4786H85.5317L84.9608 32.686C84.6467 33.3501 84.3329 34.2729 84.2631 34.7368C84.1936 35.2007 84.0989 35.5802 84.0526 35.5802C84.0063 35.5802 83.403 35.4382 82.712 35.2645C82.0211 35.0911 81.3401 34.9934 81.1987 35.0475C81.0573 35.1018 80.6188 35.7995 80.2243 36.5977C79.4057 38.2538 78.2817 39.6171 77.0172 40.487C76.538 40.8167 76.1301 41.0561 76.1108 41.0188C76.0915 40.9817 75.7885 40.3737 75.4376 39.6677C73.6889 36.1497 71.0186 32.9552 67.6129 30.3067L66.985 29.8184L68.3286 25.7167C70.0827 20.3612 70.9094 18.8046 72.2249 18.379C73.1141 18.0915 75.0874 18.305 76.112 18.7995ZM19.1403 21.8595C19.1364 22.9608 17.2694 25.4239 16.4382 25.4239C15.9266 25.4239 16.2915 24.053 17.1258 22.8403C17.5792 22.1813 18.6253 21.3339 18.9956 21.3257C19.076 21.3239 19.1413 21.5639 19.1403 21.8595ZM41.4702 21.6143C43.4434 22.1284 45.7005 23.5391 46.7491 24.9141C47.2215 25.5333 47.2262 25.5739 46.9598 26.7065C46.8098 27.3438 46.6858 28.4388 46.6842 29.1395C46.6815 30.2825 46.5932 30.5681 45.8286 31.9098C41.8835 38.8327 34.7489 45.1856 27.6747 48.0751C23.2772 49.8712 19.9635 49.8532 19.0163 48.028C17.9741 46.0206 18.8034 41.2509 21.0044 36.5925C25.793 26.4567 34.788 19.8739 41.4702 21.6143ZM53.2772 22.6806C52.3061 23.8149 52.0278 24.405 52.2764 24.8018C52.7262 25.5194 53.2645 25.3073 54.1919 24.0477C54.6801 23.3845 55.0796 22.77 55.0796 22.6819C55.0796 22.4272 54.4909 21.9083 54.2018 21.9083C54.0569 21.9083 53.6407 22.2557 53.2772 22.6806ZM87.0014 23.6229C87.3354 24.6028 87.4026 25.7319 87.137 25.896C86.502 26.2884 85.3016 22.8061 85.8743 22.2333C86.1106 21.997 86.6915 22.713 87.0014 23.6229ZM22.7733 25.5104C23.9981 26.7397 24.9174 27.7966 24.8165 27.8589C24.6128 27.9848 22.3987 30.8872 22.1022 31.4173C21.8561 31.8569 21.7827 31.7932 19.2835 28.9764C17.921 27.4409 17.3753 26.6964 17.5653 26.6331C18.1114 26.4511 19.4858 25.0194 19.9446 24.1546C20.201 23.6712 20.4415 23.2755 20.4788 23.2755C20.5161 23.2755 21.5487 24.2811 22.7733 25.5104ZM13.9507 31.1929C14.2936 32.5593 12.5292 35.7872 11.7147 35.2839C11.129 34.9218 11.8229 32.3977 12.7899 31.3722C13.5487 30.5679 13.7846 30.5313 13.9507 31.1929ZM19.7749 31.8179C20.2862 32.3214 20.7526 32.8847 20.8112 33.0696C20.8915 33.3222 20.1274 35.0265 19.6133 35.7419C19.588 35.777 18.3846 35.6966 16.9391 35.5628L14.3108 35.3196L14.668 34.7143C15.1673 33.8682 15.6839 31.7339 15.5339 31.1364L15.4089 30.638L17.127 30.77L18.8454 30.9022L19.7749 31.8179ZM69.4448 34.1001C73.7604 38.4278 76.1626 43.6891 76.9462 50.5296C78.0182 59.8874 74.4975 73.2825 68.2803 83.5009C66.3665 86.6464 64.4305 89.1417 62.1212 91.4395C58.0817 95.4589 54.1112 97.5288 49.9038 97.8089C47.2057 97.9886 46.684 97.3796 44.7444 91.7864C42.604 85.6151 43.0016 86.1948 36.135 79.2325C32.8507 75.9024 29.3903 72.255 28.4452 71.127C24.2833 66.16 21.9624 61.7395 21.1895 57.3067C20.8915 55.5981 20.8061 52.6993 21.0219 51.6202C21.1387 51.0358 21.185 51.0099 22.1044 51.0099C24.1524 51.0099 28.0329 49.8679 30.419 48.563C30.8745 48.314 31.2803 48.1694 31.3212 48.2417C31.362 48.314 31.4569 48.9444 31.5319 49.6427C31.9182 53.2386 33.476 58.7958 34.9538 61.8497C36.0161 64.045 37.5387 66.3087 38.9217 67.7491C40.1003 68.9763 40.5354 69.1868 40.978 68.7442C41.3921 68.3302 41.2364 67.9903 40.0296 66.6733C38.5426 65.0507 37.5169 63.5059 36.4372 61.2638C35.4311 59.1747 34.5116 56.6739 34.7495 56.6739C34.8424 56.6739 35.6805 56.8948 36.612 57.1645C39.4321 57.9819 40.9794 58.9329 41.9243 60.4298C42.2731 60.9821 42.5167 61.1739 42.8139 61.1296C44.6262 60.8591 42.7362 58.1104 39.7475 56.67C38.2757 55.9606 35.4717 55.1114 34.6012 55.1114C34.3846 55.1114 34.1598 54.9575 34.1016 54.7696C33.7755 53.7155 32.8106 48.2229 32.8155 47.4468C32.8163 47.3116 33.1557 47.0079 33.5698 46.7714C37.7592 44.3798 43.9563 38.1429 46.6979 33.5593C47.0612 32.952 47.4038 32.46 47.4592 32.4657C47.5147 32.4716 47.8303 32.8874 48.1608 33.3897C50.0215 36.219 55.3055 37.6727 59.6702 36.5565C62.1512 35.922 63.9545 34.6294 65.4678 32.4011L66.2344 31.2723L66.8581 31.702C67.2012 31.9384 68.3651 33.0175 69.4448 34.1001ZM88.0278 32.4419C87.8973 33.5419 87.2993 34.845 86.5645 35.629C85.8407 36.4015 85.6725 36.3073 85.8032 35.2028C85.9336 34.1028 86.5317 32.7997 87.2665 32.0157C87.9903 31.2432 88.1585 31.3374 88.0278 32.4419ZM62.3112 38.8516C58.5454 42.6442 56.618 46.7509 56.3122 51.6347L56.1936 53.529L55.0018 54.2636C52.4428 55.8407 49.9557 58.937 49.0432 61.6821C48.21 64.1882 48.0366 66.8927 48.6831 67.2977C49.3604 67.722 49.695 67.2208 49.8573 65.5399C50.1704 62.294 51.3809 59.5634 53.4049 57.5372C54.5618 56.3792 56.1766 55.1667 56.3419 55.3319C56.3872 55.3774 56.6003 56.2032 56.8153 57.1673C57.0303 58.1313 57.4717 60.0626 57.796 61.4591C59.1905 67.462 59.8715 73.0735 59.7165 77.2794C59.5712 81.222 58.7768 84.1485 57.3413 86.0306C56.7866 86.7577 56.7165 87.139 57.0717 87.4942C57.485 87.9075 57.9616 87.7474 58.5532 86.9962C62.1907 82.3774 62.2538 73.5923 58.7559 58.7247C57.5258 53.4958 57.5319 50.5723 58.7803 46.9434C59.6676 44.3641 60.9475 42.4153 63.3315 40.0134C64.4864 38.8499 65.4311 37.7895 65.4311 37.6569C65.4311 37.2973 65.0126 36.9473 64.5823 36.9473C64.3608 36.9473 63.4124 37.7427 62.3112 38.8516Z" fill="black"/>
</svg>
