<svg width="100" height="100" viewBox="0 0 100 100" fill="none" xmlns="http://www.w3.org/2000/svg">
<path fill-rule="evenodd" clip-rule="evenodd" d="M19.0287 8.70025C13.4438 10.5839 8.13974 14.1017 4.24009 18.5091C2.48449 20.4933 0 24.1799 0 24.8008C0 25.6428 0.756185 26.3688 1.63357 26.3688C2.53268 26.3688 2.78895 26.1304 4.18839 23.9902C7.84066 18.4047 13.6628 13.9886 20.2823 11.7829C22.6061 11.0085 23.1654 10.6025 23.1654 9.68954C23.1654 8.95652 22.9461 8.58546 22.3232 8.26321C21.5393 7.85782 21.5178 7.86072 19.0287 8.70025ZM21.0131 15.0048C18.5749 15.8302 15.5609 17.397 13.4837 18.9185C10.0689 21.4201 6.21991 25.9858 6.51816 27.1815C6.79677 28.2976 7.87065 28.8742 8.76913 28.3902C9.03802 28.2454 9.82895 27.3666 10.5266 26.4373C13.4887 22.4917 17.7794 19.4895 22.6022 17.9879C25.1487 17.1951 25.9169 16.071 24.726 14.8802C24.0519 14.206 23.2969 14.2314 21.0131 15.0048ZM26.3713 20.7101C21.4168 21.7221 17.9257 23.536 14.6976 26.7757C8.66489 32.8301 6.54257 41.1779 8.79354 49.9996L8.93874 50.5684L5.24489 50.5715C1.22197 50.5748 0.71399 50.6869 0.239927 51.6758C-0.0850087 52.3532 0.212418 53.3418 0.84202 53.6788C1.04741 53.7886 3.23488 53.8782 5.72599 53.8786L10.2383 53.8796L11.0569 55.4815C14.2997 61.8278 20.5796 68.3433 27.9708 73.0308C32.1532 75.6832 37.5958 78.2062 42.8547 79.9305C45.3856 80.7606 45.5237 80.7829 46.6812 80.5529C48.3642 80.2182 49.2827 79.7353 49.5202 79.0598C49.7888 78.2949 49.4705 77.4481 48.765 77.0522C48.263 76.7705 48.0752 76.7722 46.9339 77.0696L45.6621 77.401L42.9931 76.4934C30.5605 72.2651 20.1828 64.6178 14.9349 55.817L13.8401 53.9812L17.2309 53.8777C19.3992 53.8116 20.7279 53.6858 20.9165 53.5288C21.0786 53.394 21.5293 52.626 21.918 51.8224C22.3068 51.0189 22.6824 50.3616 22.7526 50.3616C22.8229 50.3616 23.7027 53.1304 24.708 56.5149C25.7132 59.8993 26.6625 62.8761 26.8179 63.1303C27.3505 64.0012 28.8932 64.0012 29.4579 63.1303C29.6225 62.8761 30.5235 59.3175 31.46 55.2222C32.3968 51.1268 33.2229 47.7054 33.2959 47.6187C33.3691 47.5321 34.1443 49.859 35.0186 52.7896C36.1738 56.6605 36.7281 58.2169 37.0456 58.4798C37.6094 58.9466 38.728 58.9466 39.1408 58.4798C39.3168 58.2808 40.1231 56.7914 40.9322 55.1704L42.4036 52.2231H43.8173H45.231L45.4886 53.1021C46.0931 55.1663 47.8971 57.1943 50.0087 58.184C51.0565 58.6753 51.4394 58.7383 53.3675 58.7383C55.4079 58.7383 55.6294 58.6961 56.9192 58.0612C60.1969 56.4474 62.1166 52.7573 61.4743 49.3042C60.7972 45.6621 58.225 43.1352 54.5425 42.494C50.6426 41.8148 46.3297 44.5826 45.4255 48.3449L45.2888 48.9137H43.1668C40.5696 48.9137 40.3932 49.0161 39.3113 51.1525C38.794 52.174 38.4645 52.6295 38.3873 52.4299C38.3213 52.2593 37.4758 49.467 36.5082 46.2249C35.5407 42.9828 34.6424 40.1251 34.5121 39.8747C33.9946 38.88 32.4042 38.8688 31.7813 39.8554C31.6164 40.1165 30.709 43.7042 29.7646 47.8278C28.8204 51.9517 27.9933 55.3256 27.9269 55.3256C27.8603 55.3256 27.111 52.9774 26.2613 50.1072C25.4118 47.2371 24.5561 44.7264 24.3599 44.5278C23.8084 43.97 23.0297 43.8556 22.4351 44.2451C22.107 44.4602 21.3632 45.6919 20.4232 47.5774L18.9319 50.5684H15.6875H12.4433L12.1016 49.5398C11.205 46.8404 10.9504 42.977 11.4727 39.9953C13.4992 28.4231 24.3479 21.1825 34.0649 24.9167C37.427 26.2087 41.0627 29.3648 43.4351 33.0508C45.3796 36.0718 46.1825 36.0511 48.2618 32.9263C53.6897 24.7686 61.9312 21.84 69.3928 25.4176C74.6923 27.9586 78.2324 32.6289 79.9777 39.3818C80.4356 41.1529 80.4797 41.6621 80.3918 44.1565C80.3219 46.1374 80.1651 47.3997 79.8521 48.5001C78.2719 54.0562 75.4199 58.5447 70.1545 63.7617C67.3056 66.5846 67.178 66.7463 67.3006 67.3813C67.4634 68.2239 68.1149 68.7698 68.9582 68.7698C69.4825 68.7698 69.9903 68.4428 71.469 67.153C77.3139 62.0545 81.1436 56.2261 82.8485 49.8348C83.5193 47.3201 83.765 42.5583 83.3671 39.7835C82.4043 33.07 78.0717 26.4927 72.4357 23.1888C64.7154 18.6624 55.8993 20.0509 49.1075 26.8625C48.0738 27.8992 46.9095 29.1445 46.52 29.63L45.812 30.5125L44.2136 28.5741C39.8995 23.3424 34.3692 20.5237 28.572 20.6015C27.5892 20.6147 26.5988 20.6635 26.3713 20.7101ZM55.3281 46.1099C57.1796 46.8834 58.2084 48.5133 58.2175 50.6879C58.2229 51.9627 58.1427 52.283 57.5979 53.1646C57.2098 53.7921 56.5868 54.4151 55.9593 54.8031C55.0631 55.357 54.7648 55.429 53.3631 55.429C51.9614 55.429 51.6632 55.357 50.767 54.8031C47.9472 53.0597 47.6239 49.0767 50.1285 46.9329C51.5947 45.6778 53.5522 45.368 55.3281 46.1099ZM91.5986 47.6541C91.1542 48.0138 91.1039 48.2368 91.0392 50.1361L90.9682 52.2231L89.0742 52.2297C87.1097 52.2365 86.7211 52.3705 86.2834 53.1919C85.9115 53.8904 85.9916 54.272 86.6475 54.9278C87.2268 55.5072 87.3302 55.5324 89.1295 55.5324H91.0069V57.2808C91.0069 58.2423 91.112 59.26 91.2406 59.5419C91.7091 60.5705 93.365 60.7285 94.0107 59.8062C94.2263 59.4987 94.3162 58.8111 94.3162 57.4706V55.5711L96.4032 55.5001C98.3025 55.4354 98.5255 55.3851 98.8852 54.9407C99.4354 54.2608 99.3888 53.347 98.7725 52.7308C98.3044 52.2626 98.111 52.2231 96.2905 52.2231H94.3162V50.2488C94.3162 48.4283 94.2767 48.2349 93.8085 47.7668C93.1923 47.1505 92.2785 47.1039 91.5986 47.6541ZM81.9815 59.0837C81.3027 59.4124 81.0789 60.1498 81.0789 62.0574V63.8058H79.1601C77.8024 63.8058 77.1135 63.8951 76.8051 64.1113C75.8828 64.757 76.0408 66.4129 77.0694 66.8814C77.3513 67.01 78.3689 67.1151 79.3305 67.1151H81.0789V68.8635C81.0789 69.825 81.1839 70.8427 81.3126 71.1246C81.7811 72.1532 83.437 72.3112 84.0827 71.3889C84.2982 71.0814 84.3882 70.3938 84.3882 69.0534V67.1538L86.4752 67.0828C88.3745 67.0181 88.5975 66.9678 88.9572 66.5234C89.5073 65.8435 89.4608 64.9297 88.8445 64.3135C88.3764 63.8453 88.183 63.8058 86.3624 63.8058H84.3882V61.8315C84.3882 60.011 84.3487 59.8176 83.8804 59.3495C83.3462 58.8153 82.7176 58.7272 81.9815 59.0837ZM51.8865 69.165L51.3982 69.5603L51.3393 77.4814C51.2766 85.9014 51.3171 86.3128 52.2493 86.7374C52.8971 87.0328 59.5324 87.0533 60.2972 86.7623C60.6106 86.6431 60.9469 86.2878 61.0801 85.9349C61.3118 85.321 61.3254 85.3165 62.9255 85.3165H64.5373L71.0563 88.6467C76.0983 91.2222 77.6903 91.948 78.0827 91.8495C79.1338 91.5856 98.5658 81.1556 99.115 80.5606C100.335 79.2385 100.29 77.414 99.0043 76.0567C97.9056 74.8964 97.5098 74.8823 91.2975 75.7827L85.7326 76.5893L85.3198 76.0406C84.7328 75.2604 83.97 74.574 83.2506 74.1783C82.7373 73.8962 81.8243 73.8258 77.9644 73.7718L73.2986 73.7065L72.9044 72.9745C72.3813 72.0034 71.1372 70.9614 70.146 70.6646C69.6559 70.5177 67.7675 70.4245 65.2838 70.4245C61.7589 70.4245 61.2228 70.3823 61.2228 70.1049C61.2228 69.9291 60.9943 69.5568 60.715 69.2776C60.2118 68.7741 60.1733 68.7698 56.2911 68.7698C52.7439 68.7698 52.3288 68.807 51.8865 69.165ZM57.9135 77.8705V83.6618H56.2588H54.6041V77.8705V72.0791H56.2588H57.9135V77.8705ZM69.6563 74.1483C69.9009 74.3762 70.2 74.9297 70.3208 75.3781C70.4416 75.8267 70.7833 76.3848 71.0803 76.6183C71.5914 77.0204 71.8894 77.0431 76.6692 77.0431H81.7182L82.2258 77.5509C82.7766 78.1015 82.8858 78.9994 82.4684 79.5431C81.8946 80.2904 81.3955 80.3525 75.9606 80.3525C70.87 80.3525 70.5864 80.373 70.1582 80.7719C69.2697 81.5997 69.3777 82.6831 70.4164 83.3636C70.8383 83.6401 71.7267 83.6769 76.6659 83.6221C82.1298 83.5617 82.4665 83.5352 83.2703 83.1052C84.2534 82.579 85.3767 81.3728 85.6718 80.5258C85.7908 80.1845 86.0648 79.8977 86.3221 79.8447C87.3745 79.6275 96.2057 78.4504 96.2681 78.5189C96.306 78.5605 92.159 80.8015 87.0524 83.4992L77.7677 88.4039L77.0965 88.025C76.7271 87.8165 74.0052 86.4073 71.0474 84.8935L65.6697 82.1412L63.4463 82.0512L61.2228 81.9614V77.8475V73.7338H65.217C68.9282 73.7338 69.2428 73.7632 69.6563 74.1483Z" fill="black"/>
</svg>
