<svg width="100" height="100" viewBox="0 0 100 100" fill="none" xmlns="http://www.w3.org/2000/svg">
<path fill-rule="evenodd" clip-rule="evenodd" d="M52.913 0.276896C50.0457 1.1875 47.8494 3.0862 46.5743 5.75655L45.7701 7.44053L45.6606 12.96C45.5392 19.0793 45.4831 19.3403 44.0589 20.4267C42.2911 21.7752 39.6087 21.1652 38.4572 19.1533C38.2816 18.8464 38.1587 16.952 38.0836 13.3929C37.9734 8.18058 37.9617 8.07127 37.3989 6.99898C36.7972 5.85287 35.3175 4.34227 34.2688 3.80395C33.9279 3.62885 33.1126 3.37517 32.4572 3.2401C29.4162 2.61348 26.1794 4.32928 24.8093 7.29421C24.3554 8.27647 24.3396 8.59292 24.2771 17.9925L24.2126 27.6786H17.5206C11.126 27.6786 10.8186 27.6973 10.6045 28.0973C10.4734 28.3425 10.3805 30.168 10.3805 32.5009C10.3805 37.1892 10.3862 37.2024 12.3998 37.2024H13.6273L13.6305 55.9795C13.634 76.6648 13.6089 76.2371 14.9797 78.849C15.3604 79.5743 16.3089 80.8122 17.0872 81.5996C19.3751 83.9144 22.0658 85.0399 25.3009 85.0354C28.3238 85.0312 30.8708 84.1079 32.9056 82.2784C33.4684 81.7724 33.9864 81.3583 34.0565 81.3583C34.1264 81.3583 34.4699 81.9252 34.8197 82.6183C38.4124 89.7349 45.7541 95.9074 53.6706 98.4667C62.3721 101.28 72.297 100.178 80.2195 95.5202C88.0892 90.8932 93.7349 83.0222 95.7039 73.9315C96.3509 70.9447 96.4052 64.3016 95.8067 61.3444C94.4652 54.715 91.4206 48.9726 86.8002 44.357C83.1862 40.7468 79.5208 38.4059 74.7204 36.6429L72.5018 35.828V30.1299V24.4319H74.0312C76.5243 24.4319 76.3979 24.6849 76.3979 19.6888C76.3979 16.3804 76.3318 15.3392 76.1102 15.1553C75.9236 15.0005 74.0766 14.8959 70.8613 14.8581L65.9 14.7998L65.7745 11.2284C65.6695 8.24205 65.5695 7.45352 65.1645 6.41456C64.0082 3.44941 61.3738 1.08187 58.3243 0.267156C56.9747 -0.0932342 54.0624 -0.0880394 52.913 0.276896ZM59.1749 2.86023C60.6552 3.53794 62.1139 5.01196 62.9113 6.63577C63.4888 7.81196 63.5227 8.04833 63.5918 11.3908L63.6645 14.9081H57.4847C51.5963 14.9081 51.2944 14.9278 51.0808 15.3267C50.9505 15.5704 50.8567 17.3592 50.8567 19.6076C50.8567 24.4862 50.8297 24.4319 53.25 24.4319H54.9693V30.1408V35.8494L52.9825 36.5434C50.3924 37.4477 47.7517 38.7851 45.2446 40.462C43.2756 41.7791 39.708 45.0901 37.9119 47.2674L37.0191 48.3496L37.0115 42.776L37.0039 37.2024H38.2314C40.2537 37.2024 40.2507 37.2096 40.2507 32.3421C40.2507 29.4076 40.1749 28.1224 39.9909 27.9384C39.8002 27.7477 37.9611 27.6786 33.0645 27.6786H26.3978L26.3991 18.5336C26.3998 12.5873 26.4831 9.08577 26.637 8.52279C26.9898 7.23382 28.6279 5.73188 30.055 5.38967C32.0991 4.89919 34.2628 5.81543 35.2883 7.6059C35.7942 8.48902 35.8173 8.71434 35.9217 13.7176C36.0459 19.6814 36.1831 20.2094 38.0314 21.8362C40.9935 24.4438 45.5444 23.4228 47.2059 19.7782C47.5448 19.0343 47.6013 18.3029 47.6069 14.5834C47.6141 9.68707 47.8238 7.96673 48.6002 6.43447C50.5539 2.57906 55.16 1.02235 59.1749 2.86023ZM72.137 4.30352C70.6256 4.91261 71.1442 7.33231 72.7862 7.33231C74.2214 7.33231 74.7838 5.57408 73.6691 4.57257C73.0847 4.04768 72.8671 4.00936 72.137 4.30352ZM15.2409 5.69919C14.5178 6.42214 14.5342 7.37949 15.2799 7.96586C16.2043 8.69313 17.1255 8.52733 17.6351 7.54205C18.0379 6.76305 17.7201 5.7598 16.9613 5.41413C16.1669 5.05222 15.8325 5.10763 15.2409 5.69919ZM87.4853 6.55504C85.7031 7.13664 84.4176 8.21413 83.6046 9.80785C81.4838 13.9656 84.5792 19.0206 89.2461 19.0206C91.0676 19.0206 92.3563 18.462 93.7524 17.0674C94.7327 16.0882 95.0557 15.5845 95.3483 14.5778C96.2422 11.5024 94.8953 8.3704 92.0879 6.99681C90.679 6.30763 88.7974 6.1269 87.4853 6.55504ZM91.0171 8.82149C93.4011 9.90417 94.2721 13.1278 92.7041 15.065C91.542 16.5007 91.042 16.7479 89.2989 16.7479C87.9957 16.7479 87.6007 16.6596 86.9686 16.2263C85.7849 15.4152 85.2022 14.4024 85.0989 12.9769C84.8647 9.73707 88.0732 7.48426 91.0171 8.82149ZM74.4024 19.6159L74.4632 22.2674H63.7422H53.0212V19.5598V16.852L63.6814 16.9083L74.3416 16.9643L74.4024 19.6159ZM3.59156 20.5516C2.80281 21.1719 2.80281 22.2806 3.59156 22.9009C3.9052 23.1477 4.3303 23.3496 4.53636 23.3496C5.26234 23.3496 6.05152 22.5042 6.05152 21.7263C6.05152 20.9483 5.26234 20.1029 4.53636 20.1029C4.3303 20.1029 3.9052 20.3048 3.59156 20.5516ZM70.3373 30.7836C70.3373 37.8615 70.2901 37.6379 71.8524 37.9596C72.8836 38.1719 76.0217 39.3873 77.6132 40.1908C80.0989 41.4455 82.995 43.5715 85.1816 45.7464C89.3652 49.9079 91.7974 54.2048 93.3308 60.1438C93.8823 62.2799 93.9894 63.1602 94.0818 66.315C94.2455 71.9085 93.4693 75.7572 91.2379 80.4146C88.152 86.8557 83.4911 91.5858 77.0916 94.7709C72.8511 96.8812 68.5595 97.8512 63.5236 97.8371C55.5565 97.8148 48.3872 94.949 42.7026 89.5144C40.1396 87.0641 38.2539 84.568 36.6862 81.5509L35.4708 79.2118L35.9136 78.3436C36.9619 76.289 37.0039 75.7245 37.0039 63.7102V52.4299L38.3468 50.3899C41.9264 44.9507 48.2405 40.2356 54.5922 38.2583C55.9476 37.8362 56.7812 37.457 56.9191 37.1994C57.0468 36.9607 57.1338 34.2912 57.1338 30.615V24.4319H63.7355H70.3373V30.7836ZM87.6533 28.1115C87.4128 28.352 87.2204 28.833 87.2204 29.1938C87.2204 29.5546 87.4128 30.0356 87.6533 30.276C87.8937 30.5165 88.3747 30.7089 88.7355 30.7089C89.0963 30.7089 89.5773 30.5165 89.8178 30.276C90.0583 30.0356 90.2507 29.5546 90.2507 29.1938C90.2507 28.833 90.0583 28.352 89.8178 28.1115C89.5773 27.8711 89.0963 27.6786 88.7355 27.6786C88.3747 27.6786 87.8937 27.8711 87.6533 28.1115ZM44.9167 29.2421C44.1461 30.3421 44.8158 31.7912 46.0948 31.7912C46.9624 31.7912 47.61 31.1118 47.61 30.2014C47.61 29.2771 47.0457 28.7609 46.0359 28.7609C45.4727 28.7609 45.1591 28.8957 44.9167 29.2421ZM38.0862 32.3323V35.0379H25.3156H12.545V32.3323V29.6267H25.3156H38.0862V32.3323ZM34.7898 56.5206L34.7312 75.8388L34.0353 77.3081C31.0316 83.6494 22.9673 84.9113 18.2372 79.7799C16.2489 77.6228 15.7918 75.9685 15.7918 70.9293V67.0726H18.5903C21.6043 67.0726 22.0688 66.9174 22.0688 65.91C22.0688 65.0135 21.7115 64.9081 18.6706 64.9081H15.7918V63.2847V61.6613H17.5883C19.5546 61.6613 19.9043 61.4925 19.9043 60.5434C19.9043 59.7204 19.3753 59.4968 17.4294 59.4968H15.7918V57.9817V56.4665H18.4491C21.3444 56.4665 22.0688 56.2345 22.0688 55.307C22.0688 54.407 21.7136 54.302 18.6706 54.302H15.7918V52.6786V51.0553H17.4294C19.4013 51.0553 19.9043 50.8354 19.9043 49.973C19.9043 49.1107 19.4013 48.8908 17.4294 48.8908H15.7918V47.2674V45.644H18.6706C21.7136 45.644 22.0688 45.539 22.0688 44.639C22.0688 43.7115 21.3444 43.4795 18.4491 43.4795H15.7918V40.341V37.2024H25.3201H34.8485L34.7898 56.5206ZM5.75606 59.9455C4.63009 60.8312 5.25 62.7436 6.66321 62.7436C8.07576 62.7436 8.7526 60.8161 7.64567 59.9455C7.33204 59.6988 6.90693 59.4968 6.70087 59.4968C6.49481 59.4968 6.0697 59.6988 5.75606 59.9455ZM53.9953 62.4405C50.7853 62.8345 49.3206 63.11 47.1682 63.7252C44.4714 64.496 40.7318 66.0157 40.4184 66.4683C40.1004 66.9271 40.4359 70.5734 41.0007 72.7999C43.0773 80.9862 49.5857 87.499 57.9266 89.7373C59.8095 90.2425 60.4688 90.3098 63.6273 90.3187C66.6885 90.3274 67.4736 90.257 69.1238 89.8261C76.1801 87.9834 81.4329 83.7544 84.6156 77.354C86.045 74.4791 86.674 72.3107 87.0054 69.1137C87.1909 67.3245 87.1738 66.9256 86.8927 66.4966C86.4418 65.8083 86.0585 65.8531 83.9494 66.8403C77.7108 69.7607 71.5561 70.2877 67.9563 68.2098C67.4206 67.9005 66.3492 67.0388 65.5753 66.2947C63.7427 64.5321 62.0654 63.5414 59.9981 63.0003C58.3554 62.5702 55.2771 62.2832 53.9953 62.4405ZM58.231 64.7825C60.5853 65.2027 62.0628 65.9875 64.1654 67.9356C67.302 70.8414 69.9518 71.7754 74.4334 71.5551C77.2676 71.4154 80.0955 70.7702 83.0208 69.5957L84.8907 68.8449L84.742 70.1589C84.5334 72.0033 83.6602 74.6533 82.5496 76.8128C79.8875 81.989 75.2221 85.7906 69.3632 87.5568C67.5976 88.089 67.0805 88.1455 63.8437 88.159C60.7552 88.1717 60.0236 88.1061 58.4325 87.6728C49.7756 85.3161 43.3619 77.8973 42.5104 69.2561L42.36 67.7302L43.3487 67.3063C44.797 66.6856 48.1424 65.6165 49.8827 65.2183C53.1808 64.4639 55.7059 64.3321 58.231 64.7825ZM46.8121 68.5769C46.4327 68.8083 46.0188 69.191 45.8922 69.4278C45.5466 70.0737 45.6149 71.5618 46.0186 72.1778C47.0589 73.7652 49.6816 73.6957 50.5284 72.0581C51.7974 69.6042 49.1675 67.1408 46.8121 68.5769ZM56.5885 70.6211C56.2292 70.7776 55.6308 71.2525 55.2587 71.6763C52.9011 74.3613 54.4764 78.3429 58.0301 78.6812C59.4563 78.8172 60.7758 78.2107 61.7686 76.9631C62.3221 76.2672 62.4359 75.9139 62.5 74.6903C62.5688 73.3797 62.5137 73.1442 61.9223 72.2234C61.0942 70.9334 59.9431 70.3163 58.387 70.3278C57.7572 70.3325 56.9481 70.4644 56.5885 70.6211ZM59.1797 72.5737C60.0678 72.9449 60.3805 73.4763 60.3805 74.6148C60.3805 75.3102 60.2526 75.5832 59.7145 76.036C57.7738 77.6689 55.1686 75.2386 56.7308 73.2527C57.1429 72.7289 57.7929 72.3204 58.2771 72.281C58.3702 72.2737 58.7764 72.4053 59.1797 72.5737ZM73.9379 75.9628C73.1492 76.5832 73.1492 77.6918 73.9379 78.3122C74.2515 78.5589 74.6766 78.7609 74.8827 78.7609C75.6087 78.7609 76.3979 77.9154 76.3979 77.1375C76.3979 76.3596 75.6087 75.5141 74.8827 75.5141C74.6766 75.5141 74.2515 75.7161 73.9379 75.9628ZM63.4511 80.3836C62.6401 81.0661 62.4526 81.8003 62.8476 82.746C63.4539 84.1966 65.2375 84.4817 66.2959 83.2973C66.8355 82.6932 66.9063 82.4719 66.8035 81.7068C66.5708 79.9706 64.7812 79.2644 63.4511 80.3836ZM6.10866 84.7258C5.57489 85.0457 4.9539 85.681 4.62273 86.2462C4.13009 87.0867 4.0658 87.4033 4.14264 88.6085C4.21559 89.754 4.34654 90.1451 4.88333 90.82C5.86688 92.0561 7.19502 92.6696 8.5987 92.5362C12.1675 92.1968 13.7515 88.2189 11.3892 85.5282C10.5351 84.5555 9.62186 84.1715 8.16883 84.1741C7.33225 84.1756 6.77944 84.3237 6.10866 84.7258ZM9.78528 87.0102C10.9881 88.2871 10.29 90.141 8.51689 90.3787C6.18636 90.6914 5.26061 87.3644 7.42143 86.441C8.32078 86.0566 9.05303 86.233 9.78528 87.0102ZM26.9292 90.9806C26.2433 91.6663 26.2522 92.4877 26.9533 93.1888C27.403 93.6386 27.6394 93.7183 28.195 93.607C29.1401 93.418 29.5147 92.9754 29.5147 92.0477C29.5147 90.5847 27.9647 89.9449 26.9292 90.9806Z" fill="black"/>
</svg>
