<svg width="100" height="100" viewBox="0 0 100 100" fill="none" xmlns="http://www.w3.org/2000/svg">
<path fill-rule="evenodd" clip-rule="evenodd" d="M10.9909 0.219254C9.08311 0.585229 8.28523 0.859258 6.69362 1.6946C4.05325 3.0804 1.78721 6.28625 0.771397 10.0727C0.204342 12.187 0.145989 17.2976 0.663027 19.576C1.13799 21.6691 1.87871 23.8157 2.68335 25.432C3.27204 26.6142 3.37743 27.032 3.37783 28.1857C3.37902 30.227 3.75315 34.0062 4.08858 35.3651C4.53337 37.1661 5.46543 37.9838 8.13121 38.9127C10.4923 39.7351 14.7013 40.1304 16.304 39.6801C16.9574 39.4966 17.115 39.5394 17.9986 40.1409C19.9594 41.4755 23.7624 42.3429 27.7902 42.3747C29.3588 42.3869 30.6151 42.293 31.2066 42.1191C32.1202 41.8507 32.1575 41.8573 32.7944 42.4006C33.1533 42.7065 33.7408 43.0815 34.1 43.2337C35.9044 43.9984 43.4833 44.5382 46.7078 44.1319C47.806 43.9933 48.7478 43.746 49.2384 43.467L50.0199 43.0229L50.7939 43.463C51.2479 43.7209 52.2537 43.9968 53.2253 44.1299C56.391 44.5631 64.6343 43.962 66.1098 43.1903C66.4039 43.0365 66.9265 42.6706 67.2711 42.3775C67.8792 41.8597 67.9247 41.8521 68.8331 42.1191C69.4246 42.293 70.681 42.3869 72.2495 42.3747C76.2773 42.3429 80.0803 41.4755 82.0411 40.1409C82.9248 39.5394 83.0823 39.4966 83.7357 39.6801C85.3385 40.1304 89.5474 39.7351 91.9085 38.9127C94.5743 37.9838 95.5063 37.1661 95.9511 35.3651C96.2866 34.0062 96.6607 30.227 96.6619 28.1857C96.6623 27.032 96.7677 26.6142 97.3564 25.432C98.161 23.8157 98.9017 21.6691 99.3767 19.576C99.8937 17.2976 99.8354 12.187 99.2683 10.0727C98.2082 6.12103 95.9492 3.01235 93.0839 1.5617C90.4993 0.253181 89.1568 0.0341579 83.7613 0.0403813C79.556 0.0451994 78.7847 0.101009 75.9214 0.607713C69.9545 1.66348 63.1249 3.65577 57.3328 6.02989C53.6318 7.54699 52.5193 7.81921 50.0199 7.81921C47.5323 7.81921 46.4387 7.55341 42.8292 6.07165C37.0649 3.70515 30.0763 1.66107 24.2176 0.627789C21.6518 0.175288 20.4163 0.0739073 16.7746 0.0162908C13.6749 -0.0324925 11.997 0.0263286 10.9909 0.219254ZM21.4702 2.65882C27.942 3.49115 35.466 5.6071 42.8879 8.68185C45.7994 9.88799 47.3035 10.2186 49.9206 10.2285C52.8333 10.2393 53.7878 10.008 58.4894 8.15126C65.1053 5.53844 71.2913 3.78044 77.3108 2.80236C80.4634 2.29003 87.8911 2.29586 89.6998 2.8118C92.4045 3.5835 94.252 4.9679 95.5371 7.18583C96.9769 9.67077 97.6992 13.7226 97.2943 17.0443C97.0876 18.7388 96.3977 21.8395 96.1296 22.2783C96.0694 22.3767 95.8469 22.0647 95.635 21.5849C94.9222 19.9711 93.6708 19.0135 91.7231 18.5909C89.5601 18.1217 86.3745 19.3588 84.3256 21.4635C83.6792 22.1276 83.1266 22.6369 83.0978 22.5951C83.069 22.5536 82.8795 22.1336 82.6767 21.6618C82.1759 20.4975 80.8808 19.3383 79.5994 18.9079C78.0275 18.3799 75.1934 18.5594 73.3412 19.3046C71.6237 19.9954 69.7324 21.326 68.7575 22.5293L68.0199 23.4399L67.4561 22.3773C66.7527 21.0519 65.5314 19.9054 64.1119 19.2377C61.8975 18.196 58.3816 18.4437 55.6416 19.8344C53.3888 20.9777 50.9827 23.6413 50.3876 25.6508C50.26 26.0816 50.0945 26.4342 50.0199 26.4342C49.9452 26.4342 49.7797 26.0816 49.6521 25.6508C49.057 23.6413 46.6509 20.9777 44.3981 19.8344C41.6532 18.4413 38.1355 18.195 35.9278 19.2417C34.4365 19.9488 33.3158 20.9865 32.6458 22.2812L32.0835 23.3672L30.7803 22.037C28.5853 19.7962 25.8127 18.6047 22.7939 18.6047C20.1128 18.6047 18.0764 19.791 17.2799 21.8168C17.1281 22.2033 16.978 22.5536 16.9467 22.5951C16.9151 22.6369 16.3606 22.1276 15.7141 21.4635C13.6652 19.3588 10.4796 18.1217 8.31659 18.5909C6.36891 19.0135 5.1175 19.9711 4.40476 21.5849C4.19278 22.0647 3.97029 22.3767 3.91015 22.2783C3.6287 21.818 2.94594 18.7081 2.73972 16.9485C2.1147 11.6139 4.08084 6.1407 7.38076 4.02937C8.26558 3.46324 10.147 2.80497 11.5621 2.56647C13.3278 2.26896 18.8394 2.32035 21.4702 2.65882ZM11.8573 21.6195C13.3445 22.3093 14.6665 23.6254 15.4043 25.1507L15.9424 26.2631L15.9616 31.7668C15.9769 36.1784 15.9283 37.2908 15.7163 37.3731C15.571 37.4295 14.7973 37.4757 13.9971 37.4757C11.3718 37.4757 7.70269 36.5265 6.8135 35.6175C5.63096 34.4083 5.4311 25.2182 6.53325 22.7282C7.40378 20.7616 9.20101 20.3872 11.8573 21.6195ZM92.3952 21.3836C93.2975 21.8981 93.8403 23.2201 94.0983 25.5308C94.3369 27.668 94.2268 31.3494 93.8502 33.8241C93.6555 35.1043 93.5482 35.3519 93.0111 35.7608C92.2624 36.3309 90.8959 36.8128 88.954 37.1916C87.5249 37.4702 84.8446 37.5754 84.3234 37.3731C84.1115 37.2908 84.0632 36.179 84.0797 31.7636L84.1005 26.2567L84.6591 25.1016C86.209 21.8975 90.0549 20.0492 92.3952 21.3836ZM25.3904 21.3942C27.6574 22.1079 29.4233 23.5832 30.5123 25.6741C31.0575 26.7208 31.0655 26.7869 31.0895 30.5496C31.1028 32.6475 31.1401 35.5307 31.1721 36.9569C31.2274 39.42 31.2098 39.5577 30.8212 39.7032C29.9629 40.0242 27.6139 40.1134 25.7061 39.8972C21.9267 39.4691 19.2064 38.4943 18.6683 37.3753C18.283 36.5743 18.1411 30.6422 18.4404 27.8591C19.0343 22.3376 19.8883 21.0148 22.8602 21.0142C23.6011 21.014 24.7132 21.181 25.3904 21.3942ZM42.4776 21.5841C44.6369 22.4357 46.6423 24.4493 47.4265 26.553C48.3588 29.054 48.9374 33.953 48.776 37.9775C48.7184 39.4129 48.6111 40.7371 48.5374 40.9202C48.2445 41.6487 47.308 41.7925 42.9738 41.7744C40.1344 41.7626 38.2159 41.6548 36.9552 41.4365C33.5467 40.8461 33.5002 40.7457 33.4917 33.9625C33.4806 25.1527 34.1102 22.7818 36.8069 21.4797C37.6953 21.0509 38.023 21.0034 39.5997 21.0738C40.7951 21.1272 41.747 21.2961 42.4776 21.5841ZM63.2793 21.5337C65.9304 22.87 66.5377 25.1945 66.5262 33.9625C66.5194 39.2096 66.389 40.0543 65.4814 40.7355C64.6214 41.3807 61.5346 41.7579 56.9666 41.7758C52.4606 41.7937 51.7169 41.6501 51.4563 40.7124C51.3759 40.4229 51.3157 38.4242 51.3227 36.2711C51.3487 28.3409 52.6021 24.6077 55.9734 22.4195C58.2393 20.9489 61.3667 20.5697 63.2793 21.5337ZM79.5292 21.5261C81.063 22.654 81.6652 25.641 81.6723 32.1557C81.6781 37.4963 81.6279 37.7035 80.1447 38.4477C77.931 39.5587 73.0167 40.3087 70.4638 39.9255C69.6691 39.8062 68.9601 39.6352 68.8887 39.5456C68.817 39.4561 68.8079 36.5371 68.8682 33.0591L68.9778 26.7353L69.529 25.6741C70.595 23.6218 72.351 22.135 74.5841 21.394C76.158 20.8717 78.7329 20.9405 79.5292 21.5261ZM12.0111 59.6297C11.4653 59.7718 10.7267 60.043 10.3697 60.2326C9.04977 60.9328 8.14073 62.8763 8.14073 64.9979C8.14073 65.6704 7.91725 66.1151 6.75813 67.7484C1.47759 75.1894 -0.861492 83.0395 0.28552 89.471C1.26422 94.9603 4.03221 98.1382 9.06525 99.5513C10.458 99.9422 11.1227 99.9894 15.3852 99.9994C19.0325 100.008 20.6836 99.9261 22.4312 99.6501C28.0621 98.7609 35.05 96.8656 40.4901 94.7523C45.3459 92.8658 46.2023 92.649 49.2438 92.5343C52.7273 92.4033 54.1194 92.6865 58.8169 94.4813C64.9018 96.806 70.3285 98.3428 76.3184 99.4375C79.0363 99.9341 79.7364 99.9821 84.3568 99.9886C88.9504 99.995 89.5591 99.9556 90.9457 99.5624C94.1972 98.6403 96.0532 97.3755 97.6096 95.0219C99.3886 92.3314 100.171 89.0244 99.9688 85.0544C99.6768 79.3297 97.4687 73.6428 93.2111 67.6488C92.1171 66.1086 91.899 65.6682 91.899 64.9987C91.899 63.6546 91.504 62.2315 90.8949 61.3811C89.8352 59.9015 88.0999 59.3579 84.4358 59.3579C81.8216 59.3579 79.784 59.7508 78.7809 60.4482L78.1047 60.9183L77.3241 60.5168C76.7197 60.2059 76.0028 60.0916 74.1484 60.0107C70.1514 59.8361 66.4408 60.4606 64.9058 61.5662L64.3259 61.9839L63.4746 61.5264C62.7082 61.1145 62.2978 61.0619 59.3603 60.9984C55.2224 60.9091 52.5411 61.2215 51.0901 61.9619L50.0199 62.5079L48.9497 61.9619C47.4873 61.2157 44.7711 60.9009 40.6552 61.0004C37.7665 61.0701 37.3243 61.1275 36.5651 61.5312L35.7139 61.9839L35.1339 61.5662C33.5989 60.4606 29.8883 59.8361 25.8913 60.0107C24.0276 60.092 23.322 60.2053 22.7113 60.5202C21.9533 60.9115 21.9094 60.9131 21.4345 60.566C20.3244 59.7548 19.0658 59.4928 15.9807 59.431C14.0141 59.3916 12.6667 59.4591 12.0111 59.6297ZM19.5529 62.274L20.3462 62.6703L20.3551 65.782C20.3601 67.4934 20.4885 69.8114 20.6408 70.933C20.9798 73.4334 20.7974 74.2376 19.5892 75.5686C17.7197 77.6283 15.0361 78.0244 13.7442 76.4312C12.1327 74.4442 10.7898 70.2072 10.5874 66.472C10.3575 62.2259 10.9117 61.7491 15.9807 61.8322C18.286 61.8699 18.8945 61.9452 19.5529 62.274ZM88.2924 62.2411C89.1886 62.7233 89.5172 63.6161 89.5172 65.5676C89.5172 69.8441 87.4001 75.986 85.5433 77.0953C84.2262 77.8823 81.9242 77.1923 80.4505 75.5686C79.2424 74.2376 79.06 73.4334 79.399 70.933C79.5512 69.8114 79.6812 67.5187 79.6879 65.8382C79.6963 63.7893 79.7769 62.7055 79.9325 62.5481C80.4662 62.0082 82.0794 61.7725 84.853 61.8292C87.0523 61.8739 87.7694 61.9599 88.2924 62.2411ZM32.0575 62.8612C33.4897 63.2485 34.2717 63.7849 34.162 64.3047C34.1185 64.5098 34.0738 66.846 34.0627 69.496L34.0423 74.3141L33.4838 75.4182C32.8456 76.6802 31.1913 78.4763 30.2521 78.927C29.2831 79.3922 27.869 79.3175 26.9125 78.7505C25.4614 77.8903 23.9722 75.2741 23.3587 72.5073C22.9151 70.507 22.572 66.8711 22.6601 65.1061C22.7436 63.4344 23.1869 62.6798 24.1923 62.4971C25.3449 62.2877 30.8855 62.5442 32.0575 62.8612ZM76.7594 63.0251C77.2371 63.5083 77.3123 63.7596 77.379 65.094C77.4676 66.8697 77.1256 70.502 76.681 72.5073C76.0675 75.2741 74.5783 77.8903 73.1272 78.7505C72.1707 79.3175 70.7566 79.3922 69.7876 78.927C68.8484 78.4763 67.1941 76.6802 66.556 75.4182L65.9974 74.3141L66.0492 70.299C66.0778 68.0907 66.0195 65.787 65.9194 65.1798C65.6975 63.8307 65.8934 63.5402 67.356 63.0487C68.8776 62.5376 70.2679 62.3969 73.389 62.4379C76.1836 62.4746 76.2215 62.4812 76.7594 63.0251ZM47.1973 63.7839C48.5795 64.1796 48.8294 64.6825 48.827 67.0638C48.8242 69.6728 48.4947 73.497 48.1071 75.4182C47.3884 78.9796 44.9275 81.3583 42.3867 80.9476C40.08 80.5746 37.7143 77.8092 36.9496 74.5919C36.5767 73.022 36.2712 68.7951 36.3816 66.7288C36.5004 64.5028 36.7678 63.8953 37.7648 63.5848C38.6351 63.3137 46.1059 63.4713 47.1973 63.7839ZM62.1785 63.5848C62.589 63.7 63.0647 64.0106 63.2358 64.2746C63.9567 65.3873 63.7387 72.3714 62.8958 75.1715C61.6855 79.1922 58.7585 81.5968 55.9921 80.8434C54.936 80.5559 53.4609 79.2085 52.7501 77.8823C51.8588 76.2192 51.2175 71.6995 51.2127 67.048C51.2101 64.388 51.4307 64.076 53.5925 63.6811C55.3786 63.3549 61.1303 63.2903 62.1785 63.5848ZM9.22721 72.2062C10.278 75.946 12.1633 78.8365 14.0199 79.5536C15.9981 80.3178 18.9344 79.4967 20.9105 77.6271L22.1417 76.4622L22.7808 77.6287C24.1856 80.194 26.3756 81.6926 28.6994 81.6792C30.8273 81.6667 32.7006 80.5469 34.5583 78.1768L35.3072 77.2212L35.955 78.4508C38.1695 82.6532 42.2933 84.4504 45.7853 82.7347C47.0554 82.1106 49.0291 80.0215 49.5435 78.7564C49.7509 78.2463 49.9653 77.8287 50.0199 77.8287C50.0744 77.8287 50.2888 78.2463 50.4962 78.7564C51.0148 80.0314 52.9832 82.1094 54.2808 82.7514C57.732 84.4594 61.8764 82.6414 64.0847 78.4508L64.7325 77.2212L65.4814 78.1768C69.3206 83.0748 74.2316 82.8568 77.2258 77.6554L77.9062 76.4734L79.1334 77.6327C81.114 79.504 84.0442 80.3168 86.0359 79.5475C87.9054 78.8252 89.7451 75.997 90.8121 72.2049C91.6626 69.1824 91.5052 69.2759 92.6703 71.102C94.7394 74.3452 96.4507 78.4233 97.1773 81.8424C97.6648 84.1368 97.6751 88.2599 97.1978 90.0733C95.7235 95.6745 92.4285 97.6927 84.7478 97.6994C77.0764 97.706 68.8804 95.8273 57.7606 91.5139C54.7054 90.3289 52.7218 90.0068 49.2259 90.1283C45.8943 90.2443 44.7457 90.5129 40.5806 92.1503C31.3039 95.797 22.6059 97.7056 15.2919 97.6994C8.80068 97.6937 5.54224 96.2682 3.81111 92.6765C2.79311 90.5643 2.49837 89.0998 2.49916 86.1586C2.49995 83.2575 2.84213 81.2459 3.81389 78.4295C4.57565 76.2212 6.07635 73.1288 7.36944 71.102C8.53472 69.2757 8.37772 69.1824 9.22721 72.2062Z" fill="black"/>
</svg>
