<svg width="100" height="100" viewBox="0 0 100 100" fill="none" xmlns="http://www.w3.org/2000/svg">
<path fill-rule="evenodd" clip-rule="evenodd" d="M27.5463 0.4396C26.933 0.752009 26.5538 1.1285 26.2354 1.74023L25.7874 2.60145V18.3749V34.1485L24.4617 33.6087C22.6161 32.8574 20.567 32.4251 18.2195 32.292L16.2176 32.1785V28.2123C16.2176 23.9488 16.0477 22.6531 15.355 21.6318L14.9132 20.9806L15.3632 20.3238C16.1295 19.2048 16.2553 17.9624 16.1803 12.2486C16.1038 6.43008 16.0629 6.19797 14.8726 4.84185C14.5357 4.45793 13.8666 3.95874 13.3856 3.73269C12.5758 3.3519 12.1827 3.32181 8.06593 3.32572C4.17709 3.32943 3.52205 3.37495 2.83186 3.68834C1.83836 4.14005 0.537651 5.60187 0.237277 6.60513C-0.0763767 7.65275 -0.0802828 18.2434 0.232785 19.1667C0.356606 19.5319 0.624951 20.071 0.829236 20.3642C1.19992 20.8966 1.19953 20.8992 0.652879 21.8296L0.105254 22.7615V29.0136C0.105254 35.0738 0.118339 35.2903 0.533159 36.0657C1.08293 37.0934 2.07741 37.9617 3.19277 38.3878L4.07554 38.725L3.37929 39.633C2.4145 40.8912 1.06868 43.7531 0.563431 45.6207C-0.0425896 47.8603 -0.0420037 52.1762 0.564407 54.4127C1.03118 56.1349 2.20592 58.7315 3.11836 60.0583C5.72544 63.849 10.1861 66.7232 14.6228 67.4715L16.12 67.724L16.1766 69.3134L16.233 70.903L15.3954 71.1247C14.4208 71.383 13.5482 72.1235 13.1664 73.0162C12.7477 73.995 12.7731 95.5284 13.1944 96.7229C13.8408 98.5559 15.3684 99.7786 17.2558 99.9734C19.2749 100.182 21.1027 99.1555 22.1271 97.2383C22.552 96.4429 22.5667 96.2237 22.6274 89.7456L22.6897 83.0724L23.9945 83.6656C27.4234 85.2249 32.3167 86.5027 36.5008 86.9314C39.172 87.2049 60.586 87.2045 63.3977 86.9308C73.0689 85.9892 81.7377 81.8296 88.5067 74.8826C94.1618 69.0789 97.7856 62.069 99.367 53.8746C99.8818 51.2079 99.9043 50.8373 99.9043 45.0346V38.9778L99.3809 38.0498L98.8576 37.1218L99.3809 36.1937L99.9043 35.2657V29.0136V22.7615L99.3566 21.8296C98.81 20.8992 98.8096 20.8966 99.1803 20.3642C99.9351 19.2797 100.002 18.6648 100 12.817C99.9982 7.24421 99.9888 7.11194 99.5357 6.1544C98.9914 5.0046 98.0431 4.04705 97.0298 3.62445C96.032 3.2081 87.8274 3.18036 86.8474 3.59007C85.8738 3.99704 84.8467 4.9917 84.3423 6.01646C83.9083 6.89781 83.8868 7.1559 83.8245 12.2486C83.7546 17.9597 83.8815 19.2072 84.6463 20.3238L85.0963 20.9806L84.6512 21.6367C83.8849 22.7664 83.7546 24.0453 83.8245 29.7576L83.8896 35.0703L84.4432 36.0697L84.9971 37.069L84.4452 38.1211L83.8933 39.1732L83.8263 44.4951C83.7892 47.4531 83.8429 50.2084 83.9472 50.6984L84.1352 51.5797H81.3581C77.3569 51.5797 76.0279 52.0887 74.8709 54.0637C74.4301 54.8159 74.3251 55.2634 74.2577 56.6746L74.1762 58.3775L73.5657 58.2024C72.4758 57.8896 65.8339 57.9873 64.6697 58.3331C63.5347 58.6704 62.183 59.8456 61.7635 60.8602L61.5209 61.4463L57.0829 61.3806C52.441 61.3119 51.6 61.4129 50.5418 62.1655C50.0089 62.5445 50.0007 62.5445 49.4677 62.1655C48.4105 61.4135 47.5676 61.3119 42.9528 61.3806L38.5412 61.4463L38.0246 60.5204C37.357 59.3239 36.1846 58.4832 34.7785 58.1927L33.6662 57.9627L34.2039 56.5779C34.4994 55.8161 34.849 54.7534 34.9804 54.2165C35.1119 53.6796 35.237 53.2172 35.2585 53.1888C35.2798 53.1605 35.904 53.5476 36.6456 54.0489C42.5882 58.0666 50.4309 59.1242 57.4768 56.8578C65.63 54.2355 71.5223 47.7017 73.6896 38.8802C74.0846 37.2718 74.0997 36.6749 74.1694 19.9285L74.2413 2.6376L73.7821 1.76875C73.465 1.16894 73.0593 0.76041 72.4722 0.449955L71.6217 0H50.0155H28.4091L27.5463 0.4396ZM48.4423 21.0031V38.6848H50.0048H51.5672V21.0031V3.32142H61.2346H70.902V19.716C70.902 33.4664 70.8548 36.3571 70.6095 37.6399C68.9947 46.0831 62.6499 52.5687 54.1821 54.4316C51.7424 54.9683 47.5055 54.8876 45.1078 54.2591C42.488 53.5722 40.4381 52.674 38.4925 51.3603C35.9628 49.6523 35.3572 49.0234 35.3572 48.1041C35.3572 47.686 35.1853 46.6718 34.9753 45.8507C34.159 42.6576 32.6694 39.9809 30.3574 37.5537L29.1087 36.2426L29.1081 19.782L29.1075 3.32142H38.7749H48.4423V21.0031ZM11.9827 6.67469C12.7543 7.08596 12.8848 7.45757 12.8912 9.26188L12.8975 11.0017L12.1182 11.7432C11.138 12.6759 10.3556 12.8924 7.95988 12.8938C5.79927 12.8951 4.9581 12.6384 3.96246 11.6744C3.33183 11.0638 3.32773 11.0472 3.32773 9.15852C3.32773 7.33741 3.34941 7.24031 3.84235 6.85248C4.32064 6.47599 4.61066 6.44746 7.95657 6.44746C10.3185 6.44746 11.7026 6.52561 11.9827 6.67469ZM96.1672 6.85248C96.6601 7.24031 96.6818 7.33741 96.6818 9.15852C96.6818 11.0472 96.6777 11.0638 96.0471 11.6744C95.0514 12.6384 94.2103 12.8951 92.0496 12.8938C89.6539 12.8924 88.8715 12.6759 87.8913 11.7432L87.112 11.0017V9.25035C87.112 6.51233 87.2015 6.46134 92.017 6.45332C95.4043 6.44785 95.6877 6.47521 96.1672 6.85248ZM8.11261 16.0962C10.4324 16.0962 11.0023 16.0341 11.8722 15.6867L12.8975 15.277V16.8302C12.8975 18.2186 12.8467 18.4341 12.418 18.8627C11.9421 19.3391 11.9124 19.3424 8.14777 19.3424C4.60832 19.3424 4.32279 19.3156 3.84235 18.9374C3.35995 18.558 3.32773 18.4306 3.32773 16.9047V15.277L4.35306 15.6867C5.22293 16.0341 5.79282 16.0962 8.11261 16.0962ZM91.8969 16.0962C94.2167 16.0962 94.7866 16.0341 95.6565 15.6867L96.6818 15.277V16.9047C96.6818 18.4306 96.6496 18.558 96.1672 18.9374C95.6867 19.3156 95.4012 19.3424 91.8618 19.3424C88.0971 19.3424 88.0674 19.3391 87.5915 18.8627C87.1628 18.4341 87.112 18.2186 87.112 16.8302V15.277L88.1374 15.6867C89.0072 16.0341 89.5771 16.0962 91.8969 16.0962ZM12.418 23.1435C12.8561 23.5815 12.8975 23.7747 12.8975 25.3837C12.8975 27.1362 12.8944 27.1477 12.2124 27.8298C11.2365 28.8063 9.8008 29.1865 7.53725 29.0679C5.65611 28.9696 4.82061 28.6771 3.86481 27.7825C3.35194 27.3023 3.32773 27.1964 3.32773 25.4239C3.32773 23.7874 3.37792 23.5147 3.75231 23.1159C4.16869 22.6728 4.25385 22.6638 8.05793 22.6638C11.9179 22.6638 11.9413 22.6664 12.418 23.1435ZM96.2299 23.0886C96.6416 23.4756 96.6818 23.6808 96.6818 25.3966C96.6818 27.1989 96.6588 27.3013 96.1447 27.7825C95.1889 28.6771 94.3534 28.9696 92.4723 29.0679C90.2179 29.1859 88.8442 28.8215 87.8303 27.8366L87.112 27.1387V25.3807C87.112 23.7749 87.1534 23.5815 87.5915 23.1435C88.068 22.6665 88.0932 22.6638 91.9243 22.6638C95.6119 22.6638 95.7973 22.6822 96.2299 23.0886ZM4.87237 31.9677C6.62266 32.5157 10.7834 32.2928 12.5557 31.556C12.8467 31.4351 12.8975 31.5261 12.8975 32.1693C12.8975 32.9198 12.8895 32.9276 11.6638 33.3674C10.9851 33.6108 9.73967 34.2034 8.89616 34.6844C7.48901 35.4864 7.25133 35.5587 6.01898 35.5587C4.6134 35.5587 3.66384 35.2307 3.44901 34.6707C3.38241 34.4969 3.32773 33.6929 3.32773 32.8842C3.32773 31.5601 3.36171 31.4281 3.6695 31.556C3.85738 31.6342 4.39876 31.8194 4.87237 31.9677ZM88.6567 31.9677C90.407 32.5157 94.5677 32.2928 96.34 31.556C96.6492 31.4277 96.6818 31.5656 96.6818 32.9979C96.6818 34.3146 96.6168 34.6469 96.2961 34.9677C95.7221 35.5419 95.3063 35.5904 91.5217 35.5228L88.0538 35.4611L87.5829 34.9128C87.1753 34.4382 87.112 34.1667 87.112 32.8893C87.112 31.5603 87.146 31.4281 87.4538 31.556C87.6417 31.6342 88.1831 31.8194 88.6567 31.9677ZM21.2154 35.9468C23.8764 36.6153 25.8247 37.7354 27.8381 39.7549C29.8331 41.7557 30.6471 43.0198 31.5189 45.472C32.0937 47.0882 32.1277 47.3418 32.1277 50.0167C32.1277 52.6916 32.0937 52.9452 31.5189 54.5614C30.6471 57.0136 29.8331 58.2777 27.8381 60.2785C26.4301 61.6907 25.7501 62.2063 24.4203 62.87C20.2627 64.9449 15.7227 65.0322 11.628 63.116C8.59872 61.6983 6.4461 59.6252 4.88096 56.6179C3.78083 54.5043 3.32773 52.5781 3.32773 50.0167C3.32773 46.502 4.40794 43.462 6.6332 40.7126C9.95001 36.6151 16.002 34.6371 21.2154 35.9468ZM96.3088 39.2438C96.6173 39.6251 96.6818 40.0255 96.6818 41.5588C96.6818 43.3881 96.6736 43.4202 96.0637 43.9901C95.0616 44.9265 94.3233 45.1322 91.9645 45.1322C89.5679 45.1322 88.7684 44.9009 87.7468 43.9117C87.1243 43.3092 87.112 43.2633 87.112 41.5621C87.112 39.8969 87.1355 39.8035 87.6946 39.2442L88.277 38.6615L92.1065 38.7219C95.8611 38.7813 95.9432 38.7915 96.3088 39.2438ZM20.3684 48.3058L14.4634 54.213L12.6053 52.362L10.7474 50.5112L9.62756 51.6315L8.50771 52.7516L11.4325 55.6824C13.0412 57.2945 14.4468 58.6133 14.5562 58.6133C14.6656 58.6133 17.8738 55.4923 21.6857 51.6778L28.6163 44.7425L27.4447 43.5704L26.2733 42.3985L20.3684 48.3058ZM91.9946 48.3507C94.5095 48.3513 94.9325 48.3026 95.774 47.9162L96.7216 47.4811L96.6529 49.1568C96.5517 51.6213 96.6341 51.5797 91.8664 51.5797C88.0969 51.5797 88.0674 51.5764 87.5915 51.1001C87.1628 50.6714 87.112 50.4559 87.112 49.0675V47.5143L88.1374 47.9322C89.0217 48.2927 89.5519 48.3503 91.9946 48.3507ZM86.5533 55.2749C86.9976 55.6352 87.0144 55.7467 87.0144 58.3521C87.0144 60.7693 86.9687 61.1411 86.5816 61.865C85.3094 64.2449 82.415 65.1606 80.0581 63.9289C77.9911 62.8487 77.252 61.1395 77.3776 57.7288C77.4368 56.1218 77.5001 55.8497 77.918 55.405L78.3916 54.9011H82.242C85.743 54.9011 86.1342 54.9351 86.5533 55.2749ZM95.7809 55.4384C95.345 57.2797 93.9712 61.0038 92.9883 63.0093C87.5173 74.1716 77.0698 81.7804 64.8223 83.5218C61.8691 83.9419 38.1404 83.9419 35.1872 83.5218C31.4312 82.9878 28.0697 81.9834 24.5668 80.3485L22.6626 79.4597L22.6614 76.8028C22.6608 75.3415 22.5639 73.7983 22.446 73.3735C22.1667 72.3667 21.1869 71.4039 20.1608 71.1274L19.3424 70.9071V69.2538V67.6007L19.8795 67.5976C20.175 67.596 20.9146 67.4774 21.5234 67.334L22.6301 67.0734L22.7575 67.7767C23.1334 69.854 25.0781 72.3693 27.0578 73.3391C29.646 74.6069 32.3554 74.4795 34.8574 72.9724C35.4866 72.5932 36.0188 72.3065 36.0399 72.3353C36.0612 72.364 36.3274 72.8524 36.6319 73.4206C37.3551 74.7712 38.589 75.888 40.2045 76.6535C41.4115 77.2256 41.6627 77.2719 43.5598 77.2719C45.4525 77.2719 45.7099 77.2248 46.9012 76.6601C47.6109 76.3237 48.5998 75.6573 49.0984 75.1794L50.0048 74.3105L50.9112 75.1794C54.6752 78.7872 61.2076 77.7668 63.5034 73.2123C63.7321 72.7586 63.9391 72.364 63.9635 72.3353C63.988 72.3065 64.5229 72.5932 65.1521 72.9724C67.6936 74.5032 70.4065 74.6026 73.0503 73.2619C75.2525 72.1452 77.0513 69.6287 77.2882 67.3334C77.3513 66.7205 77.4563 66.2485 77.5216 66.2842C79.8581 67.5696 81.6506 67.9703 83.5208 67.6255C86.1617 67.1388 88.3411 65.4984 89.5152 63.114L90.1392 61.8468V58.3742V54.9017L93.0236 54.9015L95.908 54.9011L95.7809 55.4384ZM34.9814 61.8525C35.3993 62.2972 35.4626 62.5693 35.5218 64.1763C35.5587 65.1772 35.4861 66.4909 35.3607 67.0956C34.623 70.6496 30.2834 72.1469 27.5369 69.7952C26.6143 69.0053 26.0208 67.9328 25.861 66.7678L25.7468 65.9337L27.3455 64.8922C28.2247 64.3191 29.4864 63.2989 30.1489 62.6248L31.3535 61.399L32.9307 61.3738C34.3894 61.3505 34.5433 61.3865 34.9814 61.8525ZM73.6314 61.7345C74.1882 62.2915 74.2737 62.8428 74.1856 65.3046C74.0948 67.8428 73.7757 68.6794 72.4726 69.7952C69.7745 72.1055 65.4099 70.6587 64.6703 67.2088C64.553 66.6615 64.4571 65.3896 64.4571 64.3824C64.4571 62.6971 64.4975 62.5029 64.9627 61.9498L65.4683 61.3486H69.357C72.9685 61.3486 73.2732 61.3761 73.6314 61.7345ZM47.9004 65.018C48.3181 65.4373 48.3445 65.6182 48.3414 68.0463C48.3386 70.3033 48.2857 70.7279 47.9217 71.4131C46.022 74.9891 41.2631 75.1341 39.3561 71.6739C38.8232 70.707 38.7749 70.4503 38.7085 68.2321C38.6312 65.6426 38.799 65.0475 39.7139 64.6659C39.9495 64.5676 41.7877 64.5065 43.7991 64.5297C47.3182 64.5708 47.4727 64.5891 47.9004 65.018ZM60.8801 65.1424C61.3563 65.6965 61.3678 65.7805 61.3002 68.1708C61.2356 70.4608 61.1912 70.7005 60.6542 71.6739C58.7457 75.1321 53.9518 74.986 52.0974 71.4131C51.7676 70.7775 51.6771 70.1849 51.6195 68.2845C51.5047 64.4875 51.5598 64.4469 56.7112 64.52L60.3903 64.5723L60.8801 65.1424ZM19.3424 84.9629C19.3424 95.5118 19.336 95.6905 18.9376 96.1971C18.4136 96.8638 17.3289 96.9067 16.6695 96.2872L16.2176 95.8623V85.053V74.2435H17.78H19.3424V84.9629Z" fill="black"/>
</svg>
