<svg width="100" height="100" viewBox="0 0 100 100" fill="none" xmlns="http://www.w3.org/2000/svg">
<path fill-rule="evenodd" clip-rule="evenodd" d="M19.3501 0.551858C19.0584 0.955208 18.9507 1.72486 18.9507 3.40192C18.9507 5.44503 19.0127 5.75537 19.5122 6.20622C20.1831 6.81224 20.9392 6.85327 21.7155 6.32608C22.2419 5.96874 22.2858 5.74244 22.2858 3.38053C22.2858 1.21781 22.2132 0.758506 21.8165 0.410611C21.1287 -0.192923 19.8347 -0.118817 19.3501 0.551858ZM76.0324 5.25753C68.4381 6.61629 62.3546 11.777 60.1365 18.7427L59.5921 20.452L57.7611 20.9029C55.6392 21.4251 52.5886 22.7396 50.928 23.8469C50.2923 24.2709 49.6855 24.6178 49.5798 24.6178C49.4739 24.6178 48.6866 24.1754 47.8302 23.6346C45.9479 22.4462 43.3506 21.3838 40.7572 20.7422C39.2654 20.373 37.9975 20.2713 35.1131 20.2892C31.8458 20.3096 31.1138 20.3944 29.0968 20.9864C20.8506 23.407 14.7664 29.5421 12.7455 37.4741C12.3235 39.1315 12.1881 40.4171 12.1881 42.7711C12.1881 48.0527 13.3379 51.4053 16.9714 56.717C21.6216 63.5153 23.5685 68.7538 23.5685 74.4684C23.5685 81.6964 24.9121 90.2659 26.7933 95.038C28.0358 98.1902 30.6177 99.9593 33.9818 99.9637C35.5018 99.9657 36.0598 99.8407 37.3761 99.2033C39.1822 98.3285 40.5307 96.9354 41.1792 95.2745C41.5756 94.2596 41.6461 92.7738 41.7705 82.8077L41.9116 71.493L42.6007 70.2272C43.3686 68.8165 44.5897 67.6714 46.216 66.8373C47.8176 66.0157 51.1625 66.0333 52.9214 66.8724C54.4753 67.6137 55.9279 69.0329 56.7113 70.5746C57.2988 71.7302 57.3058 71.8526 57.4328 83.1807L57.561 94.6197L58.2545 95.8937C59.118 97.4807 60.938 99.0601 62.4955 99.5746C66.6197 100.937 70.8284 98.9372 72.4013 94.8684C74.0758 90.5362 75.0122 85.1403 75.4006 77.5855C75.5447 74.7817 75.7754 71.6633 75.9132 70.6557C76.4434 66.7714 78.5502 62.0404 82.0734 56.8212C85.4157 51.8703 86.5699 48.9795 86.8521 44.8555L87.007 42.5878L88.19 42.0328C96.6789 38.0495 101.251 28.2301 98.7246 19.4089C96.6273 12.0876 90.5207 6.67721 82.831 5.32765C80.6559 4.94594 77.9319 4.91784 76.0324 5.25753ZM12.5942 7.10045C12.1965 7.37027 12.0239 7.74154 12.0239 8.32592C12.0239 9.84955 13.1742 10.3399 16.2964 10.1472C17.6818 10.0617 18.081 9.93733 18.4719 9.46933C19.0905 8.72878 19.0766 8.17921 18.4188 7.36853C17.9134 6.74535 17.7713 6.71327 15.5258 6.71327C13.8035 6.71327 13.0098 6.81796 12.5942 7.10045ZM23.1126 7.10045C22.715 7.37027 22.5423 7.74154 22.5423 8.32592C22.5423 9.84955 23.6927 10.3399 26.8149 10.1472C28.2002 10.0617 28.5994 9.93733 28.9904 9.46933C29.6089 8.72878 29.5951 8.17921 28.9373 7.36853C28.4319 6.74535 28.2897 6.71327 26.0442 6.71327C24.322 6.71327 23.5282 6.81796 23.1126 7.10045ZM84.3702 9.16147C89.318 10.7122 93.6018 14.8666 95.1796 19.6443C95.9413 21.9513 96.0983 25.5354 95.5431 27.9536C94.4967 32.5138 91.2629 36.6104 87.0347 38.7324C84.4262 40.0414 82.3399 40.5246 79.2762 40.5293C74.5796 40.5365 71.1034 39.1245 67.6754 35.8171C64.242 32.5046 62.8136 29.2104 62.8013 24.5768C62.7892 19.9905 64.2518 16.5178 67.5607 13.2765C69.1998 11.6708 70.0628 11.0509 71.7994 10.2315C75.0206 8.71162 76.2952 8.4418 79.7524 8.54824C81.8391 8.6124 83.1906 8.79194 84.3702 9.16147ZM19.3752 10.6495C19.0422 11.0061 18.9507 11.6191 18.9507 13.4911C18.9507 15.7737 18.9802 15.9008 19.6267 16.3934C20.4766 17.0417 21.1172 17.0469 21.7727 16.4116C22.2162 15.9816 22.2858 15.5827 22.2858 13.466C22.2858 11.41 22.2106 10.9519 21.8165 10.6063C21.1939 10.0599 19.9042 10.0828 19.3752 10.6495ZM75.5278 14.0183C74.9075 14.6196 74.878 14.7783 74.878 17.5194V20.3904H71.814C67.8758 20.3904 67.9512 20.3091 67.9512 24.5601C67.9512 27.4821 67.9804 27.6529 68.581 28.2348C69.1734 28.8092 69.3779 28.8453 72.0444 28.8453H74.878V31.5919C74.878 34.1766 74.9152 34.3748 75.5078 34.949C76.1094 35.5324 76.2808 35.5595 79.356 35.5595C83.6378 35.5595 83.6006 35.5931 83.6006 31.726V28.8868L86.6707 28.804C90.6957 28.6951 90.6277 28.7593 90.7424 24.9627C90.8373 21.8195 90.5687 20.7139 89.661 20.511C89.3616 20.4438 87.9042 20.3613 86.4226 20.3275L83.7289 20.266L83.6006 17.2312C83.5157 15.2232 83.3597 14.0872 83.1396 13.8741C82.9113 13.653 81.7658 13.5262 79.4922 13.47C76.2356 13.3897 76.1666 13.3991 75.5278 14.0183ZM80.2655 19.7687C80.2655 22.297 80.325 22.6861 80.7786 23.1258C81.2321 23.5654 81.6336 23.6231 84.242 23.6231H87.1923V24.4935V25.3639H84.242C81.6336 25.3639 81.2321 25.4216 80.7786 25.8612C80.325 26.3009 80.2655 26.69 80.2655 29.2183V32.0781H79.3676H78.4696V29.3762C78.4696 27.0193 78.4017 26.5906 77.9378 26.0191C77.4188 25.3795 77.3362 25.3639 74.4744 25.3639H71.5429V24.4935V23.6231H74.4832C78.4345 23.6231 78.4696 23.5888 78.4696 19.7217V16.9089H79.3676H80.2655V19.7687ZM40.1158 24.1205C42.4999 24.7116 44.4315 25.5357 46.5295 26.8569C47.3761 27.3901 48.5306 27.8951 49.095 27.9794C50.175 28.1406 50.0832 28.1764 54.1438 26.0132C55.631 25.2211 58.4397 24.1205 58.9741 24.1205C59.0721 24.1205 59.2209 25.0438 59.3045 26.1721C59.675 31.1729 62.4249 36.2538 66.5659 39.5888C68.3478 41.0239 72.0123 42.8405 74.3649 43.4547C75.6027 43.778 76.9991 43.8884 79.7845 43.8837L83.5365 43.8774L83.4166 44.8784C83 48.3593 81.8984 50.9903 79.2629 54.7977C74.4003 61.8228 72.056 68.2234 72.056 74.4736C72.056 81.5787 70.4595 91.247 68.7496 94.4954C68.1816 95.5741 66.9781 96.3903 65.6292 96.6114C64.3026 96.8285 62.4213 95.968 61.6019 94.7694C61.0262 93.9274 61.0244 93.8901 61.0201 83.5791C61.0152 72.3343 60.8977 71.0896 59.6073 68.6216C57.511 64.6114 52.2733 62.0802 47.7458 62.8889C46.8122 63.0555 45.4302 63.4755 44.6744 63.8221C42.9117 64.6303 40.5396 66.76 39.663 68.3211C38.2671 70.8074 38.1917 71.5539 38.1917 82.9057C38.1917 92.9546 38.172 93.3833 37.6604 94.4076C36.7291 96.2724 34.5516 97.1085 32.5987 96.3513C31.0461 95.749 30.3439 94.7809 29.4817 92.0542C28.0748 87.6041 27.4988 83.6306 27.1571 76.0124C26.7548 67.0474 25.3205 62.8948 19.7729 54.6368C18.035 52.0496 17.2608 50.6168 16.6153 48.793C15.8005 46.4908 15.7602 46.2068 15.759 42.7711C15.7574 39.364 15.8023 39.04 16.5707 36.8904C18.5361 31.3937 22.7191 27.025 28.017 24.9366C31.5615 23.5393 36.4431 23.2101 40.1158 24.1205ZM0.523887 29.6694C-0.602356 30.8317 0.199612 32.5754 1.8605 32.5754C2.91799 32.5754 3.64325 31.8503 3.64325 30.7927C3.64325 29.2564 1.62781 28.5307 0.523887 29.6694ZM34.2037 40.1488C32.9266 41.3865 33.7065 43.3679 35.4705 43.3679C37.3638 43.3679 38.2166 41.294 36.8066 40.1185C35.9102 39.3712 34.9949 39.3816 34.2037 40.1488ZM59.0128 39.9364C57.7622 40.7857 57.7978 42.3399 59.087 43.1585C60.9985 44.3725 63.0496 41.7274 61.4208 40.1488C60.6935 39.4436 59.8487 39.369 59.0128 39.9364ZM55.0664 51.1639C54.8498 51.4031 54.4909 51.9469 54.269 52.3722C53.7541 53.3584 52.6476 53.8132 51.2997 53.5924C50.4095 53.4467 50.1789 53.5098 49.6173 54.0542C47.862 55.7556 50.1902 57.5948 53.2634 56.9346C55.5818 56.4365 57.5272 54.6244 57.8568 52.6566C57.9715 51.9718 57.8848 51.6642 57.4618 51.2541C56.8035 50.616 55.6026 50.5708 55.0664 51.1639ZM97.2753 64.9521C96.9652 65.0973 96.606 65.5099 96.4767 65.869C95.7915 67.7746 98.4562 69.1942 99.6407 67.5547C100.196 66.7871 100.105 65.9577 99.3898 65.2649C98.7156 64.6112 98.174 64.5311 97.2753 64.9521ZM86.4408 81.5934C83.8194 82.3588 82.0613 84.666 82.0613 87.3405C82.0613 88.1388 82.217 89.1519 82.4071 89.592C83.3222 91.7085 85.7145 93.2471 88.0902 93.2471C89.5435 93.2471 91.6115 92.4195 92.4997 91.482C94.6111 89.2536 94.6198 85.4272 92.5187 83.264C91.1126 81.8162 88.3131 81.0468 86.4408 81.5934ZM89.7193 85.4255C91.5728 86.9372 90.5566 89.7706 88.161 89.7706C86.8957 89.7706 86.0093 89.2006 85.6545 88.1589C85.2807 87.0608 85.545 86.1728 86.4703 85.418C87.4783 84.5959 88.7054 84.5986 89.7193 85.4255Z" fill="black"/>
</svg>
