<svg width="100" height="100" viewBox="0 0 100 100" fill="none" xmlns="http://www.w3.org/2000/svg">
<path fill-rule="evenodd" clip-rule="evenodd" d="M80.9441 0.585203C80.6876 0.907095 80.2344 1.63034 79.9371 2.19243C79.4969 3.02493 79.1546 3.35189 78.091 3.95635C76.6793 4.75885 76.1894 5.295 76.1894 6.03811C76.1894 6.83169 76.5263 7.22717 77.8369 7.9721C79.2809 8.79264 79.4849 9.00447 80.3623 10.5924C81.0524 11.8417 81.4423 12.1622 82.2722 12.1622C82.9041 12.1622 83.5826 11.4673 84.4418 9.93974C84.9406 9.05332 85.3036 8.69778 86.2616 8.15879C87.6878 7.35629 88.1563 6.84122 88.1563 6.07521C88.1563 5.13568 87.9675 4.89081 86.6774 4.15744C85.2368 3.33872 84.8517 2.94102 83.995 1.38872C83.3155 0.157095 83.0983 0 82.0745 0C81.5831 0 81.2893 0.15223 80.9441 0.585203ZM12.6032 1.28777C12.3497 1.43068 11.8764 2.02074 11.5515 2.59906C11.1091 3.38635 10.6916 3.80473 9.88947 4.26466C7.9227 5.39291 7.93088 6.63081 9.913 7.78055C10.6625 8.21534 11.084 8.64264 11.4647 9.35332C12.0615 10.468 12.6325 10.9474 13.3577 10.9429C14.0831 10.9385 14.3627 10.7007 15.0568 9.49926C15.5022 8.72838 15.9679 8.25507 16.7264 7.80244C17.9085 7.09703 18.1425 6.81284 18.1468 6.07561C18.1512 5.33635 17.6789 4.75804 16.5706 4.14487C15.8574 3.75041 15.4569 3.34338 15.0688 2.61852C14.2638 1.11568 13.5713 0.74169 12.6032 1.28777ZM84.1646 5.44764L84.9582 6.03183L84.1656 6.56494C83.7296 6.85825 83.1358 7.4621 82.8462 7.90723C82.5564 8.35217 82.264 8.71075 82.1962 8.70386C82.1286 8.69696 81.8009 8.3094 81.468 7.84237C81.1353 7.37534 80.5332 6.77514 80.1301 6.50859L79.397 6.02392L80.2614 5.44217C80.7366 5.1221 81.3665 4.49027 81.6611 4.03804L82.1966 3.21568L82.7838 4.03946C83.1067 4.49271 83.7282 5.12635 84.1646 5.44764ZM14.0466 6.7648L13.3226 7.50061L12.5906 6.76561L11.8588 6.03061L12.5611 5.29135L13.2633 4.55189L14.0171 5.29034L14.7706 6.02899L14.0466 6.7648ZM37.3536 12.567C37.1104 12.6689 36.6298 13.2594 36.2855 13.8795C35.8008 14.7523 35.4053 15.1577 34.5337 15.6752C32.6234 16.8097 32.6458 17.8733 34.6067 19.1483C35.2224 19.5485 35.8776 20.1586 36.0627 20.504C36.745 21.777 37.2987 22.2977 37.9629 22.2908C38.7678 22.2827 39.0886 22.0212 39.7886 20.802C40.1536 20.1661 40.674 19.6237 41.2466 19.2817C42.4166 18.583 42.8815 18.0714 42.8815 17.4823C42.8815 16.6918 42.5253 16.2442 41.3681 15.5803C40.5274 15.0983 40.1602 14.729 39.7968 14.0001C39.5359 13.4769 39.2028 12.9478 39.0565 12.8246C38.6508 12.4822 37.8462 12.3606 37.3536 12.567ZM38.7415 18.1283L37.995 18.8272L37.2676 18.1091L36.54 17.3909L37.2676 16.6514L37.995 15.9122L38.7415 16.6709L39.4881 17.4296L38.7415 18.1283ZM3.96544 17.9045C1.43862 18.8591 0 21.045 0 23.9299C0 26.6189 1.55929 29.5326 3.77856 30.9904C5.30514 31.9932 6.45775 32.3116 8.08146 32.1793L9.37409 32.0737V36.5046V40.9356L8.82561 41.2267C8.04915 41.639 7.25335 42.5425 6.89155 43.4226C6.6197 44.084 6.58181 46.3046 6.58181 61.5834V78.9903L7.04593 79.8838C7.68356 81.1113 8.81783 81.8849 10.1829 82.0231C11.1165 82.1178 11.4218 82.0513 12.359 81.5496C13.246 81.0746 13.5525 80.7645 14.0045 79.8854L14.5598 78.8052V61.4356V44.0662L14.0418 43.0099C13.6656 42.2427 13.2835 41.8105 12.6456 41.4304L11.7675 40.9075V35.6925V30.4774L12.4157 29.276C13.0308 28.1358 13.0639 27.9657 13.0639 25.946C13.0639 23.9741 13.0172 23.7174 12.4286 22.4548C11.1237 19.6549 8.62416 17.8028 5.99663 17.6887C5.24809 17.6562 4.3779 17.7487 3.96544 17.9045ZM77.9845 19.2454C76.5035 19.4382 75.0135 19.7431 74.6732 19.9229C73.9217 20.3199 73.4043 21.0815 73.2561 22.0097L73.1454 22.7027H70.8779C68.8762 22.7027 68.5635 22.7504 68.2115 23.1081C67.9921 23.3311 67.8126 23.696 67.8126 23.9189C67.8126 24.1419 67.9921 24.5068 68.2115 24.7297C68.5641 25.0881 68.8762 25.1352 70.904 25.1352C73.1791 25.1352 73.1977 25.139 73.1977 25.6119C73.1977 25.8742 73.3995 26.3903 73.6464 26.7588C74.4664 27.9833 74.8856 28.1591 77.8351 28.514C80.4387 28.8274 80.5655 28.8637 80.4734 29.2697C80.4201 29.504 79.9275 32.1973 79.379 35.2545C78.8303 38.3116 78.3594 40.8286 78.3325 40.8477C78.3056 40.8669 77.9035 41.0954 77.4388 41.3554C76.974 41.6155 76.3458 42.192 76.0426 42.6367L75.4913 43.4449L75.4383 61.1788L75.3852 78.9126L75.816 79.8171C76.4411 81.1292 77.6953 81.8919 79.2282 81.8919C80.7817 81.8919 81.8179 81.3444 82.5821 80.1199L83.1701 79.1773V61.4725C83.1701 44.1951 83.1605 43.7485 82.773 42.9767C82.4683 42.3694 81.4499 41.3554 80.826 41.038C80.6631 40.9551 83.0134 28.8718 83.205 28.8063C83.3319 28.7631 83.7575 28.4283 84.1506 28.0624L84.8654 27.3971L84.9317 24.1883C85.006 20.5851 84.8561 20.0025 83.6612 19.2519C82.8757 18.7587 81.7299 18.7573 77.9845 19.2454ZM25.2975 19.6393C25.115 19.7076 24.2412 20.3931 23.3558 21.1626C21.3402 22.9143 20.8611 23.8095 20.9808 25.6014C21.0512 26.6583 21.2213 27.1302 22.0505 28.57L23.0363 30.2816L23.0954 35.7152C23.1402 39.8433 23.0968 41.1487 22.9147 41.1487C22.4539 41.1487 21.3336 42.1928 20.8905 43.0354L20.4435 43.8852L20.3871 60.7971C20.3474 72.6919 20.3968 78.0333 20.5538 78.8015C20.9716 80.847 23.0224 82.3515 24.9038 81.9929C26.0745 81.7697 27.0931 81.1215 27.6733 80.2304L28.222 79.3878V61.419V43.4502L27.6733 42.6075C27.3715 42.1439 26.7656 41.5786 26.327 41.3512L25.5294 40.9377L25.5247 35.621C25.5201 30.5084 25.5019 30.2595 25.051 29.1448C24.7929 28.5073 24.3014 27.5416 23.9586 26.9988C23.3692 26.0654 23.1867 25.1568 23.4492 24.462C23.5116 24.2966 24.2639 23.5597 25.121 22.8247C25.978 22.0897 26.7241 21.3132 26.7792 21.0991C26.9962 20.2561 26.0745 19.3482 25.2975 19.6393ZM96.6443 20.1128C96.2179 20.7314 96.2446 20.9236 96.948 22.2975L97.5625 23.4971L96.7432 30.1439C96.2925 33.7995 95.8559 37.0632 95.7729 37.3964C95.668 37.8177 95.5463 36.9837 95.3736 34.66C95.2372 32.8216 94.9998 29.62 94.8462 27.5451C94.6755 25.2365 94.4491 23.4856 94.2631 23.0329C94.0957 22.6259 93.493 21.7924 92.9236 21.1802C91.8168 19.9912 91.0854 19.7548 90.4642 20.386C89.8888 20.971 90.0814 21.7383 91.0458 22.7001C92.1443 23.7959 92.2771 24.2216 92.4389 27.1622C92.5093 28.4443 92.7849 32.1811 93.0514 35.4663L93.5359 41.4394L92.9505 42.0541C91.6904 43.3774 91.746 42.478 91.7508 61.4631C91.755 77.8569 91.7743 78.792 92.1246 79.5609C92.842 81.1357 94.0203 81.8919 95.7563 81.8919C97.6008 81.8919 99.0648 80.7088 99.5181 78.8514C99.6757 78.2062 99.7238 72.9248 99.6827 60.8109C99.6193 42.1054 99.702 43.3377 98.4178 41.9595L97.7566 41.25L98.8783 32.221L100 23.1918L99.3522 21.7849C98.9958 21.0112 98.561 20.217 98.3857 20.0201C97.9345 19.5136 97.0238 19.562 96.6443 20.1128ZM45.5373 20.1671C45.3038 20.3333 44.4761 21.7826 43.6978 23.3876C42.178 26.5227 41.9804 27.4668 42.5566 28.841C42.9226 29.7136 43.4046 30.1166 45.8732 31.6123C47.025 32.3102 48.0001 32.9122 48.04 32.9504C48.0801 32.9883 47.9194 33.4255 47.683 33.9219C47.3786 34.5608 47.0952 36.0197 46.7127 38.9177L46.1724 43.0111L45.3862 43.2856C44.3783 43.6375 43.6665 44.1807 43.2447 44.92C42.7917 45.7133 31.1032 76.3196 30.8844 77.2845C30.4618 79.1496 31.8546 81.3712 33.7505 81.8565C35.2264 82.2341 36.5037 81.8482 37.5777 80.7001C38.2295 80.0032 38.5421 79.2232 45.4819 60.9684C48.0556 54.1985 50.2062 48.6596 50.2611 48.6596C50.3159 48.6596 52.4666 54.1985 55.0403 60.9684C61.9801 79.2232 62.2926 80.0032 62.9444 80.7001C64.0185 81.8482 65.2957 82.2341 66.7716 81.8565C68.6676 81.3712 70.0604 79.1496 69.6377 77.2845C69.4189 76.3196 57.7304 45.7133 57.2775 44.92C56.8557 44.1807 56.1438 43.6375 55.136 43.2856L54.3498 43.0111L53.8095 38.9177C53.4269 36.0197 53.1435 34.5608 52.8392 33.9219C52.6028 33.4255 52.4421 32.9887 52.4821 32.951C52.522 32.9135 53.4971 32.3135 54.649 31.618C57.1 30.1379 57.596 29.7227 57.9656 28.841C58.542 27.4658 58.3443 26.5233 56.82 23.3789C55.2421 20.1243 54.761 19.5809 53.8988 20.0795C52.9299 20.6404 52.9846 21.0128 54.4776 24.0193C56.3893 27.869 56.4476 27.6424 53.0035 29.7629L50.2611 31.4512L47.5187 29.7629C45.1117 28.2809 44.7683 28.0026 44.7104 27.4881C44.6642 27.077 45.0692 26.0325 46.0651 23.9941C47.5663 20.9212 47.6194 20.5835 46.6796 20.0722C46.1754 19.798 46.0401 19.8093 45.5373 20.1671ZM7.5599 20.6268C9.30847 21.4701 10.57 23.5036 10.716 25.7143C10.8337 27.4977 10.2704 28.6703 8.974 29.3412C7.85429 29.9208 7.13169 29.9143 5.88374 29.3129C2.7129 27.7849 1.41469 23.5006 3.41935 21.1802C4.40542 20.0388 5.92064 19.8363 7.5599 20.6268ZM82.5718 23.8056C82.5718 25.3295 82.4898 26.3789 82.3647 26.4574C82.0823 26.6349 76.1517 25.9364 75.8404 25.6889C75.6764 25.5586 75.5911 24.9114 75.5911 23.7967C75.5911 22.2067 75.6186 22.0956 76.0398 21.9947C76.769 21.8197 80.8053 21.3312 81.7241 21.3065L82.5718 21.2838V23.8056ZM50.6867 34.9156C50.8187 35.1665 51.169 37.196 51.4648 39.4257L52.0029 43.4798L51.2601 44.3054C50.8514 44.7596 50.4595 45.2613 50.3891 45.4202C50.2782 45.6708 50.2439 45.6708 50.133 45.4202C50.0626 45.2613 49.6709 44.7596 49.2628 44.3054L48.5209 43.4798L49.0628 39.4168C49.6998 34.6403 50.0421 33.6916 50.6867 34.9156ZM11.7056 43.8262C12.0056 44.1629 12.0784 44.6729 12.1365 46.8454L12.2065 49.4595H11.4541C10.5548 49.4595 9.97124 49.9318 9.97543 50.6565C9.98022 51.4681 10.2622 51.7486 11.202 51.8759L12.0666 51.9933V65.2997C12.0666 78.1006 12.0523 78.6225 11.6867 79.0328C11.1167 79.673 9.92397 79.6172 9.38865 78.9254C8.97779 78.3947 8.97519 78.2832 8.97818 61.5436C8.98038 48.4371 9.03662 44.5843 9.23129 44.1933C9.72791 43.1958 10.9787 43.0101 11.7056 43.8262ZM25.1162 43.4723C25.4267 43.6354 25.7363 43.9164 25.8045 44.097C25.8725 44.2774 25.9283 45.5579 25.9283 46.9423V49.4595H25.2303C24.4652 49.4595 23.7344 50.0315 23.7344 50.6305C23.7344 51.3746 24.3116 51.8919 25.1419 51.8919H25.9283V65.1523C25.9283 72.4456 25.8725 78.5605 25.8045 78.7409C25.6214 79.226 24.6112 79.69 24.0499 79.5469C23.7829 79.4788 23.4007 79.2394 23.2007 79.0146C22.8556 78.6274 22.8341 77.7365 22.7826 61.8075C22.7238 43.6251 22.7132 43.8213 23.7755 43.3881C24.4055 43.1311 24.4754 43.1354 25.1162 43.4723ZM80.4277 43.8148C80.7542 44.2071 80.7767 45.3483 80.7767 61.4415C80.7767 78.3785 80.7706 78.655 80.3778 79.0541C80.1309 79.3051 79.7131 79.4595 79.2809 79.4595C78.8487 79.4595 78.4308 79.3051 78.1839 79.0541C77.793 78.6568 77.785 78.3785 77.785 65.2703V51.8919H78.5172C78.9199 51.8919 79.4135 51.7409 79.6141 51.5565C80.454 50.784 79.7396 49.4595 78.4831 49.4595H77.785V46.8631C77.785 45.0904 77.8642 44.1659 78.0343 43.949C78.7025 43.0981 79.7805 43.0377 80.4277 43.8148ZM96.6716 43.6648L97.2313 44.1541V61.38C97.2313 78.0353 97.2187 78.6203 96.8513 79.0328C96.2813 79.673 95.0886 79.6172 94.5533 78.9254C94.1446 78.3975 94.1398 78.239 94.1398 65.1416V51.8919H94.872C95.2747 51.8919 95.7683 51.7409 95.9689 51.5565C96.8088 50.784 96.0944 49.4595 94.8379 49.4595H94.1398V46.9101C94.1398 44.3627 94.1402 44.3603 94.7228 43.7682C95.4318 43.0476 95.935 43.021 96.6716 43.6648ZM47.7953 46.1735C47.9379 46.3642 48.0574 46.7439 48.0608 47.0171C48.0707 47.7992 36.3094 78.4705 35.7823 79.0373C34.8836 80.0034 33.2403 79.3987 33.2423 78.1026C33.2429 77.7896 35.4213 71.8328 38.0831 64.8649C46.0286 44.066 45.2304 46.0129 45.9358 45.7115C46.6299 45.415 47.3645 45.5974 47.7953 46.1735ZM55.3263 46.3902C56.0786 47.9025 67.2786 77.6165 67.2796 78.1026C67.282 79.3987 65.6386 80.0034 64.7399 79.0373C64.2127 78.4705 52.4514 47.7992 52.4614 47.0171C52.4809 45.4819 54.6396 45.0096 55.3263 46.3902ZM51.6676 71.5432C51.5088 71.6453 51.101 72.21 50.7613 72.7981C50.3159 73.569 49.8502 74.0423 49.0917 74.4949C47.8697 75.224 47.6754 75.4778 47.6712 76.3503C47.668 77.0228 48.1842 77.5906 49.419 78.2735C49.7515 78.4571 50.3464 79.1206 50.741 79.7476C51.9907 81.733 53.1363 81.7379 54.2333 79.7623C54.6845 78.9503 55.0919 78.5368 55.9119 78.0601C57.8631 76.9255 57.8603 75.6039 55.9045 74.5369C55.1061 74.1015 54.7269 73.719 54.2455 72.8634C53.902 72.2534 53.4545 71.6638 53.2506 71.5529C52.7901 71.3023 52.0493 71.2979 51.6676 71.5432ZM53.2029 75.5575L53.9509 76.3176L53.2131 77.0463L52.4756 77.7751L51.755 77.025L51.0343 76.2751L51.6949 75.5619C52.0581 75.1697 52.3778 74.8373 52.4052 74.8231C52.4325 74.8089 52.7917 75.1395 53.2029 75.5575ZM81.2133 85.5483C80.9734 85.7755 80.5932 86.3275 80.3687 86.7751C80.1118 87.2867 79.6124 87.8068 79.0222 88.1767C77.6963 89.0082 77.3861 89.3731 77.3861 90.1016C77.3861 90.7932 77.724 91.1802 79.1143 92.0802C79.6283 92.413 80.1505 93.0021 80.4843 93.6256C81.5047 95.5308 82.8041 95.5282 83.9019 93.6191C84.4041 92.7453 84.8122 92.3301 85.6291 91.8615C87.5769 90.7444 87.5871 89.4643 85.657 88.3574C84.7898 87.8597 84.4039 87.4719 83.933 86.6238C83.07 85.0697 82.117 84.6927 81.2133 85.5483ZM82.8953 89.3423L83.6825 90.1034L82.9234 90.8344L82.1643 91.5653L81.4206 90.8334L80.677 90.1014L81.3751 89.3672C81.759 88.9634 82.0809 88.6213 82.0905 88.6071C82.1001 88.5929 82.4623 88.9237 82.8953 89.3423ZM17.3293 89.6453C17.1053 89.8963 16.6374 90.5508 16.2894 91.1001C15.8582 91.7808 15.278 92.3297 14.4674 92.8235C13.5645 93.3738 13.2336 93.7053 13.094 94.2003C12.8441 95.0861 13.2516 95.6766 14.7073 96.5376C15.5662 97.0456 15.987 97.4611 16.3749 98.1842C17.0874 99.5125 17.6137 100 18.3357 100C19.0918 100 19.5737 99.5652 20.3336 98.1968C20.8129 97.3336 21.1583 97.0012 22.1155 96.4829C23.9747 95.4757 24.2534 94.0671 22.7762 93.1432C22.4186 92.9196 21.8432 92.5541 21.4976 92.3311C21.1519 92.1082 20.5845 91.4326 20.2367 90.8297C19.8888 90.2271 19.4395 89.6113 19.2378 89.4615C18.676 89.0441 17.7902 89.1292 17.3293 89.6453ZM19.3258 93.6471L20.3214 94.6588L19.67 95.1639C19.3118 95.4416 18.9026 95.8896 18.7603 96.1594L18.5021 96.6499L17.4753 95.6076L16.4485 94.5651L17.349 93.6323C17.8443 93.1193 18.2677 92.6851 18.2898 92.6672C18.3122 92.6496 18.7783 93.0905 19.3258 93.6471Z" fill="black"/>
</svg>
