<svg width="100" height="100" viewBox="0 0 100 100" fill="none" xmlns="http://www.w3.org/2000/svg">
<path fill-rule="evenodd" clip-rule="evenodd" d="M51.4958 0.0264795C51.3346 0.065542 50.5436 0.204214 49.7379 0.334683C45.2112 1.0673 40.7772 3.39464 37.3182 6.85363C34.0073 10.1648 31.8762 14.0718 30.8637 18.6874C30.5456 20.1388 30.4997 21.2443 30.4997 27.4765V34.6054L31.1178 35.9101C31.9545 37.6763 33.0829 38.8484 34.7481 39.6816C35.5018 40.0585 36.2385 40.3671 36.3852 40.3671C36.5627 40.3671 36.6532 40.6124 36.6553 41.0995C36.6608 42.2818 37.1598 44.306 37.7786 45.6556C39.0063 48.3341 41.0866 50.4773 43.6833 51.7394C44.3815 52.0786 44.9827 52.3767 45.0192 52.4013C45.0555 52.4261 44.7282 52.9724 44.2917 53.6153C43.5811 54.6614 43.4102 54.7982 42.6627 54.9171C42.2036 54.9901 41.0268 55.2495 40.0477 55.4935L38.2678 55.937L38.1567 53.9626C37.8614 48.7189 35.3635 44.3579 31.0284 41.5175C28.4024 39.797 25.985 39.1062 22.5895 39.1062C19.1876 39.1062 16.7848 39.7944 14.1254 41.5306C7.99185 45.5345 5.4774 53.0013 7.92915 59.9296C8.66646 62.013 9.55689 63.4333 11.2444 65.2165C13.4477 67.545 16.4096 69.2989 18.9295 69.7671C19.3336 69.8421 19.7059 69.9712 19.7569 70.0538C19.8081 70.1364 19.4167 71.0273 18.8874 72.0335C17.6528 74.3808 16.7001 76.8892 16.0713 79.4483C15.4081 82.1472 15.219 83.7839 14.9784 88.9023C14.8672 91.2655 14.7221 94.0122 14.6557 95.0058L14.5352 96.8124H22.6639C30.2743 96.8124 30.7928 96.7905 30.7952 96.4706C30.7967 96.2827 30.9243 94.586 31.0786 92.7005C31.3588 89.2788 31.7077 87.1243 32.3102 85.0937L32.629 84.0194L32.8647 85.7394C33.1825 88.0579 33.527 92.9054 33.527 95.0585V96.8124H53.8395H74.152V94.9446C74.152 92.6886 74.4756 88.1847 74.8106 85.7773L75.0553 84.0194L75.2934 84.8007C75.8645 86.6735 76.3366 89.5345 76.5989 92.7108C76.7542 94.5907 76.8823 96.2827 76.8838 96.4706C76.8862 96.7905 77.4047 96.8124 85.0151 96.8124H93.1438L93.0233 95.0058C92.9569 94.0122 92.8118 91.2655 92.7006 88.9023C92.4651 83.8913 92.2731 82.1974 91.6377 79.5273C90.6561 75.4024 88.6264 71.0829 86.069 67.6771C84.1905 65.1751 80.869 61.9571 78.467 60.312C74.9125 57.8775 70.1967 55.913 65.9872 55.113L64.17 54.7677L63.3817 53.6069C62.9483 52.9687 62.6235 52.4261 62.6598 52.4013C62.6963 52.3767 63.2975 52.0786 63.9958 51.7394C66.5924 50.4773 68.6727 48.3341 69.9004 45.6556C70.5192 44.306 71.0182 42.2818 71.0237 41.0995C71.0258 40.6124 71.1163 40.3671 71.2938 40.3671C71.4405 40.3671 72.1772 40.0585 72.9309 39.6816C74.5961 38.8484 75.7245 37.6763 76.5612 35.9101L77.1793 34.6054V27.5741C77.1793 19.9917 77.1106 19.2689 76.0903 16.1183C74.2086 10.3077 69.8602 5.23956 64.3854 2.47589C61.1264 0.830776 58.3815 0.152065 54.5231 0.0370263C53.0192 -0.00789556 51.6569 -0.012583 51.4958 0.0264795ZM56.6981 3.27375C59.675 3.68781 63.1493 5.08156 65.6559 6.8671C66.9819 7.81163 69.6623 10.5316 70.5678 11.8515C72.9424 15.3128 74.1497 19.4773 74.1512 24.2132L74.152 26.5163L73.3219 26.0368C72.8655 25.773 72.1196 25.4482 71.6647 25.315C70.9817 25.115 70.767 24.9275 70.4342 24.2398C69.8709 23.0761 68.5653 21.9423 67.2026 21.4335C65.4342 20.7734 64.2499 19.7515 62.9215 17.7398C62.277 16.7636 61.7057 15.9653 61.652 15.9655C61.5983 15.9659 61.0756 16.6792 60.4905 17.5509C59.2958 19.3306 57.8495 20.5327 56.0319 21.2569C54.9583 21.6847 54.6258 21.7066 47.6872 21.8064C40.7499 21.906 40.429 21.9271 39.669 22.3339C38.768 22.8161 37.7225 23.8151 37.3256 24.5726C37.1444 24.9189 36.8362 25.128 36.3819 25.2132C36.0108 25.2829 35.2167 25.5872 34.617 25.8896L33.527 26.4396V24.2378C33.527 20.2862 34.1626 17.3982 35.7155 14.2929C36.8094 12.1052 37.9053 10.637 39.8018 8.81808C41.7147 6.98331 42.654 6.30773 44.7692 5.24562C48.4829 3.38097 52.5887 2.70226 56.6981 3.27375ZM65.4598 24.073C66.8543 24.7245 67.3778 25.0761 67.6034 25.5126C67.8563 26.0015 67.902 27.253 67.902 33.6901C67.902 38.0429 67.8168 41.7396 67.7026 42.3415C67.0481 45.7931 64.2569 48.7288 60.7649 49.6384C59.1231 50.0659 48.5784 50.0718 46.9436 49.646C43.5567 48.7638 40.9536 46.1691 40.076 42.8003C39.6356 41.1097 39.6333 26.9536 40.0733 26.1028C40.6569 24.9741 40.8985 24.9378 47.8239 24.9341C54.928 24.9302 55.9077 24.811 58.2188 23.6691C58.9901 23.288 60.0561 22.5919 60.5877 22.1226L61.5543 21.2689L62.5844 22.2398C63.2588 22.8753 64.252 23.5085 65.4598 24.073ZM36.652 32.7499C36.652 35.1132 36.6038 37.0468 36.5446 37.0468C36.1848 37.0468 35.228 36.3589 34.6522 35.6862C33.1959 33.9849 33.1598 31.6099 34.5645 29.9058C35.112 29.2415 36.1627 28.4554 36.5055 28.4538C36.586 28.4534 36.652 30.3866 36.652 32.7499ZM71.7983 28.7409C72.1045 28.8991 72.6573 29.3819 73.0268 29.8136C74.5194 31.5573 74.5194 33.9425 73.0268 35.6862C72.451 36.3589 71.4942 37.0468 71.1344 37.0468C71.0752 37.0468 71.027 35.1132 71.027 32.7499C71.027 30.3866 71.0752 28.453 71.1344 28.453C71.1934 28.453 71.4922 28.5825 71.7983 28.7409ZM51.5475 40.8636C48.5803 41.6626 46.4833 43.6468 46.1049 46.0132L45.977 46.8124H47.5252H49.0735L49.3188 46.1343C49.8118 44.771 51.8137 43.6874 53.8395 43.6874C55.8653 43.6874 57.8672 44.771 58.3602 46.1343L58.6055 46.8124H60.1538H61.702L61.5741 46.0132C60.9721 42.2482 55.9616 39.6747 51.5475 40.8636ZM25.2262 42.4161C29.4459 43.2944 33.2127 46.7638 34.5586 51.0116C34.9094 52.1187 34.9901 52.8249 34.9825 54.7226C34.9743 56.7458 34.9028 57.2622 34.4592 58.4989C33.7354 60.5163 32.8485 61.9267 31.3739 63.4056C29.885 64.8985 28.1194 65.987 26.2028 66.5935C24.2639 67.2071 20.9151 67.2071 18.9762 66.5935C15.7999 65.5884 12.9477 63.1843 11.4971 60.289C9.644 56.5903 9.63189 52.6745 11.4629 49.036C14.0338 43.9269 19.6063 41.2466 25.2262 42.4161ZM13.2145 48.6941C13.2145 50.6318 15.6452 53.0624 17.5829 53.0624C17.8516 53.0624 17.902 53.3093 17.902 54.6249C17.902 55.9405 17.8516 56.1874 17.5829 56.1874C15.6452 56.1874 13.2145 58.6181 13.2145 60.5558C13.2145 60.8245 13.4614 60.8749 14.777 60.8749C16.0561 60.8749 16.3395 60.8202 16.3395 60.5732C16.3395 60.4071 16.5553 60.0556 16.819 59.7919C17.4131 59.1976 19.0477 59.1026 19.4895 59.6364C19.9485 60.1913 21.6553 60.871 22.5895 60.871C23.5237 60.871 25.2305 60.1913 25.6895 59.6364C26.1313 59.1026 27.7659 59.1976 28.36 59.7919C28.6237 60.0556 28.8395 60.4071 28.8395 60.5732C28.8395 60.8202 29.1229 60.8749 30.402 60.8749C31.7176 60.8749 31.9645 60.8245 31.9645 60.5558C31.9645 58.6181 29.5338 56.1874 27.5961 56.1874C27.3274 56.1874 27.277 55.9405 27.277 54.6249C27.277 53.3093 27.3274 53.0624 27.5961 53.0624C29.5338 53.0624 31.9645 50.6318 31.9645 48.6941C31.9645 48.4253 31.7176 48.3749 30.402 48.3749C29.1229 48.3749 28.8395 48.4296 28.8395 48.6767C28.8395 48.8427 28.6237 49.1943 28.36 49.4579C27.6526 50.1655 26.3284 50.1292 25.3612 49.3757C23.6415 48.0355 21.5376 48.0355 19.8178 49.3757C18.8506 50.1292 17.5264 50.1655 16.819 49.4579C16.5553 49.1943 16.3395 48.8427 16.3395 48.6767C16.3395 48.4296 16.0561 48.3749 14.777 48.3749C13.4614 48.3749 13.2145 48.4253 13.2145 48.6941ZM23.6725 51.9794C24.1239 52.4308 24.152 52.5855 24.152 54.6249C24.152 56.6644 24.1239 56.8191 23.6725 57.2704C23.3704 57.5728 22.97 57.7499 22.5895 57.7499C22.209 57.7499 21.8086 57.5728 21.5065 57.2704C21.0551 56.8191 21.027 56.6644 21.027 54.6249C21.027 52.5855 21.0551 52.4308 21.5065 51.9794C21.8086 51.6771 22.209 51.4999 22.5895 51.4999C22.97 51.4999 23.3704 51.6771 23.6725 51.9794ZM60.7872 55.3472L62.3356 57.6319L64.7711 58.0712C76.8836 60.2554 86.0409 68.9384 88.7155 80.7753C89.1747 82.8067 89.4502 85.6651 89.6922 90.9042L89.8209 93.6874H84.8184C80.9469 93.6874 79.8161 93.6321 79.8159 93.4433C79.8159 93.3091 79.7248 92.2323 79.6137 91.0507C79.3291 88.0233 78.5999 84.5983 77.6582 81.8675C76.8932 79.6487 76.8627 79.4743 77.0643 78.47C77.1813 77.8878 77.277 76.503 77.277 75.3931V73.3749H75.7381H74.1991L74.1176 75.7675C74.0405 78.0358 74.0022 78.2239 73.378 79.3907C72.6481 80.7556 72.0415 81.3442 70.5596 82.1259L69.5622 82.6523H64.777H59.9918L58.9944 82.1259C57.5165 81.3464 56.9083 80.7577 56.167 79.3907L55.4997 78.1601L55.4334 74.205L55.3672 70.2499H53.8395H52.3118L52.2456 74.205L52.1793 78.1601L51.512 79.3907C50.7708 80.7577 50.1625 81.3464 48.6846 82.1259L47.6872 82.6523H42.902H38.1168L37.1194 82.1259C35.6376 81.3442 35.0309 80.7556 34.301 79.3907C33.6768 78.2239 33.6385 78.0358 33.5614 75.7675L33.4799 73.3749H31.9409H30.402V75.3931C30.402 76.503 30.4977 77.8878 30.6147 78.47C30.8163 79.4743 30.7858 79.6487 30.0208 81.8675C29.0792 84.5983 28.3499 88.0233 28.0653 91.0507C27.9542 92.2323 27.8631 93.3091 27.8631 93.4433C27.8629 93.6321 26.7319 93.6874 22.8588 93.6874H17.8549L17.985 91.0019C18.2377 85.7819 18.4997 82.8765 18.87 81.1796C19.6274 77.7093 20.9688 74.4179 22.8208 71.4853C23.4903 70.4255 23.6889 70.2472 24.312 70.1468C28.2024 69.5204 30.7024 68.3323 33.2778 65.886C34.8768 64.3671 36.2528 62.4273 36.9317 60.7343L37.3844 59.6054L38.9225 59.0833C39.7684 58.7962 41.4713 58.3691 42.7067 58.1339C43.942 57.8989 45.0596 57.6763 45.1901 57.6394C45.3208 57.6023 46.1034 56.5573 46.9293 55.3173L48.4311 53.0624H53.835H59.2389L60.7872 55.3472ZM49.6315 56.6669C48.6625 57.6357 49.3491 59.3124 50.7145 59.3124C51.5174 59.3124 52.277 58.5528 52.277 57.7499C52.277 56.947 51.5174 56.1874 50.7145 56.1874C50.334 56.1874 49.9336 56.3646 49.6315 56.6669ZM57.444 61.3544C57.1416 61.6565 56.9645 62.0569 56.9645 62.4374C56.9645 62.8179 57.1416 63.2183 57.444 63.5204C57.7461 63.8228 58.1465 63.9999 58.527 63.9999C58.9075 63.9999 59.3079 63.8228 59.61 63.5204C59.9124 63.2183 60.0895 62.8179 60.0895 62.4374C60.0895 62.0569 59.9124 61.6565 59.61 61.3544C59.3079 61.0521 58.9075 60.8749 58.527 60.8749C58.1465 60.8749 57.7461 61.0521 57.444 61.3544ZM43.3815 67.6044C42.4125 68.5731 43.0991 70.2499 44.4645 70.2499C45.2674 70.2499 46.027 69.4903 46.027 68.6874C46.027 67.8845 45.2674 67.1249 44.4645 67.1249C44.084 67.1249 43.6836 67.3021 43.3815 67.6044ZM66.819 67.6044C66.5166 67.9065 66.3395 68.3069 66.3395 68.6874C66.3395 69.0679 66.5166 69.4683 66.819 69.7704C67.1211 70.0728 67.5215 70.2499 67.902 70.2499C68.2825 70.2499 68.6829 70.0728 68.985 69.7704C69.2874 69.4683 69.4645 69.0679 69.4645 68.6874C69.4645 68.3069 69.2874 67.9065 68.985 67.6044C68.6829 67.3021 68.2825 67.1249 67.902 67.1249C67.5215 67.1249 67.1211 67.3021 66.819 67.6044ZM60.569 70.7294C60.2666 71.0315 60.0895 71.4319 60.0895 71.8124C60.0895 72.1929 60.2666 72.5933 60.569 72.8954C60.8711 73.1978 61.2715 73.3749 61.652 73.3749C62.0325 73.3749 62.4329 73.1978 62.735 72.8954C63.0374 72.5933 63.2145 72.1929 63.2145 71.8124C63.2145 71.4319 63.0374 71.0315 62.735 70.7294C62.4329 70.4271 62.0325 70.2499 61.652 70.2499C61.2715 70.2499 60.8711 70.4271 60.569 70.7294ZM46.5065 73.8544C45.5375 74.8231 46.2241 76.4999 47.5895 76.4999C48.3924 76.4999 49.152 75.7403 49.152 74.9374C49.152 74.1345 48.3924 73.3749 47.5895 73.3749C47.209 73.3749 46.8086 73.5521 46.5065 73.8544ZM82.444 76.9794C82.1416 77.2815 81.9645 77.6819 81.9645 78.0624C81.9645 78.4429 82.1416 78.8433 82.444 79.1454C82.7461 79.4478 83.1465 79.6249 83.527 79.6249C83.9075 79.6249 84.3079 79.4478 84.61 79.1454C84.9124 78.8433 85.0895 78.4429 85.0895 78.0624C85.0895 77.6819 84.9124 77.2815 84.61 76.9794C84.3079 76.6771 83.9075 76.4999 83.527 76.4999C83.1465 76.4999 82.7461 76.6771 82.444 76.9794ZM54.9321 82.9478C56.1963 84.2732 58.0647 85.32 59.8141 85.6833C61.5061 86.0345 69.7002 85.845 70.7829 85.4296L71.6129 85.111V85.5698C71.6129 85.8224 71.5305 86.895 71.4299 87.9538C71.3293 89.0126 71.1893 90.7357 71.1188 91.7831L70.9905 93.6874H53.842H36.6934L36.5668 91.8808C36.3581 88.9017 36.0547 85.5982 35.9661 85.3378C35.8616 85.0304 35.8489 85.0294 36.8715 85.4208C37.9786 85.8446 46.1481 86.0396 47.8649 85.6833C49.637 85.3153 51.4827 84.2761 52.6817 82.9712C53.2649 82.3366 53.7577 81.8075 53.7768 81.7954C53.7961 81.7833 54.3159 82.3019 54.9321 82.9478ZM21.5065 83.2294C20.5376 84.1981 21.2241 85.8749 22.5895 85.8749C23.3924 85.8749 24.152 85.1153 24.152 84.3124C24.152 83.5095 23.3924 82.7499 22.5895 82.7499C22.209 82.7499 21.8086 82.9271 21.5065 83.2294ZM54.319 86.3544C54.0166 86.6565 53.8395 87.0569 53.8395 87.4374C53.8395 87.8179 54.0166 88.2183 54.319 88.5204C54.6211 88.8228 55.0215 88.9999 55.402 88.9999C55.7825 88.9999 56.1829 88.8228 56.485 88.5204C56.7874 88.2183 56.9645 87.8179 56.9645 87.4374C56.9645 87.0569 56.7874 86.6565 56.485 86.3544C56.1829 86.0521 55.7825 85.8749 55.402 85.8749C55.0215 85.8749 54.6211 86.0521 54.319 86.3544ZM84.0065 87.9169C83.7041 88.219 83.527 88.6194 83.527 88.9999C83.527 89.3804 83.7041 89.7808 84.0065 90.0829C84.3086 90.3853 84.709 90.5624 85.0895 90.5624C85.47 90.5624 85.8704 90.3853 86.1725 90.0829C86.4749 89.7808 86.652 89.3804 86.652 88.9999C86.652 88.6194 86.4749 88.219 86.1725 87.9169C85.8704 87.6146 85.47 87.4374 85.0895 87.4374C84.709 87.4374 84.3086 87.6146 84.0065 87.9169ZM41.819 89.4794C40.8501 90.4481 41.5366 92.1249 42.902 92.1249C43.7049 92.1249 44.4645 91.3653 44.4645 90.5624C44.4645 89.7595 43.7049 88.9999 42.902 88.9999C42.5215 88.9999 42.1211 89.1771 41.819 89.4794ZM62.1315 89.4794C61.8291 89.7815 61.652 90.1819 61.652 90.5624C61.652 90.9429 61.8291 91.3433 62.1315 91.6454C62.4336 91.9478 62.834 92.1249 63.2145 92.1249C63.595 92.1249 63.9954 91.9478 64.2975 91.6454C64.5999 91.3433 64.777 90.9429 64.777 90.5624C64.777 90.1819 64.5999 89.7815 64.2975 89.4794C63.9954 89.1771 63.595 88.9999 63.2145 88.9999C62.834 88.9999 62.4336 89.1771 62.1315 89.4794Z" fill="black"/>
</svg>
