<svg width="100" height="100" viewBox="0 0 100 100" fill="none" xmlns="http://www.w3.org/2000/svg">
<path fill-rule="evenodd" clip-rule="evenodd" d="M32.637 0.384044C31.9605 0.916271 31.856 1.51627 32.1882 2.96158C32.3443 3.64029 32.6909 5.51412 32.9583 7.12545C34.7568 17.9563 34.8573 27.959 33.2673 37.8426C32.7486 41.0676 32.7612 41.4749 33.3964 41.9745C34.0667 42.5018 34.8823 42.4885 35.5161 41.9399C35.9612 41.5545 36.081 41.1641 36.4896 38.7661C38.2226 28.592 38.1243 17.6913 36.1976 6.3442C35.3853 1.5608 35.2366 0.966466 34.7232 0.45299C34.1595 -0.110682 33.3021 -0.139003 32.637 0.384044ZM61.2331 0.30924C60.4691 0.844396 60.3946 1.38932 60.8105 3.40943C63.8237 18.0546 63.6212 32.2003 60.2083 45.468C59.8956 46.6835 58.7657 50.6825 57.6974 54.3547C55.1036 63.2698 54.5087 65.6965 53.4853 71.5305C52.8456 75.1772 52.8493 75.8272 53.5136 76.3495C54.2101 76.8975 55.1614 76.8749 55.7036 76.2975C56.0411 75.9385 56.2335 75.2389 56.6036 73.026C57.1239 69.9165 57.805 66.6698 58.5771 63.6188C59.5718 59.6876 62.6191 54.6547 66.1825 51.0575C69.0251 48.1878 71.5716 46.5835 76.2278 44.7284C77.3329 44.2881 78.5757 43.7551 78.9892 43.5442C79.4028 43.3333 79.7776 43.1606 79.8222 43.1606C79.8665 43.1606 79.8589 43.9348 79.805 44.8811C79.6146 48.2192 80.3642 52.2612 81.8132 55.7112C82.5878 57.5555 83.1769 58.1997 84.0888 58.1997C84.8085 58.1997 85.6161 57.4196 85.6161 56.7243C85.6161 56.4401 85.2265 55.2276 84.7503 54.0297C83.2394 50.2295 82.7763 46.5321 83.346 42.8169L83.6532 40.8128L85.5716 38.9106C86.6267 37.8643 87.9413 36.3981 88.4929 35.6522C90.4376 33.0235 92.7239 28.5456 92.7249 27.3637C92.7259 26.2006 91.3482 25.4141 90.2958 25.9772C90.0907 26.087 89.4347 27.204 88.838 28.4594C87.7234 30.8045 86.6642 32.6137 86.406 32.6137C86.1333 32.6137 85.0196 29.9266 84.7347 28.5813C84.5786 27.845 84.4495 26.5987 84.4476 25.8116C84.4444 24.4924 84.3995 24.3358 83.8734 23.8096C83.1325 23.0688 82.4357 23.0688 81.6948 23.8096C81.1673 24.3372 81.1241 24.4893 81.1255 25.8116C81.1284 28.7458 81.9452 31.7962 83.3782 34.2253L84.2134 35.6411L83.6941 36.1938C81.8206 38.1874 78.8288 40.0934 75.487 41.4223C70.2884 43.4895 67.5206 45.1536 64.4552 48.0547C63.4179 49.0362 62.5693 49.7874 62.5693 49.7237C62.5693 49.66 62.8751 48.4428 63.2491 47.019C64.4739 42.3551 65.2062 38.3885 65.8181 33.102C66.2476 29.392 66.3085 18.9323 65.9228 15.1333C65.4025 10.0094 64.3005 3.05592 63.7171 1.21783C63.3575 0.0846302 62.1726 -0.348768 61.2331 0.30924ZM8.54582 14.3379C7.87902 14.6282 7.68644 14.9667 7.68644 15.8479C7.68644 16.309 8.06242 16.8542 9.45969 18.4198C13.1116 22.5118 15.2814 26.6073 16.445 31.6051L16.8146 33.192L15.522 33.9022C12.1933 35.7305 9.56047 38.6805 8.17824 42.1303C7.48879 43.8514 7.48547 44.668 8.16613 45.2536C9.31848 46.2448 10.4792 45.6077 11.2071 43.5844C12.0616 41.2096 13.8757 38.9229 16.0866 37.434C16.6737 37.0387 17.2175 36.7153 17.2954 36.7153C17.3734 36.7153 17.5312 37.0887 17.6464 37.5454C18.6327 41.4544 19.8607 44.1342 21.7407 46.4809C22.3861 47.2866 22.9157 48.0465 22.9175 48.1696C22.9222 48.4833 21.605 49.6053 20.8843 49.9014C20.5542 50.0372 19.9109 50.2096 19.4548 50.2846C17.5193 50.6034 17.2546 52.934 19.0802 53.5811C19.6165 53.7711 21.9109 53.1782 22.9136 52.5905C23.3978 52.3069 24.2042 51.6909 24.7056 51.2219L25.6171 50.3694L27.387 51.5315C28.3605 52.1708 29.255 52.7264 29.3747 52.7663C29.5167 52.8137 29.2163 54.1315 28.5134 56.5448C26.713 62.7272 25.4636 68.0598 24.6759 72.9247C24.1929 75.9085 23.5087 81.667 23.5077 82.7602C23.5071 83.303 23.4204 83.5903 23.2573 83.5903C22.9769 83.5903 20.7183 81.3182 19.9558 80.269C19.1318 79.135 18.0681 76.8637 17.6046 75.2487C17.2427 73.987 17.1681 73.2432 17.1685 70.895C17.1689 68.4172 17.239 67.7891 17.729 65.8739C18.2642 63.7821 18.2743 63.6626 17.9579 63.1797C17.2575 62.1106 15.9323 62.1292 15.1939 63.2184C14.7782 63.8315 14.0415 66.8235 13.8224 68.7883L13.698 69.9044L12.9593 69.5274C11.8872 68.9805 10.8862 67.7038 10.4118 66.278C9.97082 64.9526 9.48488 64.4497 8.64582 64.4497C7.99582 64.4497 7.18117 65.078 7.02512 65.6999C6.86301 66.346 7.51008 68.3399 8.26262 69.5126C9.3591 71.2213 11.5855 72.8756 13.3646 73.3034C13.8032 73.4086 13.8964 73.5799 14.0978 74.6497C14.2245 75.3239 14.3736 76.0512 14.429 76.2661C14.5089 76.5756 14.3196 76.7784 13.5171 77.2426C11.3718 78.484 9.23039 81.0965 8.13469 83.809C7.48527 85.4168 7.49426 86.2772 8.16613 86.8551C9.21223 87.7549 10.5423 87.2131 10.9939 85.7032C11.4409 84.2079 12.2013 82.9469 13.4245 81.6721C14.4265 80.6278 15.4001 79.8793 15.7566 79.8793C15.8013 79.8793 16.1792 80.4653 16.5962 81.1815C17.5247 82.776 19.8163 85.2502 21.6513 86.6389L23.0185 87.6739V93.3627V99.0516L23.5665 99.5241C24.2667 100.128 25.1407 100.138 25.7294 99.5495C26.1685 99.1104 26.1786 99.0001 26.3071 93.3483C26.497 84.9835 27.003 79.3752 28.2114 72.2438C29.1259 66.8475 29.9421 63.5825 33.0271 52.9801C33.4913 51.3842 33.2509 51.0239 30.8417 49.7049C28.3288 48.329 25.9757 46.4188 24.478 44.5383C22.3669 41.8881 21.4179 39.5583 20.4882 34.7452C20.2099 33.3044 19.754 31.1924 19.4749 30.052L18.9675 27.9784L19.8218 26.927C21.879 24.3948 23.1175 20.9376 23.1773 17.5606C23.2185 15.2311 23.0095 14.587 22.1116 14.2739C20.8382 13.8299 19.6392 14.9846 19.9193 16.385C20.2116 17.8475 19.2849 21.5881 18.1507 23.5239L17.6103 24.4458L16.6948 22.8126C14.7085 19.2694 11.0249 14.6985 9.81613 14.277C9.47219 14.1571 9.18176 14.0626 9.17101 14.0667C9.16008 14.071 8.87883 14.193 8.54582 14.3379ZM52.6972 21.5698C52.0345 22.2323 52.0265 23.5805 52.6806 24.3411C54.0482 25.9309 56.3247 23.9088 55.3109 22.0051C54.7612 20.9735 53.503 20.7637 52.6972 21.5698ZM52.822 29.2446C52.5159 29.4963 52.3306 30.0229 52.1177 31.2448C51.9587 32.1569 51.653 33.5807 51.4384 34.409C51.0069 36.0735 51.0939 36.6485 51.8581 37.1838C52.9913 37.9776 54.006 37.3938 54.5489 35.6358C54.9724 34.2647 55.5364 31.2815 55.5374 30.4077C55.5388 29.1782 53.8052 28.4358 52.822 29.2446ZM67.8903 72.3057C66.8837 72.7911 65.3216 75.8448 64.8946 78.1618L64.6607 79.4317L63.3835 79.667C61.5347 80.0077 59.2925 80.9286 57.548 82.0635C55.8489 83.1692 53.4716 85.4885 52.3739 87.1116L51.6513 88.1803L51.5153 92.477C51.355 97.5397 51.4712 98.8772 52.1284 99.5344C52.7187 100.125 53.5991 100.134 54.2677 99.5571L54.7769 99.1176L54.8431 94.2768C54.9089 89.454 54.911 89.4333 55.4118 88.6764C56.5175 87.0055 58.5157 85.1985 60.0855 84.4501C60.7817 84.118 60.7853 84.1186 61.7734 84.7528C62.9782 85.5258 63.7132 86.4256 64.5204 88.1155C65.3618 89.877 66.3155 90.2952 67.388 89.3727C67.8095 89.01 67.9306 88.7362 67.9278 88.152C67.9232 87.1676 66.9009 85.1161 65.772 83.8256L64.8935 82.8213L65.4157 82.6903C66.3083 82.4663 69.4224 82.751 71.2109 83.2202L72.9187 83.6682L73.4552 83.2676C74.1931 82.7167 74.4388 81.7987 74.0196 81.159C73.5403 80.4274 72.77 80.1124 70.2999 79.6372L68.065 79.2073L68.1696 78.6157C68.2984 77.8881 69.256 75.7547 69.7913 75.0028C70.2144 74.4086 70.3066 73.4376 69.9952 72.8557C69.8901 72.6592 69.5255 72.4014 69.1849 72.2827C68.4601 72.0299 68.4622 72.0299 67.8903 72.3057ZM35.4527 79.796C33.7653 80.5055 34.2605 83.1997 36.0782 83.1997C36.5923 83.1997 36.8739 83.0563 37.2589 82.5987C38.5224 81.0973 37.2081 79.0579 35.4527 79.796ZM34.0892 88.3754C33.4782 88.8895 33.4677 88.9272 33.4677 90.602C33.4677 92.0434 33.5286 92.3711 33.8638 92.7307C34.4091 93.3161 35.1843 93.4788 35.795 93.136C36.5911 92.6891 36.8091 92.0573 36.7452 90.3815C36.681 88.6909 36.3804 88.1866 35.3093 87.9723C34.8378 87.878 34.5788 87.9635 34.0892 88.3754Z" fill="black"/>
</svg>
