<svg width="100" height="100" viewBox="0 0 100 100" fill="none" xmlns="http://www.w3.org/2000/svg">
<path fill-rule="evenodd" clip-rule="evenodd" d="M36.0294 8.24587C34.591 8.76713 33.3275 10.493 33.3197 11.9469C33.3189 12.1303 33.7432 14.17 34.2631 16.4793C35.0549 19.9974 35.289 20.7314 35.7069 21.0051C36.3599 21.433 37.2662 21.2 37.5738 20.5249C37.7635 20.1086 37.6192 19.1487 36.8668 15.824L35.9214 11.6466L36.522 11.1298C37.2411 10.5114 37.5645 10.4865 38.1793 11.0022C38.8693 11.5808 40.6816 16.472 42.2956 22.1116L42.6282 23.2735L41.6968 23.51C41.1846 23.64 40.2719 23.9446 39.6684 24.1866L38.5715 24.6267L37.7763 23.8505C37.3391 23.4235 36.3324 22.7613 35.5393 22.3788C34.7462 21.9964 33.2468 21.1471 32.2076 20.4918C27.9418 17.8013 23.6583 17.1146 19.3411 18.4292C16.152 19.4004 12.8037 21.9833 10.7716 25.0402C9.77616 26.5375 7.75625 30.4949 7.75625 30.9477C7.75625 31.0853 7.02048 32.1716 6.12134 33.3621C3.47681 36.8636 1.63117 40.6513 0.630887 44.6298C-0.0406371 47.3016 -0.212241 53.0364 0.292125 55.9594C0.757813 58.6595 1.56938 61.3267 2.66547 63.7614L3.53282 65.6875V69.1301C3.53282 74.1362 4.21524 77.6143 5.87505 81.0684C8.98126 87.5322 14.7485 91.2915 22.9581 92.204C29.0201 92.8777 37.0579 90.9707 40.1601 88.1224C40.5516 87.7629 41.2058 87.5933 43.0498 87.3733C45.0037 87.1399 45.5039 87.0032 45.8226 86.6148C46.3392 85.9855 46.3137 85.4031 45.7439 84.8334C45.3841 84.4735 45.1149 84.398 44.5769 84.506C44.1924 84.5831 42.9876 84.7096 41.9 84.787C39.935 84.9268 39.9121 84.9355 38.3434 86.118C33.1161 90.0591 23.0373 90.8107 16.3118 87.7614C11.9868 85.8001 8.86879 82.2394 7.34524 77.5211C6.50878 74.9306 6.17558 72.317 6.21181 68.6297L6.2456 65.1843L5.10572 62.5998C0.782708 52.799 2.03951 42.6783 8.59093 34.5369C9.26712 33.6967 10.0147 32.4963 10.2521 31.8695C10.912 30.1276 12.3849 27.2917 13.2267 26.1425C14.4253 24.5058 16.7197 22.4961 18.245 21.7468C22.3404 19.7349 26.6301 20.103 30.8828 22.8311C31.8662 23.4618 33.2748 24.2635 34.0131 24.6127C35.69 25.4059 36.1223 25.7944 36.4593 26.8114C37.055 28.6088 36.4535 32.5161 35.1576 35.2689C34.3198 37.0487 32.2139 39.0889 30.5876 39.6966C28.9087 40.3239 28.2963 40.319 28.1243 39.677C27.816 38.5265 27.9902 35.1453 28.4419 33.5155C28.9618 31.6387 28.8774 30.9348 28.0891 30.5756C27.0817 30.1165 26.5136 30.6098 25.9372 32.4439C25.5035 33.824 25.4279 34.5465 25.4279 37.3157V40.5673L24.4895 40.2848C22.352 39.6412 19.5609 36.4963 19.5423 34.7101C19.536 34.1221 18.8721 33.5086 18.2417 33.5086C17.9763 33.5086 17.5479 33.7198 17.2901 33.9776C16.904 34.3637 16.8462 34.6094 16.9633 35.3669C17.1874 36.8142 18.1428 38.5398 19.5569 40.0516L20.8584 41.4429L20.5043 42.8662C20.1533 44.277 19.3716 46.0604 17.8834 48.8463C16.7899 50.8929 16.3422 53.0668 16.3269 56.404C16.32 57.9322 16.3947 59.8119 16.493 60.5812L16.6719 61.9796L15.5427 61.8298C14.2203 61.6544 13.5357 62.0783 13.5357 63.0726C13.5357 63.8426 14.0892 64.3118 15.1973 64.4814C16.7066 64.7128 18.7632 65.8803 19.8781 67.1388C21.5584 69.0356 23.513 72.1623 24.0013 73.7347C24.2496 74.5336 24.513 76.0283 24.5868 77.0566C24.7673 79.5695 25.5024 80.323 26.8519 79.3779C27.3547 79.0258 27.3694 78.9355 27.2369 76.9883C27.1611 75.8753 27.0406 74.6643 26.9688 74.2969L26.8383 73.6289L31.3567 73.6202C36.1697 73.6109 37.5074 73.4233 40.4973 72.3381C42.425 71.6383 44.1546 70.5845 45.7733 69.1236L47.0732 67.9504L47.9775 70.7294C49.0496 74.0248 49.3454 76.4308 49.0865 79.744C48.9862 81.0277 48.8984 83.2583 48.8915 84.7009C48.8777 87.5975 49.0502 88.1788 50.215 89.1589C51.6996 90.4081 53.7053 90.375 55.1837 89.0769L55.9255 88.4256L56.2003 89.3641C56.5699 90.6264 56.99 91.2399 57.838 91.7572C58.8417 92.3691 60.09 92.3036 61.67 91.5562C64.0689 90.4212 64.5491 88.8363 63.2656 86.2878C62.8381 85.4392 62.3364 84.2326 62.1506 83.6069L61.8127 82.4692L62.9259 83.2183C63.7753 83.7898 64.2734 83.9674 65.0281 83.9674C66.7559 83.9674 67.718 83.1947 69.3006 80.536C70.8233 77.9781 70.577 76.6024 68.2143 74.4643C67.4886 73.8074 66.6886 72.9805 66.4367 72.6266L65.9788 71.9836L66.6243 70.6956C66.9793 69.9872 67.6017 68.5288 68.0074 67.4547C68.4742 66.2186 68.8441 65.5399 69.0152 65.6055C70.7453 66.2693 78.2879 66.3124 79.8292 65.6671C81.5833 64.9329 82.7776 62.7047 83.4556 58.9023C84.4007 53.6012 82.967 47.9712 80.1528 45.9326C79.2868 45.3053 79.2835 45.2973 79.8054 45.0955C85.4879 42.8982 88.9076 40.9681 92.1892 38.1052C99.1358 32.0453 102.169 22.4639 98.3025 18.794C96.8107 17.3782 94.5136 17.1233 91.8913 18.0827C84.5952 20.7519 78.209 22.5442 73.8055 23.1583C69.5149 23.7567 58.8234 24.1962 58.5927 23.7836C58.5105 23.6367 59.0688 20.0721 59.4358 18.4016C59.6206 17.5601 58.7739 16.59 57.169 15.8047C55.5716 15.0234 53.4524 14.9447 52.1022 15.6166C51.0555 16.1377 50.7769 16.8314 49.9814 20.8995L49.4815 23.4549L48.6801 23.3746C48.2393 23.3304 47.3088 23.2352 46.6122 23.1632L45.3456 23.0321L44.9908 21.7686C43.2875 15.7 41.1753 10.0933 40.2637 9.21992C39.0547 8.06204 37.5149 7.70772 36.0294 8.24587ZM55.3253 17.9506C56.744 18.3552 56.724 18.2854 56.2238 21.0628C55.9742 22.4492 55.7699 23.616 55.7699 23.6558C55.7699 23.8125 52.7517 23.7103 52.491 23.5447C52.1891 23.3531 52.3629 22.0069 53.0267 19.3939C53.4679 17.6577 53.7271 17.4949 55.3253 17.9506ZM96.1776 20.5185C97.5765 21.4983 97.7223 23.8221 96.5909 27.1039C94.2186 33.9852 88.5639 38.9962 79.3277 42.4018C75.2183 43.9169 68.9103 45.2755 64.0158 45.6994L61.7031 45.8997L60.9576 46.7971C60.114 47.8127 58.8446 48.6187 57.2148 49.1731C55.9924 49.589 53.0467 50.1985 52.9118 50.0633C52.8649 50.0164 53.3432 49.3985 53.975 48.6898C55.3171 47.1845 56.4523 45.0634 56.2763 44.3904C56.2096 44.1356 55.9144 43.7695 55.6201 43.5768C54.8172 43.0509 54.2161 43.4499 53.2036 45.1815C51.781 47.6142 49.495 49.5801 46.1661 51.2336C43.7987 52.4098 43.1786 52.8317 42.0905 54.0069C40.6945 55.5149 39.2468 58.2356 39.2468 59.3513C39.2468 60.1035 39.7929 60.6274 40.5771 60.6274C41.2322 60.6274 41.3838 60.4345 42.4981 58.1823C43.0123 57.1431 43.5271 56.3135 43.642 56.3389C43.7569 56.3644 44.0815 57.4132 44.3631 58.6695C44.645 59.9261 45.1198 61.8013 45.4181 62.8365L45.9607 64.719L45.1849 65.776C42.4868 69.4517 36.8387 71.3974 30.0959 70.9737C27.1055 70.7859 25.4702 70.5347 25.3748 70.2486C25.1074 69.4462 22.7756 66.321 21.4184 64.9462C19.8697 63.3773 19.773 63.2184 19.4311 61.6815C18.8363 59.0079 18.8772 57.7542 19.595 56.6685C20.3834 55.4755 21.4679 54.7698 23.7546 53.9611C24.7669 53.603 25.7825 53.1406 26.0117 52.9332C26.6114 52.3904 26.5498 51.3815 25.8905 50.9493C25.387 50.6195 25.2219 50.641 23.2787 51.291C22.1379 51.6727 20.7684 52.2282 20.2354 52.5253L19.2664 53.0657L19.4211 52.2342C19.5765 51.4001 19.7225 51.0798 21.6095 47.4319C22.1701 46.3483 22.7503 44.9183 22.899 44.2541C23.0477 43.5899 23.244 43.0004 23.3353 42.944C23.4267 42.8875 23.986 42.9453 24.5784 43.0722C25.8112 43.3367 29.6069 42.8977 31.3089 42.294C33.6974 41.4469 36.2328 39.1026 37.5078 36.5624C38.4719 34.6414 39.3532 31.1437 39.4197 28.9738L39.4746 27.1848L40.5647 26.6987C42.411 25.8751 44.3104 25.6573 47.2659 25.9305C48.7032 26.0634 52.6052 26.2886 55.9371 26.431C66.3654 26.8772 74.5408 26.1861 81.7437 24.2495C82.2537 24.1126 82.2583 24.1246 81.9409 24.7521C81.762 25.1058 81.397 26.0607 81.1298 26.8741C80.2947 29.4166 78.9501 30.9886 76.8281 31.9035C75.9321 32.2898 75.6129 33.1158 76.0826 33.8329C76.5692 34.5754 77.4481 34.5714 78.9307 33.8203C81.1033 32.7193 82.8494 30.4333 83.7741 27.4796C84.3578 25.6153 85.3746 23.8843 86.275 23.2224C86.6743 22.9289 88.2014 22.2552 89.6684 21.725C91.1355 21.1951 92.686 20.6332 93.1139 20.4762C94.1853 20.0835 95.5841 20.1026 96.1776 20.5185ZM29.101 25.8836C28.4548 26.7051 28.5715 27.7199 29.3633 28.1622C29.9179 28.4721 30.0126 28.4623 30.5859 28.0353C31.4697 27.3773 31.7102 26.5757 31.2392 25.8569C30.7217 25.0673 29.7332 25.0798 29.101 25.8836ZM74.5755 47.6093C73.2869 49.2975 72.6263 51.7398 72.4971 55.2939C72.378 58.5675 72.6303 60.0977 73.661 62.3501L74.1949 63.5171H73.5274C72.5345 63.5171 69.7201 63.0548 69.2738 62.8185C68.9914 62.6689 68.8848 62.3381 68.8848 61.6128C68.8848 58.8156 66.3311 54.6304 64.622 54.6266C64.2074 54.6257 63.3276 55.6276 63.3276 56.1004C63.3276 56.2671 63.7413 56.8288 64.247 57.3485C65.7536 58.8969 66.0933 59.8897 66.0917 62.7391C66.0904 64.9771 66.029 65.337 65.3691 66.985C64.1547 70.0166 64.2688 70.0319 62.6014 66.6116C60.9067 63.1357 59.7817 59.8452 58.7937 55.4749C58.52 54.2647 57.4424 53.8057 56.621 54.549C56.1036 55.0174 56.1107 55.8538 56.6504 57.9953C58.6014 65.7362 61.482 71.3796 65.7036 75.7306C66.7184 76.7765 67.5493 77.7983 67.5499 78.001C67.5521 78.6772 65.7025 81.1831 65.1426 81.2624C64.3848 81.3696 63.1193 79.8838 60.7718 76.1314C56.9474 70.0177 54.2819 62.7056 53.3377 55.7372C53.197 54.698 53.0505 53.6246 53.0125 53.3518C52.9544 52.935 53.0716 52.8361 53.7453 52.7327C57.1414 52.2126 60.6655 50.7989 62.2824 49.3087C63.0286 48.6209 63.4481 48.4015 64.0194 48.4006C65.1848 48.3986 70.5246 47.5644 72.997 46.998C74.2196 46.7179 75.2517 46.5092 75.2906 46.5343C75.3297 46.5592 75.0078 47.0431 74.5755 47.6093ZM79.0232 48.5171C80.1431 49.637 81.0989 52.777 81.1067 55.361C81.1149 58.1678 80.2302 61.7833 79.2899 62.784C78.3583 63.7759 77.1562 63.3671 76.3558 61.7864C75.4331 59.9639 75.1087 58.4768 75.1087 56.0657C75.1087 52.735 75.8707 49.9868 77.1876 48.5684C77.8909 47.8109 78.3054 47.7993 79.0232 48.5171ZM49.9087 55.5149C50.7296 62.7671 52.5977 67.8099 57.5226 76.0672C58.7592 78.1404 59.771 79.9967 59.771 80.1926C59.771 80.3882 59.6241 80.7423 59.4447 80.9797C58.7879 81.8479 59.1753 83.8365 60.6015 86.9167C61.3782 88.5941 61.3888 88.6525 60.9749 88.9624C60.4206 89.3774 59.3303 89.6217 59.11 89.3803C59.0151 89.2762 58.4618 87.7407 57.8805 85.968C57.299 84.1952 56.6708 82.5697 56.4846 82.3558C55.9966 81.7959 54.9617 81.8561 54.572 82.467C54.3966 82.7422 54.141 83.7173 54.0043 84.6343C53.6802 86.8073 53.6013 87.0347 53.0725 87.3177C52.7308 87.5006 52.4954 87.4686 52.0537 87.1792L51.4791 86.8027L51.6727 82.551C52.0119 75.1058 51.8632 73.7916 50.097 68.6297C48.0726 62.7136 46.5766 57.1911 46.3948 54.964C46.323 54.0825 46.3266 54.078 47.5453 53.5772C49.543 52.7563 49.6019 52.8045 49.9087 55.5149Z" fill="black"/>
</svg>
