<svg width="100" height="100" viewBox="0 0 100 100" fill="none" xmlns="http://www.w3.org/2000/svg">
<path fill-rule="evenodd" clip-rule="evenodd" d="M13.1297 0.192644C10.083 0.881969 7.5819 3.42462 6.932 6.49315C6.69302 7.62176 6.64984 13.0329 6.64691 42.2792L6.64359 76.7357H3.92402C2.42823 76.7357 1.062 76.7905 0.888091 76.8572C0.0246203 77.1887 0 77.5115 0 88.4709V98.8571L0.571153 99.4286L1.14231 100H8.20464C15.4129 100 15.7992 99.9638 16.3585 99.235C16.5386 99.0002 16.598 96.3524 16.6027 88.3407C16.6088 78.2121 16.5929 77.7367 16.236 77.2951C15.8819 76.8568 15.7174 76.8286 12.963 76.7357L10.0631 76.638L10.0136 45.8058L9.96421 14.9737L11.3814 15.6991C12.7627 16.4063 12.8532 16.4246 14.9481 16.4246C16.9587 16.4246 17.1823 16.3844 18.4111 15.802C20.185 14.9613 21.5278 13.6636 22.3731 11.9732C22.7492 11.2207 23.0572 10.4334 23.0572 10.2238C23.0572 10.0143 23.1531 9.87487 23.2703 9.91397C23.3876 9.95307 27.5623 14.2398 32.5479 19.4398L41.6123 28.8947L41.6651 42.2573L41.7178 55.62L48.8489 62.7567C57.4907 71.4053 56.4334 70.9097 59.6168 67.8036L61.7588 65.7138L63.0031 66.9478L64.2476 68.1817L68.3764 69.0108C70.6471 69.4669 72.5314 69.874 72.5632 69.9156C73.0556 70.5541 85.3707 84.3582 85.664 84.6002C87.024 85.722 88.9621 84.0188 88.0696 82.4865C87.5078 81.5223 74.3713 66.9779 73.8935 66.7912C73.607 66.6791 71.7019 66.2643 69.66 65.869L65.9474 65.1507L59.1537 58.3824C55.4171 54.6599 52.3835 51.5226 52.4124 51.4104C52.4412 51.2983 54.751 48.2542 57.5452 44.6457L62.6256 38.085L64.5071 37.4647L66.3884 36.8442L72.4374 42.9586C75.7641 46.3214 78.8651 49.4921 79.328 50.0047L80.1699 50.9369L80.9191 54.6967C81.3312 56.7647 81.7802 58.6958 81.917 58.9883C82.0686 59.3126 85.2069 61.883 89.9727 65.5863C96.3815 70.566 97.8888 71.6528 98.387 71.6528C99.5483 71.6528 100.376 70.3113 99.8258 69.3203C99.6724 69.0441 96.2515 66.2502 92.224 63.1117L84.9012 57.4051L84.2657 54.3143C83.9161 52.6142 83.5353 50.757 83.4192 50.1871C83.244 49.3256 83.0089 48.9375 82.0256 47.8859L80.8429 46.6209L82.8141 44.5939C83.8982 43.479 84.8431 42.3355 84.914 42.0527C84.9852 41.77 84.9406 41.2908 84.8152 40.9882C84.6899 40.6855 81.4873 37.3441 77.6983 33.563L70.8091 26.6883L57.4358 26.6801L44.0626 26.6717L32.2409 14.3309C25.739 7.54336 20.0802 1.74353 19.666 1.44246C17.9393 0.188147 15.344 -0.308222 13.1297 0.192644ZM16.3966 3.53488C17.6272 3.90046 19.045 5.11919 19.5652 6.25875C20.3137 7.89858 19.8819 10.3378 18.6003 11.7084C16.8014 13.6323 13.4214 13.6941 11.5655 11.8373C8.83578 9.10618 9.98707 4.48617 13.643 3.50125C14.8662 3.17164 15.1874 3.17555 16.3966 3.53488ZM70.5825 31.1298C71.2034 31.7446 71.7117 32.3413 71.7117 32.4555C71.7117 32.5696 71.1884 33.1814 70.5487 33.8148L69.3856 34.9663L68.5013 34.1506C67.3523 33.091 67.0358 33.0992 63.4998 34.2785L60.6716 35.2216L55.0384 42.4405C51.94 46.4109 49.179 49.9916 48.9025 50.3979C48.176 51.4657 48.2598 52.1783 49.2284 53.1657C49.6651 53.6109 50.0223 54.0574 50.0223 54.1579C50.0223 54.2584 49.4752 54.8932 48.8063 55.5682L47.5904 56.7957L46.2661 55.481L44.9419 54.1663V42.089V30.0117H57.1976H69.4532L70.5825 31.1298ZM77.6716 38.2229L80.9893 41.5465L79.6717 42.8646L78.3541 44.1828L74.9872 40.8142L71.6204 37.4456L72.8815 36.1725C73.5754 35.4722 74.1903 34.8992 74.2484 34.8992C74.3064 34.8992 75.8469 36.3948 77.6716 38.2229ZM55.9822 59.9231L59.2999 63.2468L57.9823 64.5648L56.6647 65.8831L53.2978 62.5144L49.9311 59.1458L51.1922 57.8727C51.886 57.1725 52.501 56.5995 52.559 56.5995C52.617 56.5995 54.1576 58.095 55.9822 59.9231ZM13.2872 88.3679V96.6765H8.30449H3.32179V88.3679V80.0592H8.30449H13.2872V88.3679Z" fill="black"/>
</svg>
