<svg width="100" height="100" viewBox="0 0 100 100" fill="none" xmlns="http://www.w3.org/2000/svg">
<path fill-rule="evenodd" clip-rule="evenodd" d="M18.6653 0.0389082C15.3397 0.495158 13.6551 1.42836 12.0467 3.70512C11.5801 4.36567 10.9448 5.52133 10.635 6.27328C10.0815 7.61606 10.0715 7.70688 10.0715 11.3559V15.0713L9.33404 16.0766C7.02877 19.2182 6.48834 22.7014 7.62682 27.0797C7.94713 28.312 8.2108 29.5934 8.21276 29.9274C8.21451 30.2614 7.86178 31.4895 7.42877 32.6565C6.20123 35.9659 5.99596 36.9036 6.00006 39.1834C6.00455 41.6924 6.5485 43.4842 8.07018 46.0036C9.97994 49.1653 10.1022 49.7715 9.37252 52.4647C8.59264 55.3428 8.92272 58.67 10.2344 61.1561C11.0471 62.6961 13.3325 65.0744 14.8862 65.9967C16.8563 67.1662 18.3163 67.5487 20.7131 67.5229C21.8393 67.5108 22.9034 67.4557 23.0772 67.4006C23.5758 67.2422 24.0319 69.1561 24.2399 72.2807C24.3938 74.5944 24.4801 75.0657 24.8106 75.3959C25.1296 75.7151 25.2975 75.7504 25.7411 75.5926L26.2825 75.4L26.2469 72.3797C26.2196 70.0614 26.1235 69.0528 25.8337 68.0409C25.626 67.3159 25.5153 66.7225 25.5878 66.7225C25.6602 66.7225 26.2212 66.4203 26.8344 66.0512L27.9493 65.3797L29.362 66.4442C32.9534 69.1498 37.9374 70.8209 42.4237 70.8233C43.9883 70.8241 44.1536 70.9194 44.1536 71.8203C44.1536 72.4104 44.9899 74.5979 46.2368 77.2694L47.3762 79.7108L47.2788 81.6639C46.9891 87.469 47.1876 89.0924 48.4844 91.5272C49.4534 93.3459 53.1944 98.5914 53.9604 99.2053C55.386 100.348 57.3565 100.032 58.1298 98.5366C58.5661 97.6926 59.2487 91.8209 59.1069 90.1297C59.0471 89.4149 58.8233 88.2723 58.6096 87.5907C57.9981 85.6401 58.0641 85.2203 59.1674 84.0448C60.3499 82.7846 60.6721 82.1598 60.9684 80.5514L61.2024 79.2819L62.2971 79.8243C64.5936 80.9618 67.4831 81.2893 69.845 80.6799C70.4852 80.5147 71.8557 79.9479 72.8907 79.4201C75.4456 78.1174 76.8253 77.685 78.8581 77.5494C82.2124 77.326 84.5647 76.3108 86.7395 74.1477C88.8288 72.0696 89.7555 69.9098 90.2526 65.96C90.476 64.1828 90.6352 63.7034 92.1878 60.1274C93.4467 57.228 93.9534 54.0639 93.5837 51.4121C93.4655 50.5647 92.8764 48.3856 92.2749 46.5696C91.2889 43.5928 91.1827 43.11 91.1967 41.6651C91.2059 40.7051 91.3725 39.4748 91.6116 38.5975C92.8401 34.0918 92.8678 33.9205 92.876 30.785C92.8831 28.0928 92.82 27.4873 92.3055 25.3163C91.5452 22.1082 91.5565 20.6709 92.3657 17.6291C93.3653 13.8711 93.1672 11.3289 91.6481 8.42172C90.7924 6.78402 89.7032 5.63988 88.4311 5.04242C87.9143 4.79965 86.3811 4.41938 85.0131 4.19477C83.6489 3.97074 81.6536 3.48539 80.5794 3.11606C77.1469 1.93637 76.6307 1.83305 74.578 1.91449L72.678 1.98988L70.0364 3.3309C67.6501 4.54223 67.2579 4.68051 65.9792 4.76137C65.1823 4.81176 63.6436 4.71352 62.4583 4.53676C59.8471 4.14711 57.1764 4.13969 55.384 4.51723C53.7665 4.85785 53.4467 4.97367 50.8919 6.14457C49.4104 6.82348 48.6434 7.05883 47.7157 7.11879C46.543 7.19477 46.4221 7.15766 44.786 6.22035C42.2227 4.75219 41.5469 4.4434 40.2046 4.12699C38.6294 3.75551 36.5833 3.75473 34.6493 4.12485C31.7327 4.68285 30.7323 4.48442 28.3678 2.87875C25.2239 0.743791 23.6069 0.116057 21.009 0.0221114C20.0422 -0.0130449 18.9876 -0.00542769 18.6653 0.0389082ZM21.6926 2.25356C23.4139 2.53754 24.8213 3.16137 27.1899 4.68988C28.4096 5.47699 29.759 6.23637 30.1887 6.37738C31.2163 6.71449 32.9934 6.67641 34.6508 6.28168C36.2897 5.89125 38.6309 5.87817 40.004 6.25199C40.5684 6.4057 41.6231 6.86527 42.3477 7.27348C45.3223 8.94887 45.9057 9.16899 47.3708 9.16899C48.8077 9.16879 49.0186 9.10297 52.4741 7.57524C55.6075 6.18988 58.0036 5.91215 61.927 6.47914C65.968 7.06332 68.0325 6.78539 70.5208 5.32289C72.952 3.89399 74.6878 3.58324 76.8684 4.18637C78.0083 4.5018 81.1637 5.57035 81.4409 5.735C81.4848 5.76117 81.3631 5.95688 81.1704 6.17016C80.5663 6.83754 78.9147 7.54281 77.9532 7.54399C76.5846 7.54555 75.6333 7.87992 74.0327 8.92113C71.3297 10.6797 69.3503 11.0952 66.1975 10.5657C63.2436 10.0698 61.5815 10.2256 58.8997 11.2506C54.0487 13.1045 50.8354 13.0772 46.0493 11.1414C43.269 10.017 41.9171 9.85141 38.5928 10.2286C35.536 10.5752 34.2128 10.4131 32.1649 9.44047C30.6905 8.74027 30.2864 8.71313 30.2864 9.31352C30.2864 9.5641 30.6131 9.85024 31.2924 10.1944C33.5393 11.333 35.5747 11.6051 38.7825 11.1954C41.5729 10.8389 43.0141 11.0149 45.4958 12.0155C48.0116 13.0297 49.5206 13.4086 51.5643 13.5391C53.7717 13.6799 57.1212 13.1799 59.6628 12.3297C62.394 11.4163 63.211 11.3422 66.0065 11.7547C69.6731 12.2959 71.6899 11.8557 74.7948 9.83637C75.8641 9.14086 76.2852 8.99223 77.7526 8.79145C79.8608 8.50317 80.7128 8.1141 81.8702 6.91195L82.7702 5.97699L84.3116 6.19008C87.4477 6.62387 88.2514 7.03988 89.451 8.85082C90.9524 11.1176 91.1772 13.5678 90.218 17.2151C89.3868 20.3768 89.3895 21.9278 90.2342 25.9022C90.8317 28.7125 90.87 29.1116 90.7694 31.4686C90.6817 33.5291 90.5233 34.5414 89.9301 36.8397C89.3034 39.2676 89.2006 39.9645 89.2106 41.7225C89.2219 43.6909 89.2674 43.9067 90.3475 47.0936C92.2899 52.8252 92.1497 55.4159 89.5856 61.1703C88.8464 62.8295 88.634 63.6946 88.2936 66.4338C87.7409 70.8828 85.385 73.8414 81.4715 75.0018C80.8881 75.1746 79.9653 75.3194 79.4208 75.3231C77.2448 75.3381 75.4514 75.8303 72.7911 77.1426C71.3813 77.8381 69.8762 78.5022 69.4465 78.6184C68.3682 78.91 66.1327 78.8809 64.9251 78.5594C63.4421 78.1645 62.4219 77.5457 58.2799 74.5286C54.3071 71.6344 53.6051 71.3184 53.1282 72.2094C52.7028 73.0043 53.0655 73.428 55.9588 75.5159L58.7946 77.5623L58.819 78.4412C58.8823 80.7217 58.668 81.434 57.6106 82.4573C55.937 84.0768 55.6255 85.676 56.4573 88.376C56.919 89.8739 56.9307 91.0567 56.5323 95.8701C56.2977 98.7037 55.804 98.453 52.6878 93.9182C49.3397 89.0459 49.5247 89.6311 49.5247 83.91V79.1248L48.2825 76.4881C46.2469 72.167 45.9872 71.1342 46.3233 68.6971C46.7026 65.9469 48.3296 63.4729 50.7321 61.9928C53.3622 60.3727 55.6089 60.5602 58.0782 62.6057C58.5932 63.0323 59.1854 63.4356 59.394 63.5018C59.6026 63.568 60.6753 63.4194 61.7778 63.1715C63.5889 62.7645 64.2702 62.7207 68.8364 62.7198C74.6997 62.7184 74.1749 62.9278 74.7153 60.3748C75.4686 56.8162 76.4413 53.1022 76.9649 51.784C77.2719 51.011 78.2448 49.0434 79.1266 47.4116C81.2518 43.4791 81.2764 43.2202 79.9977 38.3045C78.7526 33.5178 78.7825 32.967 80.5516 28.0819C82.02 24.0274 82.0893 23.4448 81.552 19.6639C81.2397 17.4676 81.2809 17.3176 82.1971 17.3114C83.3588 17.3036 86.0825 15.2436 86.5612 14.0106C86.8233 13.3356 86.3108 12.6209 85.5645 12.6209C85.1294 12.6209 84.8381 12.8129 84.3483 13.4225C83.3376 14.6805 82.1932 15.2559 80.779 15.2172C79.4292 15.1803 78.6852 15.4737 76.3262 16.9731C73.6512 18.6735 71.6508 19.0055 67.9403 18.3651C65.5768 17.9573 64.1268 18.1698 60.2788 19.4885C57.6198 20.3995 57.1655 20.4969 55.1594 20.5854C52.4176 20.7065 51.2305 20.4834 48.0192 19.2444C44.6559 17.9465 43.3335 17.7342 40.8829 18.0981C39.835 18.2538 38.1868 18.3729 37.22 18.3631C35.0413 18.3407 33.9235 17.9412 31.4094 16.2868C30.4159 15.633 29.1374 14.884 28.5686 14.6223C27.5546 14.1561 27.0256 14.1129 23.8411 14.2368C22.9682 14.2707 20.5604 13.7205 19.7215 13.2954C19.1905 13.0262 18.2731 12.369 17.6831 11.8346C16.463 10.7295 15.8225 10.5954 15.3333 11.3418C14.9016 12.0006 15.0952 12.4479 16.2686 13.503C17.4924 14.6034 18.6383 15.2887 20.1995 15.8539C21.3245 16.2614 21.3991 16.3286 21.6212 17.1379C21.7501 17.6077 22.1241 18.6905 22.4524 19.5444C23.336 21.8428 23.4049 22.9393 22.7985 25.0475C21.7161 28.8096 21.8286 29.4827 24.1686 33.2598C26.528 37.0682 27.0003 38.1321 27.1655 40.0112C27.3016 41.5604 27.2413 42.0411 26.4831 45.4334C25.9475 47.8291 26.5251 50.4637 27.894 51.8692C30.4678 54.5119 30.7891 59.835 28.5059 62.01C27.8046 62.6782 25.004 64.6301 24.8983 64.5244C24.8639 64.4901 24.9131 63.7182 25.0077 62.809C25.2153 60.8141 24.9212 59.2506 23.9803 57.3475C23.5215 56.4192 23.2346 56.0612 22.9133 56.0155C22.2799 55.9256 22.3422 56.4438 23.1755 58.1983C24.0546 60.0494 24.2704 62.1071 23.7669 63.8387C23.3827 65.1606 23.2409 65.2268 20.8137 65.2184C18.9581 65.212 17.368 64.7723 16.1262 63.9225C11.8975 61.028 10.4883 57.4358 11.6975 52.6332C12.171 50.7532 12.2309 49.0077 11.8579 47.9645C11.7217 47.584 11.019 46.2911 10.296 45.0911C8.58795 42.2563 8.19615 41.1186 8.18346 38.9584C8.17447 37.4256 8.26549 36.9993 9.16354 34.3686C10.5176 30.4016 10.5471 30.0434 9.77272 26.9598C8.6983 22.6819 8.98736 20.3389 10.9309 17.5676C12.385 15.4944 12.579 14.5758 12.1438 11.8217C11.6967 8.99164 12.5547 6.1641 14.477 4.13149C15.8049 2.72738 16.7624 2.39496 20.3255 2.10063C20.4866 2.08715 21.1018 2.1561 21.6926 2.25356ZM19.3489 6.44477C19.3489 6.82094 19.4928 6.94594 20.1051 7.10141C21.4479 7.44223 21.9491 6.63461 20.6713 6.1893C19.7028 5.8516 19.3489 5.91996 19.3489 6.44477ZM23.2063 6.67641C23.1258 6.75902 23.0598 6.97485 23.0598 7.1561C23.0598 7.42485 23.3297 7.50824 24.5251 7.60942C25.3309 7.67738 26.3085 7.86606 26.6973 8.02856C27.6862 8.44184 27.9821 8.40902 27.9075 7.89457C27.8024 7.17192 26.7077 6.69828 24.9321 6.60727C24.0635 6.56254 23.2868 6.59379 23.2063 6.67641ZM27.4905 16.5399C27.7928 16.6543 28.8585 17.2774 29.8585 17.9246C33.9053 20.5436 36.3118 21.0746 40.6868 20.3151C43.0999 19.8959 44.3161 20.0471 46.9671 21.0955C49.6395 22.1524 50.1598 22.3131 51.82 22.5942L53.1387 22.8174L52.6393 23.4112C51.8979 24.2922 51.1954 25.7842 50.9524 26.9938C50.8342 27.5827 50.6844 28.0354 50.6194 27.9998C48.2712 26.7194 45.4215 25.9139 43.2128 25.9065C42.0167 25.9024 41.9837 25.8887 42.1385 25.4627C42.2262 25.2209 42.2981 24.2573 42.2981 23.3209C42.2981 21.96 42.2296 21.55 41.9563 21.2772C41.6563 20.9774 41.5797 20.9705 41.3303 21.2217C41.1014 21.4522 41.0856 21.6784 41.2487 22.3866C41.4854 23.4145 41.3417 24.8143 40.9358 25.4338C40.7087 25.7803 40.3901 25.8977 39.3819 26.0057C37.8292 26.1719 37.3829 26.4307 37.7598 26.9463C38.0008 27.276 38.1403 27.2846 39.6514 27.0637C42.5844 26.6348 46.5838 27.1893 48.9794 28.3569C50.3899 29.0442 51.4358 30.4698 51.6149 31.9487C51.6661 32.3702 51.5739 32.4485 50.8608 32.5914C50.0831 32.7471 49.6879 33.1514 49.9303 33.5438C49.9971 33.6518 50.637 33.6745 51.4756 33.5985C52.8887 33.4704 52.9327 33.4807 54.8893 34.3954C56.6706 35.228 57.0436 35.3303 58.5692 35.4065C61.3464 35.545 61.5192 35.5998 62.5606 36.6746C63.4963 37.6405 63.921 37.784 64.0391 37.1745C64.1241 36.7368 62.5624 35.086 61.7342 34.7381C61.3596 34.5807 60.0315 34.3868 58.7829 34.3071C56.6864 34.1733 56.4096 34.1077 55.1671 33.4504C54.427 33.059 53.5797 32.653 53.2844 32.5481C52.9292 32.4217 52.7473 32.218 52.7473 31.9461C52.7473 31.7202 52.5192 30.9651 52.2405 30.2682C51.7721 29.0977 51.7497 28.9094 51.9456 27.7936C52.2112 26.2809 53.1053 24.4373 54.0143 23.5284C54.6424 22.9004 54.8467 22.8198 56.1067 22.7026C57.8403 22.5414 59.8776 22.0225 62.4153 21.0957C64.6403 20.283 66.4098 20.1481 68.8997 20.6004C70.276 20.8506 70.3147 20.8737 70.7063 21.683C70.9784 22.2446 71.1067 22.8993 71.1067 23.7239C71.1067 24.6459 71.1803 24.9661 71.4128 25.0553C71.5811 25.12 71.8172 25.0745 71.9376 24.9541C72.2534 24.6383 72.1833 22.4125 71.8311 21.5725L71.5307 20.8561L72.5393 20.7192C74.3005 20.4799 75.8946 19.8768 77.4516 18.8602C78.2831 18.3174 78.9979 17.908 79.0403 17.9504C79.2417 18.1518 79.7284 22.6106 79.6524 23.5584C79.5938 24.2916 79.1825 25.5479 78.3569 27.5159C77.6917 29.1016 77.0524 30.9034 76.9366 31.5198C76.6055 33.2813 76.8635 35.635 77.7405 38.8524C78.7378 42.511 78.7374 42.9778 77.7364 44.8475C74.9702 50.0145 74.228 51.9196 73.1594 56.5957C72.7825 58.2446 72.434 59.7694 72.385 59.9842C72.2993 60.3594 72.1358 60.3748 68.2344 60.3748C65.1153 60.3748 63.669 60.4618 62.0003 60.7496L59.8272 61.1245L58.9592 60.4131C56.2405 58.1854 52.6409 57.9252 49.72 59.7457C46.3928 61.8192 44.4004 64.8883 44.0204 68.526L43.9026 69.6522L41.9286 69.6479C40.102 69.644 37.4741 69.2209 36.1458 68.7168C35.7004 68.5479 35.7563 68.5094 36.7795 68.2797C39.2575 67.7237 39.654 66.9944 39.144 63.9303C38.6712 61.0881 38.9409 60.7479 42.1044 60.1955C43.9651 59.8709 44.2311 59.7358 44.1155 59.1748C44.0309 58.7637 44.0967 58.7608 41.6528 59.2809C39.5592 59.7264 38.7733 60.1254 38.129 61.069C37.7083 61.6852 37.6825 61.8575 37.8227 63.1092C37.9071 63.8612 37.9817 65.002 37.9887 65.6446C38.0003 66.7252 37.962 66.8315 37.4758 67.0655C36.7161 67.4313 33.6108 67.4069 32.4768 67.026C31.9704 66.8559 30.9516 66.2709 30.2128 65.726L28.8698 64.735L29.8866 63.7651C31.6604 62.0735 32.4284 59.4991 32.0501 56.5143C31.7663 54.277 31.2327 53.0532 29.2911 50.1862C28.0887 48.411 28.0735 46.8399 29.2282 43.7237C31.1991 38.4047 32.6253 36.393 34.7049 35.9985C35.5001 35.8477 36.1364 36.4922 36.2848 37.5989C36.4852 39.0932 37.3176 39.1752 37.3176 37.7008C37.3176 36.6661 36.9536 35.72 36.3475 35.1795C35.8088 34.6993 34.3358 34.7077 33.3053 35.1967C32.2686 35.6885 30.9879 37.1026 30.1713 38.6563L29.4391 40.0496L29.1948 38.8842C28.8518 37.2477 28.4438 36.1938 27.6426 34.875L26.9499 33.7348L27.6905 33.045C28.6165 32.1825 31.2223 30.8854 32.5909 30.6059C33.9628 30.3256 36.2575 30.3375 37.5469 30.6317C38.119 30.7621 39.51 31.3444 40.6379 31.9252C44.1874 33.7534 44.5514 33.9198 45.5852 34.1877C46.6102 34.4534 47.378 34.3057 47.2329 33.8707C47.1948 33.7563 46.4643 33.4325 45.6096 33.1512C44.7551 32.87 43.2356 32.1393 42.2329 31.5276C39.46 29.8358 38.3442 29.5155 35.2229 29.5155H32.6401L32.5237 28.9295C32.4596 28.6073 32.2688 27.9086 32.0995 27.377C31.9301 26.8454 31.7985 26.1727 31.8067 25.8821C31.8258 25.2071 32.4628 23.958 33.2379 23.075C33.8825 22.3411 33.8817 21.8006 33.2364 21.8006C32.8128 21.8006 31.8264 22.8973 31.3532 23.8946L31.0475 24.5389L30.4227 23.7254C29.5698 22.6143 29.2059 22.4067 28.8088 22.8039C28.5217 23.0911 28.5434 23.1715 29.0727 23.7772C29.8874 24.7096 30.795 26.5971 31.2364 28.2764L31.6133 29.7108L31.194 29.8883C29.3633 30.6633 27.9131 31.4516 27.2149 32.0514L26.3895 32.7604L25.7292 31.7239C24.2155 29.3481 24.0936 28.4295 24.9297 25.6924C25.361 24.2807 25.4204 23.7829 25.3471 22.1913C25.2727 20.5696 25.162 20.0973 24.4682 18.443L23.6743 16.5504L24.1971 16.4704C25.2837 16.3041 26.961 16.3395 27.4905 16.5399ZM64.2057 23.884C63.8823 24.2073 64.1284 24.9655 64.7622 25.5993C65.9026 26.7397 66.4801 26.9426 68.9639 27.0756C71.5319 27.2133 72.2641 27.5069 72.7874 28.6096C73.3942 29.8887 72.8756 31.7055 71.0411 34.7264C70.0147 36.4166 69.8891 37.035 70.5725 37.035C70.9145 37.035 71.2462 36.668 72.0339 35.4172C73.5598 32.9944 74.1014 31.5575 74.1471 29.8116C74.1848 28.3643 74.1923 28.3454 74.8921 27.8809C75.6381 27.3858 75.7633 27.0631 75.3444 26.7155C75.0967 26.5098 74.2255 26.8159 73.7645 27.2704C73.6635 27.3698 73.3311 27.2446 72.9756 26.9735C72.146 26.3407 70.3559 25.9022 68.602 25.9022C66.9026 25.9022 65.8624 25.4358 65.251 24.3998C64.8903 23.7885 64.4958 23.5938 64.2057 23.884ZM56.1979 25.2512C55.8729 25.576 56.1434 25.934 57.068 26.4026C58.1085 26.9297 58.5112 26.8577 58.3784 26.1676C58.2678 25.5942 56.569 24.8801 56.1979 25.2512ZM76.5266 25.5313C75.8964 26.0049 75.836 26.4131 76.3712 26.583C76.9176 26.7565 77.7815 26.1414 77.7083 25.6311C77.6294 25.0807 77.1772 25.0424 76.5266 25.5313ZM59.0622 27.187C58.9962 27.3586 59.1256 27.7264 59.354 28.017C59.5796 28.3041 60.3065 29.318 60.9694 30.2705C62.437 32.3788 63.1768 32.808 65.1655 32.7053L66.42 32.6405L66.4196 33.2815C66.419 34.2266 66.8481 35.0764 67.7946 36.0053L68.636 36.8311L68.7778 38.7397C68.8559 39.7895 69.0602 41.0329 69.2319 41.503C69.6321 42.5981 69.6284 42.634 69.1047 42.7756C68.863 42.8409 68.2579 43.1955 67.76 43.5635C66.512 44.4862 63.0655 48.3389 63.1405 48.7278C63.2833 49.469 63.8946 49.0604 65.9932 46.8211C68.4217 44.2297 69.668 43.4196 71.5965 43.1787C74.5987 42.8036 75.5188 44.019 74.1872 46.6008C73.2815 48.3571 72.3624 49.3061 69.8214 51.1088C68.586 51.985 67.2579 53.0819 66.8698 53.5463C66.4815 54.0106 65.9358 54.4467 65.6569 54.5155C64.7098 54.7487 62.9297 55.6301 62.8182 55.9211C62.5212 56.6952 63.2387 56.7559 64.6909 56.0799C65.2655 55.8123 65.8456 55.5926 65.9797 55.5916C66.1557 55.5903 66.2239 56.0461 66.2239 57.226C66.2239 58.4254 66.3003 58.9256 66.5102 59.0998C67.1565 59.6362 67.2979 59.244 67.3047 56.8977C67.3112 54.6516 67.318 54.618 67.887 54.0243C68.2036 53.6938 69.4868 52.6842 70.7385 51.7809C73.2098 49.9975 74.2905 48.8789 75.2147 47.1479C75.9786 45.717 76.1379 44.4043 75.6592 43.487C75.1141 42.4426 74.3083 42.0817 72.4762 42.062L70.9133 42.0452L70.4981 41.1873C70.2176 40.6079 70.0378 39.7348 69.9442 38.4979C69.7962 36.5401 69.7463 36.4309 68.4227 35.1659C67.718 34.4922 67.5915 34.2539 67.594 33.6034C67.5975 32.7098 67.759 32.3975 68.3794 32.0858C68.9046 31.8217 69.018 31.5733 68.7833 31.2022C68.6421 30.9789 68.4118 30.9868 67.3581 31.251C65.859 31.627 64.1645 31.6547 63.4895 31.3141C63.221 31.1788 62.5772 30.4989 62.059 29.8034C59.8936 26.8973 59.354 26.4262 59.0622 27.187ZM40.6577 36.6077C40.4282 37.0364 40.7128 37.4256 41.2555 37.4256C41.445 37.4256 42.0645 37.6034 42.6325 37.8204C45.0462 38.743 45.904 40.4034 45.9098 44.1639C45.9145 47.1539 46.3788 47.7118 49.4003 48.3575C52.7782 49.0793 53.8909 49.8643 55.0782 52.3631C56.3344 55.0073 56.3534 55.9694 55.1594 56.4682C54.2803 56.8356 54.3194 57.4174 55.2294 57.5057C55.7171 57.553 56.0143 57.4178 56.595 56.8852C57.2864 56.2508 57.3356 56.1328 57.3131 55.1586C57.2964 54.4237 57.0723 53.608 56.5587 52.4123C55.293 49.4664 54.0026 48.411 50.5407 47.4897C47.2465 46.6133 47.2661 46.6364 47.0702 43.3827C46.9856 41.977 46.7905 40.6508 46.5829 40.0692C45.9276 38.2336 43.9997 36.8096 41.5762 36.3707C40.987 36.2641 40.8182 36.3075 40.6577 36.6077ZM53.0694 38.1036C53.0088 38.2616 53.0838 38.5155 53.2362 38.6678C53.3885 38.8202 53.7889 39.4161 54.126 39.9918C55.4612 42.2727 56.47 43.0897 57.9514 43.0897C59.1161 43.0897 60.779 42.533 61.7758 41.8096C62.7571 41.0973 63.5522 39.8215 63.4522 39.1196C63.3651 38.5077 62.8563 38.5977 62.5397 39.2811C61.8938 40.6746 60.1516 41.8457 58.419 42.051C57.0944 42.2079 56.4192 41.7588 55.429 40.0623C54.9901 39.3104 54.4555 38.4975 54.2411 38.2557C53.7958 37.7538 53.2319 37.6805 53.0694 38.1036ZM35.2788 40.6026C34.7323 41.4368 34.3641 42.7971 34.3542 44.0194C34.3407 45.6539 35.0344 47.0893 36.384 48.2194C38.6333 50.1026 38.8786 50.366 39.0805 51.1166C39.1928 51.5336 39.2278 52.3039 39.1583 52.8284C39.0061 53.9752 39.329 54.337 39.8883 53.6459C40.1514 53.3209 40.2458 52.8825 40.2419 52.0036C40.234 50.3094 39.6735 49.3051 38.0338 48.0469C37.3167 47.4965 36.5383 46.8028 36.3044 46.5055C35.3678 45.3149 35.2614 43.1618 36.0567 41.4942C36.6032 40.3481 35.9421 39.5903 35.2788 40.6026ZM83.8001 40.9448C83.494 41.5168 83.7018 41.9592 84.2407 41.8827C84.5852 41.8338 84.6809 41.6934 84.6809 41.237C84.6809 40.519 84.1264 40.335 83.8001 40.9448ZM83.5483 42.6272C83.4731 42.7026 83.4114 43.1512 83.4114 43.6241C83.4114 44.4041 83.4522 44.4782 83.8508 44.4217C84.2319 44.3674 84.2903 44.243 84.2903 43.483C84.2903 42.8471 84.2073 42.5909 83.9878 42.5485C83.8213 42.5164 83.6237 42.5518 83.5483 42.6272ZM60.8456 43.2967C60.7678 43.4225 60.7085 44.0014 60.7137 44.5832C60.7282 46.2077 61.7391 47.8479 62.3493 47.2377C62.5362 47.0508 62.4887 46.8248 62.1278 46.1829C61.809 45.6155 61.6633 45.0332 61.6512 44.2791C61.6378 43.4317 61.5628 43.1789 61.3104 43.1303C61.1325 43.0961 60.9233 43.1709 60.8456 43.2967ZM20.3743 44.9877C19.9585 45.137 20.1047 45.7756 20.6534 46.2073C21.1051 46.5627 21.2147 46.5811 21.4538 46.342C21.9333 45.8625 21.0444 44.7475 20.3743 44.9877ZM83.8778 46.6541C84.0395 47.4766 84.552 47.8922 84.9337 47.5104C85.3174 47.1268 84.7452 46.0194 84.1631 46.0194C83.8053 46.0194 83.769 46.1 83.8778 46.6541ZM21.9782 47.3987C21.861 47.5883 22.0833 49.0153 22.3967 50.0858C22.4381 50.2278 22.6702 50.3155 22.9126 50.2811C23.3028 50.2256 23.3493 50.1151 23.3225 49.3075C23.3059 48.8065 23.1735 48.1483 23.0282 47.845C22.7444 47.2532 22.2088 47.0254 21.9782 47.3987ZM84.9088 49.0793C84.7225 49.2655 84.7534 50.56 84.9514 50.8725C85.0432 51.0174 85.2837 51.1045 85.4856 51.0662C86.2118 50.9286 86.0153 48.9491 85.2755 48.9491C85.1454 48.9491 84.9803 49.0077 84.9088 49.0793ZM60.9993 50.0942C59.8212 51.1028 60.4141 51.9327 61.6235 50.9678C62.0491 50.6282 62.3176 50.2438 62.3176 49.9745C62.3176 49.3705 61.7885 49.4186 60.9993 50.0942ZM58.8508 52.0104C58.609 52.1791 58.4114 52.4727 58.4114 52.6629C58.4114 53.2186 59.0051 53.3067 59.5159 52.8268C60.0489 52.3262 60.1006 51.9692 59.6649 51.802C59.296 51.6604 59.3856 51.6375 58.8508 52.0104ZM21.8983 52.6112C21.5092 54.0119 21.7163 54.9077 22.3987 54.7764C22.6837 54.7215 22.8006 54.4514 22.9249 53.5627C23.1112 52.228 23.0208 51.8787 22.4891 51.8787C22.2077 51.8787 22.046 52.0791 21.8983 52.6112ZM84.8215 52.3182C84.7116 52.4526 84.5159 52.9573 84.3866 53.4401C84.2575 53.9229 83.9799 54.6547 83.77 55.0664C83.3305 55.928 83.3608 56.6317 83.8413 56.7233C84.2493 56.801 85.0069 55.3862 85.4924 53.6395C85.7813 52.6008 85.7889 52.4104 85.5471 52.2575C85.1723 52.0202 85.0581 52.0297 84.8215 52.3182ZM44.2737 52.6772C42.8368 53.8075 42.8079 55.8067 44.2096 57.1159C44.6758 57.5512 45.762 57.7573 46.0538 57.4657C46.2651 57.2541 45.8374 56.7045 45.4128 56.6422C44.843 56.5586 44.3489 55.827 44.3489 55.0668C44.3489 53.5575 45.1333 53.0842 46.8833 53.5377C48.4399 53.941 48.6864 53.9225 48.6106 53.4082C48.4704 52.4567 45.2452 51.9131 44.2737 52.6772ZM49.7221 53.8284C49.5057 54.1785 50.0401 54.6104 50.8532 54.7424C51.4155 54.8336 51.5958 54.7875 51.6956 54.5274C51.7655 54.3452 51.7337 54.1073 51.6251 53.9987C51.3098 53.6834 49.8903 53.5563 49.7221 53.8284ZM52.4055 54.3662C51.9538 54.5219 52.1432 55.1545 52.6985 55.3453C53.3749 55.5778 53.7239 55.4625 53.7239 55.0065C53.7239 54.6368 52.851 54.2129 52.4055 54.3662ZM37.3647 55.1526C36.6356 55.7651 36.5473 56.2862 37.1407 56.4744C37.6684 56.6418 38.7262 55.6805 38.6438 55.1082C38.5606 54.5301 38.086 54.5465 37.3647 55.1526ZM82.146 57.9823C81.8596 58.3871 81.6163 59.1125 80.7868 62.035C79.9702 64.9112 77.2333 66.8246 73.5985 67.0602C71.7573 67.1793 71.236 67.4418 71.7087 68.0112C71.9229 68.2696 72.2221 68.3014 73.4415 68.1953C76.2407 67.9522 78.293 67.1286 79.9413 65.5869C81.1223 64.4821 81.7464 63.2967 82.2549 61.1918C82.4674 60.3127 82.7817 59.2688 82.9536 58.8717C83.4616 57.6977 82.8354 57.008 82.146 57.9823ZM35.295 58.1674C34.976 59.3578 35.3348 60.2309 36.0327 59.9631C36.2913 59.8639 36.3475 59.628 36.3016 58.8368C36.2522 57.9881 36.1803 57.8268 35.8294 57.7768C35.5354 57.7348 35.3805 57.8479 35.295 58.1674ZM56.7838 67.2434C56.501 67.526 56.6837 67.8811 57.3114 68.269C58.1385 68.7803 58.6067 68.7909 58.6067 68.2983C58.6067 67.6657 57.1846 66.8426 56.7838 67.2434ZM67.0051 68.1713C66.0421 68.5049 65.7356 68.7008 65.7356 68.9825C65.7356 69.5262 66.302 69.5483 67.6178 69.0563C68.5682 68.7008 68.7721 68.5475 68.7241 68.2239C68.6426 67.6745 68.4553 67.6686 67.0051 68.1713ZM60.4303 68.9813C60.2126 69.5487 60.9044 69.8707 62.204 69.8067C62.8403 69.7754 63.3883 69.6619 63.4219 69.5545C63.5563 69.1258 63.1368 68.9164 61.878 68.7836C60.7313 68.6627 60.5426 68.6883 60.4303 68.9813Z" fill="black"/>
</svg>
