<svg width="100" height="100" viewBox="0 0 100 100" fill="none" xmlns="http://www.w3.org/2000/svg">
<path fill-rule="evenodd" clip-rule="evenodd" d="M49.312 0.427296C48.8639 0.664138 47.5373 1.89612 46.3643 3.16488C37.4087 12.8516 32.3437 21.8862 31.2912 30.0505L31.1586 31.0797L28.9135 31.4482C24.8446 32.1161 19.7209 34.1979 15.1 37.0606C9.88276 40.2928 1.51166 47.3198 0.504635 49.3125C0.226973 49.8618 0 50.6481 0 51.0599C0 52.5682 1.20439 53.9926 2.64316 54.1855C4.07902 54.3781 5.08425 53.8885 7.05681 52.0357C9.66387 49.5875 11.7932 47.749 12.022 47.749C12.1305 47.749 14.1937 49.7216 16.6067 52.1324C19.779 55.3015 21.0948 56.4772 21.3575 56.3765C22.3502 55.9954 22.0164 55.5278 17.5972 51.1043L13.195 46.698L14.7277 45.5636C16.533 44.2273 19.3623 42.4531 21.0565 41.5945L22.2616 40.9838L25.8014 44.4987C29.4177 48.0897 30.0738 48.5067 30.242 47.3209C30.3036 46.8869 29.6927 46.1589 27.026 43.4877L23.734 40.1903L25.3116 39.6053C28.737 38.3357 32.0394 38.0394 33.3312 38.8858C34.3782 39.5717 34.6523 40.297 34.6433 42.3568C34.6307 45.1976 33.5109 48.5392 31.1225 52.8636L29.9697 54.9503L25.1891 50.1737C21.087 46.0748 20.3531 45.432 20.0167 45.6439C19.1203 46.2084 19.4244 46.6274 24.2326 51.4546C27.0711 54.3043 28.9479 56.3559 28.8792 56.5339C28.6798 57.0509 26.0131 60.5638 24.2579 62.6218L22.572 64.5982L17.2513 59.2812C13.3883 55.4206 11.8313 54.0022 11.5673 54.1036C10.5572 54.4912 10.8992 54.9442 16.2423 60.2907L21.5596 65.6113L20.5328 66.7536C19.4847 67.9192 18.8397 69.1337 18.8397 69.9413C18.8397 70.8485 19.5601 72.1886 20.2906 72.6401C21.3063 73.2678 22.9633 73.2443 24.0312 72.5872C24.4811 72.3102 25.8375 71.0239 27.0457 69.7287C33.1067 63.2315 37.931 55.9073 40.2449 49.6906C41.0797 47.4474 41.9309 43.9302 41.9372 42.6962L41.9407 42.0168L43.9602 41.7419C51.4164 40.7263 60.9338 35.2641 69.976 26.8112C72.5683 24.388 73.1133 23.5705 73.1148 22.1033C73.1162 20.7107 72.5891 19.8246 71.424 19.2605C69.5914 18.3732 68.805 18.7184 65.2091 21.9882C63.5752 23.4741 62.0035 24.8483 61.7166 25.0423C61.203 25.3892 61.1281 25.3278 56.8723 21.0763C53.3332 17.5405 52.4526 16.7719 52.0135 16.8342C50.768 17.0109 51.2139 17.6564 55.6486 22.0954C59.8032 26.2541 59.9636 26.4472 59.5402 26.7809C58.356 27.7137 53.7151 30.713 52.4062 31.3917L50.9273 32.1583L47.3522 28.6083C44.1154 25.3944 43.7325 25.0822 43.3075 25.3096C43.0491 25.4478 42.8379 25.7328 42.8379 25.9427C42.8379 26.1529 44.3101 27.7994 46.1093 29.6017L49.3809 32.8785L48.1839 33.36C44.9461 34.6622 41.5895 35.0755 40.1624 34.3477C38.7817 33.6437 38.461 32.9531 38.4888 30.7431C38.5189 28.345 39.5086 25.186 41.3704 21.5464C43.3376 17.7006 42.5349 17.5286 47.9858 22.9643C52.0361 27.0036 52.763 27.6377 53.0992 27.4259C53.9959 26.8614 53.6918 26.4427 48.8688 21.6004L44.0923 16.805L44.8405 15.7363C46.1761 13.8286 49.0709 10.2017 49.8949 9.40374L50.6983 8.62593L55.9418 13.8658C61.2102 19.1306 61.6643 19.4724 62.0514 18.4634C62.1526 18.1996 60.7672 16.6754 56.9999 12.9057C54.1451 10.0486 51.8092 7.60567 51.8092 7.47648C51.8092 7.34752 52.1747 6.89425 52.6215 6.46901C54.1744 4.99166 54.6663 3.05229 53.8665 1.56082C53.0674 0.0709122 50.973 -0.45032 49.312 0.427296ZM51.8004 2.65218C52.1512 3.3073 51.9022 3.71123 49.6475 6.1447C39.0062 17.6295 33.7567 29.6376 37.1268 34.7844C38.8647 37.4388 43.2414 37.6989 49.0056 35.4909C54.4277 33.4138 61.2716 28.8275 66.9767 23.4481C68.1024 22.3865 69.2684 21.4248 69.5676 21.3111C70.6078 20.9157 71.2208 21.785 70.6518 22.8481C70.5302 23.0755 69.3442 24.2465 68.0165 25.4505C58.5657 34.0192 49.5015 38.9778 42.1729 39.589C41.2035 39.6699 40.2867 39.8124 40.1357 39.9059C39.9839 39.9996 39.7255 41.1235 39.5578 42.4203C39.3911 43.7097 39.0042 45.6291 38.6981 46.6855C36.7592 53.3767 31.3732 61.857 24.4999 69.0419C22.9683 70.6431 22.6469 70.8779 22.0765 70.8129C21.5194 70.7494 21.4084 70.6281 21.3494 70.018C21.2877 69.3799 21.5154 69.0482 23.352 67.1023C29.28 60.8215 34.2021 53.2177 36.1408 47.3458C36.7811 45.4062 36.8612 44.8773 36.8769 42.4784C36.8924 40.0876 36.8374 39.6803 36.3837 38.8309C33.7903 33.9754 24.495 35.7652 14.1609 43.1095C11.4032 45.0693 8.72278 47.2563 6.16305 49.6348C4.92703 50.7833 3.70133 51.7913 3.43937 51.8745C2.89772 52.0463 2.24327 51.5295 2.24215 50.9291C2.24148 50.4171 6.50844 46.2791 9.53199 43.8598C14.6342 39.7769 20.8919 36.1263 25.2638 34.6819C27.2936 34.0113 30.5017 33.395 31.9622 33.395C32.4859 33.395 33.0125 33.2689 33.1321 33.1146C33.2516 32.9605 33.4654 31.7371 33.6069 30.3961C34.3838 23.0284 40.1283 12.8972 48.2162 4.63012C50.6489 2.14373 51.3278 1.76895 51.8004 2.65218ZM69.1814 3.75901C67.6226 4.70974 66.8461 6.28442 67.1483 7.88288C67.8554 11.6253 72.9217 12.2956 74.485 8.8538C75.0302 7.65299 75.0167 6.6186 74.4401 5.42744C73.5443 3.57689 70.8709 2.72865 69.1814 3.75901ZM15.8119 4.28405C14.2655 4.823 13.1853 6.38647 13.1983 8.06724C13.2145 10.1558 14.601 11.6423 16.6942 11.8159C19.0113 12.0081 20.6461 10.6086 20.8138 8.28951C20.9183 6.84289 20.6144 6.05431 19.5886 5.10986C18.5035 4.11068 17.1547 3.81597 15.8119 4.28405ZM72.3608 5.30857C73.5089 6.23867 73.6623 7.68664 72.7235 8.7282C71.8687 9.67624 70.7821 9.82382 69.7589 9.13056C67.8088 7.80932 68.6382 4.90352 70.9619 4.91608C71.4933 4.91899 72.0847 5.08496 72.3608 5.30857ZM18.0444 5.93051C20.1995 6.95323 19.4861 10.2939 17.1125 10.2939C16.0492 10.2939 15.3019 9.79713 14.893 8.81859C14.435 7.7223 14.8789 6.49884 15.924 5.97693C16.886 5.4963 17.1186 5.49114 18.0444 5.93051ZM86.1243 11.7607C84.1823 12.6296 82.9283 14.5618 82.9283 16.686C82.9283 18.3331 83.4621 19.5068 84.7331 20.6553C85.8781 21.6895 86.9488 22.0277 88.7211 21.9149C90.4101 21.8074 91.6443 21.0709 92.7344 19.52C93.3585 18.6318 93.4135 18.4028 93.4135 16.686C93.4135 14.9691 93.3585 14.7401 92.7344 13.8519C92.3609 13.3206 91.6228 12.5818 91.0942 12.2102C90.2753 11.6347 89.8945 11.5254 88.5212 11.4721C87.424 11.4295 86.6586 11.5216 86.1243 11.7607ZM90.1789 13.4953C91.3595 14.2908 91.9556 15.3398 91.9556 16.6218C91.9556 17.8013 91.7329 18.3934 90.9744 19.2304C89.3591 21.013 86.3836 20.7739 85.0469 18.7541C83.8579 16.9571 84.5205 14.283 86.382 13.3657C87.5019 12.8142 89.2569 12.8738 90.1789 13.4953ZM13.0151 19.7274C11.1766 20.4994 9.87065 22.4998 9.87559 24.5358C9.88433 28.1019 13.7326 30.6246 16.9333 29.1625C20.6117 27.4824 21.0332 22.4415 17.6806 20.2229C16.9183 19.7185 16.4612 19.5967 15.1592 19.5507C14.2847 19.52 13.3197 19.5996 13.0151 19.7274ZM16.7671 21.5069C19.0826 22.9185 18.9074 26.5111 16.4668 27.6693C13.4293 29.1107 10.3141 25.8777 11.8313 22.8582C12.6854 21.1581 15.1074 20.4949 16.7671 21.5069ZM75.9195 27.4219C74.06 28.5684 67.9498 35.7728 64.7767 40.5601C61.1566 46.0218 58.1106 53.5936 58.0929 57.1754L58.0891 57.9669L56.0577 58.2434C48.8892 59.2197 39.7699 64.3475 30.8444 72.4205C27.6217 75.3353 26.9138 76.3203 26.9138 77.8899C26.9138 79.6402 27.7109 80.6882 29.3094 81.0392C30.7645 81.3588 31.6736 80.8569 34.8175 77.9982C36.4532 76.511 38.0264 75.1354 38.3132 74.9414C38.8268 74.5945 38.9017 74.6559 43.1575 78.9074C46.7045 82.4509 47.5765 83.2121 48.0186 83.1495C49.2671 82.9732 48.7988 82.2932 44.4141 77.9172C42.0668 75.5746 40.1465 73.5883 40.1465 73.5033C40.1465 73.2542 46.6538 68.9959 47.9481 68.398L49.1297 67.8523L52.6913 71.3888C55.9155 74.5904 56.2973 74.9015 56.7223 74.6741C56.9807 74.5359 57.1919 74.2509 57.1919 74.0409C57.1919 73.8308 55.7092 72.174 53.8972 70.3589L50.6025 67.0586L51.2619 66.8009C54.9729 65.3502 57.8518 64.9163 59.6512 65.5359C60.0991 65.6903 60.6551 66.1364 60.963 66.5887C61.4616 67.3206 61.4903 67.5256 61.3862 69.6165C61.2709 71.9381 60.7194 73.918 59.3266 77.0116C58.822 78.1323 57.1123 81.2584 56.8142 81.6053C56.766 81.6614 54.6252 79.6074 52.0568 77.0409C47.2796 72.268 46.641 71.8152 46.4625 73.0732C46.3999 73.5139 47.2358 74.4599 51.143 78.3703L55.9001 83.1311L54.9549 84.5226C53.8068 86.2132 50.7355 90.043 49.9194 90.8016L49.3264 91.3526L44.0954 86.1253C38.8378 80.8712 38.1174 80.3294 37.9537 81.5057C37.9086 81.8287 39.3189 83.3771 43.0561 87.1087C45.8966 89.9448 48.2206 92.3726 48.2206 92.5036C48.2206 92.6346 47.8551 93.0895 47.4083 93.5147C46.43 94.4455 45.7652 95.7977 45.7585 96.8704C45.743 99.3631 48.4925 100.798 50.7905 99.4967C51.9823 98.8217 56.4823 93.872 59.2988 90.1384C64.8747 82.7467 67.9312 76.2071 68.7366 69.9462L68.8672 68.9305L71.0701 68.5546C75.7836 67.7501 81.3341 65.3482 86.5729 61.8458C90.5481 59.1881 95.7886 54.9014 98.5049 52.086C100.522 49.9954 100.494 47.2388 98.4459 46.1403C96.7613 45.2368 95.2853 45.7377 92.8709 48.0321C90.5066 50.2792 88.2436 52.2347 88.0078 52.2347C87.8993 52.2347 85.8361 50.2621 83.4231 47.8513C80.2508 44.6822 78.935 43.5065 78.6723 43.6072C77.6796 43.9883 78.0134 44.4559 82.4362 48.883L86.8422 53.2931L84.9693 54.6354C83.0075 56.0414 80.4141 57.6538 78.7508 58.5011L77.7696 59.001L74.2495 55.5056C72.3135 53.5833 70.5634 52.0104 70.3606 52.0104C70.1577 52.0104 69.8789 52.2214 69.741 52.4794C69.514 52.903 69.8098 53.2706 72.8159 56.3009C75.4689 58.9752 76.074 59.6965 75.8064 59.8656C75.6219 59.982 74.714 60.3268 73.7888 60.6313C66.7625 62.9441 64.1319 61.042 65.7158 54.7937C66.4088 52.0593 67.4811 49.5381 69.2623 46.4547L70.0747 45.0482L74.8479 49.8174C78.9437 53.9098 79.6767 54.5517 80.0131 54.3398C80.9095 53.7753 80.6054 53.3563 75.7972 48.5291C72.7237 45.4434 71.079 43.6346 71.1586 43.4276C71.3338 42.9711 75.1462 37.9849 76.3429 36.6471L77.3461 35.5257L82.5872 40.7402C85.4699 43.6081 87.9964 45.9548 88.2021 45.9548C88.4075 45.9548 88.6894 45.7419 88.8287 45.4818C89.0597 45.0502 88.6165 44.5422 83.7494 39.6594L78.4169 34.31L79.562 33.0989C81.4164 31.1382 81.6039 29.1466 80.0725 27.6794C79.5201 27.1501 79.1604 27.0166 78.1065 26.9502C77.0387 26.8827 76.6623 26.9639 75.9195 27.4219ZM78.6793 29.9491C78.7394 30.5677 78.4844 30.9333 76.5677 32.9769C70.5991 39.3411 66.0569 46.3464 63.9825 52.3861C63.2043 54.6522 63.1482 54.9931 63.1419 57.5053C63.1361 59.8838 63.1948 60.3077 63.6461 61.1528C65.585 64.7828 71.1089 64.7655 78.6109 61.1059C83.5152 58.7133 88.5044 55.1797 93.6378 50.4626C96.2794 48.0352 96.9885 47.64 97.4855 48.3196C97.6513 48.5464 97.7879 48.8893 97.789 49.0815C97.7917 49.5581 93.7158 53.4884 90.7129 55.9048C82.8079 62.2655 75.2513 65.932 68.9071 66.4856C67.8953 66.5737 66.9682 66.7659 66.8466 66.9124C66.725 67.059 66.5232 68.0807 66.3983 69.1828C65.8124 74.3491 63.688 79.4619 59.5572 85.648C57.1087 89.315 54.7663 92.2585 51.8903 95.2834C49.731 97.5542 48.9478 98.0501 48.3299 97.5372C47.688 97.0045 48.0141 96.3981 50.3078 93.861C55.7188 87.8751 58.9499 83.2657 61.4497 77.9663C64.7778 70.9104 64.6735 65.4489 61.1759 63.639C59.8398 62.9475 56.9362 62.8136 54.5748 63.3346C48.3756 64.7021 40.447 69.5564 33 76.5437C30.9561 78.4613 30.5907 78.7163 29.9722 78.6562C29.3789 78.5986 29.2569 78.4842 29.1935 77.9257C29.1271 77.3428 29.3823 77.0104 31.3241 75.1478C40.5536 66.296 51.5402 60.3088 58.5544 60.3088C60.0919 60.3088 60.3319 60.0507 60.3319 58.3964C60.3319 56.7858 61.1447 53.1675 62.027 50.8504C64.2893 44.9087 69.376 37.3432 75.1708 31.3011C77.0335 29.3592 77.3659 29.104 77.9488 29.1704C78.5072 29.2339 78.6216 29.3559 78.6793 29.9491ZM48.8935 43.5148C48.1771 43.7996 47.1497 44.7724 46.7428 45.5511C46.3329 46.3356 46.3373 48.0478 46.7514 48.8482C47.2374 49.788 48.5566 50.8475 49.4495 51.015C53.073 51.6948 55.6042 47.6008 53.3399 44.7223C52.4035 43.5319 50.2926 42.9586 48.8935 43.5148ZM51.6365 45.2743C52.8016 46.1909 52.955 47.5357 52.0285 48.7134C51.1558 49.823 49.1279 49.716 48.3438 48.5192C47.9472 47.9141 47.8862 46.5794 48.2263 45.9442C48.7926 44.8861 50.6732 44.5167 51.6365 45.2743ZM7.06489 73.0586C5.14167 73.9764 4.03371 75.7742 4.04201 77.9639C4.05367 81.0098 6.27698 83.1923 9.3566 83.1807C10.9809 83.1746 12.196 82.6377 13.2616 81.4557C14.3114 80.2915 14.6499 79.2275 14.5366 77.4489C14.4292 75.7614 13.6926 74.5256 12.1469 73.4392C11.3303 72.8653 10.9434 72.7538 9.57393 72.6973C8.34755 72.6466 7.74738 72.7329 7.06489 73.0586ZM11.2316 74.7243C13.4675 76.2311 13.6422 79.2815 11.5889 80.9614C9.6125 82.5787 6.28708 81.4194 5.65034 78.8913C5.20671 77.1293 6.16731 75.0596 7.72046 74.4312C8.68084 74.0427 10.4379 74.1892 11.2316 74.7243ZM92.2672 74.8659C91.002 75.6372 90.4978 76.607 90.4978 78.2689C90.4978 79.5392 90.5851 79.8586 91.1263 80.568C91.9518 81.6504 92.8016 82.0642 94.1985 82.0642C96.0661 82.0642 97.4997 80.993 98.0261 79.2046C98.5139 77.5465 97.6174 75.6273 95.9479 74.7551C95.0637 74.2933 93.1096 74.352 92.2672 74.8659ZM95.2001 76.103C97.5113 77.0688 96.7802 80.4942 94.2628 80.4942C91.6973 80.4942 91.0258 77.1338 93.3861 76.1066C94.272 75.7211 94.2857 75.721 95.2001 76.103ZM73.0718 82.8158C70.9036 83.4218 69.1895 85.1528 68.5998 87.3315C67.5596 91.1759 70.6143 95.0578 74.6859 95.0654C79.41 95.0743 82.4138 90.0195 80.153 85.8656C78.7874 83.3565 75.7766 82.0599 73.0718 82.8158ZM77.005 84.8114C78.3159 85.5363 79.1657 86.8515 79.3259 88.4038C79.4373 89.4832 79.368 89.854 78.8632 90.8859C78.0376 92.5736 76.8866 93.3433 75.0098 93.4629C72.6999 93.6098 70.9586 92.4868 70.2375 90.3853C68.8344 86.2955 73.1942 82.7047 77.005 84.8114ZM18.7603 91.9752C17.5882 92.2253 16.6754 92.9179 16.1432 93.961C14.9038 96.3907 16.4195 99.2534 19.0806 99.5091C20.5256 99.6479 21.1422 99.4647 22.1212 98.6052C23.5839 97.321 23.9145 95.7438 23.0818 94.0236C22.2961 92.4007 20.5799 91.587 18.7603 91.9752ZM20.5142 93.597C21.7201 94.101 22.3019 95.5933 21.7291 96.7134C21.2967 97.5587 20.5779 97.9779 19.5513 97.9833C17.0107 97.9963 16.3553 94.6211 18.7002 93.6006C19.5861 93.2151 19.5998 93.2151 20.5142 93.597Z" fill="black"/>
</svg>
