<svg width="100" height="100" viewBox="0 0 100 100" fill="none" xmlns="http://www.w3.org/2000/svg">
<path fill-rule="evenodd" clip-rule="evenodd" d="M34.3959 7.37788C32.0156 7.96236 30.1979 9.01088 28.2836 10.9037C26.9176 12.2542 26.4487 12.8807 25.7932 14.2293C24.6859 16.5085 24.3956 17.7971 24.3956 20.436C24.3956 28.0318 28.879 36.3604 38.7853 47.1668C42.4923 51.2106 49.4131 58.1838 49.8605 58.3257C50.1733 58.425 50.9169 57.7848 53.6578 55.056C63.9535 44.8063 69.6684 37.7129 72.7702 31.3334C74.8219 27.1136 75.6155 24.1141 75.6406 20.4845C75.6683 16.4366 74.6106 13.8161 71.804 10.9793C70.3283 9.48784 69.7667 9.0662 68.3775 8.40687C66.3395 7.43985 64.4142 6.99573 62.2792 7.00003C57.2679 7.01059 53.4676 9.33557 50.702 14.0827C50.4045 14.5933 50.0916 15.0112 50.0065 15.0112C49.9215 15.0112 49.4756 14.3733 49.0157 13.594C47.7777 11.4962 45.3394 9.1311 43.5271 8.27042C40.8407 6.99475 37.347 6.65326 34.3959 7.37788ZM40.5749 9.05076C43.7599 9.80158 46.1197 11.918 48.4382 16.1031C49.3486 17.7465 49.5163 17.9433 50.0058 17.9433C50.4882 17.9433 50.6528 17.7617 51.3788 16.4284C54.4878 10.7186 57.7079 8.57106 62.8064 8.8072C66.0314 8.95674 68.4467 10.0238 70.6943 12.2925C72.8748 14.4934 73.8877 17.0967 73.8819 20.4845C73.8725 25.8081 71.4568 31.5235 66.3225 38.3705C63.7348 41.821 60.8941 45.041 55.3211 50.8404L50.1006 56.273L45.5069 51.6143C38.5624 44.5715 34.8283 40.2065 31.6127 35.3726C27.8686 29.7441 26.1519 25.0465 26.1572 20.4438C26.1613 16.8625 27.0777 14.6333 29.5583 12.1709C31.2642 10.4775 32.8407 9.56095 34.9121 9.05877C36.3989 8.69812 39.0638 8.69441 40.5749 9.05076ZM46.7233 22.1572C46.3044 22.4506 46.2888 22.5763 46.2888 25.6624V28.8635L43.0928 28.9257C40.7459 28.9712 39.8111 29.059 39.5742 29.2558C39.1051 29.646 39.0916 35.5437 39.5588 36.0109C39.8131 36.2652 40.4187 36.318 43.0773 36.318H46.2888V39.4585C46.2888 41.2494 46.3758 42.7614 46.4911 42.977C46.679 43.3279 46.9311 43.3551 50.0028 43.3551C53.0745 43.3551 53.3267 43.3279 53.5145 42.977C53.6299 42.7614 53.7169 41.2494 53.7169 39.4585V36.318H56.9283C59.587 36.318 60.1925 36.2652 60.4469 36.0109C60.914 35.5437 60.9006 29.646 60.4314 29.2558C60.1945 29.059 59.2597 28.9712 56.9129 28.9257L53.7169 28.8635V25.6624C53.7169 21.6157 53.9481 21.8528 50.0028 21.8528C47.7441 21.8528 47.0682 21.9156 46.7233 22.1572ZM51.9576 26.9113C51.9576 29.4073 52.0205 30.2625 52.216 30.4248C52.3737 30.5558 53.7227 30.6601 55.6857 30.693L58.8969 30.7469L58.9528 32.6528L59.0088 34.5587H55.7177C53.4188 34.5587 52.356 34.6294 52.1921 34.7933C52.0283 34.9571 51.9576 36.0183 51.9576 38.3118V41.5958H50.0028H48.0481V38.3118C48.0481 36.0183 47.9773 34.9571 47.8135 34.7933C47.6497 34.6294 46.5869 34.5587 44.2879 34.5587H40.9969L41.0528 32.6528L41.1087 30.7469L44.32 30.693C46.2829 30.6601 47.6319 30.5558 47.7897 30.4248C47.9851 30.2625 48.0481 29.4073 48.0481 26.9113V23.6121H50.0028H51.9576V26.9113ZM1.82095 33.4187C1.52461 33.6517 1.1622 34.1294 1.0156 34.4803C0.219231 36.3864 -0.252059 42.9104 0.141432 46.5804C0.675666 51.5617 1.79261 55.376 4.00519 59.775C8.34357 68.4003 15.2491 74.451 24.1919 77.4627C26.6068 78.2759 27.6608 78.8666 28.5492 79.9044C30.4925 82.1748 31.626 86.3191 31.6276 91.1585C31.628 92.2731 31.715 93.0143 31.8627 93.1621C32.2077 93.5071 45.7663 93.4977 46.0521 93.1523C46.1633 93.018 46.4368 91.6325 46.6598 90.0736C47.7672 82.3369 47.7418 77.1462 46.5738 72.5313C45.2446 67.2787 42.8209 64.0957 37.0037 59.963C35.2835 58.7409 31.2572 55.7824 28.0563 53.3886C20.3909 47.6557 18.4113 46.4973 16.2634 46.4874C13.8872 46.4762 12.662 48.8919 13.7377 51.4673C13.8724 51.7898 15.7151 54.0769 17.8327 56.5496C21.6578 61.016 21.6789 61.0459 21.0713 61.1077C20.1819 61.1982 18.6633 60.8284 17.3997 60.2138C15.7632 59.4176 14.2948 57.8447 12.1786 54.6203C8.91611 49.6498 7.94284 47.0755 7.21489 41.4922C6.79247 38.2516 6.23947 36.4779 5.12722 34.7962C4.41198 33.7146 3.4735 32.9968 2.77311 32.9957C2.54578 32.9953 2.11729 33.1857 1.82095 33.4187ZM96.1799 33.386C95.3718 33.8788 94.1421 35.7681 93.6002 37.3495C93.3709 38.0186 93.0089 39.8854 92.7958 41.4981C92.0642 47.0339 91.0598 49.6951 87.8652 54.5622C85.757 57.7743 84.2112 59.4362 82.6088 60.2138C81.3439 60.8274 79.8224 61.1984 78.9419 61.1077C78.3444 61.0461 78.3784 60.9983 82.1792 56.5496C84.2917 54.0769 86.1311 51.7898 86.2666 51.4673C86.9898 49.7455 86.6073 47.7321 85.4037 46.927C84.0843 46.0442 82.1196 46.4516 79.1306 48.2273C78.3819 48.672 75.1503 50.9946 71.9494 53.3886C68.7485 55.7824 64.7428 58.7323 63.0479 59.9439C58.0953 63.4841 56.5847 65.0983 54.8531 68.7009C52.3563 73.8963 51.9185 80.1024 53.3458 90.0736C53.5689 91.6325 53.8423 93.018 53.9536 93.1523C54.2394 93.4977 67.7979 93.5071 68.1429 93.1621C68.2907 93.0143 68.3777 92.2731 68.3781 91.1585C68.3796 86.3191 69.5132 82.1748 71.4564 79.9044C72.3448 78.8666 73.3988 78.2759 75.8137 77.4627C81.6248 75.5058 86.9713 72.0068 90.5975 67.7877C93.0116 64.9789 94.472 62.8136 96.003 59.773C98.2326 55.3449 99.3808 51.3682 99.8681 46.3849C100.241 42.5724 99.7843 36.3811 98.99 34.4803C98.6738 33.7232 97.8111 32.9947 97.2325 32.9957C97.0052 32.9961 96.5314 33.1718 96.1799 33.386ZM3.57046 35.6072C4.32734 36.5994 5.02577 38.4942 5.25701 40.1827C5.76681 43.9063 6.09365 45.7141 6.53679 47.2624C7.61132 51.0179 11.3854 57.3403 14.0759 59.8925C16.4093 62.106 18.5008 62.9026 21.9793 62.9026C24.0195 62.9026 24.5911 62.71 24.5911 62.0227C24.5911 61.8769 22.7642 59.618 20.5312 57.0033C14.8644 50.3671 15.1432 50.744 15.1432 49.7186C15.1432 48.6202 15.454 48.2419 16.3561 48.2421C17.9084 48.2425 19.9249 49.4951 27.4962 55.162C30.2526 57.2252 33.9592 59.953 35.7331 61.2242C39.282 63.7672 40.8104 65.1363 42.08 66.9098C44.4715 70.2503 45.4576 73.6689 45.6326 79.2247C45.7419 82.6874 45.5012 86.1938 44.8808 90.1844L44.6548 91.6374H39.0212H33.3874L33.3869 90.4157C33.3855 87.3457 32.6353 83.6395 31.5566 81.375C30.1472 78.4157 28.5686 77.0853 25.0798 75.9165C17.6224 73.4183 12.0142 69.1347 7.68286 62.6279C3.47018 56.2992 1.46245 49.0993 1.79105 41.4981C1.89543 39.0816 2.35792 35.5368 2.62533 35.1043C2.80654 34.8112 3.07043 34.9516 3.57046 35.6072ZM97.6424 36.2353C98.5164 40.5082 98.4675 45.6646 97.5084 50.3642C95.7518 58.9706 90.1612 67.36 83.0715 72.0289C80.9405 73.4322 77.6412 75.007 74.9259 75.9165C71.4371 77.0853 69.8584 78.4157 68.449 81.375C67.3704 83.6395 66.6202 87.3457 66.6188 90.4157L66.6182 91.6374H60.9733H55.3282L55.117 90.2182C54.4927 86.0198 54.265 82.6549 54.3731 79.2247C54.548 73.6689 55.5342 70.2503 57.9256 66.9098C59.196 65.1353 60.7248 63.7662 64.2725 61.226C66.0464 59.9556 69.7409 57.2348 72.4825 55.1793C80.0002 49.5434 82.0944 48.2425 83.6496 48.2421C84.5517 48.2419 84.8625 48.6202 84.8625 49.7186C84.8625 50.744 85.1412 50.3671 79.4744 57.0033C77.2415 59.618 75.4146 61.8769 75.4146 62.0227C75.4146 62.71 75.9862 62.9026 78.0263 62.9026C81.6498 62.9026 83.6845 62.0923 86.0854 59.6935C88.901 56.88 92.4049 50.9809 93.4689 47.2624C93.912 45.7141 94.2388 43.9063 94.7486 40.1827C95.0682 37.8499 96.5073 34.7829 97.179 35.0032C97.3037 35.0441 97.5121 35.5984 97.6424 36.2353Z" fill="black"/>
</svg>
