<svg width="100" height="100" viewBox="0 0 100 100" fill="none" xmlns="http://www.w3.org/2000/svg">
<path fill-rule="evenodd" clip-rule="evenodd" d="M70.1268 0.097028C62.8375 1.19433 54.0219 10.0413 51.9838 18.3043C51.061 22.0455 52.098 25.0306 54.8269 26.4895C55.6654 26.9376 58.2566 27.0894 59.6422 26.7714C63.0784 25.9832 67.1444 23.4106 70.5467 19.8721C76.9059 13.2586 79.1902 5.04611 75.6406 1.55835C74.3582 0.298338 72.3412 -0.236266 70.1268 0.097028ZM73.0475 2.31952C75.7737 3.37842 75.9756 7.27588 73.5536 12.0837C70.1288 18.8817 62.8261 24.7549 57.7322 24.8081C56.1523 24.8244 55.4256 24.5639 54.6404 23.6992C54.0137 23.0092 53.7887 22.2482 53.794 20.8372C53.8007 19.0996 54.0691 18.0658 55.0838 15.8681C57.2204 11.2404 60.596 7.34339 64.9324 4.49836C67.891 2.55742 71.3022 1.64142 73.0475 2.31952ZM28.2074 4.79912C25.0044 5.99 24.12 10.6408 26.0301 16.2487C28.1621 22.5075 33.4901 28.1992 37.5283 28.5317C39.6768 28.7083 41.3577 27.6163 42.2896 25.4377C42.7982 24.2484 42.7452 20.6994 42.1872 18.5951C41.21 14.9085 39.3448 11.4559 36.8736 8.75882C34.979 6.69115 33.3115 5.4936 31.5404 4.92888C30.1398 4.48219 29.162 4.4442 28.2074 4.79912ZM70.8945 5.18617C70.719 5.32523 70.3415 6.16645 70.0555 7.05577C69.3349 9.29525 67.9797 11.5974 66.0043 13.9373C65.1414 14.9594 65.0444 15.4168 65.5844 15.9177C66.1882 16.4779 66.7134 16.3148 67.5974 15.2921C69.6821 12.8808 71.665 9.41975 72.2252 7.21423C72.5925 5.76848 72.5955 5.82123 72.1239 5.33776C71.6685 4.87087 71.3434 4.83065 70.8945 5.18617ZM32.0287 7.38239C33.1978 7.96813 36.0799 10.8435 37.1713 12.513C40.5862 17.7365 41.6617 24.3009 39.3759 25.9696C37.9259 27.0283 35.7475 26.2269 33.1646 23.6847C29.4932 20.0712 27.1744 15.1193 27.1558 10.854C27.1452 8.36772 27.7932 7.06891 29.1965 6.76432C29.9969 6.59049 30.7967 6.76512 32.0287 7.38239ZM29.1854 8.8142C28.8781 9.12931 28.883 9.82621 29.1953 10.2199C29.3309 10.3909 29.7522 10.7216 30.1317 10.9546C31.0936 11.5456 32.8938 13.4815 33.9101 15.0178C34.9587 16.603 35.2505 16.8167 35.9322 16.4981C36.3064 16.3235 36.4404 16.1081 36.4404 15.6814C36.4404 14.9111 35.2225 13.012 33.5917 11.2396C31.5524 9.0234 29.8796 8.10254 29.1854 8.8142ZM6.31687 10.9136C4.8641 11.6558 3.27274 13.5367 2.22786 15.7469C-1.42506 23.4733 -0.462986 35.7449 4.21391 41.0778C4.78544 41.7296 5.58783 42.3471 6.38745 42.7507C7.53839 43.3316 7.78069 43.3813 9.02133 43.2904C10.715 43.1661 11.7102 42.609 13.2134 40.9446C14.6248 39.3818 15.7874 36.9487 16.5714 33.9175C17.18 31.5641 17.1936 31.4141 17.1999 26.9645C17.2055 23.0147 17.151 22.1761 16.7859 20.5858C15.9134 16.7862 14.1308 13.2202 12.402 11.8165C10.5041 10.2753 8.22722 9.93758 6.31687 10.9136ZM10.1573 12.8339C13.2777 14.3826 15.6541 21.5835 15.2543 28.2782C14.97 33.0363 13.9131 36.5687 11.9793 39.2248C10.9993 40.5707 9.41207 41.4311 8.29957 41.2197C2.48573 40.1145 0.0143048 24.9962 4.24014 16.3878C5.41414 13.9963 7.18629 12.4283 8.72837 12.4164C9.04656 12.4139 9.68946 12.6019 10.1573 12.8339ZM8.09533 15.7584C7.50626 16.1812 7.53938 16.5095 8.339 18.1705C9.22537 20.0118 9.80636 22.5033 9.96152 25.1272C10.0595 26.7852 10.1628 27.3101 10.4487 27.6032C10.923 28.0895 11.3074 28.0729 11.8234 27.5439C12.2133 27.1441 12.2342 26.9798 12.1102 25.2939C11.8632 21.9412 11.2286 19.2973 10.122 17.0117C9.36771 15.4534 8.91211 15.1716 8.09533 15.7584ZM85.2341 23.5074C84.2214 23.9881 83.4977 24.7876 82.9283 26.0549C82.5326 26.9356 82.4768 27.3645 82.4942 29.3899C82.5182 32.1856 82.9461 34.003 84.2395 36.8024C86.5152 41.7272 90.256 45.7257 93.5701 46.7751C95.0865 47.2551 95.415 47.2661 96.6889 46.8782C97.9032 46.5085 98.84 45.5998 99.5071 44.1445C99.9681 43.139 100.015 42.811 99.9968 40.7085C99.9805 38.8131 99.879 38.0484 99.447 36.5651C97.7746 30.8217 93.5344 25.3045 89.4775 23.5931C88.1062 23.0147 86.347 22.9791 85.2341 23.5074ZM88.3098 25.3798C90.797 26.2504 94.2339 29.9146 96.0963 33.6821C97.6421 36.8091 98.3428 40.6707 97.7549 42.8235C97.402 44.1158 96.4421 44.953 95.3132 44.953C92.5632 44.953 87.9009 40.2481 85.9188 35.4726C84.054 30.9802 84.0725 26.7355 85.962 25.5545C86.7046 25.0904 87.346 25.0427 88.3098 25.3798ZM86.7559 27.2796C85.9297 27.8728 86.1838 28.4634 87.7888 29.6801C89.2658 30.8001 90.3499 32.0312 91.5696 33.9735C92.4773 35.4191 93.4072 35.6299 93.8313 34.4863C93.9859 34.0695 93.9084 33.7902 93.3997 32.9296C92.3555 31.1631 90.5397 29.0651 89.235 28.1175C87.7071 27.0079 87.3176 26.8761 86.7559 27.2796ZM67.917 33.6849C67.1957 34.67 64.5809 38.9271 61.9176 43.4529C55.0396 55.1414 49.789 66.1045 48.079 72.3476C46.9434 76.4936 46.8902 79.5557 47.8854 83.4566C50.1727 92.4218 57.9589 99.1297 66.9946 99.9192C74.4343 100.569 81.6642 97.2637 86.1544 91.1594C89.8917 86.0787 91.3478 79.4622 89.985 73.7549C89.4119 71.3556 88.2948 68.0859 87.0094 65.045C84.7669 59.74 79.6234 49.8906 75.1308 42.298C73.1463 38.9444 69.9557 33.7983 69.6026 33.3817C69.131 32.8255 68.4578 32.9466 67.917 33.6849ZM49.1303 34.4103C46.0986 35.4846 42.4516 38.7922 40.0811 42.6171C36.1847 48.9046 36.3056 55.5317 40.3414 56.8972C43.6313 58.0103 49.1992 54.5338 52.7042 49.1777C55.3606 45.1186 56.6927 39.9271 55.7785 37.1955C55.4339 36.1655 54.2826 34.8762 53.2964 34.4158C52.2829 33.9424 50.4573 33.9402 49.1303 34.4103ZM24.7948 35.5276C23.3405 35.9298 22.0553 36.8167 20.373 38.5792C17.9653 41.1021 16.2308 44.3867 15.1981 48.3787C14.5365 50.9369 14.4523 54.9656 15.0256 56.6529C16.0861 59.775 19.0103 60.9638 22.0288 59.4997C23.4958 58.7882 25.8284 56.5102 27.1515 54.4971C29.0607 51.5924 30.5071 47.6555 30.9215 44.2353C31.1599 42.2691 31.0562 40.9885 30.4992 39.0188C29.9983 37.2472 28.748 35.8553 27.3281 35.4888C26.2194 35.2024 25.9568 35.2065 24.7948 35.5276ZM52.799 36.6247C54.6051 37.9801 54.2985 41.61 51.9931 46.1657C49.6112 50.8727 45.0218 54.8568 41.9816 54.8568C40.05 54.8568 39.3192 53.9146 39.3174 51.4208C39.3132 45.9495 44.718 38.3158 49.9424 36.4139C51.0734 36.0022 52.0672 36.0756 52.799 36.6247ZM74.1147 44.7806C82.0205 58.2648 86.845 68.6577 88.1135 74.9377C89.0887 79.7659 87.719 85.4711 84.5489 89.7844C81.774 93.5599 78.1996 96.0231 73.7032 97.2583C72.0939 97.7003 71.4091 97.7739 68.871 97.7779C65.6372 97.7832 64.4167 97.5651 61.7252 96.501C57.4267 94.8013 53.4248 91.0664 51.322 86.7916C49.6317 83.355 48.8898 78.8764 49.4617 75.5607C50.6375 68.7458 56.7309 55.978 66.3595 40.1545L68.8491 36.0632L70.0215 37.9312C70.6662 38.9584 72.5081 42.0407 74.1147 44.7806ZM27.532 37.9791C29.3816 39.5748 29.369 44.5934 27.5038 49.2842C26.1042 52.8033 23.148 56.6027 20.9672 57.6851C19.253 58.5358 17.7147 57.8573 16.9985 55.9345C16.508 54.6181 16.7114 50.71 17.3963 48.288C18.6813 43.7437 22.1525 38.7884 24.8131 37.7002C25.7488 37.3174 26.9021 37.4356 27.532 37.9791ZM50.5275 38.3751C50.2389 38.6708 50.0435 39.1049 50.0435 39.4499C50.0435 40.7449 49.1694 42.9904 47.7227 45.4112C47.1275 46.4073 47.0575 46.6474 47.2413 47.0611C47.4997 47.6428 48.115 47.8815 48.6288 47.5996C49.4606 47.1432 51.2784 43.4899 51.9093 41.0073C52.3395 39.3141 52.3038 38.574 51.7739 38.1936C51.1947 37.7776 51.0961 37.792 50.5275 38.3751ZM25.115 39.744C24.8916 40.0708 24.8401 40.4492 24.9273 41.1225C25.0884 42.3681 24.7203 44.6622 24.0108 46.8335C23.3882 48.7387 23.429 49.2442 24.2268 49.5037C25.1706 49.8109 25.9221 48.4757 26.674 45.1551C27.0785 43.369 27.0766 40.3372 26.6705 39.743C26.275 39.1639 25.5108 39.1645 25.115 39.744ZM67.9907 65.5558C67.8778 65.7722 67.7867 67.2166 67.7867 68.7897V71.6327H64.9281C62.3322 71.6327 62.0332 71.6699 61.6752 72.0369C61.4583 72.2592 61.2809 72.5776 61.2809 72.7443C61.2809 72.9111 61.4583 73.2294 61.6752 73.4517C62.0332 73.8188 62.3322 73.856 64.9281 73.856H67.7867V76.7867C67.7867 79.4723 67.8206 79.7522 68.191 80.132C68.4698 80.4178 68.73 80.5057 69.0289 80.4147C69.8626 80.1613 69.9553 79.7948 69.9553 76.7481V73.856H72.7284C74.2628 73.856 75.6716 73.7626 75.8827 73.6468C76.3521 73.3891 76.3937 72.4009 75.9543 71.9502C75.7011 71.6909 75.1229 71.6327 72.7999 71.6327H69.9553V68.7163C69.9553 66.3347 69.8985 65.7419 69.6456 65.4824C69.2059 65.0319 68.2421 65.0745 67.9907 65.5558ZM27.5391 68.4905C26.4053 68.7871 25.7709 69.203 25.1215 70.076C21.9796 74.2992 25.1883 84.4953 31.3146 89.7546C33.2078 91.3797 35.1663 92.3177 36.6971 92.3325C39.9532 92.3636 41.7622 89.7494 41.5055 85.3838C41.364 82.9762 40.8261 80.9974 39.6086 78.4037C37.531 73.9781 34.4384 70.497 31.2693 69.0167C29.7704 68.3165 28.7531 68.173 27.5391 68.4905ZM30.9661 71.1692C32.229 71.87 34.6925 74.3267 35.9119 76.1015C38.1152 79.3079 39.3976 82.9657 39.3976 86.0429C39.3976 88.9429 38.5651 90.2276 36.6861 90.2276C33.2784 90.2276 27.7003 83.3984 26.368 77.5952C25.873 75.4388 25.9128 72.9471 26.4595 71.8764C27.254 70.3201 28.955 70.0533 30.9661 71.1692ZM28.1603 72.6433C27.4809 73.3398 27.7368 73.9674 29.0133 74.7344C30.0844 75.3777 31.8049 77.2635 32.8888 78.9821C33.3409 79.6986 33.8623 80.3254 34.0479 80.3751C34.56 80.5126 35.2079 80.1964 35.349 79.7407C35.6974 78.6151 32.4681 74.4492 30.0064 72.8486C28.9012 72.1301 28.6845 72.1058 28.1603 72.6433ZM83.671 76.9535C83.3969 77.1588 83.2749 77.6518 83.1473 79.069C82.5815 85.3559 78.4998 90.3359 72.5221 92.0323C71.7111 92.2625 70.6021 92.46 70.0578 92.4711C68.6153 92.5004 68.1116 92.6969 67.9004 93.3125C67.753 93.7422 67.7932 93.9429 68.0958 94.2888C68.4446 94.6871 68.6117 94.7142 70.0809 94.6093C72.2639 94.4537 73.8616 94.006 75.9903 92.9532C79.4284 91.2529 81.9858 88.6276 83.6783 85.0608C85.1024 82.0592 85.7911 77.7799 84.9721 77.0202C84.5364 76.6159 84.1477 76.5959 83.671 76.9535Z" fill="black"/>
</svg>
