<svg width="100" height="100" viewBox="0 0 100 100" fill="none" xmlns="http://www.w3.org/2000/svg">
<path fill-rule="evenodd" clip-rule="evenodd" d="M34.7644 0.363334C32.2095 1.25444 30.8519 2.43239 27.6993 6.49349C23.6569 11.7009 23.1202 12.1111 17.331 14.4186C13.4908 15.9492 11.8142 16.9001 10.4582 18.3165C8.40628 20.4598 7.82464 22.4916 7.41783 28.9383C7.2558 31.5055 7.03258 33.9974 6.92178 34.4759C6.56133 36.0342 5.9191 37.3246 3.88243 40.5837C0.834956 45.4598 0 47.4955 0 50.049C0 52.6024 0.834956 54.6381 3.88243 59.5142C5.9191 62.7733 6.56133 64.0637 6.92178 65.6221C7.03258 66.1005 7.2558 68.5924 7.41783 71.1596C7.82464 77.6063 8.40628 79.6381 10.4582 81.7814C11.8191 83.2029 13.4916 84.1492 17.3901 85.7029C22.1462 87.5986 23.1114 88.1859 25.0115 90.3404C25.896 91.3436 27.469 93.2554 28.5066 94.5891C30.5846 97.2594 32.2846 98.7586 34.0891 99.5116C35.0818 99.926 35.6335 100.005 37.509 99.9998C39.569 99.9945 40.0659 99.9035 43.8113 98.8467C47.5183 97.8009 48.0658 97.6995 50.012 97.6995C51.9582 97.6995 52.5057 97.8009 56.2126 98.8467C59.958 99.9035 60.4549 99.9945 62.515 99.9998C64.3904 100.005 64.9422 99.926 65.9349 99.5116C67.7394 98.7586 69.4394 97.2594 71.5173 94.5891C72.555 93.2554 74.1279 91.3436 75.0125 90.3404C76.9125 88.1859 77.8778 87.5986 82.6338 85.7029C86.5323 84.1492 88.2049 83.2029 89.5657 81.7814C91.6177 79.6381 92.1993 77.6063 92.6061 71.1596C92.7681 68.5924 92.9914 66.1005 93.1022 65.6221C93.464 64.0582 94.1071 62.7695 96.1667 59.4817C99.5791 54.0343 100.371 51.6788 99.8568 48.5107C99.5261 46.4727 98.6163 44.5267 96.1667 40.6162C94.1071 37.3284 93.464 36.0397 93.1022 34.4759C92.9914 33.9974 92.7681 31.5055 92.6061 28.9383C92.1993 22.4916 91.6177 20.4598 89.5657 18.3165C88.2049 16.895 86.5323 15.9487 82.6338 14.395C77.8778 12.4993 76.9125 11.912 75.0125 9.75748C74.1279 8.75435 72.555 6.84251 71.5173 5.50882C69.4394 2.83848 67.7394 1.33931 65.9349 0.586323C64.9422 0.171959 64.3904 0.093245 62.515 0.0981249C60.4549 0.103429 59.958 0.194449 56.2126 1.25126C52.5057 2.29703 51.9582 2.39845 50.012 2.39845C48.0753 2.39845 47.5002 2.29321 43.8113 1.26526C39.0004 -0.0754283 36.6842 -0.306267 34.7644 0.363334ZM42.3882 3.48771C49.3758 5.53301 50.3366 5.54256 57.0258 3.6356C60.0331 2.77823 60.746 2.6488 62.515 2.63989C64.3367 2.63056 64.6535 2.68805 65.5645 3.19407C67.1317 4.0646 68.1031 5.05118 70.6075 8.31601C74.5819 13.4974 76.0123 14.5826 81.7269 16.7524C86.9531 18.7368 88.5665 20.0576 89.4643 23.0856C89.7656 24.1021 89.9585 25.7541 90.1724 29.1504C90.3342 31.7177 90.6032 34.4152 90.7703 35.145C91.17 36.8899 92.1363 38.8554 94.1573 42.0358C95.0671 43.4673 96.1875 45.4502 96.6471 46.4421C97.4245 48.1201 97.4827 48.3709 97.4827 50.049C97.4827 51.727 97.4245 51.9778 96.6471 53.6558C96.1875 54.6477 95.0671 56.6306 94.1573 58.0621C92.1363 61.2425 91.17 63.208 90.7703 64.9529C90.6032 65.6827 90.3342 68.3802 90.1724 70.9475C89.9585 74.3438 89.7656 75.9958 89.4643 77.0123C88.5665 80.0403 86.9531 81.3611 81.7269 83.3455C76.0123 85.5153 74.5819 86.6006 70.6075 91.7819C68.1031 95.0467 67.1317 96.0333 65.5645 96.9038C64.6535 97.4099 64.3367 97.4674 62.515 97.458C60.746 97.4491 60.0331 97.3197 57.0258 96.4623C50.3261 94.5524 49.6979 94.5524 42.9981 96.4623C39.9909 97.3197 39.2779 97.4491 37.509 97.458C35.6872 97.4674 35.3705 97.4099 34.4595 96.9038C32.8922 96.0333 31.9209 95.0467 29.4164 91.7819C25.4917 86.6653 23.9263 85.4616 18.602 83.4668C15.9924 82.4892 13.5221 81.2308 12.5536 80.3862C11.616 79.5687 10.8333 78.2091 10.4495 76.732C10.2899 76.1178 10.0237 73.5147 9.85825 70.9475C9.69277 68.3802 9.42075 65.6827 9.25364 64.9529C8.85395 63.208 7.88766 61.2425 5.86665 58.0621C4.95688 56.6306 3.83649 54.6477 3.37682 53.6558C2.5994 51.9778 2.54126 51.727 2.54126 50.049C2.54126 48.3709 2.5994 48.1201 3.37682 46.4421C3.83649 45.4502 4.95688 43.4673 5.86665 42.0358C7.88766 38.8554 8.85395 36.8899 9.25364 35.145C9.42075 34.4152 9.69277 31.7177 9.85825 29.1504C10.0237 26.5832 10.2899 23.9801 10.4495 23.3659C10.8333 21.8888 11.616 20.5292 12.5536 19.7117C13.5221 18.8671 15.9924 17.6087 18.602 16.6311C23.9263 14.6363 25.4917 13.4326 29.4164 8.31601C32.3244 4.525 33.5473 3.41197 35.5776 2.70736C36.6303 2.34222 39.6603 2.68933 42.3882 3.48771ZM46.0773 13.993C34.445 15.4028 24.1869 22.9439 18.8752 33.99C17.7258 36.3805 16.4127 40.3071 16.0319 42.4918C15.7839 43.9146 15.7893 43.9619 16.2466 44.3482C17.3621 45.2909 17.9767 44.7276 18.5916 42.1988C20.0263 36.3007 22.6522 31.2397 26.4508 27.0508C31.2601 21.7473 37.1459 18.3392 43.9682 16.9069C47.2871 16.2103 52.7866 16.2216 56.111 16.9321C60.597 17.8907 65.0332 19.8717 68.6593 22.5355C70.9485 24.2171 74.7642 28.1993 76.3756 30.5883C78.9047 34.3377 80.7758 38.8962 81.7511 43.6839C82.3628 46.6865 82.411 52.9304 81.8462 55.9897C79.2911 69.8276 69.4617 80.2103 56.111 83.1723C53.2339 83.8108 47.2509 83.861 44.3195 83.2716C34.1525 81.2272 25.6954 74.5796 21.0981 65.0189C19.8053 62.3307 18.6461 58.6483 18.1885 55.7775C17.9295 54.1519 17.7252 53.4494 17.4328 53.1784C16.8992 52.6839 16.3572 52.71 15.8343 53.2557C15.4643 53.6418 15.4236 53.8557 15.5407 54.7939C16.3147 60.9941 19.1143 67.8492 22.8313 72.6448C35.7775 89.3486 59.337 90.9657 74.0683 76.1617C86.5333 63.6351 88.2933 43.8908 78.273 28.9905C76.587 26.4837 72.6245 22.3481 70.1387 20.5014C67.7896 18.7561 63.2041 16.357 60.5836 15.5021C55.9233 13.9817 50.6751 13.4356 46.0773 13.993ZM52.7051 21.6416C48.5279 22.3681 46.1663 24.7291 46.39 27.9555C46.5414 30.1411 47.3278 30.8885 52.4256 33.6908C58.2505 36.8931 60.5673 38.9988 64.4957 44.6608C67.0384 48.3255 67.8734 49.2351 69.2979 49.8928C70.4291 50.4149 71.7155 50.2974 73.146 49.541C78.4928 46.7133 77.3319 35.2411 70.982 28.1571C66.7278 23.4107 58.7946 20.5827 52.7051 21.6416ZM60.2787 24.6816C63.8515 25.6378 67.1917 27.6029 69.2613 29.9662C72.2687 33.4002 74.0191 37.8224 74.0616 42.0927C74.0801 43.9502 74.0177 44.362 73.5599 45.4006C72.7501 47.2379 71.2408 48.1047 70.0143 47.4365C69.1928 46.9889 68.6378 46.3197 66.3734 43.0474C62.0799 36.8424 59.588 34.6356 52.7358 30.9694C49.511 29.244 48.7922 28.6281 48.7922 27.591C48.7922 25.9938 50.087 24.8369 52.5266 24.2543C54.3565 23.8174 57.7478 24.0043 60.2787 24.6816ZM53.6901 24.8352C52.7075 25.5389 52.3011 26.1947 51.8693 27.7735C51.4402 29.3429 51.5552 29.9781 52.3357 30.3492C53.0977 30.7116 53.7513 30.1674 54.0747 28.9014C54.4392 27.4741 54.8076 26.9227 55.397 26.9227C56.0492 26.9227 56.3127 27.4834 56.1724 28.5738C56.0831 29.269 56.1777 29.7127 56.6131 30.6416C57.8018 33.1774 60.5476 33.8389 62.7154 32.1121C63.8199 31.2322 64.5104 31.1713 64.9759 31.9129C65.2949 32.4208 65.2851 32.5089 64.7773 33.6898C63.6835 36.233 64.3205 38.6133 66.3718 39.6498C67.1571 40.0465 67.5534 40.1134 68.601 40.0255C69.9527 39.9124 70.4132 40.0593 70.747 40.7106C71.0617 41.324 70.66 41.9898 69.4628 42.8387C68.6252 43.4325 68.3981 43.7189 68.3489 44.2441C68.2767 45.0149 68.7315 45.5934 69.4099 45.5934C70.155 45.5934 72.248 43.9931 72.7694 43.0245C73.6343 41.4188 73.3056 39.4803 71.9695 38.3072C71.1345 37.5739 70.1064 37.3068 68.7069 37.4594C67.7016 37.569 67.4909 37.526 67.1155 37.1341C66.5409 36.5345 66.5688 35.7204 67.2141 34.2495C67.63 33.3011 67.717 32.853 67.6148 32.1859C67.4336 31.0031 67.0069 30.2232 66.1821 29.5667C64.8535 28.5091 62.9577 28.6033 61.5914 29.7946C60.6344 30.629 59.8574 30.7368 59.144 30.1341C58.7448 29.7965 58.671 29.5228 58.6425 28.2727C58.5854 25.7791 57.6067 24.5742 55.5143 24.4217C54.5803 24.3536 54.262 24.4257 53.6901 24.8352ZM39.4403 25.464C37.5944 25.979 34.6719 27.3933 32.9097 28.6249C31.0259 29.9416 28.1437 33.1108 26.8522 35.2857C25.1999 38.0676 24.1438 41.2676 23.6906 44.8627C23.5806 45.7367 23.6264 46.0269 23.9372 46.4275C24.3835 47.0027 25.3634 47.0894 25.7167 46.5851C25.8456 46.4014 26.1014 45.2945 26.2854 44.1254C27.0703 39.1348 29.3239 35.002 33.0416 31.7344C34.8756 30.1228 38.3088 28.3563 40.7618 27.7622C42.6395 27.3073 43.0997 26.991 43.0997 26.1546C43.0997 24.9578 42.0001 24.7503 39.4403 25.464ZM40.0502 31.6648C39.3234 31.9341 38.4086 32.3279 38.0172 32.5396C34.5367 34.4232 31.5728 37.9947 30.3091 41.8281C29.8836 43.1189 30.019 43.7754 30.7858 44.1401C31.4382 44.4503 32.2598 43.936 32.4507 43.0977C32.5232 42.7784 32.9115 41.8009 33.3135 40.9258C34.3737 38.6165 36.8879 36.0064 39.2098 34.8045C40.1452 34.3203 41.0706 33.9242 41.2662 33.9242C41.8358 33.9242 42.6931 33.0957 42.6931 32.5451C42.6931 32.1089 41.8651 31.1573 41.4967 31.1705C41.428 31.173 40.777 31.3954 40.0502 31.6648ZM46.9877 38.2902C44.0603 39.1117 41.1792 41.5005 39.7916 44.2564C38.8064 46.2128 38.4238 47.8335 38.4238 50.049C38.4238 52.2689 38.8062 53.8832 39.801 55.864C41.2107 58.6706 44.0522 60.9966 47.0747 61.8183C48.6039 62.234 51.42 62.234 52.9493 61.8183C56.9344 60.735 60.2514 57.2733 61.2895 53.1144C61.6877 51.5184 61.6877 48.5795 61.2895 46.9836C60.2514 42.8247 56.9344 39.3629 52.9493 38.2796C51.4623 37.8756 48.4459 37.8807 46.9877 38.2902ZM52.6687 40.8398C56.5578 42.032 59.1605 45.7137 59.1605 50.0233C59.1605 53.6567 57.5359 56.5945 54.4846 58.4799C52.5876 59.6519 49.3704 59.9472 47.1194 59.1558C43.2179 57.7842 40.8634 54.34 40.8634 50.0038C40.8634 45.8037 43.2589 42.3195 47.0926 40.9434C48.5783 40.41 51.1128 40.3629 52.6687 40.8398ZM48.8938 42.0691C46.7415 43.0504 45.5847 45.5459 46.2357 47.8034C46.6439 49.2192 47.4012 50.1425 48.6966 50.8039C49.6405 51.2859 50.0006 51.3606 50.9085 51.2628C53.006 51.037 54.4195 49.8381 55.0174 47.7777C55.6666 45.5417 54.5059 43.0188 52.4073 42.1039C51.4936 41.7057 49.7294 41.6881 48.8938 42.0691ZM51.9012 44.7482C52.6781 45.3857 52.9505 46.4372 52.5792 47.3646C52.2704 48.1361 51.3828 48.776 50.6219 48.776C49.8609 48.776 48.9733 48.1361 48.6645 47.3646C48.0812 45.9079 49.102 44.3204 50.6219 44.3204C51.0744 44.3204 51.5904 44.4929 51.9012 44.7482ZM27.8158 47.7923C26.0605 48.2977 24.7114 49.7195 23.934 51.8831C23.5453 52.9648 23.4871 53.5508 23.4847 56.414C23.4816 60.0722 23.7799 61.6632 25.1082 65.0753C28.0392 72.6047 34.8626 77.6948 42.6931 78.1936C48.1329 78.5403 51.8417 76.0015 51.8417 71.9315C51.8417 69.785 50.7166 68.4766 46.49 65.7061C40.1242 61.534 37.9666 59.1927 34.0364 52.1931C32.9296 50.2221 31.5433 48.4893 30.7157 48.0427C29.8643 47.5831 28.8465 47.4953 27.8158 47.7923ZM30.1556 50.8758C30.4719 51.1794 31.4484 52.6692 32.3252 54.1862C36.3526 61.1532 38.8585 63.8152 45.2234 67.8886C46.5591 68.7435 48.058 69.8491 48.5545 70.3453C49.4208 71.2118 49.4527 71.2874 49.3502 72.2357C49.2915 72.7791 49.0648 73.4754 48.8462 73.7829C47.1497 76.1712 41.7954 76.3208 36.7598 74.1209C30.0029 71.169 25.5565 63.6514 25.8603 55.6935C25.9851 52.4235 26.7664 50.7489 28.3846 50.2828C29.1145 50.0725 29.4286 50.1777 30.1556 50.8758ZM73.7191 52.0713C73.3781 52.4271 73.2661 53.0021 73.0996 55.2471C72.4801 63.6014 65.5952 71.2052 57.4324 72.5502C55.4253 72.8807 54.8912 73.1884 54.8912 74.0137C54.8912 75.0811 55.3809 75.3695 56.938 75.2184C61.2142 74.8036 66.0792 72.2943 69.4294 68.7755C73.1403 64.8776 75.3079 59.9107 75.5691 54.7067C75.6659 52.7806 75.6333 52.4189 75.3353 52.1076C74.9047 51.6585 74.1314 51.6411 73.7191 52.0713ZM28.8687 53.5514C26.7464 54.3704 25.7391 56.0126 26.2187 57.8714C26.6968 59.7244 27.7469 60.4452 29.9688 60.4452C31.2778 60.4452 31.5549 60.5114 31.9103 60.9096C32.497 61.5667 32.4263 62.5174 31.718 63.494C30.2989 65.4511 30.9237 68.1723 33.0203 69.1661C34.2139 69.7317 35.1505 69.6685 36.4925 68.9319C38.7003 67.7198 39.5271 68.2109 39.5658 70.7576C39.5959 72.7405 40.1978 73.8342 41.6201 74.4909C43.5893 75.4 45.2899 74.6761 46.6419 72.3535C47.5097 70.8624 47.5689 70.1391 46.8622 69.656C46.0716 69.1154 45.5259 69.4165 44.6245 70.8906C43.7042 72.3957 43.0408 72.6894 42.3022 71.9186C41.9651 71.5668 41.9092 71.3141 42.006 70.5774C42.3447 67.999 40.5136 65.7496 38.0762 65.7494C37.3815 65.7491 36.7407 65.9426 35.8411 66.4243C34.7571 67.0043 34.5076 67.065 34.0677 66.8558C33.2378 66.4612 33.2 65.7059 33.9549 64.609C35.111 62.9288 35.0429 60.7916 33.7871 59.3391C32.8154 58.2153 32.0512 57.8992 30.3054 57.8992C29.0911 57.8992 28.8512 57.837 28.6654 57.4748C28.3184 56.7982 28.7292 56.3117 30.0826 55.7968C31.512 55.2528 32.0316 54.6314 31.7358 53.8194C31.391 52.8727 30.7761 52.8152 28.8687 53.5514ZM67.6607 54.4514C67.4932 54.6555 67.2108 55.4556 67.0335 56.229C66.3354 59.2734 64.5685 62.0583 62.1023 64.0017C60.6318 65.1606 58.2365 66.2715 56.6918 66.5108C55.3704 66.7156 54.8912 67.1051 54.8912 67.9746C54.8912 69.2368 55.8178 69.437 58.315 68.7148C61.3411 67.8396 64.2595 65.8951 66.1742 63.4783C67.6168 61.6573 68.9885 58.8208 69.4317 56.742C69.7486 55.2547 69.7496 55.0943 69.4436 54.607C69.0476 53.9762 68.1173 53.8951 67.6607 54.4514ZM18.2269 73.7755C17.7197 74.3604 17.8197 75.1108 18.5244 76.0028C19.0462 76.6635 19.2694 76.7937 19.7887 76.7407C20.6783 76.6495 21.1465 75.7779 20.7359 74.9772C19.968 73.4797 18.919 72.9773 18.2269 73.7755ZM22.4556 79.0003C22.1811 79.2867 21.9565 79.6888 21.9565 79.8939C21.9565 80.0993 22.4584 80.7626 23.072 81.3681C25.3925 83.658 28.8049 86.0493 31.8897 87.547C33.5605 88.3582 34.2279 88.3444 34.6008 87.4906C35.0039 86.5668 34.5721 86.0561 32.4948 85.0008C30.1015 83.7849 27.4242 81.9367 25.238 79.9915C24.3034 79.1598 23.4072 78.4794 23.2466 78.4794C23.086 78.4794 22.73 78.7139 22.4556 79.0003Z" fill="black"/>
</svg>
