<svg width="100" height="100" viewBox="0 0 100 100" fill="none" xmlns="http://www.w3.org/2000/svg">
<path fill-rule="evenodd" clip-rule="evenodd" d="M25.7595 0.329799C23.1307 0.805439 21.0539 2 20.2975 3.47116C20.1235 3.80969 19.6087 4.50241 19.1533 5.0104C17.98 6.31964 17.599 7.57314 17.5486 10.2899C17.5091 12.4238 17.4845 12.5424 17.0027 12.9213C16.2634 13.5029 15.7897 14.8933 15.9449 16.0261C16.1923 17.8306 17.6075 19.4649 19.1984 19.7832C19.7111 19.8858 19.9623 20.1259 20.4523 20.9823C21.1777 22.2503 22.6076 23.7667 23.7694 24.5001C24.5659 25.0029 24.6028 25.0698 24.6028 26.012C24.6028 26.9261 24.5632 27.0067 24.0572 27.1182C21.7365 27.63 18.4864 29.0712 16.2904 30.5626C14.9974 31.4406 14.316 32.3864 13.0885 35.0057C11.883 37.5779 11.2958 40.0811 11.1645 43.2088C11.0548 45.819 11.0548 45.8198 11.5691 46.3341C11.8521 46.6171 12.2932 46.8486 12.5491 46.8486C13.0113 46.8486 13.022 46.9026 14.04 54.3745C15.0551 61.8262 15.0621 61.9109 14.7341 62.9567C14.2793 64.4074 14.29 67.5111 14.7535 68.5405C15.2528 69.6496 16.5053 70.9144 17.6216 71.4372L18.5987 71.8948L18.7317 74.4028C19.0404 80.2267 19.5682 85.942 20.3753 92.2043L20.4794 93.0119L18.3245 93.5655C14.028 94.6694 12.8333 95.2333 12.2007 96.4568C11.4907 97.8298 12.1124 99.4587 13.4875 99.829C14.007 99.9689 16.1725 100.026 19.5452 99.9877L24.7943 99.929L25.4204 99.3025C26.23 98.4925 26.3492 97.3268 25.8357 95.2418C25.4744 93.7744 25.474 93.677 25.8216 91.9677C26.3185 89.5238 26.8495 85.172 27.7658 76.0341C28.4709 69.0047 28.5915 68.1709 28.9578 67.8048L29.3652 67.3974L29.7726 67.8048C30.1389 68.1709 30.2595 69.0047 30.9646 76.0341C31.8809 85.172 32.4119 89.5238 32.9088 91.9677C33.2564 93.677 33.256 93.7744 32.8947 95.2418C32.3812 97.3268 32.5004 98.4925 33.31 99.3025L33.9361 99.929L39.1852 99.9877C42.5579 100.026 44.7234 99.9689 45.2429 99.829C46.618 99.4587 47.2397 97.8298 46.5297 96.4568C45.8975 95.2343 44.3563 94.5203 40.1075 93.4818L38.2492 93.0275L38.3543 92.212C39.1645 85.918 39.6898 80.2297 39.9985 74.4079L40.1311 71.9049L40.9379 71.549C42.0582 71.0547 43.333 69.8256 43.8749 68.7165C44.2539 67.9409 44.3309 67.4644 44.3293 65.898C44.3281 64.6965 44.2075 63.63 43.9963 62.9567C43.6683 61.9109 43.6753 61.8262 44.6904 54.3745C45.6786 47.1215 45.7312 46.8486 46.1428 46.8486C46.5003 46.8486 46.6267 47.0588 46.9192 48.1394C47.3917 49.8844 49.1663 53.4018 50.3824 55.0028C51.6083 56.617 53.7377 58.6452 55.3702 59.7538C57.174 60.9787 60.0387 62.2741 62.2498 62.8644C63.9692 63.3236 64.5623 63.3825 67.464 63.3825C70.3819 63.3825 70.954 63.325 72.7224 62.8535C75.0907 62.2223 78.5579 60.5541 80.3805 59.1686C81.9955 57.9411 84.0235 55.8116 85.1315 54.1801C86.3564 52.3763 87.6518 49.5116 88.2421 47.3005C88.7013 45.581 88.7602 44.9879 88.7602 42.0863C88.7602 39.1846 88.7013 38.5915 88.2421 36.8721C87.6518 34.661 86.3564 31.7962 85.1315 29.9925C84.0235 28.361 81.9955 26.2314 80.3805 25.0039C78.5579 23.6185 75.0907 21.9503 72.7224 21.3191C70.954 20.8476 70.3819 20.79 67.464 20.79C64.55 20.79 63.9716 20.8482 62.2056 21.3175C57.5389 22.5577 53.2192 25.4272 50.3854 29.1698C49.1718 30.7725 47.5701 33.8988 46.9988 35.7799L46.5738 37.1791L46.1364 36.1105C45.5629 34.7092 44.7226 33.068 44.0858 32.106C42.9847 30.4421 38.165 27.8881 34.6732 27.1182C34.1708 27.0075 34.1275 26.9228 34.1275 26.0487C34.1275 25.1139 34.1458 25.0865 35.3199 24.2584C36.5548 23.3875 37.8509 21.9146 38.4976 20.6466C38.7774 20.0983 39.0336 19.8828 39.5219 19.7852C41.9136 19.3068 43.4881 16.2827 42.5039 14.0577C42.2829 13.5578 41.8777 13.0018 41.6034 12.8222C41.128 12.5107 41.1101 12.4297 41.2135 11.0616C41.4306 8.19224 40.5714 6.0343 38.3111 3.7704C35.1536 0.608 30.807 -0.583381 25.7595 0.329799ZM66.1147 0.256975C65.9837 0.38794 65.8765 0.779445 65.8765 1.1267C65.8765 2.05556 65.1872 2.18216 64.3818 1.40153C63.7305 0.770317 63.3202 0.670307 62.9398 1.0507C62.5594 1.43109 62.6594 1.84145 63.2906 2.4927C64.0837 3.31103 63.9436 3.94105 62.9495 4.02637C62.1163 4.09781 61.697 4.59944 62.0282 5.12846C62.153 5.32749 62.5461 5.50151 62.9495 5.53604C63.9436 5.62137 64.0837 6.25138 63.2906 7.06972C62.6594 7.72097 62.5594 8.13132 62.9398 8.51171C63.3202 8.89211 63.7305 8.7921 64.3818 8.16089C65.2001 7.36776 65.8301 7.50785 65.9154 8.50199C66.0343 9.88724 67.3062 9.88724 67.4251 8.50199C67.5104 7.50785 68.1404 7.36776 68.9588 8.16089C69.61 8.7921 70.0204 8.89211 70.4008 8.51171C70.7812 8.13132 70.6812 7.72097 70.05 7.06972C69.2568 6.25138 69.3969 5.62137 70.3911 5.53604C71.2243 5.4646 71.6436 4.96297 71.3124 4.43395C71.1876 4.23493 70.7945 4.0609 70.3911 4.02637C69.3969 3.94105 69.2568 3.31103 70.05 2.4927C70.6812 1.84145 70.7812 1.43109 70.4008 1.0507C70.0204 0.670307 69.61 0.770317 68.9588 1.40153C68.1533 2.18216 67.464 2.05556 67.464 1.1267C67.464 0.153791 66.7064 -0.334747 66.1147 0.256975ZM32.5718 2.07599C34.2456 2.60878 35.7783 3.47553 36.932 4.5417C38.9826 6.43692 39.8219 8.51271 39.6162 11.1802C39.438 13.4929 39.2683 13.5669 38.6075 11.6209C38.2936 10.6962 37.9202 9.84299 37.7779 9.72492C37.5924 9.57094 37.1272 9.57094 36.1327 9.72532C33.417 10.1466 29.319 9.93705 24.4328 9.12705L21.9808 8.72066L21.4918 9.17983C21.223 9.43244 20.6306 10.3903 20.1758 11.3082L19.3488 12.9774L19.1861 12.1037C19.0966 11.6233 19.0632 10.498 19.1117 9.60329C19.2139 7.72216 19.7474 6.39624 20.6773 5.71264C21.0031 5.47314 21.4079 4.9334 21.5768 4.51293C22.0994 3.21301 23.9262 2.19605 26.4655 1.79164C27.9073 1.56186 31.4793 1.72834 32.5718 2.07599ZM67.7706 3.68091C68.755 4.66513 68.0575 6.36866 66.6703 6.36866C65.8545 6.36866 65.0828 5.59696 65.0828 4.78121C65.0828 3.96546 65.8545 3.19376 66.6703 3.19376C67.0568 3.19376 67.4636 3.37373 67.7706 3.68091ZM78.8143 9.78168C78.6833 9.91264 78.5761 10.3041 78.5761 10.6514C78.5761 11.5803 77.8868 11.7069 77.0814 10.9262C76.4301 10.295 76.0198 10.195 75.6394 10.5754C75.259 10.9558 75.359 11.3661 75.9902 12.0174C76.7833 12.8357 76.6432 13.4657 75.6491 13.5511C74.8159 13.6225 74.3966 14.1241 74.7278 14.6532C74.8526 14.8522 75.2457 15.0262 75.6491 15.0607C76.6432 15.1461 76.7833 15.7761 75.9902 16.5944C75.359 17.2457 75.259 17.656 75.6394 18.0364C76.0198 18.4168 76.4301 18.3168 77.0814 17.6856C77.8997 16.8925 78.5297 17.0325 78.615 18.0267C78.7339 19.4119 80.0058 19.4119 80.1247 18.0267C80.21 17.0325 80.84 16.8925 81.6584 17.6856C82.3096 18.3168 82.72 18.4168 83.1004 18.0364C83.4808 17.656 83.3808 17.2457 82.7496 16.5944C81.9564 15.7761 82.0965 15.1461 83.0907 15.0607C83.4941 15.0262 83.8872 14.8522 84.012 14.6532C84.3432 14.1241 83.9239 13.6225 83.0907 13.5511C82.0965 13.4657 81.9564 12.8357 82.7496 12.0174C83.3808 11.3661 83.4808 10.9558 83.1004 10.5754C82.72 10.195 82.3096 10.295 81.6584 10.9262C80.8529 11.7069 80.1636 11.5803 80.1636 10.6514C80.1636 9.96086 79.8646 9.54356 79.3699 9.54356C79.1953 9.54356 78.9452 9.65071 78.8143 9.78168ZM26.3887 11.051C27.9502 11.2864 29.973 11.4001 32.7951 11.4118L36.9197 11.4287L37.4225 13.0161C38.0787 15.0871 38.1934 16.1555 37.9077 17.5324C37.1626 21.121 34.3182 23.8566 30.6844 24.4789C26.1972 25.2476 21.6611 21.9868 20.8116 17.3816C20.4344 15.3379 20.9664 12.6151 22.0363 11.1128C22.5356 10.4115 22.1762 10.4165 26.3887 11.051ZM49.4464 11.3691C49.3155 11.5001 49.2083 11.8916 49.2083 12.2388C49.2083 13.1677 48.519 13.2943 47.7135 12.5137C47.0623 11.8825 46.6519 11.7825 46.2715 12.1628C45.8911 12.5432 45.9912 12.9536 46.6224 13.6048C47.4155 14.4232 47.2754 15.0532 46.2813 15.1385C44.896 15.2574 44.896 16.5293 46.2813 16.6482C47.2754 16.7335 47.4155 17.3635 46.6224 18.1819C45.9912 18.8331 45.8911 19.2435 46.2715 19.6239C46.6519 20.0043 47.0623 19.9042 47.7135 19.273C48.5319 18.4799 49.1619 18.62 49.2472 19.6141C49.3661 20.9994 50.638 20.9994 50.7569 19.6141C50.8422 18.62 51.4722 18.4799 52.2906 19.273C52.9418 19.9042 53.3522 20.0043 53.7326 19.6239C54.1129 19.2435 54.0129 18.8331 53.3817 18.1819C52.5886 17.3635 52.7287 16.7335 53.7228 16.6482C54.1262 16.6137 54.5193 16.4396 54.6442 16.2406C54.9753 15.7116 54.556 15.21 53.7228 15.1385C52.7287 15.0532 52.5886 14.4232 53.3817 13.6048C54.0129 12.9536 54.1129 12.5432 53.7326 12.1628C53.3522 11.7825 52.9418 11.8825 52.2906 12.5137C51.4851 13.2943 50.7958 13.1677 50.7958 12.2388C50.7958 11.5483 50.4967 11.131 50.002 11.131C49.8274 11.131 49.5774 11.2382 49.4464 11.3691ZM80.4702 13.2056C81.4546 14.1898 80.7571 15.8934 79.3699 15.8934C78.5541 15.8934 77.7824 15.1217 77.7824 14.3059C77.7824 13.4902 78.5541 12.7185 79.3699 12.7185C79.7564 12.7185 80.1632 12.8984 80.4702 13.2056ZM18.5463 15.2449C19.1198 16.4978 19.4254 18.0761 19.0944 18.0761C18.7053 18.0761 17.677 16.6932 17.5456 15.9936C17.4361 15.4098 17.7256 14.1075 17.9649 14.1075C17.9983 14.1075 18.2598 14.6192 18.5463 15.2449ZM41.1881 15.9757C41.0568 16.6764 40.0323 18.0761 39.6509 18.0761C39.3419 18.0761 39.693 16.3178 40.2406 15.1215L40.7415 14.0277L41.0324 14.6419C41.224 15.0467 41.277 15.5015 41.1881 15.9757ZM51.1024 14.7931C52.0868 15.7773 51.3893 17.4808 50.002 17.4808C49.6155 17.4808 49.2087 17.3008 48.9017 16.9937C48.5946 16.6867 48.4146 16.2799 48.4146 15.8934C48.4146 15.5068 48.5946 15.1 48.9017 14.7931C49.2087 14.4859 49.6155 14.3059 50.002 14.3059C50.3886 14.3059 50.7954 14.4859 51.1024 14.7931ZM11.3476 20.1001C11.2167 20.2311 11.1095 20.6226 11.1095 20.9698C11.1095 21.8987 10.4202 22.0253 9.61474 21.2447C8.96349 20.6134 8.55313 20.5134 8.17274 20.8938C7.79235 21.2742 7.89236 21.6846 8.52356 22.3358C9.31669 23.1542 9.1766 23.7842 8.18246 23.8695C6.79721 23.9884 6.79721 25.2603 8.18246 25.3792C9.1766 25.4645 9.31669 26.0945 8.52356 26.9128C7.89236 27.5641 7.79235 27.9744 8.17274 28.3548C8.55313 28.7352 8.96349 28.6352 9.61474 28.004C10.4331 27.2109 11.0631 27.351 11.1484 28.3451C11.2673 29.7304 12.5392 29.7304 12.6581 28.3451C12.7434 27.351 13.3734 27.2109 14.1918 28.004C14.843 28.6352 15.2534 28.7352 15.6338 28.3548C16.0141 27.9744 15.9141 27.5641 15.2829 26.9128C14.4898 26.0945 14.6299 25.4645 15.624 25.3792C16.4572 25.3077 16.8765 24.8061 16.5453 24.2771C16.4205 24.078 16.0274 23.904 15.624 23.8695C14.6299 23.7842 14.4898 23.1542 15.2829 22.3358C15.9141 21.6846 16.0141 21.2742 15.6338 20.8938C15.2534 20.5134 14.843 20.6134 14.1918 21.2447C13.3863 22.0253 12.697 21.8987 12.697 20.9698C12.697 20.2793 12.3979 19.862 11.9032 19.862C11.7286 19.862 11.4786 19.9691 11.3476 20.1001ZM92.3076 20.1001C92.1766 20.2311 92.0695 20.6226 92.0695 20.9698C92.0695 21.8987 91.3801 22.0253 90.5747 21.2447C89.9234 20.6134 89.5131 20.5134 89.1327 20.8938C88.7523 21.2742 88.8523 21.6846 89.4835 22.3358C90.2766 23.1542 90.1366 23.7842 89.1424 23.8695C88.3092 23.9409 87.8899 24.4426 88.2211 24.9716C88.3459 25.1706 88.739 25.3446 89.1424 25.3792C90.1366 25.4645 90.2766 26.0945 89.4835 26.9128C88.8523 27.5641 88.7523 27.9744 89.1327 28.3548C89.5131 28.7352 89.9234 28.6352 90.5747 28.004C91.393 27.2109 92.023 27.351 92.1084 28.3451C92.2272 29.7304 93.4992 29.7304 93.618 28.3451C93.7034 27.351 94.3334 27.2109 95.1517 28.004C95.803 28.6352 96.2133 28.7352 96.5937 28.3548C96.9741 27.9744 96.8741 27.5641 96.2429 26.9128C95.4498 26.0945 95.5898 25.4645 96.584 25.3792C96.9874 25.3446 97.3805 25.1706 97.5053 24.9716C97.8365 24.4426 97.4172 23.9409 96.584 23.8695C95.5898 23.7842 95.4498 23.1542 96.2429 22.3358C96.8741 21.6846 96.9741 21.2742 96.5937 20.8938C96.2133 20.5134 95.803 20.6134 95.1517 21.2447C94.3463 22.0253 93.6569 21.8987 93.6569 20.9698C93.6569 20.2793 93.3579 19.862 92.8632 19.862C92.6886 19.862 92.4386 19.9691 92.3076 20.1001ZM72.1271 22.8131C79.4613 24.6356 85.1274 30.4148 86.8406 37.82C87.3823 40.1611 87.3379 44.3641 86.7466 46.7375C85.8967 50.1487 83.9435 53.6036 81.4623 56.0846C74.173 63.374 62.6768 63.8655 54.6822 57.2296C51.5139 54.5998 49.0585 50.55 48.0874 46.3526C47.5536 44.0458 47.5903 39.8017 48.1638 37.5224C49.4222 32.5189 52.4384 28.2453 56.6469 25.502C59.145 23.8737 61.3646 23.0476 65.0828 22.362C66.224 22.1517 70.5907 22.4313 72.1271 22.8131ZM13.0035 23.524C13.3107 23.831 13.4907 24.2378 13.4907 24.6243C13.4907 25.0109 13.3107 25.4177 13.0035 25.7246C12.0193 26.709 10.3158 26.0116 10.3158 24.6243C10.3158 23.8086 11.0875 23.0369 11.9032 23.0369C12.2898 23.0369 12.6966 23.2169 13.0035 23.524ZM93.9635 23.524C94.9479 24.5082 94.2504 26.2118 92.8632 26.2118C92.0474 26.2118 91.2757 25.4401 91.2757 24.6243C91.2757 23.8086 92.0474 23.0369 92.8632 23.0369C93.2497 23.0369 93.6565 23.2169 93.9635 23.524ZM29.0676 26.1009C29.9406 26.1072 31.079 26.0401 31.5975 25.9516L32.5401 25.7905V26.669C32.5401 27.2474 32.4044 27.7199 32.1424 28.0528C31.6267 28.7084 30.2147 29.3867 29.3652 29.3867C28.5157 29.3867 27.1037 28.7084 26.588 28.0528C26.3151 27.706 26.1903 27.2474 26.1903 26.5922V25.6371L26.8352 25.8631C27.1898 25.9876 28.1945 26.0945 29.0676 26.1009ZM25.8151 29.4676C28.0202 31.4502 30.7121 31.4486 32.9201 29.4633L33.898 28.5842L34.8471 28.7969C36.2934 29.1212 38.2075 29.9248 40.1428 31.0204C41.5086 31.7937 41.8624 32.082 41.7574 32.3358C39.3294 38.2079 38.8899 41.1007 38.8899 51.2064V57.9608H29.3652H19.8405V51.2064C19.8405 41.1025 19.4 38.2032 16.9738 32.3377C16.6962 31.6669 22.6965 28.7584 24.6729 28.6061C24.766 28.5989 25.2799 28.9866 25.8151 29.4676ZM55.4589 29.5659C54.3001 30.0748 53.6766 31.6335 54.2066 32.6959C54.3618 33.0073 56.136 35.4013 58.1488 38.0161L61.8087 42.7705L61.9079 50.8581L62.0071 58.9458L62.6558 59.5943C63.214 60.1523 63.4418 60.2427 64.2891 60.2427C65.1364 60.2427 65.364 60.1525 65.9224 59.5939L66.5711 58.9452V50.466V41.9871L66.0557 40.8957C65.5507 39.8265 59.323 31.516 58.0518 30.2153C57.3662 29.5139 56.227 29.2283 55.4589 29.5659ZM77.6832 29.5669C77.0883 29.8298 76.5478 30.4703 72.8127 35.3396C70.929 37.7952 69.1558 40.2954 68.8723 40.8957L68.3569 41.9871V50.466V58.9452L69.0056 59.5939C69.564 60.1525 69.7916 60.2427 70.6389 60.2427C71.4862 60.2427 71.714 60.1523 72.2722 59.5943L72.9209 58.9458L73.0201 50.8581L73.1193 42.7705L76.7792 38.0161C78.792 35.4013 80.5662 33.0073 80.7214 32.6959C81.376 31.3839 80.362 29.6331 78.8553 29.4736C78.4289 29.4286 77.9015 29.4704 77.6832 29.5669ZM58.0038 32.6124L59.197 34.1512L58.732 34.6463C58.4763 34.9185 58.1979 35.1412 58.1133 35.1412C57.8617 35.1412 55.5593 32.0919 55.5587 31.7579C55.5579 31.3156 55.9877 30.9497 56.4302 31.0162C56.6396 31.0476 57.3476 31.7659 58.0038 32.6124ZM79.1318 31.2122C79.2627 31.3432 79.3697 31.5887 79.3693 31.7579C79.3687 32.0919 77.0663 35.1412 76.8147 35.1412C76.7301 35.1412 76.4537 34.9205 76.2005 34.6509C75.8801 34.31 75.7979 34.0834 75.9305 33.9067C78.0729 31.0519 78.5607 30.6412 79.1318 31.2122ZM51.4903 33.5345C50.3326 34.0429 49.7076 35.6027 50.2372 36.6618C50.5769 37.3412 55.9201 44.2039 56.5461 44.7651C56.8606 45.0471 57.2686 45.162 57.9564 45.162C58.7703 45.162 59.02 45.0659 59.5289 44.5567C60.2594 43.8263 60.4876 42.7592 60.0853 41.9547C59.7567 41.2975 54.4118 34.4207 53.8127 33.8841C53.3478 33.4678 52.0774 33.2765 51.4903 33.5345ZM81.6518 33.5355C81.4336 33.6319 81.0212 33.9657 80.7355 34.2772C79.7919 35.3059 75.1288 41.3807 74.8423 41.9547C74.4404 42.7594 74.6688 43.8267 75.3991 44.5567C75.908 45.0659 76.1577 45.162 76.9716 45.162C77.6594 45.162 78.0674 45.0471 78.3819 44.7651C79.0079 44.2039 84.3511 37.3412 84.6908 36.6618C85.345 35.3533 84.3295 33.6016 82.824 33.4422C82.3975 33.3972 81.8701 33.439 81.6518 33.5355ZM16.4467 35.3805C17.2631 37.445 18.253 42.6929 18.253 44.9558C18.253 45.2161 17.8437 45.2612 15.475 45.2612H12.697V43.7989C12.697 41.9769 13.1317 39.441 13.7562 37.6216C14.3735 35.8224 15.5183 33.5162 15.7002 33.7045C15.7784 33.7853 16.1144 34.5395 16.4467 35.3805ZM44.9768 37.6216C45.5997 39.4462 46.0334 41.9819 46.0334 43.7989V45.2612H43.2385H40.4434L40.5795 43.7233C40.9101 39.9893 41.6064 36.8904 42.6637 34.4467L43.0929 33.4545L43.7977 34.8435C44.1852 35.6075 44.7158 36.8576 44.9768 37.6216ZM53.775 36.2361C54.3411 36.9473 54.7614 37.6408 54.709 37.7771C54.6074 38.0419 53.6179 38.6371 53.5099 38.4982C51.5466 35.9716 51.3752 35.6333 51.8276 35.1809C52.2973 34.7112 52.7618 34.9628 53.775 36.2361ZM83.1004 35.1809C83.2313 35.3118 83.3385 35.5379 83.3385 35.6831C83.3385 36.029 81.5123 38.4978 81.255 38.4998C81.0159 38.5016 80.1636 37.8131 80.1636 37.6178C80.1636 37.5418 80.6178 36.9086 81.1728 36.2111C82.1674 34.9612 82.6323 34.7128 83.1004 35.1809ZM62.2617 38.1673C65.2733 42.1541 64.9836 40.8626 64.9836 50.2994C64.9836 57.8112 64.9578 58.4295 64.6364 58.6325C64.3832 58.7922 64.195 58.7924 63.9418 58.6329C63.6234 58.4321 63.5865 57.7576 63.4954 50.4982C63.4095 43.6356 63.3525 42.5032 63.0683 41.9871C62.8882 41.6597 61.9284 40.331 60.9352 39.0344C59.9423 37.7379 59.1299 36.6068 59.1299 36.5209C59.1299 36.4046 60.0671 35.5863 60.2484 35.5444C60.2633 35.5408 61.1694 36.7213 62.2617 38.1673ZM75.4509 36.095C75.6417 36.2591 75.7981 36.4572 75.7981 36.5352C75.7981 36.6131 74.9857 37.7379 73.9928 39.0344C72.9996 40.331 72.0398 41.6597 71.8596 41.9871C71.5755 42.5032 71.5185 43.6356 71.4326 50.4982C71.3415 57.7576 71.3046 58.4321 70.9862 58.6329C70.733 58.7924 70.5448 58.7922 70.2916 58.6325C69.9702 58.4295 69.9444 57.8112 69.9444 50.2994C69.9444 42.7806 69.9714 42.1345 70.3123 41.491C71.0098 40.1742 74.6446 35.5378 74.8768 35.6688C75.0016 35.7393 75.26 35.9311 75.4509 36.095ZM57.592 41.1507C58.2197 41.9625 58.733 42.7552 58.733 42.9122C58.733 43.2995 58.331 43.6737 57.9149 43.6737C57.6065 43.6737 54.7644 40.3292 54.7644 39.9662C54.7644 39.8855 55.0101 39.6204 55.3101 39.3775C55.9381 38.8693 55.6631 38.6556 57.592 41.1507ZM80.1636 39.9466C80.1636 40.0383 79.5316 40.9143 78.7593 41.8936C77.357 43.6713 76.8859 43.9694 76.4013 43.3856C76.0362 42.9459 76.1829 42.6359 77.6642 40.7183L79.0339 38.9445L79.5989 39.3622C79.9094 39.5918 80.1636 39.8547 80.1636 39.9466ZM4.20411 43.1181C4.07315 43.2491 3.966 43.6406 3.966 43.9878C3.966 44.9167 3.27665 45.0433 2.47121 44.2627C1.81996 43.6315 1.40961 43.5315 1.02921 43.9118C0.648821 44.2922 0.74883 44.7026 1.38004 45.3538C2.17317 46.1722 2.03308 46.8022 1.03894 46.8875C-0.346312 47.0064 -0.346312 48.2783 1.03894 48.3972C2.03308 48.4825 2.17317 49.1125 1.38004 49.9309C0.74883 50.5821 0.648821 50.9925 1.02921 51.3729C1.40961 51.7533 1.81996 51.6532 2.47121 51.022C3.28954 50.2289 3.91956 50.369 4.00489 51.3631C4.03942 51.7666 4.21344 52.1596 4.41247 52.2845C4.94148 52.6156 5.44312 52.1964 5.51455 51.3631C5.59988 50.369 6.2299 50.2289 7.04823 51.022C7.69948 51.6532 8.10984 51.7533 8.49023 51.3729C8.87062 50.9925 8.77061 50.5821 8.1394 49.9309C7.34627 49.1125 7.48636 48.4825 8.48051 48.3972C9.86575 48.2783 9.86575 47.0064 8.48051 46.8875C7.48636 46.8022 7.34627 46.1722 8.1394 45.3538C8.77061 44.7026 8.87062 44.2922 8.49023 43.9118C8.10984 43.5315 7.69948 43.6315 7.04823 44.2627C6.2428 45.0433 5.55345 44.9167 5.55345 43.9878C5.55345 43.2973 5.25441 42.88 4.75972 42.88C4.5851 42.88 4.33508 42.9872 4.20411 43.1181ZM5.86002 46.5421C6.84444 47.5263 6.14695 49.2298 4.75972 49.2298C3.94397 49.2298 3.17227 48.4581 3.17227 47.6424C3.17227 46.8266 3.94397 46.0549 4.75972 46.0549C5.14626 46.0549 5.55305 46.2349 5.86002 46.5421ZM18.253 53.9922V61.1357H17.4048H16.5565L15.6145 54.141C15.0964 50.294 14.6745 47.0792 14.6769 46.9975C14.6793 46.9157 15.4849 46.8486 16.4672 46.8486H18.253V53.9922ZM44.0535 46.9975C44.0559 47.0792 43.634 50.294 43.1159 54.141L42.1739 61.1357H41.3256H40.4773V53.9922V46.8486H42.2632C43.2455 46.8486 44.0511 46.9157 44.0535 46.9975ZM94.6888 52.6428C94.5578 52.7738 94.4506 53.1653 94.4506 53.5125C94.4506 54.4414 93.7613 54.568 92.9559 53.7874C92.3046 53.1562 91.8943 53.0562 91.5139 53.4365C91.1335 53.8169 91.2335 54.2273 91.8647 54.8785C92.6578 55.6969 92.5177 56.3269 91.5236 56.4122C90.6904 56.4837 90.2711 56.9853 90.6023 57.5143C90.7271 57.7133 91.1202 57.8874 91.5236 57.9219C92.5177 58.0072 92.6578 58.6372 91.8647 59.4556C91.2335 60.1068 91.1335 60.5172 91.5139 60.8976C91.8943 61.278 92.3046 61.1779 92.9559 60.5467C93.7742 59.7536 94.4042 59.8937 94.4895 60.8878C94.561 61.7211 95.0626 62.1403 95.5916 61.8092C95.7907 61.6843 95.9647 61.2913 95.9992 60.8878C96.0845 59.8937 96.7145 59.7536 97.5329 60.5467C98.1841 61.1779 98.5945 61.278 98.9749 60.8976C99.3553 60.5172 99.2553 60.1068 98.6241 59.4556C97.8309 58.6372 97.971 58.0072 98.9652 57.9219C99.7984 57.8504 100.218 57.3488 99.8865 56.8198C99.7617 56.6208 99.3686 56.4468 98.9652 56.4122C97.971 56.3269 97.8309 55.6969 98.6241 54.8785C99.2553 54.2273 99.3553 53.8169 98.9749 53.4365C98.5945 53.0562 98.1841 53.1562 97.5329 53.7874C96.7274 54.568 96.0381 54.4414 96.0381 53.5125C96.0381 52.822 95.7391 52.4047 95.2444 52.4047C95.0698 52.4047 94.8197 52.5119 94.6888 52.6428ZM96.3447 56.0668C96.6518 56.3737 96.8318 56.7805 96.8318 57.1671C96.8318 57.5536 96.6518 57.9604 96.3447 58.2674C96.0377 58.5745 95.6309 58.7545 95.2444 58.7545C94.8578 58.7545 94.451 58.5745 94.1441 58.2674C93.8369 57.9604 93.6569 57.5536 93.6569 57.1671C93.6569 56.7805 93.8369 56.3737 94.1441 56.0668C94.451 55.7596 94.8578 55.5796 95.2444 55.5796C95.6309 55.5796 96.0377 55.7596 96.3447 56.0668ZM38.8137 64.261C38.5115 74.8675 37.9182 83.3175 36.9744 90.4539L36.653 92.8847H35.7013C34.9649 92.8847 34.7272 92.8061 34.6506 92.5374C34.1805 90.8873 33.5281 85.758 32.6377 76.7125C31.8498 68.7078 31.7057 67.7121 31.2285 66.9838C30.8479 66.403 29.9813 65.898 29.3652 65.898C28.7491 65.898 27.8825 66.403 27.5019 66.9838C27.0247 67.7121 26.8806 68.7078 26.0927 76.7125C25.2023 85.758 24.5499 90.8873 24.0798 92.5374C24.0032 92.8061 23.7655 92.8847 23.0291 92.8847H22.0774L21.756 90.4539C20.8122 83.3175 20.2189 74.8675 19.9167 64.261L19.7826 59.5482H29.3652H38.9478L38.8137 64.261ZM18.3217 64.3602C18.3917 65.2607 18.4497 66.9148 18.4503 68.0363L18.4515 70.0752L17.8665 69.7728C17.1357 69.395 16.3941 68.4177 16.0693 67.4049C15.7975 66.5572 15.9114 64.4286 16.2862 63.3533C16.4866 62.7785 16.5803 62.7231 17.3502 62.7231H18.1943L18.3217 64.3602ZM42.4442 63.3533C42.819 64.4286 42.9329 66.5572 42.6611 67.4049C42.3363 68.4177 41.5947 69.395 40.8639 69.7728L40.2789 70.0752L40.2801 68.0363C40.2807 66.9148 40.3386 65.2607 40.4087 64.3602L40.5361 62.7231H41.3802C42.1501 62.7231 42.2438 62.7785 42.4442 63.3533ZM53.4151 68.5173C53.2841 68.6483 53.1769 69.0398 53.1769 69.387C53.1769 70.3159 52.4876 70.4425 51.6822 69.6619C51.0309 69.0307 50.6206 68.9307 50.2402 69.311C49.8598 69.6914 49.9598 70.1018 50.591 70.753C51.3841 71.5714 51.244 72.2014 50.2499 72.2867C49.8465 72.3213 49.4534 72.4953 49.3286 72.6943C48.9974 73.2233 49.4167 73.7249 50.2499 73.7964C51.244 73.8817 51.3841 74.5117 50.591 75.3301C49.9598 75.9813 49.8598 76.3917 50.2402 76.7721C50.6206 77.1525 51.0309 77.0524 51.6822 76.4212C52.5005 75.6281 53.1305 75.7682 53.2158 76.7623C53.2504 77.1657 53.4244 77.5588 53.6234 77.6837C54.1524 78.0148 54.6541 77.5956 54.7255 76.7623C54.8108 75.7682 55.4408 75.6281 56.2592 76.4212C56.9104 77.0524 57.3208 77.1525 57.7012 76.7721C58.0816 76.3917 57.9816 75.9813 57.3504 75.3301C56.5572 74.5117 56.6973 73.8817 57.6915 73.7964C58.0949 73.7619 58.488 73.5878 58.6128 73.3888C58.944 72.8598 58.5247 72.3582 57.6915 72.2867C56.6973 72.2014 56.5572 71.5714 57.3504 70.753C57.9816 70.1018 58.0816 69.6914 57.7012 69.311C57.3208 68.9307 56.9104 69.0307 56.2592 69.6619C55.4537 70.4425 54.7644 70.3159 54.7644 69.387C54.7644 68.6965 54.4654 68.2792 53.9707 68.2792C53.7961 68.2792 53.546 68.3864 53.4151 68.5173ZM78.0205 68.5173C77.8896 68.6483 77.7824 69.0398 77.7824 69.387C77.7824 70.3159 77.0931 70.4425 76.2876 69.6619C75.6364 69.0307 75.226 68.9307 74.8456 69.311C74.4653 69.6914 74.5653 70.1018 75.1965 70.753C75.9896 71.5714 75.8495 72.2014 74.8554 72.2867C74.0221 72.3582 73.6029 72.8598 73.934 73.3888C74.0589 73.5878 74.452 73.7619 74.8554 73.7964C75.8495 73.8817 75.9896 74.5117 75.1965 75.3301C74.5653 75.9813 74.4653 76.3917 74.8456 76.7721C75.226 77.1525 75.6364 77.0524 76.2876 76.4212C77.106 75.6281 77.736 75.7682 77.8213 76.7623C77.8558 77.1657 78.0299 77.5588 78.2289 77.6837C78.7579 78.0148 79.2595 77.5956 79.331 76.7623C79.4163 75.7682 80.0463 75.6281 80.8647 76.4212C81.5159 77.0524 81.9263 77.1525 82.3067 76.7721C82.687 76.3917 82.587 75.9813 81.9558 75.3301C81.1627 74.5117 81.3028 73.8817 82.2969 73.7964C82.7003 73.7619 83.0934 73.5878 83.2183 73.3888C83.5494 72.8598 83.1301 72.3582 82.2969 72.2867C81.3028 72.2014 81.1627 71.5714 81.9558 70.753C82.587 70.1018 82.687 69.6914 82.3067 69.311C81.9263 68.9307 81.5159 69.0307 80.8647 69.6619C80.0592 70.4425 79.3699 70.3159 79.3699 69.387C79.3699 68.6965 79.0708 68.2792 78.5761 68.2792C78.4015 68.2792 78.1515 68.3864 78.0205 68.5173ZM55.071 71.9412C55.3781 72.2482 55.5581 72.655 55.5581 73.0416C55.5581 73.4281 55.3781 73.8349 55.071 74.1419C54.764 74.449 54.3572 74.629 53.9707 74.629C53.5841 74.629 53.1773 74.449 52.8704 74.1419C52.5632 73.8349 52.3832 73.4281 52.3832 73.0416C52.3832 72.655 52.5632 72.2482 52.8704 71.9412C53.1773 71.6341 53.5841 71.4541 53.9707 71.4541C54.3572 71.4541 54.764 71.6341 55.071 71.9412ZM79.6765 71.9412C79.9836 72.2482 80.1636 72.655 80.1636 73.0416C80.1636 73.4281 79.9836 73.8349 79.6765 74.1419C79.3695 74.449 78.9627 74.629 78.5761 74.629C78.1896 74.629 77.7828 74.449 77.4758 74.1419C77.1687 73.8349 76.9887 73.4281 76.9887 73.0416C76.9887 72.655 77.1687 72.2482 77.4758 71.9412C77.7828 71.6341 78.1896 71.4541 78.5761 71.4541C78.9627 71.4541 79.3695 71.6341 79.6765 71.9412ZM66.1147 84.3918C65.9837 84.5228 65.8765 84.9143 65.8765 85.2615C65.8765 86.1904 65.1872 86.317 64.3818 85.5364C63.7305 84.9052 63.3202 84.8052 62.9398 85.1855C62.5594 85.5659 62.6594 85.9763 63.2906 86.6275C64.0837 87.4459 63.9436 88.0759 62.9495 88.1612C62.1163 88.2327 61.697 88.7343 62.0282 89.2633C62.153 89.4623 62.5461 89.6364 62.9495 89.6709C63.9436 89.7562 64.0837 90.3862 63.2906 91.2046C62.6594 91.8558 62.5594 92.2662 62.9398 92.6466C63.3202 93.0269 63.7305 92.9269 64.3818 92.2957C65.2001 91.5026 65.8301 91.6427 65.9154 92.6368C65.95 93.0402 66.124 93.4333 66.323 93.5582C66.852 93.8893 67.3537 93.4701 67.4251 92.6368C67.5104 91.6427 68.1404 91.5026 68.9588 92.2957C69.61 92.9269 70.0204 93.0269 70.4008 92.6466C70.7812 92.2662 70.6812 91.8558 70.05 91.2046C69.2568 90.3862 69.3969 89.7562 70.3911 89.6709C71.2243 89.5994 71.6436 89.0978 71.3124 88.5688C71.1876 88.3698 70.7945 88.1957 70.3911 88.1612C69.3969 88.0759 69.2568 87.4459 70.05 86.6275C70.6812 85.9763 70.7812 85.5659 70.4008 85.1855C70.0204 84.8052 69.61 84.9052 68.9588 85.5364C68.1533 86.317 67.464 86.1904 67.464 85.2615C67.464 84.571 67.165 84.1537 66.6703 84.1537C66.4957 84.1537 66.2456 84.2609 66.1147 84.3918ZM67.7706 87.8157C68.0777 88.1227 68.2577 88.5295 68.2577 88.9161C68.2577 89.3026 68.0777 89.7094 67.7706 90.0164C67.4636 90.3235 67.0568 90.5035 66.6703 90.5035C66.2837 90.5035 65.8769 90.3235 65.57 90.0164C65.2628 89.7094 65.0828 89.3026 65.0828 88.9161C65.0828 88.5295 65.2628 88.1227 65.57 87.8157C65.8769 87.5086 66.2837 87.3286 66.6703 87.3286C67.0568 87.3286 67.4636 87.5086 67.7706 87.8157ZM24.198 95.2367C24.5874 96.6825 24.6695 97.8238 24.4068 98.1403C24.0276 98.5971 14.0588 98.5886 13.6792 98.1312C13.2776 97.6472 13.675 96.8503 14.5422 96.4011C15.9479 95.6728 20.7922 94.5017 22.462 94.4862L23.9923 94.4721L24.198 95.2367ZM40.5202 95.2436C42.1261 95.6671 43.7781 96.1886 44.1912 96.4027C45.0554 96.8503 45.4522 97.648 45.0512 98.1312C44.6716 98.5886 34.7028 98.5971 34.3236 98.1403C34.0609 97.8238 34.143 96.6825 34.5323 95.2367L34.7381 94.4721L36.1692 94.4729C37.1955 94.4733 38.4258 94.6914 40.5202 95.2436Z"/>
</svg>
