<svg width="100" height="100" viewBox="0 0 100 100" fill="none" xmlns="http://www.w3.org/2000/svg">
<path fill-rule="evenodd" clip-rule="evenodd" d="M18.0682 0.311875C15.0576 0.818542 11.6099 2.23583 9.14498 3.98042C7.6092 5.06729 5.14048 7.52479 4.0396 9.0625C2.84806 10.7269 1.59526 13.2675 0.957818 15.3125C0.0355148 18.2719 -0.0761786 19.9877 0.0355147 29.4792C0.125953 37.1471 0.191802 38.5125 0.567725 40.5208C2.01953 48.2746 5.24655 55.0171 10.2892 60.8333L11.6439 62.3958L11.64 66.6667L11.636 70.9375L10.2794 72.491C7.67025 75.4796 5.21863 79.5727 3.81746 83.2804C2.36649 87.1196 1.64319 91.576 1.64319 96.6773V100H3.284H4.92481L5.03129 95.7812C5.20029 89.0896 6.25846 84.9306 9.05496 79.9675C10.1273 78.064 12.576 74.6894 13.4462 73.9156C13.8267 73.5773 14.6146 73.7877 29.9893 78.3348C38.8683 80.9608 46.6487 83.316 47.2791 83.5687C51.4397 85.2362 54.6336 88.7625 56.0289 93.2292C56.3515 94.2617 56.5182 95.4631 56.6003 97.3437L56.7161 100H58.383H60.0496L59.9327 97.2396C59.7133 92.0529 58.2259 88.3881 54.8949 84.8281C52.2088 81.9573 49.9739 80.8008 43.2156 78.7848L38.4228 77.355L38.367 72.3081C38.3144 67.564 38.3332 67.2679 38.6795 67.3742C41.141 68.1287 49.1995 68.61 51.2565 68.1254C53.7929 67.5277 55.8834 65.8825 56.9966 63.6077C58.7943 59.9344 56.9808 56.6667 53.1442 56.6667C51.3021 56.6667 49.877 55.8646 49.1095 54.396C48.4321 53.0996 48.3806 52.1183 48.927 50.9156C49.7716 49.0567 51.1338 48.3446 53.8582 48.3379C56.3729 48.3319 57.4357 47.9573 58.5941 46.6692C59.6889 45.4517 59.9905 44.5221 59.9905 42.3629V40.7117L60.9457 39.7829C62.292 38.474 62.9443 37.1152 62.9293 35.651C62.9226 34.9904 61.9605 30.0365 60.7246 24.2965C59.5185 18.6958 58.5318 13.9458 58.5318 13.7404C58.5318 13.5352 58.9304 12.8992 59.4174 12.3269C61.8901 9.42208 63.3246 5.46313 63.3246 1.54417V0L41.4965 0.0214585C24.7006 0.0377085 19.2995 0.104792 18.0682 0.311875ZM59.7821 3.83417C59.7821 4.55083 58.8779 7.12417 58.2496 8.19625C56.4198 11.3175 53.287 13.7348 49.9497 14.5998C49.455 14.7281 46.3778 14.9004 43.1114 14.9827C37.1963 15.1317 37.1652 15.1348 35.3469 15.7713C34.3427 16.1227 32.9863 16.7258 32.3326 17.1115C30.7141 18.0663 27.9597 20.8525 27.0059 22.5C26.1526 23.9735 25.1905 26.7398 25.1905 27.7192C25.1905 28.3285 25.1809 28.3333 23.9839 28.3333C19.4975 28.3333 15.8774 31.35 15.1302 35.711C14.6584 38.4646 15.4802 40.9215 17.7131 43.4327C20.4858 46.5515 21.0722 49.8815 19.4366 53.2208C18.8667 54.3844 17.0646 56.2767 14.4208 58.4871L13.3647 59.3702L12.1028 57.845C7.32621 52.0717 4.35446 45.0033 3.53093 37.456C3.17397 34.1842 3.24461 20.6398 3.63012 18.4294C4.7033 12.2767 9.06934 6.97 15.0097 4.59812C18.0907 3.36792 18.0004 3.3725 39.8294 3.35208L59.7821 3.33333V3.83417ZM86.6635 6.66667V8.33333H88.3305H89.9976V6.66667V5H88.3305H86.6635V6.66667ZM68.3258 11.939C67.303 12.2612 65.5587 14.0671 65.245 15.1283C64.6678 17.0817 65.0748 18.639 66.5474 20.1112C68.0201 21.5835 69.5777 21.9904 71.5315 21.4133C72.6762 21.0752 74.4024 19.3494 74.7406 18.205C75.3179 16.2517 74.9109 14.6944 73.4382 13.2221C71.9719 11.7563 70.2652 11.3279 68.3258 11.939ZM79.9952 13.3333V15H81.6623H83.3294V13.3333V11.6667H81.6623H79.9952V13.3333ZM71.1483 15.5115C72.1821 16.5448 71.4496 18.3333 69.9928 18.3333C69.1362 18.3333 68.3258 17.5231 68.3258 16.6667C68.3258 15.8102 69.1362 15 69.9928 15C70.3988 15 70.826 15.189 71.1483 15.5115ZM89.9976 16.6667V18.3333H91.6647H93.3317V16.6667V15H91.6647H89.9976V16.6667ZM57.5688 25.536C58.6716 30.7008 59.5737 35.2502 59.5737 35.6458C59.5737 36.26 59.3599 36.5773 58.115 37.8125L56.6563 39.2596V41.5858C56.6563 44.8417 56.6384 44.8604 53.3703 45.009C51.1106 45.1117 50.7549 45.184 49.523 45.7902C47.9084 46.585 46.6231 47.9025 45.8583 49.5469C45.3999 50.5325 45.3084 51.024 45.3084 52.5C45.3084 53.976 45.3999 54.4675 45.8583 55.4531C47.0749 58.069 49.5052 59.7577 52.3305 59.95C53.1624 60.0067 53.9605 60.1462 54.1036 60.2604C54.6884 60.7256 54.2266 62.2358 53.1421 63.4046C52.0586 64.5723 51.1594 64.871 48.4544 64.9621C39.4999 65.2633 30.6839 62.1833 23.9079 56.3862L22.3129 55.0217L22.8216 53.7625C23.1012 53.07 23.4378 51.7652 23.5693 50.8629C24.0354 47.6662 22.8612 44.1487 20.4095 41.3969C18.6406 39.4112 18.4264 38.9452 18.4264 37.0833C18.4264 35.3527 18.7319 34.554 19.848 33.3671C21.1333 32.0004 21.8238 31.7875 25.2426 31.7037L28.3162 31.6285V30.3317C28.3162 25.6575 30.7858 21.599 34.8382 19.6131C37.1139 18.4979 38.2144 18.3346 43.5144 18.326C46.3372 18.3215 48.5896 18.2144 49.5713 18.0381C51.1858 17.7483 54.1609 16.6837 54.8738 16.1406C55.097 15.9708 55.3435 15.9025 55.4219 15.9888C55.5 16.0752 56.4663 20.3715 57.5688 25.536ZM83.3294 21.6667V23.3333H84.9964H86.6635V21.6667V20H84.9964H83.3294V21.6667ZM43.2813 25.0448L42.3258 26.3396L44.6462 28.0777C45.9223 29.0337 46.9665 29.8987 46.9665 30C46.9665 30.1012 45.9211 30.9671 44.6435 31.9242L42.3204 33.6646L43.2321 34.8831C43.7337 35.5533 44.19 36.1477 44.2465 36.2042C44.3526 36.3104 52.6806 30.1844 52.6806 30C52.6806 29.886 44.483 23.75 44.3307 23.75C44.2792 23.75 43.807 24.3327 43.2813 25.0448ZM74.994 26.6667V28.3333H76.6611H78.3282V26.6667V25H76.6611H74.994V26.6667ZM93.3317 28.3333V30H94.9988H96.6659V28.3333V26.6667H94.9988H93.3317V28.3333ZM68.3258 33.3333V35H69.9928H71.6599V33.3333V31.6667H69.9928H68.3258V33.3333ZM86.6635 33.3333V35H88.3305H89.9976V33.3333V31.6667H88.3305H86.6635V33.3333ZM76.167 41.6802C69.076 42.579 63.2325 43.356 63.1814 43.4071C63.087 43.5015 63.45 46.4454 63.5709 46.565C63.6074 46.601 69.5448 45.8898 76.7653 44.9846C83.9858 44.0792 89.9712 43.3373 90.0662 43.3358C90.1614 43.3346 90.1897 43.0754 90.1293 42.7604C90.0691 42.4454 89.9591 41.6952 89.8849 41.0937C89.7815 40.2546 89.6698 40.0054 89.405 40.0229C89.2151 40.0356 83.2581 40.7812 76.167 41.6802ZM96.6659 45V46.6667H98.3329H100V45V43.3333H98.3329H96.6659V45ZM83.3294 48.3333V50H84.9964H86.6635V48.3333V46.6667H84.9964H83.3294V48.3333ZM61.6929 51.6273C61.4529 52.4979 61.2764 53.2265 61.3008 53.2465C61.5266 53.4308 84.2881 59.7881 84.4713 59.7179C84.7457 59.6127 85.5315 56.9237 85.343 56.7354C85.2394 56.6317 69.3343 52.0304 63.9249 50.5394L62.1291 50.0442L61.6929 51.6273ZM61.5775 58.3588C61.0176 59.0473 60.6425 59.684 60.744 59.7735C60.8452 59.8631 62.9443 61.6063 65.4084 63.6471C67.8725 65.6879 70.0412 67.4875 70.2277 67.6462C70.5276 67.9015 70.6901 67.7873 71.6336 66.6583L72.7004 65.3819L67.721 61.2327C64.9823 58.9504 62.7086 57.0888 62.6684 57.0952C62.6282 57.1017 62.1372 57.6704 61.5775 58.3588ZM23.3432 60.1781C26.4066 62.5917 31.0986 65.1535 34.0989 66.051L34.9845 66.316V71.2829C34.9845 74.0148 34.903 76.25 34.8036 76.25C34.704 76.25 33.0865 75.7902 31.209 75.2281C29.3315 74.666 25.3572 73.4885 22.3773 72.6117C19.3974 71.7346 16.5138 70.8744 15.9695 70.7002L14.9797 70.3831L14.9822 66.3896L14.9847 62.3958L17.6391 60.079L20.2935 57.7619L20.8457 58.204C21.1495 58.4469 22.2733 59.3354 23.3432 60.1781ZM91.6647 60V61.6667H93.3317H94.9988V60V58.3333H93.3317H91.6647V60ZM81.6623 68.4375C81.6623 70.1554 81.6477 70.2083 81.1745 70.2083C80.7241 70.2083 79.323 70.5856 78.5032 70.9275C78.234 71.0398 77.987 70.7679 77.3921 69.7046C76.9716 68.9523 76.5598 68.2954 76.4773 68.2444C76.2625 68.1117 73.7437 69.565 73.7437 69.8219C73.7437 69.94 74.0744 70.6277 74.4787 71.3502L75.2135 72.664L73.9354 73.9417L72.6574 75.2194L71.3434 74.4848C70.6207 74.0806 69.9328 73.75 69.8147 73.75C69.5577 73.75 68.1041 76.2681 68.2368 76.4829C68.2878 76.5654 68.9449 76.9771 69.6974 77.3975C70.7609 77.9923 71.0329 78.2392 70.9206 78.5083C70.5786 79.3279 70.2012 80.7287 70.2012 81.179C70.2012 81.6521 70.1483 81.6667 68.43 81.6667H66.6587V83.3333V85H68.43C70.1483 85 70.2012 85.0146 70.2012 85.4877C70.2012 85.9379 70.5786 87.3387 70.9206 88.1583C71.0329 88.4275 70.7609 88.6744 69.6974 89.2692C68.9449 89.6896 68.2878 90.1012 68.2368 90.1837C68.1041 90.3985 69.5577 92.9167 69.8147 92.9167C69.9328 92.9167 70.6207 92.586 71.3434 92.1819L72.6574 91.4473L73.9354 92.725L75.2135 94.0027L74.4787 95.3165C74.0744 96.039 73.7437 96.7267 73.7437 96.8448C73.7437 97.1017 76.2625 98.555 76.4773 98.4223C76.5598 98.3712 76.9716 97.7144 77.3921 96.9621C77.987 95.8987 78.234 95.6269 78.5032 95.7392C79.323 96.081 80.7241 96.4583 81.1745 96.4583C81.6477 96.4583 81.6623 96.5112 81.6623 98.2292V100H83.3294H84.9964V98.2292C84.9964 96.4967 85.0073 96.4583 85.4988 96.4583C85.7751 96.4583 86.573 96.2804 87.2718 96.0629L88.5425 95.6677L89.2868 96.9985C89.6963 97.7306 90.1097 98.3779 90.2054 98.4371C90.4279 98.5746 92.915 97.1017 92.915 96.8325C92.915 96.7212 92.5843 96.039 92.18 95.3165L91.4452 94.0027L92.7233 92.725L94.0013 91.4473L95.3153 92.1819C96.038 92.586 96.7259 92.9167 96.844 92.9167C97.101 92.9167 98.5547 90.3985 98.4219 90.1837C98.3709 90.1012 97.7138 89.6896 96.9614 89.2692C95.8978 88.6744 95.6258 88.4275 95.7382 88.1583C96.0801 87.3387 96.4575 85.9379 96.4575 85.4877C96.4575 85.0146 96.5104 85 98.2287 85H100V83.3333V81.6667H98.2287C96.5104 81.6667 96.4575 81.6521 96.4575 81.179C96.4575 80.7287 96.0801 79.3279 95.7382 78.5083C95.6258 78.2392 95.8978 77.9923 96.9614 77.3975C97.7138 76.9771 98.3709 76.5654 98.4219 76.4829C98.5547 76.2681 97.101 73.75 96.844 73.75C96.7259 73.75 96.0353 74.0821 95.3093 74.4881L93.9892 75.2262L92.7266 73.9281L91.464 72.6302L92.1896 71.3333C92.5884 70.62 92.915 69.9454 92.915 69.8342C92.915 69.565 90.4279 68.0921 90.2054 68.2296C90.1097 68.2888 89.6871 68.9523 89.2666 69.7046C88.6717 70.7679 88.4247 71.0398 88.1555 70.9275C87.3357 70.5856 85.9346 70.2083 85.4842 70.2083C85.011 70.2083 84.9964 70.1554 84.9964 68.4375V66.6667H83.3294H81.6623V68.4375ZM58.3234 70V71.6667H59.9905H61.6575V70V68.3333H59.9905H58.3234V70ZM49.9881 75V76.6667H51.6551H53.3222V75V73.3333H51.6551H49.9881V75ZM85.717 73.6523C89.6748 74.6829 92.6105 77.9602 93.1921 81.9975C93.9065 86.9546 90.6701 91.7246 85.717 93.0144C80.5026 94.3723 75.0401 91.0715 73.646 85.7204C71.7887 78.5917 78.5866 71.7954 85.717 73.6523ZM84.9964 78.3333V80H86.6635H88.3305V78.3333V76.6667H86.6635H84.9964V78.3333ZM59.9905 80V81.6667H61.6575H63.3246V80V78.3333H61.6575H59.9905V80ZM79.9952 81.6667V83.3333H81.6623H83.3294V81.6667V80H81.6623H79.9952V81.6667ZM86.6635 86.6667V88.3333H88.3305H89.9976V86.6667V85H88.3305H86.6635V86.6667ZM78.3282 88.3333V90H79.9952H81.6623V88.3333V86.6667H79.9952H78.3282V88.3333ZM31.6504 95.8333V100H33.3174H34.9845V95.8333V91.6667H33.3174H31.6504V95.8333Z" fill="black"/>
</svg>
