<svg width="100" height="100" viewBox="0 0 100 100" fill="none" xmlns="http://www.w3.org/2000/svg">
<path fill-rule="evenodd" clip-rule="evenodd" d="M22.8323 0.432609C20.5346 1.69967 20.6246 5.3439 22.9813 6.46226C24.1057 6.99588 24.6905 6.99141 25.7791 6.44083C28.1341 5.24945 28.1952 1.75147 25.8832 0.473914C24.7632 -0.144992 23.9008 -0.156603 22.8323 0.432609ZM25.4586 2.19868C25.7214 2.4733 25.886 2.94284 25.886 3.41796C25.886 4.95741 24.2538 5.64866 23.2056 4.55307C22.5646 3.88348 22.5364 3.12079 23.124 2.34046C23.6789 1.60322 24.8224 1.53378 25.4586 2.19868ZM17.9805 9.7622C15.9458 10.4613 14.3774 11.8772 13.5193 13.7896C13.0507 14.8334 12.9604 15.3462 12.9646 16.9346C12.9689 18.5609 13.0531 18.9989 13.5522 19.9972C14.2908 21.4743 15.3416 22.5733 16.759 23.3516C17.7359 23.8879 18.1115 23.9631 19.7966 23.9611C22.0525 23.9582 23.2872 23.4561 24.7219 21.9577C26.1577 20.4582 26.6338 19.1798 26.6338 16.8229C26.6338 15.1424 26.5481 14.6317 26.1107 13.7029C25.4377 12.2736 24.1382 10.9243 22.7879 10.2525C21.642 9.6825 18.9976 9.41278 17.9805 9.7622ZM21.9333 11.7705C23.8175 12.6699 25.0187 14.613 25.0266 16.7742C25.0382 19.9634 22.74 22.367 19.7219 22.3227C18.2805 22.3015 17.5278 22.0497 16.5308 21.2548C13.4422 18.7931 13.8697 13.7985 17.3259 11.9668C18.7424 11.2161 20.6054 11.1367 21.9333 11.7705ZM89.9589 15.2196C87.2907 16.2634 85.8978 18.2746 85.8978 21.0834C85.8978 23.4782 87.0516 25.4718 89.0562 26.5406C90.4625 27.2903 92.8732 27.3166 94.1752 26.5966C96.3621 25.3869 97.4622 23.609 97.4622 21.2843C97.4622 18.6888 96.4845 16.8734 94.4692 15.7271C93.1418 14.9722 91.1613 14.7494 89.9589 15.2196ZM93.5714 17.1362C96.4315 18.6689 96.7558 22.4864 94.206 24.6059C92.8621 25.7229 90.4633 25.6702 89.0301 24.492C88.1712 23.7861 87.5727 22.3565 87.5727 21.011C87.5727 17.868 90.912 15.711 93.5714 17.1362ZM16.007 27.1036C15.6852 27.2885 15.2764 27.7335 15.0989 28.0927C14.6887 28.9213 14.6827 30.6115 15.0867 31.4282C15.394 32.0489 16.5479 32.7868 17.2116 32.7868C17.521 32.7868 17.5532 34.0701 17.5539 46.3505L17.5545 59.9142L8.86215 76.5479C-0.519035 94.4995 -0.348534 94.1092 0.221512 96.3209C0.54713 97.5849 1.73188 98.9426 3.01085 99.5175L4.08449 100L24.5465 99.9399L45.0086 99.8797L46.0401 99.246C47.7857 98.1739 48.7617 96.0327 48.4327 93.9974C48.3498 93.485 44.7676 86.4062 39.547 76.4382L30.8002 59.7376V46.2906V32.8439L31.6104 32.7084C32.1219 32.6229 32.6539 32.3188 33.0526 31.8839C33.6185 31.2665 33.6846 31.0448 33.6846 29.7624C33.6846 28.4424 33.6297 28.2727 32.9863 27.6L32.2881 26.8701L24.4399 26.819C17.7895 26.7754 16.5024 26.819 16.007 27.1036ZM31.9753 29.7726V30.889H24.2886H16.602L16.3984 30.2839C16.2599 29.8726 16.2742 29.4967 16.4432 29.1091L16.6919 28.5391L24.3335 28.5976L31.9753 28.6563V29.7726ZM95.1085 28.9519C94.2571 29.4176 93.4026 30.9446 93.4026 32.0002C93.4026 33.7471 94.9085 35.2428 96.6674 35.2428C98.0414 35.2428 99.0052 34.6263 99.5836 33.3778C100.15 32.1545 100.141 31.5217 99.54 30.3337C98.6959 28.6654 96.7445 28.057 95.1085 28.9519ZM97.8064 30.6304C98.222 31.004 98.388 31.3645 98.388 31.8937C98.388 32.754 97.5291 33.6799 96.7313 33.6799C95.2752 33.6799 94.5799 31.7595 95.6365 30.6557C96.2958 29.9664 97.0577 29.9575 97.8064 30.6304ZM29.3045 46.5994V60.4119L34.2426 69.8424C38.4721 77.9196 39.1378 79.3175 38.8821 79.585C38.4928 79.9918 35.3319 81.335 33.57 81.8423C31.4358 82.4569 26.106 82.3924 21.7196 81.6989C17.4092 81.0173 12.8087 80.9539 9.99754 81.5373C8.95595 81.7534 8.08015 81.8997 8.0511 81.8624C8.02225 81.8253 10.53 76.9721 13.6242 71.0777L19.2497 60.3607L19.2561 46.5738L19.2625 32.7868H24.2835H29.3045V46.5994ZM83.8845 33.5421C82.219 34.3131 81.8481 36.5978 83.2053 37.726C83.445 37.9251 83.5864 38.2265 83.5198 38.3958C83.4531 38.565 80.8956 42.7223 77.8364 47.6343C73.6194 54.405 72.1806 56.5524 71.8881 56.5124C67.9104 55.9701 67.238 55.9368 65.2283 56.1833C60.4054 56.7746 56.2454 58.8566 52.8986 62.3541C43.4612 72.216 45.4139 88.8353 56.8595 96.0657C58.8296 97.3103 62.0268 98.5186 64.3448 98.8946C66.4911 99.2427 70.4111 99.0263 72.5708 98.4409C75.965 97.5206 79.4053 95.4435 81.9951 92.7511C88.9455 85.526 89.9683 73.9092 84.3988 65.4502L83.761 64.4814L84.4689 63.3048C84.8582 62.6575 87.4323 58.4986 90.1894 54.0625L95.2019 45.9968L95.7873 46.3132C96.7806 46.8499 97.4368 46.7086 98.342 45.7628C99.0332 45.0403 99.1715 44.7447 99.1715 43.9889C99.1715 43.3604 99.0238 42.9132 98.6907 42.5317C98.0545 41.8031 85.7562 33.5276 85.0699 33.3664C84.7761 33.2972 84.2428 33.3762 83.8845 33.5421ZM89.7364 38.296C97.9162 43.8315 97.7158 43.6784 97.4511 44.195C97.3244 44.4426 97.0861 44.6992 96.9218 44.765C96.7554 44.832 94.2808 43.2801 91.3274 41.2566C88.4145 39.2612 85.5748 37.3341 85.0165 36.9747C84.4582 36.615 84.0016 36.2223 84.0016 36.1019C84.0016 35.7217 84.4347 35.0195 84.6695 35.0195C84.7934 35.0195 87.0736 36.494 89.7364 38.296ZM22.254 38.6193C20.9337 39.1694 20.1171 40.5073 20.1171 42.1199C20.1171 43.3982 20.6848 44.4344 21.8315 45.2486C22.4527 45.6896 22.7759 45.7613 23.8056 45.686C25.2943 45.5771 26.0231 45.0805 26.6872 43.7226C27.2978 42.4738 27.2948 41.5921 26.6759 40.3691C25.8614 38.7593 23.8387 37.9591 22.254 38.6193ZM89.6589 42.1106C91.8942 43.6284 93.6915 44.9896 93.6528 45.1359C93.6139 45.2819 90.946 49.6375 87.7238 54.8145C84.5013 59.9917 81.865 64.3441 81.865 64.4868C81.865 64.6294 82.2863 65.3669 82.8012 66.1258C84.0964 68.0341 84.9716 69.9348 85.6021 72.2086C86.2531 74.5565 86.2939 75.287 85.7643 75.1212C84.5486 74.74 81.2526 74.4942 78.9806 74.6154C75.4755 74.8021 73.2498 75.3458 67.0156 77.5378C60.7496 79.7411 58.9824 80.2365 56.1424 80.5866C53.9864 80.8523 50.2779 80.6009 49.0277 80.1041L48.4846 79.8884L48.5914 76.9343C48.7134 73.5516 49.0696 71.9072 50.2631 69.2148C52.8961 63.2755 58.0094 59.1781 64.2239 58.0278C66.0424 57.6911 68.9362 57.7384 70.9501 58.1376C71.9063 58.3272 72.7951 58.4134 72.9254 58.3292C73.1566 58.18 76.8645 52.3424 82.3776 43.448C84.1033 40.6638 85.1998 39.096 85.3526 39.1947C85.4857 39.2806 87.4236 40.5928 89.6589 42.1106ZM24.9341 40.7028C25.943 41.7569 25.3777 43.7373 23.9761 44.0591C22.677 44.3571 21.407 42.9867 21.7313 41.6368C22.0715 40.2201 23.9485 39.6727 24.9341 40.7028ZM84.3031 42.1398C83.054 42.9358 82.6673 43.6849 82.7656 45.1194C82.8598 46.4945 83.3328 47.2596 84.4716 47.8788C86.5008 48.982 89.0871 47.1022 88.8504 44.6963C88.6199 42.3528 86.1489 40.9636 84.3031 42.1398ZM86.8738 44.0001C87.5857 45.062 87.017 46.4088 85.8589 46.403C85.0511 46.3989 84.7943 46.2453 84.449 45.5606C83.9529 44.5764 84.6682 43.5038 85.8209 43.5038C86.323 43.5038 86.642 43.654 86.8738 44.0001ZM73.0831 62.0929C72.2834 62.6481 71.3956 64.2624 71.3956 65.161C71.3956 66.0597 72.2834 67.674 73.0831 68.2292C74.0824 68.9232 75.765 68.9241 76.7393 68.231C77.9524 67.3681 78.3396 66.6257 78.3396 65.161C78.3396 63.6964 77.9524 62.954 76.7393 62.0911C75.765 61.398 74.0824 61.3989 73.0831 62.0929ZM75.8699 63.4798C77.1296 64.1606 77.114 66.17 75.8438 66.8566C74.1435 67.7753 72.3582 65.7047 73.4483 64.0784C74.0478 63.184 74.9225 62.9676 75.8699 63.4798ZM18.6621 67.4726C17.9788 67.8687 17.3425 68.9435 17.341 69.7044C17.3389 70.6468 17.956 71.8344 18.6397 72.2039C19.5956 72.7203 20.8365 72.619 21.5822 71.9634C22.9118 70.7942 22.9118 68.9053 21.5822 67.736C20.8583 67.0995 19.5144 66.9782 18.6621 67.4726ZM20.9278 69.7761C20.9624 70.0143 20.7936 70.3954 20.553 70.6231C20.1902 70.9663 20.0242 70.9935 19.5821 70.783C18.8576 70.4381 18.8234 69.2569 19.5296 68.9707C20.1154 68.7332 20.8367 69.1487 20.9278 69.7761ZM85.3667 76.7821L86.4113 77.0437L86.2766 78.8732C85.6113 87.9186 79.4711 95.1901 70.9807 96.9879C68.5986 97.4922 64.4974 97.3373 62.2465 96.6576C57.2267 95.1421 52.8527 91.3503 50.5099 86.4834C49.8587 85.1308 48.8831 82.137 49.0401 81.9729C49.0867 81.9242 49.7781 82.003 50.5766 82.1484C52.4128 82.4824 57.2413 82.287 59.4306 81.79C60.312 81.59 63.7252 80.4857 67.0156 79.3365C72.1757 77.5338 73.8079 77.0614 76.9508 76.4599C77.93 76.2726 84.3071 76.5166 85.3667 76.7821ZM77.6557 77.432C76.3154 78.2858 75.9457 79.9355 76.7985 81.2593C78.4515 83.8265 82.3179 81.8226 81.3898 78.8797C80.8695 77.2302 79.0682 76.5318 77.6557 77.432ZM79.6903 79.5196C79.82 80.702 78.8695 81.2019 78.1251 80.3426C77.8014 79.9688 77.7787 79.8011 77.9868 79.3238C78.1913 78.8547 78.3597 78.7649 78.9286 78.8223C79.5098 78.881 79.6327 78.9936 79.6903 79.5196ZM43.4595 87.4301C46.4029 93.0409 46.8247 93.9712 46.8238 94.8529C46.823 96.0646 46.2525 97.1379 45.2776 97.7617C44.5928 98.1998 44.2402 98.2062 24.0282 98.1504L3.47535 98.0935L2.71151 97.3199C1.87054 96.4681 1.43938 95.212 1.65816 94.2503C1.73594 93.9081 2.91321 91.4981 4.27444 88.895L6.74905 84.1618L8.35877 83.7115C11.1752 82.9231 12.9781 82.7331 16.2713 82.8778C17.9752 82.9526 20.6192 83.2167 22.1469 83.4648C29.3302 84.6307 33.7854 84.1708 38.2511 81.8019C39.0299 81.3888 39.7632 81.0427 39.8807 81.0329C39.9982 81.0231 41.6088 83.9019 43.4595 87.4301ZM54.547 83.365C53.2174 84.5343 53.2174 86.4231 54.547 87.5924C55.7728 88.6701 57.7861 88.1791 58.489 86.6312C58.9941 85.5191 58.7636 84.4173 57.8387 83.5251C56.8513 82.5724 55.5219 82.5076 54.547 83.365ZM56.6896 84.7318C57.4481 85.449 56.874 86.7665 55.9362 86.4609C55.1147 86.1932 54.8974 85.3358 55.4931 84.7131C55.9211 84.2661 56.2018 84.2706 56.6896 84.7318ZM20.6083 84.9482C19.2886 85.6283 18.8281 87.0141 19.4411 88.462C19.8402 89.4047 20.8528 90.1674 21.7053 90.1674C22.9994 90.1674 24.3888 88.7224 24.3888 87.3765C24.3888 86.0237 23.0366 84.5778 21.7837 84.5907C21.5134 84.5934 20.9844 84.7544 20.6083 84.9482ZM11.3977 85.7078C10.7212 86.1387 10.0751 87.2883 10.0751 88.0613C10.0751 88.9452 10.8052 90.0104 11.6917 90.4201C14.6865 91.8046 16.8783 87.4817 14.084 85.7013C13.195 85.1349 12.2933 85.1371 11.3977 85.7078ZM65.5435 85.7835C62.2708 87.8536 63.6188 93.2932 67.4047 93.2932C69.7836 93.2932 71.3956 91.6218 71.3956 89.1551C71.3956 88.0052 71.1743 87.4448 70.3547 86.5194C69.5306 85.589 68.7783 85.2552 67.507 85.2565C66.697 85.2574 66.1381 85.4075 65.5435 85.7835ZM30.6933 86.349C29.7321 86.6017 29.2186 86.9422 28.4881 87.8116C26.0146 90.7555 28.4569 95.341 32.1872 94.7563C35.2092 94.2829 36.6497 90.5175 34.8069 87.9088C33.9715 86.7259 32.0424 85.9944 30.6933 86.349ZM22.4247 86.6397C22.5657 86.7871 22.6811 87.1186 22.6811 87.3765C22.6811 88.4292 21.3553 88.7918 20.9453 87.8512C20.4878 86.8025 21.661 85.8417 22.4247 86.6397ZM68.5159 87.1704C69.1684 87.4942 69.9 88.606 69.9 89.2743C69.9 89.9687 69.1674 91.0549 68.464 91.4038C67.8247 91.7209 67.5677 91.7397 66.8677 91.5206C65.965 91.238 65.2016 90.2301 65.2003 89.319C65.199 88.479 65.8212 87.4756 66.5487 87.1452C67.4314 86.744 67.6617 86.7469 68.5159 87.1704ZM13.4509 87.3095C13.8052 87.6797 13.7723 88.4935 13.3896 88.8253C12.5826 89.5253 11.3306 88.2169 12.0004 87.3736C12.3179 86.9737 13.0967 86.9393 13.4509 87.3095ZM32.7301 88.2734C34.9059 89.4491 34.0136 93.0699 31.548 93.0699C30.726 93.0699 29.7827 92.4807 29.415 91.7376C28.2783 89.4406 30.532 87.0856 32.7301 88.2734Z" fill="black"/>
</svg>
