<svg width="100" height="100" viewBox="0 0 100 100" fill="none" xmlns="http://www.w3.org/2000/svg">
<path fill-rule="evenodd" clip-rule="evenodd" d="M33.5636 0.265554C33.3799 0.445467 33.2924 1.48024 33.2924 3.47433C33.2924 6.16329 33.2572 6.41756 32.8847 6.41756C32.6604 6.41756 31.9471 6.67625 31.2993 6.99226C29.4389 7.8998 28.4905 9.87286 29.0049 11.7654C29.485 13.5318 31.2003 15.0481 32.7183 15.0481H33.2924V23.228V31.408L17.2008 57.916C6.05275 76.2802 0.941864 84.8983 0.565306 85.9681C-0.509444 89.0193 -0.0361472 92.4565 1.85229 95.3172C2.94219 96.9682 4.26737 98.0743 6.38365 99.0993L8.06709 99.9148L42.5477 99.9741C76.3389 100.033 77.0577 100.025 78.4975 99.5961C83.0446 98.242 86.1715 94.0352 86.1796 89.2605C86.1835 87.0732 85.58 85.3533 83.715 82.2366L82.1412 79.6065L83.3143 79.0303C83.9594 78.7132 85.2604 77.706 86.2056 76.7919C88.0787 74.9803 89.3058 72.8656 89.7768 70.6376C89.9481 69.827 90.0248 61.7471 90.0248 44.4739V19.4831L90.8724 19.0575C94.2381 17.3675 94.2433 12.9526 90.8814 11.2646C90.086 10.8652 89.3869 10.8437 77.3199 10.8483C65.3824 10.853 64.5395 10.8787 63.6666 11.2668C61.8019 12.096 60.7622 14.316 61.322 16.2738C61.6624 17.4642 62.979 18.9309 63.9132 19.1604L64.4839 19.3007V34.6936C64.4839 43.1596 64.4353 50.0388 64.3759 49.9806C64.3164 49.9224 61.8245 45.7499 58.8382 40.7081L53.4087 31.5416V23.2949V15.0481H54.0424C54.3912 15.0481 55.1393 14.7606 55.7051 14.4092C58.9042 12.4231 58.091 7.55192 54.3989 6.58508L53.4087 6.32572V3.59096C53.4087 2.08681 53.3033 0.663443 53.1747 0.427985C52.9489 0.0152694 52.6011 0 43.3878 0C36.2592 0 33.7659 0.0674952 33.5636 0.265554ZM18.9064 1.12108C18.3415 1.32556 17.6967 2.15387 17.6967 2.67502C17.6967 2.87485 17.9075 3.30084 18.1652 3.6215C19.3756 5.1283 21.7945 3.4781 20.8658 1.77899C20.5783 1.2532 19.5214 0.898238 18.9064 1.12108ZM51.1 4.25993L51.1647 6.41756H43.3587H35.5527V4.20173V1.9859L43.294 2.0441L51.0354 2.1023L51.1 4.25993ZM63.21 2.25057C62.7148 2.48514 62.2236 3.30327 62.2236 3.89325C62.2236 4.07559 62.4734 4.46906 62.7785 4.7678C63.5335 5.50715 64.5332 5.49033 65.1455 4.72797C65.9074 3.77972 65.7318 2.84099 64.6937 2.31541C63.9595 1.94364 63.8659 1.93943 63.21 2.25057ZM54.7822 9.27736C56.0977 10.5653 55.4388 12.6136 53.6035 12.9416C53.1856 13.0161 48.2994 13.0478 42.7452 13.0115C32.8899 12.9473 32.6317 12.9345 32.0108 12.4806C31.1822 11.8747 30.8785 10.8556 31.2589 9.95673C31.8174 8.63671 31.7028 8.6491 43.4244 8.63936L54.1215 8.63051L54.7822 9.27736ZM6.3954 9.9439C4.6254 10.473 2.62078 12.0876 1.80686 13.6398C0.850324 15.4637 0.883323 18.0216 1.88959 20.0569C2.45691 21.2045 4.0748 22.6943 5.35636 23.2493C9.27609 24.9468 14.1332 22.7129 15.2409 18.7028C15.6319 17.2882 15.3752 14.8971 14.6912 13.5824C13.5037 11.2989 10.8427 9.71774 8.25152 9.75602C7.54158 9.76642 6.70619 9.85095 6.3954 9.9439ZM10.1886 12.2936C13.5292 13.6599 14.2916 18.1577 11.5691 20.4393C9.45217 22.2134 6.7141 22.0919 4.77797 20.1381C3.38678 18.7342 2.99802 17.2743 3.53392 15.4688C4.35168 12.7152 7.52146 11.2028 10.1886 12.2936ZM90.4942 13.7033C90.9833 14.1821 91.1549 14.5601 91.1549 15.1587C91.1549 15.7573 90.9833 16.1353 90.4942 16.6142L89.8335 17.261H77.3698C69.2537 17.261 64.7545 17.1816 64.4715 17.0331C63.2523 16.3944 63.0859 14.3541 64.1837 13.5085C64.759 13.0655 65.0246 13.0564 77.3022 13.0564H89.8335L90.4942 13.7033ZM51.0946 23.623L51.1538 32.0874L57.8189 43.3338L64.4839 54.5802L64.4873 61.9781C64.4909 70.172 64.6005 71.0771 65.9038 73.6796C66.3719 74.6148 67.1919 75.6869 68.2126 76.6991C70.9794 79.4423 74.6333 80.7949 78.3793 80.4625L79.9861 80.32L81.6388 83.0877C83.6271 86.4175 83.9971 87.5247 83.885 89.8107C83.6868 93.863 80.6748 97.1568 76.5647 97.8156C74.7556 98.1057 24.1508 98.1057 22.3417 97.8156C18.2172 97.1543 15.2484 93.8772 15.0307 89.7452C14.9595 88.3937 15.0395 87.6716 15.3627 86.7477C15.5967 86.0783 20.2444 78.3288 25.691 69.5265C36.0181 52.8364 36.0845 52.7123 34.8741 52.3361C34.6257 52.2591 34.2447 52.2529 34.027 52.3228C33.5578 52.4733 13.9998 84.055 13.3457 85.718C12.6986 87.3638 12.5616 90.2915 13.0543 91.9508C13.6239 93.8694 14.4376 95.3065 15.6855 96.5985C16.2944 97.2289 16.7926 97.8211 16.7926 97.9147C16.7926 98.0083 15.0888 98.0395 13.0066 97.9842C9.78036 97.8983 9.02747 97.81 7.91384 97.3867C4.35507 96.0344 2.25778 93.0287 2.26592 89.2926C2.26818 88.245 2.41306 87.1458 2.62055 86.6006C2.81358 86.0936 10.3023 73.5888 19.2621 58.8121L35.5527 31.9455V23.494V15.0423L43.294 15.1005L51.0354 15.1587L51.0946 23.623ZM87.7645 22.2402V25.0064H84.7584C81.5807 25.0064 81.2098 25.1137 81.2098 26.0338C81.2098 26.9821 81.9663 27.2193 84.9896 27.2193H87.7645V28.2012V29.1831L83.7035 29.2523C80.2119 29.3119 79.5878 29.3754 79.2513 29.7053C78.9412 30.0092 78.9054 30.2165 79.0795 30.7012L79.299 31.3133L83.5317 31.3735L87.7645 31.4337V32.5353V33.6369H84.8422C81.7513 33.6369 81.2098 33.802 81.2098 34.7433C81.2098 35.6847 81.7513 35.8498 84.8422 35.8498H87.7645V36.9563V38.0628H83.7121C79.4095 38.0628 78.9495 38.1699 78.9495 39.1726C78.9495 40.1051 79.7085 40.2757 83.8595 40.2757H87.7645V41.3822V42.4887H84.7584C81.6033 42.4887 81.2098 42.5991 81.2098 43.4845C81.2098 44.3699 81.6033 44.4803 84.7584 44.4803H87.7645V45.5868V46.6933H83.7704C80.371 46.6933 79.7146 46.7477 79.3629 47.0595C78.8555 47.509 78.8329 48.0965 79.3046 48.5586C79.6012 48.8487 80.3296 48.9062 83.7121 48.9062H87.7645V50.0127V51.1192H84.7584C82.7217 51.1192 81.6648 51.2048 81.481 51.3847C81.0983 51.7594 81.1444 52.452 81.5838 52.9274C81.9093 53.2795 82.3356 53.3321 84.8612 53.3321H87.7645V61.5004C87.7645 70.4303 87.6892 71.0504 86.332 73.3182C85.026 75.4999 82.0901 77.5336 79.447 78.0875C73.9959 79.2297 68.5182 75.8799 67.0583 70.5117C66.8061 69.5838 66.7491 64.8114 66.7469 44.425L66.7442 19.474H77.2543H87.7645V22.2402ZM93.97 23.3367C93.0797 24.2081 93.336 25.4835 94.4876 25.9121C95.5658 26.3135 96.8055 25.404 96.8055 24.2112C96.8055 23.6786 95.7473 22.7934 95.1103 22.7934C94.7882 22.7934 94.2752 23.0379 93.97 23.3367ZM21.5556 24.483C20.7962 25.4281 20.9693 26.37 21.9982 26.8909C22.8116 27.3027 23.8592 26.9779 24.2202 26.202C24.5981 25.3899 24.5403 25.048 23.9225 24.4432C23.1676 23.7038 22.1679 23.7206 21.5556 24.483ZM59.3956 28.7713C58.4522 29.7921 59.1705 31.4239 60.5635 31.4239C61.5142 31.4239 62.2236 30.7618 62.2236 29.8749C62.2236 28.5019 60.3284 27.7621 59.3956 28.7713ZM1.63621 39.5773C1.29401 39.8486 1.12155 40.2235 1.12155 40.6962C1.12155 42.1605 2.8511 42.8607 3.90912 41.8248C5.32427 40.4393 3.1994 38.3381 1.63621 39.5773ZM7.07348 57.0942C6.07987 58.067 6.90238 59.7497 8.37131 59.7497C9.12827 59.7497 10.0118 58.9154 10.0118 58.2006C10.0118 57.99 9.80092 57.5553 9.54326 57.2347C8.95627 56.504 7.74658 56.4351 7.07348 57.0942ZM92.8666 71.1619C91.8354 72.1714 92.448 73.7453 93.9203 73.8692C94.564 73.9232 94.8124 73.8205 95.1973 73.3414C95.7979 72.5939 95.8002 72.1358 95.2068 71.3976C94.6621 70.7193 93.4438 70.5967 92.8666 71.1619ZM92.0323 81.1695C87.1495 83.6668 88.4889 90.7764 93.9461 91.3279C97.2849 91.6651 100.016 89.2048 99.9999 85.8747C99.9803 81.8524 95.6718 79.308 92.0323 81.1695ZM96.3123 83.2136C97.2558 83.7768 98.0346 85.3898 97.8427 86.383C97.2851 89.2711 93.534 90.1931 91.8366 87.8591C89.7675 85.0143 93.2587 81.391 96.3123 83.2136Z" fill="black"/>
</svg>
