<svg width="100" height="100" viewBox="0 0 100 100" fill="none" xmlns="http://www.w3.org/2000/svg">
<path fill-rule="evenodd" clip-rule="evenodd" d="M47.024 0.303829C38.7805 1.99645 33.869 9.43554 36.3959 16.4014C36.6659 17.1458 36.8687 17.7686 36.8465 17.7853C36.8242 17.8017 36.3151 17.9737 35.715 18.1672C32.1143 19.3282 27.8421 21.9606 25.0948 24.7114C21.6228 28.1875 19.3997 32.3742 18.2858 37.534C17.0438 43.2877 17.2272 49.356 18.8824 57.2939L19.3003 59.2975L18.5763 60.7681C18.1781 61.5771 17.7549 62.7974 17.6359 63.4798C17.5168 64.1623 17.3482 64.7205 17.2609 64.7205C16.9684 64.7205 13.8035 61.216 12.6677 59.6345C8.99481 54.5204 5.96122 48.5956 2.7713 40.3066C2.03701 38.3982 1.292 36.7459 1.11602 36.6349C0.895989 36.496 0.687467 36.5013 0.448788 36.652C0.123407 36.8573 0.098408 37.894 0.0507912 53.1462L0 69.421L2.65761 72.2821C4.11925 73.8556 6.13026 75.8577 7.12625 76.7312C8.12223 77.6047 9.22595 78.7651 9.57871 79.3101C11.4235 82.1589 14.6487 85.7909 17.5529 88.2901C23.3241 93.2566 29.9309 96.5791 37.7982 98.471C41.13 99.2723 42.895 99.4212 43.9281 98.9882C44.6741 98.6755 44.7445 98.6815 45.9369 99.1589C48.7386 100.28 51.2614 100.28 54.0631 99.1589C55.2555 98.6815 55.3259 98.6755 56.0719 98.9882C57.1316 99.4323 58.893 99.2691 62.4994 98.3924C66.8171 97.343 69.4479 96.3955 73.0303 94.5994C79.8732 91.1687 85.783 86.0466 90.0227 79.8721C90.5983 79.0339 91.8734 77.658 93.1194 76.5307C94.2842 75.4768 96.3089 73.4484 97.6186 72.0232L100 69.4323L99.9492 53.1517C99.9016 37.8942 99.8766 36.8573 99.5512 36.652C99.3102 36.4999 99.105 36.4954 98.88 36.6375C98.7017 36.7499 97.9995 38.3129 97.3194 40.1105C93.3511 50.6011 88.9815 58.3533 84.2664 63.2675L82.6488 64.9536L82.4098 63.6584C82.1465 62.2306 81.584 60.8227 80.8513 59.7574L80.3734 59.0626L80.8416 56.3825C81.0993 54.9085 81.4195 52.5093 81.5531 51.051C81.8483 47.8313 81.7056 41.927 81.2715 39.4028C80.1101 32.6472 77.0654 26.973 72.6237 23.2866C71.7759 22.583 71.2351 21.9831 71.2295 21.7401C71.2125 20.9984 70.5004 19.7574 69.6534 18.9931C68.8154 18.2371 68.8122 18.2294 69.2334 17.9342C70.7022 16.9046 71.243 15.6561 71.3795 12.9788C71.5176 10.2735 71.4873 10.2366 69.2485 10.3819C67.3609 10.5044 65.6516 11.0543 64.8554 11.7954L64.3346 12.2802L64.095 10.7934C63.9309 9.77561 63.5749 8.74646 62.966 7.52951C60.2301 2.06077 53.4451 -1.01457 47.024 0.303829ZM54.2657 2.26505C56.4497 2.96107 58.1377 4.01742 59.6938 5.6618C61.1153 7.16443 61.9268 8.61385 62.4157 10.5235C62.8028 12.035 62.7329 12.2532 62.0367 11.7055C61.1235 10.9866 59.5398 10.4986 57.7405 10.3821C55.5041 10.2372 55.4605 10.2878 55.6112 12.8613C55.6735 13.923 55.8307 15.0865 55.9604 15.447C56.0902 15.8076 56.1503 16.1484 56.0942 16.2046C56.038 16.2608 55.1384 16.2116 54.095 16.0952C50.0597 15.645 45.1574 15.8955 40.7808 16.7758C39.4749 17.0382 38.3932 17.2354 38.3771 17.2135C38.3611 17.1919 38.1488 16.638 37.9051 15.9829C36.6512 12.6105 37.4845 8.69842 40.0481 5.92147C42.0222 3.78316 44.3296 2.47687 47.1938 1.87614C49.1653 1.46261 52.286 1.63434 54.2657 2.26505ZM60.2392 12.5019C61.1153 12.8853 61.9915 13.8743 62.2018 14.7177C62.3093 15.1489 62.2256 15.3146 61.7181 15.6763C61.3806 15.9168 60.9743 16.3654 60.8152 16.6735C60.5374 17.2111 60.4928 17.2252 59.7112 17.0269C58.5 16.7192 57.6383 15.8026 57.3673 14.5338C57.2437 13.9551 57.1425 13.1186 57.1425 12.6747V11.8675L58.2833 12.0064C58.9109 12.0829 59.791 12.3058 60.2392 12.5019ZM69.7868 13.3788C69.6213 15.5697 68.9106 16.6211 67.2934 17.0678C66.6905 17.2344 66.5488 17.2115 66.3923 16.9219C66.2901 16.7331 65.8554 16.2497 65.4264 15.8481C64.5509 15.0284 64.5485 14.7008 65.4096 13.5507C66.1417 12.5728 67.5214 12.0031 69.3233 11.935L69.8977 11.9131L69.7868 13.3788ZM64.5916 17.1651C65.9665 18.5407 64.0194 20.7367 62.5153 19.5067C62.2818 19.3155 62.0379 18.8309 61.9738 18.4293C61.7377 16.9536 63.5202 16.0928 64.5916 17.1651ZM56.3489 17.961C57.2764 18.1243 58.0534 18.2597 58.0754 18.2619C58.0976 18.2641 57.6933 18.6903 57.1772 19.2089C56.0551 20.3363 55.7606 21.189 55.6079 23.7529C55.5279 25.0915 55.567 25.6839 55.7491 25.9035C56.2259 26.4782 59.6392 26.1638 61.1177 25.409C61.8032 25.0592 63.1049 23.7847 63.3662 23.2076C63.4724 22.9735 63.5109 22.9745 63.6188 23.2145C63.6888 23.3701 64.0989 23.8806 64.5303 24.3487C65.5393 25.4439 67.0073 26.0044 69.2485 26.1499C71.1528 26.2736 71.3512 26.1717 71.4609 25.0149L71.5268 24.3209L72.9439 25.7371C80.4525 33.2416 82.2036 45.3168 78.1506 61.6434C77.0346 66.139 76.6235 67.297 76.0682 67.5082C75.106 67.8743 75.0958 67.8515 74.8327 64.7702C74.3086 58.6318 72.644 48.7338 71.9999 47.926C71.8831 47.7797 71.0228 47.7394 69.3755 47.8027C67.9249 47.8587 66.3657 47.8011 65.5552 47.6616C62.868 47.199 58.4903 45.4802 56.4481 44.0859C55.1752 43.2168 54.5968 43.7318 54.8853 45.4772C55.1136 46.8587 55.2968 46.7944 52.6148 46.2741C49.8875 45.7452 47.2005 44.8129 45.3917 43.7683C44.5485 43.2813 43.7336 42.8829 43.5807 42.8829C43.0168 42.8829 42.8065 43.4356 42.9458 44.5511L43.0799 45.6265L41.6296 45.1667C38.7531 44.2549 37.7561 43.8543 35.1604 42.567C33.7095 41.8478 32.3871 41.3112 32.2219 41.3745C31.6243 41.604 29.1599 47.5381 27.7203 52.2135C26.3914 56.5296 25.1262 62.1896 24.5139 66.5569C24.3816 67.5011 24.0826 67.73 23.4814 67.3472C23.1951 67.165 21.8232 62.7381 20.9351 59.1303C17.8954 46.7817 18.5499 37.3288 22.9592 29.9034C24.2278 27.7669 27.4576 24.5073 29.9398 22.8584C34.1164 20.084 38.9186 18.3927 44.6431 17.6806C46.7448 17.4192 54.2994 17.6 56.3489 17.961ZM60.8048 19.8384C60.9697 20.1574 61.3806 20.615 61.7181 20.8554C62.2256 21.2172 62.3093 21.3829 62.2018 21.8141C61.8399 23.2655 60.39 24.2687 58.2833 24.5254L57.1425 24.6643V23.8571C57.1425 22.5489 57.5395 21.0754 58.0581 20.4586C58.453 19.9893 59.7041 19.3459 60.3614 19.2742C60.4406 19.2657 60.64 19.5196 60.8048 19.8384ZM67.4744 19.5615C69.0844 20.13 69.6219 20.97 69.7887 23.1796L69.9016 24.6721L68.7303 24.5291C66.5923 24.2685 65.1449 23.2735 64.781 21.8141C64.6739 21.3839 64.757 21.2173 65.256 20.8616C65.5887 20.6246 66.0167 20.167 66.207 19.8446C66.3974 19.5222 66.5673 19.2585 66.5845 19.2585C66.6018 19.2585 67.0022 19.3949 67.4744 19.5615ZM5.67989 50.9616C8.52856 56.6813 11.433 61.0333 14.5771 64.2929C16.606 66.3965 19.2634 68.294 20.1802 68.294C21.199 68.294 23.7842 69.0509 25.0635 69.7239C26.4805 70.4694 28.5332 72.41 29.1194 73.5586C29.6367 74.5719 33.3903 78.5916 36.2451 81.1891C38.5023 83.243 38.8894 83.8148 38.8894 85.0943C38.8894 85.5739 38.7581 85.8411 38.4099 86.0694C37.7131 86.5262 36.8617 86.2409 32.7034 84.158C30.5652 83.087 28.9324 82.3892 28.5647 82.3892C27.1195 82.3892 26.1164 83.4801 26.1158 85.0522C26.1154 85.9624 26.1777 86.0843 27.0463 86.8713C28.2963 88.0036 30.2333 89.0971 36.7213 92.3327C40.8123 94.3731 42.346 95.2371 42.8045 95.7596C43.5644 96.6255 43.7896 97.2624 43.4243 97.5122C42.4644 98.1685 34.7329 96.3135 30.0359 94.3C25.3627 92.2967 20.8542 89.3028 17.1825 85.7649C14.8658 83.5325 12.6411 80.9733 11.3028 79.0018C10.8481 78.3317 8.47658 75.7986 6.03285 73.3726L1.58961 68.9616L1.59318 55.3764L1.59655 41.791L2.88716 44.8681C3.59705 46.5605 4.85374 49.3026 5.67989 50.9616ZM98.4104 55.5229V68.957L94.1044 73.2412C91.7363 75.5975 89.3156 78.1954 88.7249 79.0143C84.0779 85.458 78.4056 90.291 71.7252 93.4984C68.3106 95.1378 66.1613 95.8678 61.2098 97.07C59.0902 97.5846 56.9638 97.7788 56.5477 97.4957C56.2876 97.3188 56.2987 97.2038 56.6372 96.5753C56.8497 96.1803 57.2852 95.6371 57.6048 95.3679C57.9242 95.0989 60.518 93.7257 63.3682 92.3166C71.4547 88.3187 73.6546 86.8858 73.9256 85.4397C74.204 83.9555 72.9561 82.3892 71.4954 82.3892C71.0522 82.3892 69.6423 82.9832 67.2966 84.158C63.1383 86.2409 62.2869 86.5262 61.5901 86.0694C61.2447 85.8429 61.1118 85.5757 61.1149 85.1143C61.1235 83.8702 61.7633 82.9583 64.0571 80.9223C66.8054 78.4826 69.8405 75.2004 71.094 73.3123C72.1761 71.6822 73.4001 70.5548 75.0357 69.6809C76.2212 69.0476 78.8189 68.294 79.8158 68.294C80.8372 68.294 82.7254 66.946 85.217 64.4376C87.7121 61.9261 89.2745 59.8714 91.5284 56.1393C93.1104 53.5192 95.971 47.7453 97.3337 44.4214C97.8594 43.1384 98.3169 42.0888 98.3501 42.0888C98.3832 42.0888 98.4104 48.1342 98.4104 55.5229ZM34.6773 44.1503C36.6177 45.1254 40.5256 46.5854 43.0152 47.2653C44.5485 47.684 44.6836 47.6921 44.9901 47.3852C45.2772 47.0979 45.2865 46.9645 45.0623 46.3441C44.9209 45.9527 44.8417 45.5959 44.8864 45.5512C44.931 45.5066 45.6891 45.7744 46.571 46.1466C48.5183 46.9683 52.2168 47.9177 54.7349 48.2418C56.3763 48.4533 56.6294 48.4443 56.9082 48.1656C57.1806 47.893 57.1885 47.7529 56.9665 47.1382C56.8251 46.7468 56.7479 46.388 56.7949 46.341C56.8421 46.2937 57.7213 46.6483 58.7486 47.1287C62.2504 48.7661 65.0993 49.4342 68.5795 49.4342H70.8171L71.0117 50.1786C71.8015 53.1984 72.812 59.9266 73.3001 65.4154L73.5826 68.5918L73.1499 68.8878C72.1105 69.5991 70.5421 71.2579 69.6866 72.5513C68.6818 74.0704 63.9406 79.0437 61.9764 80.6388C59.1307 82.9502 58.6665 86.5334 61.0749 87.5994C61.8407 87.9383 62.1022 87.9629 63.0089 87.7807C63.5855 87.6648 64.7761 87.2084 65.6548 86.7662C66.5333 86.3243 67.3053 85.9626 67.3702 85.9626C67.5152 85.9626 65.6389 88.3924 64.6362 89.5029C64.0694 90.1308 63.119 90.6964 60.463 91.9864C57.482 93.4345 56.9001 93.795 56.0936 94.6925C55.5819 95.2621 55.0642 96.0584 54.9434 96.4622C54.7502 97.1072 54.5877 97.2479 53.6018 97.6249C51.8023 98.3128 50.6494 98.5308 49.4601 98.4079C48.0108 98.2582 45.2383 97.2932 45.2383 96.9384C45.2383 96.378 44.4469 95.1471 43.5608 94.3302C42.9654 93.7809 41.5187 92.9308 39.4362 91.9066C37.6722 91.0391 35.929 90.0391 35.5626 89.6843C34.8097 88.9558 32.4528 85.9626 32.632 85.9626C32.6963 85.9626 33.3546 86.2679 34.095 86.641C35.9033 87.552 37.5411 88.0136 38.3472 87.8389C39.8632 87.5105 40.6028 86.3541 40.4324 84.5793C40.2836 83.0288 39.6348 81.9826 37.9307 80.5435C35.6814 78.6442 31.2884 74.0498 30.448 72.7179C29.5549 71.3022 27.9794 69.6594 26.7652 68.8774L25.8506 68.2884L26.1208 66.5541C26.9809 61.0298 28.2977 55.4147 29.7698 50.9934C30.5487 48.6542 32.708 43.2799 32.8689 43.2799C32.9109 43.2799 33.7246 43.6716 34.6773 44.1503ZM37.0792 52.0634C35.2777 52.6957 34.0851 53.5049 34.165 54.0405C34.2926 54.896 34.7878 54.9164 36.3409 54.1305C38.7299 52.9219 40.6584 52.9524 43.2214 54.2395C44.5727 54.9182 45.0778 54.8672 45.2012 54.0399C45.333 53.1563 42.3682 51.8492 39.8814 51.6946C38.6702 51.6191 38.149 51.6878 37.0792 52.0634ZM59.0273 51.7488C58.1125 51.9441 56.1971 52.7015 55.4936 53.1458C54.9462 53.4916 54.7539 53.739 54.7988 54.0399C54.9216 54.8636 55.4224 54.9142 56.7888 54.2412C59.3932 52.9584 61.2509 52.9262 63.6738 54.1225C65.1961 54.8739 65.6907 54.8731 65.8391 54.1184C65.9332 53.6391 65.5459 53.2486 64.3967 52.6644C62.644 51.7734 60.5689 51.4194 59.0273 51.7488ZM35.953 59.7971C35.5259 60.2246 35.7007 60.7981 36.4864 61.5457C38.1773 63.1554 41.5784 63.0984 43.0372 61.4358C43.6874 60.6949 43.8037 60.188 43.413 59.7971C43.023 59.4068 42.4922 59.5246 42.1272 60.0822C41.7032 60.7298 40.7451 61.1471 39.683 61.1471C38.621 61.1471 37.6629 60.7298 37.2389 60.0822C36.8738 59.5246 36.3431 59.4068 35.953 59.7971ZM56.587 59.7971C56.1598 60.2246 56.3346 60.7981 57.1203 61.5457C58.8113 63.1554 62.2123 63.0984 63.6712 61.4358C64.3213 60.6949 64.4376 60.188 64.0469 59.7971C63.6569 59.4068 63.1262 59.5246 62.7611 60.0822C62.3371 60.7298 61.379 61.1471 60.317 61.1471C59.2549 61.1471 58.2968 60.7298 57.8728 60.0822C57.5078 59.5246 56.9771 59.4068 56.587 59.7971ZM80.3835 62.2555C80.6047 62.7557 80.8342 63.8099 80.894 64.598C80.9957 65.9468 80.9745 66.0489 80.5301 66.3373C80.2706 66.5059 79.668 66.705 79.1913 66.78C78.4129 66.9025 78.3385 66.8805 78.4617 66.563C78.5371 66.3685 78.8826 65.1154 79.2294 63.7779C79.576 62.4407 79.8871 61.3464 79.9204 61.346C79.9539 61.3458 80.1623 61.755 80.3835 62.2555ZM20.7298 64.3709C21.1149 65.6526 21.4299 66.7413 21.4299 66.7903C21.4299 66.9778 19.9195 66.6284 19.4699 66.3369C19.0265 66.0495 19.0043 65.945 19.1046 64.6185C19.2033 63.3116 19.7951 61.3871 19.9582 61.8419C19.9975 61.9511 20.3447 63.0891 20.7298 64.3709ZM47.0319 74.1409C46.6039 74.6569 46.9009 75.1309 48.0019 75.689C49.5839 76.4908 51.2105 76.3856 52.6398 75.389C53.2552 74.9602 53.2998 74.3319 52.7399 73.9807C52.4856 73.8213 52.1926 73.8765 51.5277 74.2086C50.4399 74.7522 49.5203 74.7651 48.5594 74.2497C47.6789 73.7774 47.3525 73.7542 47.0319 74.1409ZM44.6828 83.62C44.2195 84.0836 44.4376 84.5771 45.3663 85.1665C48.1672 86.9437 52.1029 86.9175 54.7928 85.1036C55.5184 84.6144 55.6841 83.8666 55.1424 83.5249C54.9087 83.3772 54.4313 83.5233 53.2679 84.0989C51.8184 84.8157 51.5846 84.8707 49.9921 84.8707C48.4033 84.8707 48.1689 84.8159 46.8073 84.1255C45.1957 83.3081 45.0332 83.2694 44.6828 83.62ZM29.2079 84.195C29.641 84.4016 32.2681 88.1464 31.98 88.1464C31.6181 88.1464 28.2427 85.9612 27.9046 85.5084C27.541 85.0208 27.538 84.965 27.8524 84.485C28.2167 83.9287 28.5161 83.8646 29.2079 84.195ZM72.1079 84.2893C72.5444 84.7262 72.4961 85.2259 71.9696 85.7208C71.4803 86.1806 68.289 88.1464 68.0317 88.1464C67.763 88.1464 70.3117 84.4364 70.7331 84.2138C71.3087 83.9099 71.7529 83.9343 72.1079 84.2893Z" fill="black"/>
</svg>
