<svg width="100" height="100" viewBox="0 0 100 100" fill="none" xmlns="http://www.w3.org/2000/svg">
<path fill-rule="evenodd" clip-rule="evenodd" d="M63.6999 0.212457C61.0694 1.07127 59.1696 2.93839 58.3007 5.51876L57.9647 6.51666L53.4089 6.63005C48.4348 6.75402 47.8613 6.85878 45.4346 8.0858C41.5897 10.0302 38.8872 13.3748 37.7938 17.542C37.4881 18.7072 37.3847 19.755 37.3599 21.9426C37.3306 24.5175 37.3658 24.8565 37.6995 25.2284C38.1847 25.7688 39.2418 25.7802 39.7692 25.2506C40.1025 24.9159 40.1609 24.5918 40.166 23.0437C40.1818 18.277 41.1673 15.465 43.7056 12.9456C45.1691 11.4928 46.572 10.6293 48.4237 10.0412L49.9476 9.55724H61.3863C74.1139 9.55724 74.0084 9.54802 76.5931 10.8882C78.3036 11.7751 80.4497 13.897 81.3353 15.5768C82.5433 17.8686 82.7467 19.1977 82.7467 24.801V29.781L81.5289 29.7228L80.311 29.6643L79.1399 26.6237C78.0897 23.897 77.8652 23.4782 76.9647 22.5662C76.1831 21.7747 75.7097 21.4761 74.8279 21.2188C72.9394 20.6673 72.2367 20.8588 67.4282 23.234L63.1472 25.3487L61.4699 25.3381L59.7928 25.3273L55.4951 23.19C51.2022 21.055 51.1958 21.0526 49.7322 21.0428C48.4647 21.0344 48.1266 21.1111 47.227 21.6115C46.655 21.9297 45.9287 22.5178 45.6126 22.9183C44.9957 23.7005 44.9785 23.7383 43.5889 27.3594L42.6667 29.7624L40.0947 29.7642C37.5938 29.7661 37.4943 29.7824 36.4973 30.3566C34.5908 31.4545 34.0036 32.9831 34.1427 36.486C34.2361 38.8394 34.4611 39.5535 35.4449 40.6186C36.4726 41.7311 37.2966 42.0012 39.9157 42.0848C41.232 42.1268 42.3088 42.1886 42.3088 42.2219C42.3088 42.2553 42.4352 42.9462 42.5897 43.7571C43.6249 49.1898 47.8042 54.2811 52.9555 56.3848C53.815 56.7357 54.6308 57.0244 54.7682 57.0262C54.9612 57.0288 55.0057 57.6216 54.9635 59.6288L54.909 62.228L46.5483 62.2792L38.1874 62.3304L37.9663 61.6907C37.6588 60.8022 36.5035 58.6271 35.9401 57.8764C35.6823 57.5329 35.4715 57.1276 35.4715 56.976C35.4715 56.8242 35.9989 55.2297 36.6436 53.4326C37.2882 51.6356 37.8157 49.8944 37.8157 49.5631C37.8157 47.839 35.8784 46.3391 34.2384 46.7938C33.8858 46.8915 32.304 47.8752 30.7234 48.9801L27.8494 50.9888L26.63 50.5005C23.69 49.3235 19.412 48.9361 16.2293 49.5585C12.0487 50.3762 8.24308 52.4096 5.45033 55.3178C3.00335 57.8662 1.49171 60.5721 0.548943 64.0915C-0.146316 66.6874 -0.186754 70.9848 0.459667 73.5678C2.08129 80.0468 6.7336 85.3709 12.6991 87.5752C15.7335 88.6965 20.0976 89.1169 22.9201 88.56L24.3364 88.2806V88.7236C24.3364 88.9672 24.0727 91.0943 23.7503 93.4502C23.428 95.8064 23.1643 98.0956 23.1643 98.5374C23.1643 99.5247 23.6132 99.99 24.5657 99.99C25.8019 99.99 25.8523 99.8335 26.7466 93.2295L27.5597 87.2247L29.0248 86.4302C33.9612 83.7535 37.46 79.1616 38.8255 73.5678C39.2447 71.8505 39.4256 68.1032 39.1835 66.1513L39.0863 65.3666L41.1804 65.3109C43.224 65.2568 43.2772 65.2662 43.3696 65.7032C43.4217 65.9496 43.6468 67.9609 43.8697 70.1727C44.3817 75.253 44.5106 75.8201 45.3901 76.8518C46.3477 77.9752 47.3502 78.4019 49.0484 78.4084L50.4159 78.4137L55.2509 84.0128L60.0858 89.6118V94.4087C60.0858 98.9439 60.1071 99.2267 60.4765 99.5977C61.0583 100.182 62.1038 100.121 62.6112 99.4731C62.9952 98.9829 63.0163 98.7126 63.0185 94.2257L63.021 89.4951L67.8109 83.9534L72.6007 78.4117H73.998C76.1311 78.4117 77.6433 77.494 78.3618 75.7635C78.4962 75.4398 78.8393 73.0179 79.1245 70.3816C79.4095 67.7451 79.6869 65.5163 79.741 65.4284C79.8813 65.2007 84.7489 65.233 86.263 65.4716C89.7413 66.0197 92.5784 68.682 93.3811 72.1514C93.7015 73.5354 94.1801 74.096 95.0414 74.096C95.7362 74.096 96.4213 73.3526 96.4213 72.5987C96.4213 71.7008 95.8763 70.0301 95.0859 68.5053C94.1521 66.7039 92.257 64.8009 90.4631 63.8632C87.7122 62.4253 87.9962 62.4581 77.521 62.3729L68.0953 62.2962L67.9896 61.8698C67.9316 61.6351 67.9095 60.4752 67.9408 59.2921L67.9976 57.1412L69.3991 56.6221C71.7175 55.7633 73.6708 54.55 75.427 52.8777L76.2147 52.1279L77.3464 53.2025C80.54 56.2351 85.5393 56.8497 91.5709 54.9516C93.7528 54.265 94.5335 53.7979 95.0541 52.8677C95.6735 51.7609 95.5186 50.7165 94.5102 49.2C93.6505 47.9072 93.2957 46.6523 93.2957 44.9043C93.2957 44.0278 93.5952 42.9077 94.6702 39.7645C96.3389 34.8847 96.7062 33.4805 97.0963 30.488C97.6655 26.1215 97.325 17.8647 96.4264 14.2386C95.1775 9.20022 92.2084 5.20902 87.8952 2.77067C86.2503 1.84084 84.5535 1.16838 82.356 0.575561C80.5298 0.0827908 80.372 0.0737671 72.4907 0.0160942C66.3174 -0.0290241 64.3021 0.015898 63.6999 0.212457ZM81.6723 3.43489C88.5399 5.32475 92.6196 9.51585 93.7663 15.8591C94.2813 18.708 94.5313 22.9405 94.4065 26.702C94.243 31.6338 93.8744 33.2777 91.3232 40.4535C90.5123 42.7343 90.4866 42.8806 90.491 45.1615C90.4965 47.7915 90.821 49.0381 91.9163 50.6369L92.5139 51.5088L91.4453 51.9104C89.872 52.5014 86.6883 53.1062 85.1501 53.1062C83.6455 53.1062 81.962 52.7241 80.765 52.1111C79.9114 51.6736 78.2536 50.0827 78.2536 49.7006C78.2536 49.5737 78.6003 48.7764 79.0243 47.9292C79.7246 46.5293 80.5978 43.5484 80.5978 42.5578C80.5978 42.1829 80.74 42.1564 83.1042 42.0915C85.4963 42.0259 85.6543 41.9957 86.5666 41.4292C87.1587 41.0614 87.7475 40.47 88.1138 39.8752L88.7049 38.9149V35.8269V32.7386L88.1136 31.8881C87.7883 31.4202 87.1118 30.7727 86.6102 30.449L85.6983 29.8605L85.6875 24.801C85.6762 19.3575 85.4914 17.7974 84.5965 15.5856C83.5469 12.9917 81.009 10.0488 78.5652 8.59152C77.9459 8.22213 76.7213 7.65031 75.8439 7.32094L74.2489 6.72205L67.6464 6.65653L61.0438 6.59101L61.1736 6.1614C61.4914 5.10936 62.6563 3.86959 63.8952 3.26461C64.636 2.90308 65.0787 2.88621 72.393 2.94408C79.6234 3.00116 80.2079 3.03196 81.6723 3.43489ZM54.2337 25.8481C58.4232 27.939 59.7024 28.3892 61.4533 28.3892C63.2025 28.3892 64.595 27.9084 68.663 25.8997C74.4159 23.0588 74.5355 23.0896 76.4954 27.9127L77.7652 31.0375V35.2429V39.4483L70.9279 40.8672C67.1674 41.6475 63.8589 42.3329 63.5754 42.3902C63.0667 42.4932 63.0595 42.4789 62.9786 41.2026C62.9116 40.1486 62.8137 39.8432 62.4463 39.5444C61.8477 39.0578 61.0927 39.0815 60.5379 39.6049C60.1577 39.9636 60.0858 40.2289 60.0858 41.2723C60.0858 41.9547 60.02 42.5079 59.9393 42.5013C59.8586 42.4948 56.5402 41.8102 52.5648 40.9802L45.3368 39.4707L45.2838 35.3779L45.2311 31.285L46.3295 28.4149C46.9336 26.8364 47.5683 25.3045 47.7398 25.0111C48.0988 24.3963 49.0096 23.8884 49.7644 23.8819C50.0508 23.8794 52.0619 24.7643 54.2337 25.8481ZM20.6247 28.9777C20.4098 29.1935 20.234 29.6251 20.234 29.9368C20.234 31.3104 21.8171 31.9016 22.7085 30.8611C23.2706 30.205 23.2831 29.7708 22.7593 29.1023C22.252 28.4546 21.2065 28.3935 20.6247 28.9777ZM42.3088 35.9416V39.1784H40.2685C38.3939 39.1784 38.1837 39.1399 37.6801 38.7054C37.1511 38.2488 37.1296 38.1577 37.0667 36.0917C37.0034 34.0131 37.0167 33.9331 37.5236 33.3279L38.0458 32.7049H40.1773H42.3088V35.9416ZM85.3927 33.1865C85.8462 33.6416 85.8719 33.7885 85.8661 35.8838C85.8575 38.9455 85.6311 39.1784 82.6619 39.1784H80.7932V35.9416V32.7049H82.8532C84.7801 32.7049 84.9444 32.7361 85.3927 33.1865ZM10.7506 36.9137C10.382 37.2836 10.271 37.6016 10.271 38.2868V39.1784H9.43551C7.96627 39.1784 7.22315 40.1594 7.8178 41.3141C8.15752 41.9738 8.4652 42.1209 9.50564 42.1209C10.2658 42.1209 10.271 42.1262 10.271 42.8895C10.271 43.9343 10.4175 44.2432 11.0745 44.5844C12.2244 45.1815 13.2013 44.4353 13.2013 42.9599V42.1209H14.0587C15.0908 42.1209 15.6919 41.6832 15.8599 40.8097C16.0394 39.8764 15.2818 39.1784 14.0892 39.1784H13.2013V38.2868C13.2013 37.2407 12.5625 36.4321 11.7362 36.4321C11.4578 36.4321 11.0143 36.6488 10.7506 36.9137ZM53.0532 44.0933C61.8528 45.9332 61.171 45.9369 70.4194 43.997C74.3301 43.1769 77.5681 42.5442 77.615 42.5913C77.7793 42.7563 76.8764 45.6825 76.3192 46.7908C74.5929 50.2249 71.754 52.6921 67.9976 54.0235C66.4426 54.5747 66.4106 54.5775 61.551 54.5773C56.7477 54.5771 56.6414 54.5682 55.1044 54.0429C52.766 53.2435 51.2065 52.2425 49.2971 50.3155C47.8671 48.8724 47.4534 48.3025 46.7298 46.7802C45.9281 45.0928 45.4344 43.5755 45.4344 42.7975C45.4344 42.5578 45.5516 42.4991 45.874 42.5774C46.1158 42.636 49.3464 43.3183 53.0532 44.0933ZM34.1626 51.684C31.8953 57.9898 31.96 57.467 33.2413 59.1491C34.2091 60.4197 35.3855 62.9253 35.8891 64.7887C36.4588 66.8961 36.5043 71.0011 35.9806 73.0171C34.0034 80.6264 27.3433 85.866 19.6479 85.866C12.0943 85.866 5.76856 81.0474 3.50013 73.5658C3.03597 72.0343 2.97697 71.5198 2.97697 68.9957C2.97697 66.4716 3.03597 65.9571 3.50013 64.4256C5.36496 58.2748 9.72717 54.1608 16.0607 52.5801C16.9661 52.3541 18.1943 52.2456 19.8433 52.246C22.4725 52.2466 24.1348 52.5879 26.3936 53.5909C27.008 53.8638 27.7449 54.0871 28.0313 54.0871C28.3786 54.0871 29.5562 53.3756 31.572 51.9473C33.2333 50.7705 34.6504 49.7994 34.7213 49.7894C34.7922 49.7794 34.5408 50.632 34.1626 51.684ZM13.6479 57.7065C10.8772 58.5759 8.88208 60.9907 8.58632 63.8322C8.47653 64.8872 8.55565 65.2856 9.34272 67.6406C10.0247 69.6805 10.2718 70.7771 10.4441 72.5267C10.8641 76.7927 11.6029 79.2001 12.8884 80.4921C13.9601 81.5692 14.8517 81.7438 16.099 81.1212C17.4504 80.4467 18.4295 78.9208 19.5335 75.7688C19.639 75.468 19.7687 75.6679 20.116 76.6662C21.0773 79.4284 22.244 80.947 23.7097 81.3432C26.4325 82.0794 28.2309 79.0453 28.8412 72.6856C29.0274 70.7449 29.2456 69.7543 29.9526 67.6406C30.7404 65.2852 30.8193 64.8874 30.7096 63.8322C30.4552 61.3892 28.9625 59.2717 26.7087 58.1575C25.0578 57.3413 23.4081 57.2899 21.1947 57.9855L19.7136 58.4512L17.9714 57.9364C16.0628 57.3726 14.9075 57.3112 13.6479 57.7065ZM64.9743 59.7268C64.9814 62.9181 65.3029 63.8548 66.7259 64.8272C67.2305 65.172 67.6468 65.2685 68.6288 65.2685C69.328 65.2685 69.8572 65.3503 69.8208 65.4525C69.7851 65.554 67.89 67.4576 65.6094 69.6829L61.4629 73.7292L57.2093 69.5048L52.9555 65.2803L54.2253 65.2713C55.8903 65.2593 56.8881 64.722 57.4974 63.5097C57.885 62.7388 57.937 62.3382 57.937 60.1266V57.618H61.4533H64.9696L64.9743 59.7268ZM17.7681 60.9454L19.6479 61.5265L21.5278 60.9454C23.7421 60.261 24.1473 60.2424 25.3096 60.7718C26.4005 61.2687 26.8213 61.6461 27.2712 62.5314C27.9832 63.9323 27.9549 64.4321 27.0047 67.2557C26.3218 69.2853 26.0938 70.2879 25.9963 71.6885C25.7832 74.7559 24.8875 78.4117 24.3491 78.4117C24.008 78.4117 23.0051 76.1868 22.3979 74.0835C22.0625 72.9214 21.6394 71.8933 21.3844 71.6208C20.4837 70.658 18.8122 70.658 17.9115 71.6208C17.6565 71.8933 17.2334 72.9214 16.898 74.0835C16.2908 76.1868 15.2879 78.4117 14.9468 78.4117C14.4084 78.4117 13.5127 74.7559 13.2996 71.6885C13.2023 70.289 12.9741 69.2854 12.2939 67.2638C11.2925 64.2883 11.2869 63.7443 12.2412 62.2333C12.6647 61.5626 13.082 61.2002 13.8382 60.8468C15.1486 60.2341 15.4949 60.2428 17.7681 60.9454ZM54.4454 70.9083L60.1003 76.5481L60.0442 80.7657L59.9882 84.9833L56.7649 81.2561C54.992 79.2062 53.1295 77.0876 52.6261 76.5481L51.7107 75.5673L49.856 75.4998C48.317 75.4437 47.9424 75.367 47.6556 75.0486C47.3889 74.7528 47.2096 73.7822 46.8707 70.8006C46.6292 68.675 46.427 66.5607 46.4213 66.1023L46.4112 65.2685H47.6009H48.7908L54.4454 70.9083ZM76.6892 65.5138C76.6851 66.2005 75.7125 74.4605 75.6017 74.7505C75.3929 75.2966 74.851 75.469 73.3338 75.472C72.5478 75.4733 71.714 75.5259 71.4809 75.5887C71.2479 75.6514 69.2699 77.7736 67.0855 80.3043L63.1138 84.9056L63.0599 80.6288L63.006 76.352L68.6274 70.8205L74.2489 65.2889L75.4698 65.2787C76.3225 65.2717 76.6904 65.3425 76.6892 65.5138ZM94.9474 78.501C94.6837 78.7658 94.4686 79.185 94.4696 79.4327C94.4708 79.6803 95.0422 84.1154 95.7394 89.2887C96.4368 94.4619 97.0074 98.7928 97.0074 98.9129C97.0074 99.0331 97.1867 99.3246 97.4057 99.5606C97.9617 100.16 98.9543 100.133 99.5441 99.5027L100 99.0155L98.6558 88.9588C97.4305 79.7911 97.2731 78.8631 96.8753 78.4607C96.3057 77.8844 95.5454 77.9003 94.9474 78.501ZM79.3544 80.5839C78.9035 80.9399 78.8397 81.1321 78.8397 82.1344V83.2782L76.1536 83.3461C72.0973 83.4485 71.611 83.8895 71.6124 87.465C71.613 89.131 71.6814 89.6075 71.9937 90.1221C72.8158 91.476 72.6966 91.4568 80.2962 91.4568C86.6977 91.4568 87.1777 91.4326 87.6893 91.0845C88.6182 90.4522 88.8026 89.838 88.8026 87.3761C88.8026 85.3717 88.7563 85.0702 88.3562 84.4729C87.7415 83.5546 86.9556 83.3398 84.163 83.3269L81.7699 83.3159V82.4423C81.7699 81.3456 81.4718 80.6749 80.8602 80.3949C80.1907 80.0887 79.9416 80.1199 79.3544 80.5839ZM85.8723 87.4383V88.6184L80.256 88.5663L74.6396 88.5143L74.581 87.3863L74.5224 86.2584H80.1974H85.8723V87.4383Z" fill="black"/>
</svg>
