<svg width="100" height="100" viewBox="0 0 100 100" fill="none" xmlns="http://www.w3.org/2000/svg">
<path fill-rule="evenodd" clip-rule="evenodd" d="M46.3346 0.24831C43.5423 0.703788 41.231 1.6465 39.3785 3.08498L38.402 3.84351L24.012 3.94274L9.62206 4.04198L8.53041 4.56057C7.13845 5.22165 6.0337 6.3283 5.38268 7.71359C4.9486 8.63665 4.85769 9.14968 4.79299 11.0379C4.75091 12.266 4.64015 13.2706 4.54687 13.2706C4.45358 13.2706 3.8752 13.4584 3.26189 13.688C1.24154 14.4437 0.00956067 15.9834 3.35129e-05 17.7641C-0.00949364 19.5618 2.01403 25.7735 3.83729 29.5434L4.65385 31.2317L4.75627 38.575L4.85848 45.9182L5.37712 47.0097C6.03668 48.3982 7.14183 49.5033 8.53041 50.1628C9.5254 50.6353 9.88604 50.6879 12.5993 50.7562L15.5765 50.831L18.7788 55.7178C22.0542 60.7164 24.1359 64.3745 26.3033 68.9402C28.907 74.4252 29.9121 77.6046 30.0989 80.9473C30.2009 82.7728 29.9691 85.5757 29.693 85.8516C29.5078 86.0368 24.4624 86.9231 22.1701 87.173C19.6931 87.4431 19.0093 87.7293 18.5071 88.7065C18.1634 89.3752 18.1518 99.4195 18.4942 99.7618C18.6774 99.945 25.9518 100 50.0287 100C76.7004 100 81.3592 99.9587 81.5568 99.7206C81.7246 99.5183 81.7726 97.9524 81.7299 94.0677L81.6712 88.6944L81.0489 88.0726C80.4769 87.501 80.2766 87.4367 78.5679 87.276C77.0638 87.1347 72.8748 86.4539 70.7257 86.0014C70.158 85.882 69.8615 84.2024 69.8615 81.1059C69.8615 76.8179 70.8507 73.1179 73.2418 68.4631C74.7997 65.4303 75.5531 64.228 80.8236 56.364L84.541 50.8171L87.4728 50.7486C90.1404 50.6863 90.5042 50.6333 91.5131 50.1608C92.8634 49.5285 93.8963 48.5286 94.6221 47.152L95.168 46.1166L95.2672 38.7734L95.3664 31.4302L96.5966 28.6235C99.3405 22.3635 100.472 18.0397 99.8202 16.3101C99.3706 15.1179 97.5245 13.7269 95.9363 13.3837L95.3154 13.2496L95.2273 10.9281C95.1503 8.902 95.0715 8.4749 94.6076 7.57129C93.9062 6.20465 92.8723 5.19923 91.5131 4.56196L90.4044 4.04198L82.557 3.98402L74.7096 3.92587L73.5691 2.7716C72.2571 1.44347 71.019 0.710139 69.3583 0.277683C66.6099 -0.438182 63.4836 0.257241 61.3886 2.05038L60.5723 2.74917L58.915 1.86997C56.3095 0.487659 54.832 0.145306 51.1049 0.0603629C49.0831 0.014319 47.3498 0.0825911 46.3346 0.24831ZM55.2694 2.05593C60.2384 3.45988 64.2293 7.5818 65.3912 12.5101C65.7729 14.1292 65.7709 17.3775 65.3873 19.0261C65.2221 19.7356 63.5487 23.7853 61.6685 28.0251L58.2502 35.7343L57.0363 35.6137C53.261 35.2388 51.5209 33.8265 51.0185 30.7296C50.6976 28.7523 50.7389 27.7586 51.1414 27.7586C51.8307 27.7586 53.2439 26.8853 53.8027 26.1143C54.1206 25.6753 54.571 24.7941 54.8038 24.1558L55.227 22.9954H56.3516C56.97 22.9954 57.5833 22.8883 57.7143 22.7573C58.0138 22.4578 58.0224 20.5624 57.7306 19.2016C57.5746 18.4742 57.2922 17.9346 56.7807 17.3862L56.0528 16.606L56.7773 15.881C57.5941 15.064 57.9525 13.8482 57.9525 11.8958C57.9525 10.3419 57.7592 10.2014 55.8442 10.3633C54.1244 10.5086 52.9333 10.9777 52.1429 11.821L51.5929 12.4077L50.8391 11.6906C50.0355 10.9261 49.0464 10.5443 47.3758 10.3534C46.6841 10.2744 45.9251 9.98621 45.0859 9.4839C43.739 8.67793 41.248 7.71101 39.182 7.19202C38.4802 7.01578 37.9058 6.80382 37.9058 6.72126C37.9058 6.6385 38.532 5.98019 39.2976 5.25817C41.3082 3.36144 43.6941 2.24428 46.746 1.77054C48.5945 1.48376 53.8689 1.66019 55.2694 2.05593ZM70.3047 2.32962C71.8505 3.06731 73.2482 4.49011 73.9919 6.0826C74.4488 7.06103 74.522 7.47761 74.5238 9.10701C74.5256 10.8428 74.4728 11.104 73.876 12.3166C72.7561 14.5912 70.6111 16.1629 68.0731 16.5687L67.2812 16.6953V15.317C67.2812 11.5559 65.7225 7.79158 62.9707 4.90669C61.7479 3.6248 61.7513 3.53212 63.0533 2.72754C65.2035 1.39881 68.0291 1.24381 70.3047 2.32962ZM36.5879 5.77855C36.5053 5.91509 36.1117 6.53292 35.7134 7.15173C34.7874 8.59021 34.5802 9.38347 34.2567 12.7298C34.1114 14.2334 33.9369 15.5192 33.8691 15.5869C33.8012 15.6548 32.5605 15.4758 31.1117 15.1894C22.0155 13.3901 14.6848 12.5577 9.35213 12.7185L6.30344 12.8104L6.3866 10.9071C6.50569 8.18296 7.28493 6.86654 9.32434 5.94347C10.1939 5.54992 10.5668 5.539 23.4779 5.53483C34.035 5.53126 36.7078 5.58108 36.5879 5.77855ZM90.8014 6.00341C92.812 6.95386 93.6682 8.46875 93.675 11.0875L93.6793 12.7745L89.0646 12.7828C84.5434 12.7909 81.5223 13.0406 77.0239 13.7781C74.6645 14.1649 74.7519 14.1891 75.2173 13.2766C76.1889 11.3725 76.4548 8.92442 75.9152 6.85244C75.7514 6.2239 75.6174 5.66919 75.6174 5.61997C75.6174 5.57075 78.8104 5.53126 82.7132 5.53245C89.7587 5.53424 89.8159 5.53761 90.8014 6.00341ZM39.8906 9.03914C41.6797 9.54721 43.7211 10.423 44.6377 11.0758C45.1228 11.4213 45.207 11.639 45.3185 12.8396C45.4739 14.5106 45.8459 15.4506 46.6045 16.0888L47.1801 16.5731L46.4368 17.3697C45.6027 18.2638 45.2496 19.4608 45.2496 21.3932C45.2496 22.8948 45.4694 23.0806 47.0888 22.948C48.892 22.8005 49.9878 22.4082 50.8274 21.6097L51.5695 20.9038L52.3396 21.6222C52.7632 22.0174 53.2382 22.3834 53.3948 22.4356C53.6377 22.5165 53.6284 22.6892 53.3315 23.6065C52.8158 25.1988 51.8389 26.1709 50.754 26.1709C50.4151 26.1709 49.9896 26.3749 49.6778 26.6869C49.1713 27.1932 49.1639 27.2402 49.2806 29.2173C49.5795 34.2847 51.3633 36.3283 56.1622 37.1012C56.8684 37.2149 57.4772 37.3387 57.5147 37.3764C57.5524 37.4139 57.4775 37.9817 57.3483 38.6383C57.0371 40.2198 57.1772 42.5427 57.6413 43.4981C58.3007 44.8554 58.9088 45.1434 62.3227 45.7142C64.0128 45.9968 66.2999 46.4104 67.405 46.6332C69.5834 47.0726 70.3287 47.0016 71.5736 46.2361C72.3318 45.7699 85.976 25.3788 86.1029 24.5224C86.1606 24.1322 86.0445 23.8133 85.7146 23.4569C85.1948 22.8954 85.0799 22.8942 79.0909 23.39C76.6184 23.5946 66.6103 23.6192 65.9657 23.4221C65.5433 23.2931 65.5433 23.2931 66.1099 21.9039C66.4216 21.1398 66.7838 20.0105 66.915 19.3943L67.1536 18.2739L68.1498 18.142C69.5381 17.9578 71.0784 17.3844 72.1774 16.6427C72.9274 16.1367 73.5393 15.9406 75.3064 15.6399C79.6173 14.9066 84.1099 14.4336 87.8241 14.3223C93.4719 14.1528 96.1894 14.638 97.7133 16.0876L98.5009 16.8366L98.381 18.0802C98.0827 21.1773 95.378 28.1293 91.7785 35.0526C88.1655 42.0015 84.3261 48.3381 78.0993 57.6276C75.9043 60.9023 73.6924 64.2979 73.1837 65.1733C71.0907 68.7762 69.3817 72.9611 68.647 76.2834C68.3657 77.555 68.2665 83.9463 68.5112 85.0377L68.6495 85.6547L65.0377 85.7686C62.2018 85.8581 60.6586 86.0207 57.8533 86.526C54.5487 87.1212 53.9602 87.1694 50.0132 87.1688C46.0662 87.1682 45.4777 87.1196 42.1732 86.5232C39.3492 86.0135 37.8393 85.855 34.9679 85.7661C31.7366 85.666 31.3495 85.6184 31.4648 85.3348C31.7969 84.5169 31.7973 80.7524 31.4652 78.767C30.557 73.3362 26.1795 64.077 20.3453 55.2461C10.8792 40.9182 5.25366 30.3077 2.45744 21.5069C1.55812 18.6762 1.43506 16.9617 2.07973 16.2476C2.60472 15.6659 4.00402 14.978 5.35469 14.6374C7.01003 14.2201 14.994 14.2784 18.5538 14.7339C22.2392 15.2055 26.5854 15.9172 30.3972 16.6735C33.0378 17.1975 33.4896 17.3392 33.3895 17.6126C33.2049 18.1175 31.7564 20.4537 30.6098 22.096L29.566 23.5908L26.4417 23.5861C24.7232 23.5835 22.2455 23.4944 20.9356 23.388C14.6879 22.8809 14.9823 22.8769 14.3844 23.4747C13.997 23.8621 13.8704 24.1598 13.9293 24.5452C13.974 24.839 17.1148 29.745 20.9086 35.4475C26.9422 44.5168 27.9106 45.8751 28.6385 46.2895C29.8752 46.9937 30.5826 47.0506 32.7137 46.6168C33.768 46.402 36.0061 45.997 37.6873 45.7161C39.3682 45.4355 40.8866 45.1287 41.0615 45.0344C42.2035 44.4184 42.8679 42.8483 42.8679 40.7648C42.8679 39.2535 42.2351 36.3555 41.8221 35.9751C41.6877 35.8512 40.9658 35.6008 40.2179 35.4186C37.5962 34.7799 35.6014 33.4252 34.6942 31.6672C34.3857 31.0696 34.2402 30.3589 34.1779 29.1479C34.1303 28.22 34.0086 27.3728 33.9074 27.2652C33.8061 27.1576 32.9511 26.8004 32.0073 26.4713C31.0635 26.1423 30.2644 25.7839 30.2319 25.6747C30.1993 25.5655 30.928 24.4045 31.8511 23.0947C34.9746 18.6625 35.4448 17.4045 35.9142 12.2249C36.0305 10.94 36.2689 9.53133 36.4438 9.09431C36.751 8.32645 36.786 8.30422 37.4826 8.42985C37.8792 8.5013 38.9627 8.77557 39.8906 9.03914ZM38.3012 12.3279C37.4102 12.9346 37.1534 13.3742 37.4318 13.8164C37.7548 14.3288 38.2117 14.3421 38.8665 13.8581C39.6046 13.3125 40.315 13.4441 41.6732 14.3783C42.2158 14.7514 42.7781 15.0568 42.9226 15.0568C43.2944 15.0568 43.6618 14.6436 43.6618 14.2252C43.6618 13.7743 42.0475 12.5831 40.8973 12.1854C39.6939 11.7692 39.0715 11.8034 38.3012 12.3279ZM49.1756 12.4172C49.5476 12.5937 49.9416 12.9348 50.0511 13.1754C50.2226 13.5518 50.1246 13.7418 49.3451 14.544C48.5617 15.3497 48.3853 15.4462 48.0355 15.259C47.3927 14.9151 47.0604 14.2433 46.9129 12.9882L46.7758 11.8208L47.6376 11.9586C48.1116 12.0344 48.8037 12.2408 49.1756 12.4172ZM56.3535 12.6256C56.3373 13.6979 55.9465 14.664 55.3502 15.106L54.832 15.4901L53.834 14.4922C52.9075 13.5655 52.8565 13.4651 53.1221 13.0862C53.576 12.4383 54.7129 11.9566 55.9181 11.9016C56.3073 11.8839 56.3633 11.977 56.3535 12.6256ZM52.7017 15.544C54.103 16.945 52.1269 19.1045 50.5856 17.8566C50.232 17.5702 50.1214 17.2816 50.1214 16.6445C50.1214 16.0075 50.232 15.7189 50.5856 15.4325C51.2337 14.9078 52.1118 14.954 52.7017 15.544ZM37.5485 17.6765C37.1506 18.0745 37.2788 18.5675 37.9211 19.1077C39.0173 20.0302 40.3706 20.0272 41.4727 19.0997C42.1063 18.5667 42.2321 18.0729 41.8357 17.6765C41.4944 17.3352 41.1174 17.3814 40.5403 17.8353C40.2626 18.0536 39.8811 18.2323 39.6921 18.2323C39.5032 18.2323 39.1217 18.0536 38.844 17.8353C38.2668 17.3814 37.8899 17.3352 37.5485 17.6765ZM49.3556 18.756C50.1256 19.5481 50.2226 19.7374 50.0511 20.1137C49.8137 20.6347 48.8162 21.1422 47.6685 21.3255C46.8538 21.4557 46.8375 21.4472 46.8423 20.8873C46.8512 19.7954 47.216 18.7264 47.7313 18.2819C48.0161 18.0364 48.2967 17.8353 48.3549 17.8353C48.4131 17.8353 48.8634 18.2495 49.3556 18.756ZM55.4379 18.2412C55.9893 18.675 56.3617 19.6985 56.3635 20.7853L56.3647 21.4528L55.4244 21.3118C54.302 21.1435 53.516 20.7655 53.1234 20.2048C52.8559 19.823 52.9011 19.7253 53.7564 18.8348C54.2631 18.3075 54.7325 17.8669 54.7996 17.8558C54.8667 17.8445 55.1539 18.0179 55.4379 18.2412ZM20.8363 24.9797C22.2009 25.0841 24.5009 25.1716 25.9472 25.174L28.5771 25.1785V25.7519C28.5771 26.646 29.144 27.141 30.8613 27.7463L32.4475 28.3056L32.5748 29.7034C32.7403 31.5225 33.4465 33.0433 34.7146 34.3113C35.8227 35.4196 37.9193 36.531 39.6191 36.9112C40.595 37.1295 40.7008 37.2085 40.8957 37.8621C41.0124 38.2542 41.1575 39.3341 41.2181 40.2619C41.3441 42.1918 41.0166 43.3217 40.2475 43.6122C39.9966 43.7069 38.5856 43.9819 37.1119 44.2233C35.6381 44.4646 33.5745 44.8357 32.5259 45.0481C30.5066 45.4569 29.9044 45.3893 29.1023 44.6639C28.7883 44.3801 15.9145 25.2077 15.6994 24.7038C15.6563 24.6026 16.2095 24.5831 16.9895 24.6584C17.7408 24.7306 19.4717 24.8753 20.8363 24.9797ZM84.3507 24.6731C84.3507 24.7225 82.4496 27.6028 80.126 31.0736C77.8023 34.5443 74.81 39.0491 73.4764 41.084C71.2772 44.4398 70.9747 44.8145 70.2235 45.1152C69.4641 45.419 69.2787 45.4212 67.991 45.1414C67.2185 44.9737 65.2021 44.6089 63.51 44.3305C61.818 44.0522 60.1942 43.7293 59.9016 43.6126C58.8387 43.1893 58.4507 41.1352 58.961 38.6343C59.0791 38.056 60.4187 34.7694 61.9378 31.331L64.6999 25.0793L72.1932 25.0599C76.3143 25.0489 80.4009 24.9493 81.2742 24.8382C83.0752 24.6087 84.3507 24.5405 84.3507 24.6731ZM41.276 29.2826C40.2804 29.798 39.6215 29.9856 38.4191 30.0959C36.7111 30.2527 36.2 30.5937 36.6429 31.2814C36.9715 31.7918 39.6028 31.7102 41.1127 31.1428C43.1908 30.3619 44.032 29.5353 43.4554 28.8406C43.1229 28.4399 42.7635 28.5128 41.276 29.2826ZM10.3223 42.1473C11.3846 44.003 12.7523 46.325 13.3617 47.3074L14.4696 49.0936L12.4427 49.151C9.48967 49.2345 7.93576 48.5028 6.88122 46.5324C6.46877 45.7616 6.44376 45.4432 6.39474 40.3611L6.34333 35.0026L7.3669 36.888C7.93 37.925 9.25983 40.2917 10.3223 42.1473ZM93.3592 45.9984C92.9029 47.2017 91.8799 48.2704 90.6977 48.7789C89.8542 49.1419 89.3939 49.1978 87.6475 49.15L85.5908 49.0936L87.7423 45.528C88.9257 43.5668 90.7231 40.4308 91.737 38.5591L93.5801 35.1558L93.6353 40.1401C93.6825 44.4059 93.6428 45.2503 93.3592 45.9984ZM47.9929 51.8384C43.7469 53.0403 43.2122 58.6406 47.166 60.499C48.3281 61.0452 50.5112 61.2322 52.0332 60.9158C54.1514 60.4756 55.2895 59.2033 55.5146 57.0239C55.7311 54.9259 54.7188 53.0544 52.888 52.1683C51.7654 51.6249 49.3279 51.4607 47.9929 51.8384ZM52.4018 53.6768C53.5414 54.344 53.8836 55.0047 53.8836 56.5377C53.8836 57.7638 53.8275 57.9579 53.3186 58.489C51.9512 59.9159 48.0213 59.8108 46.7611 58.3131C45.3937 56.6883 46.093 54.1984 48.1276 53.4482C49.2125 53.0482 51.5407 53.1727 52.4018 53.6768ZM47.9929 63.7463C43.7469 64.9482 43.2122 70.5485 47.166 72.407C48.3281 72.9531 50.5112 73.1401 52.0332 72.8237C54.1514 72.3835 55.2895 71.1112 55.5146 68.9318C55.7311 66.8339 54.7188 64.9623 52.888 64.0762C51.7654 63.5328 49.3279 63.3686 47.9929 63.7463ZM52.4018 65.5847C53.5414 66.2519 53.8836 66.9126 53.8836 68.4456C53.8836 69.6717 53.8275 69.8658 53.3186 70.3969C51.9512 71.8239 48.0213 71.7187 46.7611 70.2211C45.3937 68.5962 46.093 66.1063 48.1276 65.3561C49.2125 64.9562 51.5407 65.0806 52.4018 65.5847ZM47.9929 75.6542C43.7469 76.8562 43.2122 82.4564 47.166 84.3149C48.3281 84.8611 50.5112 85.048 52.0332 84.7317C54.1514 84.2915 55.2895 83.0191 55.5146 80.8398C55.7311 78.7418 54.7188 76.8702 52.888 75.9841C51.7654 75.4407 49.3279 75.2766 47.9929 75.6542ZM52.4018 77.4926C53.5414 78.1599 53.8836 78.8206 53.8836 80.3535C53.8836 81.5796 53.8275 81.7737 53.3186 82.3048C51.9512 83.7318 48.0213 83.6266 46.7611 82.129C45.3937 80.5042 46.093 78.0142 48.1276 77.264C49.2125 76.8641 51.5407 76.9885 52.4018 77.4926ZM42.0739 88.1135C45.4702 88.7184 46.0662 88.7676 50.0132 88.7692C54.0162 88.7708 54.5142 88.7286 58.0518 88.0885C61.5963 87.4471 62.0734 87.4068 65.9911 87.4195C69.8188 87.4318 70.4105 87.4828 73.2357 88.0446C74.9277 88.3812 77.0713 88.7194 77.9992 88.7964C78.9271 88.8732 79.7981 89.0251 79.9344 89.1338C80.12 89.2817 80.1825 90.4772 80.1825 93.8718V98.4123H50.0132H19.8439V93.8718C19.8439 90.4735 19.9062 89.2837 20.092 89.1412C20.2286 89.0364 21.3673 88.8458 22.6227 88.7176C23.8781 88.5894 25.5304 88.3469 26.2946 88.179C31.2646 87.0866 36.1923 87.0662 42.0739 88.1135Z" fill="black"/>
</svg>
