<svg width="100" height="100" viewBox="0 0 100 100" fill="none" xmlns="http://www.w3.org/2000/svg">
<path fill-rule="evenodd" clip-rule="evenodd" d="M46.6841 0.18696C36.7513 1.58635 28.0418 8.99664 25.2225 18.4472C24.8859 19.5767 24.7211 19.7402 23.7618 19.898C22.0468 20.1803 21.1735 20.6024 20.1799 21.629C18.9074 22.9439 18.3215 24.5017 18.3215 26.5709C18.3215 29.9153 20.443 32.5379 23.4504 32.9116C25.028 33.1076 25.0295 33.1088 25.54 34.6107C27.194 39.4792 31.2494 44.8011 35.3817 47.5262C36.0846 47.9898 36.6593 48.4717 36.6593 48.5971C36.6593 48.9743 32.6019 49.8491 29.8061 50.0752C24.6643 50.4904 24.036 49.8191 24.0345 43.9083C24.0336 41.1744 23.8935 39.5685 23.5739 38.6306C21.2661 31.8573 11.6859 31.9466 9.42195 38.7629C8.68813 40.9721 8.9626 49.7635 9.85063 52.5021C11.5765 57.8237 16.1264 62.541 21.1434 64.2104C22.6168 64.7007 26.7963 65.4065 28.3171 65.4219C28.441 65.4234 28.5426 66.7771 28.5426 68.4305V71.4367H27.5451C26.0441 71.4367 23.4558 72.2811 21.8697 73.2882C18.6856 75.3096 16.5947 78.8226 16.3065 82.6366C16.0987 85.3828 16.5668 87.1098 18.7601 91.6898C20.6158 95.5645 22.5554 97.6857 25.4603 99.0168C29.945 101.072 36.1973 99.7996 39.3697 96.1865L40.2929 95.1349H50.1873H60.0816L61.0048 96.1865C64.1772 99.7996 70.4295 101.072 74.9142 99.0168C77.8191 97.6857 79.7587 95.5645 81.6144 91.6898C83.8077 87.1098 84.2758 85.3828 84.0681 82.6366C83.7798 78.8226 81.689 75.3096 78.5048 73.2882C76.9187 72.2811 74.3304 71.4367 72.8294 71.4367H71.8319V68.4305C71.8319 66.7771 71.9332 65.4231 72.0574 65.4219C73.5845 65.405 77.8125 64.6983 79.1619 64.2338C84.3837 62.4373 88.8464 57.7828 90.5591 52.3473C91.1429 50.4943 91.2219 49.5789 91.2219 44.6815V39.12L90.3468 37.5405C87.3836 32.1922 80.0067 32.2352 77.1511 37.6169C76.6067 38.6432 76.4897 39.5039 76.352 43.494C76.126 50.0518 75.7385 50.4928 70.5684 50.0752C67.8571 49.8561 63.7152 48.9779 63.7152 48.622C63.7152 48.5102 64.146 48.1642 64.6723 47.8533C66.1769 46.9644 70.2921 42.8952 71.5283 41.074C72.9117 39.0358 74.1605 36.5945 74.8345 34.6107C75.345 33.1088 75.3465 33.1076 76.9241 32.9116C81.8958 32.2938 83.8826 25.4397 80.1946 21.629C79.2022 20.6036 78.3271 20.1803 76.6205 19.8995C75.6239 19.7357 75.5088 19.6019 75.0161 18.0384C72.9115 11.3622 67.4341 5.25331 60.8936 2.2877C56.8761 0.465936 50.9358 -0.412176 46.6841 0.18696ZM49.8866 4.82794C49.8866 7.31858 49.5334 8.30642 48.643 8.30642C47.7201 8.30642 47.1811 7.63723 47.1811 6.49217C47.1811 5.30202 47.1793 5.30021 45.9786 5.30021H44.7761L44.7773 6.57785C44.7809 10.629 49.6398 12.2007 51.7024 8.81777C52.1662 8.0575 52.2895 7.30355 52.2904 5.22506L52.2916 2.59463H53.1243C53.5825 2.59463 54.9689 2.8736 56.2057 3.21451C64.1511 5.40543 70.1944 11.1578 72.7007 18.9159C73.7219 22.0769 73.7625 22.1316 75.0813 22.1518C77.9682 22.196 79.648 23.7598 79.648 26.4032C79.648 28.0869 79.0453 29.4614 78.0668 30.01C77.6964 30.2174 76.5862 30.4582 75.5996 30.5451C73.5776 30.7228 73.6669 30.6206 72.3084 34.3158C69.6792 41.4672 63.8471 46.7957 56.2896 48.9515C52.9647 49.8996 47.4098 49.8996 44.085 48.9515C36.5274 46.7957 30.6953 41.4672 28.0661 34.3158C26.6929 30.5806 26.8264 30.7249 24.5681 30.5298C22.4087 30.3431 21.8418 30.0332 21.1248 28.647C20.4295 27.3023 20.7039 24.4717 21.625 23.4913C22.3901 22.677 23.9055 22.1395 25.4435 22.1368C26.5988 22.1347 26.6643 22.0403 27.6738 18.9159C30.4672 10.2698 37.9298 3.93479 46.8804 2.61176C50.1298 2.13137 49.8866 1.9522 49.8866 4.82794ZM40.6363 20.833C40.139 21.0332 39.3649 22.539 39.3649 23.3059C39.3649 23.6354 39.6857 24.2781 40.0774 24.7335C40.6203 25.3645 41.0595 25.562 41.9202 25.562C42.7809 25.562 43.2201 25.3645 43.763 24.7335C44.1547 24.2781 44.4755 23.6354 44.4755 23.3059C44.4755 22.4686 43.6918 21.0422 43.1092 20.8185C42.5449 20.6021 41.1906 20.6099 40.6363 20.833ZM57.1704 20.833C56.6731 21.0332 55.899 22.539 55.899 23.3059C55.899 23.6354 56.2198 24.2781 56.6115 24.7335C57.1544 25.3645 57.5936 25.562 58.4543 25.562C59.315 25.562 59.7542 25.3645 60.2971 24.7335C60.6888 24.2781 61.0096 23.6354 61.0096 23.3059C61.0096 22.4686 60.2259 21.0422 59.6433 20.8185C59.079 20.6021 57.7247 20.6099 57.1704 20.833ZM43.7645 32.6786C42.6354 33.5666 42.7193 34.7866 44.0324 36.5753C46.2419 39.5854 48.1349 40.6435 50.8973 40.4124C52.9241 40.2428 54.591 39.1239 56.1708 36.872C57.6535 34.758 57.7752 33.5952 56.61 32.6786C55.8729 32.0984 55.4286 32.0554 50.1873 32.0554C44.9459 32.0554 44.5016 32.0984 43.7645 32.6786ZM54.6966 34.7318C54.6966 34.8813 54.1215 35.6382 53.4189 36.4141C52.3346 37.6112 51.933 37.8481 50.7632 37.9797C49.0527 38.1721 47.8914 37.6196 46.6123 36.0044C46.0985 35.3556 45.678 34.7427 45.678 34.6426C45.678 34.5425 47.7071 34.4604 50.1873 34.4604C52.671 34.4604 54.6966 34.5824 54.6966 34.7318ZM18.887 36.5807C19.4909 36.9204 20.3212 37.6878 20.7316 38.2864C21.4266 39.2998 21.4888 39.6966 21.6337 44.0571C21.7985 49.0194 22.0152 49.8561 23.4786 51.1824C24.7578 52.3416 25.5644 52.5761 28.1521 52.5409C31.4959 52.4952 34.1627 52.0452 37.2955 50.9972L39.8859 50.1311L42.1619 50.8538C47.7414 52.6257 53.2873 52.5791 58.6951 50.7155L60.439 50.1143L63.0541 50.9891C67.6199 52.5159 73.7715 53.0673 75.605 52.114C78.1041 50.8144 78.7462 49.1559 78.7462 44.0033C78.7462 40.4481 78.8219 39.8487 79.4226 38.6589C80.9699 35.5934 84.8112 35.0574 87.392 37.5469C88.7205 38.8284 88.9643 39.9374 88.9613 44.6815C88.9571 50.9013 87.9076 54.2078 84.8614 57.5991C81.8738 60.9249 78.4068 62.4905 73.1847 62.8711C71.5313 62.9917 70.0096 63.2261 69.8027 63.3921C69.5478 63.5971 69.427 64.6496 69.427 66.6634V69.633H50.1873H30.9476V66.6634C30.9476 64.6496 30.8267 63.5971 30.5718 63.3921C30.3653 63.2261 28.8432 62.9917 27.1898 62.8711C21.9677 62.4905 18.5007 60.9249 15.5131 57.5991C12.4227 54.1582 11.4184 50.9269 11.4118 44.4007C11.4078 40.6099 11.4866 39.8974 12.0346 38.7656C13.254 36.2464 16.4685 35.2216 18.887 36.5807ZM66.4208 72.7014C63.4209 74.1714 60.8788 77.692 58.5481 83.6049C57.7379 85.6599 57.5534 88.6214 58.1074 90.6716C58.3527 91.5786 58.4892 92.4239 58.4107 92.5505C58.2249 92.8514 42.1496 92.8514 41.9638 92.5505C41.8853 92.4239 42.0218 91.5786 42.2671 90.6716C42.8212 88.6214 42.6366 85.6599 41.8264 83.6049C39.4957 77.692 36.9537 74.1714 33.9538 72.7014L32.601 72.0385H50.1873H67.7735L66.4208 72.7014ZM31.8106 74.4005C34.9133 75.5795 36.2565 77.1286 38.6239 82.259C39.9698 85.1759 40.0816 85.598 40.0984 87.8205C40.1135 89.8184 39.9815 90.5132 39.3195 91.9255C37.7076 95.3637 34.7306 97.3589 30.9476 97.5371C27.8602 97.6823 25.6587 96.8535 23.5812 94.7636C21.6334 92.8045 18.9507 87.1026 18.7057 84.4024C18.308 80.0158 21.2324 75.5582 25.3548 74.2679C27.1955 73.6919 30.1028 73.7515 31.8106 74.4005ZM76.1801 74.7384C78.1362 75.6851 79.8347 77.4371 80.8057 79.5089C81.4587 80.9017 81.6018 81.6391 81.6018 83.6118C81.6021 85.8848 81.5119 86.2146 79.9592 89.6242C77.2226 95.633 74.3782 97.7701 69.427 97.5371C65.6001 97.3568 62.6853 95.4027 61.0541 91.9234C60.393 90.5135 60.261 89.8178 60.2761 87.8205C60.2929 85.598 60.4047 85.1759 61.7506 82.259C64.0921 77.1849 65.4194 75.6352 68.4857 74.3963C70.4626 73.5975 74.1635 73.762 76.1801 74.7384Z" fill="black"/>
</svg>
