<svg width="100" height="100" viewBox="0 0 100 100" fill="none" xmlns="http://www.w3.org/2000/svg">
<path fill-rule="evenodd" clip-rule="evenodd" d="M21.4141 0.670322C18.3285 1.94142 15.0586 4.57442 13.1864 7.29552C12.2735 8.62247 10.3532 12.6938 9.67366 14.7428C6.9469 22.9662 7.57346 32.1959 11.3963 40.1213C12.7405 42.9078 14.1635 44.9416 16.1934 46.9766C18.8864 49.6764 21.9537 51.6379 25.2448 52.7651C28.9879 54.0471 32.5471 52.4686 33.7942 48.9735C34.2395 47.726 34.1682 46.2653 33.4108 41.11C32.4924 34.8598 32.144 31.7197 31.9901 28.3049L31.8615 25.4608L32.4242 25.0182C33.1043 24.4832 33.6463 24.5506 35.3463 25.3815C37.6106 26.4883 39.2725 28.6293 39.8391 31.1695C40.1373 32.5061 40.1262 32.7768 39.5416 38.4938C38.517 48.5153 38.5432 50.5949 39.8078 59.567C40.0576 61.3395 40.2295 62.8778 40.1897 62.9856C40.15 63.0932 39.7149 63.436 39.2229 63.7473C37.8617 64.6084 36.2035 66.0658 35.3627 67.1403L34.6071 68.1055L33.2143 67.6201C30.2356 66.5819 26.3178 66.8373 23.341 68.2639C19.9918 69.8692 17.759 72.3463 16.3641 76.0045C15.8539 77.343 15.8176 77.6326 15.8164 80.3678C15.8155 83.1873 15.8385 83.3582 16.4332 84.9133C18.4549 90.1994 22.8998 93.4555 28.4315 93.7024C32.6155 93.8891 35.9553 92.5432 38.8764 89.493L40.0719 88.2444L40.867 88.65C42.0262 89.2414 42.7121 90.2367 42.8073 91.4658C42.8504 92.0221 42.7049 93.9672 42.484 95.7885C42.124 98.7575 42.1129 99.1463 42.3764 99.5483C42.727 100.083 43.4526 100.135 43.8864 99.6549C44.2592 99.2424 45.1055 92.3389 44.9354 91.0959L44.8266 90.3008L46.0389 90.5576C47.9965 90.9725 50.6057 91.1127 50.9561 90.8219C51.3416 90.5018 51.3412 89.5692 50.9551 89.2489C50.7903 89.1119 49.8184 88.9295 48.7957 88.8432C46.5617 88.6547 44.616 88.1453 42.5725 87.2141C41.3285 86.6471 41.0799 86.4612 41.1901 86.1797C42.2164 83.5572 42.3455 82.9076 42.3442 80.3678C42.3428 78.0865 42.286 77.6621 41.7826 76.1879C41.0412 74.0155 39.7496 72.085 37.8936 70.3752L36.375 68.9762L37.7115 67.6301C38.4465 66.8897 39.6192 65.8924 40.3174 65.4139C41.1369 64.8522 41.7123 64.2879 41.9406 63.8219C42.2838 63.1217 42.2824 63.0168 41.8944 60.3082C40.4426 50.1744 40.4289 49.0656 41.6139 37.6404C42.1174 32.785 42.1248 32.5526 41.8213 31.0119C41.4094 28.9215 40.5442 27.2065 39.15 25.7166C37.1166 23.5438 34.086 22.1746 32.3467 22.643C31.2897 22.9276 30.2496 23.8438 29.9488 24.7555C29.4422 26.2904 29.9221 32.4291 31.2569 41.4887C31.6623 44.241 31.918 46.6461 31.874 47.2936C31.7254 49.4815 29.9666 51.0768 27.7197 51.0617C25.5254 51.0469 21.7426 49.1418 18.7211 46.5295C13.1998 41.7559 9.68713 32.5731 10.1108 24.0201C10.469 16.7877 12.9959 10.1481 16.8799 6.2336C20.558 2.52657 24.9662 0.986729 27.8545 2.40001C29.9073 3.40411 31.1957 5.37071 31.2067 7.51622C31.21 8.16075 30.9766 10.2262 30.6877 12.1061C30.019 16.4598 29.9998 18.0588 30.6053 18.9572C31.2604 19.9295 32.0905 20.4016 33.9758 20.8744C39.3006 22.21 42.9104 26.082 43.6594 31.2617C43.8762 32.7617 43.8471 33.4654 43.3774 38.0961C42.319 48.5293 42.3086 49.4082 43.1658 56.21C43.7897 61.16 43.8725 61.4938 44.6533 62.2112L45.2992 62.8043L50.1951 62.7936C55.6391 62.7817 55.8989 62.726 56.4291 61.4561C56.5713 61.1153 56.9336 59.0348 57.2342 56.8326C57.9846 51.3358 57.9879 46.2799 57.2457 39.4498C56.4387 32.0235 56.5445 30.384 58.0258 27.3508C58.5504 26.2766 59.1496 25.4797 60.3178 24.3033C62.1742 22.4332 63.8219 21.5258 66.682 20.7981C68.659 20.2951 69.2733 19.9473 69.9561 18.944C70.5567 18.0617 70.536 16.4492 69.869 12.1061C69.5801 10.2262 69.3467 8.16075 69.35 7.51622C69.361 5.37071 70.6494 3.40411 72.7022 2.40001C74.7879 1.3795 77.3828 1.81681 80.6156 3.7336C85.8766 6.85294 89.559 14.0617 90.3442 22.7777C91.101 31.1797 88.077 40.3393 82.8061 45.6104C80.1856 48.2309 75.7172 50.8246 73.3403 51.1051C70.811 51.4037 68.6074 49.4912 68.6037 46.9942C68.6028 46.4434 68.9129 43.8834 69.293 41.3053C70.4416 33.5113 71.0262 26.8252 70.7074 25.1266C70.5186 24.1203 69.3572 22.951 68.2512 22.6537C67.5186 22.4567 67.1852 22.4717 66.201 22.7451C63.3569 23.536 60.8678 25.5727 59.6008 28.1459C58.2877 30.8133 58.224 32.0135 59.0082 39.3242C59.4254 43.2139 59.5363 45.2096 59.5414 48.9225C59.5473 53.2051 59.4934 53.9824 58.917 57.9207C58.5701 60.2916 58.2867 62.5328 58.2875 62.9012C58.2893 63.8604 58.8155 64.5322 60.3539 65.5393C66.7776 69.7444 68.2817 76.9928 63.9281 82.7629C62.9666 84.0371 60.9832 85.6914 59.4143 86.5278C56.9205 87.8569 55.7518 89.5053 55.7498 91.6959C55.7492 92.3405 55.9252 94.3619 56.1407 96.1881C56.5524 99.6778 56.6746 99.9967 57.6008 99.9967C58.6035 99.9967 58.6553 99.4727 58.1071 94.8713C57.5801 90.4487 57.8028 89.8006 60.3369 88.3823C63.3274 86.7084 65.7129 84.3043 67.0711 81.5957C69.0514 77.6469 68.8893 72.7955 66.6496 68.9742C65.8504 67.6108 63.0696 64.7823 61.5576 63.7951C60.2219 62.9229 60.2625 63.2492 60.9094 58.5905C62.0186 50.5996 62.0332 48.0813 61.0262 38.5051C60.3492 32.0682 60.3803 31.3233 61.4149 29.1811C62.4524 27.0332 65.1516 24.9436 67.2526 24.6617C67.8879 24.5766 68.049 24.6387 68.4217 25.1123C68.8252 25.6254 68.8461 25.7979 68.7381 27.7219C68.5029 31.9051 68.2096 34.6149 67.3305 40.7194C66.5383 46.2194 66.4565 47.0938 66.6473 48.0065C67.1162 50.2485 68.299 51.7383 70.3721 52.6983C72.4473 53.6592 74.7106 53.3242 78.2656 51.5303C82.7791 49.2528 86.6838 45.1819 89.1975 40.1334C91.4449 35.6195 92.4553 31.0934 92.4623 25.51C92.4703 18.9108 90.708 12.5469 87.468 7.47696C85.7471 4.784 82.3129 1.97638 79.1426 0.670322C77.6098 0.0390722 77.3998 0.00372073 75.1631 0.000205104C72.9246 -0.00311521 72.7405 0.0273535 71.625 0.584775C70.1617 1.31583 68.5924 2.942 67.9086 4.43575C67.2383 5.90001 67.1145 7.89864 67.5397 10.3932C68.0733 13.5238 68.4229 17.2102 68.2334 17.7084C68.0248 18.2572 67.6742 18.418 65.5217 18.9518C59.5811 20.4252 55.3916 25.1647 54.5635 31.3486C54.3852 32.6795 54.4281 33.6205 54.8489 37.5986C55.6586 45.2563 55.8063 47.4274 55.6926 49.9969C55.5434 53.3686 54.6043 60.3875 54.2662 60.6586C54.0834 60.8051 53.6194 60.8154 52.7744 60.6922C51.5094 60.5074 47.1051 60.6047 46.5438 60.8297C45.9039 61.0862 45.6688 60.4389 45.224 57.1963C44.2629 50.1903 44.2744 47.9086 45.3194 38.3057C45.8766 33.186 45.8563 31.2194 45.2239 29.0551C44.4641 26.4541 43.0877 24.2328 41.0903 22.3834C39.0651 20.5086 37.2819 19.6305 33.3342 18.5643C31.9647 18.1943 31.8707 17.8885 32.2164 14.9256C32.3787 13.5359 32.6418 11.5869 32.8012 10.5945C32.9604 9.60196 33.0908 8.27755 33.0908 7.65138C33.0908 4.58732 31.3651 1.90646 28.5293 0.564854C27.4287 0.0441504 27.151 -0.00272458 25.1807 0.000400416C23.1862 0.00352542 22.9164 0.0515723 21.4141 0.670322ZM31.7035 69.6328C33.5819 70.0758 35.5395 71.1912 36.999 72.651C43.2994 78.9514 40.2662 89.5231 31.5283 91.7178C29.9145 92.1233 27.2539 91.9951 25.4596 91.4256C22.2321 90.401 19.4625 87.6596 18.3098 84.3485C16.1289 78.0834 19.7512 71.3963 26.2762 69.6414C27.6604 69.2692 30.144 69.2653 31.7035 69.6328ZM46.8071 70.3959C44.9115 71.0098 44.419 71.3504 44.419 72.0477C44.419 73.1694 45.0483 73.259 47.251 72.4516C48.9041 71.8457 51.6586 71.833 53.3483 72.4237C54.8371 72.9442 55.0108 72.9477 55.4471 72.4655C55.9768 71.8801 55.699 71.133 54.8123 70.7576C52.4846 69.7723 49.1924 69.6237 46.8071 70.3959ZM26.4893 74.2545C26.3446 74.3992 26.2549 75.1096 26.2549 76.11V77.7311H24.6924C22.4615 77.7311 22.3487 77.8715 22.3487 80.6469C22.3487 83.359 22.3783 83.3951 24.6086 83.3951H26.2549V85.0414C26.2549 87.2717 26.291 87.3014 29.0031 87.3014C31.7785 87.3014 31.919 87.1885 31.919 84.9576V83.3951H33.5401C34.5405 83.3951 35.2508 83.3055 35.3955 83.1608C35.551 83.0053 35.6299 82.1592 35.6299 80.6455C35.6299 77.8801 35.6127 77.8574 33.4516 77.7594L31.919 77.6897V76.2891C31.919 74.1024 31.8139 74.0201 29.0172 74.0201C27.4938 74.0201 26.6449 74.0989 26.4893 74.2545ZM29.7705 77.5692C29.7705 79.7403 29.9086 79.8795 32.0586 79.8795H33.7004L33.6397 80.6119L33.5791 81.3444L31.919 81.3987C29.8643 81.466 29.7705 81.5631 29.7705 83.6278V85.153H28.9893H28.208V83.5319C28.208 82.5315 28.1184 81.8211 27.9737 81.6764C27.8289 81.5317 27.1186 81.442 26.1182 81.442H24.4971V80.6608V79.8795H25.9748C28.1303 79.8795 28.208 79.809 28.208 77.8543C28.208 76.9631 28.2666 76.175 28.3383 76.1035C28.4098 76.0319 28.7614 75.9733 29.1196 75.9733H29.7705V77.5692ZM51.3705 94.3815C51.1231 94.7643 51.1219 95.1227 51.3619 97.1643C51.569 98.9268 51.7201 99.5682 51.9717 99.7522C52.433 100.089 52.9235 100.058 53.3154 99.666C53.5979 99.3836 53.6266 99.0922 53.5114 97.6723C53.3281 95.4143 53.1051 94.3158 52.7893 94.1158C52.3106 93.8123 51.6596 93.9344 51.3705 94.3815Z" fill="black"/>
</svg>
