<svg width="100" height="100" viewBox="0 0 100 100" fill="none" xmlns="http://www.w3.org/2000/svg">
<path fill-rule="evenodd" clip-rule="evenodd" d="M46.8077 0.215194C42.3509 0.606909 36.8713 1.79515 32.9549 3.21893C19.2437 8.20347 10.4502 17.6207 7.94348 30.0034C7.28189 33.271 7.27948 39.4398 7.93787 43.229C8.1906 44.6827 8.41608 46.6026 8.43893 47.4954C8.51248 50.3558 7.56709 52.4107 2.90164 59.5306C0.508391 63.1832 -0.122139 64.5598 0.0185576 65.825C0.192725 67.3887 0.938299 68.2791 3.52877 70.0176C8.22047 73.166 8.50206 73.8214 8.78486 82.2574C9.02316 89.363 9.41599 90.8798 11.6132 93.1801C13.8261 95.4967 18.3112 96.6736 23.7128 96.3549C24.9253 96.2835 27.0055 96.2249 28.3353 96.2249C31.8421 96.2251 33.4018 96.8998 34.7166 98.9852C35.3191 99.9409 35.6161 100.116 36.334 99.9373C38.6743 99.3557 35.7999 95.3465 32.2562 94.2493C31.0825 93.886 30.5199 93.8455 27.4206 93.9012C18.1244 94.0685 15.7668 93.7046 13.6024 91.7686C11.7359 90.099 11.4078 88.78 11.1869 82.0589C10.9977 76.3052 10.7676 74.7021 9.86955 72.8848C9.08269 71.2923 7.56649 69.804 5.08545 68.1888C2.35549 66.4114 2.0783 65.9814 2.70964 64.5018C2.93291 63.9785 4.10598 62.0446 5.31654 60.2041C10.3351 52.5736 11.1851 50.3949 10.7813 46.1982C10.6767 45.1104 10.4333 43.4024 10.2403 42.4029C9.69959 39.5994 9.75651 32.9454 10.3444 30.2462C11.5697 24.6208 14.0438 19.8039 17.8712 15.5913C25.6591 7.01999 39.4255 1.96759 53.676 2.45078C77.9755 3.27469 95.0994 17.0351 97.3566 37.5517C97.655 40.2635 97.6133 46.152 97.2782 48.6223C96.239 56.2831 93.4421 63.5313 87.2525 74.6028C84.4017 79.7025 83.629 81.2751 82.7752 83.7157L82.0359 85.8292V90.9886C82.0359 97.0558 82.2056 99.0941 82.7562 99.6392C83.2508 100.129 83.8367 100.12 84.3473 99.614C84.7237 99.2414 84.743 99.0705 84.5979 97.3816C84.5117 96.3755 84.4409 93.4542 84.4409 90.8894C84.4409 86.5474 84.4728 86.1304 84.9047 84.837C85.508 83.0305 87.1615 79.6171 88.9396 76.5078C95.4273 65.1628 98.7325 56.5731 99.7833 48.3246C100.074 46.0434 100.072 40.2072 99.7791 37.5098C98.4012 24.8093 91.7478 14.2925 80.8636 7.61014C71.7103 1.99061 58.7134 -0.831759 46.8077 0.215194ZM49.0785 5.16858C47.3956 5.40154 45.2544 6.05122 43.7705 6.77909C42.6391 7.33392 42.5309 7.35039 41.4656 7.13013C40.8509 7.00313 39.4911 6.90411 38.4439 6.91026C34.42 6.93407 31.5178 8.0221 29.0901 10.417C27.6952 11.7934 27.6074 11.8446 26.0838 12.17C22.3134 12.9759 19.2704 15.4879 18.0951 18.7649C17.8111 19.5562 17.5331 19.9031 16.7591 20.4314C12.067 23.6343 10.1546 30.2125 12.4941 35.103C13.7858 37.8033 16.8336 40.2562 20.034 41.1712C20.9852 41.443 21.2077 41.5962 21.4295 42.1316C21.8388 43.1186 23.3905 44.6371 24.6115 45.2455C25.6647 45.7704 27.2182 46.1857 28.5229 46.2915C29.0961 46.3381 29.1298 46.3915 29.2432 47.436C29.7531 52.1303 33.0354 54.7738 38.3537 54.7738C40.7004 54.7738 42.8447 54.248 45.0578 53.1296L46.7614 52.2686L47.8892 52.7176C48.8941 53.1177 51.0146 53.5935 53.1012 53.8868C53.7472 53.9777 53.9141 54.1335 54.5859 55.2707C55.2742 56.4359 56.2763 57.4843 59.3804 60.2858C60.0418 60.8827 60.5481 61.6187 61.0868 62.7663C62.569 65.9234 63.8196 67.0126 65.7517 66.8289C67.327 66.6791 68.4177 65.6432 68.7272 64.0027C68.9709 62.7113 68.5346 60.7702 67.5168 58.6201C67.0695 57.675 66.7035 56.8759 66.7035 56.8445C66.7035 56.813 67.1927 56.5655 67.7908 56.2945C68.3889 56.0234 69.286 55.4295 69.7844 54.9745L70.6905 54.1476L72.3548 54.5458C74.7777 55.1255 76.7403 55.2372 78.6425 54.9036C80.5702 54.5657 81.6929 54.038 82.4694 53.1054C82.9562 52.5208 83.2598 52.3728 84.4961 52.1176C86.553 51.6929 88.1153 50.8011 89.6804 49.1585C91.2327 47.5293 92.0775 45.8942 92.4426 43.812C92.5966 42.9349 92.909 42.0282 93.2325 41.521C94.3529 39.7639 94.6383 38.7566 94.6509 36.5176C94.6615 34.6122 94.6142 34.3408 94.0989 33.3426C93.7889 32.7424 93.2702 31.9216 92.9465 31.5188C92.4522 30.9039 92.3576 30.6066 92.3576 29.6686C92.3576 28.3401 91.582 25.8973 90.7519 24.6114C90.0824 23.5746 89.1296 22.6332 88.1838 22.0744C87.6349 21.75 87.4204 21.4035 86.9677 20.1087C86.0399 17.4558 84.5115 15.5544 82.0573 14C80.5852 13.0678 78.1529 12.2873 76.3238 12.1603C74.891 12.0607 74.7932 12.0224 74.2324 11.3388C72.7549 9.53716 70.4003 8.07786 67.9774 7.46191C66.4081 7.06305 63.5997 7.06028 62.0571 7.45596L60.8604 7.76314L58.8215 6.77631C57.7001 6.23379 56.1835 5.64741 55.4512 5.47318C53.7868 5.07769 50.7751 4.93363 49.0785 5.16858ZM54.1771 7.64328C56.2671 8.01099 58.9704 9.33972 60.6227 10.8117C61.9587 12.0018 62.464 12.1403 63.1155 11.4951C63.5278 11.087 63.546 10.6941 63.1915 9.85447C63.0432 9.50323 63.1476 9.48894 65.2202 9.57348C66.839 9.63956 67.7022 9.77727 68.5524 10.1049C69.6788 10.5391 72.1149 12.154 72.1149 12.4665C72.1149 12.554 71.8219 12.7318 71.4635 12.8618C70.4141 13.2426 69.6597 13.949 69.6597 14.5511C69.6597 15.7796 70.5464 15.9854 72.2608 15.1549C73.5682 14.5215 75.6674 14.328 77.3903 14.6822C78.026 14.8128 79.2564 15.2718 80.1246 15.702C81.9523 16.6077 83.524 18.1509 84.2802 19.7825C84.8476 21.0064 85.3346 23.1581 85.3394 24.4626C85.346 26.2618 86.9869 26.894 87.6427 25.35L87.8936 24.7589L88.5432 25.6937C89.8864 27.6267 90.3452 30.4098 89.6243 32.2512C89.0893 33.6173 89.0713 34.0576 89.5319 34.5136C90.0967 35.0728 90.6723 35.0383 91.2605 34.4098L91.7476 33.8893L91.9965 34.4595C92.3312 35.2264 92.3256 38.0444 91.9877 38.8372C91.7608 39.3694 91.6493 39.4444 91.2862 39.3089C90.1636 38.8903 89.403 39.8934 89.9005 41.1363C90.904 43.6419 88.8106 47.669 85.706 49.2049C84.1014 49.9988 83.1011 50.1203 81.4803 49.7177C80.4794 49.4692 80.0563 49.4422 79.7456 49.6067C78.9012 50.0542 79.0458 51.4197 79.9681 51.7096L80.406 51.8471L79.9124 52.1033C79.0674 52.5416 76.9022 52.8327 75.5221 52.6938C72.4047 52.3797 69.9614 51.4449 68.7161 50.0899C68.0371 49.3511 67.4344 49.2384 66.8697 49.7445C66.2233 50.3237 66.4067 51.117 67.4188 52.119C68.2794 52.9712 68.3147 53.0472 68.0058 53.3854C67.507 53.9309 65.798 54.599 65.3448 54.4258C65.132 54.3442 64.5718 53.8313 64.0998 53.2856C63.6278 52.7399 63.1163 52.2208 62.9632 52.1319C62.4399 51.8282 61.6168 52.0749 61.3041 52.6289C61.0191 53.1338 61.0351 53.2048 61.5983 53.9378C61.926 54.3641 62.6674 55.3293 63.246 56.0827C64.5586 57.7919 66.0026 60.6638 66.3021 62.1609C66.5694 63.4961 66.2886 64.357 65.5523 64.4611C64.9045 64.5526 64.2255 63.7257 63.2009 61.5981C62.5129 60.1691 62.0627 59.5304 61.164 58.7075C60.5295 58.1264 59.474 57.16 58.8185 56.5598C57.6821 55.5192 56.4819 54.088 56.4819 53.7733C56.4819 53.6926 56.6928 53.5739 56.9505 53.5098C58.3763 53.1556 58.9872 51.7346 57.9913 51.0885C57.5323 50.7908 57.4271 50.794 56.5382 51.1325C55.3341 51.5911 52.9425 51.5885 50.8571 51.1264C48.7328 50.6555 48.6783 50.6005 49.4182 49.6758C50.2233 48.6691 50.7562 47.5446 50.6087 47.1636C50.4221 46.6822 49.6006 46.2436 49.119 46.3682C48.8773 46.431 48.3971 46.9179 48.0519 47.4505C46.1353 50.4078 42.2339 52.3926 38.3378 52.3926C34.1686 52.3926 31.8762 50.5471 31.6702 47.0253C31.5994 45.8148 31.6609 45.335 31.9776 44.6262C33.7826 40.586 39.9717 38.7383 46.0864 40.4145C47.3881 40.7713 47.979 40.5939 48.184 39.7847C48.3981 38.9406 47.8439 38.3966 46.4047 38.0389C40.602 36.5956 34.987 37.7116 31.7243 40.9565C31.0515 41.6256 30.3265 42.5591 30.1133 43.0305L29.7255 43.8882L28.3225 43.807C26.747 43.7157 25.4332 43.2101 24.5179 42.3428L23.9198 41.7762L24.4177 41.7086C25.13 41.6117 25.6168 41.1075 25.6168 40.4669C25.6168 39.6323 24.9726 39.2958 23.3753 39.2958C20.7886 39.2958 17.8518 37.9914 16.0285 36.0329C13.2523 33.0511 13.187 28.272 15.873 24.666C17.4299 22.5761 19.3257 21.3323 21.7085 20.8378C23.4875 20.4687 24.1106 19.5483 23.1953 18.642C22.8365 18.2868 22.6349 18.2481 21.7622 18.367L20.7467 18.5053L21.1644 17.9245C22.1641 16.5344 23.743 15.3734 25.4392 14.7809L26.2181 14.5088V15.0811C26.2181 16.0261 26.9807 16.5079 27.9146 16.1531C28.0942 16.0848 28.5023 15.4583 28.8217 14.7608C29.8559 12.5026 32.3109 10.4192 34.736 9.74175C36.6473 9.20776 40.7072 9.09346 39.8969 9.5965C39.4764 9.85764 39.5983 10.8633 40.0919 11.2056C40.7361 11.6525 40.8972 11.6077 42.0831 10.6512C43.5432 9.47367 45.0893 8.64856 46.7614 8.15406C49.4693 7.35337 51.6676 7.20196 54.1771 7.64328ZM46.38 14.2784C43.3963 15.2543 41.0568 17.8435 42.1659 18.9419C42.7568 19.5267 43.4498 19.3203 44.4854 18.2509C45.8928 16.7976 47.2905 16.214 49.1306 16.3112C50.3125 16.3737 50.8344 16.5221 52.0538 17.1417L53.5381 17.8959L54.058 17.5131C54.7082 17.0343 54.8212 16.3688 54.3434 15.8334C54.1418 15.6072 53.3016 15.1111 52.4765 14.7307C50.5404 13.8383 48.2461 13.668 46.38 14.2784ZM65.813 17.3135C65.3703 17.939 65.4166 18.1807 66.1523 19.0871C66.7169 19.7829 66.8037 20.041 66.8037 21.0259C66.8037 21.9593 66.7055 22.2893 66.2525 22.8773C65.9495 23.2708 65.7014 23.8082 65.7014 24.0713C65.7014 24.6541 66.2754 25.2067 66.8809 25.2067C67.4479 25.2067 68.3977 24.185 68.8554 23.0825C69.0499 22.6146 69.308 22.2314 69.4293 22.231C69.6974 22.23 71.0827 23.217 71.5561 23.7462C72.0706 24.3215 72.5158 25.5022 72.5158 26.2918C72.5158 27.5729 73.8253 28.2591 74.6172 27.3927C74.911 27.0714 74.9569 26.7778 74.8667 25.7941C74.7252 24.2499 73.9602 22.6999 72.8304 21.6688C71.9253 20.8429 70.1662 19.8489 69.6092 19.8489C69.4295 19.8489 69.1362 19.4828 68.925 18.9951C68.1303 17.1593 66.5327 16.2961 65.813 17.3135ZM34.6759 17.3089C34.0951 17.884 34.5184 18.9064 35.3373 18.9064C35.9322 18.9064 36.2314 18.5895 36.2362 17.9539C36.24 17.4322 35.8722 17.0708 35.3373 17.0708C35.1058 17.0708 34.8082 17.178 34.6759 17.3089ZM79.6809 20.2617C79.173 20.5546 79.2211 21.563 79.7563 21.8468C80.4255 22.2014 81.134 21.792 81.134 21.0509C81.134 20.2242 80.4192 19.836 79.6809 20.2617ZM27.151 22.1962C26.7007 22.689 26.7341 23.3404 27.2468 24.0532C27.9395 25.0162 27.9712 26.2088 27.3326 27.2873C26.6706 28.4057 26.7127 29.1477 27.4615 29.562C27.9605 29.8381 28.0479 29.8297 28.5638 29.4575C28.8721 29.235 29.399 28.5224 29.7349 27.8739C30.3193 26.7454 30.4005 26.6758 31.6389 26.2436C34.1117 25.3804 36.4486 25.8546 38.3893 27.6138C39.3387 28.4742 39.859 28.5681 40.4481 27.9849C41.0451 27.3937 40.9405 26.8837 40.019 25.8937C38.7687 24.5509 36.7022 23.6119 34.713 23.4827C33.2587 23.3885 31.4958 23.6427 30.3869 24.1068C30.1273 24.2153 29.9786 24.0917 29.7621 23.5871C29.1084 22.0631 27.8737 21.4055 27.151 22.1962ZM54.9186 23.0636C54.3564 23.6202 54.7799 24.6114 55.58 24.6114C56.1172 24.6114 56.4819 24.2503 56.4819 23.7185C56.4819 23.1866 56.1172 22.8255 55.58 22.8255C55.3485 22.8255 55.0509 22.9326 54.9186 23.0636ZM79.0744 28.2329C78.0929 28.9653 77.822 31.725 78.5439 33.6353C79.0165 34.8863 78.9546 35.4812 78.1964 36.9709C76.71 39.8909 73.1842 41.4073 70.5202 40.2727C69.3154 39.7595 68.4983 39.8268 68.1784 40.4655C67.8161 41.189 68.1317 41.7163 69.3072 42.3505C72.9112 44.295 78.3419 42.1249 80.3619 37.9331C80.8449 36.931 81.1183 36.5686 81.3344 36.6442C81.4997 36.702 82.192 36.8869 82.8726 37.0552C84.8328 37.5396 85.9942 37.155 85.9942 36.0215C85.9942 35.2617 85.5914 34.9303 84.667 34.929C82.9279 34.9268 81.4729 34.1701 80.8261 32.9321C80.4708 32.2514 80.4465 30.7961 80.7728 29.718C81.0013 28.9629 80.9862 28.9022 80.4609 28.4548C79.8362 27.9227 79.551 27.8771 79.0744 28.2329ZM19.0429 28.6199C18.4697 29.1874 18.9068 30.1677 19.733 30.1677C20.5701 30.1677 20.9932 28.9899 20.3202 28.5335C19.9891 28.3091 19.3105 28.3549 19.0429 28.6199ZM47.1765 30.281C47.0033 30.4526 46.8616 30.7588 46.8616 30.9614C46.8616 31.3553 47.3615 31.9536 47.6908 31.9536C48.2271 31.9536 48.6654 31.5075 48.6654 30.9614C48.6654 30.0895 47.7792 29.6845 47.1765 30.281ZM66.6534 30.5804C66.1674 30.8606 66.1914 31.8808 66.6903 32.1451C66.9035 32.258 67.1677 32.3505 67.2773 32.3505C67.6066 32.3505 68.1065 31.7522 68.1065 31.3583C68.1065 30.9424 67.5976 30.3629 67.2404 30.372C67.1104 30.3754 66.8462 30.4691 66.6534 30.5804ZM28.8236 34.5333C28.3259 35.026 28.3165 35.3689 28.7893 35.7924C29.2657 36.2192 29.6836 36.2081 30.0952 35.7578C30.5498 35.2605 30.5111 34.8125 29.9814 34.4454C29.4082 34.0477 29.3062 34.0554 28.8236 34.5333ZM56.154 36.7516C55.9185 36.8635 55.6273 37.1693 55.5067 37.4312C54.9737 38.5893 53.0775 39.1239 51.3792 38.5951C50.0361 38.1768 49.3214 38.3163 49.14 39.0318C48.9627 39.7315 49.2224 40.1026 50.2566 40.6269C51.4226 41.2178 52.6007 41.3645 53.9508 41.087C55.8492 40.6967 57.8849 39.0043 57.8849 37.816C57.8849 36.93 56.967 36.3656 56.154 36.7516ZM59.8755 42.2973C59.5173 42.9599 59.9308 43.6614 60.6794 43.6614C61.5713 43.6614 61.9849 42.7882 61.3781 42.1872C60.9251 41.7389 60.1467 41.7959 59.8755 42.2973ZM80.5728 45.0901C80.0106 45.6467 80.4341 46.6379 81.2342 46.6379C81.7713 46.6379 82.1361 46.2768 82.1361 45.745C82.1361 45.2131 81.7713 44.852 81.2342 44.852C81.0027 44.852 80.7051 44.9591 80.5728 45.0901ZM38.8407 45.6533C38.5599 46.1728 38.7565 46.782 39.2558 46.9388C40.1825 47.2301 40.8922 46.4675 40.4521 45.6533C40.1553 45.1038 39.1375 45.1038 38.8407 45.6533ZM13.3218 50.1759C12.7659 50.7841 12.9306 51.3617 13.9722 52.4541L14.9543 53.484L13.9722 54.5397C12.9204 55.6702 12.8122 56.0214 13.3022 56.714C13.8291 57.4589 14.5763 57.2882 15.6902 56.1687L16.6715 55.1822L17.7249 56.1687C18.9319 57.2987 19.7566 57.474 20.2942 56.714C20.7655 56.0476 20.692 55.8321 19.6041 54.6933C19.0529 54.1162 18.602 53.5721 18.602 53.484C18.602 53.3959 19.0529 52.8518 19.6041 52.2747C20.692 51.1359 20.7655 50.9204 20.2942 50.254C19.7566 49.494 18.9319 49.6692 17.7249 50.7993L16.6715 51.7858L15.6902 50.7993C14.619 49.7226 13.9073 49.5353 13.3218 50.1759ZM12.5893 75.5438C12.1423 75.7097 11.7876 76.2249 11.7876 76.7083C11.7876 77.5111 12.348 77.7385 14.6937 77.8878C16.6753 78.014 17.496 78.1261 19.2337 78.5083C20.305 78.7438 21.0538 77.2629 20.2344 76.5287C20.03 76.3455 19.2409 76.0725 18.4807 75.9221C16.9503 75.6188 13.0601 75.3692 12.5893 75.5438Z" fill="black"/>
</svg>
