<svg width="100" height="100" viewBox="0 0 100 100" fill="none" xmlns="http://www.w3.org/2000/svg">
<path fill-rule="evenodd" clip-rule="evenodd" d="M45.4402 4.2639C44.2949 4.67317 43.3594 5.33234 42.4521 6.36942L41.6049 7.33786L40.8223 6.95068C37.0207 5.071 32.4629 7.1708 31.3903 11.2958C31.1671 12.154 31.0349 12.3641 30.7422 12.3246C29.5836 12.1686 27.5047 12.2862 26.773 12.5493C25.5536 12.9876 24.225 13.9633 23.6361 14.8534C23.3538 15.2799 23.0988 15.6286 23.0688 15.6286C23.0391 15.6286 22.5556 15.3903 21.9945 15.0994C20.5465 14.3481 18.2162 14.2315 16.6268 14.8312C14.2363 15.7329 12.5576 17.9816 12.3755 20.526L12.2803 21.858L11.2684 22.098C9.45483 22.5282 7.6712 24.085 6.81637 25.9836C6.66982 26.3091 6.49645 27.1436 6.43077 27.8381L6.31164 29.1006L5.12821 29.4288C3.53905 29.8694 2.79606 30.2846 1.83333 31.2702C0.52643 32.6079 0 33.9501 0 35.9442C0 37.8953 0.513609 39.2556 1.74181 40.5576C2.13984 40.9795 2.46548 41.3856 2.46548 41.4601C2.46548 41.5345 2.25247 41.7955 1.99231 42.0398C1.12308 42.8564 0.447732 44.7067 0.446154 46.2759C0.442209 49.858 2.9854 52.6578 6.58461 53.0341C7.76174 53.157 7.8215 53.1901 8.10592 53.8726C8.48363 54.7793 9.63767 55.9771 10.6509 56.514C11.2217 56.8164 11.8079 56.9345 12.7712 56.941L14.1028 56.9501L14.414 58.0349C14.8576 59.581 15.5176 60.6195 16.7596 61.7264C18.8166 63.5597 22.2517 64.888 26.5164 65.4988C28.7546 65.8195 28.9341 65.8751 28.5645 66.1339C28.3418 66.2899 26.3396 68.0343 24.1154 70.0104C19.8513 73.7988 19.4373 74.3114 19.2734 76.0098C19.04 78.4244 20.9706 80.5047 23.455 80.5158C24.2988 80.5195 25.3418 80.0945 31.4886 77.2414C35.3736 75.4381 38.6501 73.8446 38.7698 73.7006C38.8893 73.5564 38.9576 73.2883 38.9217 73.1049C38.7387 72.1745 38.4079 72.283 31.1412 75.6582C26.3576 77.8801 23.8469 78.9453 23.3961 78.944C21.6604 78.9392 20.3578 76.9982 20.9842 75.3503C21.2698 74.5992 24.1961 71.9266 33.0063 64.3706C35.2655 62.4331 35.6148 62.0558 35.5629 61.6093C35.5183 61.2239 35.3767 61.0773 35.0077 61.0343C34.6306 60.9901 34.0692 61.3546 32.6531 62.5629L30.7935 64.1493H29.371C25.912 64.1493 21.1136 62.8623 18.7755 61.3073C16.1462 59.5586 15.1288 56.8432 15.9927 53.8795C16.357 52.63 17.589 50.2582 18.5627 48.9315L19.244 48.0035L20.3714 48.5235C23.3055 49.8765 26.6659 48.6639 28.1097 45.731C28.5939 44.7475 28.7095 44.2836 28.6609 43.5191C28.6067 42.6637 28.5438 42.5438 28.1176 42.4836C27.5087 42.3976 27.1203 42.9035 27.1203 43.7826C27.1203 45.256 25.6424 47.0319 24.0252 47.5022C21.3176 48.2893 18.4631 46.213 18.4398 43.4392C18.4327 42.5732 18.1712 42.3964 16.8276 42.3485C15.0988 42.287 13.7219 41.6609 12.6193 40.4347C10.6686 38.2651 10.6686 35.2012 12.6193 33.0315C14.4018 31.0493 17.0893 30.5489 19.4408 31.7615C20.8669 32.497 21.1168 32.5294 21.3927 32.0136C21.6819 31.4734 21.5116 31.1826 20.5598 30.5923C17.9586 28.9787 14.687 29.2108 12.1769 31.1872C10.7162 32.3373 9.56607 34.799 9.56607 36.7751C9.56607 38.684 10.8394 41.3266 12.2657 42.3777C13.2509 43.1035 14.3738 43.5937 15.5503 43.8112C16.9026 44.0611 17.0611 44.1434 17.0611 44.5956C17.0611 44.7848 17.2836 45.3864 17.5558 45.9321L18.0503 46.9246L16.9339 48.5844C15.6262 50.5284 14.8032 52.2511 14.3686 53.9528C14.1972 54.625 13.9562 55.2402 13.8331 55.3199C13.4148 55.5909 12.117 55.472 11.3826 55.0954C10.5089 54.6475 9.86312 53.9883 9.58915 53.2651C9.39882 52.7629 9.44221 52.7057 10.4416 52.1416C12.1846 51.158 13.3024 49.5233 13.7132 47.3566C13.9513 46.1018 13.7107 45.5592 12.9552 45.6463C12.4732 45.702 12.4036 45.8211 12.174 46.9814C11.7162 49.2966 10.3913 50.7872 8.28698 51.3548C6.4288 51.8562 4.04655 50.9402 2.92623 49.2937C1.36726 47.0024 1.74911 44.2205 3.87396 42.3907C4.96686 41.4495 5.06233 41.0266 4.28994 40.5483C2.65365 39.5349 1.71045 38.1276 1.53629 36.439C1.2572 33.7361 3.35108 31.1613 6.04497 30.8951C8.11637 30.6903 7.98166 30.8252 7.94596 28.9891C7.9215 27.7321 8.00473 27.1629 8.31381 26.4745C9.09053 24.7442 10.6156 23.6759 12.7458 23.3698L13.8067 23.2173L13.8475 21.5383C13.8712 20.5635 14.0158 19.5544 14.1923 19.1319C14.9821 17.2416 16.8558 16.0284 18.9905 16.025C20.4219 16.0227 21.244 16.3164 22.2298 17.1818C23.2793 18.1033 23.6325 18.0075 24.3846 16.5964C25.0643 15.3211 25.7667 14.6657 27.0323 14.1246C28.1073 13.6653 29.9489 13.6992 31.0795 14.1994C32.2799 14.7304 32.643 14.5308 32.643 13.3392C32.643 12.0073 32.9866 10.898 33.7057 9.90867C35.1276 7.95265 37.9296 7.25206 40.0181 8.33076L40.973 8.82386L41.0099 10.4018C41.0562 12.3791 41.4738 13.459 42.1921 13.459C42.9105 13.459 43.1339 12.9077 42.798 11.9647C41.9534 9.59407 43.1195 7.05108 45.5621 5.93766C46.5418 5.49112 48.5 5.45719 49.4872 5.86981C50.3639 6.23609 51.6988 7.4136 52.0858 8.16212C52.2426 8.46547 52.5473 8.80788 52.7629 8.92327C53.0992 9.10334 53.2915 8.9923 54.1148 8.14259C55.341 6.87691 56.4503 6.36784 57.9882 6.36469C60.1673 6.36015 62.3296 7.88934 62.8479 9.80117C62.9669 10.24 63.1272 10.8209 63.2043 11.0921C63.397 11.77 64.0527 11.8172 64.8487 11.21C66.2584 10.1349 68.0329 9.81991 69.7619 10.3379C70.727 10.627 72.1826 11.8876 72.6822 12.8669C72.8901 13.2743 73.2191 13.6688 73.4136 13.7436C73.7832 13.8858 73.8562 13.8146 75.1093 12.0868C75.9793 10.8872 77.4919 10.1059 78.9444 10.1059C80.6112 10.1059 81.5329 10.4704 82.6753 11.5811C83.4834 12.3669 83.7633 12.8124 84.0302 13.7385C84.5953 15.6982 84.1327 17.5663 82.7598 18.8706C82.4243 19.1891 82.1499 19.5931 82.1499 19.768C82.1499 20.1828 82.5355 20.5596 82.96 20.5596C83.5008 20.5596 85.0458 18.6807 85.4122 17.5773C85.7438 16.5791 85.7438 16.5791 86.4525 16.712C89.4533 17.2749 91.2298 20.2878 90.397 23.4014C90.1114 24.4696 90.3682 24.8978 91.2963 24.9008C92.2588 24.9037 93.8341 25.7456 94.6406 26.6878C95.3724 27.5426 95.9566 29.031 95.9566 30.0402C95.9566 31.0935 95.2974 32.6235 94.4262 33.5925C93.927 34.1475 93.5878 34.7043 93.6264 34.9051C93.6631 35.097 94.1134 35.4811 94.627 35.7588C98.0083 37.5868 98.6456 41.3349 96.0617 44.1951C95.528 44.7858 95.3675 45.1089 95.4609 45.4037C95.5312 45.625 95.6757 45.8061 95.782 45.8061C95.8884 45.8061 96.4022 46.2329 96.9239 46.7544C99.0747 48.9055 99.0166 52.1136 96.7901 54.125C96.1118 54.7379 94.2529 55.6625 94.1264 55.4499C94.101 55.4071 93.7402 54.6621 93.3247 53.7943C89.3964 45.5919 81.6065 39.7383 72.5935 38.2162C70.0278 37.7828 65.8696 37.7828 63.3039 38.2162C57.4513 39.2045 52.3487 41.8505 48.1199 46.0901C43.9262 50.2945 41.3519 55.1219 40.2087 60.9252C39.7239 63.3864 39.7302 68.5189 40.2211 71.0526C41.3448 76.8503 43.9485 81.7907 48.0187 85.8477C53.4416 91.2528 60.3643 94.1296 67.9487 94.1296C70.8314 94.1296 74.0899 93.6416 76.5286 92.8449C78.3606 92.2463 81.4312 90.8284 82.8057 89.9463L83.7604 89.3339L87.2471 92.8165C89.5675 95.1343 90.8736 96.2992 91.1515 96.2992C91.686 96.2992 92.0773 95.83 91.9298 95.3655C91.7929 94.9341 84.2876 87.4235 83.9935 87.4235C83.8811 87.4235 83.2361 87.7808 82.5604 88.2175C79.4751 90.2116 75.6862 91.6801 72.1089 92.2682C69.4738 92.7014 64.7365 92.5663 62.2288 91.9864C50.8014 89.3438 42.6452 80.057 41.4856 68.3678C40.7229 60.6795 43.6093 52.7795 49.2227 47.1909C52.8832 43.5465 57.3471 41.1239 62.5247 39.9716C64.4249 39.5487 69.4623 39.3838 71.5272 39.6769C81.4446 41.0848 89.683 47.7816 92.9742 57.1102C94.0753 60.2315 94.4481 62.486 94.4481 66.0231C94.4481 68.5215 94.3584 69.5976 94.0178 71.1883C93.2607 74.7225 92.0923 77.6142 90.2959 80.4004C89.7061 81.315 89.4534 81.896 89.5241 82.1755C89.685 82.8132 96.985 89.9876 97.4728 89.9876C97.9961 89.9876 98.3882 89.5158 98.2434 89.0601C98.1815 88.8651 96.588 87.1647 94.7024 85.2814L91.2738 81.8572L92.0712 80.5477C95.9578 74.1647 97.1103 66.3694 95.2509 59.0398C94.6844 56.8063 94.6876 56.8515 95.0907 56.8515C95.6639 56.8515 97.7327 55.6203 98.3598 54.9063C98.6976 54.5215 99.2047 53.7146 99.487 53.113C99.9134 52.2035 100 51.7365 100 50.3426C100 48.9442 99.9146 48.4862 99.4854 47.5812C99.2022 46.9846 98.6499 46.1704 98.2578 45.772L97.545 45.0475L98.2207 43.9254C99.7533 41.3803 99.5688 38.4607 97.7284 36.1373C97.3964 35.7181 96.8132 35.1826 96.432 34.9469C95.8041 34.559 95.7669 34.4878 96.0357 34.1905C96.199 34.01 96.5765 33.3323 96.8746 32.6844C97.5507 31.2148 97.6191 29.3027 97.0548 27.6601C96.5513 26.1951 94.7152 24.3355 93.2233 23.7795L92.1665 23.3858L92.1355 21.726C92.1107 20.3899 92.0034 19.8495 91.5852 18.9525C90.6793 17.0095 88.746 15.5093 86.6611 15.1315C85.9673 15.0059 85.9357 14.9621 85.6215 13.6891C85.0402 11.3333 83.5765 9.68125 81.3164 8.82938C80.6006 8.55956 80.0055 8.49881 78.7523 8.56804C76.8412 8.67336 75.5961 9.21399 74.388 10.4631L73.6282 11.2489L72.8661 10.4868C71.6359 9.2566 70.2838 8.67238 68.4296 8.57021C67.0696 8.49506 66.6653 8.55265 65.6383 8.96764L64.4371 9.45265L63.9858 8.48914C63.4345 7.31222 61.9448 5.88066 60.6968 5.32859C58.6351 4.41656 55.8122 4.72248 54.0785 6.04595L53.2004 6.71616L52.1797 5.75798C50.8574 4.51656 49.475 3.98855 47.5763 4.00019C46.7941 4.00492 45.8327 4.12366 45.4402 4.2639ZM51.9771 14.1572C50.2304 14.6467 48.8931 15.5678 47.7469 17.0706L47.2418 17.7325L46.0619 17.1477C42.57 15.417 38.2501 16.9144 36.4274 20.4874C36.0209 21.284 35.5592 23.4805 35.6519 24.1765C35.6882 24.4491 35.4458 24.6351 34.675 24.9262C33.3028 25.4442 31.8732 26.7702 31.0499 28.2887C30.4032 29.4816 30.3748 29.6209 30.3748 31.6049C30.3748 33.4732 30.4268 33.7745 30.9063 34.6832C31.7373 36.2584 32.4089 36.9619 33.0146 36.8917C33.7836 36.8024 33.771 36.1452 32.9785 35.0239C32.1168 33.8041 31.854 33.0045 31.854 31.6004C31.854 28.8609 33.543 26.7179 36.2055 26.0793C36.7412 25.9509 37.1909 25.788 37.2049 25.7173C37.2191 25.6469 37.2473 24.8347 37.2678 23.9126C37.3128 21.8968 37.6134 21.1195 38.8653 19.7811C40.8669 17.6412 44.0911 17.4168 46.4943 19.2497C47.5138 20.0272 47.9343 19.94 48.5004 18.8337C49.5872 16.7097 51.5225 15.5381 53.9448 15.5381C56.2834 15.5381 58.231 16.6844 59.2903 18.6844C59.9552 19.9396 60.2897 19.9779 61.4124 18.9278C62.4888 17.9209 63.488 17.5219 64.8915 17.5381C66.1554 17.5527 67.1132 17.9621 68.0318 18.8805C68.6842 19.5329 68.7325 19.6477 68.4777 19.9381C67.8757 20.6241 67.3091 22.0552 67.211 23.1381C67.1209 24.1323 67.1568 24.2915 67.5144 24.483C68.0708 24.7809 68.5243 24.5629 68.644 23.9402C69.144 21.3377 69.6489 20.5584 71.4089 19.672C74.211 18.2607 77.5247 19.4166 78.9337 22.2968C79.411 23.2724 79.4765 23.6229 79.446 25.0398C79.4266 25.9333 79.4878 26.712 79.5817 26.77C79.6757 26.8282 80.2071 26.9619 80.7627 27.0672C82.1935 27.3385 83.3803 28.2183 84.0039 29.47C84.286 30.0359 84.5168 30.7751 84.5168 31.1128C84.5168 32.0122 84.927 32.4822 85.5708 32.3205C86.0347 32.2041 86.0945 32.0937 86.0935 31.3546C86.0903 28.9059 84.6028 26.8385 82.1045 25.8112L81.0651 25.3838L81.0142 24.2572C80.7876 19.2278 75.1408 15.9323 70.6639 18.2162L69.9176 18.597L69.3108 17.9057C68.9769 17.5256 68.1434 16.9386 67.4584 16.6014C66.4276 16.0939 65.9801 15.9889 64.8619 15.9923C63.3712 15.9968 62.085 16.3767 61.1527 17.0878L60.5426 17.553L59.9641 16.7838C59.2698 15.8609 57.7284 14.7704 56.5089 14.3396C55.2041 13.8787 53.2511 13.8 51.9771 14.1572ZM27.8913 20.8661C26.8089 21.1994 25.3254 22.4497 24.8677 23.4144C24.5535 24.0767 24.4888 24.1102 23.5114 24.1185C21.6286 24.1343 20.1471 24.9331 20.257 25.873C20.3351 26.5426 20.8181 26.6029 21.9014 26.0785C22.617 25.7319 23.0578 25.6625 24.1893 25.7179C25.7258 25.7929 25.6199 25.8639 26.2515 24.3369C26.6876 23.282 27.5024 22.6369 28.7968 22.3211C30.2886 21.9572 30.63 21.5333 29.9663 20.8694C29.5931 20.4964 29.0939 20.4955 27.8913 20.8661ZM57.6262 26.5943C56.1146 28.3116 53.6755 28.6757 51.9438 27.4426C51.1635 26.887 50.7278 26.9813 50.0227 27.8586C49.1609 28.931 48.113 29.4353 46.7471 29.4353C45.4247 29.4353 44.5753 29.1014 43.7994 28.2761C43.1582 27.5943 42.4193 27.4738 42.1406 28.0053C41.8562 28.5483 42.214 29.1799 43.2018 29.8785C44.4542 30.7645 45.144 30.9814 46.7456 30.9939C48.3343 31.0061 49.5254 30.5651 50.5335 29.5913L51.1659 28.9805L52.0128 29.3037C53.9647 30.0485 55.9355 29.8574 57.5414 28.7676L58.2475 28.2885L58.8564 29.0463C59.7822 30.1984 61.6416 31.0379 63.2677 31.0379C64.7769 31.0379 66.2292 30.5008 67.0572 29.6367C67.9663 28.6878 67.2225 27.6424 66.1844 28.4098C64.8426 29.402 63.0602 29.7416 61.7704 29.2513C60.968 28.9461 59.8187 27.8098 59.4347 26.9416C59.1256 26.2432 58.758 25.885 58.3497 25.885C58.2951 25.885 57.9694 26.2041 57.6262 26.5943ZM80.3826 32.6803C80.0864 33.0373 80.1807 33.5858 80.572 33.782C80.7347 33.8637 81.4682 34.0209 82.2022 34.1312C86.1495 34.7248 89.0874 37.7118 89.7146 41.7688C89.9724 43.4363 90.3288 43.9282 90.9763 43.5102C91.2505 43.3331 91.3144 43.0384 91.287 42.0773C91.1878 38.6059 88.784 35.0852 85.4254 33.4917C83.2708 32.4694 80.8773 32.0842 80.3826 32.6803ZM50.657 34.4688C46.1677 35.0523 41.027 36.3763 38.7093 37.5463C34.9596 39.4392 33.6174 43.4621 35.8515 46.1114C37.1554 47.6574 39.8819 48.239 41.8521 47.3915C43.2077 46.8083 46.5134 43.5029 46.4177 42.8264C46.3726 42.5061 46.202 42.3333 45.8876 42.2887C45.5294 42.2381 45.0359 42.6018 43.7179 43.8883C41.7546 45.8043 41.0945 46.2006 39.8649 46.2006C38.7158 46.2006 38.0191 45.926 37.225 45.1599C35.3757 43.3761 36.5091 40.3625 39.5957 38.8556C42.8329 37.2751 49.0355 35.982 54.2406 35.8024C57.9381 35.6747 58.3359 35.5761 58.2477 34.81L58.1854 34.2676L55.4241 34.2379C53.9053 34.2217 51.7602 34.3254 50.657 34.4688ZM64.3984 43.1345C55.1588 44.6617 47.9144 51.2676 45.5302 60.34C44.8483 62.9345 44.6811 67.139 45.1517 69.8497C47.2276 81.8033 58.1542 90.182 70.1183 88.9949C78.1953 88.1933 85.0988 83.4706 88.7049 76.2795C91.3753 70.9542 91.7939 64.4203 89.8383 58.5836C88.6686 55.0923 87.0314 52.4613 84.3249 49.7241C81.2404 46.6047 77.6503 44.5669 73.3988 43.5229C70.8568 42.8984 66.8673 42.7264 64.3984 43.1345ZM67.2108 52.2657C67.0761 56.5777 66.9227 60.2919 66.8696 60.5193C66.7509 61.028 64.628 62.3741 63.9446 62.3741C63.6736 62.3741 60.244 60.7767 56.3237 58.8244L49.1957 55.2747L50.0251 54.0414C52.6345 50.1615 56.3359 47.2702 60.6805 45.7173C62.5556 45.0471 65.2343 44.4773 66.6667 44.4438L67.4556 44.4252L67.2108 52.2657ZM70.0314 44.5763C70.1586 44.6645 70.444 48.0312 70.7598 53.1661C71.2051 60.4067 71.33 61.6887 71.6357 62.1572C72.2698 63.1294 74.639 65.1146 75.3168 65.2418C75.6671 65.3075 78.6142 65.2217 81.8663 65.0511C90.0335 64.6227 89.4477 64.5947 89.4477 65.4158C89.4477 66.225 90.1469 66.0497 82.643 67.1213C75.857 68.0905 75.5412 68.1988 74.6996 69.8428C74.3789 70.4696 73.8383 71.3664 73.498 71.8361C72.6921 72.9485 72.6959 73.1375 73.6684 80.5179C74.1022 83.81 74.4349 86.5163 74.4081 86.5321C74.0781 86.7236 72.7615 86.9844 72.6698 86.8761C72.6032 86.7974 71.9558 84.126 71.2312 80.9398C69.857 74.8974 69.6252 74.2763 68.5347 73.7124C67.811 73.3382 66.5112 73.3369 65.7907 73.7094C65.4824 73.8688 63.3049 76.3096 60.9517 79.1335C58.5986 81.9572 56.6142 84.2672 56.5418 84.2666C56.4694 84.2661 56.1503 84.0578 55.8327 83.8035L55.255 83.3414L59.3611 77.345C61.6193 74.0469 63.555 71.0706 63.6627 70.7309C63.9268 69.8974 63.6868 68.4647 63.1489 67.6647C62.8278 67.1874 60.7282 65.7895 55.4172 62.5175C51.4071 60.0471 48.1014 57.9152 48.0712 57.7801C48.041 57.6448 48.144 57.3594 48.3004 57.1455C48.5746 56.7706 48.8359 56.8816 55.8503 60.3562C64.2235 64.5035 64.0661 64.4595 66.0943 63.212C66.7558 62.8051 67.4495 62.3455 67.6359 62.1909C68.4647 61.5031 68.5187 61.0862 68.7387 53.6702C68.9949 45.0274 69.044 44.4244 69.4915 44.4284C69.6736 44.4302 69.9166 44.4966 70.0314 44.5763ZM73.9491 45.314C79.9556 47.0546 84.8187 51.2335 87.5024 56.9601C88.2286 58.51 89.2505 61.9201 89.2505 62.7939C89.2505 63.1021 89.0957 63.1639 88.3136 63.1684C87.7982 63.1714 85.0247 63.3022 82.1499 63.459C74.7982 63.8601 75.688 63.9686 74.1333 62.4812L72.8022 61.2079L72.2955 53.0138C71.9227 46.985 71.8489 44.8199 72.0164 44.8199C72.1414 44.8199 73.0112 45.0422 73.9491 45.314ZM28.8298 46.1349C28.6089 46.3556 28.6832 47.127 28.9448 47.3272C29.0805 47.4312 29.6795 47.6211 30.2761 47.7495C32.7852 48.2895 34.8035 49.7515 35.8201 51.7653C36.286 52.6884 36.4886 52.9067 36.8795 52.9067C37.7363 52.9067 37.8574 52.2759 37.2485 50.9848C36.5909 49.5903 35.0864 48.0832 33.5227 47.2526C31.827 46.3521 29.231 45.7335 28.8298 46.1349ZM56.5089 65.0211C59.2751 66.7272 61.6562 68.2375 61.8002 68.3773C61.944 68.5171 62.1101 68.9917 62.1692 69.4321C62.2736 70.2102 62.1611 70.4016 58.16 76.258C55.8959 79.5718 53.9919 82.2858 53.929 82.2891C53.7231 82.3002 51.4043 79.8552 50.5884 78.767C48.7552 76.3223 47.2953 72.8911 46.7448 69.7345C46.2349 66.811 46.397 63.102 47.1503 60.4568L47.4436 59.4268L49.4615 60.6732C50.5712 61.3586 53.7426 63.3152 56.5089 65.0211ZM89.3596 68.6365C88.3402 75.815 84.2122 81.7215 77.9387 84.9785C76.9785 85.4769 76.128 85.8092 76.0487 85.7171C75.9045 85.5497 74.4408 74.5047 74.4519 73.6665C74.455 73.4227 74.759 72.8014 75.1274 72.2858C75.4959 71.7704 75.9351 71.016 76.1034 70.6093C76.2718 70.2027 76.6138 69.7795 76.8635 69.6686C77.1915 69.5231 86.2343 68.1095 89.3223 67.7211C89.4158 67.7093 89.4327 68.1211 89.3596 68.6365ZM68.0935 75.381C68.3345 75.6398 68.8607 77.583 69.7093 81.3475C70.4012 84.4181 70.9761 87.0185 70.9866 87.1264C71.0174 87.4384 68.2292 87.5941 66.06 87.4014C64.9669 87.3041 63.3692 87.0406 62.5097 86.8158C60.9339 86.4033 58.0868 85.3067 58.0868 85.112C58.0868 84.999 65.6491 75.9197 66.2229 75.3438C66.6815 74.8834 67.6479 74.9027 68.0935 75.381Z" fill="black"/>
</svg>
