<svg width="100" height="100" viewBox="0 0 100 100" fill="none" xmlns="http://www.w3.org/2000/svg">
<path fill-rule="evenodd" clip-rule="evenodd" d="M42.1779 0.176288C35.5807 0.647885 27.9732 2.46262 25.7866 4.08641C24.5158 5.0302 24.2581 6.73835 25.1304 8.43638L25.5034 9.16243L24.5365 10.4861C21.0632 15.2402 19.0716 21.1161 18.1125 29.4391C17.557 34.2611 17.4145 39.7354 17.4127 56.3471L17.4107 72.934L15.8033 73.5967C12.4632 74.9738 11.1207 76.2332 7.96837 80.9456C5.19589 85.0901 3.04209 89.5175 1.25757 94.7402C0.0569514 98.2545 -0.188896 99.3307 0.123531 99.7064C0.337579 99.9641 6.44162 100 50.0048 100C94.2262 100 99.6697 99.9671 99.8936 99.6975C100.192 99.3389 99.8897 98.0622 98.6501 94.4425C96.9616 89.5113 94.7577 85.0089 92.0438 80.9456C88.8921 76.2268 87.4638 74.9111 83.9404 73.4804L82.5989 72.9358L82.5969 56.3481C82.5959 47.2248 82.5049 38.0186 82.3948 35.8898C81.7695 23.8141 79.8093 16.5385 75.5987 10.6659L74.5432 9.19379L74.9876 8.10213C76.0324 5.53534 75.2511 4.22793 71.9259 2.97868C68.2553 1.59981 62.9051 0.546063 57.6541 0.167952C54.4911 -0.0597085 45.4122 -0.0549449 42.1779 0.176288ZM57.4553 1.75582C62.6436 2.12937 66.6685 2.89055 70.7307 4.26664C73.2963 5.1356 73.9515 5.63994 73.7917 6.62244C73.6953 7.2165 67.9093 18.3967 67.2485 19.266C67.0161 19.5717 66.8567 19.5594 65.1094 19.1011C56.627 16.8761 43.3826 16.8761 34.9002 19.1011C33.1668 19.5556 32.9919 19.5697 32.7653 19.2718C32.184 18.5074 26.3457 7.31534 26.232 6.74708C26.0269 5.72311 26.5063 5.25151 28.4806 4.53459C32.2913 3.15116 37.3394 2.11587 41.9557 1.7713C45.1465 1.53312 54.2365 1.52399 57.4553 1.75582ZM47.3128 3.62732C46.9121 4.02727 46.8249 4.3111 46.8249 5.21519V6.31578H45.7229C44.8176 6.31578 44.5334 6.40291 44.1329 6.80306C43.6736 7.26175 43.645 7.41895 43.645 9.49152C43.645 11.5641 43.6736 11.7213 44.1329 12.18C44.5334 12.5801 44.8176 12.6673 45.7229 12.6673H46.8249V13.7678C46.8249 14.6719 46.9121 14.9558 47.3128 15.3557C47.7721 15.8144 47.9295 15.843 50.0048 15.843C52.0801 15.843 52.2375 15.8144 52.6968 15.3557C53.0975 14.9558 53.1847 14.6719 53.1847 13.7678V12.6673H54.2868C55.192 12.6673 55.4762 12.5801 55.8767 12.18C56.336 11.7213 56.3646 11.5641 56.3646 9.49152C56.3646 7.41895 56.336 7.26175 55.8767 6.80306C55.4762 6.40291 55.192 6.31578 54.2868 6.31578H53.1847V5.21519C53.1847 4.3111 53.0975 4.02727 52.6968 3.62732C52.2375 3.16863 52.0801 3.14004 50.0048 3.14004C47.9295 3.14004 47.7721 3.16863 47.3128 3.62732ZM51.5948 6.0776C51.5948 6.8628 51.6945 7.52693 51.8333 7.66547C51.972 7.80401 52.637 7.90365 53.4232 7.90365H54.7747V9.49152V11.0794H53.4232C52.637 11.0794 51.972 11.179 51.8333 11.3176C51.6945 11.4561 51.5948 12.1202 51.5948 12.9054V14.2551H50.0048H48.4149V12.9054C48.4149 12.1202 48.3151 11.4561 48.1764 11.3176C48.0376 11.179 47.3726 11.0794 46.5864 11.0794H45.2349V9.49152V7.90365H46.5864C47.3726 7.90365 48.0376 7.80401 48.1764 7.66547C48.3151 7.52693 48.4149 6.8628 48.4149 6.0776V4.72791H50.0048H51.5948V6.0776ZM29.0373 15.7767C30.4583 18.4642 31.7644 20.845 31.9395 21.0673L32.2583 21.4712L34.1257 20.9468C39.1567 19.5344 42.5871 19.1406 49.9054 19.1354C57.1944 19.1303 60.6186 19.505 65.4894 20.8414C67.7509 21.4617 67.7584 21.4625 68.0731 21.0633C68.2466 20.8432 69.5513 18.4642 70.9723 15.7767C72.3934 13.089 73.6182 10.888 73.6942 10.8855C73.9966 10.8753 75.5377 13.2835 76.5489 15.3468C79.0432 20.4359 80.3269 26.632 80.8011 35.8694C81.0525 40.7674 81.0821 72.2123 80.8352 72.2123C80.7396 72.2123 80.27 72.0738 79.7918 71.9045C78.0463 71.2862 74.0455 70.1675 69.5354 69.0366C65.4572 68.0138 64.8196 67.7996 64.0699 67.2008C62.9729 66.3243 62.0143 65.7693 61.0848 65.4726C60.3725 65.2451 60.3395 65.1959 60.3395 64.3601C60.3395 63.5169 60.3731 63.4685 61.2836 63.0039C65.8179 60.6899 70.084 55.8309 72.0778 50.71L72.6315 49.2875L73.5193 49.1581C76.0787 48.7853 78.2923 46.4779 79.1143 43.326C80.1271 39.4431 78.4869 36.2143 74.9852 35.1977L73.8541 34.8692V33.1212C73.8541 31.9597 73.7709 31.3076 73.6057 31.1774C73.4692 31.0697 72.4629 30.9232 71.3698 30.8519C63.4588 30.3365 53.1615 26.7463 45.917 21.9779C44.7711 21.2237 43.7378 20.6066 43.6207 20.6066C43.5037 20.6066 42.8576 21.0873 42.185 21.6748C39.2847 24.2079 35.6455 26.5131 30.2297 29.2474L26.2548 31.254L26.1978 33.0638L26.141 34.8734L25.0171 35.1997C21.5229 36.2141 19.8835 39.4464 20.8953 43.326C21.7173 46.4779 23.9309 48.7853 26.4904 49.1581L27.3782 49.2875L27.9319 50.71C29.9257 55.8309 34.1917 60.6899 38.7261 63.0039C39.6365 63.4685 39.6701 63.5169 39.6701 64.3601C39.6701 65.1959 39.6371 65.2451 38.9248 65.4726C37.9933 65.7699 37.0363 66.3245 35.9317 67.2071C35.1783 67.8093 34.5695 68.0176 30.8637 68.9393C26.4484 70.0379 22.3765 71.1675 20.467 71.8237C19.8449 72.0374 19.2604 72.2123 19.1682 72.2123C18.9287 72.2123 18.9623 40.3087 19.2066 35.7906C19.7402 25.9234 21.0992 19.7321 23.8852 14.4786C24.7768 12.7973 26.0788 10.8769 26.3214 10.8855C26.3942 10.888 27.6162 13.089 29.0373 15.7767ZM49.9778 26.1435C57.033 29.7186 64.0479 31.8435 70.7239 32.4275L72.2642 32.5622V37.6851C72.2642 40.5028 72.1688 43.5066 72.0523 44.3607C71.347 49.5318 69.3144 53.8309 65.8779 57.4207C62.3941 61.0601 58.2241 63.2577 53.4335 63.9788C46.1557 65.0744 39.2831 62.7633 34.2191 57.5172C31.7813 54.9917 30.1632 52.3701 29.0782 49.1882C28.0048 46.0403 27.8993 45.1505 27.8057 38.4701L27.718 32.2179L29.4632 31.4279C33.5736 29.5673 39.6341 25.887 42.4523 23.5406L43.7438 22.465L45.4864 23.6079C46.4449 24.2363 48.4659 25.3773 49.9778 26.1435ZM37.6298 32.7189C36.7937 32.9298 35.4847 33.5568 34.6409 34.1507C34.0335 34.578 33.9785 35.2116 34.5188 35.5496C34.7518 35.6953 35.2196 35.5554 36.329 35.0078C38.8073 33.7845 40.9906 33.8623 43.4945 35.263C44.5294 35.8418 45.0783 35.7368 45.1978 34.9371C45.2731 34.4326 44.1472 33.6634 42.4736 33.0759C41.1905 32.6254 38.7219 32.4436 37.6298 32.7189ZM59.0477 32.6464C58.1313 32.8417 56.2126 33.5989 55.5078 34.0431C54.6856 34.5616 54.5733 35.1648 55.2232 35.5717C55.4991 35.7443 55.77 35.6796 56.5151 35.263C59.0191 33.8623 61.2023 33.7845 63.6806 35.0078C65.227 35.7711 65.7219 35.7727 65.8712 35.0155C65.9654 34.5364 65.5774 34.1459 64.4263 33.5618C62.6706 32.671 60.5919 32.3171 59.0477 32.6464ZM26.6186 46.211C26.7779 46.9205 26.8735 47.5378 26.8312 47.5825C26.7889 47.6273 26.4063 47.5599 25.9808 47.4324C24.8968 47.1081 23.6439 45.8126 22.9106 44.2577C22.366 43.1031 22.2867 42.7226 22.2839 41.2489C22.2815 40.0391 22.3748 39.3899 22.6137 38.9542C23.157 37.9634 24.197 37.0843 25.157 36.8042L26.0561 36.542L26.1924 40.7314C26.2715 43.1591 26.4506 45.4633 26.6186 46.211ZM76.5718 37.9396C77.5893 39.0098 77.9175 40.0856 77.7569 41.8247C77.5299 44.2841 75.7863 46.9067 74.0288 47.4324C73.6033 47.5599 73.2207 47.6273 73.1784 47.5825C73.1361 47.5378 73.2323 46.9205 73.3925 46.211C73.5699 45.424 73.7269 43.2825 73.7947 40.7203L73.906 36.5198L74.824 36.7935C75.4354 36.9757 76.0195 37.3588 76.5718 37.9396ZM38.3683 39.1463C36.3632 40.0185 35.8896 42.6805 37.4605 44.2496C38.7497 45.5369 40.5905 45.5369 41.8797 44.2496C44.3464 41.786 41.5713 37.753 38.3683 39.1463ZM59.0377 39.1463C57.0326 40.0185 56.559 42.6805 58.1299 44.2496C59.4191 45.5369 61.2599 45.5369 62.5492 44.2496C65.0158 41.786 62.2407 37.753 59.0377 39.1463ZM40.7721 40.9422C41.7581 41.9267 41.0595 43.6307 39.6701 43.6307C39.2829 43.6307 38.8755 43.4507 38.5681 43.1434C38.2604 42.8363 38.0801 42.4295 38.0801 42.0428C38.0801 41.6562 38.2604 41.2493 38.5681 40.9422C38.8755 40.635 39.2829 40.4549 39.6701 40.4549C40.0573 40.4549 40.4647 40.635 40.7721 40.9422ZM61.4416 40.9422C62.4275 41.9267 61.7289 43.6307 60.3395 43.6307C59.5225 43.6307 58.7496 42.8588 58.7496 42.0428C58.7496 41.2268 59.5225 40.4549 60.3395 40.4549C60.7267 40.4549 61.1341 40.635 61.4416 40.9422ZM47.8584 50.2203C47.4633 50.6149 47.5867 51.1099 48.2113 51.6347C48.9083 52.2205 49.7705 52.4469 50.6058 52.2637C51.3563 52.099 52.3897 51.2501 52.3897 50.7981C52.3897 50.3877 52.0151 49.9822 51.6361 49.9822C51.4839 49.9822 51.1319 50.1608 50.854 50.3791C50.576 50.5975 50.194 50.7761 50.0048 50.7761C49.8156 50.7761 49.4336 50.5975 49.1556 50.3791C48.5776 49.9252 48.2002 49.8789 47.8584 50.2203ZM44.6785 56.5718C44.2144 57.0353 44.4328 57.5287 45.3631 58.118C46.8378 59.0521 48.1144 59.4063 50.0048 59.4063C51.9 59.4063 53.1716 59.0521 54.6598 58.1095C55.3671 57.6615 55.5808 57.4132 55.5333 57.0942C55.4059 56.2407 54.9372 56.2318 53.2783 57.0506C51.8279 57.7665 51.591 57.8223 50.0048 57.8223C48.4294 57.8223 48.1762 57.7637 46.7869 57.0779C45.1169 56.2536 45.0203 56.2304 44.6785 56.5718ZM42.5038 64.6535C44.8758 65.4684 46.81 65.7517 50.0048 65.7517C53.1996 65.7517 55.1338 65.4684 57.5058 64.6535C58.1148 64.4443 58.6556 64.273 58.7074 64.273C58.7593 64.273 58.7591 64.9373 58.707 65.7495C58.4966 69.0227 55.794 72.7829 52.4694 74.4282C50.3047 75.4996 49.6713 75.498 47.5515 74.4171C45.0648 73.149 43.3866 71.3971 42.1331 68.7609C41.5524 67.5396 41.3767 66.9017 41.3022 65.7427C41.2503 64.9343 41.2503 64.273 41.3022 64.273C41.3541 64.273 41.8948 64.4443 42.5038 64.6535ZM39.9545 67.5444C40.0259 67.9245 40.4931 69.0511 40.9927 70.0478C42.2671 72.5902 44.3024 74.6211 46.7959 75.8384L48.5786 76.7088L45.0026 81.2586C43.0356 83.7611 41.3243 85.8084 41.1994 85.8084C40.8057 85.8084 38.3272 81.9485 36.8976 79.1088C34.3465 74.0417 34.2833 70.994 36.6812 68.6702C37.3895 67.9836 39.2595 66.8533 39.687 66.8533C39.7627 66.8533 39.883 67.1643 39.9545 67.5444ZM61.884 67.5793C63.7528 68.6503 64.8417 70.2739 65.0512 72.3024C65.2294 74.027 64.6545 76.045 63.112 79.1088C61.6824 81.9485 59.2039 85.8084 58.8102 85.8084C58.6854 85.8084 56.974 83.7611 55.007 81.2586L51.431 76.7088L53.2137 75.8384C55.7072 74.6211 57.7425 72.5902 59.0169 70.0478C59.5165 69.0511 59.9844 67.9219 60.0563 67.5384C60.2068 66.7375 60.4232 66.7423 61.884 67.5793ZM33.7898 70.2771C32.8959 73.0602 33.3007 75.4434 35.3834 79.6554C37.3186 83.5693 40.4726 88.091 41.2676 88.091C41.5067 88.091 42.5445 86.9382 44.2303 84.7997L46.8249 81.5087V89.9619V98.4151L33.9767 98.3639L21.1282 98.3129L17.3859 87.4955C15.3275 81.546 13.6413 76.6127 13.6389 76.5327C13.6314 76.2786 17.2247 74.6572 19.6223 73.8327C23.2902 72.5716 32.6188 69.9419 33.7708 69.8442C33.8602 69.8367 33.8687 70.0314 33.7898 70.2771ZM68.9038 70.5063C72.1265 71.2594 76.5374 72.5259 79.7678 73.6257C82.645 74.605 86.3792 76.2491 86.3707 76.5327C86.3683 76.6127 84.6821 81.546 82.6237 87.4955L78.8814 98.3129L63.648 98.3637L48.4149 98.4145L48.4168 88.9357L48.4186 79.457L49.1295 78.5638C49.5205 78.0725 49.914 77.6706 50.0036 77.6706C50.0935 77.6706 52.0127 80.0153 54.2689 82.8808C57.0068 86.358 58.494 88.091 58.7406 88.091C59.537 88.091 62.6893 83.5729 64.6262 79.6554C66.714 75.4329 67.1143 73.063 66.2136 70.2574C66.0874 69.8644 66.1216 69.8089 66.4312 69.9028C66.6334 69.9641 67.7459 70.2356 68.9038 70.5063ZM16.1276 88.7289C17.9265 93.9377 19.3982 98.2474 19.3982 98.3057C19.3982 98.3643 15.4255 98.4121 10.5701 98.4121H1.74211L2.23758 96.7746C3.9905 90.9831 7.2674 84.4446 10.779 79.7323L12.3068 77.6823L12.5818 78.4703C12.7333 78.9038 14.3288 83.5201 16.1276 88.7289ZM90.0391 80.8463C93.2478 85.4436 96.1095 91.3416 97.7677 96.7746L98.2675 98.4121H89.425C82.1513 98.4121 80.5938 98.3651 80.6466 98.1472C80.682 98.0015 82.2759 93.3502 84.1889 87.8109L87.6669 77.7399L88.2297 78.3998C88.5392 78.7629 89.3534 79.8638 90.0391 80.8463ZM51.4954 84.3006C50.6108 84.6886 50.1042 85.495 50.1042 86.5152C50.1042 87.3491 50.1968 87.5805 50.7539 88.1368C51.3131 88.6954 51.5411 88.7857 52.3897 88.7857C53.2384 88.7857 53.4663 88.6954 54.0256 88.1368C54.5849 87.5783 54.6753 87.3506 54.6753 86.5031C54.6753 85.6669 54.5825 85.4258 54.0606 84.9043C53.4043 84.2489 52.2385 83.9746 51.4954 84.3006ZM52.978 85.9974C53.5061 86.6327 52.7306 87.6087 52.0419 87.1756C51.3539 86.7427 51.5989 85.7092 52.3897 85.7092C52.5815 85.7092 52.8463 85.8388 52.978 85.9974ZM51.4954 92.2399C50.6108 92.6279 50.1042 93.4344 50.1042 94.4546C50.1042 95.2884 50.1968 95.5198 50.7539 96.0762C51.3131 96.6347 51.5411 96.725 52.3897 96.725C53.2384 96.725 53.4663 96.6347 54.0256 96.0762C54.5849 95.5176 54.6753 95.29 54.6753 94.4425C54.6753 93.6063 54.5825 93.3651 54.0606 92.8437C53.4043 92.1883 52.2385 91.914 51.4954 92.2399ZM52.978 93.9367C53.5061 94.5721 52.7306 95.548 52.0419 95.1149C51.3539 94.682 51.5989 93.6485 52.3897 93.6485C52.5815 93.6485 52.8463 93.7781 52.978 93.9367Z" fill="black"/>
</svg>
