<svg width="100" height="100" viewBox="0 0 100 100" fill="none" xmlns="http://www.w3.org/2000/svg">
<path fill-rule="evenodd" clip-rule="evenodd" d="M18.7087 0.331548C18.5327 0.519423 18.1775 1.08305 17.9192 1.58379C16.854 3.65061 14.596 5.20869 12.0459 5.63638C11.3501 5.75317 8.50993 5.84867 5.73461 5.84867C1.04084 5.84867 0.662955 5.87465 0.320679 6.2213C-0.0207443 6.56658 -0.0412168 7.34132 0.0391807 16.8161C0.119578 26.2792 0.158817 27.1688 0.56635 28.796C2.15703 35.148 6.14449 40.5735 11.712 43.9615C13.5726 45.0939 18.3508 47.2509 19.2826 47.379C19.7654 47.4456 20.6649 47.1328 22.9506 46.1038C26.3032 44.5943 27.8847 43.6733 30.0396 41.9748C31.5964 40.7479 34.1039 38.0318 34.1039 37.5728C34.1039 37.1625 33.3193 36.5102 32.826 36.5102C32.5923 36.5102 32.1364 36.7942 31.8131 37.1412C30.1106 38.968 28.2711 40.597 26.7465 41.6281C25.0848 42.7519 20.1782 45.1032 19.4952 45.1032C18.9772 45.1032 14.5602 43.0911 12.9915 42.1404C11.2343 41.0756 8.57966 38.7612 7.21696 37.1061C5.96194 35.5818 4.26442 32.6113 3.63958 30.8466C2.5153 27.6707 2.49291 27.4299 2.39012 17.42L2.2933 7.99693L6.62943 7.99537C9.01428 7.99459 11.5893 7.90182 12.3517 7.78914C14.8138 7.4251 17.7765 5.79086 19.0203 4.11073L19.3672 3.64241L20.7109 4.90988C22.3074 6.41562 24.5221 7.49365 26.6399 7.79597C27.4023 7.90495 29.9695 7.99459 32.3445 7.99537L36.6629 7.99693L36.6595 15.6623C36.6546 26.4817 36.3782 28.7495 34.6012 32.5607C33.756 34.3733 33.7658 35.058 34.6398 35.2589C35.7233 35.5079 36.2479 34.9166 37.2965 32.2645C38.7765 28.5214 38.8441 27.8914 38.9512 16.8273C39.038 7.8405 39.0126 6.76207 38.7036 6.33008L38.3592 5.84867H33.2852C30.4943 5.84867 27.6454 5.75298 26.9542 5.63599C24.3984 5.20322 22.2125 3.73342 21.1042 1.70214C20.751 1.05493 20.3529 0.404784 20.2194 0.257531C19.8814 -0.115485 19.0911 -0.0768167 18.7087 0.331548ZM59.4161 6.28809C59.218 6.42245 58.9105 7.04662 58.7324 7.67547C57.8937 10.6397 55.947 13.7443 53.0018 16.8157C51.7772 18.0928 50.8978 18.783 49.4065 19.6372C46.9148 21.0646 46.1426 21.5691 45.1215 22.437C42.6567 24.5319 42.385 28.2908 44.4634 31.5385C45.1821 32.6617 46.7783 34.0956 48.0506 34.7609L49.1248 35.3228L48.2786 35.6425C46.1289 36.4547 41.7346 38.5237 40.2883 39.4045C28.6238 46.5084 24.0002 59.6189 28.6611 72.3744C30.2433 76.7046 32.7819 80.4068 36.4819 83.7799L38.7531 85.8505L38.3671 88.2778C37.4978 93.7408 37.2541 99.1279 37.851 99.6747C38.3076 100.093 38.923 100.06 39.4353 99.5909C39.7925 99.2638 39.8622 98.9383 39.8639 97.5891C39.8667 95.5835 40.1962 91.925 40.612 89.2832C40.7858 88.179 40.9281 87.2281 40.9281 87.1705C40.9281 87.1127 41.1921 87.2363 41.5145 87.4451C42.6746 88.1962 45.979 89.5949 47.9655 90.1757C51.6802 91.2617 52.8608 91.4231 57.8672 91.5289C62.2008 91.6207 62.5646 91.6021 62.8254 91.2756C63.2481 90.7462 63.1647 90.0808 62.6326 89.7396C62.2518 89.4951 61.4881 89.4353 58.7407 89.4347C56.7192 89.4344 54.4952 89.3127 53.2969 89.1373C41.2906 87.3791 32.1163 78.9844 29.7185 67.5623C29.1448 64.8301 29.1864 59.938 29.8057 57.2726C30.973 52.2482 33.1419 48.3883 36.7116 44.9824C39.9601 41.8824 42.5526 40.4017 50.5246 37.0916C53.2549 35.9581 53.7249 35.6597 53.7202 35.064C53.7145 34.3518 53.4061 34.1549 51.6777 33.7598C49.6948 33.3068 48.0468 32.3824 47.0882 31.186C45.0746 28.673 44.8852 25.8357 46.6169 24.1267C46.9336 23.8142 48.2012 22.9572 49.4338 22.2225L51.6751 20.8865L57.2308 20.8832C63.5761 20.8793 64.8464 20.7162 67.143 19.611C69.6714 18.3943 71.9566 15.809 72.6808 13.3463C73.092 11.9476 73.5765 7.02943 73.3423 6.62888C73.0336 6.10021 72.3383 5.96214 71.7532 6.31309C71.2143 6.63669 71.1061 7.04154 70.8876 9.5593C70.5154 13.8476 69.0122 16.3175 65.9046 17.7473C64.1137 18.5713 62.8491 18.7382 58.3984 18.7382H54.3508L55.7157 17.2247C57.3899 15.3678 58.6458 13.6056 59.5786 11.8052C60.4152 10.1901 61.1874 7.98424 61.1874 7.20911C61.1874 6.23712 60.2275 5.73794 59.4161 6.28809ZM75.811 6.35058C75.2585 6.8564 75.1987 7.48115 75.329 11.3871C75.5515 18.0572 77.0978 22.7039 80.2467 26.1656L81.3898 27.4221L79.4909 32.5623C78.4466 35.3892 77.3162 38.7594 76.9786 40.0515C76.6412 41.3436 76.3328 42.4253 76.2934 42.4552C76.2541 42.4851 71.6156 44.534 65.9856 47.0084L55.7494 51.507L51.4307 52.4021C49.0555 52.8942 46.8805 53.436 46.5975 53.6057C44.9083 54.6193 45.1226 57.1688 46.9764 58.1137L47.8 58.5336L45.908 59.9721C44.8673 60.7633 42.8412 62.2014 41.4053 63.1682C39.3504 64.5516 38.6982 65.1053 38.3423 65.7693C37.5991 67.1559 38.0199 68.5771 39.4668 69.5663C40.5783 70.3264 41.3601 70.2404 47.0278 68.7363C49.9471 67.9613 52.6109 67.1969 52.9474 67.0376C54.151 66.4677 55.4497 65.1373 56.8361 63.0541C57.6109 61.8899 58.3551 60.8584 58.4899 60.7621C58.7631 60.5666 74.956 53.6963 75.1435 53.6963C75.2088 53.6963 75.2623 54.6415 75.2623 55.7969C75.2623 59.8581 76.2497 65.5602 77.7267 70.0295C78.526 72.4481 79.1926 74.0554 82.0897 80.5495C85.0697 87.2291 87.4166 94.2732 87.9721 98.2041C88.1909 99.7538 89.2052 100.465 90.0685 99.6747C90.509 99.2712 90.4913 98.6672 89.9655 96.1344C88.9958 91.4639 87.162 86.185 84.1935 79.518C81.3395 73.1078 80.5877 71.2747 79.8509 68.9294C78.424 64.3872 77.6081 59.3415 77.6081 55.0606V52.6143L88.4309 48.0477C94.3835 45.5362 99.4216 43.3491 99.6268 43.1878C99.832 43.0265 100 42.7562 100 42.5872C100 42.4183 96.9592 34.2498 93.2426 24.4354C86.004 5.32059 86.1755 5.69888 84.9753 6.19962C84.697 6.31582 84.4101 6.58162 84.3376 6.79039C84.2549 7.02982 86.6133 13.5226 90.717 24.353C94.2977 33.8034 97.2277 41.624 97.2277 41.732C97.2277 41.84 88.231 45.7294 77.2349 50.3753C66.239 55.0212 57.0696 58.9607 56.8587 59.1298C56.6478 59.2991 56.1262 59.9692 55.6997 60.6194C53.7968 63.5189 53.0259 64.452 52.1556 64.9081C51.377 65.316 41.88 67.9562 41.1995 67.9539C40.7822 67.9523 40.2275 67.0411 40.4363 66.6997C40.5363 66.5359 41.7992 65.6047 43.2425 64.6303C44.6858 63.656 47.5386 61.5798 49.582 60.0167C52.7126 57.6216 53.2969 57.0913 53.2969 56.6462C53.2969 55.5676 52.5966 55.4323 49.8311 55.9766C48.6142 56.216 48.105 56.2457 47.932 56.0873C47.3654 55.5684 48.0244 55.32 52.3524 54.4212L56.7875 53.5004L66.9312 49.0219C90.5673 38.5862 88.6974 39.4598 88.6974 38.8504C88.6974 38.129 85.9513 31.735 85.495 31.3934C84.8157 30.8853 83.7925 31.3319 83.7925 32.1365C83.7925 32.3902 84.2724 33.77 84.8588 35.2031C85.4453 36.6362 85.9251 37.8972 85.9251 38.0056C85.9251 38.1835 79.2937 41.2438 79.1645 41.1255C79.0261 40.9985 80.3116 37.0799 81.9387 32.6697C82.9229 30.0022 83.7913 27.5816 83.8687 27.2907C83.99 26.8344 83.8203 26.5698 82.6294 25.3588C79.2933 21.9665 77.8879 17.8034 77.6732 10.6748C77.5578 6.84605 77.5254 6.599 77.1055 6.32949C76.5356 5.96409 76.2275 5.96917 75.811 6.35058ZM18.1924 7.04017C17.3033 7.68954 15.7962 8.4383 14.3928 8.92752C13.7592 9.1484 12.3247 9.26148 9.08209 9.34584C5.01231 9.45189 4.61416 9.49349 4.33714 9.84073C3.95307 10.3223 3.95371 10.7508 4.33906 11.2308C4.62291 11.5841 4.91571 11.6084 8.6575 11.5882C12.0574 11.5699 12.926 11.5023 14.3348 11.1469C15.8747 10.758 17.6322 10.0388 18.9895 9.24136C19.5242 8.92732 19.5792 8.93162 20.2021 9.33784C21.1852 9.97899 23.389 10.8736 24.8272 11.2156C25.531 11.3828 27.5703 11.5757 29.3589 11.6443L32.6111 11.7687L32.6098 18.2318C32.6083 25.4861 32.4031 27.4082 31.3469 30.0588C30.2507 32.8095 28.997 34.6147 26.6851 36.7715C25.1096 38.2415 22.5089 39.9177 20.6263 40.6769L19.4109 41.167L17.6407 40.3499C12.2758 37.8736 8.49244 33.5882 6.99069 28.2869C6.56994 26.8018 6.5179 26.0327 6.43644 20.1053C6.35967 14.5034 6.29846 13.5137 6.01078 13.2211C5.56848 12.7713 4.8319 12.7868 4.36849 13.2559C4.026 13.6025 4.0034 14.1646 4.08571 20.3354C4.17166 26.7915 4.19512 27.1075 4.72527 28.9169C6.06921 33.5044 9.11579 37.6402 13.1879 40.4046C14.904 41.5697 18.7023 43.3456 19.4781 43.3456C20.1422 43.3456 23.4677 41.8504 25.203 40.7718C30.3256 37.5873 33.9448 32.0977 34.7372 26.3097C34.9857 24.4946 35.0347 10.3587 34.7937 10.028C34.3886 9.4722 33.5982 9.36401 29.9437 9.36401C26.4708 9.36401 26.0562 9.32553 24.5449 8.86209C23.6428 8.58556 22.211 7.92799 21.3554 7.39737C20.5015 6.86792 19.6272 6.43456 19.4122 6.43456C19.1973 6.43456 18.6483 6.707 18.1924 7.04017ZM16.4036 14.7208C11.5776 15.948 8.47197 19.6942 8.45832 24.3042C8.45 27.1457 9.50413 29.3895 11.8258 31.4714C15.7724 35.0105 22.4976 35.0213 26.5162 31.4948C28.7567 29.5287 29.9004 27.1303 29.9294 24.3374C29.943 23.039 29.8829 22.7664 29.5314 22.5309C28.5153 21.8501 27.362 22.5821 27.6164 23.7462C27.7902 24.5426 27.3861 26.4024 26.7779 27.6035C25.9799 29.1798 24.6988 30.348 22.8518 31.1841C21.3106 31.8815 21.1149 31.9207 19.1759 31.9207C17.237 31.9207 17.0412 31.8815 15.5 31.1841C11.3059 29.2858 9.61694 24.9069 11.571 20.9978C13.7865 16.566 20.1347 15.2083 24.4137 18.251C25.0927 18.7337 25.754 19.1288 25.8833 19.1288C26.4023 19.1288 27.0664 18.5027 27.0664 18.0137C27.0664 17.0118 24.4549 15.3432 21.9203 14.7255C20.5369 14.3882 17.7202 14.3859 16.4036 14.7208ZM24.09 22.1501L18.4295 27.3196L16.1707 25.2748C13.8684 23.1906 13.3483 22.9311 12.6868 23.5369C11.8992 24.2583 12.2236 24.7786 15.1004 27.4072C17.2807 29.3997 17.9698 29.919 18.4321 29.919C18.9117 29.919 20.1123 28.9142 25.2 24.255C30.3538 19.5352 31.3848 18.5 31.3848 18.0451C31.3848 17.4481 30.856 16.9806 30.1804 16.9806C29.9025 16.9806 27.7463 18.8109 24.09 22.1501ZM19.2947 49.248C18.5394 50.2354 19.0787 54.0111 20.2665 56.052C21.1289 57.5337 23.2178 59.3599 24.0503 59.3599C25.3299 59.3599 25.5717 58.1358 24.4647 57.262C22.0954 55.3919 21.326 53.7088 21.3128 50.3665C21.3104 49.7704 21.1933 49.1771 21.0526 49.0482C20.6284 48.6598 19.6604 48.7697 19.2947 49.248Z" fill="#379FFF"/>
</svg>
