<svg width="100" height="100" viewBox="0 0 100 100" fill="none" xmlns="http://www.w3.org/2000/svg">
<path fill-rule="evenodd" clip-rule="evenodd" d="M7.03544 0.540092C4.87319 1.55613 3.22995 4.13082 3.22995 6.50296C3.22995 8.8751 4.87319 11.4498 7.03544 12.4658C8.49276 13.1506 10.9443 13.1789 12.3736 12.5273C15.3485 11.1715 16.9293 7.64795 15.9592 4.5357C15.4652 2.9509 13.9798 1.24176 12.4868 0.540092C10.9541 -0.180031 8.56809 -0.180031 7.03544 0.540092ZM73.3396 1.6016C72.3921 2.62774 73.111 4.19628 74.5285 4.19628C75.0146 4.19628 75.4278 4.02911 75.7174 3.7154C76.6648 2.68926 75.9459 1.12072 74.5285 1.12072C74.0423 1.12072 73.6291 1.28789 73.3396 1.6016ZM12.307 3.00714C13.3437 3.83952 14.1152 5.33117 14.1152 6.50296C14.1152 7.67783 13.343 9.16685 12.2989 10.0052C11.5269 10.6251 11.331 10.6769 9.76112 10.6769C8.19124 10.6769 7.99531 10.6251 7.22332 10.0052C4.58778 7.88895 4.93067 4.17168 7.91062 2.55239C8.37629 2.29954 8.98217 2.21825 10.0211 2.26988C11.2563 2.33095 11.6044 2.44321 12.307 3.00714ZM37.4182 2.70002C36.4707 3.72616 37.1896 5.2947 38.6071 5.2947C39.0932 5.2947 39.5064 5.12752 39.796 4.81382C40.7434 3.78767 40.0246 2.21913 38.6071 2.21913C38.1209 2.21913 37.7077 2.38631 37.4182 2.70002ZM76.2701 11.3674C73.0546 12.0535 69.8489 13.7791 67.2194 16.2398C64.4452 18.836 62.4652 22.2086 61.4468 26.0732C60.8857 28.2018 60.8857 33.1345 61.4468 35.2631C62.4652 39.1277 64.4452 42.5003 67.2194 45.0965C71.0308 48.6631 75.2654 50.3298 80.5154 50.3298C84.3912 50.3298 87.6154 49.4307 90.8906 47.4368C93.8742 45.6202 97.1783 41.6923 98.5488 38.3329C99.6558 35.6198 100 33.8013 100 30.6682C100 27.535 99.6558 25.7165 98.5488 23.0034C97.1783 19.644 93.8742 15.716 90.8906 13.8995C89.0553 12.7822 86.4676 11.7327 84.6065 11.3507C82.5052 10.9197 78.3298 10.928 76.2701 11.3674ZM84.7802 13.6473C90.7656 15.1903 95.5906 19.9711 97.3153 26.0673C98.0195 28.557 98.0195 32.7793 97.3153 35.269C95.5906 41.3652 90.7656 46.146 84.7802 47.689C82.4575 48.2879 78.6189 48.3002 76.3594 47.716C70.1837 46.1194 65.4724 41.4728 63.707 35.2373C63.3173 33.861 63.2219 32.9625 63.2219 30.6682C63.2219 28.3738 63.3173 27.4753 63.707 26.099C65.4626 19.8979 70.1363 15.2602 76.2701 13.6319C78.4615 13.0504 82.4928 13.0577 84.7802 13.6473ZM13.4721 15.8206C12.9758 16.7565 13.4321 20.5414 14.3303 22.9362C14.9919 24.7004 16.7381 27.2611 18.1384 28.5205L19.3112 29.5754L19.3972 39.3485C19.4919 50.1402 19.4856 50.0836 20.9877 53.3702C22.3547 56.361 24.562 58.966 27.1793 60.6774L28.2661 61.388L28.2619 65.1405L28.2578 68.8931L26.9368 67.4102L25.6157 65.9274H18.7138C11.0103 65.9274 10.406 66.0069 7.5956 67.392C5.2237 68.5609 2.72923 71.1145 1.51531 73.6163C0.00268941 76.7336 -0.0476007 77.2509 0.0166224 89.0389L0.0732258 99.4161L0.617489 99.694C1.41669 100.102 73.6204 100.102 74.4196 99.694L74.9639 99.4161L75.0205 89.0389C75.0847 77.2477 75.0344 76.7307 73.5196 73.6163C72.2907 71.0895 69.8156 68.5504 67.453 67.3929C64.5933 65.9919 64.0793 65.9274 55.779 65.9274H48.3328L47.0118 67.4102L45.6908 68.8931L45.6866 65.0229L45.6825 61.1528L46.6075 60.535C49.7127 58.4614 52.4083 54.6484 53.5377 50.7316C53.9614 49.2628 54.0202 48.3008 54.2076 39.7639C54.404 30.8364 54.3936 30.3081 53.981 28.2703C52.9132 22.9955 49.7013 18.7466 45.0294 16.4283L43.1789 15.51L28.4394 15.4507C14.0055 15.3925 13.6951 15.4001 13.4721 15.8206ZM43.2941 18.0388C46.0774 19.146 48.9596 21.7345 50.3064 24.3362C51.5834 26.8033 52.028 28.5634 52.156 31.6567L52.2696 34.4028L50.55 32.2059C49.6042 30.9977 48.3566 29.3964 47.7777 28.6477C47.1986 27.899 46.5638 27.2477 46.367 27.2004C46.1702 27.1532 45.3233 27.4867 44.4851 27.9417C39.4574 30.6708 32.7208 31.2692 25.0336 29.6692C19.9179 28.6047 16.2437 24.3843 15.5273 18.7503L15.3805 17.597H28.7818C41.6948 17.597 42.2236 17.613 43.2941 18.0388ZM76.4225 18.959C76.2429 19.1403 76.1613 20.238 76.1613 22.474V25.7253H72.9222C70.175 25.7253 69.6382 25.7804 69.3845 26.0886C69.1577 26.3646 69.0858 27.3338 69.0858 30.1189C69.0858 32.9041 69.1577 33.8733 69.3845 34.1493C69.6382 34.4575 70.175 34.5126 72.9222 34.5126H76.1613V37.7811C76.1613 40.5533 76.2159 41.095 76.5213 41.3509C76.7948 41.5798 77.7553 41.6523 80.5154 41.6523C83.2754 41.6523 84.236 41.5798 84.5094 41.3509C84.8148 41.095 84.8695 40.5533 84.8695 37.7811V34.5126H88.1085C90.8557 34.5126 91.3926 34.4575 91.6462 34.1493C91.8731 33.8733 91.9449 32.9041 91.9449 30.1189C91.9449 27.3338 91.8731 26.3646 91.6462 26.0886C91.3926 25.7804 90.8557 25.7253 88.1085 25.7253H84.8695V22.474C84.8695 20.238 84.7878 19.1403 84.6082 18.959C84.2407 18.5882 76.79 18.5882 76.4225 18.959ZM82.6924 24.062C82.6924 26.6506 82.7551 27.2949 83.0344 27.577C83.314 27.8588 83.9525 27.9221 86.5177 27.9221H89.659V30.1189V32.3158H86.5177C83.9525 32.3158 83.314 32.379 83.0344 32.6609C82.754 32.9441 82.6924 33.5972 82.6924 36.2857V39.5653H80.5154H78.3383V36.2857C78.3383 33.5972 78.2767 32.9441 77.9963 32.6609C77.7168 32.379 77.0782 32.3158 74.513 32.3158H71.3717V30.1189V27.9221H74.513C77.0782 27.9221 77.7168 27.8588 77.9963 27.577C78.2756 27.2949 78.3383 26.6506 78.3383 24.062V20.8922H80.5154H82.6924V24.062ZM3.67386 26.8652C2.7264 27.8913 3.44526 29.4599 4.86274 29.4599C6.28022 29.4599 6.99909 27.8913 6.05163 26.8652C5.76208 26.5515 5.34888 26.3843 4.86274 26.3843C4.37661 26.3843 3.9634 26.5515 3.67386 26.8652ZM49.0561 33.8435L52.033 37.678L51.9472 43.2898C51.8653 48.6642 51.837 48.9764 51.2812 50.6594C50.4529 53.1679 49.3038 55.0242 47.381 56.9601C46.0463 58.3039 45.293 58.8513 43.68 59.6499C41.0214 60.966 39.5737 61.314 36.7566 61.314C33.9395 61.314 32.4917 60.966 29.8331 59.6499C26.2954 57.8986 23.5669 54.6745 22.2247 50.6594L21.6374 48.9019L21.5638 39.921C21.4935 31.3226 21.5072 30.9471 21.8847 31.1018C23.6289 31.8156 27.9669 32.528 31.5317 32.6859C36.4725 32.9047 40.6354 32.2018 44.0497 30.5719C45.0076 30.1145 45.856 29.8008 45.9353 29.8749C46.0143 29.9487 47.4187 31.7347 49.0561 33.8435ZM28.71 38.9478C27.7625 39.9739 28.4814 41.5425 29.8989 41.5425C30.385 41.5425 30.7982 41.3753 31.0878 41.0616C32.0352 40.0355 31.3163 38.4669 29.8989 38.4669C29.4127 38.4669 28.9995 38.6341 28.71 38.9478ZM41.7723 38.9478C40.8248 39.9739 41.5437 41.5425 42.9612 41.5425C43.4473 41.5425 43.8605 41.3753 44.1501 41.0616C45.0975 40.0355 44.3787 38.4669 42.9612 38.4669C42.475 38.4669 42.0618 38.6341 41.7723 38.9478ZM30.4865 45.626C28.396 46.6771 27.0561 48.9832 27.2191 51.2496C27.3177 52.6224 27.7704 52.7971 30.9068 52.6717C33.7285 52.559 34.787 52.2222 36.169 50.9979L36.9743 50.2844L37.7796 50.9979C39.1616 52.2222 40.2201 52.559 43.0417 52.6717C46.1782 52.7971 46.6308 52.6224 46.7294 51.2496C46.8925 48.9832 45.5525 46.6771 43.4621 45.626C42.3379 45.0607 42.3009 45.0574 36.9743 45.0574C31.6477 45.0574 31.6107 45.0607 30.4865 45.626ZM35.5601 48.0781C34.9011 49.7158 33.2491 50.5495 30.663 50.5495C30.0772 50.5495 29.5499 50.4711 29.4911 50.3751C29.2886 50.0445 30.1758 48.4181 30.7986 47.9779C31.7143 47.3305 31.8941 47.2905 33.9837 47.2716L35.8916 47.2543L35.5601 48.0781ZM43.0411 47.8916C43.7512 48.4028 44.6743 50.0209 44.4575 50.3751C44.3055 50.6231 42.4121 50.591 41.1544 50.3188C39.8706 50.0409 38.8407 49.2013 38.3798 48.0572L38.0395 47.2123L40.1739 47.2883C42.0074 47.3533 42.4113 47.4384 43.0411 47.8916ZM59.1887 51.0304C58.2413 52.0565 58.9601 53.6251 60.3776 53.6251C61.2713 53.6251 62.0104 52.9289 62.0104 52.0873C62.0104 50.7105 60.1331 50.0073 59.1887 51.0304ZM94.0216 52.1288C93.0741 53.155 93.793 54.7235 95.2105 54.7235C96.1042 54.7235 96.8433 54.0273 96.8433 53.1857C96.8433 51.809 94.966 51.1057 94.0216 52.1288ZM13.6004 53.2017C13.1824 53.5335 13.0267 53.8588 13.0267 54.4014C13.0267 56.1314 15.1857 56.6853 15.9692 55.1561C16.3744 54.3654 16.0548 53.3472 15.2915 52.9963C14.5317 52.647 14.2572 52.6802 13.6004 53.2017ZM43.5004 66.7512L43.4957 71.3096L40.2893 74.8623C38.5259 76.8162 37.0342 78.4148 36.9743 78.4148C36.9144 78.4148 35.4227 76.8162 33.6593 74.8623L30.4529 71.3096L30.4481 66.8841L30.4431 62.4586L31.8038 62.9175C32.9576 63.3065 33.7104 63.3779 36.7566 63.3865C40.1021 63.3959 40.4532 63.3575 41.8727 62.8256C42.7108 62.5115 43.4212 62.2406 43.451 62.2237C43.4808 62.2066 43.5033 64.2439 43.5004 66.7512ZM88.1351 63.9236C86.1672 64.5743 84.1436 66.4001 83.2994 68.287C82.6347 69.772 82.6347 72.8472 83.2994 74.3322C83.9159 75.7099 85.5724 77.4717 86.9333 78.1967C87.9147 78.7195 88.2594 78.7788 90.3121 78.7788C92.3649 78.7788 92.7095 78.7195 93.6909 78.1967C95.0518 77.4717 96.7083 75.7099 97.3248 74.3322C97.9895 72.8472 97.9895 69.772 97.3248 68.287C96.7037 66.899 95.0426 65.1391 93.6909 64.4372C92.7979 63.9735 92.2397 63.8582 90.6387 63.8067C89.561 63.772 88.4344 63.8248 88.1351 63.9236ZM92.4417 66.2681C93.4671 66.6995 94.5713 67.7626 95.1687 68.8931C95.8203 70.1264 95.8172 72.495 95.1624 73.747C94.6161 74.7911 93.3748 75.9572 92.3487 76.3898C91.3913 76.7936 89.1848 76.7731 88.1825 76.3511C87.1571 75.9197 86.0529 74.8566 85.4555 73.7261C85.1087 73.0699 84.9912 72.4581 84.9912 71.3096C84.9912 70.1611 85.1087 69.5493 85.4555 68.8931C86.0388 67.7894 87.1454 66.709 88.1351 66.2771C89.133 65.8415 91.417 65.8366 92.4417 66.2681ZM20.6464 72.5007V76.8775L19.8559 77.1407C18.8375 77.4799 17.4766 78.725 16.8816 79.8623C16.2298 81.1081 16.2283 83.4799 16.8783 84.7103C17.4757 85.8408 18.5799 86.9038 19.6053 87.3353C20.6076 87.7573 22.8141 87.7777 23.7715 87.374C24.7976 86.9414 26.0389 85.7753 26.5852 84.7312C27.2416 83.4766 27.2429 81.1136 26.5882 79.8623C25.9932 78.725 24.6324 77.4799 23.6139 77.1407L22.8234 76.8775V72.5007V68.1242L23.7487 68.1323L24.6739 68.1407L30.5298 74.613C35.4436 80.0444 36.4801 81.0855 36.9743 81.0855C37.4685 81.0855 38.505 80.0444 43.4188 74.613L49.2746 68.1407L50.4176 68.1323L51.5605 68.1242V73.6077V79.0915L50.7409 79.3142C49.4751 79.658 47.9284 80.7553 47.1501 81.8612C45.875 83.673 45.7017 84.4981 45.6916 88.8026C45.6812 93.2698 45.6551 93.2079 47.6057 93.3294C49.0386 93.4186 49.8947 93.0598 49.9989 92.3267C50.1043 91.5842 49.6561 91.191 48.7038 91.191H47.8596V88.1404C47.8596 85.2281 47.887 85.0368 48.4676 83.9153C48.8473 83.182 49.427 82.4915 50.0105 82.0778C50.8687 81.4691 51.0929 81.415 52.7579 81.415C54.4229 81.415 54.6472 81.4691 55.5054 82.0778C56.0888 82.4915 56.6686 83.182 57.0483 83.9153C57.6289 85.0368 57.6563 85.2281 57.6563 88.1404V91.191H56.812C55.8598 91.191 55.4115 91.5842 55.5169 92.3267C55.6212 93.0598 56.4772 93.4186 57.9101 93.3294C59.8608 93.2079 59.8347 93.2698 59.8242 88.8026C59.8142 84.4981 59.6409 83.673 58.3658 81.8612C57.5875 80.7553 56.0407 79.658 54.775 79.3142L53.9553 79.0915V73.6077V68.1242H58.5432C62.8788 68.1242 63.2215 68.1549 64.7785 68.6822C65.6846 68.9893 66.9482 69.5901 67.5863 70.0174C70.0899 71.6945 72.145 74.7916 72.6614 77.6659C72.8049 78.4638 72.8957 82.6178 72.8957 88.3755V97.7815H69.0858H65.276V92.553C65.276 86.9627 65.2446 86.7973 64.1875 86.7973C63.1303 86.7973 63.0989 86.9627 63.0989 92.553V97.7815H37.5186H11.9382V92.553C11.9382 86.9627 11.9068 86.7973 10.8496 86.7973C9.79247 86.7973 9.76112 86.9627 9.76112 92.553V97.7815H5.95127H2.14143V88.3755C2.14143 82.6178 2.23221 78.4638 2.37568 77.6659C3.12437 73.4985 6.34401 69.9394 10.6319 68.539C11.6127 68.2187 12.6272 68.1457 16.2378 68.1361L20.6464 68.1242V72.5007ZM23.4988 79.607C25.4429 80.9177 25.4429 83.6699 23.4988 84.9805C21.9485 86.0255 19.695 85.4133 18.8507 83.7173C17.7792 81.5655 19.3169 79.1084 21.7349 79.1084C22.4372 79.1084 22.9915 79.265 23.4988 79.607ZM84.2249 88.3766C83.2774 89.4027 83.9963 90.9713 85.4137 90.9713C86.3074 90.9713 87.0465 90.2751 87.0465 89.4335C87.0465 88.0567 85.1693 87.3535 84.2249 88.3766Z" fill="black"/>
</svg>
