<svg width="100" height="100" viewBox="0 0 100 100" fill="none" xmlns="http://www.w3.org/2000/svg">
<path fill-rule="evenodd" clip-rule="evenodd" d="M29.8904 0.0498223C15.0511 1.97593 3.35964 13.6349 0.672827 29.1867C0.240686 31.6874 0.0894758 36.7834 0.371969 39.3191C1.44412 48.9403 5.50393 57.8443 12.9257 66.8512L14.6635 68.9603L12.8507 70.0882C11.8538 70.7084 9.19823 72.2476 6.94981 73.5083C4.70139 74.7692 2.64794 76.0111 2.38693 76.2679C1.0403 77.5927 0 80.0827 0 81.9811C0 83.5323 0.389552 84.7054 2.64383 89.9417C5.08234 95.6059 5.65612 96.4581 7.77541 97.5612C8.9972 98.1974 9.20604 98.2396 11.1325 98.2396C13.1385 98.2396 13.2268 98.2194 14.8782 97.3834C15.8083 96.9123 16.6654 96.3369 16.783 96.1045C17.3142 95.0541 16.6917 93.794 15.6417 93.794C15.3346 93.794 14.4146 94.1302 13.5972 94.541C12.248 95.2193 11.9878 95.2807 10.7715 95.2079C9.2373 95.1161 8.07431 94.4618 7.41692 93.3204C6.5712 91.8528 3.06484 83.3326 2.98044 82.5409C2.86069 81.4166 3.19163 80.1915 3.89083 79.1698C4.34212 78.5104 4.96571 78.0642 6.87069 77.0384C19.4596 70.2586 29.8736 62.5523 36.924 54.7989C43.04 48.0727 47.0652 40.3935 49.5213 30.7654C51.9427 21.2738 51.8798 13.7323 49.3344 8.3688C49.0568 7.78362 48.8583 7.27413 48.8936 7.2367C49.0384 7.08369 51.988 9.2511 53.6714 10.7473C57.7531 14.3754 61.1124 19.6188 62.8103 25.0115C65.0407 32.0962 64.9817 39.1592 62.6288 46.7526L61.9241 49.0272L60.241 50.1644C54.8338 53.8182 50.6165 60.3109 49.2275 67.12L48.869 68.8776L46.8523 70.9176C40.7955 77.0446 32.2029 83.6591 23.1938 89.1295C21.9282 89.8981 20.7633 90.6638 20.6052 90.8311C20.1231 91.3414 20.2432 92.4613 20.8324 92.9518C21.1155 93.1875 21.5158 93.3804 21.7219 93.3804C22.2531 93.3804 28.6938 89.4091 32.2 86.9195C32.9869 86.3608 33.7494 85.952 33.8945 86.011C34.0397 86.0699 35.4877 87.0144 37.1123 88.1099C40.9334 90.6868 46.4995 94.0373 50.826 96.3654L54.26 98.2132L56.022 98.3023C58.0307 98.4038 59.174 98.1011 60.6265 97.0827L61.5117 96.4622L62.9105 97.2078C68.7526 100.322 76.123 100.87 82.3763 98.6561C89.9935 95.9593 96.099 89.5594 98.6533 81.5942C101.461 72.8408 99.8155 63.0784 94.3091 55.8129L92.9882 54.0704L93.9306 53.099C96.3621 50.5923 97.0727 47.2745 95.9097 43.8578C95.3468 42.2042 95.3367 40.4386 95.8823 39.1429C96.1123 38.5968 96.8204 37.5733 97.4559 36.8684C100.06 33.9799 100.66 30.5516 99.1667 27.0985C98.2694 25.0239 96.2535 23.2539 93.8714 22.4491C92.6407 22.0333 91.6887 21.2573 90.9346 20.0549C90.1508 18.8047 89.511 18.4921 88.7104 18.9677C87.9582 19.4145 87.7648 20.2207 88.1858 21.1551C89.0665 23.11 90.9375 24.7313 93.2547 25.5475C94.7586 26.0772 95.7944 26.9581 96.3994 28.2219C97.5648 30.6556 97.2131 32.5522 95.1517 34.9545C93.6165 36.7433 92.9331 38.0968 92.6086 39.9915C92.3502 41.4997 92.4723 42.6397 93.117 44.743C93.3707 45.5709 93.5745 46.5945 93.5698 47.0175C93.5524 48.5826 92.634 50.4062 91.406 51.3145L90.6988 51.8377L88.8147 50.4856C86.4567 48.7935 85.1987 48.1196 82.6366 47.1755C79.7122 46.0982 77.5994 45.7444 74.1399 45.7527C71.1755 45.7597 68.5305 46.1724 66.4362 46.9547C65.7594 47.2071 65.6201 47.2133 65.7022 46.9873C65.9339 46.348 66.8046 42.2898 67.0391 40.7562C67.4099 38.3315 67.3577 31.9064 66.9486 29.5903C66.1433 25.0309 64.7733 21.0309 62.8157 17.5248L61.7616 15.6367L62.383 14.6701C63.7517 12.5407 66.544 11.787 68.6699 12.9728C72.41 15.0592 71.9718 14.9093 74.328 14.9093C76.6685 14.9093 77.049 14.7817 79.7077 13.1054C80.6322 12.5227 80.9596 12.429 82.052 12.435C83.5895 12.4437 84.7142 12.9418 85.9429 14.1583C86.9085 15.1146 87.4245 15.2128 88.1796 14.584C88.5666 14.2619 88.6944 13.9695 88.6944 13.4056C88.6944 12.7717 88.5412 12.5037 87.7033 11.671C85.8446 9.82408 83.2516 8.97527 80.8633 9.43224C79.6497 9.66424 79.1753 9.87391 76.6796 11.282C75.6217 11.879 75.3742 11.9363 74.1399 11.8699C73.3864 11.8296 72.5092 11.6472 72.1863 11.4638C71.8639 11.281 71.0287 10.7994 70.3303 10.394C67.1141 8.52657 63.409 9.08279 60.8178 11.8217L59.8034 12.8941L58.5443 11.4109C53.9789 6.03307 47.2251 1.99868 40.3169 0.522717C38.6487 0.166443 37.3763 0.0574729 34.3837 0.015084C32.2885 -0.0146916 30.2665 0.00102335 29.8904 0.0498223ZM39.2678 3.63137C41.6574 4.36522 43.1264 5.24256 44.648 6.84445C46.1982 8.47673 47.0561 10.0362 47.649 12.3006C48.8264 16.7984 48.5637 22.4072 46.8509 29.3339L46.2496 31.7656L45.6168 30.2249C43.3645 24.7414 38.5678 21.5662 33.0244 21.8896C28.0198 22.1814 23.447 25.6999 21.7946 30.5295L21.3449 31.8442L21.0061 30.6139C19.1976 24.045 18.7116 17.3772 19.7222 12.9987C20.4732 9.74488 22.2955 6.87009 24.5984 5.30584C25.7806 4.50314 27.8844 3.66425 29.5973 3.31294C31.7608 2.86899 37.389 3.05447 39.2678 3.63137ZM18.0477 8.7168C15.3515 14.893 15.7114 23.8211 19.0845 34.4394C21.6367 42.4739 25.0935 48.6678 30.1149 54.2038L31.6371 55.8822L30.9104 56.6092C28.7434 58.7764 24.7067 62.047 20.4153 65.1116L17.2895 67.3439L16.15 66.0429C9.70226 58.6823 5.20894 49.9703 3.67925 41.8637C3.08242 38.7006 3.03768 32.7118 3.58782 29.5903C4.36732 25.1682 6.01012 20.9105 8.41854 17.0707C10.0947 14.3981 13.9178 10.3673 16.5081 8.54104C17.5826 7.78362 18.5219 7.16185 18.5955 7.15957C18.6692 7.15709 18.4226 7.85785 18.0477 8.7168ZM73.1879 20.0611C70.4581 21.1309 69.1718 24.4664 70.4456 27.1721C72.2849 31.0789 77.3053 30.9838 79.2332 27.0056C79.7372 25.966 79.7069 23.8474 79.1724 22.7558C78.6635 21.7161 77.724 20.7271 76.7984 20.2565C75.8663 19.7824 74.1373 19.6889 73.1879 20.0611ZM76.037 23.4694C77.6365 24.9817 76.0085 27.6609 74.0201 26.7891C72.6125 26.1721 72.5197 23.9499 73.8683 23.1588C74.6275 22.7134 75.3468 22.8164 76.037 23.4694ZM36.2314 25.2545C38.6586 25.9236 40.7553 27.5627 42.1904 29.9129C43.8138 32.5714 44.1168 36.1155 43.0154 39.5592C41.6817 43.7281 39.2162 47.7299 35.2005 52.2429L33.8303 53.783L32.9158 52.8525C32.4129 52.3407 31.3052 51.0441 30.454 49.9709C24.2026 42.089 22.4309 35.6765 25.0591 30.4443C27.1485 26.2844 31.9227 24.0667 36.2314 25.2545ZM81.4429 32.0352C79.0466 32.9812 77.7682 35.0113 78.0096 37.4873C78.3683 41.166 82.272 43.2505 85.2929 41.3767C87.9938 39.7012 88.4656 35.9104 86.2793 33.4492C85.0563 32.0724 82.9263 31.4496 81.4429 32.0352ZM84.1399 35.5196C85.0735 36.448 84.8182 38.2211 83.6712 38.7742C81.8469 39.6539 80.0799 37.4428 81.2976 35.8043C82.0688 34.7665 83.2621 34.647 84.1399 35.5196ZM78.7678 49.2385C83.2514 50.225 87.1164 52.4301 90.3583 55.8507C98.0704 63.9886 99.2732 76.3682 93.3012 86.1392C92.1159 88.0785 89.2316 91.2175 87.411 92.5498C83.0855 95.7147 78.7846 97.0356 73.4561 96.8358C69.3711 96.6826 66.0197 95.6777 62.8278 93.6486C50.3751 85.7324 47.7934 68.1106 57.4233 56.7599C61.0264 52.5132 66.2033 49.6382 71.5138 48.9347C73.3823 48.6872 76.9394 48.8361 78.7678 49.2385ZM69.4428 56.5461C68.1755 57.3641 68.0905 57.7018 68.0172 62.2091L67.9506 66.2929H64.2467C60.1449 66.2929 59.7736 66.3835 58.9659 67.5821C58.5226 68.2399 58.5109 68.3743 58.5109 72.8063C58.5109 77.1757 58.5285 77.3851 58.9542 78.1099C59.6772 79.3406 60.3995 79.5265 64.4585 79.5265H67.9561L68.02 83.5069C68.1171 89.5685 68.2095 89.6585 74.3454 89.6585C78.5672 89.6585 79.0722 89.548 79.9611 88.43L80.4892 87.7659V83.6461V79.5265H84.1096C88.1247 79.5265 88.6522 79.407 89.5338 78.298L90.0619 77.6339L90.0611 72.9455C90.0601 66.2257 90.2438 66.4451 84.4941 66.2929L80.5868 66.1895L80.4892 62.054C80.3829 57.5573 80.3131 57.2467 79.2556 56.5641C78.6891 56.1985 78.2472 56.1624 74.3352 56.1624C70.4927 56.1624 69.9744 56.2031 69.4428 56.5461ZM77.5927 63.243C77.6654 67.7899 77.7973 68.2523 79.2279 68.9853C79.9337 69.3472 80.4384 69.3945 83.579 69.3945H87.1315V72.9097V76.4249H83.4098C79.2887 76.4249 78.9196 76.5146 78.1114 77.7141C77.6783 78.3568 77.6533 78.5857 77.5898 82.478L77.5232 86.5668L74.2686 86.5101L71.0141 86.4535L70.9164 82.318C70.7759 76.3707 70.9666 76.5729 65.358 76.4249L61.4414 76.3215L61.3878 72.858L61.3343 69.3945H64.9594C68.9796 69.3945 69.5065 69.2752 70.3883 68.1661L70.9164 67.5019V63.3821V59.2625H74.2227H77.5288L77.5927 63.243ZM49.4434 79.5964C50.27 83.0241 51.9016 86.6019 53.8787 89.3222C54.8965 90.7225 56.9943 93.0248 58.095 93.9495L58.8512 94.5847L58.2513 94.913C57.8946 95.1082 57.1657 95.2414 56.4543 95.2414C55.3162 95.2414 55.055 95.1314 51.121 92.995C44.673 89.4935 36.1365 84.1266 36.5356 83.8255C38.9497 82.0043 43.4151 78.2964 45.6325 76.2716L48.5475 73.6098L48.7919 75.7593C48.9263 76.9414 49.2195 78.668 49.4434 79.5964Z" fill="black"/>
</svg>
