<svg width="100" height="100" viewBox="0 0 100 100" fill="none" xmlns="http://www.w3.org/2000/svg">
<path fill-rule="evenodd" clip-rule="evenodd" d="M45.1173 0.147172C42.0066 0.614142 39.2553 2.02934 37.0084 4.318C35.1904 6.16963 34.3659 7.47934 33.5218 9.85685C32.9462 11.4777 32.913 11.7267 32.9154 14.4093C32.9177 17.0017 32.9648 17.3826 33.4604 18.8128C35.5703 24.9026 40.8649 28.737 47.137 28.7178C52.7808 28.7004 57.693 25.6107 60.084 20.5743C61.1017 18.4308 61.4176 16.9704 61.4176 14.4093C61.4176 11.8482 61.1017 10.3878 60.084 8.24438C57.4111 2.61393 51.1714 -0.761912 45.1173 0.147172ZM50.293 2.00116C53.8322 2.84057 56.9024 5.36545 58.5987 8.83152C60.3816 12.4747 60.3671 16.2966 58.5565 20.085C57.9069 21.4438 57.4531 22.0552 56.0785 23.423C54.2316 25.261 52.5514 26.238 50.1954 26.8441C48.2916 27.334 44.6924 27.1633 42.9197 26.4994C40.9635 25.7667 39.5174 24.8367 38.0897 23.3935C36.6022 21.8896 35.7198 20.4893 34.9981 18.487C34.5347 17.2015 34.4806 16.7753 34.4806 14.4093C34.4806 12.0434 34.5347 11.6171 34.9981 10.3317C35.7298 8.30172 36.6165 6.8922 38.0913 5.41497C41.3523 2.14794 45.7386 0.920823 50.293 2.00116ZM45.3138 6.12697C44.6174 6.27277 43.789 6.91275 43.4524 7.56506C43.2928 7.87429 43.1623 8.60371 43.1623 9.18634V10.2457L41.8925 10.3479C40.4708 10.4622 39.8064 10.809 39.2465 11.7288C38.9343 12.2416 38.8657 12.7174 38.8651 14.3702C38.8643 16.6248 39.0687 17.2417 40.048 17.9404C40.4605 18.2345 41.0493 18.403 41.9069 18.4719L43.1623 18.5729L43.1631 19.6714C43.1635 20.4155 43.2868 20.9721 43.5452 21.3964C44.1594 22.4057 44.8188 22.6292 47.1833 22.6292C48.9345 22.6292 49.3725 22.5658 49.9074 22.2347C50.7223 21.7301 51.1722 20.7733 51.1722 19.5444V18.5737L52.3127 18.47C54.737 18.2498 55.4701 17.2967 55.4701 14.3651C55.4701 12.9822 55.3844 12.3798 55.1138 11.8619C54.6481 10.9708 53.3565 10.2994 52.1076 10.2994H51.1722V9.26874C51.1722 7.06012 50.1032 6.13519 47.4728 6.06806C46.5526 6.04457 45.5811 6.07099 45.3138 6.12697ZM49.2014 8.03301C49.5473 8.34674 49.6093 8.63032 49.6093 9.89913C49.6093 10.8019 49.7023 11.4885 49.8437 11.6302C49.9824 11.7692 50.6498 11.8651 51.4779 11.8651C52.5983 11.8651 52.9804 11.9461 53.3925 12.2708C53.8762 12.6518 53.9072 12.7763 53.9072 14.3346C53.9072 15.8343 53.8613 16.0388 53.4276 16.4731C53.0057 16.896 52.7763 16.9536 51.5131 16.9536C50.6576 16.9536 49.9836 17.0483 49.8437 17.1884C49.7032 17.3292 49.6093 18.0093 49.6093 18.8855C49.6093 20.9365 49.4659 21.0635 47.1508 21.0635C44.8254 21.0635 44.7252 20.9751 44.7252 18.9207C44.7252 17.9351 44.6385 17.3223 44.481 17.1939C44.3468 17.0843 43.5036 16.9624 42.6077 16.923C40.5331 16.8317 40.4272 16.7095 40.4272 14.4093C40.4272 12.1091 40.5331 11.987 42.6077 11.8956C43.5036 11.8562 44.3468 11.7343 44.481 11.6247C44.6379 11.4969 44.7252 10.8883 44.7252 9.92144C44.7252 7.74649 44.946 7.55665 47.3943 7.62436C48.4537 7.65372 48.8923 7.75294 49.2014 8.03301ZM11.8067 22.3079C9.60707 22.8895 8.21863 23.8223 6.9183 25.5917C5.65489 27.3111 5.18348 28.9938 5.30617 31.3457C5.39935 33.1298 5.39154 33.1719 4.94455 33.2842C4.28403 33.4504 3.09779 34.5563 2.79088 35.2922C2.4527 36.1031 2.4527 37.5337 2.79088 38.3445C2.93603 38.6925 3.35821 39.2401 3.72901 39.5615C4.09961 39.8827 9.20033 43.272 15.0639 47.0933L25.7247 54.0411L14.5654 54.1389C3.59831 54.235 3.39259 54.244 2.62462 54.6591C1.6017 55.2122 0.884334 55.9888 0.393779 57.0746C0.066352 57.7993 -0.00339237 58.3542 0.000124154 60.206C0.00637575 63.4787 0.6204 64.8111 2.58789 65.82C3.53736 66.3069 3.80832 66.3455 6.87375 66.4293L10.1461 66.5189V75.2563V83.9939L9.42343 84.381C8.20359 85.0343 6.74872 86.6242 6.02959 88.0907C5.389 89.3963 5.3597 89.5513 5.3597 91.6229C5.3597 93.7329 5.37884 93.8286 6.09406 95.2788C7.748 98.6328 11.1215 100.423 14.8221 99.9098C17.4675 99.543 19.8751 97.7677 21.1016 95.2796C21.6476 94.1719 21.7619 93.6985 21.8323 92.2539L21.9157 90.5414H50.0451H78.1746L78.0519 91.0307C77.8684 91.7629 78.2842 94.0233 78.8179 95.1957C79.4735 96.6363 81.25 98.4427 82.7084 99.152C85.4733 100.496 88.8652 100.224 91.2631 98.4648C95.9369 95.0361 95.8295 87.8251 91.0587 84.7481L89.8756 83.9851L89.8649 75.252L89.8539 66.5189L93.1262 66.4293C96.1917 66.3455 96.4626 66.3069 97.4121 65.82C99.3796 64.8111 99.9936 63.4787 99.9999 60.206C100.003 58.3542 99.9337 57.7993 99.6062 57.0746C98.8416 55.3823 97.4602 54.3859 95.6142 54.1949L94.5866 54.0886L95.3475 53.0864C96.6226 51.4068 96.9727 50.2683 96.9792 47.7783C96.9843 45.7562 96.9466 45.545 96.3593 44.3026C95.2645 41.9875 93.0485 40.1007 90.6842 39.4709C89.8975 39.2613 89.8537 39.2116 89.8496 38.5232C89.8404 36.9585 88.648 35.3813 87.1616 34.9677C86.1399 34.6834 51.9329 34.6898 50.9096 34.9746C49.7914 35.2856 48.9085 36.2318 48.2765 37.7969L47.7231 39.1669L44.9723 39.2211L42.2215 39.2754L29.9363 31.0824C22.6391 26.2159 17.2579 22.7541 16.6825 22.5562C15.3728 22.1055 13.0245 21.9859 11.8067 22.3079ZM16.2023 24.0932C16.6858 24.264 22.6246 28.0996 29.3996 32.617L41.7176 40.8305H44.4068H47.0959L46.9584 41.2708C46.8826 41.5131 45.788 44.4854 44.5256 47.8761L42.2304 54.0411L40.8893 54.0951L39.5481 54.1493L24.0168 44.0081C15.4746 38.4305 8.18288 33.6925 7.81306 33.4789C6.97144 32.9936 6.75497 32.2497 6.86867 30.2348C6.99918 27.9238 8.13267 25.9969 10.1461 24.6631C11.7029 23.6317 14.2235 23.3945 16.2023 24.0932ZM8.84047 27.4954C8.66699 27.7737 8.74279 27.9066 9.27398 28.2556C9.85225 28.6353 9.94368 28.6472 10.1711 28.3726C10.3832 28.1166 10.3621 28.0201 10.041 27.7802C9.25679 27.1934 9.0581 27.1465 8.84047 27.4954ZM12.1226 29.6322C11.9749 29.9086 12.0694 30.063 12.5992 30.4111C13.2189 30.8178 13.2719 30.8235 13.4444 30.5004C13.5921 30.2241 13.4975 30.0696 12.9677 29.7215C12.348 29.3148 12.2951 29.3091 12.1226 29.6322ZM15.4293 31.8119C15.2622 32.1246 15.3384 32.2473 15.9093 32.5847C16.5442 32.9599 16.5997 32.964 16.7689 32.6472C16.9125 32.3785 16.8132 32.2188 16.2889 31.8743C15.6471 31.4529 15.6221 31.4512 15.4293 31.8119ZM18.626 34.0103C18.4945 34.2234 18.8309 34.5718 19.5528 34.9699C20.0861 35.264 20.2201 34.5434 19.7091 34.1291C19.2191 33.7316 18.8247 33.6882 18.626 34.0103ZM7.45339 35.0797C7.59132 35.163 14.758 39.8378 23.3793 45.4679L39.0548 55.7046H41.1016C42.9621 55.7046 43.168 55.6682 43.3618 55.3054C43.4792 55.0858 45.0224 51.0257 46.7912 46.2832C48.5598 41.5405 50.0903 37.5044 50.192 37.3137C50.294 37.1231 50.6793 36.8237 51.0485 36.6481C51.6532 36.3606 53.4339 36.3291 69.0478 36.3291C84.8396 36.3291 86.437 36.3581 87.0645 36.6563C88.2816 37.2351 88.291 37.3124 88.291 46.7543C88.291 53.0893 88.3504 55.2944 88.5255 55.4698C88.6905 55.6351 89.8057 55.7046 92.2936 55.7046C95.5696 55.7046 95.891 55.7367 96.699 56.145C98.0271 56.8159 98.4499 57.8079 98.4499 60.2538C98.4499 62.4219 98.2301 63.1354 97.2888 64.0224L96.666 64.6095H50H3.33398L2.71117 64.0224C1.75858 63.1247 1.54974 62.4285 1.55326 60.1633C1.55736 57.6933 1.92894 56.8392 3.30175 56.145L4.17267 55.7046H16.5127C29.6837 55.7046 29.4365 55.7224 29.2562 54.7846C29.2144 54.5671 24.5251 51.3868 16.981 46.459C10.267 42.0735 4.61966 38.2986 4.43172 38.0705C3.94977 37.4858 3.9818 36.1281 4.49287 35.4772C5.13268 34.6624 6.46721 34.4831 7.45339 35.0797ZM21.9471 36.1631C21.8157 36.3763 22.1521 36.7246 22.8739 37.1227C23.4215 37.4247 23.5319 36.7019 23.0007 36.2925C22.4768 35.8887 22.1419 35.8476 21.9471 36.1631ZM25.2671 38.3179C25.113 38.5677 25.854 39.2648 26.2736 39.2648C26.7702 39.2648 26.8074 38.819 26.3404 38.4594C25.7979 38.0416 25.4646 37.9975 25.2671 38.3179ZM28.6152 40.3927C28.526 40.6256 28.6557 40.8661 29.0327 41.1673C29.5245 41.5601 29.6096 41.5738 29.8751 41.3033C30.1393 41.0342 30.1291 40.9708 29.78 40.7064C28.9776 40.0985 28.7512 40.0377 28.6152 40.3927ZM53.6857 40.8334C53.5005 40.9418 52.2769 43.9513 50.7729 47.9973C48.7966 53.3132 48.2265 55.0496 48.3781 55.2905C48.5545 55.5708 49.3946 55.6126 55.7614 55.658C60.9014 55.6948 63.0217 55.6463 63.2129 55.4874C63.4298 55.3069 63.48 53.9299 63.48 48.1527C63.48 41.3209 63.4652 41.0319 63.1022 40.8373C62.6206 40.5792 54.1262 40.5757 53.6857 40.8334ZM68.0849 40.9422C67.8174 41.2104 67.778 42.1465 67.778 48.2423C67.778 53.4201 67.8387 55.2958 68.0124 55.4698C68.1869 55.6445 70.212 55.7046 75.9178 55.7046C83.3017 55.7046 83.5961 55.6905 83.7909 55.3261C83.9192 55.0858 83.9931 52.4505 83.9931 48.1151C83.9931 41.7445 83.9688 41.2607 83.6357 40.9587C83.3165 40.6692 82.4872 40.6348 75.8353 40.6348C69.3292 40.6348 68.3533 40.6735 68.0849 40.9422ZM92.5447 42.0758C96.3818 44.6633 96.5179 50.7376 92.8002 53.4712C92.0566 54.018 91.7318 54.1301 90.8796 54.134L89.8539 54.1389V47.4966V40.8542L90.7442 41.1581C91.2338 41.3252 92.0439 41.7382 92.5447 42.0758ZM31.8534 42.5506C31.6949 42.8471 31.7643 42.9749 32.2343 43.253C33.2303 43.8423 33.5683 43.2736 32.6229 42.5991C32.0683 42.2034 32.0398 42.2016 31.8534 42.5506ZM61.9171 48.1697V54.1389H56.0562C52.8328 54.1389 50.1954 54.1072 50.1954 54.0683C50.1954 53.9428 54.473 42.5874 54.5943 42.3907C54.6635 42.2788 56.193 42.2005 58.3144 42.2005H61.9171V48.1697ZM82.3843 48.2186L82.4358 54.1389H75.8885H69.3409V48.3002C69.3409 45.0888 69.4007 42.4015 69.4737 42.3283C69.5468 42.2551 72.47 42.2185 75.9695 42.2469L82.3325 42.2983L82.3843 48.2186ZM34.7459 44.4701C34.5386 44.7205 34.5435 44.8078 34.7742 44.962C35.5856 45.5039 35.7665 45.5522 36.0617 45.3068C36.3266 45.0864 36.3197 45.0289 36.0003 44.7896C35.2345 44.2159 35.005 44.1576 34.7459 44.4701ZM37.9995 46.6373C37.8785 46.953 37.9817 47.0763 38.7219 47.5004C39.1064 47.7207 39.4504 47.589 39.4504 47.2219C39.4504 47.016 38.498 46.3104 38.2202 46.3104C38.1677 46.3104 38.0684 46.4576 37.9995 46.6373ZM41.0926 48.6887C40.9612 48.9019 41.2976 49.2502 42.0194 49.6483C42.567 49.9503 42.6774 49.2275 42.1462 48.8181C41.6223 48.4143 41.2874 48.3732 41.0926 48.6887ZM15.4209 74.9334V83.3979H13.5649H11.709V74.9334V66.4688H13.5649H15.4209V74.9334ZM83.0162 69.8938V73.3187H50H16.9838V69.8938V66.4688H50H83.0162V69.8938ZM88.291 74.9334V83.3979H86.4351H84.5791V74.9334V66.4688H86.4351H88.291V74.9334ZM82.9711 79.3369L83.0237 83.6915H50.0037H16.9838V79.2874V74.8833L49.9512 74.9328L82.9186 74.9823L82.9711 79.3369ZM16.4305 85.4958C17.7738 86.1119 18.9442 87.2505 19.6491 88.6266C20.4133 90.1187 20.5222 92.5097 19.9011 94.1607C19.2961 95.7691 17.7058 97.3612 16.1033 97.9632C14.6912 98.4934 12.7315 98.5472 11.3718 98.0928C9.41034 97.4375 7.54834 95.4331 6.99312 93.3792C6.69383 92.2715 6.88001 90.0302 7.36197 88.9413C7.82673 87.8909 9.10225 86.4301 10.0865 85.8206C11.8563 84.725 14.4593 84.5918 16.4305 85.4958ZM89.3192 85.5194C90.6016 86.1481 92.0723 87.6621 92.6322 88.9301C93.1843 90.1805 93.3054 92.1451 92.9135 93.4957C91.4586 98.5093 85.3067 100.109 81.6331 96.4284C79.235 94.0261 78.9568 90.3079 80.9696 87.5597C82.8031 85.0562 86.5207 84.1479 89.3192 85.5194ZM80.2011 86.0465C79.8096 86.4806 79.2536 87.3172 78.9654 87.9058L78.4414 88.9757H50H21.5586L21.0346 87.9058C20.7464 87.3172 20.1904 86.4806 19.7989 86.0465L19.0872 85.2572H50H80.9128L80.2011 86.0465ZM12.389 88.6506C11.5503 89.0321 10.579 90.2154 10.4235 91.0454C10.131 92.6068 11.3341 94.4897 12.8001 94.7653C14.8483 95.1502 16.5499 93.9388 16.7396 91.9605C16.9128 90.1543 15.6279 88.6266 13.7931 88.4577C13.3453 88.4164 12.7135 88.5033 12.389 88.6506ZM85.0482 88.7614C83.8319 89.3149 83.3093 90.1837 83.3093 91.6525C83.3093 92.9587 83.6131 93.5667 84.6544 94.3457C85.4626 94.9502 87.3761 94.9144 88.2668 94.278C89.8123 93.1737 90.0346 90.9806 88.746 89.5515C87.7044 88.3966 86.4429 88.1269 85.0482 88.7614ZM14.6545 90.5263C15.7366 91.6106 15.1036 93.2814 13.6106 93.2814C11.8737 93.2814 11.3352 90.9914 12.887 90.2046C13.6276 89.8292 14.032 89.9028 14.6545 90.5263ZM87.5529 90.498C87.7387 90.6841 87.9447 91.1062 88.0105 91.436C88.1851 92.3103 87.3422 93.2814 86.4089 93.2814C84.8499 93.2814 84.1978 91.4538 85.3962 90.4436C86.0916 89.8574 86.9346 89.8785 87.5529 90.498Z" fill="black"/>
</svg>
