<svg width="100" height="100" viewBox="0 0 100 100" fill="none" xmlns="http://www.w3.org/2000/svg">
<path fill-rule="evenodd" clip-rule="evenodd" d="M51.1354 5.07697C48.9887 5.21955 45.8474 5.76807 43.5441 6.40281C24.6406 11.6121 12.8033 30.3306 16.173 49.6849C16.336 50.6215 16.5536 51.6793 16.6563 52.0358C16.8195 52.6014 16.8011 52.6705 16.5104 52.5802C15.4092 52.2374 13.1474 52.0856 11.7495 52.261C6.99151 52.8577 3.22394 55.5718 1.2398 59.8325C-1.78463 66.327 0.90534 73.9564 7.34011 77.1344C10.0874 78.4915 12.9318 78.8919 15.6868 78.31C16.3888 78.1617 16.9772 78.0531 16.9945 78.0686C17.0116 78.0841 16.4201 79.138 15.6801 80.4106C14.0263 83.2545 13.9872 83.3692 14.4984 83.8804C14.9652 84.3473 15.542 84.3999 15.9309 84.011C16.0805 83.8614 17.076 82.2044 18.143 80.3287C19.9386 77.1725 20.2316 76.7722 22.0767 74.9546C23.7221 73.3338 24.2103 72.7091 24.8716 71.3778C26.904 67.2856 26.7571 62.3799 24.4892 58.6198C23.5312 57.0316 21.9224 55.3379 20.494 54.4143C19.1385 53.5376 19.0857 53.4458 18.5234 50.9949C16.4324 41.8807 18.113 32.0928 23.1683 23.9419C28.1639 15.8875 36.6563 9.96044 46.1274 7.91856C58.1967 5.31657 70.9945 9.27366 79.5348 18.248C81.5164 20.3303 82.9548 22.2229 84.5954 24.9068C85.9939 27.1942 87.122 28.3293 88.71 29.0468C93.1051 31.0323 96.1126 34.4839 97.4304 39.0545C98.0563 41.2254 98.0488 44.8309 97.4137 47.0671C96.6606 49.7189 95.5747 51.5277 93.4578 53.657C91.8547 55.2695 91.3044 55.6806 89.548 56.5785C86.9694 57.8965 86.0847 58.7164 84.6123 61.1536C80.8876 67.3195 76.0408 71.8958 69.9277 75.0191C62.0679 79.0347 53.1398 80.0054 44.4514 77.7894C43.3316 77.5038 42.7142 77.4317 42.4852 77.56C42.0252 77.8172 33.56 92.5242 33.559 93.0672C33.5586 93.3202 33.7701 93.6435 34.0606 93.8336C34.5348 94.1445 34.5902 94.1419 35.0537 93.7892C35.3237 93.5836 37.3004 90.3665 39.4466 86.6399C42.875 80.6869 43.4041 79.8678 43.8051 79.8913C44.0563 79.9061 45.1455 80.1027 46.2256 80.3281C54.4201 82.0389 63.1314 80.8246 70.8712 76.8922C76.967 73.7951 81.8116 69.4533 85.4142 63.8585C86.1446 62.7244 86.9999 61.3987 87.3149 60.9127C87.8921 60.022 88.3383 59.7084 91.4487 58.0078C95.2709 55.918 98.3611 51.9028 99.5748 47.4492C99.9163 46.1959 100 45.3474 100 43.1392C100 39.8501 99.6304 38.2092 98.2641 35.4336C96.503 31.8559 93.9873 29.371 90.1985 27.4666C88.2383 26.4813 87.7192 25.9799 86.4816 23.8767C83.3849 18.615 78.8602 13.9507 73.811 10.8149C67.0875 6.63927 58.8823 4.56302 51.1354 5.07697ZM51.1686 11.8311C36.3352 13.0666 24.4016 24.5561 22.5514 39.3834C22.2507 41.7932 22.4043 46.6248 22.8552 48.9328C23.8802 54.1804 26.3475 59.3274 29.8328 63.4887C31.0838 64.9825 31.2899 65.4408 31.1689 66.4613C31.1239 66.8405 28.9565 70.7872 25.8211 76.199C21.0791 84.384 20.5704 85.3461 20.7625 85.7678C21.0575 86.4155 21.9018 86.604 22.3641 86.1256C22.8321 85.6415 32.7622 68.4833 33.0914 67.59C33.6544 66.062 33.3288 64.5302 32.1279 63.0586C28.9255 59.1345 27.0645 55.9773 25.8938 52.4833C23.0092 43.8733 24.216 34.3731 29.1441 26.8953C30.8274 24.3414 34.6813 20.4444 37.0934 18.8574C40.4419 16.6543 44.1433 15.1018 48.0914 14.2447C49.3989 13.9607 50.6118 13.8816 53.6885 13.8796C58.0614 13.8765 59.419 14.0778 62.9486 15.252C69.0173 17.2707 72.1165 20.087 73.6523 24.9779L74.1132 26.4459V43.041V59.6361L73.6535 61.109C72.9329 63.4178 72.1077 64.7841 70.3826 66.5249C69.0992 67.8201 68.4503 68.294 66.8467 69.1073C64.4278 70.3339 62.0432 71.1839 59.4208 71.7539C57.7289 72.1215 56.8135 72.1887 53.4921 72.1887C49.1621 72.1887 47.6748 71.9601 43.9671 70.7242C41.3056 69.8371 39.77 70.0439 38.3417 71.4819C38.0332 71.7923 35.4909 76.0075 32.6919 80.8487C27.7591 89.3814 27.6118 89.6667 27.8866 90.1585C28.2354 90.783 29.0382 90.9203 29.4725 90.4297C29.6443 90.2357 31.9226 86.365 34.5354 81.8283C37.3766 76.8954 39.5623 73.3163 39.9731 72.9243C40.6096 72.3173 40.7353 72.2757 41.6754 72.3609C42.2338 72.4114 43.5302 72.7185 44.5563 73.0432C47.598 74.0057 49.9274 74.3366 53.6885 74.3401C58.4386 74.3448 62.1239 73.5766 66.4206 71.6857C71.2062 69.5798 74.1095 66.52 75.6184 61.9928L76.0764 60.6181L76.1349 43.8266C76.1753 32.1704 76.1266 26.6478 75.9754 25.769C75.4933 22.9661 74.0628 20.2421 71.9133 18.0327C67.8018 13.8076 59.0068 11.1781 51.1686 11.8311ZM46.1274 29.0972C45.9114 29.3133 45.7347 29.6424 45.7347 29.8288C45.7347 30.0152 46.3283 30.7658 47.054 31.4969L48.3734 32.8265L47.4468 33.7672C46.5018 34.7266 46.2716 35.4474 46.7559 35.9317C47.2856 36.4613 47.9845 36.1885 49.1715 34.989L50.3375 33.8106H51.6074C52.4844 33.8106 53.1333 33.6867 53.7056 33.4096C54.5363 33.0074 56.3398 31.2648 56.3398 30.8642C56.3398 30.7467 56.1238 30.4345 55.8598 30.1705C55.2746 29.5853 54.9497 29.6717 53.8749 30.6986C53.0396 31.4969 52.1794 31.8467 51.052 31.8467C50.473 31.8467 50.1472 31.6228 48.7669 30.2756C47.8818 29.4115 47.0139 28.7044 46.8388 28.7044C46.6636 28.7044 46.3435 28.8812 46.1274 29.0972ZM83.2594 31.7868C82.889 31.9818 82.4029 32.3907 82.1792 32.6955C81.7827 33.2358 81.7711 33.4919 81.7209 42.8097C81.6629 53.483 81.6364 53.252 83.029 54.1823C84.4792 55.1511 86.1298 54.5578 88.3781 52.2602C89.681 50.9287 90.6573 49.3448 91.4195 47.3257C91.9144 46.0144 91.9629 45.6481 91.9733 43.1392C91.9862 40.0474 91.8215 39.3426 90.4707 36.717C89.6527 35.127 87.9349 33.1892 86.437 32.1668C85.3847 31.4486 84.1765 31.3043 83.2594 31.7868ZM86.5497 35.1363C88.9561 37.5391 89.9228 39.8045 89.9228 43.041C89.9228 44.9961 89.5767 46.4985 88.7483 48.1395C88.1024 49.419 86.1522 51.628 85.0878 52.286C83.8022 53.0804 83.8346 53.319 83.8346 43.0497C83.8346 38.0042 83.8935 33.8171 83.9656 33.7452C84.3959 33.3147 85.1112 33.6999 86.5497 35.1363ZM57.4577 48.2358C57.0431 48.6504 57.0282 49.3933 57.4278 49.7248C57.5942 49.8629 58.1896 50.0485 58.7509 50.1372C60.2688 50.3772 61.203 51.1312 62.1333 52.8675C62.839 54.1845 62.978 54.3335 63.5006 54.3335C63.9221 54.3335 64.1609 54.1933 64.3681 53.8241C64.632 53.3539 64.6079 53.2163 64.0539 52.0324C63.2848 50.3888 62.2691 49.2725 60.9603 48.6323C59.5985 47.9659 57.9178 47.7756 57.4577 48.2358ZM41.0651 52.5772C40.7068 52.828 40.63 53.0658 40.6371 53.9029C40.6418 54.4637 40.7993 55.3646 40.9871 55.9047L41.3286 56.8866L40.6141 57.9668C39.3097 59.9389 39.1811 60.2816 39.5401 60.8294C39.8959 61.3726 40.642 61.4602 41.091 61.0112C41.2526 60.8496 41.7094 60.1831 42.1061 59.5303C42.6063 58.7068 42.8964 58.399 43.0535 58.5251C43.4938 58.8786 46.1602 59.7343 46.8221 59.7343C47.3211 59.7343 47.5756 59.6084 47.8148 59.2433C48.3237 58.4668 47.8535 57.9601 46.1047 57.4008C45.3071 57.1457 44.4076 56.8108 44.1058 56.6567C43.2745 56.2324 42.7904 55.2876 42.7896 54.088C42.789 53.3196 42.6888 52.957 42.396 52.6642C41.9233 52.1915 41.6419 52.173 41.0651 52.5772ZM15.6763 54.5396C18.7556 55.2654 21.7792 57.6345 23.1131 60.3665C26.2428 66.7765 22.7737 74.3439 15.8831 76.1371C14.0235 76.6212 11.1387 76.4555 9.30402 75.7593C6.42041 74.665 3.89599 72.1402 2.80523 69.2593C2.18503 67.6212 1.95937 64.7704 2.31465 63.0594C2.84746 60.4922 4.56176 57.8908 6.71912 56.3758C9.46546 54.447 12.5775 53.8092 15.6763 54.5396ZM10.777 59.1451C10.4541 59.468 10.3842 59.7997 10.3842 61.0108V62.4838H8.95504C6.74504 62.4838 6.65274 62.5971 6.65274 65.3122C6.65274 68.0945 6.71853 68.1791 8.87766 68.1791H10.3842V69.7198C10.3842 71.8414 10.4753 71.9106 13.2723 71.9106C15.9136 71.9106 15.9531 71.8793 16.0511 69.7202L16.1212 68.1791H17.5733C19.6629 68.1791 19.811 67.9934 19.811 65.369C19.811 62.7034 19.7405 62.6085 17.688 62.5152L16.1194 62.4439L16.0481 60.8753C15.9548 58.8228 15.86 58.7523 13.1943 58.7523C11.4315 58.7523 11.1189 58.8032 10.777 59.1451ZM13.9192 62.4698C13.9192 64.5153 14.0481 64.6441 16.0935 64.6441H17.6507V65.3315V66.0188H16.1441C14.0932 66.0188 13.9192 66.1901 13.9192 68.2096V69.7503H13.2319H12.5445V68.2773C12.5445 66.2686 12.2947 66.0188 10.286 66.0188H8.81305V65.3315V64.6441H10.373C12.3444 64.6441 12.5445 64.432 12.5445 62.3418V60.9127H13.2319H13.9192V62.4698Z" fill="black"/>
</svg>
