<svg width="100" height="100" viewBox="0 0 100 100" fill="none" xmlns="http://www.w3.org/2000/svg">
<path fill-rule="evenodd" clip-rule="evenodd" d="M78.1224 0.490693C77.8368 0.923496 77.83 1.10413 78.0641 2.0223C78.4914 3.69719 78.3601 6.48611 77.7267 9.18965C77.376 10.6875 77.1674 12.1438 77.1608 13.1422C77.1481 15.0783 77.3672 15.5625 79.7552 18.8734C81.9401 21.9028 82.3678 22.7396 82.0666 23.3959C81.9436 23.6639 81.3202 24.2358 80.6811 24.6666C78.8744 25.8848 77.1097 27.8883 76.2226 29.7282C74.8627 32.549 74.8183 34.1476 76.0269 36.7835C77.0368 38.9861 78.5388 44.6285 78.2038 44.9611C78.1053 45.059 77.5685 45.0149 69.6983 44.2623C58.3989 43.1817 48.9519 41.7606 44.3916 40.4558C43.2529 40.13 43.2432 40.0331 43.8942 35.5167C44.7091 29.864 44.523 27.3093 43.186 25.7972C41.9116 24.3561 38.7032 23.8018 36.7994 24.6937C35.1103 25.485 33.871 27.1142 31.5751 31.5616C30.6035 33.4434 29.4003 34.7824 28.6804 34.7824C28.1151 34.7824 27.8231 34.2114 26.9121 31.3239C26.018 28.4907 25.1707 27.0239 23.9002 26.1101C22.311 24.967 20.0382 24.8091 17.9588 25.6972C15.9387 26.5601 14.8636 28.4937 14.8853 31.2251C14.9031 33.4207 15.3668 34.8648 17.4247 39.1302C20.4466 45.3938 21.446 47.8672 24.1052 55.6658C26.5473 62.827 27.646 64.8695 30.4107 67.3867C32.2725 69.0819 34.8111 70.2631 38.9271 71.3501C42.3164 72.2451 45.2622 73.1868 55.4819 76.6429C67.3279 80.649 72.4973 81.4269 75.9359 79.7204C77.1829 79.1016 77.9488 78.3989 78.4968 77.371C79.1041 76.2315 79.0223 74.7264 78.1799 71.541C77.792 70.0736 77.414 68.2505 77.3402 67.4896C77.1614 65.6513 77.5179 63.2247 78.3416 60.6715C79.7896 56.1828 80.5786 52.0892 80.7605 48.1222C80.8593 45.9694 80.8087 45.1934 80.4488 43.3343C79.9084 40.5436 79.2006 38.0976 78.3457 36.0669C77.9797 35.1974 77.6226 34.2328 77.5524 33.9235C77.3931 33.2217 77.8991 31.4203 78.5882 30.2369C79.2751 29.0571 81.118 27.1534 82.1608 26.5464C83.2597 25.9069 84.1371 24.8947 84.3964 23.9676C84.8919 22.1961 84.6395 21.6579 80.6749 16.0347C79.3218 14.1153 79.2392 13.5248 79.9044 10.5274C80.8656 6.19737 80.9739 4.23553 80.3983 1.58416C80.2926 1.09682 80.0627 0.541088 79.8877 0.348994C79.4138 -0.170963 78.5113 -0.0986313 78.1224 0.490693ZM85.7117 0.384765C85.4151 0.710257 85.3825 0.981994 85.5005 2.14918C85.6854 3.97703 85.3114 6.75468 84.568 9.07186C83.8013 11.4622 83.8242 13.5141 84.6365 15.2173C85.4315 16.8843 89.6753 21.9797 95.4232 28.1686C96.4759 29.302 97.2104 30.2897 97.4351 30.8737C97.7763 31.7604 97.7757 31.8197 97.4182 32.5326C97.0317 33.3035 96.8981 33.3881 93.5218 35.0001C90.6315 36.38 88.8034 38.3371 88.7917 40.0645C88.7881 40.5752 89.0001 40.9139 89.8528 41.7604C91.7493 43.6436 92.0062 45.3252 90.7198 47.4364C89.9095 48.7665 88.5624 49.8943 87.0692 50.4933C85.8471 50.9834 85.2953 51.6977 85.7097 52.2534C85.815 52.3943 86.1926 52.8925 86.5487 53.3603C88.1106 55.4119 87.7577 57.8298 85.5206 60.4031C84.1799 61.9456 83.8326 62.5332 83.5 63.8223C83.1313 65.2509 83.2864 66.6515 84.1136 69.3671C85.2535 73.1096 85.4601 75.2206 84.8976 77.3789C83.9978 80.8315 80.8216 83.5358 76.4467 84.5747C73.8677 85.187 71.6191 85.2711 68.0644 84.8887C64.4456 84.4994 63.363 84.615 61.3194 85.6093C58.8567 86.8075 57.1833 89.0711 55.2856 93.7721C54.7586 95.0774 54.1316 96.357 53.8923 96.6157C52.9184 97.6681 53.8611 97.6282 30.1258 97.6234C8.81215 97.6193 8.04743 97.6064 7.23374 97.2396C6.33347 96.8339 5.66648 95.962 5.47102 94.9351C5.38782 94.4978 5.765 92.8752 6.7636 89.3772C9.62325 79.3587 10.4274 75.252 10.4495 70.5529C10.462 67.8979 10.4041 67.3003 10.0144 66.0699C9.76716 65.2893 9.27214 64.2665 8.91426 63.7972C8.2817 62.9679 4.38803 60.2193 2.07853 58.9721C1.08989 58.4381 1.04132 58.4314 0.535952 58.7601C0.0154554 59.0988 -0.163086 59.8933 0.166529 60.4039C0.246942 60.5286 1.47723 61.3628 2.90038 62.2579C6.4523 64.4918 6.95249 64.9148 7.55738 66.1954C8.0534 67.2454 8.0745 67.4308 8.05439 70.5529C8.03728 73.2169 7.93517 74.32 7.49668 76.5805C6.81655 80.088 5.7041 84.4842 4.26323 89.3589C2.86017 94.1055 2.7722 95.361 3.72462 97.0442C4.06 97.6369 4.70988 98.4086 5.16867 98.759C6.86432 100.054 5.76282 99.9993 30.1692 99.9993C54.9114 99.9993 53.5299 100.077 55.2261 98.5942C56.2753 97.6774 56.5289 97.256 57.2619 95.2122C57.9387 93.325 59.6323 90.1014 60.4379 89.1672C60.7894 88.7593 61.5266 88.1826 62.076 87.8858C63.696 87.0103 64.5923 86.9247 68.2744 87.2933C73.5094 87.8174 76.8169 87.3452 80.6266 85.5304C82.4012 84.6848 82.9418 84.3075 84.2107 83.0279C87.8009 79.4077 88.433 75.5013 86.4896 68.9424C85.3457 65.0818 85.4374 64.2233 87.2266 62.049C89.4165 59.3879 90.2405 57.0599 89.7847 54.821C89.6542 54.1801 89.3827 53.372 89.1812 53.0253L88.8148 52.3949L89.8024 51.7656C91.1231 50.9241 92.4495 49.3929 93.2154 47.8257C94.4061 45.3896 94.0102 42.7975 92.104 40.5466C91.5321 39.8715 91.4195 39.6143 91.5713 39.3327C92.0186 38.5031 93.8611 37.2906 95.9648 36.4418C98.7462 35.3199 100 33.8879 100 31.8342C100 30.1356 99.3033 28.8441 97.1159 26.4868C91.7773 20.734 87.3994 15.5082 86.775 14.1432C86.2601 13.0173 86.3063 11.4697 86.9109 9.58905C87.9947 6.21911 88.283 1.26203 87.4484 0.345832C87.03 -0.113453 86.1478 -0.0936906 85.7117 0.384765ZM40.732 26.969C42.1532 27.5585 42.3429 29.5328 41.5266 35.2401C40.8039 40.2928 40.7181 42.0649 41.0927 44.2048C41.7095 47.7291 42.5772 49.5858 44.4941 51.4846C46.7302 53.6992 49.4133 54.8239 55.1069 55.9334C58.8684 56.6662 62.2125 57.3996 67.7774 58.712C70.0703 59.2527 72.8004 59.8316 73.8444 59.9984C74.8882 60.1652 75.7679 60.327 75.7994 60.3581C75.8306 60.3893 75.6835 61.1616 75.4726 62.0747C74.6533 65.6195 74.7654 68.4307 75.878 72.2465C76.7132 75.1111 76.7313 76.0657 75.965 76.8601C75.0482 77.8107 73.8601 78.1649 71.6696 78.1406C67.7288 78.0971 63.3244 76.9319 51.5663 72.8222C46.7796 71.1491 42.7591 69.8977 38.529 68.7641C35.0872 67.8418 33.4785 67.0128 31.6453 65.2169C29.2668 62.8865 28.5687 61.482 25.9971 53.8534C23.7216 47.103 21.7873 42.4234 18.9661 36.8428C17.7084 34.3551 17.2874 32.9351 17.2764 31.1454C17.2613 28.6622 18.3895 27.4702 20.7543 27.4702C22.7362 27.4702 23.6796 28.697 24.9268 32.8968C26.0212 36.5812 27.2654 37.6231 29.7522 36.9375C31.2168 36.5337 32.4548 35.0859 34.1853 31.7535C35.2918 29.6225 36.0336 28.4545 36.749 27.7172C37.7331 26.7028 37.7808 26.6796 38.8951 26.6796C39.5219 26.6796 40.3485 26.8099 40.732 26.969ZM0.224052 42.7734C0.0936791 42.9293 0.0156544 43.3517 0.0504869 43.7121C0.10602 44.2862 0.315612 44.5036 1.74434 45.4696C3.83827 46.885 7.43059 48.7153 10.464 49.9117C13.0904 50.9477 17.5895 52.3692 18.2456 52.3704C18.737 52.3714 19.3214 51.7925 19.3214 51.3052C19.3214 50.5279 18.907 50.2162 17.1811 49.6953C11.2251 47.8973 6.79843 45.9572 3.2075 43.5706C1.53773 42.461 0.677272 42.2311 0.224052 42.7734ZM46.0258 43.2803C47.3707 43.6064 48.6424 43.8732 48.8516 43.8732C49.1896 43.8732 49.2178 43.9754 49.1054 44.7902C49.0357 45.2943 48.9788 46.0076 48.9788 46.375C48.9788 47.1426 49.2357 47.1497 45.9239 46.291C44.4159 45.9001 43.9225 45.6878 43.7856 45.3714C43.5218 44.7619 43.242 42.6874 43.4237 42.6874C43.5099 42.6874 44.6808 42.9542 46.0258 43.2803ZM54.0307 44.7691C57.2763 45.2572 56.9624 45.0404 56.8165 46.6933C56.7472 47.4793 56.6196 48.1997 56.5328 48.2943C56.4443 48.3908 55.2755 48.2629 53.871 48.0028L51.3673 47.5394L51.3701 46.4473C51.3733 45.1708 51.5313 44.4661 51.8145 44.4661C51.9256 44.4661 52.9228 44.6025 54.0307 44.7691ZM64.6162 47.4414C64.5445 48.1629 64.4229 48.9728 64.3459 49.2414L64.2055 49.7293L61.618 49.3163L59.0304 48.9032L59.0627 48.3151C59.0804 47.9916 59.1515 47.235 59.2207 46.6341L59.3467 45.541L62.0465 45.8354L64.7463 46.1297L64.6162 47.4414ZM70.6376 46.7601L71.8946 46.8916L71.7692 47.7046C71.7003 48.1516 71.5518 49.0121 71.4392 49.6168L71.2343 50.7162L69.0138 50.4299C67.7925 50.2724 66.7674 50.1228 66.7362 50.0975C66.7049 50.0722 66.7895 49.2299 66.9243 48.2257L67.1691 46.4001L68.2748 46.5145C68.883 46.5773 69.9463 46.688 70.6376 46.7601ZM77.1157 47.3441L78.4811 47.4667L78.3384 49.168C78.1276 51.6819 78.2948 51.5376 75.8979 51.2747C74.7751 51.1516 73.8096 51.0044 73.7524 50.9477C73.6953 50.8909 73.7855 50.0647 73.9529 49.1117C74.1203 48.1586 74.2572 47.3005 74.2572 47.2046C74.2572 47.109 74.5932 47.0736 75.0036 47.1262C75.4142 47.1785 76.3645 47.2767 77.1157 47.3441ZM46.5616 48.8921C47.1794 49.0437 47.9314 49.2234 48.2324 49.2912C48.7479 49.4072 48.7797 49.4775 48.7797 50.4975C48.7797 51.0933 48.7306 51.5807 48.6703 51.5807C48.1157 51.5807 45.197 49.2315 45.197 48.7852C45.197 48.5645 45.2417 48.568 46.5616 48.8921ZM54.0124 50.4305C56.3382 50.8585 56.3581 50.8668 56.2645 51.3698C56.2124 51.6488 56.1153 52.2899 56.0486 52.7943L55.9274 53.7115L54.1947 53.3362C51.0442 52.6538 51.1682 52.7384 51.1682 51.2688C51.1682 50.3856 51.2439 49.9994 51.417 49.9991C51.554 49.9987 52.7218 50.1927 54.0124 50.4305ZM61.4938 51.6931C62.5473 51.8637 63.5111 52.0348 63.6353 52.0733C63.7997 52.1245 63.7802 52.5382 63.5638 53.5915C63.4004 54.3878 63.245 55.0627 63.2187 55.0915C63.1924 55.1204 62.1289 54.9204 60.8553 54.6468C59.5816 54.3735 58.4888 54.1498 58.4267 54.1498C58.3065 54.1498 58.5269 51.7811 58.6702 51.5313C58.7948 51.3147 59.3531 51.3467 61.4938 51.6931ZM70.6744 53.3427C70.6744 54.088 69.9883 56.7188 69.7947 56.716C69.5689 56.713 67.5001 56.2457 66.2718 55.9204L65.5515 55.7295L65.8357 54.2974C65.992 53.5097 66.15 52.771 66.1868 52.6558C66.233 52.5117 66.9436 52.5388 68.4643 52.7425C70.1916 52.9739 70.6744 53.105 70.6744 53.3427ZM76.0983 53.6739C76.9467 53.7482 77.6409 53.8923 77.6409 53.9939C77.6409 54.4133 76.7896 57.6219 76.6348 57.786C76.4863 57.9433 73.1643 57.6115 72.552 57.3783C72.3976 57.3194 72.4563 56.697 72.7469 55.3095L73.1625 53.3247L73.8591 53.4316C74.2423 53.4905 75.25 53.5994 76.0983 53.6739Z" fill="black"/>
</svg>
