<svg width="100" height="100" viewBox="0 0 100 100" fill="none" xmlns="http://www.w3.org/2000/svg">
<path fill-rule="evenodd" clip-rule="evenodd" d="M15.9056 0.327601C14.9396 0.773455 14.14 1.68959 13.8707 2.65866C13.6027 3.62403 13.6097 10.5262 13.8803 11.9948C14.3107 14.331 15.6016 16.2599 17.598 17.5502L18.7093 18.2684L18.0243 19.1304C17.2062 20.1599 16.1885 22.1244 15.7051 23.6074C15.4048 24.528 15.3382 25.7006 15.2382 31.8129L15.1215 38.9442L12.1573 44.0481C10.5268 46.8551 9.13495 49.3835 9.06383 49.6664C8.8706 50.4362 9.12772 51.4623 9.67771 52.1158C9.94655 52.4355 11.079 53.1863 12.194 53.7844L14.2212 54.8718L14.2974 63.5152C14.3703 71.7568 14.3936 72.2181 14.799 73.4426C15.9128 76.8072 18.6262 79.5087 21.9703 80.5827C23.382 81.0362 23.9357 81.0952 27.6852 81.1929L31.837 81.3011V90.2455V99.1902L32.3518 99.595C33.0346 100.132 33.7021 100.106 34.288 99.5204L34.7676 99.0409V89.1762V79.3118L34.2966 78.7635L33.8253 78.2153L28.479 78.1176L23.1325 78.0199L21.85 77.3881C19.4312 76.1964 17.7517 73.8607 17.3512 71.1314C17.2393 70.3693 17.1838 66.3855 17.2195 61.6775C17.2766 54.1611 17.2553 53.5124 16.9405 53.1644C16.753 52.9571 15.5455 52.2336 14.2574 51.5565C12.9693 50.8795 11.9455 50.2703 11.9822 50.2031C12.0191 50.1359 13.2356 48.0146 14.6855 45.4894C16.1354 42.9641 17.4884 40.5902 17.6921 40.2141C18.0307 39.5895 18.0723 38.9039 18.1736 32.3013C18.2781 25.4752 18.3084 25.007 18.7165 23.9C19.256 22.4366 20.1717 21.052 21.4071 19.8317L22.3611 18.8892L26.5617 18.9648C30.6876 19.0388 30.7905 19.0509 32.3465 19.639C34.3673 20.4031 35.9403 21.4125 37.341 22.8436C39.4706 25.0203 40.707 27.7465 41.0049 30.9229C41.1415 32.3793 41.2413 32.7292 41.6043 33.0232C42.1916 33.4986 43.0751 33.4697 43.5867 32.9582C43.9729 32.5719 43.996 32.3992 43.895 30.6625C43.5163 24.1659 38.8653 18.4615 32.3897 16.5516C31.1471 16.1853 30.2859 16.1136 25.8779 16.0095C20.8204 15.8901 20.7932 15.8872 19.6836 15.3423C18.4408 14.7319 17.7111 13.9742 17.106 12.6658C16.7444 11.8839 16.6918 11.3401 16.6316 7.75101C16.5857 5.01981 16.6346 3.5832 16.7828 3.30615L17.0019 2.89683L34.3349 2.90015C44.3097 2.90211 52.4559 2.98534 53.524 3.09612C60.8564 3.85692 68.0871 6.78819 73.9264 11.3673C75.2122 12.3756 75.9447 12.5183 76.5787 11.8842C76.8168 11.6461 76.9694 11.233 76.9694 10.8263C76.9694 9.99513 76.076 9.16145 72.9642 7.08887C67.9373 3.74067 62.8385 1.68783 56.6501 0.520831C54.4604 0.107996 53.9234 0.0954916 35.5492 0.0302351C17.4833 -0.0340445 16.6621 -0.0215402 15.9056 0.327601ZM78.9375 14.3529C78.2666 15.2057 78.3412 15.4153 80.0742 17.5502C86.1206 24.9988 89.2828 35.6636 88.3008 45.294C88.0236 48.0119 87.6822 49.7893 87.4398 49.7762C87.3226 49.7699 85.8394 49.6121 84.1439 49.4251C81.6402 49.1492 80.9532 49.1306 80.4874 49.3266C79.415 49.7775 79.4502 51.3863 80.5421 51.8232C80.8876 51.9613 82.313 52.1813 83.71 52.3118C85.107 52.4425 86.3996 52.5922 86.5827 52.6441C86.883 52.7297 86.8574 52.9048 86.3189 54.4383C84.5906 59.3607 81.6484 64.2147 77.9831 68.1904C76.1018 70.2311 67.702 77.4762 67.0518 77.619C66.7138 77.6932 66.2131 77.6399 65.8661 77.493C65.2934 77.2501 56.7153 67.6611 55.8508 66.2972C55.3981 65.5831 55.3719 64.6793 55.7869 64.0869C55.9567 63.8442 57.4294 62.4576 59.0595 61.0054C62.0236 58.3644 63.2625 56.8934 63.7024 55.4922C63.8271 55.095 63.9713 53.7306 64.0229 52.4605L64.1165 50.1511L64.828 50.2586C65.2196 50.3176 67.6761 50.5948 70.2871 50.8746C74.671 51.3443 75.0709 51.3593 75.5105 51.0715C76.3622 50.5133 76.3769 49.266 75.5381 48.7184C75.2696 48.5431 73.1261 48.2215 69.7129 47.8445C66.7425 47.5162 64.1928 47.2476 64.0469 47.2474C63.9008 47.247 63.5247 46.7554 63.2107 46.1548C62.4389 44.6776 61.2002 43.4887 59.6267 42.7144C58.4085 42.115 58.182 42.0704 56.3605 42.0728C54.65 42.0751 54.2616 42.1416 53.2792 42.5995C51.0417 43.643 49.2794 45.8805 48.8304 48.2481C48.7255 48.8018 48.6395 49.9829 48.6395 50.8726V52.4906L46.4423 54.0516C45.2339 54.9101 44.1788 55.5717 44.0978 55.5217C44.0167 55.4717 43.9504 51.3978 43.9504 46.469V37.5072L43.4356 37.1024C43.1525 36.8796 42.8049 36.6973 42.6633 36.6973C42.1467 36.6973 41.4484 37.1428 41.2366 37.6072C41.0878 37.9341 41.0198 40.8866 41.0198 47.0202C41.0198 55.8997 41.0225 55.9626 41.4594 56.828C42.1633 58.2228 43.8121 58.9197 45.1788 58.4002C45.6797 58.2097 49.3447 55.6627 50.7399 54.5354L51.5702 53.8645V51.5686C51.5702 50.1144 51.6755 48.9192 51.8576 48.3091C52.6151 45.7705 55.276 44.3587 57.8501 45.1301C58.9219 45.4511 60.1421 46.57 60.6799 47.7253C61.0916 48.6092 61.1399 48.9907 61.1399 51.3507C61.1399 55.2737 61.1485 55.2603 55.6495 60.0994C53.1819 62.2712 52.7114 63.0127 52.5946 64.9145C52.5186 66.1528 52.5676 66.4039 53.0656 67.3186C53.668 68.4253 62.9745 79.2316 63.7792 79.759L64.2698 80.0804V89.5607V99.0409L64.7495 99.5204C65.0132 99.7841 65.4568 100 65.7352 100C66.0136 100 66.4571 99.7841 66.7209 99.5204L67.2005 99.0409V89.7514V80.4621H67.6583C67.9099 80.4621 68.4771 80.2644 68.9185 80.0225C69.9932 79.4339 77.5968 72.7629 79.8061 70.4703C92.232 57.5757 94.9644 37.896 86.5256 22.0748C85.0339 19.2783 82.1931 15.1977 81.0294 14.1799C80.4278 13.654 79.4216 13.737 78.9375 14.3529ZM21.3899 60.7721C20.6726 61.3891 20.6197 62.3775 21.2756 62.9085C21.6806 63.2364 22.145 63.2688 26.4369 63.2694C33.5506 63.2702 36.1523 63.7211 39.9469 65.611C45.3367 68.2951 49.3361 73.2992 50.9175 79.3377C51.1738 80.3168 51.2609 82.0111 51.3551 87.8553L51.4725 95.1505L51.9338 95.5239C52.5231 96.0008 53.3532 96.0004 53.9419 95.5231L54.4032 95.1489L54.3954 88.7337C54.3868 81.6582 54.2414 80.1323 53.2905 77.1407C50.6289 68.7664 44.0083 62.8111 35.1547 60.827C34.0406 60.5773 32.2965 60.4747 27.8212 60.3952L21.9492 60.2911L21.3899 60.7721ZM21.6372 67.2114C20.8342 67.8335 20.9176 69.458 21.7693 69.7847C21.9512 69.8546 23.7512 69.9117 25.7695 69.9117C27.7877 69.9117 29.9127 69.9994 30.4916 70.1069C33.0852 70.5877 35.8217 72.6001 37.0721 74.9458C38.2407 77.1386 38.2845 77.5596 38.2845 86.6312C38.2845 94.6677 38.2942 94.8799 38.6895 95.3822C39.217 96.0532 40.2392 96.0893 40.8273 95.458C41.2319 95.0239 41.2357 94.9231 41.1769 86.031L41.1175 77.043L40.594 75.6099C39.8504 73.5743 38.9648 72.1716 37.4945 70.7016C36.0138 69.2206 34.6016 68.3328 32.5862 67.6158C31.2284 67.1326 30.9122 67.102 26.5617 67.0297C22.9629 66.9699 21.8983 67.0091 21.6372 67.2114Z" fill="black"/>
</svg>
