<svg width="100" height="100" viewBox="0 0 100 100" fill="none" xmlns="http://www.w3.org/2000/svg">
<path fill-rule="evenodd" clip-rule="evenodd" d="M28.3439 0.290304C27.7428 1.01465 28.994 5.91259 30.5493 8.92445C32.3274 12.3674 35.6032 16.4019 39.0923 19.446L41.0676 21.1692L40.9428 21.959C40.7595 23.1201 39.4099 27.1027 38.6215 28.8094C37.4457 31.3538 36.131 32.6296 33.8519 33.4376C32.3368 33.9748 30.438 33.9355 25.7895 33.2713C20.6993 32.5441 16.9493 32.5073 14.9819 33.1655C11.0385 34.4843 8.12836 37.0068 6.26573 40.7205C3.82233 45.5925 3.41444 51.3718 4.75667 62.111C5.14893 65.2499 5.18253 66.353 5.16671 75.59C5.15733 81.1232 5.04618 88.5321 4.91979 92.0542C4.7934 95.5763 4.74339 98.6267 4.80883 98.8326C4.98601 99.3911 5.66601 99.5337 6.08972 99.101C6.40443 98.7794 6.45756 98.2225 6.56266 94.148C6.62771 91.6231 6.72694 89.1838 6.78301 88.7271L6.88518 87.8968H8.01487C8.86131 87.8968 9.22583 87.8072 9.46806 87.5396C10.2039 86.7265 9.60011 86.1387 8.02932 86.1387H6.88107L6.90608 76.2249C6.9303 66.6023 6.91487 66.159 6.37845 61.1343C6.02584 57.8321 5.81878 54.7904 5.80627 52.7344L5.78674 49.5111L9.28853 49.4576C11.4672 49.4244 12.8882 49.323 13.049 49.1896C13.4326 48.8712 13.3625 48.0892 12.9298 47.8575C12.713 47.7415 11.173 47.6553 9.31588 47.6553C5.58221 47.6553 5.86312 47.8714 6.40286 45.4143L6.72597 43.9437H15.375C22.9771 43.9437 24.0609 43.9066 24.3308 43.6369C24.7329 43.2346 24.718 43.0473 24.247 42.5763C23.8687 42.1979 23.596 42.1856 15.6402 42.1856H7.42433L8.0305 41.0483C9.69524 37.9247 12.844 35.4309 16.0893 34.6659C17.9297 34.2319 20.5692 34.317 25.2238 34.9599C31.7458 35.8611 33.7442 35.7317 36.197 34.2498C37.8116 33.2745 39.1643 31.6888 40.1565 29.6092C41.4016 26.9993 42.7953 22.4438 42.8021 20.961C42.8046 20.4445 42.6083 20.1794 41.5841 19.3148C37.4547 15.8288 33.9128 11.6626 32.1309 8.19522L31.4782 6.92546L34.7487 6.82779C36.5473 6.77407 38.129 6.65901 38.2632 6.57208C38.5738 6.37107 38.5797 5.61078 38.273 5.30408C38.1073 5.13843 36.9684 5.06967 34.3949 5.06967H30.7515L30.4321 3.84875C30.2565 3.17734 30.0555 2.16056 29.9856 1.58936C29.9156 1.01817 29.7324 0.424702 29.5783 0.270769C29.2126 -0.094921 28.6562 -0.085935 28.3439 0.290304ZM67.8485 0.225058C67.4881 0.585473 67.5541 1.01836 68.3779 3.69247C69.0657 5.92568 70.1536 10.3442 70.1536 10.9047C70.1536 11.0655 67.7743 11.1272 61.4118 11.1319C56.6038 11.1354 52.0926 11.2127 51.3868 11.3038C48.8723 11.6284 47.0046 12.9701 45.9569 15.2043L45.4422 16.3021V38.2787V60.2552L45.9546 61.3296C46.8143 63.1327 48.2689 64.2934 50.0192 64.5734C50.4613 64.6441 50.866 64.7717 50.9188 64.857C51.0754 65.1104 50.4157 66.8425 49.8764 67.5942C49.2106 68.5225 48.1827 69.2383 46.9985 69.5981C46.4648 69.7602 45.2379 70.1294 44.2717 70.4184C39.7863 71.76 37.6627 73.6791 36.7606 77.2057C36.1329 79.6598 35.7477 84.7227 35.6325 92.03C35.5739 95.7535 35.5826 99.0268 35.6522 99.3036C35.7319 99.6216 35.9583 99.8521 36.2664 99.9295C37.2861 100.186 37.3105 100.049 37.3099 94.0854C37.3095 91.0578 37.4041 87.218 37.5201 85.5527C38.0882 77.3932 38.4736 75.9193 40.5029 74.1421C41.6378 73.1481 43.0977 72.517 46.6143 71.5C48.9811 70.8155 50.261 70.047 51.1628 68.7687C51.7664 67.913 51.9137 67.9046 54.4243 68.5809C56.1916 69.057 58.3552 69.0529 60.0971 68.5706C61.9778 68.0496 63.2579 67.9166 64.2932 68.1342C65.4075 68.3684 67.6901 68.9704 67.78 69.0539C67.9362 69.1988 66.5245 71.6881 65.5426 72.9987C64.1584 74.8461 62.5382 76.1209 59.8979 77.4399C57.0085 78.8835 53.8177 79.7198 51.1073 79.7438C48.9006 79.7634 47.7368 79.4885 45.5106 78.4215C43.5616 77.4876 43.0092 77.4098 41.9537 77.9207C39.4523 79.1316 38.5035 83.3115 38.2007 94.4541C38.0852 98.7054 38.1044 99.1869 38.4019 99.4843C38.5826 99.6651 38.8455 99.813 38.9858 99.813C39.691 99.813 39.7734 99.2682 40.0022 93.0925C40.126 89.7515 40.3272 86.2975 40.4495 85.4173C40.8986 82.1828 41.7005 80.0218 42.6431 79.5051C43.135 79.2355 43.2744 79.2709 45.0849 80.123C47.4984 81.259 48.676 81.5348 51.0096 81.5102C55.4578 81.4635 60.7779 79.536 64.2881 76.6994C67.096 74.4304 69.2581 70.97 70.1691 67.2877C70.7918 64.7699 70.794 61.3599 70.1741 59.5196C68.2234 53.7279 61.8492 51.0876 56.4377 53.8299C55.1211 54.4972 53.2637 56.2744 52.5302 57.5692C52.2106 58.1332 51.8357 58.5948 51.6972 58.5948C51.5585 58.5948 51.2813 58.3529 51.0809 58.0576C50.7312 57.5421 50.7166 56.7189 50.7166 37.6583V17.7959L51.1278 17.2445C51.3538 16.9411 51.8373 16.517 52.2022 16.3021C52.8353 15.9292 53.2717 15.9089 61.8262 15.8552L70.7869 15.7987L70.7074 17.6133C70.6432 19.0802 70.5351 19.5961 70.144 20.3067C69.5387 21.4065 68.1763 22.3434 66.6843 22.6863C65.191 23.0295 61.2651 22.974 59.3382 22.5825C57.5569 22.2208 57.0654 22.3563 57.0654 23.2096C57.0654 24.5589 59.4506 30.1729 60.7662 31.9203C61.8457 33.354 63.6427 34.6062 65.3993 35.1486C67.1871 35.7009 69.223 35.6577 74.419 34.9578C82.2229 33.9064 84.6175 34.2561 88.2348 36.9753C91.9213 39.7465 93.986 45.166 93.986 52.0714V53.5158L87.1977 53.5187C80.1208 53.5216 79.5184 53.5865 79.3693 54.3602C79.197 55.2557 79.3445 55.2739 86.782 55.2739H93.7906V55.9949C93.7906 56.3917 93.6898 57.7102 93.5668 58.9251L93.3427 61.1343H91.5547C89.7198 61.1343 89.2976 61.2851 89.2976 61.9409C89.2976 62.6621 89.835 62.8924 91.5185 62.8924H93.1255L92.951 64.4064C92.6992 66.5919 92.7328 82.8518 93.0067 91.4131C93.2171 97.9926 93.2767 98.7755 93.5906 99.101C94.0084 99.5341 94.689 99.3909 94.8662 98.8326C94.9316 98.6267 94.8816 95.5763 94.7552 92.0542C94.6289 88.5321 94.5177 81.1232 94.5083 75.59C94.4925 66.353 94.5261 65.2499 94.9184 62.111C96.2606 51.3718 95.8527 45.5925 93.4093 40.7205C91.4582 36.8304 88.0046 33.983 84.0233 32.9814C82.2753 32.5419 78.225 32.6558 73.8678 33.267C67.9683 34.0949 66.134 33.9889 64.0857 32.7017C63.0262 32.0358 61.6404 30.3847 61.01 29.0372C60.0225 26.9259 59.1364 24.6171 59.2644 24.4889C59.3326 24.4209 60.2902 24.4702 61.3925 24.5983C66.619 25.2059 70.5656 23.7075 71.9246 20.5998C72.5343 19.2056 72.6675 15.5264 72.2147 12.5901C71.5818 8.4857 69.7797 1.5333 69.0628 0.430172C68.75 -0.0511632 68.2152 -0.141609 67.8485 0.225058ZM70.5443 13.1606C70.5443 13.3129 70.5976 13.5766 70.6629 13.7466C70.7699 14.0254 69.954 14.056 62.3118 14.0588C53.2141 14.0619 52.2534 14.1459 50.9104 15.0552C49.9625 15.6969 49.2716 16.8055 49.0407 18.054C48.9176 18.7201 48.8668 26.1511 48.9024 38.3133L48.9585 57.5204L49.4468 58.4969C50.0932 59.7893 50.9955 60.39 52.175 60.3131C53.049 60.256 53.0695 60.2384 53.7286 58.9919C54.6042 57.336 55.8878 56.0795 57.5299 55.2709C59.8903 54.109 62.9279 54.2563 65.0932 55.6376C68.0363 57.5151 69.3582 60.7874 68.8167 64.8551C68.6901 65.8056 68.5342 66.7199 68.4701 66.8867C68.3119 67.2991 67.7065 67.268 66.1207 66.7665C64.3053 66.1924 61.9549 66.1924 60.0721 66.7665C58.2648 67.3178 56.4668 67.3116 54.2301 66.746L52.4739 66.3022L52.6997 65.3298C52.824 64.7951 52.934 64.21 52.9443 64.0295C52.9754 63.4867 52.4013 63.0878 51.589 63.0878C49.6867 63.0878 47.7463 61.7836 47.3097 60.2117C47.1724 59.7172 47.106 52.4495 47.1081 38.181C47.1113 17.1892 47.1169 16.8757 47.5088 16.0091C48.2269 14.4205 49.4654 13.4055 51.0733 13.0875C51.5218 12.9988 56.0863 12.9168 61.2165 12.905C69.1486 12.8867 70.5443 12.925 70.5443 13.1606ZM21.0349 61.7639C20.8218 62.068 20.7298 62.667 20.7277 63.7662C20.7167 69.3602 19.2612 86.8344 17.9633 96.9524C17.7293 98.7767 17.7357 98.8918 18.0887 99.15C18.5492 99.4866 18.6142 99.487 19.0653 99.157C19.4931 98.8445 19.9629 95.5027 20.9095 86.0411C21.4264 80.8755 21.6532 78.041 22.2152 69.7296L22.3539 67.6784L22.6157 68.6552C23.626 72.4259 24.6418 78.5856 25.0439 83.38C25.3283 86.7715 25.1749 93.7729 24.7544 96.5898C24.4748 98.4618 24.4781 98.5591 24.8348 98.9203C25.1421 99.2315 25.2896 99.2596 25.6791 99.0822C26.1972 98.8463 26.3904 97.9312 26.7834 93.8549C27.583 85.5634 26.0511 73.4154 22.9408 63.3808C22.3139 61.3584 21.6898 60.829 21.0349 61.7639ZM77.436 61.4871C77.1242 61.6854 76.7513 62.765 75.8044 66.2133C73.6316 74.1259 72.2522 84.6449 72.5964 90.6805L72.7273 92.9759H63.1254C56.8802 92.9759 53.3913 93.0466 53.1455 93.1781C52.7232 93.4041 52.6433 94.1407 53.0021 94.4996C53.1782 94.6756 55.6757 94.734 63.0404 94.734H72.8445L73.0932 96.6855C73.3788 98.9277 73.7005 99.4538 74.5497 99.0668C75.1195 98.8072 75.1234 98.7521 74.7585 96.0866C74.0852 91.1681 74.192 84.7027 75.049 78.5202C75.4128 75.8963 76.571 69.8142 76.965 68.4598L77.1355 67.8738L77.2471 68.3621C77.3084 68.6307 77.4117 69.9493 77.4766 71.2923C77.7677 77.3276 78.6248 86.8357 79.5459 94.2456C80.1218 98.8791 80.2675 99.4223 80.935 99.4223C81.3523 99.4223 81.8619 98.6232 81.7733 98.1078C81.6101 97.1592 80.9278 91.6104 80.6137 88.6782C79.9489 82.4736 78.7546 65.8631 78.7501 62.7598C78.7485 61.6477 78.1285 61.0472 77.436 61.4871Z" fill="black"/>
</svg>
