<svg width="100" height="100" viewBox="0 0 100 100" fill="none" xmlns="http://www.w3.org/2000/svg">
<path fill-rule="evenodd" clip-rule="evenodd" d="M38.5531 0.230986C37.7382 0.386155 36.3634 0.736554 35.498 1.00996C34.1992 1.41996 33.7869 1.65584 33.1374 2.36016C32.5087 3.0422 32.1736 3.24017 31.4716 3.3455C30.2903 3.52256 29.1488 4.31657 27.3023 6.24563C25.4987 8.12974 24.555 9.49851 23.4831 11.785C22.1564 14.615 21.7361 16.665 21.6117 20.9103L21.5042 24.5839L20.9943 24.8516C20.3134 25.2091 19.1386 26.4633 18.7359 27.263C17.9392 28.844 18.1867 31.3775 19.3554 33.6087C20.3805 35.5651 22.0536 36.9837 24.3455 37.8393L24.8831 38.04V42.2032C24.8831 45.558 24.9392 46.4461 25.1719 46.7781C25.8671 47.7705 27.4477 47.3945 27.746 46.1658L27.9134 45.4764L28.8665 46.6556C29.3906 47.3042 30.2043 48.1502 30.6749 48.5356L31.5302 49.2362V51.9583C31.5302 54.9116 31.39 55.4543 30.4332 56.2065C30.1484 56.4306 29.5693 56.7071 29.1464 56.8209C28.7236 56.9346 28.2512 57.0763 28.0966 57.1355C27.8616 57.2258 27.8156 56.8451 27.8156 54.806C27.8156 52.636 27.7713 52.3122 27.4104 51.8537C26.8831 51.1834 25.9091 51.1517 25.3136 51.7853C24.9292 52.1943 24.8895 52.4756 24.8397 55.1431L24.7853 58.0546L22.7326 58.661C20.0471 59.4544 18.0557 60.457 16.2002 61.9496C12.7703 64.7087 10.5679 68.6434 10.0155 72.9995C9.66316 75.7782 9.78105 75.5717 8.54586 75.5717C7.64811 75.5717 7.38124 75.6559 6.96619 76.0708C6.56189 76.4749 6.48075 76.7171 6.54038 77.3411L6.61389 78.1122H4.10969C1.22406 78.1122 0.450061 78.3295 0.0701982 79.2463C-0.156977 79.7945 0.0428279 80.6111 2.57421 89.4814C4.93022 97.7368 5.39747 99.1837 5.82855 99.5603L6.33217 100H52.5728H98.8135L99.4066 99.4071L100 98.814L99.9056 93.984C99.7996 88.5543 99.5992 87.4595 98.2368 84.8679C96.9101 82.3442 95.7269 81.5232 94.6604 82.3864C93.972 82.9436 94.0628 83.866 94.9237 85.0594C96.5132 87.2629 97.0238 89.4204 97.0238 93.9336V97.0686H94.2868H91.5498V94.9299C91.5498 92.9687 91.5116 92.7467 91.0919 92.259C90.4981 91.5689 89.4995 91.5279 88.9777 92.172C88.6745 92.5462 88.6172 92.9709 88.6172 94.8429V97.0686H76.5937H64.5703V94.9299C64.5703 92.9687 64.5322 92.7467 64.1124 92.259C63.5187 91.5689 62.52 91.5279 61.9982 92.172C61.695 92.5462 61.6377 92.9709 61.6377 94.8429V97.0686H58.9007H56.1636V93.5302C56.1636 89.4972 56.3629 88.4016 57.4927 86.2224C58.8958 83.516 61.6149 81.4149 64.9046 80.4951L66.3142 80.1011L67.0516 81.0677C68.504 82.9715 71.4657 84.8068 73.9152 85.3209C75.3977 85.6322 78.0976 85.5892 79.4981 85.2322C81.5245 84.7159 83.4704 83.6344 84.9105 82.2242C85.6287 81.5212 86.3443 80.7517 86.5009 80.514L86.7857 80.0821L88.4657 80.5887C89.5349 80.9109 90.3341 81.0477 90.6643 80.9649C91.6886 80.7079 91.9173 78.9484 91.0008 78.3764C90.8102 78.2574 89.4976 77.831 88.0835 77.4284C84.9435 76.5349 84.6542 76.2971 84.5664 74.5394L84.5058 73.3243L85.7877 72.3471C86.4929 71.8097 87.4684 70.8734 87.9556 70.2662C88.7236 69.3098 88.9556 69.1455 89.6966 69.0345C91.019 68.8363 92.7601 67.8619 93.8495 66.7104C97.4498 62.9049 96.7716 57.5623 92.5437 56.4242C91.9187 56.2561 91.7474 56.1255 91.8188 55.8723C91.8702 55.6897 92.0235 53.7087 92.1591 51.4701C92.4504 46.6653 92.3236 45.5469 91.236 43.3374C89.8612 40.5444 87.3065 38.6042 84.1206 37.9337C82.0774 37.5037 73.4653 37.6458 71.7062 38.1387C67.6467 39.2759 64.372 41.9509 62.5173 45.645C61.3284 48.0132 61.1631 48.8811 61.1556 52.7963L61.149 56.3057L60.5625 56.4267C60.2399 56.4931 59.7781 56.6538 59.5361 56.7837L59.0962 57.0198V47.4679V37.9163L59.859 37.6876C61.53 37.1873 63.3955 35.6089 64.5128 33.7504C65.618 31.9118 65.8821 28.9065 65.0882 27.2022C64.6186 26.1944 63.5136 25.065 62.6913 24.7525L62.2242 24.5751V21.2397C62.2242 18.9529 62.1265 17.4309 61.9134 16.398C60.3038 8.59915 54.6002 2.56438 46.975 0.592525C44.602 -0.02131 40.7476 -0.186641 38.5531 0.230986ZM46.642 3.54308C52.9842 5.40901 57.6661 10.4166 59.0014 16.7625C59.1859 17.6394 59.2917 19.2403 59.2917 21.1581V24.1745H58.0301C57.3363 24.1745 56.5412 24.0709 56.2632 23.9443C55.9851 23.8176 54.4113 22.0369 52.7658 19.9869C48.6397 14.8466 47.2712 13.5745 44.4872 12.2917C43.0024 11.6076 40.4178 10.8855 39.4542 10.8855C39.1155 10.8855 38.7019 10.7756 38.5349 10.6412C38.1097 10.2992 35.0493 5.13014 35.0493 4.75394C35.0493 4.38615 35.6491 3.9824 36.6837 3.65427C39.5885 2.73245 43.7294 2.68633 46.642 3.54308ZM32.3476 6.4395C32.8647 6.85282 36.0268 12.3341 36.0268 12.8172C36.0268 14.2435 34.8352 17.3017 33.532 19.22C32.5558 20.657 30.2933 22.8065 28.9412 23.5815C28.0106 24.1151 27.749 24.1709 26.1758 24.1727L24.4379 24.1745L24.5451 20.9011C24.6985 16.2046 25.4956 13.4874 27.6211 10.4139C28.6557 8.9179 31.3564 6.19521 31.8059 6.19521C31.9357 6.19521 32.1795 6.30524 32.3476 6.4395ZM41.0199 14.1188C42.8037 14.5812 44.8571 15.684 46.2063 16.9044C46.877 17.5112 48.8227 19.7475 50.5298 21.8739C53.6761 25.7926 54.4199 26.4893 55.9279 26.9284L56.7672 27.1729L56.6557 28.4584C56.5943 29.1657 56.4153 31.6349 56.2575 33.9458C55.8852 39.4037 55.503 40.8404 53.7048 43.5444C51.8219 46.3755 48.4246 48.7302 45.1177 49.4961C43.017 49.9827 39.5339 49.8064 37.4931 49.1105C32.7185 47.482 28.9801 43.2653 28.0338 38.4406C27.8536 37.5215 27.2291 29.1215 27.2291 27.6155C27.2291 27.2028 27.3216 27.1059 27.7157 27.1059C29.6749 27.1059 33.8041 24.0125 35.8538 21.0093C37.2546 18.957 38.7638 15.4186 38.7638 14.1872C38.7638 13.7201 39.4061 13.7006 41.0199 14.1188ZM24.4778 30.8348C24.6115 32.8858 24.6712 34.6136 24.6106 34.6743C24.5498 34.7349 24.1457 34.5502 23.7126 34.2638C21.8424 33.0267 20.6452 30.0078 21.4186 28.4797C21.7623 27.801 22.871 27.1059 23.6104 27.1059H24.2348L24.4778 30.8348ZM61.3251 27.3783C62.2956 27.7836 62.6156 28.3701 62.6133 29.7388C62.6108 31.3212 61.9926 32.6136 60.6688 33.8031C60.1032 34.3116 59.5392 34.7275 59.4156 34.7275C59.2465 34.7275 59.2483 33.8444 59.4225 31.161C59.5498 29.1995 59.6604 27.4846 59.6682 27.3501C59.6874 27.0257 60.5148 27.0398 61.3251 27.3783ZM42.3169 30.0986C41.9406 30.4992 41.8919 30.7691 41.8919 32.4566C41.8919 34.7212 41.7343 35.1184 40.8362 35.1184C39.8895 35.1184 39.1548 35.765 39.1548 36.5983C39.1548 37.5921 39.712 38.0498 40.9222 38.0498C42.6416 38.0498 44.1842 36.9264 44.6203 35.3566C44.7314 34.9569 44.8227 33.7244 44.8233 32.6179C44.8244 30.7414 44.7922 30.5735 44.3445 30.1262C43.7288 29.5106 42.8806 29.4991 42.3169 30.0986ZM35.5292 40.8746C34.6927 41.7107 34.9656 42.6855 36.2145 43.3224C39.3107 44.9012 44.2409 44.9395 47.4757 43.4099C48.5652 42.8946 48.8385 42.482 48.7019 41.5581C48.6661 41.3161 48.3918 40.936 48.0925 40.7134L47.5482 40.3087L46.0215 40.8508C43.0958 41.8899 40.435 41.8952 37.9032 40.8668C36.4479 40.2757 36.1273 40.2766 35.5292 40.8746ZM85.1374 41.3083C86.7443 42.0693 87.9769 43.268 88.7308 44.8025C89.2987 45.9589 89.3013 45.9802 89.2561 49.1891C89.2311 50.9626 89.1431 52.8406 89.0606 53.3626L88.9105 54.3116L87.0532 51.506C85.297 48.8531 85.1587 48.6974 84.5116 48.6446C84.0608 48.6079 82.5836 49.0206 80.1828 49.8545L76.5382 51.1203L72.9128 49.8615C70.9189 49.1691 69.018 48.6028 68.6884 48.6028C67.904 48.6028 67.6915 48.8398 65.8411 51.7787C64.9808 53.1447 64.2111 54.2641 64.1304 54.2663C63.9036 54.2723 63.9572 50.7025 64.2014 49.5406C64.8962 46.233 67.485 43.0226 70.5673 41.6462C72.5578 40.7574 73.8776 40.6016 79.0375 40.6464L83.8274 40.688L85.1374 41.3083ZM56.1021 57.1328C55.9238 57.3112 53.9591 56.5447 53.4092 56.0822C52.4416 55.2682 52.2536 54.5832 52.2536 51.8721V49.4617L54.1597 47.5176L56.0659 45.5737L56.1177 51.3196C56.1462 54.4797 56.1392 57.0956 56.1021 57.1328ZM36.2223 51.7716C38.0162 52.4193 39.7341 52.6997 41.9281 52.7034C44.2199 52.7071 46.0479 52.3923 47.9996 51.6581L49.2723 51.1791L49.3701 53.2622C49.477 55.5436 49.7026 56.2565 50.7529 57.6317L51.4186 58.5037L50.207 60.1488C48.6686 62.2377 47.4598 63.3415 45.9349 64.0499C43.3566 65.2477 40.5132 65.2109 37.8293 63.9448C36.184 63.1687 34.8465 61.9137 33.4119 59.8L32.4589 58.3956L33.157 57.5805C34.1517 56.4185 34.4628 55.3378 34.4628 53.0419C34.4628 51.2706 34.4925 51.1138 34.8049 51.2426C34.9932 51.32 35.6309 51.5582 36.2223 51.7716ZM72.7492 52.9022C74.607 53.5471 76.329 54.0747 76.5758 54.0747C76.8223 54.0747 78.5345 53.5487 80.3803 52.9055L83.7365 51.7363L85.1617 53.9315C85.9455 55.1388 87.0538 56.8549 87.6246 57.7449L88.6626 59.3632L88.5214 61.0569C88.2287 64.5678 87.2301 66.8052 84.9112 69.1451C83.2807 70.7904 81.5632 71.7925 79.4115 72.354C77.6704 72.8083 74.3435 72.66 72.6137 72.0507C70.9953 71.4808 68.7259 69.9528 67.5975 68.6733C65.8223 66.6606 64.663 63.5672 64.5427 60.5238L64.4925 59.2535L66.9261 55.4916C68.2643 53.4226 69.3621 51.7296 69.3652 51.7296C69.3685 51.7296 70.8913 52.2573 72.7492 52.9022ZM76.7707 57.2211C76.4731 57.5488 76.3785 58.03 76.3005 59.6123L76.2027 61.5934L75.4545 61.7144C73.9814 61.9524 73.339 63.4617 74.3593 64.2875C75.061 64.8555 76.8022 64.6925 77.7494 63.9702C78.9376 63.0644 79.233 62.2309 79.233 59.7839C79.233 57.8172 79.1996 57.6292 78.7806 57.2356C78.1978 56.6884 77.2604 56.6815 76.7707 57.2211ZM61.7062 61.5987C61.7754 62.566 61.9611 63.8371 62.1187 64.4232C62.2764 65.0094 62.3754 65.5189 62.3388 65.5555C62.3022 65.5922 61.8745 65.2244 61.3885 64.7386C60.4287 63.7792 59.8782 62.5103 59.8782 61.2578C59.8782 60.309 60.1294 59.8281 60.8117 59.4697C61.4884 59.1142 61.5363 59.2281 61.7062 61.5987ZM92.6446 59.8203C93.4025 60.578 93.4694 61.0865 93.0131 62.6223C92.723 63.5992 91.1449 65.6469 90.8809 65.3894C90.8145 65.3245 90.8897 64.7089 91.0483 64.0214C91.2066 63.3339 91.3971 61.9577 91.4712 60.9635C91.5453 59.9694 91.6899 59.1558 91.7928 59.1558C91.8958 59.1558 92.279 59.4548 92.6446 59.8203ZM31.1691 61.6968C34.2027 65.9455 37.3955 67.782 41.7941 67.8083C44.9281 67.8271 47.4966 66.9422 49.7826 65.0563C50.7132 64.2885 52.5926 62.0067 53.8235 60.15L54.1224 59.6987L55.4852 60.0784L56.8479 60.4582L56.9742 61.8549C57.2915 65.3659 60.1869 68.5392 63.5306 69.0405C63.9949 69.1101 64.3748 69.2299 64.3748 69.3069C64.3748 69.5902 66.5632 71.8531 67.5067 72.5455L68.4804 73.2598V74.4849C68.4804 76.0376 68.0522 76.5619 66.409 77.0221C61.2475 78.4675 59.7638 79.2115 57.4153 81.5316C55.5889 83.3358 54.4731 85.1837 53.7963 87.5249L53.3537 89.0561H50.1945C46.2106 89.0561 46.2907 88.9998 46.2907 91.7921C46.2907 94.0147 46.5533 94.5281 47.6895 94.5281C48.6321 94.5281 49.1255 93.9574 49.1255 92.8669V91.9875H51.1783H53.2311V94.53V97.0725L44.0016 97.0217L34.7722 96.9709L33.6246 92.9646C32.9934 90.7612 32.3384 88.8044 32.1689 88.6164C31.7752 88.1794 30.6024 88.1689 30.1283 88.5978C29.5889 89.0858 29.68 89.8142 30.7482 93.5509C31.2858 95.4317 31.7257 96.9932 31.7257 97.0209C31.7257 97.0489 26.3406 97.0489 19.7588 97.0213L7.7918 96.9709L5.68857 89.6424C4.53178 85.6117 3.52826 82.025 3.45847 81.6719L3.33159 81.0299L5.42132 81.0856L7.51106 81.1413L7.86062 82.1744C8.0528 82.7427 8.37636 83.3334 8.57987 83.4874C8.88134 83.7155 10.0415 83.7683 14.8635 83.7733C20.6291 83.7794 20.7879 83.7692 21.1912 83.3661C21.5324 83.025 21.5889 82.7849 21.5132 81.9981L21.4215 81.0436H24.2876H27.1539L27.6313 82.5582C28.0147 83.7737 28.2131 84.1222 28.637 84.3231C29.3253 84.6494 30.1017 84.4438 30.505 83.8282C30.8487 83.3039 30.8026 83.0145 29.8585 79.7681C29.3912 78.1617 29.2297 78.1122 24.4446 78.1122H20.4677L20.22 77.1865C19.7859 75.5648 19.8037 75.5717 16.027 75.5717H12.7056L12.8354 74.0163C13.1247 70.549 14.3922 67.8715 16.959 65.3053C18.3769 63.8877 19.052 63.3778 20.3865 62.7161C21.9404 61.9455 28.9251 59.7314 29.5629 59.807C29.7173 59.8254 30.4403 60.6757 31.1691 61.6968ZM70.8892 65.4464C70.3007 65.7308 69.9767 66.5742 70.2152 67.2012C70.6393 68.3163 73.2082 69.7743 75.3584 70.1206C77.6927 70.4962 80.3468 69.7102 82.0532 68.138C83.146 67.1312 83.2739 66.2807 82.4324 65.6192C81.721 65.0597 81.1226 65.1118 80.3365 65.8019C79.3024 66.7093 77.9408 67.2336 76.5937 67.2428C75.1105 67.2528 74.2753 66.9641 72.9685 65.9895C71.8833 65.1801 71.5955 65.105 70.8892 65.4464ZM30.567 67.2924C30.3441 67.5756 30.1617 67.9682 30.1617 68.165C30.1617 69.3978 34.0774 71.7851 37.6915 72.7562C39.7937 73.3207 44.3871 73.2815 46.4657 72.6809C49.4747 71.8117 53.0532 69.8113 53.4457 68.7792C53.6995 68.1118 53.3656 67.2922 52.7198 66.9983C51.9941 66.6676 51.8037 66.7138 50.6684 67.4943C45.3537 71.1488 38.8217 71.2223 33.5502 67.6868C31.9419 66.6082 31.1842 66.508 30.567 67.2924ZM73.4295 75.2912C75.7384 75.7771 79.4016 75.5871 81.2178 74.8873C81.4784 74.7868 81.5824 74.9561 81.7554 75.7632C82.0256 77.0225 82.3613 77.6666 83.1257 78.393C83.4579 78.7087 83.7296 79.0751 83.7296 79.207C83.7296 79.5701 81.9996 81.0196 80.8948 81.582C77.2152 83.4552 72.7726 82.7685 69.967 79.8927L69.2053 79.1122L69.8051 78.6076C70.5646 77.9688 71.4129 76.2842 71.4129 75.4147C71.4129 74.8601 71.4704 74.7702 71.755 74.8795C71.9431 74.9518 72.6968 75.1372 73.4295 75.2912ZM17.8182 79.3573C17.9367 79.8271 18.0884 80.3547 18.1556 80.5298C18.2661 80.8175 17.9005 80.8482 14.3701 80.8482H10.4622L10.2471 79.994C10.1287 79.5242 9.97694 78.9965 9.90969 78.8214C9.79923 78.5338 10.1648 78.5031 13.6952 78.5031H17.6031L17.8182 79.3573Z" fill="black"/>
</svg>
