<svg width="100" height="100" viewBox="0 0 100 100" fill="none" xmlns="http://www.w3.org/2000/svg">
<path fill-rule="evenodd" clip-rule="evenodd" d="M48.2117 0.212925C46.9151 0.63644 45.6974 1.43437 44.9438 2.35378C42.686 5.10927 42.7598 8.69966 45.1269 11.2564C46.1534 12.365 46.1995 12.4608 46.1995 13.4794C46.1995 14.3394 46.2866 14.6257 46.6522 14.9695C47.553 15.8155 49.1338 15.2062 49.1338 14.0129C49.1338 13.5716 49.206 13.5363 50.1119 13.5363H51.09V17.5954V21.6545H50.1119C49.1616 21.6545 49.1338 21.6383 49.1338 21.0837C49.1338 20.2183 48.9376 19.8748 48.287 19.6013C47.5853 19.3061 46.6888 19.5407 46.391 20.0972C46.2858 20.294 46.1995 20.9892 46.1995 21.6422C46.1995 22.777 46.1655 22.8601 45.4241 23.5297C44.6179 24.258 43.463 26.306 43.4579 27.0165C43.4562 27.2412 43.3898 27.5274 43.3106 27.652C43.2312 27.7768 41.1635 29.0347 38.7157 30.4472L34.265 33.0153L33.3788 32.7145C32.2572 32.3336 30.7063 32.3301 29.4422 32.7057L28.4588 32.9975L23.9504 30.4071L19.4418 27.8165L19.3148 27.046C19.1397 25.9844 18.1039 24.107 17.3076 23.4079C16.9441 23.0886 16.1876 22.5857 15.6268 22.2901C14.7103 21.8071 14.4089 21.7529 12.6509 21.7547C11.0075 21.7565 10.5497 21.8286 9.78777 22.2058C8.40044 22.8926 7.40905 23.8482 6.67078 25.2097C6.03384 26.3846 5.99981 26.5462 6 28.4034C6 30.165 6.05419 30.4625 6.5446 31.3932C7.73612 33.6552 9.78699 34.9825 12.3009 35.118C13.2575 35.1697 14.0063 35.0938 14.6278 34.8821L15.5441 34.5699L20.0543 37.1828L24.5644 39.7959L24.7847 40.7734C25.0541 41.97 25.7857 43.2433 26.7188 44.1402L27.4201 44.8143V50.0193V55.2244L26.7188 55.8985C25.7857 56.7954 25.0541 58.0687 24.7847 59.2653L24.5644 60.2428L20.0543 62.8558L15.5441 65.4687L14.6278 65.1565C14.0063 64.9449 13.2575 64.869 12.3009 64.9206C9.78699 65.0562 7.73612 66.3834 6.5446 68.6454C6.05419 69.5763 6.0002 69.8735 6.0002 71.6352C6.0002 73.3909 6.05517 73.6959 6.53756 74.6112C7.31476 76.0858 8.07219 76.8643 9.4652 77.6196C10.6309 78.2517 10.7962 78.2863 12.6509 78.2863C14.5055 78.2863 14.6708 78.2517 15.8365 77.6196C16.5128 77.2528 17.3271 76.6554 17.6464 76.2919C18.4116 75.4203 19.1638 73.9126 19.3197 72.9373C19.4199 72.3109 19.5605 72.1051 20.0177 71.9157C20.9205 71.5417 21.7471 70.6648 21.7471 70.0806C21.7471 69.7866 21.5312 69.3475 21.2466 69.0628C20.7475 68.564 20.422 68.5341 19.3019 68.8846C18.9897 68.9822 18.8246 68.8467 18.4842 68.2137L18.058 67.4204L18.4842 67.155C18.7188 67.0092 20.2773 66.1029 21.9475 65.1415L24.9842 63.393L25.4889 64.2039L25.9936 65.0145L25.5332 65.4247C24.9694 65.9269 24.906 67.0268 25.415 67.4738C26.0766 68.0546 26.5991 68.0712 27.5469 67.5415C28.4248 67.0509 28.4735 67.0454 29.4367 67.3314C30.7059 67.7084 32.2556 67.7054 33.3788 67.3242L34.265 67.0233L38.7157 69.5914C41.1635 71.004 43.2312 72.2618 43.3106 72.3866C43.3898 72.5112 43.4564 72.7894 43.4579 73.0046C43.4638 73.7151 44.5743 75.7299 45.3938 76.5165L46.1995 77.2898V82.5273V87.7648L45.7257 88.0753C44.9916 88.5563 43.9106 90.2924 43.5463 91.5749C42.6829 94.6162 44.2026 97.9135 47.1328 99.356C48.3026 99.9319 48.6176 100 50.1119 100C51.6062 100 51.9212 99.9319 53.091 99.356C56.1248 97.8625 57.5775 94.551 56.5965 91.3654C56.1962 90.0663 55.2393 88.6026 54.4102 88.022C54.0425 87.7642 54.0243 87.5062 54.0243 82.5206V77.2898L54.83 76.5165C55.6495 75.7299 56.76 73.7151 56.7659 73.0046C56.7675 72.7894 56.834 72.5112 56.9132 72.3866C56.9926 72.2618 59.0603 71.004 61.5081 69.5914L65.9588 67.0233L66.845 67.3242C67.9666 67.705 69.5175 67.7086 70.7816 67.333L71.765 67.0411L76.2734 69.6315L80.782 72.2221L80.909 72.9926C81.0995 74.1474 82.1627 75.9862 83.0608 76.7141C84.6858 78.0312 85.4178 78.2863 87.573 78.2863C89.4276 78.2863 89.5929 78.2517 90.7586 77.6196C92.1516 76.8643 92.9091 76.0858 93.6863 74.6112C94.1686 73.6959 94.2236 73.3909 94.2236 71.6352C94.2236 69.8735 94.1696 69.5763 93.6792 68.6454C92.4877 66.3834 90.4368 65.0562 87.9229 64.9206C86.9714 64.8692 86.2173 64.9449 85.6058 65.1532L84.6993 65.4621L80.1795 62.8533L75.6596 60.2443L75.4393 59.266C75.1697 58.0688 74.4383 56.7956 73.505 55.8985L72.8037 55.2244V50.0573V44.8902L73.7679 43.8352C74.6914 42.8248 75.5424 41.0971 75.5424 40.2327C75.5424 39.9733 75.8894 39.6546 76.6228 39.2407C77.8045 38.5738 78.0854 38.2102 78.0854 37.3473C78.0854 36.2808 76.9841 35.7405 75.9178 36.2841L75.2321 36.6337L74.7175 35.8068L74.2026 34.9799L77.6048 33.0122C79.4759 31.9298 81.0759 31.045 81.16 31.0458C81.2443 31.0468 81.5007 31.3932 81.7302 31.816L82.1473 32.5844L81.6813 33.0222C81.0279 33.6358 81.0506 34.603 81.7308 35.138C82.4006 35.665 82.8585 35.6495 83.8542 35.066C84.6502 34.5994 84.6929 34.5955 85.7019 34.8913C88.7909 35.7968 92.1313 34.332 93.6792 31.3932C94.1696 30.4625 94.2238 30.165 94.2238 28.4034C94.224 26.5462 94.19 26.3846 93.553 25.2097C92.8148 23.8482 91.8234 22.8926 90.436 22.2058C89.6741 21.8286 89.2164 21.7565 87.573 21.7547C85.8149 21.7529 85.5135 21.8071 84.597 22.2901C84.0362 22.5857 83.2797 23.0886 82.9162 23.4079C82.1199 24.107 81.0841 25.9844 80.909 27.046L80.782 27.8165L76.2734 30.4071L71.765 32.9975L70.7816 32.7057C69.5175 32.3301 67.9666 32.3336 66.845 32.7145L65.9588 33.0153L61.5081 30.4472C59.0603 29.0347 56.9926 27.7768 56.9132 27.652C56.834 27.5274 56.7677 27.2412 56.7659 27.0165C56.7608 26.306 55.6059 24.258 54.7997 23.5297L54.0243 22.8292V17.622V12.4149L55.0969 11.2564C58.9942 7.04668 56.198 0.281783 50.4484 0.0102633C49.5972 -0.0300343 48.7085 0.0505608 48.2117 0.212925ZM52.2997 3.56036C53.125 4.10653 54.0198 5.68204 54.0214 6.59187C54.0237 8.01148 53.0603 9.59521 51.7946 10.2525C51.0092 10.6602 49.2146 10.6602 48.4292 10.2525C47.1635 9.59521 46.2001 8.01148 46.2025 6.59187C46.2048 5.24992 47.543 3.49444 48.8973 3.05703C49.8232 2.75813 51.4513 2.99893 52.2997 3.56036ZM14.4257 24.9869C16.5891 26.0343 17.1567 29.082 15.5251 30.8903C14.663 31.8457 13.8572 32.218 12.6509 32.218C11.4445 32.218 10.6387 31.8457 9.77662 30.8903C8.98163 30.0092 8.73417 29.1507 8.88636 27.8007C9.17099 25.2758 12.0262 23.8255 14.4257 24.9869ZM52.2962 25.286C54.2694 26.68 54.5345 29.3105 52.8805 31.0836C51.3893 32.6822 48.8357 32.6835 47.3459 31.0863C45.955 29.5953 45.8619 27.6986 47.0978 26.0319C48.2338 24.5 50.6855 24.1481 52.2962 25.286ZM89.3824 25.0037C91.5266 26.0417 92.0769 29.0842 90.4472 30.8903C89.5851 31.8457 88.7793 32.218 87.573 32.218C86.3666 32.218 85.5608 31.8457 84.6987 30.8903C83.9037 30.0092 83.6563 29.1507 83.8085 27.8007C84.0952 25.2567 86.948 23.8253 89.3824 25.0037ZM22.619 33.0122L26.0212 34.9799L25.5011 35.8154L24.9809 36.6509L21.9457 34.9011C20.2765 33.9388 18.7188 33.0316 18.4842 32.8848L18.058 32.6182L18.4842 31.8328C18.7188 31.4009 18.9795 31.0468 19.0638 31.0458C19.148 31.045 20.7479 31.9298 22.619 33.0122ZM44.2101 31.8453C44.4607 32.2841 44.6367 32.6667 44.6013 32.6955C44.3161 32.9265 37.9671 36.5212 37.8462 36.52C37.7603 36.5192 37.491 36.1699 37.2476 35.7436L36.8051 34.9688L37.2476 34.6906C38.2011 34.0914 43.5548 31.0443 43.6516 31.0458C43.7081 31.0466 43.9593 31.4063 44.2101 31.8453ZM59.9907 32.9474C61.6045 33.8739 63.0325 34.7139 63.1642 34.8138C63.3469 34.9527 63.3009 35.175 62.9686 35.7571C62.7293 36.1759 62.4609 36.5192 62.3719 36.52C62.2534 36.5212 56.0601 33.0067 55.6225 32.6898C55.5871 32.6642 55.7631 32.2835 56.0137 31.8438C56.3207 31.3054 56.5654 31.0801 56.763 31.1536C56.9243 31.2137 58.3768 32.021 59.9907 32.9474ZM48.2535 34.9862C49.1497 35.2677 51.2844 35.2197 52.2191 34.8968L53.0548 34.6082L57.5323 37.1787C61.8236 39.6425 62.0151 39.7777 62.1384 40.434C62.3686 41.6582 63.172 43.1421 64.0852 44.0297L64.979 44.8984V50.0193V55.1402L64.0852 56.009C63.172 56.8965 62.3686 58.3805 62.1384 59.6047C62.0151 60.2612 61.8236 60.3961 57.4989 62.8791L52.9879 65.4689L52.1299 65.1776C51.0319 64.8048 49.1925 64.8046 48.0951 65.1773L47.2383 65.4681L42.7334 62.8787L38.2284 60.2893L37.997 59.2754C37.7286 58.0986 36.5221 56.1289 35.7666 55.6338L35.2449 55.292V50.0193V44.7466L35.7666 44.4048C36.5228 43.9091 37.729 41.9389 37.9958 40.7632L38.2259 39.7493L42.6528 37.1785C45.0876 35.7645 47.2119 34.6513 47.3732 34.7047C47.5346 34.7581 47.9308 34.8847 48.2535 34.9862ZM32.852 35.6507C35.382 36.7076 36.0193 39.8592 34.1097 41.8696C33.3344 42.6859 32.588 43.0083 31.4504 43.0187C27.8972 43.0506 26.1763 38.7992 28.7595 36.3712C29.8462 35.3498 31.4545 35.0666 32.852 35.6507ZM70.9929 35.9977C73.4174 37.6779 73.2026 41.2845 70.5987 42.613C69.6357 43.1042 68.0365 43.1533 67.2014 42.7172C64.2739 41.1889 64.2898 37.104 67.2286 35.7068C68.3546 35.1714 69.9821 35.2972 70.9929 35.9977ZM45.3367 40.8403C44.8795 41.3835 44.8302 41.6026 44.8302 43.0899V44.7376H43.1825C41.6952 44.7376 41.4761 44.7869 40.9329 45.2441L40.331 45.7505V50.0193V54.2881L40.9329 54.7946C41.4761 55.2517 41.6952 55.301 43.1825 55.301H44.8302V56.9487C44.8302 58.436 44.8795 58.6551 45.3367 59.1984L45.8431 59.8003H50.1119H54.3807L54.8872 59.1984C55.3443 58.6551 55.3936 58.436 55.3936 56.9487V55.301H57.0413C58.5286 55.301 58.7477 55.2517 59.2909 54.7946L59.8929 54.2881V50.0193V45.7505L59.2909 45.2441C58.7477 44.7869 58.5286 44.7376 57.0413 44.7376H55.3936V43.0899C55.3936 41.6026 55.3443 41.3835 54.8872 40.8403L54.3807 40.2384H50.1119H45.8431L45.3367 40.8403ZM52.4593 44.942C52.4593 46.56 52.5004 46.7527 52.9396 47.1916C53.3785 47.6308 53.5712 47.6719 55.1892 47.6719H56.9586V50.0193V52.3667H55.1892C53.5712 52.3667 53.3785 52.4078 52.9396 52.847C52.5004 53.286 52.4593 53.4786 52.4593 55.0966V56.866H50.1119H47.7645V55.0966C47.7645 53.4786 47.7234 53.286 47.2842 52.847C46.8453 52.4078 46.6526 52.3667 45.0346 52.3667H43.2652V50.0193V47.6719H45.0346C46.6526 47.6719 46.8453 47.6308 47.2842 47.1916C47.7234 46.7527 47.7645 46.56 47.7645 44.942V43.1726H50.1119H52.4593V44.942ZM32.3106 50.0193V54.0526L31.3325 54.0673L30.3544 54.0821V50.0193V45.9565L31.3325 45.9714L32.3106 45.986V50.0193ZM69.8694 50.0193V54.0821L68.8913 54.0673L67.9132 54.0526V50.0193V45.986L68.8913 45.9714L69.8694 45.9565V50.0193ZM32.6005 57.1622C32.8675 57.2175 33.4094 57.5469 33.8049 57.8942C36.73 60.4624 34.7853 65.0159 30.9219 64.6448C28.6359 64.4251 27.0735 62.1322 27.6499 59.8431C27.9579 58.6203 29.2182 57.3564 30.3825 57.1031C31.1959 56.926 31.5003 56.9343 32.6005 57.1622ZM70.6895 57.4793C71.5809 57.9251 72.3082 58.8591 72.5905 59.9206C73.1701 62.0998 71.5488 64.4288 69.3019 64.6448C65.4385 65.0159 63.4938 60.4624 66.4189 57.8942C66.8144 57.5469 67.3344 57.221 67.5744 57.1698C68.6087 56.9495 68.8242 56.9319 69.3804 57.0225C69.7032 57.0751 70.2922 57.2807 70.6895 57.4793ZM81.7396 67.1538L82.1659 67.4204L81.7396 68.2058C81.505 68.6378 81.2443 68.9918 81.16 68.9928C81.0759 68.9936 79.4759 68.1088 77.6048 67.0264L74.2026 65.0587L74.7227 64.2232L75.2429 63.3877L78.2781 65.1375C79.9473 66.0998 81.505 67.0071 81.7396 67.1538ZM41.2695 65.404C43.0665 66.4417 44.573 67.3216 44.6172 67.359C44.7175 67.4441 44.0074 68.7946 43.7901 68.9324C43.6551 69.018 37.7891 65.7868 37.0549 65.2226C36.8654 65.0769 36.9059 64.8664 37.2376 64.276C37.4724 63.8586 37.7404 63.517 37.8333 63.517C37.9264 63.517 39.4726 64.3662 41.2695 65.404ZM62.9686 64.2815C63.3013 64.8643 63.3471 65.0861 63.1642 65.2266C62.4302 65.7895 56.5681 69.0177 56.4337 68.9324C56.1164 68.7315 55.4946 67.3631 55.6874 67.2901C55.7948 67.2496 57.2911 66.3883 59.0126 65.3762C60.734 64.3641 62.2305 63.5325 62.3381 63.528C62.4457 63.5237 62.7293 63.8627 62.9686 64.2815ZM14.1732 68.0842C15.0601 68.4554 16.2215 69.8095 16.3807 70.6577C16.8719 73.2761 15.18 75.4498 12.6509 75.4498C10.1033 75.4498 8.42626 73.2951 8.92098 70.6577C9.07591 69.832 10.2283 68.4664 11.0859 68.0922C11.8545 67.7567 13.3815 67.7528 14.1732 68.0842ZM51.8114 68.2011C53.4093 68.9267 54.3124 70.9146 53.8404 72.6673C52.8474 76.3551 47.3764 76.3551 46.3834 72.6673C45.7261 70.227 47.5741 67.8293 50.1119 67.8293C50.5961 67.8293 51.3609 67.9967 51.8114 68.2011ZM89.0953 68.0842C89.9822 68.4554 91.1436 69.8095 91.3028 70.6577C91.7975 73.2951 90.1205 75.4498 87.573 75.4498C85.0438 75.4498 83.3519 73.2761 83.8431 70.6577C83.998 69.832 85.1504 68.4664 86.008 68.0922C86.7766 67.7567 88.3036 67.7528 89.0953 68.0842ZM51.09 82.4432V86.5023H50.1119H49.1338V82.4432V78.3841H50.1119H51.09V82.4432ZM51.1872 89.558C52.6921 89.9757 54.0196 91.801 54.0231 93.4573C54.0251 94.3402 53.0618 95.9738 52.205 96.5409C51.5444 96.9781 51.1949 97.0657 50.1119 97.0657C49.0139 97.0657 48.6825 96.9802 47.9799 96.5152C47.0986 95.9319 46.204 94.3877 46.2025 93.4468C46.1999 91.8718 47.3948 90.1441 48.8404 89.6328C49.8019 89.2926 50.187 89.2803 51.1872 89.558Z" fill="black"/>
</svg>
