<svg width="100" height="100" viewBox="0 0 100 100" fill="none" xmlns="http://www.w3.org/2000/svg">
<path fill-rule="evenodd" clip-rule="evenodd" d="M37.4047 3.66211C37.3486 7.04316 37.3088 7.3957 36.8852 8.25586C36.2367 9.57266 34.9023 10.8367 33.6797 11.2924C33.1168 11.5021 28.9211 12.5268 24.3557 13.5691C19.7826 14.6135 15.4035 15.7236 14.6045 16.041C11.1979 17.3945 8.36699 20.0297 6.78027 23.3248C5.04336 26.9312 5.15352 25.2953 5.07207 48.6816L5 69.3359H6.57246H8.14473V48.7715C8.14473 25.9758 8.07754 27.2281 9.44981 24.4184C9.97168 23.3498 10.5646 22.5563 11.6592 21.4617C14.0957 19.0254 14.7777 18.7695 25.1369 16.4076C34.9922 14.1605 35.941 13.8307 37.7473 12.0244C39.8863 9.88535 40.5619 7.57617 40.565 2.39258L40.5666 0H39.016H37.4652L37.4047 3.66211ZM59.7088 2.39258C59.7096 3.70859 59.7955 5.52656 59.8996 6.43281C60.2799 9.74082 62.1596 12.4291 65.0236 13.7607C66.9248 14.6447 78.0065 17.2102 78.2465 16.8219C78.4776 16.4479 78.8998 14.44 78.7738 14.3141C78.7141 14.2541 76.0676 13.6051 72.893 12.8717C69.7184 12.1381 66.7361 11.3678 66.2658 11.1598C65.1672 10.6738 64.0033 9.50547 63.4031 8.28574C62.9619 7.38926 62.9258 7.07637 62.8692 3.66211L62.8086 0H61.2578H59.7072L59.7088 2.39258ZM81.7049 15.2018C81.394 16.3445 81.1629 17.6146 81.2504 17.702C81.3069 17.7584 82.0418 17.9807 82.8836 18.1959C84.786 18.682 86.7707 19.7082 88.077 20.8811C89.1746 21.8666 90.7619 23.9104 90.7619 24.3379C90.7619 24.5602 90.0889 24.6094 87.051 24.6094H83.3401V26.0742V27.5391H87.616C92.4739 27.5391 92.1291 27.4035 92.1291 29.3129V30.4688H89.6877H87.2463V31.9336V33.3984H89.6877H92.1291V66.6016V99.8047H93.6977H95.266L95.2022 63.916C95.1301 23.3055 95.2877 27.0498 93.4936 23.3248C92.7688 21.8195 92.2178 21.0053 91.1516 19.8637C88.9194 17.4732 86.8024 16.2207 83.4945 15.3328C81.9424 14.9162 81.7858 14.9047 81.7049 15.2018ZM44.6682 25.2666C44.6682 32.2939 44.8481 32.0271 39.9807 32.2215C37.0027 32.3404 36.9291 32.3541 35.4664 33.0602C33.5 34.0094 32.0066 35.4998 31.0397 37.4779C30.3182 38.9535 30.3127 38.9834 30.3127 41.4164C30.3127 43.8527 30.3172 43.877 31.0371 45.3227C31.7481 46.7506 32.6887 47.927 33.8059 48.7857L34.3693 49.2188L33.8059 49.6518C32.6887 50.5105 31.7481 51.6869 31.0371 53.1148C30.3168 54.5615 30.3127 54.5832 30.3127 57.0312C30.3127 59.4793 30.3168 59.501 31.0371 60.9477C31.7481 62.3756 32.6887 63.552 33.8059 64.4107L34.3693 64.8438L33.8059 65.2768C32.6887 66.1355 31.7481 67.3119 31.0371 68.7398C30.3172 70.1855 30.3127 70.2098 30.3127 72.6461C30.3127 75.0791 30.3182 75.109 31.0397 76.5846C31.9906 78.5299 33.5076 80.059 35.3688 80.9482C36.7402 81.6035 37.1363 81.7064 39.1506 81.9307L40.176 82.0447V80.5852V79.1256L39.2482 79.0103C37.1596 78.7512 36.2518 78.3387 34.9928 77.0768C33.5902 75.6711 33.1447 74.6053 33.1447 72.6562C33.1447 70.7094 33.5908 69.6404 34.9848 68.2463C36.8979 66.3334 36.3617 66.4062 48.5115 66.4062H58.926V64.9537V63.5012L48.5256 63.4313C36.4252 63.3498 36.974 63.4305 34.9848 61.4412C33.5908 60.0471 33.1447 58.9781 33.1447 57.0312C33.1447 55.0844 33.5908 54.0154 34.9848 52.6213C36.8979 50.7084 36.3617 50.7812 48.5115 50.7812H58.926V49.3287V47.8762L48.5256 47.8063C36.4252 47.7248 36.974 47.8055 34.9848 45.8162C33.5908 44.4221 33.1447 43.3531 33.1447 41.4062C33.1447 39.634 33.5857 38.4713 34.7346 37.2143C36.2492 35.557 36.9902 35.2891 40.4924 35.1332C42.8949 35.0262 43.6232 34.9232 44.3986 34.5811C45.6449 34.0311 46.6848 32.9977 47.2383 31.7592C47.6609 30.8137 47.6879 30.4797 47.7568 25.3418L47.8297 19.9219H46.2488H44.6682V25.2666ZM52.4807 27.4066C52.4807 36.2506 52.499 36.1453 50.6406 38.0037C49.0192 39.625 48.3199 39.848 44.424 39.9857L41.3479 40.0945V41.5338V42.9732L49.2092 42.9221L57.0705 42.8711L57.1279 41.4551L57.1854 40.0391H55.126C53.9934 40.0391 53.0666 39.99 53.0666 39.9299C53.0666 39.8699 53.3262 39.4965 53.6436 39.0998C54.5518 37.9646 55.2211 36.2285 55.4213 34.4879C55.5211 33.6201 55.6033 29.9877 55.6041 26.416L55.6057 19.9219H54.0432H52.4807V27.4066ZM77.4807 25.9766V27.5391H78.9455H80.4104V25.9766V24.4141H78.9455H77.4807V25.9766ZM18.3635 41.4551C18.543 47.5629 19.043 51.6684 20.5465 59.375C22.5873 69.8369 22.842 76.1393 21.8369 91.3086C21.5379 95.8203 21.3283 99.5777 21.3713 99.6582C21.4141 99.7389 22.0551 99.8047 22.7959 99.8047H24.1426L24.243 99.1699C24.2982 98.8207 24.5756 94.7998 24.8594 90.2344C25.2926 83.2656 25.3596 80.9934 25.2766 76.0742C25.152 68.6908 24.8598 66.0961 23.1861 57.5195C21.9049 50.9535 21.2334 44.9316 21.2316 39.9902L21.2307 37.3047H19.7361H18.2414L18.3635 41.4551ZM78.9836 41.3574C78.8625 45.5324 78.5272 49.0838 77.8561 53.299C77.6442 54.6303 77.5018 55.7502 77.5395 55.7879C77.6346 55.883 79.6063 56.25 80.0221 56.25C80.3078 56.25 80.4278 55.825 80.7797 53.5645C81.4819 49.0551 81.7867 45.7945 81.9123 41.4551L82.0324 37.3047H80.5668H79.1012L78.9836 41.3574ZM60.0979 41.4795V42.9688H61.1373C62.8246 42.9688 63.9457 43.4656 65.2891 44.8088C66.683 46.2029 67.1291 47.2719 67.1291 49.2188C67.1291 51.1656 66.683 52.2346 65.2891 53.6287C63.2998 55.618 63.8486 55.5373 51.7483 55.6188L41.3479 55.6887V57.1412V58.5938H51.7623C63.9121 58.5938 63.376 58.5209 65.2891 60.4338C66.683 61.8279 67.1291 62.8969 67.1291 64.8438C67.1291 66.7906 66.683 67.8596 65.2891 69.2537C63.2998 71.243 63.8486 71.1623 51.7483 71.2438L41.3479 71.3137V72.7662V74.2188H51.7623C63.9121 74.2188 63.376 74.1459 65.2891 76.0588C66.683 77.4529 67.1291 78.5219 67.1291 80.4688C67.1291 82.4156 66.683 83.4846 65.2891 84.8787C63.557 86.6105 63.1026 86.7318 57.7541 86.891C53.7865 87.0092 53.2836 87.0625 52.5783 87.4393C51.515 88.007 50.6348 88.9674 50.1057 90.1367C49.6975 91.0389 49.6578 91.452 49.5865 95.5566L49.5092 100H51.0926H52.676V95.5859V91.1719L53.34 90.5078L54.0041 89.8438L57.0998 89.8422C58.8026 89.8414 60.9268 89.7566 61.8207 89.6539C65.091 89.2779 67.7805 87.3709 69.2342 84.3971C69.9557 82.9215 69.9612 82.8916 69.9612 80.4586C69.9612 78.0238 69.9563 77.9973 69.2383 76.5523C68.5348 75.1361 67.3313 73.6477 66.3531 72.984L65.8703 72.6562L66.3531 72.3285C67.3313 71.6648 68.5348 70.1764 69.2383 68.7602C69.9567 67.3145 69.9612 67.2902 69.9612 64.8438C69.9612 62.3973 69.9567 62.373 69.2383 60.9273C68.5348 59.5111 67.3313 58.0227 66.3531 57.359L65.8703 57.0312L66.3531 56.7035C67.3313 56.0398 68.5348 54.5514 69.2383 53.1352C69.9563 51.6902 69.9612 51.6637 69.9612 49.2289C69.9612 46.7959 69.9557 46.766 69.2342 45.2904C68.2828 43.3443 66.7861 41.8395 64.8502 40.8826C63.6082 40.2689 63.152 40.1504 61.7459 40.0766L60.0979 39.99V41.4795ZM76.8084 58.9564C76.5862 59.674 75.7063 65.1117 75.4133 67.5781C75.2303 69.1195 75.0574 72.6084 74.9973 75.9771C74.9108 80.8242 74.9778 83.1045 75.4194 90.3326C75.708 95.0588 75.984 99.1234 76.0326 99.3652C76.1141 99.7701 76.2272 99.8047 77.4729 99.8047C78.2164 99.8047 78.86 99.7389 78.903 99.6582C78.9461 99.5775 78.7283 95.7324 78.4192 91.1133C77.9319 83.8322 77.8682 81.8834 77.9414 76.4648C78.0301 69.9219 78.2231 67.6727 79.1619 62.24C79.4373 60.6469 79.633 59.317 79.5971 59.2848C79.561 59.2527 78.9412 59.0934 78.2197 58.9309C77.0154 58.6596 76.8996 58.6617 76.8084 58.9564ZM5.01973 86.0352V99.8047H6.58223H8.14473V86.0352V72.2656H6.58223H5.01973V86.0352ZM43.1459 80.5176C43.202 81.9002 43.216 81.935 43.7393 81.9953L44.2752 82.057L43.6994 82.7766C42.7922 83.9104 42.1231 85.6473 41.9229 87.3871C41.8231 88.2549 41.7408 91.4477 41.74 94.4824L41.7385 100H43.301H44.8635V93.4918C44.8635 85.7475 44.8721 85.7029 46.7035 83.8713C48.4568 82.1182 48.8192 82.0312 54.3709 82.0312H58.926V80.5664V79.1016H51.0072H43.0885L43.1459 80.5176ZM35.9639 89.9045C35.9063 90.0549 35.8856 90.7398 35.918 91.4268L35.9768 92.6758H37.4416H38.9065V91.2109V89.7461L37.4877 89.6887C36.4119 89.6451 36.0434 89.6973 35.9639 89.9045ZM35.9639 95.7639C35.9063 95.9143 35.8856 96.5992 35.918 97.2861L35.9768 98.5352H37.4416H38.9065V97.0703V95.6055L37.4877 95.548C36.4119 95.5045 36.0434 95.5566 35.9639 95.7639Z" fill="black"/>
</svg>
