<svg width="100" height="100" viewBox="0 0 100 100" fill="none" xmlns="http://www.w3.org/2000/svg">
<path fill-rule="evenodd" clip-rule="evenodd" d="M40.7319 0.139719C31.4135 0.971055 23.0473 4.81697 16.3677 11.3397C3.6717 23.7377 0.606049 42.7441 8.75429 58.5442L10.2528 61.45L8.6766 62.3632C6.75323 63.4776 3.60397 66.6029 2.50053 68.4923C0.57147 71.7952 -0.337758 76.0832 0.114132 79.7482C1.03094 87.1822 6.13886 93.0665 13.3907 95.0421C15.702 95.6717 19.846 95.6285 22.2108 94.9497C24.3204 94.3444 26.4983 93.2995 28.0927 92.128C28.6964 91.6845 29.2495 91.3217 29.3217 91.3217C29.3942 91.3217 30.2856 91.9242 31.3031 92.6605C33.6317 94.3456 38.5532 96.7871 41.7977 97.8667C48.6471 100.145 56.6255 100.624 63.6632 99.1792C69.2598 98.0302 76.5435 94.9927 81.1103 91.9034C89.4054 86.2919 95.2323 78.5636 98.375 69.0048C99.5826 65.3319 100.169 62.3326 99.9575 60.912C99.7216 59.3261 98.5479 57.7358 96.6261 56.3975C94.1199 54.6525 89.2957 52.3408 85.7876 51.2045C84.0634 50.6457 82.628 50.1729 82.5979 50.1533C82.5676 50.1337 82.7746 48.9971 83.0574 47.6271C83.7411 44.3158 83.8143 36.523 83.1928 33.2022C81.6294 24.8485 77.9291 17.7216 72.1061 11.8491C69.2411 8.9598 66.7509 7.05081 63.294 5.09313C56.536 1.26655 48.32 -0.537188 40.7319 0.139719ZM46.931 2.53276C49.6058 2.77145 52.0616 3.21086 54.237 3.8398L55.4264 4.18374L55.4212 7.05081L55.416 9.91764L54.3502 10.0494C51.0222 10.4614 48.0998 10.9516 46.5345 11.3607L44.7582 11.8252L43.8172 10.6989C42.1842 8.74451 39.9371 6.45577 38.1255 4.90146C37.163 4.07562 36.4224 3.32305 36.4799 3.229C36.6353 2.976 40.5439 2.47572 43.4556 2.33633C43.9115 2.31461 45.4754 2.40292 46.931 2.53276ZM35.0914 5.43969C37.3044 7.20476 42.3548 12.3393 42.0976 12.5627C41.9978 12.6496 41.2234 12.9666 40.3767 13.2676C38.4881 13.9385 33.8461 16.2406 32.1055 17.3696L30.8209 18.2026L29.3819 17.1094C26.6546 15.0379 23.3545 13.8359 19.7006 13.5829L17.6166 13.4387L18.3979 12.6157C19.7472 11.1953 23.935 8.15878 26.2215 6.94292C28.0866 5.95119 32.5593 4.01571 33.0782 3.97585C33.1675 3.96892 34.0734 4.62769 35.0914 5.43969ZM60.6045 6.33906C63.213 7.67736 66.2718 9.68588 67.8501 11.0965L68.9159 12.0491L67.3764 11.5681C65.4554 10.9678 61.8725 10.2644 59.6419 10.0496C57.6954 9.86227 57.6745 9.8341 57.6693 7.38425C57.666 5.88508 57.8157 5.15685 58.1271 5.15685C58.2226 5.15685 59.3374 5.68888 60.6045 6.33906ZM56.9469 13.9177C57.931 15.8356 59.6872 18.2553 63.2343 22.5808C68.3967 28.8758 70.7808 32.5897 72.6229 37.2078C73.79 40.1331 74.9503 45.5188 74.9539 48.0269L74.9553 49.0078L71.1066 49.1434C67.0413 49.2869 64.3172 49.6883 60.9353 50.6419C59.8025 50.9615 58.8168 51.2228 58.7446 51.2228C58.6723 51.2228 58.6133 50.6972 58.6133 50.0547C58.6133 48.4352 58.2088 44.4063 57.76 41.5561C56.3577 32.6506 53.198 24.3544 48.3703 16.9044C47.3256 15.2921 46.5134 13.9297 46.5658 13.8769C46.8727 13.5678 52.506 12.6334 55.7713 12.3501C55.9847 12.3315 56.4541 12.9575 56.9469 13.9177ZM63.3575 13.0349C66.1586 13.6103 69.2124 14.6684 71.6822 15.9193C73.4341 16.807 73.5582 16.9273 75.0543 19.1922C76.7951 21.8272 78.6085 25.5626 79.5386 28.4285C81.5293 34.5615 81.8874 41.9266 80.4971 48.1402L80.1456 49.712L79.0306 49.527C78.4174 49.4251 77.7827 49.3353 77.6197 49.3277C77.4232 49.3181 77.3237 48.9021 77.3237 48.0908C77.3237 44.6328 76.1355 39.497 74.345 35.2162C72.4784 30.7533 70.3623 27.6075 63.3845 18.9215C61.715 16.8433 60.0173 14.5608 59.6119 13.8495L58.8746 12.5561H59.9503C60.5417 12.5561 62.075 12.7716 63.3575 13.0349ZM46.1646 17.8663C48.6313 21.6005 51.3324 27.0563 52.6938 31.0541C54.7138 36.9858 56.0024 43.9088 56.0827 49.2604L56.1265 52.1909L53.995 53.1187C51.3059 54.289 48.1798 56.0292 47.866 56.5307C47.5122 57.0957 48.0493 58.1447 48.6924 58.1447C48.9728 58.1447 50.7614 57.3589 52.6668 56.3985C56.576 54.4284 60.149 53.1757 64.5144 52.2449C67.2073 51.6708 67.986 51.609 72.5869 51.6054C76.9976 51.6019 78.0089 51.6735 80.1452 52.1406C81.5018 52.4373 82.7826 52.7721 82.992 52.885C83.2014 52.9979 85.4821 58.217 88.0713 64.5085L92.7704 75.9266L92.2399 76.8813C90.4963 80.0188 86.5181 84.6725 83.388 87.2362C77.1584 92.338 69.2745 95.8928 61.3027 97.1938C58.2697 97.6886 51.8359 97.7106 49.2958 97.2344L47.6754 96.9308L42.2498 83.7349C39.2657 76.4773 36.8241 70.3856 36.8241 70.1977C36.8241 69.7941 40.1469 65.5966 41.5386 64.2423C42.1028 63.6936 42.5082 63.0766 42.5082 62.7675C42.5082 62.1426 41.927 61.4862 41.3735 61.4862C40.6223 61.4862 36.2448 66.4318 34.1975 69.5936L33.8209 70.1751L33.212 69.1124C32.137 67.2378 31.1837 61.4316 30.9801 55.5191C30.7622 49.19 31.2477 45.288 33.3861 36.1858C34.6608 30.759 35.0321 28.2428 34.8614 26.1892C34.7145 24.4227 34.0192 22.3383 33.1426 21.0367C32.8227 20.5615 32.5612 20.097 32.5617 20.0044C32.5629 19.7686 36.0939 17.762 38.3635 16.7072C40.4181 15.7527 43.1155 14.7505 43.7064 14.7219C43.9269 14.7114 44.9183 15.9795 46.1646 17.8663ZM21.3267 16.158C23.3235 16.528 26.0784 17.6665 27.5099 18.7134L28.735 19.6096L26.9187 21.0355C24.5875 22.8655 20.7628 26.7012 18.833 29.1446C14.8989 34.1259 11.3879 40.6537 9.46173 46.5685C8.86323 48.4064 8.32442 50.0597 8.2645 50.2426C8.08924 50.7765 7.98148 50.498 7.47109 48.1889C6.05692 41.7905 6.4451 34.4154 8.52645 28.1388C10.0202 23.6346 14.186 16.4865 15.5405 16.1036C16.4521 15.8458 19.8126 15.8773 21.3267 16.158ZM31.0691 22.1647C32.2171 23.8689 32.4321 24.7144 32.4191 27.4738C32.4091 29.5694 32.255 30.7376 31.6548 33.2619C28.7945 45.2944 28.6453 46.3322 28.6806 53.9677C28.6988 57.8974 28.8243 60.648 29.0484 62.0233C29.2355 63.1721 29.3437 64.1118 29.2893 64.1118C29.2348 64.1118 28.6844 63.7375 28.0662 63.2802C26.5924 62.1899 23.8275 60.8855 21.9032 60.3728C19.9968 59.8646 15.6731 59.805 13.8963 60.2623C12.3988 60.6475 12.5504 60.7871 10.7807 57.3911L9.57944 55.0864L10.5112 51.4066C13.412 39.9484 19.5722 30.0814 28.1768 23.1118C29.3478 22.1633 30.3602 21.3881 30.4268 21.389C30.4933 21.39 30.7825 21.7389 31.0691 22.1647ZM89.4463 55.1098C90.0001 55.3394 90.4531 56.2739 92.9537 62.3474L95.8252 69.3213L95.0197 71.283C94.5742 72.3683 94.1559 73.0975 94.0839 72.9149C94.0124 72.7335 92.237 68.4093 90.1386 63.3055C88.0405 58.2017 86.3236 53.9866 86.3236 53.9381C86.3236 53.8605 87.4777 54.2935 89.4463 55.1098ZM96.7931 59.6298C97.1455 60.0362 97.5025 60.6826 97.5861 61.0666C97.7324 61.7383 97.3262 64.6245 96.997 65.2517C96.8755 65.4835 94.8515 60.9709 93.4598 57.3654C93.299 56.9486 96.1442 58.8815 96.7931 59.6298ZM68.8448 58.1924C68.4661 58.5741 68.4867 59.1013 68.9213 60.1496C69.206 60.8365 69.2186 61.0425 68.9805 61.1277C65.5047 62.3741 61.7039 63.6969 61.337 63.7879C60.9623 63.8807 60.7643 63.6898 60.3896 62.8747C59.8328 61.6636 58.988 61.3896 58.2713 62.1875C57.8531 62.6532 57.8524 62.7162 58.2496 63.7647C58.4772 64.3652 58.6257 64.8877 58.5792 64.9257C58.0179 65.3847 50.6939 68.7009 50.6273 68.5262C50.1191 67.1941 49.6726 66.6113 49.1094 66.5454C48.3385 66.4552 47.6391 67.1132 47.7872 67.7894C47.8476 68.0641 48.0617 68.6682 48.2632 69.132L48.6294 69.9753L46.4407 71.3329C45.2369 72.0795 44.0498 72.9156 43.8026 73.1911C43.3914 73.6489 43.3834 73.7465 43.7085 74.3301C43.9039 74.6812 44.2443 75.0034 44.4648 75.0463C44.6853 75.0891 45.9071 74.4735 47.1804 73.6787L49.495 72.2332L50.0667 73.5481C50.6818 74.9633 51.3023 75.3466 52.1966 74.8645C52.8167 74.5301 52.8193 73.8448 52.2052 72.4807C51.943 71.8981 51.785 71.2728 51.8542 71.0911C51.9655 70.7985 59.0373 67.2147 59.5031 67.2147C59.6045 67.2147 59.9423 67.8612 60.2537 68.6518C60.6869 69.7511 60.959 70.124 61.4114 70.2383C62.7599 70.5794 63.1919 69.4881 62.4222 67.6846C61.7842 66.1897 61.7903 66.1482 62.6988 65.8413C63.1223 65.6983 64.8884 65.0897 66.624 64.4886C68.3595 63.8874 69.8812 63.3957 70.0058 63.3957C70.1302 63.3957 70.5079 64.0368 70.8452 64.8207C71.5268 66.4046 72.0623 66.7435 72.9538 66.1549C73.6588 65.6892 73.6707 65.4271 73.0523 63.9728C72.7873 63.3496 72.6539 62.7587 72.7562 62.6596C72.8586 62.5606 74.2744 62.197 75.9027 61.8517C77.5309 61.5063 79.2563 61.1194 79.7371 60.9917C80.7927 60.7115 81.0821 60.0482 80.5234 59.1889C80.0691 58.4903 79.9062 58.5001 75.5474 59.4887C71.2213 60.4697 71.5997 60.5012 71.0034 59.1121C70.5539 58.0654 70.3959 57.906 69.8073 57.906C69.4343 57.906 69.0011 58.0349 68.8448 58.1924ZM44.5808 58.5478C44.0737 58.6815 43.773 59.7498 44.096 60.2701C44.4792 60.8876 45.4851 60.8783 45.9194 60.2534C46.404 59.556 46.396 59.4371 45.824 58.8607C45.3387 58.3717 45.293 58.3602 44.5808 58.5478ZM21.6663 62.7921C23.7323 63.3508 26.3015 64.7531 27.751 66.1129L29.0868 67.366L28.2839 68.7186L27.4812 70.0712L26.6362 69.2396C25.6436 68.263 24.9039 68.1808 24.3786 68.9888C23.9229 69.6898 24.0828 70.0579 25.4032 71.3472L26.3356 72.2573L25.4811 74.7714L24.6268 77.2852L23.4327 77.1654C21.9652 77.0181 21.4295 77.2885 21.4295 78.1767C21.4295 79.03 21.7855 79.3248 23.0653 79.531C24.0849 79.6954 24.0854 79.6959 23.9402 80.5559C23.8604 81.0292 23.7275 82.1861 23.6449 83.127C23.5625 84.0679 23.4298 84.9271 23.3503 85.0365C23.2709 85.1458 22.7361 85.3964 22.162 85.5933C20.8549 86.0418 20.5233 86.522 20.9179 87.3949C21.1841 87.9837 21.2997 88.03 22.2371 87.9236L23.2643 87.8069L23.4279 89.839C23.6077 92.0726 23.6006 92.0877 22.14 92.5201C20.1595 93.1068 17.664 93.309 15.7569 93.0371C13.6334 92.7345 10.528 91.6084 9.48541 90.7627L8.791 90.1997L9.34378 88.2429C9.79496 86.6461 9.9662 86.317 10.275 86.4535C10.483 86.5454 10.9967 86.6695 11.4166 86.7292C12.0568 86.8199 12.2242 86.7395 12.4542 86.2306C12.6053 85.8969 12.665 85.4563 12.5871 85.2518C12.4632 84.9262 11.2762 84.0559 10.6791 83.8526C10.5588 83.8115 10.5976 82.567 10.7696 80.9593L11.0711 78.1378L12.067 78.2755C13.6742 78.4975 14.5817 77.5341 13.7914 76.4453C13.6112 76.197 13.021 75.9808 12.282 75.8927L11.0687 75.7481L10.8018 73.3822C10.6549 72.0812 10.5348 70.8694 10.5348 70.6896C10.5348 70.5099 10.9879 70.0953 11.5417 69.7683C13.0499 68.8776 13.4383 68.3634 13.1605 67.6264C12.8132 66.7063 12.1288 66.6151 10.9211 67.3283L9.87336 67.9472L9.38641 66.4943L8.89971 65.0414L9.98751 64.3461C11.1717 63.5893 13.4399 62.7591 15.2141 62.4331C16.687 62.1627 20.0262 62.3484 21.6663 62.7921ZM7.57364 68.6783C7.69419 69.1621 7.54309 69.3774 6.62391 70.0302C5.73292 70.6629 5.54463 70.9219 5.60526 71.43C5.64624 71.773 5.89539 72.1969 6.15923 72.3724C6.56352 72.6411 6.74683 72.6349 7.32472 72.333C7.70201 72.1356 8.08569 72.058 8.17758 72.1604C8.26924 72.2626 8.40045 73.0125 8.4689 73.8269L8.59324 75.3075L7.25959 75.3784C6.03252 75.4435 5.907 75.5037 5.68911 76.1307C5.48542 76.7164 5.52995 76.8754 6.00671 77.2644C6.3352 77.5325 6.93062 77.7167 7.46825 77.7167C7.96703 77.7167 8.43455 77.8132 8.50679 77.9311C8.68063 78.2146 8.38742 81.6526 8.15745 82.0276C8.02269 82.2477 7.77282 82.193 7.15609 81.8087C6.13934 81.1755 5.75163 81.1667 5.21448 81.7648C4.54849 82.5064 4.90232 83.2678 6.25871 84.0118C6.90907 84.3684 7.50188 84.7591 7.57577 84.8796C7.7328 85.1355 7.03933 88.0019 6.74683 88.3062C6.63718 88.4203 6.06758 87.8551 5.47619 87.0457C3.33942 84.1204 2.41337 81.2996 2.41337 77.7167C2.41337 74.0391 3.47536 70.9448 5.73268 68.0467L6.8347 66.6315L7.13241 67.3672C7.2963 67.7717 7.49477 68.3618 7.57364 68.6783ZM31.5857 71.2475C33.5716 75.5894 33.4889 80.2291 31.3472 84.6386C30.5616 86.2561 29.9626 87.0667 28.3926 88.6365C27.3095 89.7197 26.3171 90.6057 26.1871 90.6057C25.8719 90.6057 25.6422 89.2879 25.7355 88.0152L25.811 86.987L27.3505 86.4693C28.8416 85.9676 28.8899 85.9258 28.8899 85.142C28.8899 84.034 28.3777 83.7387 27.0665 84.0913C26.5085 84.2414 26.0043 84.3161 25.9458 84.2574C25.8875 84.1984 25.9932 83.217 26.1807 82.0763L26.5215 80.0024L27.778 80.0714C29.2329 80.1513 29.7189 79.8553 29.7189 78.8894C29.7189 78.0846 29.1668 77.7167 27.9582 77.7167C27.4938 77.7167 27.1136 77.6301 27.1136 77.5244C27.1136 77.1998 28.0977 74.3752 28.2107 74.3752C28.2692 74.3752 28.6202 74.6012 28.9908 74.8774C29.7554 75.4469 30.5199 75.3354 30.9116 74.5976C31.2067 74.042 30.9874 73.5701 29.9886 72.612L29.2701 71.9229L29.8536 70.7622C30.1748 70.1237 30.5263 69.6015 30.6352 69.6015C30.7439 69.6015 31.1717 70.3421 31.5857 71.2475ZM40.0408 84.5844C42.6724 90.9811 44.8025 96.2405 44.7743 96.2723C44.7461 96.3038 43.9177 96.0565 42.9331 95.723L41.1431 95.1165L38.238 88.0276L35.3332 80.939L35.2936 77.9554C35.2721 76.3145 35.1662 74.4348 35.0584 73.7785C34.9507 73.1221 34.9511 72.6681 35.0594 72.7695C35.1676 72.871 37.4093 78.1877 40.0408 84.5844ZM36.1131 89.0955C37.1315 91.5671 37.9242 93.6312 37.8742 93.6825C37.7383 93.8226 32.6817 90.862 31.8424 90.1507L31.1117 89.5316L32.4042 87.5567C33.1152 86.4705 33.766 85.3031 33.8508 84.9627C33.9356 84.6221 34.0628 84.4018 34.1333 84.4727C34.2037 84.5438 35.0947 86.6242 36.1131 89.0955Z" fill="black"/>
</svg>
