<svg width="100" height="100" viewBox="0 0 100 100" fill="none" xmlns="http://www.w3.org/2000/svg">
<path fill-rule="evenodd" clip-rule="evenodd" d="M73.1968 0.0485981C71.261 0.423598 68.5933 1.75934 67.6489 2.82653C67.4065 3.10055 67.047 3.24704 66.6173 3.24704C65.7474 3.24704 63.7515 3.92926 62.871 4.5277C62.4847 4.79001 61.897 5.00485 61.5651 5.00485C60.3741 5.00485 59.1009 5.61442 57.9757 6.7236C57.3774 7.31305 56.3876 8.05094 55.7755 8.36325C53.796 9.37379 51.8989 11.9476 51.3372 14.3853C51.0468 15.6461 51.0817 17.2832 51.4237 18.4349C51.8108 19.7388 53.3212 21.4091 54.7405 22.1037C55.3188 22.3865 55.9274 22.8248 56.0931 23.0773C56.4378 23.6037 57.837 24.608 58.5261 24.824C58.7825 24.9043 59.3712 25.2593 59.8347 25.6129C60.9686 26.4785 62.4345 26.9338 64.2067 26.9705C66.6288 27.0209 66.9093 27.2326 68.2866 30.0508C69.4684 32.4695 70.0677 34.2127 70.4511 36.3468C70.6874 37.6636 71.012 38.1125 71.5944 37.9277C72.171 37.7447 72.2161 37.448 71.9112 35.8443C71.5227 33.8007 70.7704 31.5502 69.8173 29.58L68.9976 27.8855L69.8765 27.7593C70.3599 27.6898 70.953 27.5859 71.1948 27.5283C71.5849 27.4351 71.6343 27.498 71.6343 28.0871C71.6343 29.8914 72.6202 32.1627 74.0046 33.547C74.7433 34.2857 74.777 34.3763 74.8903 35.9197C75.0153 37.6242 75.1755 38.0127 75.7528 38.0127C76.306 38.0127 76.5782 37.2945 76.4599 36.1478L76.3546 35.1283L77.9495 35.2259C79.7845 35.3382 80.7522 35.1263 81.9888 34.3412C83.0411 33.6732 83.8683 32.2716 84.0833 30.7927C84.2288 29.7912 84.2515 29.7625 85.1702 29.414C86.6329 28.8591 87.7366 27.8318 88.4702 26.3425C89.1645 24.9328 89.1364 25.2449 89.0749 19.6533C89.0671 18.955 89.0704 17.5488 89.0821 16.5283C89.1015 14.8271 89.0515 14.5627 88.4812 13.347C88.112 12.5607 87.4136 11.5545 86.7642 10.8738C85.7974 9.86012 85.6382 9.57614 85.4005 8.44059C84.3985 3.65133 80.3265 0.208559 75.4429 0.0214497C74.4761 -0.0156597 73.4653 -0.00335503 73.1968 0.0485981ZM77.1938 1.78864C81.756 2.97692 84.7536 7.52106 83.9741 12.0668C83.1976 16.5955 79.611 19.6734 75.0522 19.7236C71.9942 19.7572 69.4956 18.5568 67.6987 16.1908C62.4729 9.30993 68.8624 -0.38148 77.1938 1.78864ZM65.4149 5.73727C64.5737 7.41266 64.3157 8.5693 64.3157 10.6689C64.3155 12.3054 64.4071 12.9867 64.7692 14.0412C66.2362 18.3146 70.5102 21.4043 74.9546 21.4043C77.5509 21.4043 80.5388 20.1314 82.4886 18.1949C83.8649 16.8279 85.221 14.3345 85.4251 12.7957L85.5542 11.8222L86.0204 12.2601C86.2767 12.5009 86.7263 13.1863 87.0194 13.7832C87.4899 14.7414 87.5489 15.0734 87.5233 16.6259C87.4944 18.3799 87.4956 19.1869 87.5327 22.8759C87.5507 24.6828 87.5101 24.9052 86.9886 25.8463C86.3755 26.9525 85.4884 27.673 84.1655 28.1388C83.1501 28.4965 82.7536 28.3414 82.3134 27.4134C81.8763 26.4925 81.4782 26.1925 80.0327 25.6959C79.1339 25.3871 78.1358 25.233 76.6147 25.1685C74.7356 25.0888 74.197 25.1445 72.3179 25.6127C69.5788 26.2951 67.6636 26.3297 66.6226 25.7154C66.0079 25.3527 65.7259 25.3074 64.7749 25.4177C63.3274 25.5857 61.8097 25.157 60.6101 24.2414C60.1188 23.8664 59.603 23.5595 59.4638 23.5595C58.9917 23.5595 57.4216 22.4267 57.071 21.8334C56.8489 21.4574 56.4017 21.1203 55.8401 20.9058C54.6569 20.4541 53.3696 19.2306 52.9663 18.175C52.1276 15.9785 53.1933 12.4379 55.2497 10.5888C55.7954 10.0982 56.5823 9.59489 56.9983 9.47028C57.5015 9.3195 58.0173 8.93258 58.5372 8.31598C59.462 7.21911 60.6952 6.56735 61.8456 6.56735C62.427 6.56735 62.8649 6.42321 63.3063 6.08649C63.9733 5.5777 65.1196 5.02536 65.5347 5.01247C65.713 5.007 65.6794 5.2109 65.4149 5.73727ZM71.6474 6.64918C71.2938 7.07536 71.4622 8.92184 71.8784 9.18297C72.6636 9.67555 73.2772 8.27829 72.913 6.82711C72.7815 6.30329 72.0229 6.19665 71.6474 6.64918ZM77.038 6.50231C76.8751 6.66501 76.8661 8.57555 77.0263 8.99274C77.1923 9.42555 78.0243 9.37946 78.2681 8.92399C78.5444 8.40758 78.5233 6.89391 78.2358 6.60641C77.9831 6.35368 77.2501 6.29 77.038 6.50231ZM68.939 12.4658C68.8101 12.5947 68.7046 12.8621 68.7046 13.0601C68.7046 13.6824 70.4331 15.3175 71.805 15.9929C72.9821 16.5724 73.2481 16.6259 74.9505 16.6259C76.6356 16.6259 76.9333 16.5675 78.1231 16.0039C79.8179 15.2011 81.4419 13.717 81.3606 13.0455C81.3284 12.7806 81.1567 12.4726 80.9788 12.3613C80.7186 12.1986 80.4423 12.3533 79.5698 13.1507C77.9132 14.665 76.9515 15.0634 74.9546 15.0634C73.4763 15.0634 73.1788 14.9994 72.2393 14.4791C71.6589 14.1578 70.8712 13.5205 70.489 13.0631C69.7786 12.2132 69.3548 12.05 68.939 12.4658ZM33.9878 13.7144C33.677 13.857 33.671 14.6197 33.978 14.9267C34.1132 15.0619 34.761 15.1611 35.5093 15.1611C39.5292 15.1611 43.8571 17.6343 45.5925 20.9228C47.3188 24.1947 47.3149 28.357 45.5831 30.9054L45.0718 31.658L45.0632 30.6849C45.0585 30.1498 44.9198 29.3603 44.755 28.9306C44.5901 28.5009 44.2526 27.5404 44.0052 26.7963C43.4057 24.9951 43.219 24.8758 41.7263 25.3402C38.3098 26.4035 34.2733 25.6853 31.1811 23.4638C29.7153 22.4105 29.6098 22.4636 28.7788 24.6705C28.1223 26.4134 27.3852 27.448 26.2382 28.2375C25.0843 29.0312 24.9546 29.3109 24.9546 31.005V32.4216L24.3866 31.8775C23.0511 30.598 22.1876 27.3213 22.5729 24.9955C23.01 22.3576 23.9759 21.1427 26.428 20.1463C27.644 19.6519 27.8761 19.4175 27.8825 18.6767C27.8917 17.6347 28.9948 16.5515 30.7852 15.8263C31.6651 15.4699 31.9005 15.281 31.9487 14.8927C32.0436 14.1291 31.4841 13.955 30.2874 14.3765C28.3278 15.0666 26.7593 16.5101 26.41 17.9445C26.3077 18.3656 26.0052 18.6125 25.012 19.0865C22.7739 20.1547 21.7073 21.6025 21.1241 24.3646C20.361 27.9773 21.8302 32.225 24.4788 34.0636C25.3388 34.6605 25.5839 34.9642 25.8538 35.7666C26.0345 36.3037 26.5264 37.55 26.947 38.5361C27.7936 40.5211 27.7993 40.7521 27.06 43.0908C26.3825 45.2336 26.0563 45.7172 24.8159 46.4183C24.1938 46.7701 21.9272 48.0437 19.7788 49.2488C17.6304 50.4539 15.1255 51.8605 14.2124 52.375C13.2993 52.8892 12.0161 53.7324 11.3608 54.2486C7.70789 57.1263 5.20574 61.9386 4.21434 67.9931C3.88855 69.983 3.95164 89.1162 4.28543 89.5183C4.5532 89.841 5.40906 89.8469 5.46883 89.5263C5.49383 89.3922 5.5157 84.7119 5.51766 79.126C5.52078 69.4748 5.54188 68.8726 5.94109 67.0166C7.37957 60.3287 10.112 56.3525 15.1472 53.6203C16.5905 52.8371 16.4198 52.7021 17.52 55.497C19.0073 59.2756 20.1169 63.8088 20.7462 68.6767C21.2128 72.2871 21.4288 78.9138 21.4341 89.7802C21.4391 99.849 21.4454 99.9267 22.2524 99.9267C23.0503 99.9267 23.0661 99.6148 22.9368 86.4564C22.8684 79.5244 22.7241 72.8857 22.6159 71.7041C21.9987 64.9648 20.7323 59.3156 18.7475 54.447L17.8081 52.1429L21.8208 49.8734C24.0278 48.6254 25.9938 47.5435 26.1897 47.4695C26.4466 47.3722 26.7735 47.5498 27.3616 48.1058C30.5999 51.167 34.3044 52.1748 37.6786 50.9123C39.0095 50.4144 40.8485 49.2504 42.0405 48.1517C42.6399 47.5992 43.0218 47.3838 43.2479 47.4705C43.7925 47.6795 51.5171 52.0877 51.5171 52.1894C51.5171 52.2412 51.3015 52.7088 51.038 53.2287C49.3278 56.6037 47.5095 63.823 46.8272 69.9463C46.389 73.8804 46.0163 97.374 46.3645 99.1152C46.4958 99.7715 47.0739 100.096 47.4925 99.7486C47.6934 99.5818 47.771 96.9064 47.8659 86.8906C48.005 72.2045 48.1464 69.9509 49.2952 64.0933C50.0907 60.0369 52.3909 53.0517 52.9311 53.0517C53.4954 53.0517 56.6155 55.0525 57.8597 56.2123C61.4946 59.6006 63.4235 64.3832 63.8202 70.9914L63.9804 73.6572L63.2003 74.7869C62.1899 76.2504 61.6933 77.6974 61.4479 79.8924C61.3392 80.8674 61.2354 85.6978 61.2175 90.6269C61.1872 98.9697 61.2087 99.6037 61.5268 99.8054C61.7761 99.9637 61.9612 99.964 62.2104 99.8072C62.5505 99.5933 62.6657 97.5006 62.8186 88.7451L62.8452 87.2314H64.9936C67.0936 87.2314 67.1419 87.2414 67.1347 87.6709C67.1304 87.9127 67.0479 90.6092 66.9513 93.6633C66.8382 97.2381 66.8433 99.3428 66.9657 99.5715C67.1892 99.989 67.7833 100.038 68.0938 99.6638C68.2366 99.4916 68.3786 97.0463 68.505 92.5838C68.611 88.8344 68.7466 85.2707 68.8061 84.6648C68.8905 83.8076 68.8446 83.4931 68.6003 83.2488C67.888 82.5365 67.4409 82.966 67.2497 84.5459L67.114 85.6689H64.9796H62.8452L62.8513 83.2763C62.8597 79.9213 63.1181 78.1908 63.8257 76.7486C64.7835 74.7967 65.9399 73.9117 69.8788 72.1172C73.2044 70.6019 73.2671 70.5824 73.7649 70.9082C74.0433 71.0902 74.8423 71.5179 75.5405 71.8588C76.6597 72.4049 77.0067 72.4787 78.4702 72.4818C80.3061 72.4857 81.2395 72.1996 82.7253 71.1773L83.606 70.5715L85.2454 71.3845C86.563 72.0379 86.9599 72.1574 87.2673 71.9927C87.7159 71.7527 87.7683 71.1666 87.3706 70.8365C87.2169 70.709 86.4069 70.2746 85.5708 69.8711L84.0505 69.1377L83.6413 67.4912L83.2321 65.8447L84.0513 64.5752C84.7964 63.4203 85.6284 61.6699 85.9831 60.5109C86.0589 60.2627 86.6091 59.3838 87.2054 58.5578C87.8019 57.7316 88.6417 56.3275 89.0716 55.4377C89.7382 54.0582 89.8509 53.6414 89.8362 52.6111C89.7897 49.3256 85.4942 44.3064 81.7868 43.2054C80.4768 42.8164 79.8505 42.8152 78.8886 43.2002C78.1917 43.4791 78.0411 43.4767 77.1155 43.174C75.862 42.764 74.3702 42.884 73.1729 43.4908C71.6032 44.2865 68.3685 47.9865 67.2147 50.3058C65.8403 53.0689 66.6417 56.1884 69.5101 59.2412C70.0339 59.7988 70.4624 60.4009 70.4624 60.5797C70.4624 61.0492 71.8767 63.9963 72.6214 65.0789L73.2573 66.0031L73.0276 67.4808C72.9013 68.2935 72.7339 69.0179 72.6556 69.0908C72.4663 69.2666 65.7175 72.3955 65.6573 72.3351C65.6315 72.3093 65.5143 71.2558 65.397 69.9937C64.7893 63.465 62.837 58.8513 59.1368 55.2002C57.7065 53.7888 56.7831 53.1875 52.2526 50.716C47.9321 48.3591 43.57 45.7943 43.3751 45.4961C43.2477 45.3011 42.8415 44.1406 42.4727 42.9172L41.802 40.6927L42.6425 38.9132C43.1046 37.9345 43.6905 36.5185 43.9446 35.7666C44.3263 34.6363 44.6122 34.1945 45.5952 33.217C47.5513 31.2718 48.394 29.158 48.3891 26.2095C48.3858 24.1242 48.0153 22.3888 47.2225 20.7447C45.6806 17.5472 42.572 15.0533 38.9194 14.084C37.7098 13.7629 34.4194 13.5164 33.9878 13.7144ZM31.985 25.6877C34.8284 27.1677 37.413 27.6619 40.1321 27.2455C41.0765 27.1009 41.9686 26.9814 42.1149 26.98C42.2612 26.9787 42.6104 27.5488 42.8911 28.247C43.6401 30.1103 43.5766 31.9695 42.6708 34.7037C41.1225 39.3765 38.8411 42.9879 36.4886 44.4896C34.8106 45.5609 33.4641 45.1715 31.4962 43.0457C29.1257 40.4855 26.5171 34.2537 26.5171 31.1513C26.5171 30.4132 26.5979 29.8095 26.6966 29.8095C26.7954 29.8095 27.3671 29.3609 27.9669 28.8127C28.7528 28.0945 29.2509 27.4086 29.7493 26.358C30.13 25.5562 30.503 24.9287 30.5788 24.9636C30.6544 24.9986 31.2872 25.3244 31.985 25.6877ZM79.3253 27.1875C80.2405 27.4789 80.5638 27.6959 80.9185 28.258C81.1634 28.6457 81.6354 29.1918 81.9677 29.4713C82.6872 30.0767 82.744 30.7008 82.1841 31.8474C81.5897 33.0646 80.6472 33.5992 78.9435 33.6853C78.164 33.7246 77.2186 33.6554 76.8429 33.5312C74.9858 32.9183 73.3911 30.4968 73.3276 28.1935C73.2948 27.0066 73.303 26.9871 73.8804 26.8478C74.9093 26.6 78.1059 26.7994 79.3253 27.1875ZM30.9823 44.8105C32.1546 45.9511 33.5501 46.6021 34.8284 46.6045C36.3136 46.6074 37.5761 45.8832 39.2765 44.0527L40.7104 42.5093L41.3204 44.3136L41.9302 46.1181L40.8177 47.1572C38.2952 49.5129 35.1665 50.4166 32.5718 49.5388C31.1723 49.0654 29.1081 47.7754 28.1376 46.7675L27.5122 46.1181L27.8825 45.2914C28.0862 44.8365 28.4038 43.9859 28.5882 43.4009L28.9233 42.3373L29.5001 43.1334C29.8171 43.5711 30.4843 44.3259 30.9823 44.8105ZM77.2007 44.8486C78.1532 45.3342 78.1964 45.3336 79.164 44.8213C79.7942 44.4873 80.1354 44.4291 80.8405 44.5347C83.7999 44.9785 88.2778 49.8248 88.319 52.6287C88.3292 53.3144 88.1444 53.9172 87.5722 55.0642C86.8395 56.5326 86.5852 56.7176 86.4458 55.8838C86.4099 55.6689 85.4808 54.6242 84.3813 53.5623L82.3825 51.6314L81.2436 51.951C79.8009 52.3558 77.869 52.3582 75.6874 51.9576L73.9788 51.6441L71.9765 53.5455C70.0956 55.3314 69.9683 55.5015 69.8765 56.3488L69.7788 57.2509L69.2251 56.3986C67.947 54.4306 67.7522 52.7302 68.6056 50.9865C69.5739 49.007 72.5272 45.6009 73.9056 44.874C74.8851 44.3574 76.2171 44.347 77.2007 44.8486ZM78.1179 53.7668C79.7136 53.8386 80.8184 53.8015 81.2169 53.6627C81.8188 53.4527 81.8792 53.4863 83.3651 54.8605L84.894 56.2744L84.9048 57.3525C84.9304 59.9197 83.4485 63.3146 81.3989 65.3849C79.6114 67.1904 78.43 67.5035 76.6147 66.6527C74.1368 65.4916 71.854 61.5472 71.5188 57.8478L71.3804 56.3211L72.9233 54.8812C74.2909 53.6051 74.5329 53.4535 75.0522 53.5482C75.3745 53.6068 76.754 53.7052 78.1179 53.7668ZM32.3114 63.3383C32.0415 63.608 32.1956 64.3738 32.5589 64.5683C32.7667 64.6795 33.2514 64.7705 33.6362 64.7705H34.3358L34.2839 70.1904L34.2319 75.6103L33.7436 75.5437C32.9302 75.4326 31.3966 74.4967 30.7056 73.6894C29.6196 72.4207 29.4468 71.5922 29.4468 67.6525C29.4468 65.6177 29.3624 64.0011 29.2446 63.781C29.0749 63.464 28.8274 63.4033 27.7059 63.4033C26.2638 63.4033 25.8013 63.6627 26.0192 64.3494C26.1411 64.734 26.6579 64.9584 27.4325 64.9631C27.8534 64.9658 27.8604 65.0168 27.9208 68.4381L27.9819 71.9101L28.6239 73.2129C29.0268 74.0306 29.6085 74.8176 30.1864 75.3267C31.3013 76.3092 31.8593 76.6101 33.2026 76.9539L34.2319 77.2174V79.8318V82.4463L33.2554 82.5439C32.4013 82.6293 32.2704 82.7013 32.2114 83.1189C32.0972 83.9279 32.6106 84.1064 35.0505 84.1064C37.0071 84.1064 37.3044 84.0613 37.6544 83.7113C38.2761 83.0896 37.8815 82.5802 36.721 82.5058L35.7944 82.4463V79.8244V77.2023L36.7936 76.9773C38.7643 76.5334 40.4204 75.1785 41.4997 73.1271C42.0268 72.125 42.0446 71.99 42.1079 68.5302L42.1731 64.9658H42.7307C43.0376 64.9658 43.5198 64.8779 43.8024 64.7705C44.2126 64.6144 44.304 64.4664 44.2546 64.0381L44.1929 63.501H42.5327H40.8725L40.7675 67.4181C40.6663 71.191 40.6427 71.376 40.1249 72.4342C39.3665 73.9844 37.6878 75.3414 36.2815 75.5412L35.7944 75.6103L35.7425 70.1904L35.6905 64.7705H36.4532C36.8993 64.7705 37.3979 64.6232 37.6542 64.4156C38.0274 64.1135 38.0587 63.9974 37.8643 63.6344C37.6474 63.2289 37.5089 63.208 35.0388 63.208C33.6104 63.208 32.3829 63.2666 32.3114 63.3383ZM77.7858 68.6414C79.1616 68.7289 80.0597 68.4959 81.1202 67.7761C81.5142 67.509 81.8696 67.3236 81.9104 67.3644C81.9513 67.4051 82.1063 67.8433 82.2552 68.3381C82.5112 69.1883 82.503 69.2592 82.1069 69.6312C80.7136 70.9402 78.0157 71.2804 76.1085 70.3877C74.377 69.5769 74.3017 69.4834 74.4591 68.3386L74.5956 67.3455L75.5749 67.9541C76.3315 68.4246 76.8343 68.5808 77.7858 68.6414ZM14.2514 69.497C13.9413 69.8072 13.91 98.9713 14.2192 99.549C14.4546 99.9885 15.0432 100.045 15.3639 99.6582C15.5276 99.4611 15.5729 95.4377 15.5343 84.5144C15.4886 71.5429 15.4444 69.6152 15.1889 69.4539C14.7944 69.2045 14.5319 69.2166 14.2514 69.497ZM54.063 69.6404C53.9288 69.8914 53.8608 74.9695 53.8608 84.7533C53.8608 100.54 53.8364 100.147 54.7987 99.8414C55.3524 99.6656 55.4212 97.7908 55.4224 82.8271C55.4231 72.9008 55.3667 69.6748 55.189 69.497C54.837 69.1451 54.2909 69.2146 54.063 69.6404ZM89.1532 72.0261C88.5255 72.3775 88.7532 73.0916 89.6632 73.6248C90.1259 73.8961 90.8808 74.5261 91.3407 75.0252C92.9882 76.8125 93.4919 78.734 93.5032 83.2763L93.5093 85.6689H91.4813C89.2118 85.6689 89.221 85.6754 89.2151 84.0644C89.2132 83.5498 89.103 83.2804 88.8358 83.1375C88.4196 82.9146 87.9206 83.0351 87.7927 83.389C87.62 83.8672 88.2659 99.4347 88.4685 99.6787C88.5817 99.8152 88.8286 99.9267 89.0171 99.9267C89.8122 99.9267 89.8419 99.6285 89.6196 93.8554C89.503 90.8289 89.4077 88.1002 89.4077 87.792V87.2314H91.4585H93.5093L93.5349 88.9404C93.5489 89.8804 93.6149 92.6615 93.6813 95.1209C93.7886 99.0873 93.8409 99.6166 94.144 99.8074C94.3929 99.9638 94.5788 99.9638 94.8276 99.807C95.1349 99.6133 95.1753 99.1191 95.2272 94.9252C95.3046 88.6789 94.9577 79.2185 94.605 77.9541C94.197 76.4918 93.8103 75.6926 92.9696 74.5738C91.6827 72.8609 89.8489 71.6369 89.1532 72.0261ZM4.31707 92.3584C4.09266 92.7166 4.2491 99.3922 4.48855 99.6826C4.5993 99.817 4.85184 99.9267 5.04969 99.9267C5.76727 99.9267 5.87605 99.2586 5.72996 95.7469C5.65398 93.9193 5.54871 92.3545 5.49598 92.2691C5.34461 92.024 4.48563 92.089 4.31707 92.3584Z" fill="black"/>
</svg>
