<svg width="100" height="100" viewBox="0 0 100 100" fill="none" xmlns="http://www.w3.org/2000/svg">
<path fill-rule="evenodd" clip-rule="evenodd" d="M32.978 0.13684C32.4608 0.561975 13.4023 25.5991 13.3117 25.9724C13.2599 26.1861 13.4078 26.4713 13.6753 26.6732C14.0622 26.965 14.8344 27.0137 19.0863 27.0137C22.9751 27.0137 24.0259 27.0705 23.951 27.2769C23.8987 27.4218 22.3023 31.7523 20.4039 36.9005C18.3472 42.478 16.9755 46.4775 17.0101 46.7971C17.0527 47.1915 17.1975 47.3497 17.5566 47.3947C17.9777 47.4478 19.5527 45.6929 28.9609 34.6897C34.9648 27.6683 39.9211 21.7417 39.9749 21.5195C40.2113 20.5457 39.909 20.4861 34.7274 20.4861C31.3482 20.4861 29.8664 20.4162 29.8664 20.2566C29.8664 20.1302 30.8396 15.7706 32.029 10.5686C33.2186 5.36649 34.1639 0.908359 34.1295 0.661153C34.0535 0.112203 33.3807 -0.194173 32.978 0.13684ZM13.4533 1.51142C10.8923 2.40465 9.14902 3.87125 7.88483 6.19571C6.98348 7.85288 6.56455 9.50162 6.55635 11.423L6.5497 13.0109L5.23236 13.6989C1.37745 15.7119 -0.795523 20.7623 0.270544 25.2323C0.73089 27.1628 1.5193 28.6696 2.8044 30.0743C4.22218 31.6238 5.45628 32.3941 7.37856 32.9283C8.58902 33.2648 9.52808 33.3307 13.1067 33.3307C15.6836 33.3307 17.5373 33.2439 17.7649 33.1128C18.1932 32.8658 18.2639 32.225 17.8985 31.905C17.7557 31.7799 15.7054 31.6497 12.9649 31.5918C7.80823 31.4828 7.24648 31.3699 5.32732 30.0583C4.10983 29.2261 3.08831 27.9147 2.37005 26.262C1.88996 25.1573 1.82744 24.7705 1.82822 22.9076C1.829 20.2046 2.28055 18.9005 3.84683 17.077C4.69855 16.0854 5.33651 15.5895 6.61457 14.9261L8.27542 14.0638L8.20683 12.1605C8.10074 9.22072 8.7557 7.2894 10.4933 5.41682C13.5286 2.14586 18.4079 2.00394 21.5205 5.0957C21.9973 5.56948 22.5835 5.95693 22.823 5.95693C23.0626 5.95693 23.6243 5.61791 24.0712 5.20352C24.5181 4.78912 25.478 4.15068 26.2045 3.7845C27.8126 2.97382 28.1207 2.31642 27.1537 1.75884C26.7647 1.53438 25.3512 2.15723 23.7623 3.25345L22.8363 3.89231L22.2203 3.33368C20.0453 1.36171 16.1838 0.559027 13.4533 1.51142ZM29.8095 13.0095C28.2157 19.9881 27.9066 21.5935 28.1067 21.8533C28.3114 22.119 29.0768 22.1706 32.8211 22.1706C35.2798 22.1706 37.2913 22.2205 37.2913 22.2814C37.2913 22.386 22.1663 40.1817 20.7417 41.7534L20.0735 42.4904L20.4574 41.4376C20.6684 40.8585 22.0325 37.163 23.4885 33.2254C25.8383 26.8703 26.1066 26.0187 25.8768 25.645C25.6312 25.2455 25.3708 25.2209 20.8058 25.1676C18.159 25.1365 15.9935 25.0685 15.9935 25.0162C15.9935 24.9072 31.6183 4.48295 31.7017 4.48295C31.7318 4.48295 30.8803 8.31991 29.8095 13.0095ZM37.0877 5.13108C36.9019 5.50547 37.0135 5.79689 37.8586 7.14516C38.9809 8.93561 39.4283 10.2799 39.5817 12.3241C39.6404 13.1044 39.7863 13.829 39.9065 13.9339C40.0264 14.0389 40.726 14.2246 41.461 14.3466C46.0401 15.1061 48.9764 19.2751 48.3797 24.1695C47.9836 27.418 45.7943 30.1377 42.7084 31.2145C42.3028 31.356 40.852 31.5348 39.4844 31.6116C37.0815 31.7468 36.9961 31.7677 36.9343 32.2368C36.8126 33.1625 37.1802 33.3307 39.3258 33.3307C42.709 33.3307 44.9451 32.4295 46.9948 30.24C48.9362 28.1659 49.8622 25.7909 49.8532 22.9076C49.8383 18.0319 46.7951 13.9023 42.4296 12.8336L41.3039 12.5582L41.0661 11.028C40.793 9.26894 39.9405 7.17 38.9053 5.70698C38.1149 4.59013 37.4596 4.38251 37.0877 5.13108ZM58.6373 15.862C56.5669 16.0861 54.1934 16.7519 52.338 17.6297C51.0195 18.2534 50.8712 18.3827 50.8712 18.9081C50.8712 19.9437 51.3274 19.9963 53.1385 19.1702C56.0202 17.8559 57.1095 17.6419 60.8362 17.6582C63.6042 17.67 64.4115 17.7479 65.6789 18.125C74.8643 20.8575 81.0731 30.2221 81.0555 41.3167C81.0512 44.065 80.8408 45.9557 80.2749 48.3282C80.0616 49.2224 79.8871 49.9938 79.8871 50.042C79.8871 50.0904 80.357 50.6444 80.9315 51.2734C82.1343 52.5907 82.6236 53.8539 82.6206 55.6357C82.6171 57.8107 81.2142 59.986 79.2216 60.9066C78.4715 61.253 78.3493 61.4181 77.9462 62.6291C77.3186 64.5147 75.7275 67.753 74.699 69.2384C72.0645 73.0429 68.7926 75.6687 65.1349 76.9142C63.415 77.4996 60.004 77.712 58.0894 77.3526C55.1325 76.7977 52.0809 75.0772 49.6093 72.5716C47.0497 69.9766 45.1399 66.9253 43.8112 63.3077C43.0756 61.3044 43.0611 61.2838 42.0306 60.758C39.9557 59.6992 38.7064 57.3977 38.9076 55.0051C39.0301 53.5502 39.8334 51.8305 40.7377 51.0872C41.0802 50.8057 41.4104 50.4355 41.4712 50.265C41.5318 50.0944 41.3565 48.986 41.0812 47.802C40.4577 45.1187 40.239 40.4077 40.6044 37.5269C40.8608 35.5048 40.7482 35.0152 40.0268 35.0152C39.41 35.0152 39.2009 35.6109 38.9 38.2268C38.5612 41.1737 38.763 44.9795 39.4133 47.9047L39.7742 49.5288L39.3107 49.9982C37.8914 51.4351 36.9588 54.1889 37.1893 56.2617C37.4531 58.6329 39.0806 61.2261 40.9008 62.1757C41.5822 62.5312 41.8006 62.7954 42.083 63.6059C44.3333 70.0648 49.2668 75.8704 54.2732 77.951C56.7146 78.9657 58.2424 79.2845 60.6408 79.2797C65.0481 79.2711 68.6479 77.7868 72.3443 74.4541C74.9337 72.1196 77.7264 67.8341 79.0299 64.1946C79.533 62.7899 79.677 62.5794 80.3638 62.2439C81.4535 61.7116 82.8819 60.0926 83.5241 58.6613C83.9968 57.6081 84.073 57.1806 84.08 55.5456C84.0871 53.8998 84.0159 53.4841 83.5405 52.3871C83.2392 51.6922 82.6826 50.78 82.3033 50.3601L81.6138 49.5968L82.0382 47.5175C82.6454 44.5432 82.7752 40.0396 82.3406 37.0156C80.4221 23.6608 70.2731 14.6037 58.6373 15.862ZM70.8013 30.1177C68.9669 30.4584 66.5439 31.9092 63.9043 34.2471C60.7704 37.023 58.673 38.1346 55.6839 38.6044C52.6024 39.0885 48.7205 38.2687 45.8447 36.5267C44.7856 35.8851 44.2727 36.0222 44.1668 36.975C44.1125 37.4633 44.2522 37.6025 45.4369 38.2403C49.0689 40.1958 52.9097 40.8766 56.4399 40.1904C59.5199 39.5917 61.8659 38.3249 64.849 35.6493C66.5798 34.097 68.1908 32.9058 69.0027 32.5777C69.243 32.4806 69.0427 32.9588 68.3679 34.0942C67.8256 35.0062 67.3819 35.9148 67.3819 36.1134C67.3819 36.7907 68.0558 36.952 69.362 36.5871C70.9267 36.1502 71.8056 36.1496 73.0213 36.5848C74.4127 37.0828 75.7594 38.4568 76.5337 40.1685C77.1059 41.4331 77.219 41.5628 77.6969 41.5032C79.527 41.2758 77.0125 36.6332 74.3467 35.318C73.0915 34.6988 71.6427 34.3825 70.7642 34.5362C70.4085 34.5983 70.1174 34.5962 70.1174 34.5311C70.1174 34.4663 70.5651 33.6554 71.1122 32.7291C72.3383 30.6531 72.2427 29.85 70.8013 30.1177ZM49.6761 50.9009C49.2834 52.0038 50.7828 52.9505 52.9228 52.9505C54.8001 52.9505 56.1468 52.2755 56.1468 51.3342C56.1468 50.8055 56.0614 50.6918 55.6224 50.6372C55.334 50.6012 54.8328 50.7198 54.5086 50.9005C53.7616 51.3167 52.2022 51.3229 51.292 50.9131C50.4077 50.5149 49.8153 50.5103 49.6761 50.9009ZM65.4671 50.8499C64.6114 51.772 66.3754 52.9112 68.652 52.9067C70.8513 52.9027 72.4543 51.8739 71.789 50.8933C71.5444 50.5328 71.4506 50.5235 70.6731 50.783C69.2848 51.2464 67.9237 51.3026 67.0974 50.9306C66.2117 50.5318 65.782 50.5105 65.4671 50.8499ZM46.4193 78.5393C46.1811 78.9676 45.194 80.7741 44.2256 82.5536L42.465 85.7892L32.6177 90.145C26.8722 92.6863 22.682 94.6541 22.5581 94.8691C22.3113 95.2971 22.5911 95.9352 23.0702 96.0371C23.2941 96.0847 33.5314 91.6573 41.735 87.9652L42.3684 87.6801L47.5512 93.7539C50.4018 97.0945 52.8788 99.8875 53.0557 99.9608C53.4746 100.134 53.8241 99.7635 57.7627 94.9731C59.5486 92.8009 61.0697 91.0953 61.1428 91.1829C61.2159 91.2705 62.84 93.2372 64.7519 95.5534C66.6638 97.8696 68.3378 99.8359 68.472 99.9231C68.6062 100.01 68.8507 100.026 69.015 99.9576C69.1795 99.8896 71.6077 97.1415 74.411 93.8508C77.2143 90.5602 79.6145 87.8677 79.7448 87.8677C79.875 87.8677 84.3071 89.8167 89.5938 92.1989C97.7281 95.8642 99.268 96.4944 99.6093 96.2975C100.089 96.0211 100.135 95.3982 99.7039 95.0131C99.5341 94.8611 94.9535 92.7242 89.5247 90.2644C84.0959 87.8045 79.6305 85.7614 79.6014 85.7243C79.5723 85.6871 78.7315 84.1406 77.7333 82.2877C75.4638 78.0759 75.2588 77.7604 74.7906 77.7604C74.5814 77.7604 71.4146 80.1839 67.7533 83.1457C64.0919 86.1076 60.9939 88.4857 60.8687 88.4307C60.7434 88.3758 57.7025 85.9524 54.1112 83.0455C50.5199 80.1388 47.4174 77.7604 47.2169 77.7604C47.0049 77.7604 46.6712 78.0864 46.4193 78.5393ZM53.8644 85.0082C59.158 89.281 59.761 89.8277 59.5308 90.1441C59.3891 90.3389 57.9184 92.1403 56.2627 94.1474L53.2524 97.7966L52.6113 97.0962C52.2587 96.7109 50.1209 94.219 47.8607 91.5585C44.0654 87.0913 43.7708 86.6887 44.0072 86.2943C44.1479 86.0595 44.9908 84.5146 45.8802 82.8614C46.9887 80.801 47.5671 79.9137 47.7189 80.0409C47.8406 80.1428 50.6062 82.378 53.8644 85.0082ZM76.3938 83.2794C77.4017 85.1568 78.2135 86.7294 78.1979 86.774C78.1512 86.9086 68.897 97.7644 68.8292 97.7644C68.7946 97.7644 67.3039 95.9994 65.5167 93.8423C62.8103 90.5758 62.3109 89.8738 62.5287 89.6415C62.7366 89.4198 74.4491 79.8908 74.5376 79.8714C74.5505 79.8684 75.3858 81.4022 76.3938 83.2794Z" fill="black"/>
</svg>
