<svg width="100" height="100" viewBox="0 0 100 100" fill="none" xmlns="http://www.w3.org/2000/svg">
<path fill-rule="evenodd" clip-rule="evenodd" d="M52.737 11.2327C52.3396 11.5706 52.3257 11.797 52.1697 20.4657L52.0097 29.3525L51.4783 30.4939C51.1453 31.2085 50.421 32.1773 49.5408 33.0851L48.1347 34.5351L47.5624 33.4683C45.7261 30.0462 42.7115 27.8273 38.7347 26.9708C36.7779 26.5493 31.9957 26.722 30.2357 27.2779C27.7884 28.0507 25.2328 29.9226 23.7083 32.0589C22.3041 34.0269 19.7154 40.4552 17.8318 46.6519C16.9248 49.6365 15.3443 55.9878 15.0947 57.6525C14.9558 58.5784 14.7246 58.739 13.5218 58.7443C12.4802 58.7489 9.88687 59.4993 8.41069 60.2232C5.38765 61.7058 2.98902 64.1441 1.50484 67.2431C0.518898 69.3019 0.157766 70.7325 0.0237814 73.1105C-0.373289 80.1562 4.23843 86.5204 11.1232 88.4284C18.557 90.4884 26.3046 86.5921 29.2503 79.3122L29.7873 77.9853L32.015 77.8484C41.19 77.2847 48.7622 71.0323 51.1341 62.0622C51.4597 60.8312 51.5925 59.6816 51.6527 57.5751C51.729 54.8939 51.683 54.4441 50.7863 49.1294L49.839 43.5157L51.5134 41.8816C53.6433 39.8029 54.1689 39.5204 55.9222 39.5138C57.7285 39.5072 58.4374 39.9368 61.1285 42.6691L63.2097 44.7822L62.3355 49.9579C61.53 54.7267 61.4685 55.3333 61.5515 57.6728C61.8654 66.5159 67.4218 73.97 75.8441 76.8472C78.5281 77.764 79.9449 77.8876 87.7763 77.8876C94.5992 77.8876 95.1351 77.8624 96.1159 77.4954C97.5374 76.9636 98.6595 75.9531 99.3185 74.6111C99.8242 73.5816 99.8661 73.3232 99.8501 71.3447C99.796 64.6882 97.5585 52.9587 94.6878 44.2818C93.4796 40.6302 91.3882 35.3068 90.4337 33.454C89.3775 31.4034 87.0642 29.1585 84.9261 28.1091C82.5505 26.9431 80.979 26.662 77.4066 26.7638C74.8578 26.8365 74.274 26.9169 72.9163 27.382C69.4232 28.5782 66.9691 30.8101 65.3558 34.2574L64.755 35.5411L62.9177 33.7163C61.5902 32.3978 60.9068 31.5402 60.4544 30.6253L59.8285 29.3591L59.8078 20.523C59.7917 13.7046 59.7306 11.6189 59.5398 11.3888C59.2384 11.0257 58.2941 10.997 58.0076 11.3419C57.8677 11.5105 57.7876 14.4861 57.7646 20.3751C57.7308 28.9683 57.7394 29.1843 58.1615 30.422C58.3988 31.1177 58.8708 32.0995 59.2107 32.6038C59.5505 33.1081 63.0669 36.8236 67.0251 40.8603C74.4661 48.4493 74.6933 48.6394 75.4396 47.8933C76.1146 47.2181 75.8327 46.8406 71.1292 42.1222L66.5122 37.4904L66.7431 36.573C67.6201 33.0907 70.8119 30.0105 74.4261 29.1583C76.055 28.7741 80.141 28.7779 81.7829 29.165C84.2658 29.7501 86.6751 31.4493 88.062 33.5933C90.0251 36.6277 93.7437 47.3284 95.4456 54.8407C96.7251 60.4874 97.9216 69.2347 97.7849 71.9415C97.6995 73.6337 97.0812 74.7169 95.8146 75.3935C94.9943 75.8318 94.9009 75.8368 87.6605 75.8368C81.3396 75.8368 80.1128 75.7886 78.7048 75.4851C71.1169 73.8488 65.3527 68.0234 63.9126 60.5364C63.3708 57.7191 63.729 53.0099 64.931 47.1495C65.0441 46.5982 65.1005 46.6411 67.8109 49.3468C69.3314 50.8646 70.7283 52.1064 70.915 52.1064C71.3505 52.1064 72.0355 51.4243 72.0355 50.9906C72.0355 50.4964 60.2564 38.7654 59.1624 38.1699C58.6677 37.9007 57.6923 37.5755 56.9949 37.4472C55.9175 37.2491 55.5367 37.2628 54.4622 37.5386C53.7665 37.7169 52.8437 38.0726 52.4115 38.3286C51.979 38.5845 49.3183 41.1152 46.4984 43.9519C42.4154 48.0597 41.3714 49.2138 41.3714 49.6204C41.3714 50.1366 41.9841 50.7392 42.5089 50.7392C42.657 50.7392 43.9554 49.5818 45.3945 48.1669C46.8335 46.7523 48.041 45.6316 48.0779 45.6767C48.1937 45.8185 49.5792 54.4843 49.7039 55.8474C49.9486 58.5197 49.0689 62.7208 47.6966 65.4339C45.8857 69.0146 42.9501 71.9259 39.3207 73.7407C36.8703 74.9659 34.8587 75.4851 31.264 75.8204L30.2386 75.9161V73.8081C30.2386 71.1607 29.7851 69.2685 28.5482 66.7548C27.7742 65.1818 27.3648 64.6318 25.8595 63.1415C24.8828 62.1747 23.5714 61.0829 22.9455 60.7152C21.6234 59.9386 19.1826 59.0363 17.8722 58.8398C17.0716 58.7199 16.9722 58.6525 17.0531 58.2857C17.1037 58.056 17.405 56.6816 17.7224 55.2314C19.3105 47.9759 22.5306 38.3683 24.8037 34.1038C25.9847 31.888 28.6802 29.8511 31.3525 29.155C32.9062 28.7503 37.4984 28.7615 39.0972 29.1736C41.9103 29.899 44.5048 32.0066 45.7544 34.5814L46.4394 35.9931L41.8283 40.6109C37.665 44.78 37.2292 45.2775 37.3435 45.7322C37.4886 46.3111 38.1072 46.7122 38.5956 46.5443C38.7794 46.481 42.0177 43.3781 45.7917 39.6488C52.0074 33.5066 52.7089 32.7486 53.2419 31.5986C53.5656 30.9003 53.9275 29.8632 54.0462 29.2941C54.2898 28.1257 54.3505 11.7224 54.1126 11.3613C53.8341 10.9384 53.1578 10.8753 52.737 11.2327ZM31.4105 34.6771C30.5873 34.9339 30.4623 35.6929 30.9335 37.5724L31.238 38.7859L30.3617 40.1939C29.4585 41.645 29.397 42.173 30.0808 42.6042C30.6533 42.9654 31.2994 42.5667 32.0566 41.3847L32.8003 40.2238L33.9121 40.7191C34.558 41.0066 35.4292 41.2251 35.9915 41.2404C36.8849 41.2646 36.9744 41.2243 37.156 40.7191C37.4484 39.905 37.1419 39.5978 35.4738 39.0324C34.6621 38.7572 33.8417 38.4003 33.6505 38.2392C33.179 37.8417 32.7777 36.8288 32.7777 36.0366C32.7777 35.0753 32.1464 34.4476 31.4105 34.6771ZM75.9294 35.1802C75.0505 35.6161 75.1941 36.3409 76.4128 37.6185L77.4958 38.754L76.7189 39.5128C75.8415 40.3695 75.6773 41.2089 76.3195 41.5527C76.974 41.9029 77.3044 41.7808 78.346 40.8044C79.281 39.9281 79.4583 39.8435 80.6292 39.7173C82.082 39.5607 83.1988 38.9939 84.1181 37.9468C84.8329 37.1327 84.8747 36.8206 84.3402 36.2861C83.7937 35.7396 83.3339 35.7982 82.6677 36.4988C81.8763 37.3314 81.1863 37.6532 80.1933 37.6532C79.4165 37.6532 79.2523 37.5564 78.1818 36.4671C76.7363 34.9966 76.5333 34.8806 75.9294 35.1802ZM78.613 50.6349C78.2583 50.9896 78.1894 51.6523 78.4624 52.0833C78.5564 52.2318 79.098 52.4267 79.6658 52.5165C80.9952 52.7267 81.9208 53.4613 82.68 54.9083C83.4632 56.4013 84.5046 56.6697 84.9406 55.4907C85.1458 54.9359 84.3212 53.1925 83.4009 52.2361C82.0152 50.7956 79.3451 49.9029 78.613 50.6349ZM32.2763 59.9445L30.8398 61.3372L29.8785 61.2448C29.1033 61.1704 28.7253 60.9907 27.9263 60.3171C27.1367 59.6513 26.8357 59.5066 26.4443 59.6048C25.2597 59.9023 25.4617 61.1089 26.8843 62.2357C27.8884 63.031 28.4867 63.2392 29.7671 63.2392C30.7943 63.2392 30.873 63.2781 31.9419 64.3134C33.1769 65.5097 33.7613 65.6613 34.2519 64.9124C34.623 64.3462 34.423 63.8386 33.5341 63.0907C33.2255 62.831 32.973 62.5243 32.973 62.4095C32.973 62.2945 33.4564 61.6935 34.0472 61.0741C34.638 60.4546 35.1214 59.8095 35.1214 59.6404C35.1214 59.2404 34.4287 58.5517 34.0263 58.5517C33.8539 58.5517 33.0662 59.1784 32.2763 59.9445ZM74.5072 58.9089C74.1001 59.3587 74.0829 60.7552 74.4708 61.8548L74.7577 62.6681L73.8849 64.0298C72.9427 65.4999 72.8363 65.9652 73.3296 66.4585C73.9367 67.0656 74.6087 66.7534 75.4535 65.472L76.2347 64.287L77.372 64.7454C78.8343 65.3347 80.1367 65.52 80.5288 65.1947C80.6915 65.0597 80.8245 64.6984 80.8245 64.3917C80.8245 63.712 80.3769 63.3935 78.7755 62.9339C77.3654 62.5292 76.3324 61.6132 76.3324 60.7671C76.3324 58.9683 75.3544 57.9726 74.5072 58.9089ZM19.1058 61.2837C21.971 62.2429 24.6154 64.2706 26.1314 66.6712C28.7165 70.7644 28.9443 75.2181 26.7941 79.622C24.2445 84.8439 18.3734 87.7384 12.6537 86.5935C6.49898 85.3616 2.11362 80.0327 2.11362 73.7861C2.11362 67.7556 6.04468 62.6769 11.9537 61.0734C13.8345 60.563 17.2531 60.6636 19.1058 61.2837ZM12.2767 66.7419C12.1656 66.9497 12.0746 67.9165 12.0746 68.8904V70.6611H10.3039C7.69312 70.6611 7.77769 70.5599 7.77769 73.6841C7.77769 76.9138 7.77554 76.9111 10.3603 76.9111H12.0746V78.7363C12.0746 81.1964 12.0886 81.2079 15.0812 81.2079C16.3421 81.2079 17.5437 81.1169 17.7515 81.0058C18.0861 80.8267 18.1292 80.5816 18.1292 78.8573V76.9111H19.9847C22.5902 76.9111 22.6214 76.873 22.6214 73.6995C22.6214 70.6691 22.6144 70.6611 19.9412 70.6611H18.1292V68.747C18.1292 67.5187 18.0453 66.749 17.8949 66.5986C17.7361 66.4398 16.8244 66.3642 15.0697 66.3642C12.7082 66.3642 12.4611 66.3976 12.2767 66.7419ZM16.1761 70.2062C16.1761 72.7413 16.241 72.8095 18.6478 72.8095H20.473V73.7861V74.7626H18.6314C16.2185 74.7626 16.1761 74.805 16.1761 77.2179V79.0595H15.1996H14.223V77.3452C14.223 74.8573 14.1294 74.7626 11.6728 74.7626H9.73081V73.7861V72.8095H11.5863C14.105 72.8095 14.223 72.6915 14.223 70.1728V68.3173H15.1996H16.1761V70.2062Z" fill="black"/>
</svg>
