<svg width="100" height="100" viewBox="0 0 100 100" fill="none" xmlns="http://www.w3.org/2000/svg">
<path fill-rule="evenodd" clip-rule="evenodd" d="M45.6232 0.127258C36.9642 1.02226 29.2567 3.73111 22.349 8.30721C10.3946 16.2265 2.50521 28.7408 0.391944 43.1361C-0.129478 46.6874 -0.130792 53.3398 0.388879 56.8791C1.67011 65.6015 5.11035 73.7692 10.4169 80.687C12.4753 83.3702 16.959 87.8157 19.5937 89.7851C26.6795 95.0822 34.389 98.301 43.1059 99.6012C46.652 100.13 53.2801 100.133 56.8857 99.608C67.8049 98.0169 77.572 93.1305 85.3627 85.3613C89.2777 81.457 92.3032 77.254 94.8269 72.2133C97.1971 67.479 98.7818 62.4007 99.6011 56.9112C100.13 53.3662 100.133 46.7404 99.6079 43.1361C96.3622 20.8784 79.0903 3.58362 56.9826 0.45506C53.9769 0.029661 48.1839 -0.137522 45.6232 0.127258ZM57.4439 2.63151C67.8462 4.40379 76.5053 8.85012 83.8429 16.1872C89.3929 21.7368 93.0238 27.5723 95.4584 34.8563C100.481 49.8823 97.8125 66.1798 88.2336 78.981C86.4918 81.3089 82.3386 85.5633 79.9906 87.4251C68.6735 96.3987 54.3878 99.8238 40.2601 96.951C33.3772 95.5514 27.0103 92.6717 21.0582 88.2658C18.8751 86.6498 14.5511 82.4719 12.7463 80.2346C7.57649 73.8261 4.17192 66.2989 2.69084 58.0027C2.25545 55.5633 2.18365 54.4321 2.18365 50.0182C2.18365 45.6163 2.2561 44.4701 2.68668 42.0588C4.76055 30.4468 10.4307 20.6528 19.4646 13.0781C26.4079 7.25641 35.2907 3.46589 44.6382 2.33587C47.1914 2.02733 54.9482 2.20633 57.4439 2.63151ZM66.4735 12.9308C65.3919 13.6978 66.1053 14.7856 67.693 14.79C69.5655 14.7952 72.6531 15.5806 74.7799 16.5924C78.6339 18.4258 81.6044 21.3952 83.4383 25.2479C84.4667 27.4079 85.2364 30.4665 85.2414 32.4136C85.243 33.0213 85.3625 33.6368 85.507 33.7813C85.9377 34.2119 86.74 34.0841 87.1054 33.5268C87.7076 32.6079 87.022 28.2758 85.7977 25.2641C83.3851 19.3284 77.523 14.4407 71.2878 13.1656C68.6069 12.6174 67.0245 12.5402 66.4735 12.9308ZM66.3249 18.4133C65.4823 19.2558 66.3076 20.2578 67.8443 20.2578C70.4599 20.2578 73.521 21.6788 75.8582 23.9778C78.1762 26.2578 79.4187 28.8401 79.6945 31.9512C79.8481 33.6852 80.0338 34.0438 80.7785 34.0438C81.7007 34.0438 81.9897 33.2602 81.7526 31.4022C81.2846 27.7351 79.9812 25.0746 77.3544 22.4248C76.0191 21.0779 75.307 20.5661 73.6331 19.7488C70.6655 18.3002 67.0915 17.647 66.3249 18.4133ZM34.1309 21.3797C30.6753 21.8112 26.2658 23.4929 23.2857 25.5162C18.7452 28.5983 15.046 33.8528 13.5074 39.4051C12.9404 41.4513 12.9017 41.8634 12.9113 45.7511C12.9201 49.309 12.989 50.1517 13.3901 51.5933C14.0422 53.9365 15.039 56.3519 16.0709 58.0883L16.9463 59.561L14.8672 67.0427C13.7237 71.1575 12.7881 74.7513 12.7881 75.0288C12.7881 76.0152 13.0208 76.0586 18.3282 76.0586H23.3433L23.1992 76.8792C23.12 77.3306 23.0009 78.8961 22.9346 80.3585C22.8212 82.8536 22.842 83.0455 23.2734 83.4768C23.6383 83.8416 24.0041 83.9363 25.0465 83.9363H26.3599V85.0162C26.3599 86.6003 26.6535 87.2187 27.4052 87.2187C28.3263 87.2187 28.5489 86.8482 28.5489 85.3149V83.9363H37.1955H45.8421V85.3537C45.8421 86.6239 45.8988 86.8082 46.3894 87.1294C46.8963 87.4614 46.9769 87.4614 47.4839 87.1294C47.9744 86.8082 48.0311 86.6239 48.0311 85.3537V83.9363H49.4384C51.5607 83.9363 51.6066 83.8521 51.4644 80.2316C51.4002 78.5985 51.2794 76.9912 51.1962 76.6603L51.0447 76.0586H56.2191C61.3758 76.0586 61.3941 76.0568 61.6071 75.5662C61.7753 75.1791 61.3598 73.4145 59.6626 67.3055C57.5082 59.5514 57.5049 59.5361 57.9097 58.9592C58.1327 58.6415 58.7566 57.4598 59.296 56.3333C62.6312 49.3689 62.5933 41.6719 59.19 34.8097C54.564 25.482 44.4946 20.0858 34.1309 21.3797ZM41.0523 23.6426C48.778 24.9952 55.3067 30.3371 58.1078 37.5978C61.0527 45.2314 59.5116 54.4663 54.3792 59.9409C53.5967 60.7757 51.9713 62.281 50.7674 63.2863C48.9343 64.8166 48.5534 65.0518 48.4251 64.7325C48.3411 64.5229 47.9659 62.9554 47.5918 61.2492L46.9112 58.1472L47.9348 57.204C49.1219 56.1101 50.5719 54.1317 51.4123 52.459C53.2171 48.8665 53.341 43.5232 51.7091 39.6607C50.4865 36.7669 47.8166 33.7014 45.1359 32.1136C39.6072 28.8388 32.1214 29.4347 27.227 33.5388C23.4547 36.7022 21.5222 40.806 21.5284 45.6417C21.5338 49.9372 22.9284 53.4759 25.8326 56.5618L27.4273 58.2566L26.6747 61.6134C26.2608 63.4596 25.9221 65.005 25.9221 65.0474C25.9221 65.2476 22.7794 62.6233 21.0512 60.9801C17.9362 58.0181 16.1458 54.6772 15.2078 50.0762C13.0037 39.2637 19.1391 28.4191 29.6014 24.6347C33.1264 23.3596 37.3477 22.994 41.0523 23.6426ZM66.185 24.0054C66.0123 24.3284 66.0035 24.619 66.1565 24.9547C66.3345 25.3453 66.6799 25.4886 67.9491 25.698C68.8138 25.8409 69.9166 26.1593 70.3997 26.4057C72.5806 27.518 74.162 29.7953 74.4338 32.2153C74.6 33.6942 74.8086 34.0438 75.5248 34.0438C76.4263 34.0438 76.733 33.2607 76.4701 31.6291C76.0434 28.9804 74.5687 26.6044 72.4994 25.2313C70.139 23.6651 66.7224 23.0019 66.185 24.0054ZM65.2153 29.3555C63.1532 30.4304 62.3689 32.7083 63.3314 34.827C64.052 36.4131 65.6174 37.24 67.5474 37.0547C68.7564 36.9385 69.9685 36.1181 70.6506 34.9544C71.1234 34.1478 71.2051 32.1895 70.7986 31.402C70.4083 30.6459 69.4736 29.6802 68.7829 29.3196C67.9971 28.9093 66.0335 28.929 65.2153 29.3555ZM68.5531 31.751C69.4243 32.7532 69.0677 34.2134 67.8057 34.8121C66.1984 35.5745 64.552 34.0786 65.1166 32.3687C65.5898 30.9354 67.5396 30.5849 68.5531 31.751ZM40.4878 32.4059C42.9811 33.0394 44.921 34.1708 46.8569 36.1201C49.5936 38.8758 50.8703 41.9395 50.8703 45.7511C50.8703 48.5483 50.0249 51.2721 48.4367 53.5916C47.8606 54.433 46.6864 55.7077 46.4874 55.7077C46.4082 55.7077 46.1727 54.9184 45.964 53.9536C45.7556 52.9888 45.4389 52.0533 45.2601 51.8747C44.7741 51.3887 29.617 51.3887 29.131 51.8747C28.9522 52.0533 28.6354 52.9888 28.427 53.9536C28.2184 54.9184 27.9737 55.7077 27.8833 55.7077C27.6322 55.7077 26.3886 54.2295 25.5951 52.9877C23.7651 50.1243 23.0558 45.9863 23.8294 42.6875C24.9782 37.7886 28.9581 33.6911 33.8026 32.4193C35.4084 31.9978 38.8541 31.9908 40.4878 32.4059ZM46.3443 65.1719C47.7588 71.4606 48.9748 76.8271 49.0464 77.098L49.1766 77.5903H37.1955C25.8932 77.5903 25.2199 77.5687 25.3132 77.2074C25.3674 76.9969 26.5832 71.6299 28.0146 65.2813L30.6173 53.7382H37.1947H43.7722L46.3443 65.1719ZM20.466 63.4651C21.7534 64.6945 24.533 66.7899 25.4294 67.207C25.4596 67.2208 25.1199 68.7751 24.6748 70.6608L23.8656 74.0891H19.5307C17.1466 74.0891 15.196 74.0204 15.196 73.9364C15.196 73.6031 18.5618 61.8348 18.6573 61.8348C18.7133 61.8348 19.5274 62.5683 20.466 63.4651ZM57.64 67.8863C58.4952 71.0339 59.1951 73.7193 59.1951 73.8539C59.1951 74.0278 57.9469 74.0812 54.8737 74.039L50.5524 73.9797L49.8478 70.9161C49.4603 69.2312 49.1405 67.7049 49.1372 67.5243C49.1339 67.3438 49.8859 66.7052 50.8079 66.1054C51.7301 65.5056 53.2311 64.3076 54.1433 63.4434C55.0557 62.5791 55.8658 61.9375 55.9435 62.0175C56.0214 62.0976 56.7847 64.7384 57.64 67.8863ZM49.3445 80.7633V81.748H37.0861H24.8276V80.7633V79.7786H37.0861H49.3445V80.7633Z" fill="black"/>
</svg>
