<svg width="100" height="100" viewBox="0 0 100 100" fill="none" xmlns="http://www.w3.org/2000/svg">
<path fill-rule="evenodd" clip-rule="evenodd" d="M66.3862 0.987634C66.3137 1.53079 66.1933 4.94487 66.1183 8.57439C65.8898 19.6432 66.6321 25.4273 68.7635 29.1839C70.0456 31.4435 70.5685 34.5497 69.921 36.06C69.1254 37.9159 67.5487 38.0706 63.4833 36.6921C61.9937 36.1871 59.5927 35.5315 58.1479 35.235C55.8344 34.7605 55.036 34.6953 51.4583 34.6884C47.7985 34.6813 46.8913 34.7554 42.3063 35.4348C39.5069 35.8497 36.4792 36.1892 35.5779 36.1892C34.116 36.1892 33.8842 36.1354 33.4281 35.6907C32.5958 34.8797 32.7248 33.5065 34.1475 28.0318C35.8398 21.5198 36.1308 19.6311 36.1285 15.1735C36.1267 11.3245 35.9087 9.49359 35.0821 6.3845C34.6702 4.83523 33.5662 2.03314 33.244 1.71902C33.2002 1.67638 32.7727 1.88227 32.2942 2.17669C31.6377 2.58076 31.4613 2.7962 31.5752 3.05427C32.2423 4.56517 33.1708 7.59447 33.4642 9.21684L33.8192 11.1789L32.17 14.0781C29.6154 18.5687 27.6319 21.4445 23.4887 26.6641C14.2985 38.242 12.0004 54.6665 17.866 66.8497C18.3231 67.7989 19.7425 70.1289 21.0204 72.0275C26.2379 79.7789 29.2758 87.6339 30.2348 95.8523L30.4754 97.9163H31.4877H32.5V96.8996C32.5 94.3595 31.2846 88.6574 29.8823 84.6176C28.2744 79.986 25.9325 75.405 22.8658 70.892C20.4452 67.3297 19.5837 65.6797 18.5417 62.6102C17.2802 58.8946 16.986 56.8702 17.0035 52.027C17.0202 47.4083 17.3502 45.047 18.5429 41.0112C20.1631 35.5292 22.2208 31.6908 26.244 26.6458C28.8794 23.3412 30.2392 21.4238 32.2844 18.1293L33.9583 15.433V16.7685C33.9583 18.6436 33.4365 22.0612 32.7196 24.8805C32.2012 26.9191 32.0225 27.3411 31.5237 27.7019C30.0937 28.737 26.0331 32.9934 24.8269 34.7213C23.3206 36.8791 21.5298 40.4209 20.7481 42.7883C17.8275 51.6337 19.3152 61.4439 24.784 69.4008C26.3048 71.6134 28.23 73.8316 30.1869 75.6257L31.8327 77.1348L32.5738 79.6572C34.5221 86.2895 35.595 92.3603 35.6681 97.1691C35.7012 99.3431 35.7577 99.7442 36.0308 99.746C36.2087 99.7472 36.7058 99.8049 37.1354 99.8741L37.9167 100V97.8629C37.9167 90.0904 35.1198 78.5549 30.4358 67.0095C28.5877 62.4541 28.125 60.654 28.125 58.0211C28.125 53.998 29.4833 51.1986 32.6129 48.7713C37.0521 45.3286 43.5767 43.2458 50.8333 42.9548C55.9919 42.7479 60.2731 43.491 63.8542 45.2151C66.3421 46.4129 68.0535 47.8052 69.3369 49.6753C71.0679 52.1978 71.6667 54.1865 71.6667 57.4131C71.6667 60.9653 70.7937 64.0835 67.6606 71.7229C64.1925 80.1793 62.7963 84.3325 62.0971 88.2714C61.7148 90.4246 61.4415 94.3239 61.5777 95.6828L61.7098 97.0026L62.7298 96.9321L63.75 96.8619V94.6584C63.75 90.389 64.6917 85.5672 66.5602 80.2699C67.6992 77.0405 67.5817 77.2661 69.0558 75.4793C74.0073 69.478 77.5915 62.2894 79.0783 55.3774C79.7256 52.3686 79.971 47.3451 79.6023 44.6586C78.724 38.2603 75.7488 32.4021 71.1767 28.0688C69.9785 26.9331 69.6585 26.3057 69.1567 24.1077C68.5117 21.2837 68.0558 14.5183 68.5612 15.275C68.6733 15.4425 69.3323 16.5847 70.0258 17.8132C71.3512 20.1606 74.6283 25.0121 77.0896 28.2702C82.14 34.9558 85.1323 45.5435 84.3917 54.1083C83.8262 60.6475 82.0627 65.4019 78.3054 70.5178C74.1252 76.2089 71.7621 80.7164 69.7242 86.8846C68.7127 89.946 67.8192 93.8616 67.5887 96.2411L67.4462 97.7133H68.5052C69.5413 97.7133 69.5667 97.6988 69.6621 97.0533C70.6796 90.1704 72.0321 85.8342 74.9981 79.9464C76.5192 76.9268 77.3881 75.5483 81.1417 70.2C85.2833 64.2988 87.2042 56.7916 86.6485 48.6767C86.0752 40.3027 83.2544 32.796 78.1469 26.0533C74.6288 21.4088 71.7352 16.7674 69.4019 12.0262L68.1527 9.48811L68.3562 4.94528C68.4681 2.44655 68.5133 0.357165 68.4569 0.301935C68.4002 0.246908 67.9408 0.156348 67.4358 0.100916L66.5179 0L66.3862 0.987634ZM16.25 9.70233V10.8303L17.2396 10.7683L18.2292 10.7064L18.2921 9.6404L18.3552 8.57439H17.3025H16.25V9.70233ZM20.4579 9.6404L20.5208 10.7064H21.5625H22.6042L22.6671 9.6404L22.7302 8.57439H21.5625H20.3948L20.4579 9.6404ZM24.8329 9.6404L24.8958 10.7064H25.9375H26.9792L27.0421 9.6404L27.1052 8.57439H25.9375H24.7698L24.8329 9.6404ZM86.25 12.0157V13.0202L85.1562 13.0817L84.0625 13.143L83.9996 14.209L83.9365 15.275H85.0933H86.25V16.3918V17.5086H87.2917H88.3333V16.3918V15.275H89.4792H90.625V14.1583V13.0415H89.4792H88.3333V12.0262V11.011H87.2917H86.25V12.0157ZM13.75 18.2193V19.336H12.6042H11.4583V20.3513V21.3665H12.6042H13.75V22.4833V23.6001H14.7917H15.8333V22.4833V21.3665H16.9792H18.125V20.3513V19.336H16.9792H15.8333V18.2193V17.1025H14.7917H13.75V18.2193ZM38.761 22.2169C38.6404 22.7653 38.5417 23.332 38.5417 23.4764C38.5417 23.7067 39.789 24.2092 40.3602 24.2092C40.5765 24.2092 41.1756 21.8354 41.0021 21.6662C40.9477 21.6134 40.4706 21.4912 39.9419 21.395L38.9804 21.2199L38.761 22.2169ZM37.8312 26.0072C37.655 26.2858 37.2917 28.591 37.2917 29.4309C37.2917 31.2471 38.0573 32.1204 39.9127 32.4208C40.7779 32.5609 46.2217 31.9978 46.5119 31.7383C46.5987 31.6607 46.6088 31.1641 46.5344 30.6347C46.4069 29.7279 46.3675 29.6784 45.8556 29.7809C45.5569 29.841 44.2381 30.024 42.925 30.1876C39.4152 30.625 38.9412 30.2467 39.656 27.579C39.8233 26.9543 39.8908 26.4009 39.8058 26.3498C39.4823 26.1548 37.9104 25.8821 37.8312 26.0072ZM89.1667 27.9656V29.1037L90.2604 29.0422L91.3542 28.9809V27.9656V26.9504L90.2604 26.8891L89.1667 26.8276V27.9656ZM93.5417 27.9656V29.0824H94.5833H95.625V27.9656V26.8489H94.5833H93.5417V27.9656ZM97.9167 27.9656V29.0824H98.9583H100V27.9656V26.8489H98.9583H97.9167V27.9656ZM31.0327 31.9251C30.6881 33.6626 30.794 35.4178 31.3021 36.3983C32.4817 38.6743 34.2044 38.8593 42.6042 37.6127C52.3094 36.1725 54.8748 36.2929 62.1875 38.5319C66.2956 39.79 66.8012 39.8987 67.9546 39.7712C69.7192 39.5762 70.9783 38.6895 71.8879 37.0014C72.0383 36.7222 72.2142 35.5995 72.2785 34.5065L72.3958 32.5194L73.5106 34.247C78.3883 41.8063 78.9308 51.0719 75.0833 61.1078C74.3119 63.1205 72.125 67.5671 71.9773 67.4233C71.9331 67.3801 72.1277 66.5713 72.4098 65.6259C73.3373 62.5162 73.6233 60.6223 73.6206 57.6109C73.6175 54.1777 73.2958 52.7154 71.949 50.0101C70.3671 46.8332 67.2631 44.1544 63.3871 42.6216C54.4877 39.1023 41.2144 40.5826 32.8119 46.0316C30.6044 47.4631 28.236 49.9121 27.329 51.7007C26.13 54.0653 25.9425 54.9022 25.959 57.814C25.9771 61.0662 26.3558 62.5692 28.6162 68.3612C29.4856 70.5886 30.1637 72.4433 30.1231 72.4827C30.0112 72.5917 28.3152 70.5968 27.0317 68.8467C24.4533 65.3313 22.3962 60.3561 21.7558 56.088C21.3508 53.3877 21.4483 49.0676 21.9712 46.5575C22.7575 42.782 24.8442 38.1659 27.0631 35.2933C28.27 33.7306 31.0113 30.8118 31.1465 30.945C31.1835 30.9815 31.1323 31.4226 31.0327 31.9251ZM0.138958 37.7459C0.0625 37.8203 0 38.3228 0 38.8627V39.8441H1.04167H2.08333V38.7273V37.6105H1.18062C0.683958 37.6105 0.215208 37.6714 0.138958 37.7459ZM4.375 38.7161V39.8441H5.4275H6.48021L6.41708 38.778L6.35417 37.712L5.36458 37.6501L4.375 37.5882V38.7161ZM8.69021 37.7366C8.60854 37.8162 8.54167 38.3228 8.54167 38.8627V39.8441H9.69833H10.8552L10.7921 38.778L10.7292 37.712L9.78396 37.6519C9.26396 37.6188 8.77188 37.657 8.69021 37.7366ZM93.5417 41.57V43.0929H91.9792H90.4167V44.1081V45.1234H91.9792H93.5417V46.6462V48.1691H94.5833H95.625V46.6462V45.1234H97.1875H98.75V44.1081V43.0929H97.1875H95.625V41.57V40.0471H94.5833H93.5417V41.57ZM39.7208 49.5892C38.9371 49.9078 38.2508 50.2122 38.1958 50.2658C38.0237 50.4337 38.9533 52.027 39.2229 52.026C39.4915 52.0252 41.8125 51.1403 41.9833 50.9738C42.1167 50.8441 41.4554 48.9774 41.2825 48.9955C41.2073 49.0034 40.5046 49.2706 39.7208 49.5892ZM34.4931 52.8457C33.0129 54.3881 32.4171 55.8206 32.4269 57.814C32.4348 59.3809 32.874 61.5442 33.4635 62.9199L33.7473 63.5814L34.5298 63.2677C34.9602 63.0953 35.394 62.8786 35.4935 62.7863C35.595 62.6922 35.4744 62.0532 35.219 61.333C34.6392 59.6966 34.4362 57.2393 34.7937 56.1835C34.9396 55.7526 35.4767 54.9648 35.9871 54.433L36.915 53.4661L36.3221 52.6494C35.996 52.2002 35.6717 51.8307 35.6015 51.8283C35.5312 51.826 35.0325 52.2837 34.4931 52.8457ZM61.0148 70.8345C60.6723 71.5706 60.4435 72.2228 60.5062 72.2839C60.569 72.345 61.0029 72.5621 61.4706 72.7661L62.321 73.1371L62.9435 71.799C63.286 71.063 63.5148 70.4108 63.4521 70.3497C63.3894 70.2885 62.9554 70.0715 62.4877 69.8674L61.6373 69.4964L61.0148 70.8345ZM11.8338 72.9919L11.7708 74.0579L10.6771 74.1193L9.58333 74.1808V75.1747V76.1687L10.6771 76.2302L11.7708 76.2915L11.8338 77.3575L11.8969 78.4235H12.9275H13.9583V77.3067V76.19H15.1042H16.25V75.1747V74.1595H15.1042H13.9583V73.0427V71.9259H12.9275H11.8969L11.8338 72.9919ZM58.9631 75.67C58.0065 78.1226 56.0485 84.6848 56.0433 85.4564C56.0417 85.6811 57.86 86.0592 58.0502 85.8738C58.1027 85.8229 58.4169 84.7422 58.7485 83.4728C59.0804 82.2033 59.7306 80.0682 60.1935 78.7281C60.6567 77.388 61.0369 76.1863 61.0385 76.0576C61.0402 75.9288 60.7837 75.7327 60.4687 75.6214C60.1537 75.5104 59.7331 75.355 59.5342 75.2765C59.265 75.1701 59.119 75.2708 58.9631 75.67ZM89.375 79.5403V80.6571H88.2292H87.0833V81.6723V82.6876H88.2292H89.375V83.8043V84.9211H90.5208H91.6667V83.8043V82.6876H92.7083H93.75V81.6723V80.6571H92.7083H91.6667V79.5403V78.4235H90.5208H89.375V79.5403ZM79.7917 91.5202V92.637H80.8333H81.875V91.5202V90.4035H80.8333H79.7917V91.5202ZM84.0421 90.6867C83.9808 90.8425 83.9602 91.3221 83.9965 91.7527L84.0625 92.5355L85.1562 92.5968L86.25 92.6583V91.5308V90.4035H85.2019C84.4973 90.4035 84.1171 90.4963 84.0421 90.6867ZM88.4723 90.5389C88.3958 90.6132 88.3333 91.1158 88.3333 91.6557V92.637H89.375H90.4167V91.5202V90.4035H89.514C89.0173 90.4035 88.5485 90.4644 88.4723 90.5389ZM10.8333 97.0026V98.1194H11.875H12.9167V97.0026V95.8858H11.875H10.8333V97.0026ZM15.1485 96.0119C15.0669 96.0915 15 96.5981 15 97.138V98.1194H16.1567H17.3135L17.2504 97.0533L17.1875 95.9873L16.2423 95.9272C15.7223 95.8941 15.2302 95.9323 15.1485 96.0119ZM19.5235 96.0119C19.4419 96.0915 19.375 96.5981 19.375 97.138V98.1194H20.5317H21.6885L21.6254 97.0533L21.5625 95.9873L20.6173 95.9272C20.0973 95.8941 19.6052 95.9323 19.5235 96.0119Z" fill="black"/>
</svg>
