<svg width="100" height="100" viewBox="0 0 100 100" fill="none" xmlns="http://www.w3.org/2000/svg">
<path fill-rule="evenodd" clip-rule="evenodd" d="M46.6624 0.125892C38.7835 1.25802 32.7386 5.86688 30.1338 12.7283C28.9762 15.7773 28.7417 17.317 28.625 22.6315L28.5189 27.4757H27.4856C24.5178 27.4757 22.5267 30.9306 23.1816 34.9438C23.7042 38.1456 25.7675 40.9084 28.204 41.6696L29.4037 42.0442L29.9767 43.54C30.2917 44.3627 30.526 45.1086 30.4973 45.1976C30.4687 45.2864 29.8569 45.5681 29.1379 45.8239C27.585 46.3759 26.3788 47.1835 25.2562 48.4222C23.8462 49.9784 23.4921 50.9002 22.4993 55.5963C21.0937 62.2461 19.5789 65.2588 16.527 67.475L15.1851 68.4495L7.76166 68.5505C0.971547 68.6427 0.319815 68.6815 0.119633 69.0046C-0.0398776 69.262 -0.0398776 69.4537 0.119633 69.7111C0.319815 70.0342 0.994363 70.074 8.05449 70.1793C13.114 70.2546 16.0437 70.3767 16.5641 70.534C18.0346 70.9784 21.7387 71.0432 23.6072 70.6571C24.5347 70.4655 26.4095 70.2744 27.7735 70.2324L30.2534 70.1561L28.7954 70.9534C27.9935 71.3918 26.9069 72.1198 26.3808 72.5712L25.4243 73.3916L12.8815 73.4437C1.18423 73.4922 0.323981 73.5194 0.119831 73.8488C-0.0398777 74.1064 -0.0398777 74.2977 0.119831 74.5553C0.323783 74.8843 1.1505 74.9121 12.1714 74.9606C18.6792 74.9892 24.004 75.048 24.004 75.0911C24.004 75.1343 23.7439 75.7029 23.4262 76.3545C22.6842 77.876 22.2255 79.6933 22.0363 81.8621C21.9468 82.8887 21.5905 84.5567 21.1568 85.9797C19.8781 90.1748 18.633 98.7242 19.1736 99.5962C19.3704 99.9134 21.7536 99.9403 53.8632 99.9879C79.1819 100.025 88.4129 99.9786 88.6105 99.8117C88.8307 99.6258 88.8795 97.6484 88.8795 88.9119V78.2389H91.0222C92.4243 78.2389 93.2472 78.1551 93.403 77.9967C93.5415 77.8558 93.6411 77.1804 93.6411 76.3819V75.0094H96.5773C98.5966 75.0094 99.588 74.9337 99.7517 74.7672C100.083 74.4303 100.083 69.1295 99.7517 68.7927C99.588 68.6262 98.5966 68.5505 96.5773 68.5505H93.6411V67.1779C93.6411 66.3795 93.5415 65.7041 93.403 65.5632C93.2472 65.4048 92.4243 65.321 91.0222 65.321H88.8795V54.6637C88.8795 46.644 88.8206 43.9465 88.6415 43.7643C88.4631 43.5828 86.0998 43.5221 79.228 43.5221H70.0527L70.3025 42.7882C70.5275 42.1265 70.6721 42.0167 71.7679 41.6744C74.2212 40.9082 76.282 38.1553 76.8061 34.9438C77.4636 30.9146 75.4709 27.4757 72.4785 27.4757H71.4219L71.4213 23.7363C71.4203 17.7709 70.8128 14.3638 69.1367 10.9246C66.5036 5.52132 61.86 2.01251 55.3506 0.507171C53.4045 0.0572658 48.6063 -0.153255 46.6624 0.125892ZM53.8235 1.83953C60.7454 2.90101 65.7957 6.87609 68.2741 13.2135C69.5659 16.5165 69.6817 17.4623 69.7617 25.3563L69.8341 32.5217L69.0504 30.6561C67.2411 26.3492 65.8656 21.634 65.8656 19.7381C65.8656 19.3029 65.7541 18.8546 65.6176 18.7418C65.4813 18.6289 61.9163 17.7933 57.6954 16.8848L50.0213 15.2329L42.3197 16.8812C38.0839 17.7877 34.5208 18.6348 34.4017 18.7638C34.2827 18.8927 33.9883 19.9974 33.7472 21.2186C33.3129 23.4194 31.6406 28.7783 30.6608 31.1088L30.1517 32.3199L30.2179 25.2554C30.282 18.4216 30.3007 18.1284 30.7915 16.2734C32.1519 11.1311 34.6215 7.38654 38.3149 4.86554C42.4096 2.07044 48.0952 0.961113 53.8235 1.83953ZM57.0173 18.3928C60.9035 19.2254 64.1149 19.9066 64.1536 19.9066C64.1923 19.9066 64.334 20.5997 64.4683 21.4468C64.9036 24.1931 66.7242 29.5187 68.8407 34.2374L69.8819 36.5585L69.648 38.2742C68.4483 47.0696 60.1482 57.3206 52.6452 59.2728C49.7979 60.0136 47.2161 59.6171 44.0868 57.9584C37.554 54.4954 31.3309 45.5833 30.3415 38.2742L30.1094 36.5585L31.0986 34.2374C33.0637 29.6259 34.6138 24.9857 35.2643 21.768C35.4546 20.827 35.7236 20.0128 35.8623 19.9587C36.0639 19.8799 49.3562 16.9654 49.8239 16.8975C49.8939 16.8872 53.1311 17.5602 57.0173 18.3928ZM39.1218 27.6169C38.8127 27.9314 38.8174 28.482 39.1317 28.74C39.2682 28.852 40.5657 29.1443 42.0152 29.3893C44.7891 29.8584 45.2324 29.8033 45.2324 28.9895C45.2324 28.4013 44.8435 28.2477 42.2267 27.802C39.2789 27.3001 39.4247 27.3087 39.1218 27.6169ZM57.4536 27.8458C54.9421 28.3109 54.4203 28.6146 54.8824 29.3427C55.1565 29.7746 56.3648 29.7417 58.9997 29.2307C60.8932 28.8635 61.4001 28.5052 60.9838 27.8289C60.6833 27.3404 60.17 27.343 57.4536 27.8458ZM28.5853 34.0355C28.65 36.7553 28.7726 39.2749 28.8577 39.6348L29.0127 40.289L28.4151 40.077C26.4274 39.372 24.6087 36.1954 24.6015 33.4163C24.598 32.0092 25.0949 30.5774 25.8338 29.8665C26.622 29.1079 26.8781 29.0004 27.7735 29.051L28.4679 29.0904L28.5853 34.0355ZM74.2238 29.9779C75.7447 31.7208 75.7659 34.686 74.2774 37.4686C73.6568 38.6284 72.4942 39.7501 71.5744 40.0764C70.9917 40.2831 70.9816 40.2755 71.1183 39.7351C71.1951 39.4311 71.2993 37.0026 71.3496 34.3383C71.4002 31.674 71.483 29.3689 71.5338 29.2159C71.602 29.0107 71.872 28.9659 72.565 29.0454C73.3501 29.1352 73.6217 29.2878 74.2238 29.9779ZM40.8206 30.9201C39.9955 31.3756 39.6771 32.1988 39.6781 33.874C39.6787 34.9904 39.7747 35.5077 40.0749 36.0085C40.7002 37.0518 42.0779 37.3762 43.255 36.7569C44.1087 36.3078 44.4388 35.4926 44.4388 33.8337C44.4388 32.9476 44.3239 32.1747 44.1378 31.8086C43.5767 30.7047 41.9836 30.278 40.8206 30.9201ZM56.6923 30.9201C55.8672 31.3756 55.5488 32.1988 55.5498 33.874C55.5504 34.9904 55.6464 35.5077 55.9466 36.0085C56.5719 37.0518 57.9496 37.3762 59.1266 36.7569C59.9803 36.3078 60.3105 35.4926 60.3105 33.8337C60.3105 32.9476 60.1956 32.1747 60.0095 31.8086C59.4484 30.7047 57.8553 30.278 56.6923 30.9201ZM42.7524 33.8337V35.3475H42.058H41.3636L41.3039 34.0567C41.2256 32.3685 41.3103 32.1784 42.1062 32.2565L42.7524 32.3199V33.8337ZM58.6241 33.8337V35.3475H57.9297H57.2353L57.1756 34.0567C57.0973 32.3685 57.182 32.1784 57.9779 32.2565L58.6241 32.3199V33.8337ZM49.4171 36.5357C49.263 36.7249 49.2068 37.7173 49.2441 39.5922C49.2918 41.9788 49.3483 42.3998 49.6467 42.5912C49.8996 42.7531 50.0881 42.7531 50.3411 42.5912C50.6395 42.3998 50.696 41.9788 50.7436 39.5922C50.8008 36.7212 50.6962 36.2558 49.9939 36.2558C49.8024 36.2558 49.5429 36.3817 49.4171 36.5357ZM46.8995 45.3433C46.1595 45.5754 44.4388 47.0717 44.4388 47.4832C44.4388 48.6763 46.4753 50.8106 48.075 51.294C50.1933 51.9338 52.3296 51.5136 53.842 50.1592C54.7413 49.3539 55.549 48.0875 55.549 47.4832C55.549 47.0077 53.7763 45.5597 52.9008 45.3197C52.0403 45.0839 50.6772 45.2149 50.2518 45.574C50.0663 45.7306 49.9161 45.7262 49.7173 45.5583C49.3378 45.2377 47.6474 45.109 46.8995 45.3433ZM76.1822 60.304V75.4712L75.4957 74.5567C73.8673 72.3867 71.083 70.5822 67.6015 69.4404L65.8656 68.871V60.0121V51.1535L67.0282 49.3854C67.6676 48.4127 68.4487 47.0636 68.7641 46.387L69.3375 45.157L72.7598 45.1469L76.1822 45.1368V60.304ZM87.2924 71.7799V98.423H84.118C81.2228 98.423 80.9437 98.392 80.9437 98.0686C80.9437 97.8736 80.8084 96.5376 80.6431 95.0997C80.2392 91.5863 79.4924 87.9937 78.6185 85.3584L77.8975 83.184L77.8215 64.1604L77.7455 45.1368H82.519H87.2924V71.7799ZM49.3894 47.2475C49.8375 47.6602 50.1272 47.6403 50.7333 47.1552C51.0109 46.9332 51.4727 46.7515 51.7596 46.7515C52.3562 46.7515 53.6045 47.3764 53.7215 47.7337C53.7646 47.8653 53.4549 48.3239 53.0331 48.753C51.9215 49.8839 50.2802 50.2559 48.5535 49.7681C47.7278 49.5347 46.1376 48.1261 46.2642 47.74C46.3085 47.6049 46.6525 47.3224 47.0284 47.112C47.7992 46.6813 48.839 46.7408 49.3894 47.2475ZM32.094 48.0131C33.1415 49.8981 35.1267 52.457 37.1273 54.5015C38.2024 55.6001 39.0821 56.5625 39.0821 56.6402C39.0821 56.7179 38.4442 57.764 37.6645 58.965C32.9616 66.2095 25.5876 70.1176 18.3015 69.2272L17.2611 69.1001L18.5614 67.8878C21.4768 65.17 22.7322 62.3565 24.2099 55.2289C24.5436 53.6192 25.0253 51.8372 25.2802 51.2688C26.1278 49.3799 27.8171 47.8813 29.8142 47.2463C31.2621 46.7859 31.4466 46.8478 32.094 48.0131ZM64.2784 60.9186C64.2784 68.5616 64.2752 68.6231 63.8929 68.2055C63.5342 67.8139 61.2479 67.2678 59.2193 67.0891L58.6241 67.0366L58.3936 64.009C58.2668 62.3438 58.1551 60.4217 58.1456 59.7376L58.1281 58.4939L59.4242 57.5527C60.1373 57.0352 61.4987 55.85 62.4498 54.9189C63.4011 53.9878 64.2016 53.2224 64.2288 53.2182C64.256 53.2139 64.2784 56.6791 64.2784 60.9186ZM41.3513 58.1276L41.9342 58.6021L41.6489 62.8194L41.3636 67.0366L40.7684 67.0891C38.8254 67.2601 36.4361 67.8178 36.1405 68.1692C35.8524 68.5115 35.5157 68.5505 32.8499 68.5505H29.8801L31.0587 67.8289C33.9799 66.0408 37.0245 62.9584 39.0821 59.7064C39.7913 58.5851 40.4609 57.6645 40.5701 57.6605C40.6792 57.6565 41.0307 57.8666 41.3513 58.1276ZM44.4112 59.8569C47.8911 61.663 52.1068 61.6578 55.6037 59.8428C56.0313 59.621 56.4078 59.4684 56.4406 59.5039C56.4735 59.5394 56.6491 61.6576 56.831 64.2109C57.0484 67.2631 57.2474 68.9424 57.4119 69.1136C57.6135 69.3233 57.5434 70.0885 57.052 73.0495C56.7163 75.071 56.3737 76.8318 56.2906 76.9622C56.2072 77.0926 54.7566 78.295 53.0666 79.6344L49.9939 82.0698L46.9211 79.6344C45.2312 78.295 43.7805 77.0926 43.6972 76.9622C43.614 76.8318 43.2714 75.071 42.9357 73.0495C42.4457 70.0964 42.3747 69.3227 42.5747 69.1136C42.7794 68.8996 43.4468 61.8243 43.4468 59.8688C43.4468 59.3749 43.4815 59.3745 44.4112 59.8569ZM92.0539 71.7799V76.6241H90.4667H88.8795V71.7799V66.9357H90.4667H92.0539V71.7799ZM41.3646 73.3133L42.1302 77.8743L45.9133 80.879C47.994 82.5316 49.8302 83.885 49.9939 83.8864C50.2417 83.8886 56.9258 78.7394 57.6672 77.9751C57.7956 77.8427 58.2311 75.736 58.6348 73.2937C59.0386 70.8515 59.3949 68.8227 59.4268 68.7854C59.4588 68.7483 60.172 68.8304 61.0118 68.9683C62.4389 69.2024 62.5555 69.2599 62.7912 69.8435C62.9301 70.187 64.5403 74.8277 66.3695 80.1564C68.1987 85.485 69.8674 90.3393 70.0775 90.9436C70.6424 92.5684 70.7364 95.1712 70.2932 96.9092L69.9327 98.3221H49.9939H30.0551L29.6946 96.9092C29.2353 95.1082 29.3444 92.5612 29.9545 90.8431C30.1888 90.1831 31.9351 85.1077 33.8349 79.5646C35.7347 74.0216 37.3578 69.4206 37.4417 69.3401C37.5937 69.1941 39.4076 68.8217 40.1877 68.7763C40.5716 68.7539 40.6504 69.0581 41.3646 73.3133ZM98.4026 71.7799V73.3947H96.0218H93.6411V71.7799V70.1652H96.0218H98.4026V71.7799ZM34.6257 72.335C34.0916 73.9257 31.1191 82.5952 28.4298 90.4055C27.667 92.6207 27.6166 95.4271 28.2939 97.9689L28.4149 98.423H24.5111H20.6072L20.7374 96.9597C21.0969 92.9192 21.9514 88.5376 22.9969 85.3744C23.4074 84.1326 23.6072 83.1337 23.6072 82.3239C23.6072 76.8347 26.6829 73.0776 32.9016 70.9707C35.4792 70.0976 35.3983 70.0336 34.6257 72.335ZM66.4647 70.7851C70.5467 71.9349 73.8534 74.3389 75.2761 77.1909C75.833 78.3077 76.3806 80.8475 76.3806 82.3145C76.3806 83.0774 76.5042 84.0023 76.655 84.3698C77.0976 85.4474 77.9112 88.4735 78.3514 90.6802C78.6959 92.4061 79.3565 97.3289 79.3565 98.1695C79.3565 98.3643 78.456 98.423 75.4646 98.423H71.5728L71.6939 97.9689C72.4373 95.179 72.3291 92.6013 71.3502 89.7753C69.6758 84.9416 65.9588 74.1183 65.3611 72.335C64.9984 71.2525 64.7643 70.367 64.8411 70.367C64.9178 70.367 65.6485 70.5552 66.4647 70.7851Z" fill="black"/>
</svg>
