<svg width="100" height="100" viewBox="0 0 100 100" fill="none" xmlns="http://www.w3.org/2000/svg">
<path fill-rule="evenodd" clip-rule="evenodd" d="M35.6512 0.387553C35.3462 0.688949 35.2528 1.0437 35.2528 1.89985C35.2528 3.24698 34.5569 5.91663 34.0347 6.57258C33.8275 6.83283 32.9633 7.42244 32.1144 7.8827C31.2655 8.34297 28.6884 9.82239 26.3876 11.1705C20.9247 14.3707 20.2141 14.7117 18.2649 15.0682C13.5545 15.9295 11.2967 16.9758 8.74148 19.4814C6.24902 21.9259 4.72995 24.6558 3.79958 28.3629C3.20351 30.738 2.98237 33.0774 2.98038 37.0274C2.97858 41.0414 2.80347 42.2218 1.40612 47.6432C0.863242 49.7498 0.305221 52.2161 0.166164 53.1239C-0.0832623 54.7519 -0.0804732 54.7793 0.372359 55.1417C0.624973 55.3437 0.983772 55.5091 1.16985 55.5091C1.96634 55.5091 2.19883 55.0358 2.76761 52.2551C3.077 50.7424 3.60255 48.5303 3.93545 47.3393C5.1003 43.1733 5.19274 42.4996 5.36606 36.9056C5.56768 30.4026 5.96592 28.1373 7.40789 25.2907C9.69217 20.7815 12.6817 18.6054 18.0934 17.5126C21.3556 16.8539 21.361 16.8514 28.6486 12.6111C31.0974 11.1863 33.518 9.81038 34.0276 9.55328C35.2293 8.94733 35.9094 8.22111 36.5292 6.88224C37.5757 4.62069 37.9943 0.959045 37.2791 0.319635C36.7892 -0.118384 36.1357 -0.0912167 35.6512 0.387553ZM58.8481 0.329478C58.0954 1.07342 59.0393 6.01546 60.2285 7.55611C61.9828 9.82869 72.6203 14.704 78.3738 15.8722C84.3358 17.0827 88.3638 19.172 90.9445 22.3925C92.0474 23.7689 93.4753 26.5218 94.0094 28.3011C94.9999 31.6021 95.4165 36.5935 95.0553 40.8322C94.8103 43.7073 94.9505 44.6799 96.1201 48.2251C97.2137 51.5397 97.6026 53.1636 97.6063 54.4316C97.6101 55.6601 98.0179 56.2965 98.8017 56.2965C99.6709 56.2965 100 55.8378 100 54.6265C100 53.0231 99.5414 50.9987 98.3937 47.5361L97.3497 44.3863L97.4298 42.1224C97.5721 38.0924 97.4854 33.5994 97.232 31.8856C95.7093 21.5808 90.0562 15.808 79.4006 13.676C78.0748 13.4106 76.3571 12.981 75.5839 12.7212C71.7517 11.4331 64.1759 7.88211 62.7056 6.68459C61.8862 6.01723 61.216 4.35394 61.0337 2.53552C60.975 1.94966 60.8877 1.27717 60.8397 1.04114C60.6411 0.0621392 59.523 -0.337295 58.8481 0.329478ZM66.9291 15.4613C64.2763 15.8184 60.9126 16.0956 56.2707 16.3395C49.9181 16.6732 47.8623 17.2364 45.8908 19.183C44.6401 20.4181 44.2313 21.4379 44.7025 22.1483C44.9153 22.4692 45.2075 22.632 45.5671 22.6301C46.2662 22.6261 46.4813 22.4759 46.8754 21.7156C47.3446 20.8103 48.5076 19.9453 49.8851 19.4767C50.8268 19.1566 52.0948 19.0054 55.6731 18.7865C64.1328 18.2692 70.4551 17.5786 71.0275 17.1093C71.4062 16.7986 71.3897 15.8478 70.999 15.4615C70.6281 15.0952 69.6491 15.0952 66.9291 15.4613ZM24.4063 16.4029C23.8069 16.9953 23.7714 17.3217 24.2458 17.8849C24.7422 18.4745 26.6014 18.6871 31.3004 18.6918C36.0857 18.6966 36.7388 18.8582 39.5643 20.7349C40.6471 21.454 41.7337 22.0424 41.9789 22.0424C42.8174 22.0424 43.493 20.9892 43.0693 20.3427C42.8834 20.0592 39.7873 18.0016 38.7585 17.478C36.8868 16.5252 36.5491 16.4744 31.0691 16.3224C28.1654 16.2419 25.5931 16.1137 25.3526 16.0377C25.0299 15.9358 24.7825 16.0312 24.4063 16.4029ZM43.9498 26.1429C43.7685 26.3409 43.6183 26.6287 43.6161 26.7827C43.6139 26.9364 43.3398 27.8154 43.0069 28.7358C42.2441 30.844 42.0184 33.0307 42.5128 33.5193C42.6993 33.7036 43.0523 33.8542 43.2974 33.8542C44.107 33.8542 44.4238 33.4264 44.618 32.0708C44.7192 31.3643 45.0187 30.2142 45.2834 29.5149C46.0371 27.5249 46.1241 26.6823 45.6273 26.1913C45.1165 25.6866 44.3869 25.6655 43.9498 26.1429ZM42.3537 36.3148C41.9407 36.7231 41.75 38.5045 41.9106 40.4587C42.365 45.9927 45.0244 49.6699 49.5968 51.0862C51.022 51.5275 57.6934 51.7167 60.4612 51.3942C62.7889 51.123 63.6828 50.7887 63.8509 50.1266C64.1324 49.0185 63.1859 48.4088 61.8222 48.8201C60.6835 49.1634 53.1712 49.3095 51.445 49.0218C47.8506 48.4228 45.5884 46.2996 44.6176 42.6146C44.475 42.0732 44.3371 40.5001 44.311 39.1187C44.2801 37.4747 44.1787 36.5057 44.0172 36.3134C43.699 35.9344 42.738 35.9352 42.3537 36.3148ZM75.7507 36.4173C75.1839 36.6427 75.0088 37.3461 75.2795 38.31C75.3973 38.7285 75.4939 39.5707 75.4945 40.1813C75.4955 41.1824 75.4108 41.4052 74.634 42.4453C72.6805 45.0612 69.99 46.6339 65.1397 47.995C64.0009 48.3145 64.2753 50.1938 65.4606 50.1938C67.0809 50.1938 70.7725 48.7067 73.0397 47.1406C73.7588 46.6438 74.3824 46.2721 74.4254 46.3146C74.6536 46.5398 75.312 50.2788 75.5881 52.9162C75.7618 54.5759 76.0931 56.8119 76.3244 57.8848C76.8384 60.2696 76.9289 59.8784 73.9569 68.1083C69.4272 80.6522 68.3207 84.5929 68.3255 88.1648C68.3282 90.3303 70.234 98.969 70.8602 99.6555C71.2785 100.114 72.0159 100.092 72.5073 99.6063C73.0012 99.1182 73.005 99.2273 72.4173 97.0154C72.1485 96.0043 71.6471 93.8037 71.3032 92.1255C70.1669 86.5813 70.5872 84.5217 75.8019 70.0769C77.1504 66.3414 78.3125 63.0526 78.3842 62.7684C78.4559 62.4843 78.7294 62.1551 78.9918 62.0368C79.6397 61.7453 79.7923 60.9966 79.4012 60.0304C78.8651 58.7067 78.3254 55.9648 77.9881 52.8514C77.5654 48.9494 77.3369 47.6448 76.7534 45.7998L76.2665 44.2605L76.8119 43.5538C77.5847 42.5527 77.8676 41.634 77.8776 40.0933C77.8891 38.3143 77.5588 37.0876 76.938 36.6051C76.3812 36.1722 76.371 36.1707 75.7507 36.4173ZM14.5912 36.5709C14.043 36.9152 13.4822 38.6714 13.3873 40.3416C13.3045 41.7999 13.3628 42.2328 13.826 43.592C14.3139 45.0234 14.342 45.2649 14.1482 46.3642C13.7906 48.3939 13.8844 52.6746 14.3364 54.9608C14.5568 56.0745 14.8725 58.6244 15.0383 60.6275C15.2041 62.6306 15.6493 67.2372 16.028 70.8643C16.8385 78.6272 17.2527 83.0143 17.4308 85.7275C17.5748 87.9172 17.4108 88.8532 16.2245 92.6175C14.5887 97.8085 14.5385 100 16.0553 100C16.8415 100 17.1361 99.5529 17.3485 98.0377C17.4612 97.2343 17.8714 95.509 18.2599 94.2036C18.6484 92.8982 19.1847 90.9886 19.4515 89.96C20.1073 87.4317 20.0726 86.7576 18.5113 71.6518C18.0804 67.4832 17.5879 62.3894 17.4166 60.3322C17.2455 58.275 16.9755 56.0347 16.8168 55.3537C16.3546 53.3717 16.094 50.5964 16.2356 49.1632L16.3665 47.8373L17.2122 48.522C20.7783 51.4096 28.0122 52.1931 33.663 50.304C35.5948 49.6583 37.0531 48.7494 38.4204 47.3393C40.5222 45.1716 41.088 43.664 40.0132 43.0957C39.2655 42.7004 38.7147 43.0406 37.7279 44.5074C35.6138 47.6497 32.1889 49.0449 26.5866 49.0457C22.504 49.0463 19.9708 48.1236 17.8545 45.8648C16.0243 43.9111 15.318 41.2576 16.0063 38.9185C16.4076 37.5546 16.409 37.1134 16.0137 36.7227C15.6808 36.3939 14.9905 36.3203 14.5912 36.5709ZM19.9902 42.9772C19.6027 43.3065 19.4479 43.6245 19.4479 44.091C19.4479 44.5576 19.6027 44.8755 19.9902 45.2049C20.6253 45.7449 20.9193 45.7724 21.7126 45.3671C22.753 44.8354 22.753 43.3467 21.7126 42.815C20.9193 42.4096 20.6253 42.4372 19.9902 42.9772ZM60.3018 42.9087C59.8766 43.2392 59.7571 43.4987 59.7571 44.091C59.7571 45.5283 61.4722 46.1534 62.3968 45.0529C63.5401 43.6922 61.7073 41.8163 60.3018 42.9087ZM40.7427 45.7813C40.4798 46.0412 40.4485 46.3963 40.5557 47.9049C40.6684 49.4894 40.617 49.9782 40.1443 51.8086C39.553 54.0974 39.6167 54.6106 40.5194 54.8344C41.3745 55.0466 41.7779 54.6204 42.3519 52.8979C42.8129 51.5145 42.8945 50.9285 42.9075 48.9057C42.9202 46.9505 42.8609 46.4416 42.5696 46.002C42.1612 45.3858 41.254 45.2761 40.7427 45.7813ZM71.6395 49.1201C70.7117 49.8199 70.5073 50.3042 70.9534 50.745C71.3251 51.1123 71.6742 51.0314 72.6243 50.3572C73.5224 49.7197 73.7439 49.1321 73.2644 48.6582C72.8952 48.2935 72.6382 48.3665 71.6395 49.1201ZM37.5843 51.4937C36.4764 52.3467 36.3138 52.7077 36.8145 53.2026C37.1396 53.5239 37.2667 53.5442 37.6689 53.3392C39.0354 52.6433 39.6608 51.4159 38.8635 50.9942C38.5644 50.8361 38.309 50.9358 37.5843 51.4937ZM21.0582 51.587C20.3972 51.9687 20.6319 52.6914 21.5989 53.2514C22.7098 53.8946 23.3752 53.8432 23.461 53.1075C23.5122 52.6693 23.3787 52.4862 22.6988 52.0622C21.6224 51.3907 21.473 51.3474 21.0582 51.587ZM44.2576 51.6112C44.1261 51.7411 44.0186 52.0561 44.0186 52.311C44.0186 52.954 45.9711 53.8775 46.6128 53.5381C47.3129 53.168 47.0344 52.5262 45.9112 51.9209C44.7848 51.3139 44.5945 51.2783 44.2576 51.6112ZM66.7299 51.7017C65.9659 52.035 65.7415 52.2821 65.7368 52.7953C65.7314 53.3954 66.3906 53.5617 67.3525 53.203C68.55 52.7561 68.7516 52.5711 68.6825 51.9825C68.6341 51.5716 68.5071 51.4661 68.0248 51.4356C67.6961 51.4147 67.1134 51.5346 66.7299 51.7017ZM61.3509 53.2117C60.5976 53.4052 60.4444 53.5265 60.3926 53.9702C60.3044 54.7244 60.8038 54.9297 62.1071 54.6752C63.2861 54.4448 63.6987 54.0003 63.3431 53.3436C63.1038 52.9016 62.6701 52.8729 61.3509 53.2117ZM49.5081 53.4591C48.8338 54.1257 49.4531 54.746 51.024 54.9775C51.9823 55.1187 52.4903 54.7661 52.3164 54.0806C52.2114 53.6678 52.0329 53.5515 51.3406 53.445C50.8746 53.3735 50.3459 53.2739 50.1656 53.2241C49.9855 53.1743 49.6896 53.28 49.5081 53.4591ZM19.426 53.7812C18.9949 54.3893 19.0271 54.6007 19.7595 55.9583C21.0566 58.363 23.3759 60.1893 25.8963 60.7901C27.2177 61.1053 29.4052 61.1269 29.769 60.8287C30.1515 60.5149 30.1656 59.3737 29.7909 59.0664C29.6357 58.939 28.7464 58.7571 27.8144 58.6622C25.0145 58.3768 23.0257 57.109 21.8959 54.8888C21.6561 54.4179 21.3222 53.8775 21.1536 53.6881C20.7179 53.1985 19.8041 53.2477 19.426 53.7812ZM32.5788 53.5641C31.6373 53.7824 31.2683 54.0576 31.2683 54.5419C31.2683 55.1333 31.9186 55.3463 32.9952 55.1079C34.4364 54.7887 34.8113 54.3135 34.1429 53.6529C33.7955 53.3097 33.7 53.3044 32.5788 53.5641ZM25.8961 53.9218C25.5098 54.6348 25.9399 55.0687 27.1851 55.2224C28.3653 55.3681 28.8777 55.1569 28.8777 54.5248C28.8777 54.0046 28.4956 53.7997 27.2478 53.6507C26.2322 53.5294 26.0935 53.5572 25.8961 53.9218ZM55.0156 53.9735C54.8841 54.1035 54.7766 54.3515 54.7766 54.5248C54.7766 54.698 54.8841 54.946 55.0156 55.076C55.3087 55.3655 57.0507 55.3876 57.5788 55.1084C58.0131 54.8787 58.084 54.3283 57.725 53.9735C57.4147 53.6668 55.326 53.6668 55.0156 53.9735ZM65.2552 55.5988C64.5205 56.1939 63.5567 56.7881 63.1132 56.9194C62.0322 57.2395 61.622 57.8496 61.9838 58.5992C62.5675 59.8083 64.7956 59.2243 66.8793 57.3159C67.6981 56.5658 67.9252 56.2282 67.9252 55.7607C67.9252 55.1307 67.6959 54.851 67.009 54.6435C66.6918 54.5476 66.2683 54.7783 65.2552 55.5988ZM40.362 56.7432C39.9267 57.0578 39.918 57.2714 40.2266 60.0369C40.563 63.0524 40.3692 65.8949 39.6203 68.9252C38.6298 72.934 38.3802 74.8242 38.3762 78.3451C38.3738 80.4998 38.4531 81.7418 38.6115 82.0339C38.9312 82.6239 39.7146 82.7993 40.3094 82.4141C40.776 82.1121 40.7812 82.0709 40.7752 78.7012C40.7688 75.05 41.0278 72.9983 41.9309 69.5467C42.6812 66.6787 42.937 63.4922 42.6621 60.4371C42.4343 57.9088 42.2009 56.9219 41.7648 56.6481C41.4032 56.4207 40.7467 56.4652 40.362 56.7432ZM36.5477 57.4698C35.6508 57.9834 33.1121 58.6589 32.0782 58.6589C31.5243 58.6589 30.9922 59.5105 31.1522 60.1407C31.3672 60.9864 31.9975 61.1153 34.0939 60.7417C36.2222 60.3625 38.3184 59.4339 38.9268 58.6006C39.2964 58.0945 39.3044 58.0074 39.0276 57.5179C38.6065 56.7727 37.7923 56.757 36.5477 57.4698ZM44.2622 57.9811C43.6484 58.4059 43.6458 59.5375 44.2578 59.8611C45.0513 60.2808 48.6636 61.2283 50.6744 61.5441C53.6037 62.0042 56.9811 61.8402 59.0598 61.1372C59.9364 60.8407 60.8106 60.458 61.0022 60.2869C61.6912 59.6723 61.2114 58.2651 60.3129 58.2651C60.143 58.2651 59.3879 58.4978 58.6353 58.7823C57.523 59.2026 56.8194 59.3174 54.8762 59.3957C52.199 59.5038 50.3022 59.2327 46.8776 58.2529C45.7655 57.9348 44.8216 57.6746 44.7802 57.6746C44.7387 57.6746 44.5057 57.8126 44.2622 57.9811ZM23.7533 61.0704C23.2793 61.6762 23.3142 61.8333 24.1131 62.6896C24.9574 63.5948 25.4196 63.769 25.8495 63.3442C26.2595 62.939 26.1174 62.5418 25.2502 61.6685C24.3709 60.783 24.0718 60.6635 23.7533 61.0704ZM61.0572 61.4368C60.2639 62.1252 59.9896 62.8503 60.357 63.2877C60.7333 63.7358 61.0784 63.6448 61.948 62.8686C62.759 62.1445 62.9564 61.5053 62.5064 61.0606C62.1344 60.693 61.8205 60.7747 61.0572 61.4368ZM20.9287 61.5413C20.5199 61.8242 20.4753 61.9782 20.5707 62.7717C20.8072 64.7392 21.9653 67.3003 23.2632 68.727C24.286 69.8511 26.2384 70.8636 28.5788 71.4839C29.8931 71.8321 30.7492 71.9081 33.4598 71.9166C35.2677 71.9223 36.978 71.867 37.2607 71.7939C37.5446 71.7207 37.8841 71.4232 38.0198 71.1289C38.2308 70.6714 38.2108 70.5253 37.8789 70.0907C37.4964 69.5899 37.4685 69.5853 35.1245 69.6497C32.3411 69.7261 29.9973 69.4459 27.875 68.7835C25.2937 67.9777 24.0421 66.5397 23.1056 63.3036C22.5267 61.3029 21.9489 60.8354 20.9287 61.5413ZM64.6964 62.1532C64.5303 62.3426 64.2486 62.9308 64.0705 63.4603C63.3485 65.6071 62.0067 67.1127 59.6599 68.4095C57.4812 69.6135 56.7034 69.7312 50.2941 69.8263C44.1829 69.917 43.8062 69.9749 43.5191 70.8687C43.44 71.1151 43.5199 71.4764 43.7203 71.7788L44.0528 72.28L50.1618 72.194C55.6308 72.1168 56.4355 72.0632 57.8444 71.6835C61.891 70.5925 65.2692 67.6216 66.3328 64.2187C66.6452 63.2194 66.6797 62.8698 66.4994 62.5312C66.0725 61.7295 65.224 61.5518 64.6964 62.1532ZM34.7547 63.7214C33.9353 63.8458 33.6279 64.1435 33.6986 64.7447C33.7473 65.1573 33.8785 65.2652 34.3917 65.3144C34.74 65.3477 35.3952 65.2764 35.8479 65.1559C36.6161 64.9516 36.6669 64.8951 36.6093 64.3078C36.5557 63.7602 36.4704 63.6757 35.9501 63.6548C35.6213 63.6417 35.0834 63.6716 34.7547 63.7214ZM28.3298 64.0003C27.9979 64.3328 28.0144 64.8559 28.3659 65.1441C28.5227 65.2727 29.1305 65.4268 29.7166 65.4865C30.5398 65.5705 30.8414 65.5248 31.0418 65.2862C31.3596 64.9079 31.1701 64.2261 30.7103 64.0938C29.7307 63.8123 28.5633 63.7665 28.3298 64.0003ZM44.6561 64.2104C44.3455 64.5173 44.3505 65.0549 44.666 65.3028C44.8031 65.4103 45.3952 65.6176 45.9819 65.763C46.9549 66.0046 47.0714 65.9973 47.3057 65.681C47.7356 65.0998 47.4392 64.6132 46.4532 64.2813C45.3581 63.9123 44.973 63.8972 44.6561 64.2104ZM56.5759 64.56C55.5177 64.9738 55.177 65.3969 55.5023 65.8936C55.7767 66.3125 56.5831 66.3068 57.6155 65.8788C58.1781 65.6457 58.3626 65.4548 58.3626 65.1063C58.3626 64.6132 58.0205 64.1578 57.6752 64.1915C57.5603 64.2027 57.0654 64.3685 56.5759 64.56ZM50.0351 65.3916C49.335 66.0833 50.2893 66.7785 51.8199 66.6918C52.7578 66.6389 52.8917 66.5781 52.9491 66.178C53.0571 65.4252 52.6497 65.1553 51.4053 65.1553C50.7831 65.1553 50.1666 65.2616 50.0351 65.3916ZM24.1362 71.2974C23.7276 71.7012 23.8694 72.2109 24.6175 73.0292C25.3564 73.8374 25.8272 73.9968 26.2479 73.581C26.651 73.1828 26.5155 72.7702 25.6957 71.8979C24.8779 71.0279 24.5404 70.898 24.1362 71.2974ZM60.7974 71.5041C60.3269 71.826 60.1643 72.076 60.2026 72.4194C60.2898 73.2023 60.7949 73.355 61.6236 72.8489C62.3763 72.3892 62.5735 71.7575 62.1079 71.2974C61.7695 70.963 61.5342 71.0002 60.7974 71.5041ZM62.5462 72.6361C62.3271 72.8527 62.1478 73.2106 62.1478 73.4314C62.1478 74.5047 60.2986 76.883 58.926 77.575C57.9914 78.0461 57.6985 78.5408 57.9569 79.2127C58.4293 80.4401 60.1137 80.0003 61.9631 78.167C63.9916 76.1558 65.066 73.5385 64.2356 72.6318C63.7784 72.1325 63.054 72.1343 62.5462 72.6361ZM22.0567 73.2411C21.2172 73.7246 21.2506 74.0785 22.395 76.8043C24.1714 81.036 25.0667 82.0274 27.9075 82.9094C29.2167 83.3157 29.7672 83.3651 32.9908 83.3651C36.266 83.3651 36.6451 83.3299 37.0251 82.9901C37.503 82.5625 37.5655 81.931 37.1814 81.4118C36.9462 81.0939 36.5226 81.0522 33.1472 81.0142C27.0781 80.9461 26.4888 80.5769 24.4856 75.589C23.5811 73.3371 22.9498 72.7269 22.0567 73.2411ZM56.0081 74.0256C55.2585 74.3547 55.1563 74.4728 55.2113 74.9469C55.2609 75.3725 55.392 75.504 55.8153 75.5522C56.5084 75.6312 58.1633 74.9132 58.1633 74.5335C58.1633 73.5423 57.4778 73.3808 56.0081 74.0256ZM44.3907 74.8276C43.79 75.4211 44.1985 75.9101 45.5221 76.1816C46.783 76.4403 47.2061 76.259 47.2061 75.4603C47.2061 74.9301 47.1117 74.8764 45.74 74.6268C44.9061 74.475 44.7194 74.5028 44.3907 74.8276ZM28.4294 74.8173C28.2376 74.9278 28.0808 75.2396 28.0808 75.5105C28.0808 75.8932 28.2471 76.0719 28.8279 76.3125C29.8602 76.7405 30.6667 76.7462 30.941 76.3273C31.2751 75.8174 30.9213 75.4093 29.7704 74.9774C29.2245 74.7727 28.7781 74.6077 28.7781 74.6108C28.7781 74.614 28.6213 74.7069 28.4294 74.8173ZM34.7551 74.9205C34.3172 75.0788 33.8373 75.3286 33.6889 75.4753C33.3632 75.7969 33.5427 76.4871 33.9965 76.6592C34.4643 76.8366 36.2186 76.2096 36.4501 75.7824C36.7069 75.3079 36.7029 75.2784 36.3344 74.914C35.9602 74.5445 35.7933 74.5451 34.7551 74.9205ZM49.9187 75.2991C49.5388 75.6745 49.5356 75.6989 49.803 76.1926C49.9669 76.4952 50.2251 76.5734 51.0599 76.5734C52.3064 76.5734 52.8501 76.2538 52.7535 75.578C52.6901 75.1351 52.5877 75.0924 51.4627 75.0388C50.5447 74.9953 50.1606 75.0601 49.9187 75.2991ZM54.7766 79.9362C52.728 80.9996 51.685 81.1738 47.1619 81.2089C44.1618 81.2321 42.9503 81.3091 42.7292 81.4904C42.3403 81.8093 42.3361 82.7572 42.7218 83.1383C43.444 83.852 50.3088 83.8216 53.0652 83.0929C54.9411 82.5968 56.5694 81.8888 57.1469 81.3181C57.9514 80.5232 57.4949 79.3097 56.406 79.3483C56.1123 79.3588 55.3792 79.6233 54.7766 79.9362ZM22.5026 83.0698C22.0057 83.5608 22.0067 83.8144 22.5155 86.2871C23.0582 88.9251 23.6814 90.7183 25.0917 93.6994C25.7324 95.0534 26.4605 96.8699 26.7099 97.7361C27.2241 99.521 27.5417 100 28.2113 100C28.7247 100 29.4753 99.37 29.4753 98.9393C29.4753 98.1507 28.3007 94.8593 27.1843 92.5192C25.8234 89.6669 25.0877 87.4421 24.683 84.9569C24.3338 82.8107 23.4973 82.0869 22.5026 83.0698ZM59.3063 83.6112C58.9807 83.9691 58.0785 86.1163 57.4657 87.9914C56.9096 89.6929 56.1241 91.0967 54.6572 93.0114C52.6606 95.6172 51.1906 98.0044 51.1906 98.6409C51.1906 99.2216 51.8032 99.8031 52.415 99.8031C52.8005 99.8031 53.1087 99.433 54.7929 96.9486C55.4535 95.9742 56.5592 94.4075 57.2499 93.4673C57.9406 92.5269 58.7363 91.1981 59.0178 90.5144C59.8573 88.4755 61.3509 84.4675 61.3509 84.2534C61.3509 83.8852 60.5584 83.2667 60.0868 83.2667C59.8298 83.2667 59.4786 83.4218 59.3063 83.6112ZM28.3866 83.7295C27.7228 84.2091 28.2838 86.6133 29.0596 86.6133C29.7018 86.6133 29.8929 86.1549 29.7503 84.9556C29.658 84.1791 29.5096 83.7838 29.2608 83.6523C28.8099 83.4139 28.8253 83.4126 28.3866 83.7295ZM38.5549 84.4971C38.3937 84.7408 38.2347 85.4148 38.2017 85.9952C38.1483 86.9315 38.1989 87.0933 38.6505 87.4321C39.6891 88.2113 40.6272 87.2085 40.6306 85.315C40.6328 84.1551 39.1641 83.5763 38.5549 84.4971ZM52.058 84.8808C51.9512 85.0217 51.6954 85.521 51.4892 85.9905C51.0563 86.9771 51.2362 87.4992 52.0092 87.4992C52.3749 87.4992 52.5887 87.2937 52.9302 86.6133C53.5135 85.4511 53.4553 84.763 52.7672 84.6839C52.4839 84.6514 52.1648 84.74 52.058 84.8808ZM29.9136 89.0151C29.5933 89.3316 29.6126 89.824 29.98 90.7045C30.3728 91.6465 30.8034 91.9777 31.2958 91.7172C31.7212 91.4924 31.7742 90.8175 31.4291 90.0185C30.9418 88.8903 30.4019 88.5326 29.9136 89.0151ZM49.4165 89.9399C48.6192 90.7833 48.2817 91.6471 48.6009 92.0273C49.0268 92.5344 49.5693 92.3566 50.1932 91.5054C50.8927 90.5512 50.9603 89.8659 50.3849 89.5616C50.041 89.3799 49.8902 89.4387 49.4165 89.9399ZM32.1126 94.126C31.7738 94.4609 31.8021 94.7735 32.2499 95.6409C32.7386 96.5874 33.1406 96.9144 33.6279 96.7614C34.2338 96.5714 34.2517 95.9942 33.6839 94.954C33.1456 93.9675 32.5764 93.6677 32.1126 94.126ZM45.8703 94.8217C44.9746 95.9596 44.9437 96.0527 45.3249 96.4689C45.8323 97.023 46.0943 96.9478 46.9005 96.0171C47.7755 95.0072 47.8094 94.2274 46.9824 94.1327C46.5764 94.0862 46.3281 94.24 45.8703 94.8217Z" fill="black"/>
</svg>
