<svg width="100" height="100" viewBox="0 0 100 100" fill="none" xmlns="http://www.w3.org/2000/svg">
<path fill-rule="evenodd" clip-rule="evenodd" d="M47.2949 0.128096C44.9685 0.547777 42.3319 1.96313 41.2055 3.39696C39.7242 5.28265 39.4422 7.044 40.0605 10.5504C40.7671 14.5587 40.7451 14.2733 40.3389 14.152C40.1409 14.0928 38.3262 13.9482 36.306 13.8304C28.0213 13.3482 25.2661 12.9007 22.749 11.6289C20.999 10.7447 20.0639 10.6446 19.092 11.2376C18.2732 11.737 17.8414 12.5878 17.8414 13.7019C17.8414 14.578 17.8205 14.6054 16.1891 15.8797C14.0499 17.5507 11.1941 20.5814 10.2407 22.192C9.13635 24.0577 8.62708 25.8881 8.7742 27.464C8.90762 28.8928 9.59955 30.4689 10.5089 31.4149C10.8289 31.7478 11.0908 32.0886 11.0908 32.1724C11.0908 32.2562 10.8006 32.5633 10.4456 32.8547C8.79823 34.2073 7.19795 35.8989 6.31205 37.2239C4.38755 40.1025 4.23209 42.4374 5.80893 44.7815L6.47029 45.7649L5.54546 46.4704C3.17921 48.2756 0.822676 51.3224 0.238756 53.3319C-0.411677 55.5701 0.291569 58.081 2.0469 59.7876L2.90204 60.6192L2.53334 61.3382C2.33063 61.7336 1.92937 62.8471 1.64167 63.8126C0.982902 66.0242 0.889785 69.2104 1.42506 71.2284C1.88946 72.9786 3.09542 75.4391 4.21462 76.919C5.42197 78.5155 8.10173 81.0421 9.73595 82.1248L11.0342 82.9848L11.1488 85.2997C11.5113 92.6272 15.2966 97.8745 21.3556 99.4485C23.6385 100.042 26.6877 100.162 28.7617 99.7421C31.9835 99.089 34.6436 97.5279 37.3045 94.7284C40.5547 91.3089 43.0167 86.8839 45.3505 80.2655L46.191 77.8821L46.4175 78.7759C47.359 82.4915 49.0294 85.7276 50.0056 85.7276C50.997 85.7276 52.5389 82.732 53.584 78.7759L53.8203 77.8821L54.6607 80.2655C57.1489 87.3211 59.5431 91.5002 63.2035 95.1759C65.1977 97.1785 65.5787 97.4653 67.4776 98.3953C70.1895 99.7234 72.1281 100.127 75.0187 99.9667C79.2172 99.7338 82.0685 98.5647 84.5783 96.0472C87.1933 93.4244 88.6379 89.8 88.8619 85.2997L88.977 82.9848L90.2654 82.1314C91.9324 81.0271 94.4781 78.6256 95.7164 76.9891C96.9166 75.4032 98.1389 72.9482 98.5846 71.2284C99.1145 69.1838 99.0224 65.9978 98.3704 63.8126C98.0823 62.8471 97.6806 61.7336 97.4779 61.3382L97.1092 60.6192L97.9922 59.7608C99.6871 58.1128 100.406 55.5131 99.7717 53.3291C99.1886 51.3224 96.8307 48.2746 94.4658 46.4704L93.541 45.7649L94.2023 44.7815C95.7792 42.4374 95.6237 40.1025 93.6992 37.2239C92.8133 35.8989 91.213 34.2073 89.5657 32.8547C89.2107 32.5633 88.9204 32.2562 88.9204 32.1724C88.9204 32.0886 89.1823 31.7478 89.5024 31.4149C90.4117 30.4689 91.1036 28.8928 91.2371 27.464C91.3842 25.8881 90.8749 24.0577 89.7706 22.192C88.8172 20.5814 85.9613 17.5507 83.8222 15.8797C82.1908 14.6054 82.1699 14.578 82.1699 13.7019C82.1699 12.5878 81.7381 11.737 80.9193 11.2376C79.9545 10.6489 79.0442 10.7472 77.2797 11.6305C74.7392 12.9021 71.9848 13.3484 63.7052 13.8304C61.685 13.9482 59.8703 14.0928 59.6724 14.152C59.2662 14.2733 59.2441 14.5587 59.9507 10.5504C60.4441 7.75247 60.3794 6.35837 59.6859 4.85184C59.1657 3.7219 57.9119 2.34528 56.7103 1.58457C55.2141 0.637751 53.0739 0.0865844 50.6033 0.012301C49.3463 -0.0254365 47.8576 0.0266016 47.2949 0.128096ZM52.7853 1.79689C54.6147 2.18936 55.8101 2.75522 56.8662 3.72925C57.8178 4.60655 58.6664 5.98178 58.3693 6.16531C58.2756 6.2235 57.3157 6.4249 56.2366 6.61319C53.4899 7.09226 46.5214 7.09226 43.7747 6.61319C42.6956 6.4249 41.7356 6.2235 41.6419 6.16531C41.3439 5.98119 42.1951 4.60516 43.1538 3.72111C43.6625 3.25197 44.4801 2.69047 44.9707 2.47338C47.0437 1.55616 50.3342 1.27134 52.7853 1.79689ZM43.6047 8.20413C46.409 8.68995 53.5028 8.68697 56.4268 8.19837C57.6105 8.00074 58.6181 7.878 58.666 7.92586C58.7138 7.97353 58.5131 9.45284 58.2202 11.2128L57.6875 14.4131L56.5854 14.7337C55.8294 14.9536 55.2383 15.2992 54.7028 15.8351C53.9366 16.6013 53.9241 16.6375 54.0266 17.7686C54.1862 19.5294 55.0511 20.899 56.6178 21.8717C56.9287 22.0647 57.5503 25.4089 57.5503 26.8892C57.5503 27.4828 57.5436 27.4864 56.2612 27.5681C55.1192 27.6409 54.893 27.7269 54.2781 28.323C53.2916 29.2797 52.8579 30.4995 53.1534 31.4864C53.4454 32.4614 54.8489 33.7689 56.2858 34.4045L57.3752 34.8866L57.2517 36.324C57.1836 37.1145 57.0444 38.5844 56.942 39.5906C56.8397 40.5966 56.7562 41.545 56.7562 41.698C56.7562 41.8833 56.4282 42.015 55.7742 42.0924C55.2339 42.1564 54.5142 42.3526 54.1745 42.5284C53.4152 42.9211 52.3882 44.4908 52.3882 45.258C52.3882 46.4265 53.3926 47.616 54.9655 48.3102L55.7634 48.6623V50.086C55.7634 50.869 55.7067 51.9235 55.6374 52.4293L55.5115 53.3489L54.7389 53.2252C54.1413 53.1297 53.8731 53.1863 53.554 53.4751C52.4593 54.4662 52.3453 55.8372 53.1899 57.856L53.6197 58.8835L53.2086 60.6367C52.9824 61.601 52.7021 63.2837 52.5853 64.3761C52.4688 65.4685 52.198 66.7809 51.9837 67.2928C51.4596 68.5443 51.4874 69.0758 52.2309 72.0378L52.8681 74.5749L52.5313 76.3279C52.0151 79.0164 50.4305 83.5428 50.0056 83.5428C49.5807 83.5428 47.9962 79.0164 47.4799 76.3279L47.1432 74.5749L47.7803 72.0378C48.5239 69.0758 48.5517 68.5443 48.0275 67.2928C47.8133 66.7809 47.5425 65.4685 47.4259 64.3761C47.3092 63.2837 47.0288 61.601 46.8027 60.6367L46.3915 58.8835L46.8214 57.856C47.666 55.8372 47.552 54.4662 46.4572 53.4751C46.138 53.1861 45.8701 53.1297 45.2713 53.2254C44.503 53.3484 44.497 53.3442 44.3749 52.6061C44.3074 52.1976 44.2512 51.1429 44.25 50.2626L44.2478 48.6623L45.0458 48.3102C46.6187 47.616 47.6231 46.4265 47.6231 45.258C47.6231 44.4908 46.596 42.9211 45.8368 42.5284C45.4971 42.3526 44.7773 42.1564 44.2371 42.0924C43.6971 42.0285 43.2539 41.8769 43.2527 41.7556C43.2513 41.6342 43.1191 40.1942 42.9589 38.5556C42.7986 36.917 42.6658 35.4189 42.6636 35.2262C42.6609 34.9918 43.0153 34.7187 43.7372 34.3993C45.0968 33.7979 46.54 32.4793 46.8426 31.5625C47.1317 30.6866 46.8531 29.615 46.105 28.7258C45.3881 27.8735 44.633 27.5323 43.4636 27.5323C42.4732 27.5323 42.4609 27.5248 42.4609 26.9122C42.4609 25.4128 43.0802 22.0663 43.3935 21.8717C44.9602 20.899 45.8251 19.5294 45.9847 17.7686C46.0872 16.6375 46.0746 16.6013 45.3085 15.8351C44.7726 15.2988 44.1821 14.9536 43.4243 14.7331L42.3206 14.4122L41.875 11.6869C41.63 10.1879 41.3824 8.71577 41.3247 8.41526C41.2002 7.76598 41.1194 7.77352 43.6047 8.20413ZM22.1438 13.1197C24.6433 14.3778 27.4043 14.8547 34.9162 15.3262C43.9582 15.8936 45.1858 16.3683 44.0793 18.8707C43.2815 20.6752 40.7659 21.5745 36.5224 21.5726C31.1504 21.57 26.4787 20.2956 22.8804 17.8512C20.233 16.0527 18.7878 13.7037 19.7416 12.7493C20.1985 12.2923 20.6331 12.3594 22.1438 13.1197ZM80.2696 12.7493C81.2234 13.7037 79.7782 16.0527 77.1308 17.8512C73.5326 20.2956 68.8609 21.57 63.4888 21.5726C59.2453 21.5745 56.7298 20.6752 55.932 18.8707C54.8261 16.3701 56.0505 15.8954 65.0794 15.3248C72.6608 14.8457 75.4853 14.3611 77.8093 13.1404C79.2499 12.3837 79.8144 12.2939 80.2696 12.7493ZM18.9915 16.4176C19.222 16.7868 19.0668 17.0198 17.2394 19.0475C14.4836 22.1052 14.069 22.7657 14.069 24.0984C14.069 25.4343 14.5695 26.4552 15.7002 27.4245C18.058 29.4462 23.2618 30.8598 29.0595 31.0536C32.5198 31.1692 34.8164 30.8913 39.2842 29.8166C42.2245 29.1093 43.7779 28.962 44.4573 29.3258C44.9713 29.6009 45.4877 30.6413 45.3406 31.1051C44.8439 32.6708 40.5567 34.2971 34.5191 35.2101C31.3758 35.6854 24.9836 35.6977 22.5072 35.2329C14.8006 33.7872 10.2724 30.6772 10.3032 26.8514C10.3191 24.8549 11.6608 22.435 14.1683 19.8797C15.7195 18.2991 18.3355 16.0392 18.6373 16.0192C18.6931 16.0154 18.8523 16.1948 18.9915 16.4176ZM82.6317 16.9447C84.4292 18.3116 87.5269 21.5342 88.3137 22.8556C90.2993 26.1912 90.1631 28.5037 87.8441 30.8266C85.8593 32.8146 82.2926 34.3346 77.5041 35.2329C75.0277 35.6977 68.6355 35.6854 65.4921 35.2101C59.4546 34.2971 55.1674 32.6708 54.6706 31.1051C54.5235 30.6413 55.0399 29.6009 55.554 29.3258C56.2334 28.962 57.7868 29.1093 60.7271 29.8166C65.3059 30.918 67.4774 31.174 71.1507 31.0455C73.4413 30.9654 75.0009 30.7928 76.7419 30.4272C83.0838 29.0948 85.9423 27.1287 85.9423 24.0984C85.9423 22.7657 85.5277 22.1052 82.7719 19.0475C80.9445 17.0198 80.7892 16.7868 81.0197 16.4176C81.1589 16.1948 81.3027 16.0124 81.3394 16.0124C81.3759 16.0124 81.9575 16.4319 82.6317 16.9447ZM21.4608 18.7941C23.6547 20.4621 27.2395 21.9672 30.7468 22.693C32.5958 23.0755 38.5252 23.2018 40.4052 22.8987L41.4267 22.7339L41.2482 23.5939C41.1501 24.0668 41.003 25.2108 40.9214 26.1362L40.7733 27.8185L38.49 28.3697C33.6181 29.5457 29.6605 29.8035 25.61 29.2084C20.5019 28.4581 16.7974 26.9768 15.9554 25.3481C15.4042 24.2817 15.5646 23.5031 16.6004 22.2145C17.4379 21.1727 20.2507 18.033 20.3688 18.0081C20.3938 18.003 20.8852 18.3565 21.4608 18.7941ZM81.0471 19.519C83.5492 22.1972 84.3539 23.3069 84.3539 24.0795C84.3539 25.0718 83.8897 25.8337 82.8491 26.5501C81.0972 27.7559 78.3019 28.6354 74.4012 29.2084C70.3507 29.8035 66.3931 29.5457 61.5212 28.3697L59.238 27.8185L59.0899 26.1362C59.0083 25.2108 58.8611 24.0668 58.7631 23.5939L58.5846 22.7339L59.6061 22.8987C61.4861 23.2018 67.4154 23.0755 69.2645 22.693C72.7841 21.9646 76.4334 20.4299 78.4968 18.81C79.0428 18.3813 79.5203 18.0234 79.5581 18.0147C79.5956 18.0058 80.2657 18.6829 81.0471 19.519ZM13.3249 33.7455L14.0698 34.1966L12.7636 35.4824C10.6616 37.551 10.2266 38.9108 11.1466 40.5357C12.7918 43.4415 20.2968 45.6135 28.6537 45.6026C32.1356 45.5983 34.5914 45.3027 39.4422 44.3051C43.3943 43.4921 44.5514 43.4752 45.3428 44.2192C46.4695 45.2781 46.0955 46.0732 44 47.0724C40.2138 48.8784 31.4592 50.1587 24.5919 49.9109C16.194 49.6078 9.48082 47.2665 7.14077 43.824C5.83594 41.9047 6.18478 39.8616 8.26275 37.2525C9.20028 36.0755 12.1586 33.3 12.4806 33.2956C12.5352 33.2948 12.9153 33.4972 13.3249 33.7455ZM89.254 34.6859C91.9479 36.9947 93.6855 39.6977 93.6855 41.579C93.6855 42.6605 93.0009 43.8733 91.7219 45.0578C88.6717 47.883 82.7477 49.6465 75.4194 49.9109C65.3774 50.2731 53.2794 47.5207 54.0627 45.0519C54.1282 44.8453 54.4008 44.4707 54.6685 44.2192C55.4599 43.4752 56.617 43.4921 60.569 44.3051C65.4199 45.3027 67.8757 45.5983 71.3576 45.6026C79.7145 45.6135 87.2195 43.4415 88.8646 40.5357C89.7847 38.9108 89.3497 37.551 87.2477 35.4824L85.9415 34.1966L86.6864 33.7455C87.096 33.4972 87.476 33.2942 87.5306 33.2942C87.5852 33.2942 88.3607 33.9205 89.254 34.6859ZM17.7421 35.6449C21.4789 36.8821 25.2673 37.3782 29.5555 37.1925C32.7527 37.0539 36.7456 36.5182 39.2759 35.8882C40.1892 35.6608 40.9734 35.5116 41.0185 35.5569C41.1261 35.6645 41.7071 42.0573 41.6175 42.1471C41.4622 42.3022 35.8514 43.4168 33.7678 43.7064C25.592 44.8423 14.0706 42.7304 12.566 39.8198C12.0156 38.7551 12.1796 38.3552 13.9032 36.5591C14.7949 35.6302 15.6212 34.9112 15.7398 34.9616C15.8583 35.0121 16.7593 35.3195 17.7421 35.6449ZM86.1134 36.5649C87.8314 38.355 87.9954 38.7556 87.4453 39.8198C85.9407 42.7304 74.4193 44.8423 66.2434 43.7064C64.1079 43.4095 58.5474 42.3008 58.3862 42.1395C58.2931 42.0462 58.883 35.6667 58.9952 35.5545C59.039 35.5106 59.8221 35.6608 60.7354 35.8882C63.2657 36.5182 67.2586 37.0539 70.4558 37.1925C74.8365 37.3822 78.6704 36.8668 82.3685 35.5907C83.4059 35.2327 84.3092 34.9267 84.3761 34.9106C84.4431 34.8943 85.2247 35.6387 86.1134 36.5649ZM8.37989 47.2305C8.72437 47.4682 9.0343 47.6826 9.06864 47.7068C9.10299 47.731 8.50239 48.3986 7.73422 49.1903C6.20205 50.7695 5.83097 51.5538 5.98207 52.8945C6.29616 55.6821 10.2915 57.6326 17.9406 58.7329C20.4582 59.095 21.5023 59.1454 24.6912 59.059C29.8859 58.9184 34.4729 58.0665 41.2838 55.9771C45.3122 54.7413 45.7139 54.6805 45.801 55.2938C45.9011 55.9999 45.3136 57.5229 44.3211 59.1305C42.0063 62.8793 41.6491 64.3091 42.7419 65.4506C43.0601 65.7831 43.6409 66.1575 44.0324 66.2826C45.8781 66.8723 46.8289 67.7776 46.8289 68.9451C46.8289 70.3281 44.3267 78.7489 42.7415 82.701C39.0976 91.7854 34.3885 96.9183 28.5558 98.1633C26.7908 98.5401 23.5676 98.4304 21.713 97.9309C16.2417 96.4569 13.0219 91.7403 12.732 84.7752L12.6222 82.1346L11.1119 81.1248C6.48915 78.0339 3.55902 74.1108 2.83016 70.0367C2.3477 67.3396 2.82699 64.3004 4.14672 61.6848C4.47154 61.0411 4.73739 60.423 4.73739 60.3113C4.73739 60.1997 4.12746 59.5043 3.38192 58.7663C2.32566 57.7205 1.96927 57.2161 1.76775 56.481C1.07185 53.9428 2.55657 51.075 6.1272 48.0597C6.9462 47.3681 7.64726 46.8015 7.68499 46.8003C7.72271 46.7993 8.03542 46.9928 8.37989 47.2305ZM93.735 47.931C95.5064 49.3809 97.1886 51.3651 97.8262 52.7569C98.9341 55.1749 98.4996 57.1243 96.4368 58.9917C95.7972 59.5707 95.2739 60.1502 95.2739 60.2793C95.2739 60.4087 95.5409 61.0436 95.8675 61.6905C97.2824 64.4948 97.7311 68.2491 96.9816 71.0125C95.9783 74.7108 93.0931 78.3207 88.8994 81.1248L87.3891 82.1346L87.2719 84.7752C87.1333 87.8965 86.7055 89.6854 85.5299 92.0601C84.1065 94.9353 81.4687 97.0766 78.2983 97.9309C76.45 98.4288 73.2225 98.5397 71.4485 98.1661C64.9054 96.7882 59.6835 90.3254 55.8613 78.8752C54.8342 75.7986 53.1824 69.6758 53.1824 68.9457C53.1824 67.7776 54.1328 66.8723 55.9789 66.2826C56.3704 66.1575 56.9511 65.7831 57.2694 65.4506C58.3622 64.3091 58.005 62.8793 55.6902 59.1305C54.6976 57.5229 54.1102 55.9999 54.2102 55.2938C54.2974 54.6803 54.7 54.7415 58.7275 55.9783C62.2765 57.0685 66.5321 58.093 69.8601 58.6588C73.0206 59.1963 80.0143 59.1488 83.3612 58.5675C90.5277 57.3225 94.0826 55.3014 94.0826 52.4722C94.0826 51.3653 93.6565 50.5965 92.2115 49.0959C91.2666 48.1148 90.9599 47.6764 91.1439 47.5703C91.2861 47.4883 91.5809 47.2839 91.7993 47.1161C92.0177 46.9483 92.2312 46.808 92.2737 46.8047C92.316 46.8011 92.9735 47.3082 93.735 47.931ZM13.164 49.4999C15.6063 50.3512 19.144 51.0718 22.4079 51.3826C27.5663 51.8738 35.8863 51.1502 41.0479 49.7615C41.8542 49.5446 42.5342 49.3925 42.5592 49.4235C42.5842 49.4542 42.6632 50.4853 42.7349 51.7141C42.837 53.4669 42.8102 53.9486 42.6104 53.9486C42.4705 53.9486 41.0669 54.3496 39.4915 54.8396C36.3231 55.8253 30.9217 56.9916 27.8849 57.346C25.1148 57.6691 19.5375 57.4709 16.5508 56.9432C10.7452 55.9175 7.51702 54.3015 7.51702 52.4208C7.51702 51.8132 7.7239 51.5056 9.04621 50.1462C10.0832 49.08 10.6743 48.6125 10.8827 48.6929C11.0517 48.7583 12.0784 49.1214 13.164 49.4999ZM90.9708 50.152C92.2878 51.5058 92.4942 51.8134 92.4942 52.4208C92.4942 54.3015 89.2661 55.9175 83.4605 56.9432C80.4728 57.4711 74.896 57.6691 72.1263 57.3456C69.0223 56.9831 64.5078 56.0132 60.678 54.8863L57.1546 53.8493L57.2805 51.6645C57.3498 50.4628 57.427 49.4542 57.4521 49.4235C57.4771 49.3925 58.1571 49.5446 58.9634 49.7615C64.125 51.1502 72.445 51.8738 77.6034 51.3826C81.0138 51.0579 84.4851 50.3313 87.0567 49.4042C88.2456 48.9756 89.2697 48.6161 89.3328 48.6053C89.3958 48.5946 90.1328 49.2906 90.9708 50.152ZM45.5618 62.4371C45.7048 63.1758 45.8249 64.1139 45.8288 64.5214L45.8362 65.2629L44.9139 64.9187C43.4922 64.3882 43.4344 64.1441 44.3112 62.3712C44.7239 61.5366 45.1159 60.9078 45.1818 60.9739C45.2479 61.0399 45.4188 61.6985 45.5618 62.4371ZM55.7597 62.4812C56.5642 64.1449 56.4957 64.3969 55.0973 64.9187L54.1751 65.2629V64.6076C54.1751 63.9739 54.4874 61.9611 54.6969 61.2448C54.8468 60.732 54.9996 60.9096 55.7597 62.4812ZM11.9432 63.0151C9.90273 63.7381 8.92291 66.3303 9.91524 68.3806C10.8456 70.3032 13.9022 72.2054 17.5435 73.1276C25.1764 75.0608 34.1264 72.471 36.64 67.6018C37.0518 66.8044 37.18 66.2667 37.1884 65.3028C37.1985 64.1639 37.1467 63.9991 36.6424 63.5649C35.9798 62.9941 35.3189 62.9619 32.9308 63.3838C28.3704 64.1894 23.2483 64.1208 17.6962 63.1798C14.4172 62.6242 13.1489 62.5879 11.9432 63.0151ZM82.1699 63.1955C76.811 64.1157 71.5924 64.1808 67.0805 63.3838C64.6924 62.9619 64.0314 62.9941 63.3689 63.5649C62.8646 63.9991 62.8128 64.1639 62.8229 65.3028C62.8753 71.2626 73.3529 75.4361 82.4677 73.1276C86.109 72.2054 89.1656 70.3032 90.096 68.3806C90.837 66.8497 90.5253 65.0112 89.3316 63.8722C87.9658 62.5688 86.582 62.4379 82.1699 63.1955ZM18.1825 64.8498C23.5021 65.7092 28.6148 65.7555 32.9308 64.9832C35.4336 64.5354 35.7108 64.5592 35.7084 65.2202C35.705 66.1795 34.8299 67.7142 33.7134 68.7183C29.6659 72.3587 20.9299 73.3075 15.2781 70.7203C12.6961 69.5386 11.0908 68.0441 11.0908 66.8226C11.0908 65.844 11.6148 64.8853 12.3244 64.5653C13.1325 64.2011 14.6114 64.2728 18.1825 64.8498ZM87.6434 64.5675C88.3989 64.8833 88.9204 65.8045 88.9204 66.8226C88.9204 68.0441 87.3152 69.5386 84.7331 70.7203C79.0748 73.3103 70.1484 72.3262 66.2319 68.6805C65.1677 67.6896 64.306 66.1318 64.3029 65.1924L64.3009 64.6184L65.3432 64.7393C65.9164 64.8059 67.279 65.0059 68.371 65.1838C72.1357 65.7974 78.7617 65.5338 83.5597 64.5796C85.3357 64.2265 86.8171 64.2221 87.6434 64.5675ZM39.0825 71.7931C38.2341 72.242 37.2356 73.8281 36.6884 75.5958C36.1009 77.4942 35.6627 80.289 35.8128 81.1788C35.9526 82.0056 36.6704 82.7483 37.3299 82.7483C38.1724 82.7483 40.3282 80.1772 42.0759 77.0877C42.9029 75.6258 42.9754 74.2073 42.2914 72.8712C41.5905 71.5019 40.3933 71.0995 39.0825 71.7931ZM58.6932 71.7279C57.902 72.173 57.2928 73.4946 57.2756 74.8035C57.2638 75.6951 57.3852 76.115 57.9353 77.0877C59.7639 80.3198 61.8391 82.7483 62.7727 82.7483C63.0292 82.7483 63.4555 82.5173 63.7203 82.235C64.1514 81.7754 64.198 81.5631 64.1667 80.1992C64.0978 77.186 62.6025 72.9345 61.2804 71.9927C60.5267 71.4558 59.3845 71.339 58.6932 71.7279ZM40.7943 73.5167C41.4098 74.4564 41.2538 75.3861 40.1828 77.158C39.6444 78.0492 38.7974 79.2917 38.3008 79.9192C37.1951 81.3164 37.1008 81.0847 37.6647 78.358C38.1378 76.0709 38.7565 74.3934 39.4166 73.6086C40.0256 72.8847 40.3655 72.862 40.7943 73.5167ZM60.5946 73.6086C61.2548 74.3934 61.8735 76.0709 62.3466 78.358C62.9105 81.0847 62.8162 81.3164 61.7105 79.9192C60.0812 77.8605 58.8468 75.6268 58.8691 74.7775C58.8911 73.9401 59.3903 73.016 59.8205 73.016C59.9722 73.016 60.3204 73.2827 60.5946 73.6086ZM29.1584 83.0494C28.0118 83.191 25.5721 83.3151 23.7367 83.3255C19.9465 83.3467 18.9921 83.5219 17.9398 84.3897C16.1918 85.831 16.2194 88.1614 18.003 89.7279C19.5228 91.0629 22.7563 92.0873 25.4274 92.08C27.9759 92.0728 30.7432 91.1828 32.2029 89.9009C33.8224 88.4784 34.4901 86.352 33.8467 84.6665C33.1718 82.8986 32.436 82.6448 29.1584 83.0494ZM67.7754 82.8863C66.6238 83.1771 65.7608 84.9106 65.9542 86.5437C66.4215 90.492 71.6036 92.883 77.3212 91.7886C79.1123 91.4458 80.9949 90.6181 82.0083 89.7279C83.7918 88.1614 83.8194 85.831 82.0714 84.3897C81.0245 83.5265 80.0544 83.3445 76.4731 83.3408C73.757 83.3378 71.7322 83.2123 68.8674 82.869C68.4852 82.8234 67.9938 82.8311 67.7754 82.8863ZM32.0254 84.6018C32.2645 84.7768 32.4148 85.1974 32.4688 85.8432C32.7362 89.0441 28.0074 91.2216 22.9922 90.2066C19.1188 89.4229 17.1802 87.3515 18.8017 85.7294C19.4946 85.0362 19.8627 84.9847 25.1875 84.8354C27.4261 84.7726 29.7044 84.6467 30.2504 84.5557C30.7964 84.4647 31.3376 84.3783 31.4534 84.3638C31.569 84.3491 31.8265 84.4562 32.0254 84.6018ZM71.4199 84.7305C72.5508 84.8419 74.899 84.9331 76.6381 84.9331C80.0479 84.9331 80.8571 85.1041 81.449 85.9494C82.2785 87.134 81.5193 88.4979 79.5215 89.4129C75.3032 91.3449 69.5627 90.4549 67.9203 87.6144C67.5624 86.9951 67.479 86.6045 67.5425 85.8432C67.6354 84.7331 68.0704 84.2665 68.8636 84.4268C69.1386 84.4824 70.289 84.6191 71.4199 84.7305Z" fill="black"/>
</svg>
