<svg width="100" height="100" viewBox="0 0 100 100" fill="none" xmlns="http://www.w3.org/2000/svg">
<path fill-rule="evenodd" clip-rule="evenodd" d="M14.6664 0.447069C13.4237 1.00941 12.5363 1.83123 11.9107 2.99926C11.4946 3.77638 11.4215 4.33939 11.3522 7.30171L11.2726 10.7101L9.55966 10.7128C4.602 10.7204 0.96263 13.592 0.120367 18.16C-0.0663304 19.1725 -0.0410652 20.1208 0.232832 22.4066C1.00243 28.8245 1.27342 33.059 1.40086 40.6597C1.53994 48.9477 1.33535 54.1716 0.626574 60.4398C0.417965 62.2837 0.246695 64.8509 0.246025 66.1445C0.244907 68.3514 0.290071 68.5883 0.976939 69.9823C2.53335 73.1415 5.68775 75.0583 9.35619 75.0739L10.6418 75.0793V81.7026C10.6418 86.1327 10.7288 88.6165 10.9048 89.2032C11.2319 90.2946 12.609 91.8873 13.6545 92.3832C14.1305 92.6089 14.4429 92.9181 14.4429 93.1637C14.4429 93.3872 14.7961 94.2758 15.2277 95.1383C16.1815 97.0439 17.5233 98.3351 19.5452 99.2926L21.0388 100H37.4726H53.9064L55.4 99.2926C57.4783 98.3085 58.7733 97.0413 59.779 95.0076L60.6141 93.319L60.7259 79.0027C60.8308 65.5781 60.8639 64.6338 61.2572 63.8424C61.807 62.7365 63.3813 61.368 64.4838 61.0379C65.0888 60.8566 67.9702 60.775 73.7635 60.775H82.1653L82.2339 69.0011L82.3023 77.2272L83.1375 78.9155C84.1432 80.949 85.4384 82.2162 87.5165 83.2003C88.869 83.8409 89.2117 83.9077 91.1458 83.9077C93.1614 83.9077 93.3763 83.8608 94.9709 83.0729C97.0061 82.0676 98.2736 80.7735 99.2583 78.6956L99.9659 77.2026V70.6092V64.0159L99.2583 62.5229C98.2738 60.4454 97.0061 59.1508 94.9716 58.1455L93.2824 57.3107L89.5252 57.2323L85.768 57.1538V52.361C85.768 47.5702 85.7678 47.5678 85.2191 47.0195C84.4931 46.2936 83.4655 46.2936 82.7395 47.0195C82.1908 47.5678 82.1906 47.5695 82.1906 52.372V57.1757L73.0793 57.2432L63.968 57.3107L62.4744 58.0181C60.3961 59.0022 59.1011 60.2695 58.0954 62.3031L57.2603 63.9917L57.1485 78.308C57.0436 91.7326 57.0105 92.6769 56.6172 93.4683C56.0674 94.5742 54.4931 95.9427 53.3906 96.2729C52.1434 96.6463 22.8018 96.6463 21.5546 96.2729C20.4498 95.9421 18.8677 94.5655 18.3581 93.4918C17.9836 92.7028 17.9845 92.6626 18.3856 92.4482C19.2755 91.9729 20.8319 90.1348 21.0989 89.2443C21.2901 88.6067 21.3741 86.3008 21.3741 81.7026V75.0793H28.8745H36.375L36.9237 74.5306C37.6499 73.8049 37.6499 72.7777 36.9237 72.0519L36.375 71.5032H22.3067C7.05769 71.5032 7.21912 71.5151 5.58781 70.2715C5.18937 69.9675 4.58926 69.1594 4.25454 68.4754C3.5717 67.0801 3.5717 66.5765 4.25432 60.328C5.44046 49.4722 5.26315 34.1048 3.81653 22.3634C3.62916 20.8438 3.54241 19.2346 3.62357 18.7874C3.95493 16.9602 5.08093 15.5477 6.8408 14.7513C7.82505 14.3059 8.22572 14.2958 25.1904 14.2911C44.5329 14.2855 44.0555 14.2509 45.6249 15.7745C47.3121 17.4126 47.5793 18.7652 46.9642 22.5559C45.7407 30.0942 45.1643 40.2688 45.5174 48.0912C45.7526 53.3038 46.3695 59.6841 46.9817 63.2336C47.1616 64.2785 47.3094 65.6499 47.3099 66.2813C47.3114 68.707 45.2607 71.0788 42.8888 71.3948C41.3034 71.6061 40.6699 71.9194 40.3712 72.64C40.0027 73.5293 40.4166 74.5009 41.3239 74.8766C42.246 75.2583 44.4812 74.8726 46.1047 74.0516C47.6316 73.2792 49.4022 71.4252 50.1298 69.8366C50.9893 67.9598 51.0356 66.2348 50.3527 61.516C49.3785 54.784 49.0568 50.2742 49.0476 43.23C49.0378 35.4239 49.5444 28.7657 50.6637 21.9971C51.4653 17.1486 49.6714 13.4601 45.5811 11.5467C44.3894 10.9893 43.7586 10.8494 42.032 10.7591L39.9321 10.6491V7.371C39.9321 4.30542 39.8952 4.01866 39.3622 2.94964C37.4019 -0.982686 31.9153 -0.954077 29.7979 2.99926C29.3818 3.77638 29.3087 4.33939 29.2394 7.30171L29.1598 10.7101H25.6022H22.0449V7.4014C22.0449 4.30341 22.0087 4.02 21.475 2.94964C20.2144 0.420696 17.1854 -0.692801 14.6664 0.447069ZM75.0357 0.227365C74.4823 0.335317 73.4059 0.730473 72.6439 1.10507C68.4791 3.15281 66.9042 8.53166 68.6779 14.6496C70.1862 19.8533 73.4457 24.0236 79.5077 28.5064L82.1903 30.4903L82.1906 36.1438V41.7975L82.7395 42.346C83.4655 43.072 84.4931 43.072 85.2191 42.346L85.768 41.7975L85.7725 36.1438L85.7769 30.4903L88.4681 28.4939C94.5403 23.9894 97.773 19.8506 99.2806 14.6496C101.054 8.53143 99.4792 3.15191 95.3146 1.10551C91.7126 -0.664416 87.8188 -0.146334 84.9653 2.48297L83.9793 3.39151L82.9932 2.48297C80.7951 0.457573 77.9652 -0.344582 75.0357 0.227365ZM17.9186 4.10672C18.4473 4.63509 18.4675 4.76628 18.4675 7.68279V10.7101H16.6788H14.89V7.9016C14.89 5.08992 15.0383 4.4022 15.7649 3.84455C16.3528 3.39352 17.3234 3.51153 17.9186 4.10672ZM35.8057 4.10672C36.3345 4.63509 36.3547 4.76628 36.3547 7.68279V10.7101H34.5659H32.7772V7.9016C32.7772 5.08992 32.9255 4.4022 33.6521 3.84455C34.2399 3.39352 35.2105 3.51153 35.8057 4.10672ZM77.9225 3.79806C79.471 4.13019 80.6549 4.99202 81.9808 6.75212C83.0389 8.15684 83.1659 8.25161 83.9893 8.25161C84.8061 8.25161 84.9376 8.15662 85.8422 6.91393C87.5592 4.55507 89.0563 3.68318 91.3577 3.70196C94.3898 3.72654 96.5003 6.21146 96.5003 9.75668C96.5003 11.8091 95.3184 16.0742 94.7496 16.0742C94.6389 16.0742 94.2886 15.87 93.9708 15.6203C91.7439 13.8692 88.7661 13.4693 83.8538 14.2621C79.0312 15.0403 76.3417 14.7862 73.3292 13.2675C71.8676 12.5308 71.7234 12.3954 71.5989 11.6428C70.9344 7.6249 72.5107 4.51752 75.5947 3.767C76.563 3.53142 76.6858 3.53299 77.9225 3.79806ZM75.0357 17.7586C77.1611 18.3428 80.4079 18.4152 83.4203 17.9454C84.896 17.7152 87.0089 17.527 88.1157 17.527C90.0334 17.527 90.1993 17.5673 91.6442 18.3799L93.1605 19.233L92.4978 20.0694C91.0753 21.8648 87.1674 25.2426 84.5807 26.9128L83.9524 27.3185L82.5684 26.3503C79.0299 23.875 75.2541 20.2705 74.1829 18.3453C73.8983 17.8337 73.6971 17.4164 73.7357 17.418C73.7744 17.4193 74.3593 17.5726 75.0357 17.7586ZM14.9786 19.2967C12.4551 20.0864 9.85546 22.9072 8.88441 25.9095C8.74512 26.3402 8.53897 27.426 8.42628 28.322C7.82348 33.1216 9.93842 37.4998 13.8839 39.6202C14.6287 40.0205 15.1523 40.1009 17.0141 40.1009C19.1351 40.1009 19.3225 40.0616 20.6593 39.3372C23.0857 38.0219 24.9592 35.5343 25.7446 32.5843C26.176 30.9648 26.1596 27.6368 25.7129 26.1167C24.8096 23.0427 22.5616 20.3501 20.1437 19.4458C18.711 18.9098 16.4259 18.8439 14.9786 19.2967ZM19.7779 23.2042C21.5778 24.4854 22.4954 26.6455 22.4867 29.581C22.4751 33.5225 20.1455 36.6366 17.2084 36.6366C15.7585 36.6366 15.1664 36.4185 14.118 35.4983C10.6971 32.4958 11.3996 25.1159 15.3084 22.9919C16.4663 22.3628 18.7481 22.4712 19.7779 23.2042ZM16.7255 26.2584C16.0189 26.753 15.4155 28.044 15.1141 29.7051C14.6785 32.1064 15.2131 33.2841 16.7387 33.2841C17.7345 33.2841 18.3702 32.4694 18.5468 30.9672C18.6305 30.2565 18.9064 29.2684 19.1599 28.7715C19.6753 27.7615 19.6008 27.0414 18.9091 26.3498C18.3783 25.8192 17.4106 25.7788 16.7255 26.2584ZM34.2306 30.0046C30.6674 30.9127 27.4471 34.3493 26.4024 38.3583C25.6771 41.1418 26.1176 44.6528 27.4846 46.9844C28.6298 48.9378 30.9804 50.5066 33.2537 50.8343C37.5714 51.4569 42.4801 47.4891 43.829 42.2859C44.488 39.7435 44.1758 36.3568 43.0863 34.2272C41.4201 30.9699 37.5965 29.1468 34.2306 30.0046ZM37.3277 33.5576C39.4923 34.2058 40.7236 36.5208 40.5602 39.6343C40.403 42.629 38.8951 45.3014 36.6035 46.6462C35.0849 47.5374 33.1828 47.511 31.8585 46.5805C29.1282 44.6624 28.8597 39.5019 31.3158 36.1554C32.2223 34.9206 33.3561 34.0145 34.5096 33.603C35.5705 33.2244 36.1827 33.2145 37.3277 33.5576ZM35.0976 37.1838C34.8436 37.3617 34.4559 37.9902 34.2366 38.5807C34.017 39.1709 33.4981 40.0978 33.0838 40.6405C32.1887 41.8121 32.1348 42.4964 32.879 43.24C33.679 44.04 34.5946 43.9637 35.6515 43.0092C36.5465 42.201 37.6327 40.1063 37.8496 38.7711C38.0823 37.3371 36.3258 36.3237 35.0976 37.1838ZM14.0346 48.0333C9.25714 48.7588 6.20156 53.2629 7.37653 57.8476C8.43567 61.9804 11.6978 65.2096 16.0961 66.4795C18.1842 67.0826 21.0727 66.8749 22.973 65.9854C25.5226 64.7921 27.0408 62.8105 27.393 60.2167C28.3155 53.42 21.214 46.9431 14.0346 48.0333ZM18.5238 52.0524C22.0818 53.3956 24.6334 57.2164 23.8569 60.0386C22.7121 64.1985 16.7172 64.4655 12.8444 60.529C10.3351 57.9783 9.94289 54.8712 11.879 52.8784C13.352 51.3622 15.8673 51.0495 18.5238 52.0524ZM14.6664 54.7404C13.6115 55.7949 14.5283 57.9457 16.7203 59.5587C18.2926 60.7158 19.1054 60.8282 19.9309 60.0028C20.7289 59.2052 20.6692 58.2007 19.7793 57.4527C19.0332 56.8255 17.6252 55.4226 17.0356 54.719C16.5522 54.1423 15.2529 54.1542 14.6664 54.7404ZM92.7851 61.0468C94.0133 61.4096 95.8655 63.2611 96.2284 64.4888C96.6014 65.7509 96.6014 75.4675 96.2284 76.7297C95.6607 78.6505 93.2012 80.4434 91.1341 80.4434C89.0671 80.4434 86.6076 78.6505 86.0399 76.7297C85.85 76.0873 85.768 73.5412 85.768 68.2924V60.775H88.8164C90.5564 60.775 92.2599 60.8917 92.7851 61.0468ZM17.7967 81.6827V88.2864L17.2478 88.8349C16.9019 89.1808 16.4435 89.3836 16.008 89.3836C15.5724 89.3836 15.1141 89.1808 14.7682 88.8349L14.2193 88.2864V81.6827V75.0793H16.008H17.7967V81.6827Z" fill="black"/>
</svg>
