<svg width="100" height="100" viewBox="0 0 100 100" fill="none" xmlns="http://www.w3.org/2000/svg">
<path fill-rule="evenodd" clip-rule="evenodd" d="M47.9135 0.199492C46.2362 0.75259 44.9316 1.83963 44.136 3.34707L43.6138 4.33659L43.516 19.3856C43.4197 34.2101 43.4127 34.4345 43.0321 34.4345C42.7906 34.4345 42.5896 34.2516 42.4956 33.9459C42.4128 33.6772 41.8175 28.1939 41.1725 21.7609C40.2447 12.5076 39.9217 9.8879 39.6254 9.21832C39.0549 7.9286 37.8164 6.711 36.4526 6.09888C35.3845 5.61946 35.08 5.56982 33.6656 5.64409C32.381 5.71152 31.8781 5.83621 31.0318 6.29667C29.1908 7.29889 27.8858 9.41903 27.8765 11.4235C27.8741 11.9328 28.6314 19.5005 29.5592 28.2402C30.4872 36.9801 31.1902 44.187 31.1216 44.2556C31.0528 44.3244 28.7784 42.1789 26.0673 39.488C20.2769 33.7407 20.1511 33.6584 17.1315 33.6549C15.522 33.6529 15.1257 33.7227 14.1537 34.1781C12.7216 34.8494 11.1946 36.3764 10.5232 37.8086C10.0679 38.7805 9.99808 39.1769 10 40.7863C10.0038 43.8784 9.93691 43.7825 17.1428 51.047L23.3465 57.3011L27.2749 63.3033L31.2032 69.3055V84.2503V99.1949L31.7182 99.5998C32.2315 100.004 32.2983 100.005 51.6044 99.9987C72.8275 99.9919 71.5001 100.07 71.8624 98.8067C71.9693 98.4336 72.0504 94.6333 72.0504 89.99V81.829H79.7704H87.4903V86.1287V90.4284H81.716H75.9415L75.4619 90.9082C74.8503 91.5195 74.8503 92.2688 75.4619 92.8802L75.9415 93.36H82.7567H89.5719L89.997 92.9077C90.4153 92.4623 90.4219 92.356 90.4219 86.104C90.4219 79.9824 90.4074 79.7374 90.0234 79.3252C89.6249 78.8974 89.6235 78.8974 80.9104 78.8974H72.1958L72.3205 78.1175C72.5465 76.7049 73.2596 75.1396 74.5337 73.2604C76.1363 70.8968 76.8036 69.5656 77.4595 67.4244L77.986 65.7051L78.1011 56.9102L78.2164 48.1154L83.0489 35.4358C87.7291 23.155 87.8812 22.7123 87.8792 21.364C87.8767 19.5495 87.3244 18.3339 85.9344 17.0842C83.192 14.6185 78.663 15.3661 77.006 18.5581C76.8255 18.9057 75.0784 23.4116 73.1236 28.5713L69.5695 37.9525H68.9044C68.312 37.9525 68.2448 37.8991 68.2892 37.4638C68.3165 37.1951 69.0047 31.4785 69.8181 24.7602C70.7685 16.9105 71.2665 12.1247 71.2114 11.3688C70.7738 5.37516 62.5063 3.7575 59.7814 9.13232C59.1476 10.3824 59.1273 10.5104 57.7793 21.7308C56.2451 34.5019 56.2682 34.3368 56.0213 34.3368C55.9127 34.3368 55.8187 28.4274 55.7858 19.5321L55.7311 4.72747L55.2212 3.65254C54.1963 1.49253 52.2304 0.129719 49.9656 0.00932741C49.2479 -0.028979 48.3552 0.053888 47.9135 0.199492ZM50.6858 3.07814C51.5041 3.38674 52.4842 4.4216 52.7026 5.20747C52.821 5.63334 52.8955 11.4936 52.896 20.4194C52.8972 34.4754 52.9095 34.9628 53.282 35.693C54.3761 37.8375 57.6628 37.8565 58.7505 35.7244C59.0348 35.167 59.4365 32.3671 60.5063 23.4802C61.2693 17.1435 61.9455 11.6949 62.0093 11.3725C62.3294 9.75128 63.8884 8.60033 65.5153 8.78365C67.097 8.9619 68.3384 10.3351 68.3361 11.9037C68.3355 12.2564 67.6386 18.2815 66.787 25.2928C65.1543 38.7358 65.1512 38.7938 65.9894 39.8594C67.2084 41.4092 70.8618 41.3549 71.8939 39.7716C72.0555 39.5234 73.8346 34.9671 75.8471 29.6462C77.943 24.1055 79.6881 19.776 79.9316 19.5136C81.7668 17.5349 84.9464 18.7234 84.9488 21.3886C84.9494 21.999 83.7255 25.4542 80.3317 34.4245L75.7138 46.63L74.6123 46.0738C69.4874 43.487 61.601 41.0789 55.0506 40.1009C49.9533 39.3401 47.7616 39.1831 40.8133 39.0821C35.8051 39.0092 33.6926 38.9138 33.6437 38.7586C33.5208 38.3691 30.811 12.3766 30.8118 11.5945C30.8126 10.714 31.4001 9.58125 32.14 9.03362C32.9179 8.45805 34.8193 8.39492 35.6513 8.91714C36.4204 9.39968 37.0043 10.3102 37.1529 11.2583C37.2133 11.6435 37.7935 17.1894 38.4424 23.5823C39.36 32.6216 39.6965 35.3328 39.9567 35.777C41.1901 37.8827 44.4012 37.9151 45.9411 35.8372C46.3456 35.2915 46.3509 35.1258 46.4477 20.0889L46.5454 4.89223L47.0692 4.20564C47.9666 3.02909 49.3838 2.58739 50.6858 3.07814ZM18.9882 36.8621C19.5217 37.1123 24.5164 41.9817 34.7208 52.1999L49.6715 67.1709L41.4635 67.1619L33.2554 67.1531L29.5526 61.4453L25.8495 55.7376L19.5597 49.3858C12.7286 42.4875 12.7092 42.4617 12.8736 40.4799C13.1189 37.5217 16.3364 35.6179 18.9882 36.8621ZM50.335 42.4349C59.3237 43.4555 66.1356 45.2893 72.6856 48.4517L75.1775 49.6547V56.6267C75.1775 60.461 75.1232 63.9944 75.0569 64.4785L74.9363 65.3586L71.3924 61.791C69.4433 59.8289 66.925 57.4954 65.7963 56.6053C62.9671 54.3744 59.2217 51.9265 58.6373 51.9265C58.0614 51.9265 57.1969 52.7327 57.1969 53.2698C57.1969 54.0361 57.484 54.3255 59.7533 55.8459C63.3101 58.2287 65.7971 60.3074 69.3143 63.8371L72.539 67.0732L63.2902 67.124L54.0413 67.1748L44.0881 57.358C38.6138 51.9587 34.1349 47.4482 34.1349 47.3346C34.1349 47.1077 34.7718 47.1288 37.6528 47.4507C41.8132 47.9156 46.5071 49.1774 50.7239 50.9643C51.9726 51.4936 53.154 51.9265 53.3495 51.9265C54.3599 51.9265 55.0381 50.8942 54.6474 49.9506C54.4017 49.3578 53.4558 48.8489 50.3256 47.626C45.7636 45.8436 38.956 44.3123 35.5452 44.3014C35.0382 44.2996 34.5265 44.2337 34.4079 44.1548C34.2895 44.0758 34.1312 43.5387 34.0561 42.9614L33.9197 41.9117L40.7212 42.0137C45.0719 42.079 48.5359 42.2307 50.335 42.4349ZM72.9948 70.2491C72.9589 70.3298 72.4331 71.1432 71.8265 72.0569C70.6354 73.8509 69.9006 75.4744 69.5205 77.1525C69.3883 77.7358 69.2378 78.3673 69.1863 78.5553C69.0979 78.8778 68.0941 78.8974 51.6138 78.8974H34.1349V74.4999V70.1025H53.5975C64.302 70.1025 73.0308 70.1684 72.9948 70.2491ZM69.1188 86.1287V90.4284H51.6268H34.1349V86.1287V81.829H51.6268H69.1188V86.1287ZM69.0774 95.2655L69.1335 97.0734H51.6343H34.1349V95.2157V93.3578L51.578 93.4079L69.0211 93.4577L69.0774 95.2655Z" fill="black"/>
</svg>
