<svg width="100" height="100" viewBox="0 0 100 100" fill="none" xmlns="http://www.w3.org/2000/svg">
<path fill-rule="evenodd" clip-rule="evenodd" d="M45.1819 0.163983C28.0332 1.97315 13.1624 12.0834 5.46025 27.1704C1.60161 34.7286 -0.0108214 41.5025 5.46283e-05 50.1077C0.0102909 58.2983 1.44486 64.5517 4.98341 71.8306C11.1397 84.4943 21.9978 93.7504 35.6044 97.9331C44.3218 100.613 54.7528 100.691 63.6511 98.1427C80.1746 93.4105 92.8825 80.9103 97.984 64.3709C99.4344 59.6685 100.007 55.5551 99.9999 49.8948C99.992 43.6267 99.3836 39.8884 97.4023 33.9355C91.9651 17.5995 77.7367 4.85803 60.7694 1.13129C56.4414 0.180594 49.2525 -0.265576 45.1819 0.163983ZM54.5091 3.15747C63.916 4.10497 73.122 7.96588 80.3045 13.9761C92.0617 23.814 98.3822 39.201 96.9028 54.3833C95.3081 70.75 85.3416 85.1049 70.5822 92.2935C54.6861 100.036 35.7215 98.1782 21.5495 87.4914C8.62518 77.7451 1.47877 61.4854 3.09312 45.4982C4.96827 26.9291 17.464 11.262 35.0721 5.40302C41.358 3.31145 48.1946 2.52155 54.5091 3.15747ZM45.4736 15.4006C37.5723 16.4765 31.0162 19.7316 25.3564 25.3884C22.2844 28.4588 20.5214 30.8911 18.6527 34.6368C12.6308 46.7085 14.3293 61.59 22.9225 72.0435C33.291 84.6566 50.9172 88.4777 65.461 81.2651C74.5167 76.7742 81.2735 68.4895 83.8136 58.7628C85.4825 52.3722 85.2821 45.563 83.2391 39.2463C82.3746 36.5734 80.1539 32.1498 78.5445 29.8944C71.0253 19.3574 58.08 13.6841 45.4736 15.4006ZM56.1 18.6761C61.0944 19.6962 66.3533 22.1087 69.9394 25.0247C73.2679 27.7311 76.6171 31.8454 78.4492 35.4789C82.366 43.2461 83.0139 51.8871 80.2902 60.0346C78.6251 65.0158 76.361 68.6396 72.5121 72.4831C68.6635 76.3268 65.0347 78.5878 60.0469 80.2507C48.4443 84.1189 35.7912 81.0643 27.2524 72.3336C25.1389 70.1726 24.7772 69.7345 23.3543 67.6134C21.2162 64.4254 19.511 60.284 18.6113 56.093C17.9477 53.0024 17.9468 47.0039 18.6096 43.9178C19.8465 38.1583 22.3761 33.0193 25.9358 29.0353C31.3019 23.0298 38.4253 19.2415 46.1614 18.2798C48.6499 17.9703 53.614 18.1682 56.1 18.6761ZM48.8392 34.2891C48.5462 34.7067 48.5072 36.5535 48.5072 50.0013C48.5072 67.1016 48.4228 66.1869 50 66.1869C51.5772 66.1869 51.4928 67.1016 51.4928 50.0013C51.4928 32.9009 51.5772 33.8156 50 33.8156C49.3852 33.8156 49.0853 33.9379 48.8392 34.2891ZM32.9551 38.8491C32.5213 39.3997 32.513 39.609 32.513 50.0013C32.513 60.3935 32.5213 60.6028 32.9551 61.1534C33.4908 61.8336 34.6057 61.9209 35.1457 61.325C35.4645 60.9732 35.4986 59.8743 35.4986 49.9642C35.4986 39.6058 35.4769 38.9733 35.1086 38.6404C34.5006 38.091 33.474 38.1904 32.9551 38.8491ZM64.8543 38.6775C64.5355 39.0293 64.5014 40.1282 64.5014 50.0383C64.5014 60.3967 64.5231 61.0292 64.8914 61.3621C65.4994 61.9115 66.526 61.8121 67.0449 61.1534C67.4786 60.6028 67.487 60.3935 67.487 50.0013C67.487 39.609 67.4786 39.3997 67.0449 38.8491C66.5092 38.1689 65.3943 38.0816 64.8543 38.6775ZM41.683 41.0103C41.5071 41.0664 41.1953 41.2582 40.9899 41.4367C40.6466 41.7355 40.6167 42.4196 40.6167 50.0013C40.6167 57.5798 40.6466 58.2679 40.9899 58.5743C41.7449 59.2484 42.9611 59.0535 43.3526 58.1957C43.6983 57.4377 43.7049 42.5791 43.3596 41.8226C43.1048 41.2638 42.2258 40.8378 41.683 41.0103ZM57.4413 41.0953C57.1357 41.1995 56.776 41.5253 56.6416 41.8194C56.2953 42.5789 56.3004 57.4349 56.6474 58.1957C57.0389 59.0535 58.2551 59.2484 59.0101 58.5743C59.3534 58.2679 59.3832 57.5798 59.3832 50.0013C59.3832 42.4179 59.3536 41.7359 59.0101 41.4414C58.4618 40.9712 58.0643 40.8834 57.4413 41.0953ZM25.0862 44.9569C24.6398 45.4316 24.6226 45.6205 24.6226 50.0311C24.6226 54.5445 24.6298 54.6193 25.116 55.0754C25.7564 55.676 26.5623 55.6643 27.1445 55.0456C27.5909 54.5709 27.6081 54.382 27.6081 49.9714C27.6081 45.458 27.6009 45.3832 27.1147 44.9271C26.4743 44.3265 25.6684 44.3382 25.0862 44.9569ZM72.8555 44.9569C72.4091 45.4316 72.3918 45.6205 72.3918 50.0311C72.3918 54.5445 72.3991 54.6193 72.8853 55.0754C73.5257 55.676 74.3316 55.6643 74.9138 55.0456C75.3602 54.5709 75.3774 54.382 75.3774 49.9714C75.3774 45.458 75.3702 45.3832 74.884 44.9271C74.2435 44.3265 73.4377 44.3382 72.8555 44.9569Z" fill="black"/>
</svg>
