<svg width="100" height="100" viewBox="0 0 100 100" fill="none" xmlns="http://www.w3.org/2000/svg">
<path fill-rule="evenodd" clip-rule="evenodd" d="M27.355 0.377752C18.9845 1.70492 11.9146 6.92542 7.74109 14.8612C1.84264 26.077 0.00667824 32.6095 2.19579e-05 42.4052C-0.00428505 48.6042 0.624734 52.6744 2.13786 56.2428C2.84754 57.9167 4.48695 60.5021 5.76965 61.9712C7.99363 64.5179 11.6887 66.8702 14.9557 67.8191C17.3565 68.5164 23.0715 69.3168 24.5486 69.1626C29.9508 68.5988 33.8523 65.7482 36.1779 60.6661C37.6877 57.3668 37.8739 53.4853 36.7147 49.4788L36.1215 47.4285L37.6629 49.1171C39.3113 50.9229 40.168 52.4663 40.7091 54.6046C40.9597 55.5951 41.1079 59.0368 41.4701 72.2635C41.7175 81.2994 41.981 88.7958 42.0556 88.9223C42.2113 89.1862 42.8808 89.2325 43.0243 88.9896C43.1484 88.779 42.4133 56.7125 42.2594 55.6298C41.8068 52.4444 40.4368 50.0088 37.4778 47.129C36.2987 45.9812 35.2813 44.8685 35.2169 44.6563C35.1434 44.4141 35.3909 43.7125 35.8809 42.7739C37.2697 40.113 37.7267 38.3528 37.7463 35.5892C37.7556 34.2649 37.8204 33.1807 37.8901 33.1801C38.0691 33.1784 41.9334 37.5661 42.9293 38.9017C44.9186 41.5695 46.7461 45.5121 47.5711 48.9152C48.419 52.4128 48.4032 54.8496 47.4638 65.3359C47.0159 70.3362 46.6762 74.7649 46.7091 75.1774C46.7565 75.7724 46.8587 75.9412 47.2025 75.9924C47.5224 76.04 47.662 75.9326 47.7352 75.5824C47.7898 75.3214 48.1996 70.8636 48.6457 65.6763C49.7058 53.3535 49.6512 51.4043 48.1054 46.4034C47.1614 43.3488 45.2498 39.7724 43.2189 37.2612C42.7254 36.651 41.1562 34.9062 39.7318 33.3839L37.1421 30.616L36.6873 28.8732C36.1652 26.8729 36.0839 24.4703 36.4794 22.7223C36.6196 22.102 37.5047 19.8416 38.4461 17.699C40.3459 13.3759 40.603 12.5142 40.5996 10.4833C40.5949 7.70372 39.63 5.32413 37.6464 3.20103C36.1372 1.58559 34.1975 0.512048 32.1838 0.178052C30.5588 -0.091564 30.229 -0.0778269 27.355 0.377752ZM33.8008 3.40975C36.917 5.01638 38.6754 8.54763 38.0693 11.9819C37.9475 12.6722 37.1961 14.6795 36.3132 16.6738C34.4436 20.896 34.1562 21.798 33.9827 23.992L33.8478 25.6952L33.0434 24.5675C31.7063 22.6927 30.4073 21.287 30.012 21.287C29.8067 21.287 29.6387 21.3256 29.6387 21.3727C29.6387 21.4199 29.5878 21.5975 29.5255 21.7672C29.4545 21.961 29.8071 22.5254 30.4721 23.2832C31.6843 24.6641 32.8766 26.4454 33.6225 27.9901C34.2456 29.2804 35.1203 31.955 35.1203 32.5699C35.1203 32.989 35.0759 32.9755 34.3968 32.3509C33.2127 31.2622 31.7944 30.7211 29.7569 30.5809C28.2348 30.4761 27.9083 30.5097 27.6322 30.7988C27.012 31.4482 27.402 31.6782 29.3276 31.7986C31.534 31.9364 32.7713 32.4372 33.9067 33.6521C34.3486 34.1249 34.896 34.9532 35.1233 35.493C35.4939 36.3732 35.5133 36.5922 35.3108 37.6141C34.8106 40.1366 32.9835 43.7394 31.1405 45.8362C30.3615 46.7228 30.3 47.2112 30.9353 47.4666C31.1649 47.5589 31.5463 47.2858 32.2198 46.5465L33.1775 45.4949L33.4083 46.0517C33.7329 46.8345 33.6609 49.0919 33.266 50.5148C32.6742 52.6468 32.0334 53.6943 30.1575 55.5967C28.469 57.309 28.3912 57.4248 28.7483 57.6983C28.9562 57.8574 29.2444 57.9876 29.3887 57.9876C29.8033 57.9876 32.6524 54.9148 33.2646 53.8074C33.5694 53.2563 34.0134 52.242 34.2515 51.5537L34.6842 50.3022L34.9179 51.1207C35.2826 52.3989 35.4042 55.8102 35.1321 57.1355C34.7171 59.1579 33.443 61.5755 31.9905 63.0966C29.7536 65.4393 27.0962 66.5993 23.9691 66.5983C21.9399 66.5977 16.6638 65.753 15.0706 65.1735C9.99404 63.3277 6.0547 59.3888 4.09266 54.1972C2.16606 49.0991 1.90098 39.1971 3.49986 32.0512C4.42665 27.9091 5.59639 24.784 8.19117 19.518C10.4723 14.8882 11.784 12.7795 13.7312 10.6117C18.2594 5.57058 24.7869 2.53283 30.7354 2.6985C32.2936 2.74176 32.6783 2.83115 33.8008 3.40975ZM68.9891 13.9469C65.0883 15.3926 62.7698 18.2673 62.1319 22.4483C61.8322 24.4129 62.1435 26.1334 63.4401 29.6779C66.2516 37.3641 66.8123 39.8385 66.5245 43.292C66.3996 44.7926 66.3305 44.9841 65.5255 46.0638C61.9005 50.9255 59.5681 56.0827 58.5199 61.5547C57.6458 66.1179 57.664 66.9713 58.9863 83.2064C59.6431 91.2693 60.2461 98.1891 60.3267 98.5838C60.4315 99.0974 60.591 99.319 60.8886 99.3635C61.1171 99.3976 61.3479 99.3053 61.4015 99.1585C61.455 99.0115 60.9902 92.7096 60.3684 85.1542C59.7466 77.5988 59.1779 70.4945 59.1043 69.3668C58.7042 63.2325 60.6625 55.8456 64.202 50.1372C64.8166 49.1461 65.345 48.362 65.3763 48.3946C65.4074 48.4274 65.3082 48.9587 65.1555 49.575C64.796 51.0266 64.8019 53.0857 65.1701 54.5656C65.3309 55.2119 65.9611 56.9001 66.5705 58.3171L67.679 60.8937L67.2577 62.2598C65.8904 66.6932 66.4505 70.9251 68.9225 74.8418C71.8102 79.4167 77.0283 81.8869 82.3355 81.1916C88.3818 80.3994 92.1036 78.6324 94.6391 75.3507C96.71 72.6703 97.2262 71.1527 98.5277 63.9183C99.9524 55.999 100.019 55.3737 99.997 50.1964C99.9796 46.202 99.9091 45.1844 99.4716 42.6103C98.5307 37.074 96.9016 32.2111 94.4279 27.5522C91.1488 21.3768 88.4217 18.2708 84.4109 16.1438C81.1728 14.4263 78.2388 13.7437 73.394 13.5807C70.4807 13.4825 70.1725 13.5082 68.9891 13.9469ZM75.3517 16.1633C78.1965 16.4465 79.2339 16.6517 81.0661 17.2932C85.037 18.6836 87.808 21.0996 90.7133 25.7044C95.1011 32.6591 97.4463 40.4232 97.7123 48.8771C97.8474 53.1718 97.6315 55.4825 96.478 62.0882C95.3443 68.5803 95.1326 69.4673 94.2775 71.3146C93.3282 73.3654 91.1643 75.6736 89.3125 76.611C87.2571 77.6515 82.7071 78.6988 80.2693 78.6927C75.6039 78.681 71.2675 75.3626 69.5557 70.4945C68.9345 68.728 68.8845 65.0924 69.4564 63.2672C69.6596 62.6187 69.8671 62.0882 69.9176 62.0882C69.9682 62.0882 70.6465 62.7111 71.4253 63.4722C73.0005 65.0118 73.7072 65.4833 74.164 65.2998C74.7466 65.0657 74.466 64.5623 73.1166 63.4205C71.1724 61.7754 70.5341 60.8589 68.9028 57.3703C67.7373 54.8777 67.4241 54.0047 67.3158 52.9455C67.1852 51.6681 67.4394 50.0262 68.0114 48.4504L68.2144 47.8913L68.965 49.095C70.1436 50.9856 71.2984 52.2467 71.8505 52.2467C72.7176 52.2467 72.5939 51.6999 71.3762 50.1515C70.7305 49.3306 69.8773 48.0362 69.4801 47.2753L68.7581 45.892L68.8981 44.0974C69.0551 42.0852 69.4163 41.1513 70.4619 40.0564C71.29 39.1891 72.006 38.7766 73.6876 38.198C74.683 37.8556 74.9739 37.6629 75.0228 37.3139C75.1178 36.6373 74.6281 36.5768 73.1563 37.0832C71.4453 37.6721 70.8374 37.9944 69.8342 38.8453C69.3838 39.2273 68.9754 39.4696 68.9266 39.3835C68.8779 39.2976 68.7763 38.7477 68.7009 38.1615C68.5782 37.2089 68.6295 36.9664 69.1855 35.874C69.5277 35.2019 70.4576 33.8593 71.2522 32.8908C72.6473 31.1898 72.8427 30.6898 72.2113 30.4361C71.8394 30.2865 69.7642 32.5814 68.5396 34.4968C68.1915 35.0409 67.9932 35.2072 67.9276 35.0094C67.8742 34.8484 67.1016 32.7329 66.2109 30.3084L64.5912 25.9002L64.5877 23.8499C64.5846 22.0471 64.6478 21.6573 65.112 20.6201C66.4534 17.6223 69.6042 15.5716 72.4151 15.8666C72.8458 15.9117 74.1673 16.0454 75.3517 16.1633ZM26.7301 19.0091C26.3372 19.2699 26.6126 19.9131 27.2992 20.3379C28.4318 21.0385 28.9719 20.0536 27.8955 19.2507C27.2663 18.7816 27.1193 18.751 26.7301 19.0091ZM28.3071 48.5822C27.8554 48.8881 27.6782 49.1504 27.7197 49.4524C27.8027 50.0591 28.2722 50.0859 29.0612 49.529C30.3648 48.6091 29.6297 47.6862 28.3071 48.5822ZM73.2983 52.9617C72.9525 53.3978 73.1816 53.8366 73.9574 54.2239C75.2836 54.8861 75.7394 54.0424 74.5232 53.1768C73.669 52.5691 73.6168 52.5598 73.2983 52.9617ZM75.7153 65.884C75.4817 66.5214 76.8527 67.5431 77.4623 67.1859C77.978 66.8837 77.8651 66.4302 77.1626 65.9816C76.4022 65.4961 75.8705 65.4602 75.7153 65.884ZM64.9632 67.482C64.9033 67.6452 64.8818 68.2283 64.9151 68.7778C64.9705 69.69 65.0184 69.7769 65.4652 69.7769C65.9329 69.7769 65.9546 69.7222 65.9546 68.5467C65.9546 67.4264 65.9153 67.3106 65.5133 67.2509C65.2614 67.2134 65.0253 67.3126 64.9632 67.482ZM64.7927 72.5828C64.7383 72.8438 64.5623 79.0084 64.4017 86.2819C64.1453 97.8859 64.1445 99.5431 64.3959 99.8066C64.6472 100.07 64.7201 100.067 64.9938 99.7806C65.2647 99.4966 65.342 97.8969 65.5875 87.4859C65.7428 80.9035 65.845 74.7797 65.8144 73.8775C65.7629 72.3613 65.7261 72.2324 65.3252 72.1727C65.0053 72.1251 64.8657 72.2326 64.7927 72.5828ZM46.5075 80.1058C46.2003 80.3098 45.8853 84.2777 46.1387 84.7518C46.3567 85.16 46.8145 85.1296 47.0304 84.6929C47.2839 84.1801 47.4364 80.662 47.2225 80.2616C47.0208 79.8843 46.8853 79.8548 46.5075 80.1058ZM46.1385 86.5314C45.847 86.9157 45.6715 88.185 45.8656 88.5061C46.1788 89.0244 46.7593 88.6759 46.9539 87.8527C47.2072 86.7818 46.6426 85.8669 46.1385 86.5314Z" fill="black"/>
</svg>
