<?xml version="1.0" encoding="utf-8"?>
<!-- Generator: Adobe Illustrator 23.0.2, SVG Export Plug-In . SVG Version: 6.00 Build 0)  -->
<svg version="1.1" id="Layer_1" xmlns="http://www.w3.org/2000/svg" xmlns:xlink="http://www.w3.org/1999/xlink" x="0px" y="0px"
	 viewBox="0 0 56.69 56.69" style="enable-background:new 0 0 56.69 56.69;" xml:space="preserve">
<path class="st0" d="M51.76,30.01v-1.64c0-4.77-3.88-8.65-8.65-8.65s-8.65,3.88-8.65,8.65v3.72v2.46v8.61
	c0,4.74-3.86,8.61-8.61,8.61s-8.61-3.86-8.61-8.61V31.98c8.26-0.63,14.79-7.54,14.79-15.96V2.46c0-1.36-1.1-2.46-2.46-2.46
	c-1.36,0-2.46,1.1-2.46,2.46v13.56c0,6.11-4.98,11.09-11.09,11.09S4.93,22.13,4.93,16.02V2.46C4.93,1.1,3.83,0,2.46,0S0,1.1,0,2.46
	v13.56c0,7.56,5.27,13.9,12.32,15.58v11.57c0,7.46,6.07,13.54,13.54,13.54S39.4,50.63,39.4,43.17v-8.61v-2.46v-3.72
	c0-2.05,1.67-3.72,3.72-3.72c2.05,0,3.72,1.67,3.72,3.72v1.64c-2.87,1.02-4.93,3.75-4.93,6.96c0,4.08,3.31,7.39,7.39,7.39
	s7.39-3.31,7.39-7.39C56.69,33.76,54.63,31.03,51.76,30.01z M49.3,39.44c-1.36,0-2.46-1.1-2.46-2.46s1.1-2.46,2.46-2.46
	c1.36,0,2.46,1.1,2.46,2.46S50.66,39.44,49.3,39.44z"/>
</svg>
