<?xml version="1.0" encoding="utf-8"?>
<!-- Generator: Adobe Illustrator 23.0.2, SVG Export Plug-In . SVG Version: 6.00 Build 0)  -->
<svg version="1.1" id="Layer_1" xmlns="http://www.w3.org/2000/svg" xmlns:xlink="http://www.w3.org/1999/xlink" x="0px" y="0px"
	 viewBox="0 0 56.69 56.69" style="enable-background:new 0 0 56.69 56.69;" xml:space="preserve">
<path class="st0" d="M38.1,32.04c8.89,0,16.12-7.23,16.12-16.12C54.23,7.14,46.99,0,38.1,0H17.25c-1.36,0-2.46,1.1-2.46,2.46v24.65
	H4.93c-1.36,0-2.46,1.1-2.46,2.46s1.1,2.46,2.46,2.46h9.86v7.39H4.93c-1.36,0-2.46,1.1-2.46,2.46s1.1,2.46,2.46,2.46h9.86v9.86
	c0,1.36,1.1,2.46,2.46,2.46c1.36,0,2.46-1.1,2.46-2.46v-9.86h17.25c1.36,0,2.46-1.1,2.46-2.46s-1.1-2.46-2.46-2.46H19.72v-7.39H38.1
	z M19.72,4.93H38.1c6.17,0,11.2,4.93,11.2,10.99c0,6.17-5.02,11.2-11.2,11.2H19.72V4.93z"/>
</svg>
