<?xml version="1.0" encoding="utf-8"?>
<!-- Generator: Adobe Illustrator 23.0.2, SVG Export Plug-In . SVG Version: 6.00 Build 0)  -->
<svg version="1.1" id="Layer_1" xmlns="http://www.w3.org/2000/svg" xmlns:xlink="http://www.w3.org/1999/xlink" x="0px" y="0px"
	 viewBox="0 0 56.69 56.69" style="enable-background:new 0 0 56.69 56.69;" xml:space="preserve">
<g>
	<path class="st0" d="M54.23,23.42H39.44c-1.36,0-2.46,1.1-2.46,2.46s1.1,2.46,2.46,2.46h12.32v9.86H4.93V18.49
		c0-1.36-1.1-2.46-2.46-2.46S0,17.13,0,18.49v29.58c0,1.36,1.1,2.46,2.46,2.46s2.46-1.1,2.46-2.46v-4.93h46.83v4.93
		c0,1.36,1.1,2.46,2.46,2.46s2.46-1.1,2.46-2.46V25.88C56.69,24.52,55.59,23.42,54.23,23.42z"/>
	<circle class="st0" cx="12.32" cy="11.09" r="4.93"/>
	<path class="st0" d="M13.04,19.22c-0.96,0.97-0.95,2.53,0.01,3.49l9.93,9.86c0.46,0.46,1.09,0.72,1.74,0.72h7.32
		c1.36,0,2.46-1.1,2.46-2.46c0-1.36-1.1-2.46-2.46-2.46h-6.3l-9.21-9.14C15.56,18.24,14,18.25,13.04,19.22z"/>
</g>
</svg>
