<?xml version="1.0" encoding="utf-8"?>
<!-- Generator: Adobe Illustrator 23.0.2, SVG Export Plug-In . SVG Version: 6.00 Build 0)  -->
<svg version="1.1" id="Layer_1" xmlns="http://www.w3.org/2000/svg" xmlns:xlink="http://www.w3.org/1999/xlink" x="0px" y="0px"
	 viewBox="0 0 56.7 56.7" style="enable-background:new 0 0 56.7 56.7;" xml:space="preserve">
<g>
	<path class="st0" d="M17.3,29.6c-1.4,0-2.5,1.1-2.5,2.5v2.5c0,1.4,1.1,2.5,2.5,2.5c1.4,0,2.5-1.1,2.5-2.5V32
		C19.7,30.7,18.6,29.6,17.3,29.6z"/>
	<path class="st0" d="M37,32v2.5c0,1.4,1.1,2.5,2.5,2.5c1.4,0,2.5-1.1,2.5-2.5V32c0-1.4-1.1-2.5-2.5-2.5C38.1,29.6,37,30.7,37,32z"
		/>
	<path class="st0" d="M54.2,51.7h-2.4V14.8c0-1.4-1.1-2.5-2.5-2.5h-8.2V2.5C41.1,1.1,40,0,38.6,0H17.3c-1.4,0-2.5,1.1-2.5,2.5v9.8
		H7.4c-1.4,0-2.5,1.1-2.5,2.5v36.9H2.5c-1.4,0-2.5,1.1-2.5,2.5s1.1,2.5,2.5,2.5h51.7c1.4,0,2.5-1.1,2.5-2.5S55.6,51.7,54.2,51.7z
		 M19.7,5h16.4v17.2H19.7V5z M32,51.7h-7.4V39.4H32V51.7z M46.8,51.7H37c0,0,0,0,0,0V39.4c0-2.7-2.2-5-5-5h-7.4c-2.7,0-5,2.2-5,5
		v12.3c0,0,0,0,0,0H9.9V17.3h4.9v7.4c0,1.4,1.1,2.5,2.5,2.5h21.3c1.4,0,2.5-1.1,2.5-2.5v-7.4h5.7V51.7z"/>
	<path class="st0" d="M32.5,11.5h-2.1V9.5c0-1.1-0.9-2.1-2.1-2.1c-1.1,0-2.1,0.9-2.1,2.1v2.1h-2.1c-1.1,0-2.1,0.9-2.1,2.1
		c0,1.1,0.9,2.1,2.1,2.1h2.1v2.1c0,1.1,0.9,2.1,2.1,2.1c1.1,0,2.1-0.9,2.1-2.1v-2.1h2.1c1.1,0,2.1-0.9,2.1-2.1
		C34.5,12.4,33.6,11.5,32.5,11.5z"/>
</g>
</svg>