<?xml version="1.0" encoding="utf-8"?>
<!-- Generator: Adobe Illustrator 23.0.2, SVG Export Plug-In . SVG Version: 6.00 Build 0)  -->
<svg version="1.1" id="Layer_1" xmlns="http://www.w3.org/2000/svg" xmlns:xlink="http://www.w3.org/1999/xlink" x="0px" y="0px"
	 viewBox="0 0 56.7 56.7" style="enable-background:new 0 0 56.7 56.7;" xml:space="preserve">
<g>
	<circle class="st0" cx="28.3" cy="14.9" r="4.9"/>
	<path class="st0" d="M28.3,0C12.7,0,0,12.7,0,28.3C0,44,12.7,56.7,28.3,56.7S56.7,44,56.7,28.3C56.7,12.7,44,0,28.3,0z M28.3,51.8
		c-12.9,0-23.4-10.5-23.4-23.4S15.4,4.9,28.3,4.9c12.9,0,23.4,10.5,23.4,23.4S41.3,51.8,28.3,51.8z"/>
	<path class="st0" d="M34.5,39.5H32V24.7c0-1.4-1.1-2.5-2.5-2.5h-7.4c-1.4,0-2.5,1.1-2.5,2.5s1.1,2.5,2.5,2.5h4.9v12.3h-4.9
		c-1.4,0-2.5,1.1-2.5,2.5c0,1.4,1.1,2.5,2.5,2.5h12.3c1.4,0,2.5-1.1,2.5-2.5C36.9,40.6,35.8,39.5,34.5,39.5z"/>
</g>
</svg>
