<?xml version="1.0" encoding="utf-8"?>
<!-- Generator: Adobe Illustrator 23.0.2, SVG Export Plug-In . SVG Version: 6.00 Build 0)  -->
<svg version="1.1" id="Layer_1" xmlns="http://www.w3.org/2000/svg" xmlns:xlink="http://www.w3.org/1999/xlink" x="0px" y="0px"
	 viewBox="0 0 56.69 56.69" style="enable-background:new 0 0 56.69 56.69;" xml:space="preserve">
<g>
	<path class="st0" d="M56.01,38.07l-3.56-7.13c-0.42-0.83-1.27-1.36-2.2-1.36s-1.79,0.53-2.2,1.36l-3.56,7.13
		c-1.01,2.01-0.9,4.36,0.28,6.27c1.18,1.91,3.23,3.06,5.48,3.06c2.25,0,4.3-1.14,5.48-3.06C56.91,42.43,57.01,40.08,56.01,38.07z
		 M51.53,41.75c-0.13,0.22-0.53,0.72-1.29,0.72c-0.77,0-1.16-0.5-1.29-0.72c-0.13-0.22-0.41-0.79-0.07-1.48l1.36-2.72l1.36,2.72
		C51.94,40.96,51.67,41.53,51.53,41.75z"/>
	<path class="st0" d="M2.46,22.19h4.93c1.36,0,2.46-1.1,2.46-2.46c0-4.08,3.32-7.39,7.39-7.39H30.8c0.68,0,1.23,0.55,1.23,1.23
		c0,0.68-0.55,1.23-1.23,1.23H19.71c-1.36,0-2.46,1.1-2.46,2.46v2.46c0,4.08-3.32,7.39-7.39,7.39c-1.36,0-2.46,1.1-2.46,2.46
		c0,1.36,1.1,2.46,2.46,2.46c6.79,0,12.32-5.53,12.32-12.32h8.62c3.4,0,6.16-2.76,6.16-6.16S34.2,7.4,30.8,7.4H17.25
		c-5.95,0-10.93,4.24-12.07,9.86H2.46C1.1,17.26,0,18.36,0,19.72C0,21.08,1.1,22.19,2.46,22.19z"/>
	<path class="st0" d="M50.51,27.11c3.4,0,6.17-2.77,6.17-6.17s-2.77-6.17-6.17-6.17H39.49c-1.36,0-2.46,1.1-2.46,2.46
		s1.1,2.46,2.46,2.46h11.02c0.68,0,1.24,0.56,1.24,1.24c0,0.68-0.56,1.24-1.24,1.24H35.72h-6.15h-1.19c-3.37,0-6.14,2.74-6.17,6.12
		c-0.01,0.76,0.13,1.5,0.39,2.2c-1.7,1.09-2.83,2.98-2.85,5.14c-0.01,0.79,0.14,1.55,0.41,2.26c-1.71,1.09-2.86,2.99-2.87,5.15
		c0,0.45,0.04,0.89,0.13,1.31h-5.09c-1.36,0-2.46-1.11-2.46-2.46c0-1.36-1.1-2.46-2.46-2.46H2.46C1.1,39.44,0,40.54,0,41.9
		c0,1.36,1.1,2.46,2.46,2.46h2.89c1.02,2.87,3.76,4.93,6.97,4.93h17.27c0.07,0,0.13-0.01,0.2-0.02h1.01c3.4,0,6.17-2.77,6.17-6.17
		c0-0.78-0.15-1.52-0.41-2.2c1.73-1.09,2.88-3.02,2.88-5.21c0-0.75-0.14-1.47-0.39-2.14c1.71-1.1,2.86-3.01,2.86-5.2
		c0-0.43-0.04-0.84-0.13-1.24H50.51z M28.38,34.53h5.25c0.5,0.16,0.87,0.61,0.87,1.17c0,0.68-0.56,1.24-1.24,1.24h-2.46h-4.88
		c-0.45,0-0.75-0.23-0.88-0.37c-0.14-0.14-0.36-0.44-0.36-0.88c0.01-0.68,0.56-1.23,1.24-1.23h1.55
		C27.77,34.5,28.07,34.53,28.38,34.53z M32.04,43.1c0,0.68-0.56,1.24-1.24,1.24h-7.34c-0.45,0-0.75-0.23-0.88-0.37
		c-0.14-0.14-0.36-0.44-0.36-0.88c0.01-0.68,0.56-1.23,1.24-1.23h2.46h4.88C31.48,41.86,32.04,42.42,32.04,43.1z M36.96,28.36
		c0,0.68-0.56,1.24-1.24,1.24h-1.56c-0.3-0.04-0.6-0.07-0.91-0.07h-5.28c-0.22-0.08-0.39-0.2-0.48-0.29
		c-0.14-0.14-0.36-0.44-0.36-0.88c0.01-0.68,0.56-1.23,1.24-1.23h1.19h6.15C36.41,27.11,36.96,27.67,36.96,28.36z"/>
</g>
</svg>
