<?xml version="1.0" encoding="utf-8"?>
<!-- Generator: Adobe Illustrator 23.0.2, SVG Export Plug-In . SVG Version: 6.00 Build 0)  -->
<svg version="1.1" id="Layer_1" xmlns="http://www.w3.org/2000/svg" xmlns:xlink="http://www.w3.org/1999/xlink" x="0px" y="0px"
	 viewBox="0 0 56.69 56.69" style="enable-background:new 0 0 56.69 56.69;" xml:space="preserve">
<g>
	<path class="st0" d="M28.35,25.31c4.08,0,7.39-3.31,7.39-7.39s-3.31-7.39-7.39-7.39c-4.08,0-7.39,3.31-7.39,7.39
		S24.27,25.31,28.35,25.31z M28.35,16c1.06,0,1.93,0.87,1.93,1.93s-0.87,1.93-1.93,1.93c-1.06,0-1.93-0.87-1.93-1.93
		S27.28,16,28.35,16z"/>
	<path class="st0" d="M34.21,27.75H22.48c-5.6,0-10.16,4.5-10.16,10.04v7.23c0,1.37,1.11,2.48,2.48,2.48s2.48-1.11,2.48-2.48v-7.23
		c0-2.8,2.33-5.08,5.2-5.08h11.73c2.87,0,5.2,2.28,5.2,5.08v7.23c0,1.37,1.11,2.48,2.48,2.48s2.48-1.11,2.48-2.48v-7.23
		C44.38,32.25,39.82,27.75,34.21,27.75z"/>
	<circle class="st0" cx="13.57" cy="15.35" r="6.16"/>
	<path class="st0" d="M16.05,25.31c0-1.37-1.11-2.48-2.48-2.48h-4.8C3.93,22.83,0,26.72,0,31.5v6.13c0,1.37,1.11,2.48,2.48,2.48
		S4.97,39,4.97,37.63V31.5c0-2.04,1.7-3.7,3.8-3.7h4.8C14.94,27.8,16.05,26.69,16.05,25.31z"/>
	<circle class="st0" cx="43.13" cy="15.35" r="6.16"/>
	<path class="st0" d="M47.93,22.83h-4.8c-1.37,0-2.48,1.11-2.48,2.48c0,1.37,1.11,2.48,2.48,2.48h4.8c2.1,0,3.8,1.66,3.8,3.7v6.13
		c0,1.37,1.11,2.48,2.48,2.48s2.48-1.11,2.48-2.48V31.5C56.69,26.72,52.76,22.83,47.93,22.83z"/>
</g>
</svg>
