<?xml version="1.0" encoding="utf-8"?>
<!-- Generator: Adobe Illustrator 23.0.2, SVG Export Plug-In . SVG Version: 6.00 Build 0)  -->
<svg version="1.1" id="Layer_1" xmlns="http://www.w3.org/2000/svg" xmlns:xlink="http://www.w3.org/1999/xlink" x="0px" y="0px"
	 viewBox="0 0 56.69 56.69" style="enable-background:new 0 0 56.69 56.69;" xml:space="preserve">
<g>
	<path class="st0" d="M50.53,0H6.17C4.8,0,3.7,1.11,3.7,2.47v29.58c0,7.31,6.21,13.49,11.42,17.38c5.48,4.1,11.08,6.66,11.7,6.94
		c0.48,0.22,1.01,0.33,1.53,0.33s1.04-0.11,1.53-0.33c0.62-0.28,6.21-2.84,11.71-6.94C46.79,45.53,53,39.36,53,32.04V2.47
		C53,1.11,51.89,0,50.53,0z M48.06,32.04c0,5.55-5.91,10.79-9.43,13.42c-4.33,3.23-8.81,5.47-10.28,6.16
		c-1.47-0.7-5.97-2.94-10.28-6.16c-3.52-2.63-9.43-7.88-9.43-13.42V4.94h39.42V32.04z"/>
	<path class="st0" d="M17.26,31.55h2.95v2.95c0,2.45,1.99,4.44,4.44,4.44h7.39c2.45,0,4.44-1.99,4.44-4.44v-2.95h2.95
		c2.45,0,4.44-1.99,4.44-4.44v-7.39c0-2.45-1.99-4.44-4.44-4.44h-2.95v-2.95c0-2.45-1.99-4.44-4.44-4.44h-7.39
		c-2.45,0-4.44,1.99-4.44,4.44v2.95h-2.95c-2.45,0-4.44,1.99-4.44,4.44v7.39c0,1.18,0.47,2.31,1.3,3.14
		C14.95,31.08,16.08,31.55,17.26,31.55z M17.26,19.71h7.39v-7.39h7.39v7.39h7.39v7.39h-7.39v7.39h-7.39V27.1h-7.39L17.26,19.71z"/>
</g>
</svg>
