<?xml version="1.0" encoding="utf-8"?>
<!-- Generator: Adobe Illustrator 23.0.2, SVG Export Plug-In . SVG Version: 6.00 Build 0)  -->
<svg version="1.1" id="Layer_1" xmlns="http://www.w3.org/2000/svg" xmlns:xlink="http://www.w3.org/1999/xlink" x="0px" y="0px"
	 viewBox="0 0 56.7 56.7" style="enable-background:new 0 0 56.7 56.7;" xml:space="preserve">
<g>
	<g>
		<path class="st0" d="M17.3,56.7H6.1c-3.4,0-6.1-2.8-6.1-6.1V6.1C0,2.8,2.8,0,6.1,0h29.6c3.4,0,6.1,2.8,6.1,6.1v18.6
			c0,1.4-1.1,2.5-2.5,2.5S37,26.1,37,24.7V6.1c0-0.7-0.5-1.2-1.2-1.2H6.1c-0.7,0-1.2,0.5-1.2,1.2v44.4c0,0.7,0.5,1.2,1.2,1.2h11.1
			c1.4,0,2.5,1.1,2.5,2.5S18.6,56.7,17.3,56.7z"/>
	</g>
	<g>
		<path class="st0" d="M29.6,14.8H12.3c-1.4,0-2.5-1.1-2.5-2.5s1.1-2.5,2.5-2.5h17.3c1.4,0,2.5,1.1,2.5,2.5S30.9,14.8,29.6,14.8z"/>
	</g>
	<g>
		<path class="st0" d="M29.6,24.6H12.3c-1.4,0-2.5-1.1-2.5-2.5s1.1-2.5,2.5-2.5h17.3c1.4,0,2.5,1.1,2.5,2.5S30.9,24.6,29.6,24.6z"/>
	</g>
	<g>
		<path class="st0" d="M29.6,34.5H12.3c-1.4,0-2.5-1.1-2.5-2.5s1.1-2.5,2.5-2.5h17.3c1.4,0,2.5,1.1,2.5,2.5S30.9,34.5,29.6,34.5z"/>
	</g>
	<g>
		<path class="st0" d="M32.5,56.7h-5.4c-1.4,0-2.5-1.1-2.5-2.5V49c0-0.7,0.3-1.3,0.7-1.7l20.7-20.7c0,0,0,0,0,0
			c1.2-1.2,2.8-1.8,4.4-1.8c1.7,0,3.2,0.7,4.4,1.9c2.3,2.4,2.3,6.3-0.1,8.7L34.2,56C33.8,56.4,33.1,56.7,32.5,56.7z M29.6,51.8h1.9
			l19.9-19.9c0.5-0.5,0.5-1.3,0-1.8c-0.3-0.3-0.7-0.4-0.9-0.4c-0.2,0-0.6,0-0.9,0.4l-20,20V51.8z"/>
	</g>
</g>
</svg>
