<?xml version="1.0" encoding="utf-8"?>
<!-- Generator: Adobe Illustrator 23.0.2, SVG Export Plug-In . SVG Version: 6.00 Build 0)  -->
<svg version="1.1" id="Layer_1" xmlns="http://www.w3.org/2000/svg" xmlns:xlink="http://www.w3.org/1999/xlink" x="0px" y="0px"
	 viewBox="0 0 56.69 56.69" style="enable-background:new 0 0 56.69 56.69;" xml:space="preserve">
<g>
	<path class="st0" d="M55.27,20.47L29.32,8.15c-0.68-0.32-1.46-0.32-2.14,0L1.41,20.47c-0.03,0.01-0.05,0.04-0.07,0.05
		c-0.15,0.08-0.3,0.18-0.43,0.29c-0.04,0.03-0.08,0.06-0.11,0.09c-0.15,0.14-0.28,0.29-0.39,0.46c-0.02,0.03-0.03,0.06-0.05,0.1
		c-0.09,0.15-0.16,0.31-0.21,0.47c-0.02,0.05-0.03,0.1-0.05,0.15C0.04,22.29,0,22.49,0,22.71v12.32c0,1.37,1.11,2.48,2.48,2.48
		s2.48-1.11,2.48-2.48v-8.38l22.31,10.63c0.34,0.16,0.7,0.24,1.07,0.24s0.73-0.08,1.07-0.24l25.86-12.32
		c0.87-0.41,1.42-1.29,1.42-2.24C56.69,21.75,56.14,20.88,55.27,20.47z M28.35,32.28l-20.1-9.57l20.01-9.56l20.16,9.57L28.35,32.28z
		"/>
	<path class="st0" d="M44.36,32.54c-1.37,0-2.48,1.11-2.48,2.48c0,4.85-3.94,8.79-8.79,8.79h-9.47c-2.35,0-4.56-0.92-6.22-2.57
		c-1.66-1.66-2.57-3.87-2.57-6.22c0-1.37-1.11-2.48-2.48-2.48c-1.37,0-2.48,1.11-2.48,2.48c0,3.67,1.43,7.13,4.03,9.73
		c2.6,2.6,6.05,4.03,9.73,4.03h9.47c7.58,0,13.76-6.17,13.76-13.76C46.84,33.65,45.73,32.54,44.36,32.54z"/>
</g>
</svg>
