<?xml version="1.0" encoding="utf-8"?>
<!-- Generator: Adobe Illustrator 23.0.2, SVG Export Plug-In . SVG Version: 6.00 Build 0)  -->
<svg version="1.1" id="Layer_1" xmlns="http://www.w3.org/2000/svg" xmlns:xlink="http://www.w3.org/1999/xlink" x="0px" y="0px"
	 viewBox="0 0 56.7 56.7" style="enable-background:new 0 0 56.7 56.7;" xml:space="preserve">
<g>
	<path class="st0" d="M44.4,17.3H27.1c-1.4,0-2.5,1.1-2.5,2.5s1.1,2.5,2.5,2.5h17.3c1.4,0,2.5-1.1,2.5-2.5S45.7,17.3,44.4,17.3z"/>
	<path class="st0" d="M44.4,27.1H27.1c-1.4,0-2.5,1.1-2.5,2.5s1.1,2.5,2.5,2.5h17.3c1.4,0,2.5-1.1,2.5-2.5S45.7,27.1,44.4,27.1z"/>
	<path class="st0" d="M44.4,37H27.1c-1.4,0-2.5,1.1-2.5,2.5s1.1,2.5,2.5,2.5h17.3c1.4,0,2.5-1.1,2.5-2.5S45.7,37,44.4,37z"/>
	<path class="st0" d="M50.6,7.4h-8.7V6.1c0-3.4-2.8-6.1-6.1-6.1H6.1C2.8,0,0,2.8,0,6.1v37.1c0,3.4,2.7,6.1,6.1,6.1h8.7v1.2
		c0,3.4,2.7,6.1,6.1,6.1h29.6c3.4,0,6.1-2.8,6.1-6.1v-37C56.7,10.1,53.9,7.4,50.6,7.4z M6.1,44.4c-0.7,0-1.2-0.5-1.2-1.2V6.1
		c0-0.7,0.5-1.2,1.2-1.2h29.6c0.7,0,1.2,0.5,1.2,1.2v1.3h-16c-3.4,0-6.1,2.8-6.1,6.1v30.9H6.1z M51.8,50.6c0,0.7-0.5,1.2-1.2,1.2
		H20.9c-0.7,0-1.2-0.5-1.2-1.2v-37c0-0.7,0.5-1.2,1.2-1.2h29.6c0.7,0,1.2,0.5,1.2,1.2V50.6z"/>
</g>
</svg>
