<svg width="0" height="0" class="hidden">
  <symbol xmlns="http://www.w3.org/2000/svg" viewBox="0 0 240 240" id="ellipsis">
    <path d="M65 135C73.2843 135 80 128.284 80 120C80 111.716 73.2843 105 65 105C56.7157 105 50 111.716 50 120C50 128.284 56.7157 135 65 135Z" ></path>
    <path d="M120 135C128.284 135 135 128.284 135 120C135 111.716 128.284 105 120 105C111.716 105 105 111.716 105 120C105 128.284 111.716 135 120 135Z" ></path>
    <path d="M175 135C183.284 135 190 128.284 190 120C190 111.716 183.284 105 175 105C166.716 105 160 111.716 160 120C160 128.284 166.716 135 175 135Z" ></path>
  </symbol>
</svg>