<svg width="0" height="0" class="hidden">
  <symbol xmlns="http://www.w3.org/2000/svg" viewBox="0 0 24 24" id="right-menu">
    <path d="M3.75 10.5005C3.55109 10.5005 3.36032 10.4214 3.21967 10.2808C3.07902 10.1401 3 9.94937 3 9.75045V3.75195C3 3.55304 3.07902 3.36228 3.21967 3.22162C3.36032 3.08097 3.55109 3.00195 3.75 3.00195H9.75C9.94891 3.00195 10.1397 3.08097 10.2803 3.22162C10.421 3.36228 10.5 3.55304 10.5 3.75195V9.75045C10.5 9.94937 10.421 10.1401 10.2803 10.2808C10.1397 10.4214 9.94891 10.5005 9.75 10.5005H3.75ZM14.25 10.5005C14.0511 10.5005 13.8603 10.4214 13.7197 10.2808C13.579 10.1401 13.5 9.94937 13.5 9.75045V3.75195C13.5 3.55304 13.579 3.36228 13.7197 3.22162C13.8603 3.08097 14.0511 3.00195 14.25 3.00195H20.2485C20.4474 3.00195 20.6382 3.08097 20.7788 3.22162C20.9195 3.36228 20.9985 3.55304 20.9985 3.75195V9.75045C20.9985 9.94937 20.9195 10.1401 20.7788 10.2808C20.6382 10.4214 20.4474 10.5005 20.2485 10.5005H14.25ZM3.75 21.0005C3.55109 21.0005 3.36032 20.9214 3.21967 20.7808C3.07902 20.6401 3 20.4494 3 20.2505V14.2505C3 14.0515 3.07902 13.8608 3.21967 13.7201C3.36032 13.5795 3.55109 13.5005 3.75 13.5005H9.75C9.94891 13.5005 10.1397 13.5795 10.2803 13.7201C10.421 13.8608 10.5 14.0515 10.5 14.2505V20.2505C10.5 20.4494 10.421 20.6401 10.2803 20.7808C10.1397 20.9214 9.94891 21.0005 9.75 21.0005H3.75ZM14.25 21.0005C14.0511 21.0005 13.8603 20.9214 13.7197 20.7808C13.579 20.6401 13.5 20.4494 13.5 20.2505V14.2505C13.5 14.0515 13.579 13.8608 13.7197 13.7201C13.8603 13.5795 14.0511 13.5005 14.25 13.5005H20.2485C20.4474 13.5005 20.6382 13.5795 20.7788 13.7201C20.9195 13.8608 20.9985 14.0515 20.9985 14.2505V20.2505C20.9985 20.4494 20.9195 20.6401 20.7788 20.7808C20.6382 20.9214 20.4474 21.0005 20.2485 21.0005H14.25Z"></path>
  </symbol>
</svg>