<svg width="0" height="0" class="hidden">
  <symbol xmlns="http://www.w3.org/2000/svg" viewBox="0 0 32 32" id="session_edit">
    <path d="M31.707 19.293L28.707 16.293C28.5195 16.1055 28.2652 16.0002 28 16.0002C27.7348 16.0002 27.4805 16.1055 27.293 16.293L18 25.586V30H22.414L31.707 20.707C31.8945 20.5195 31.9998 20.2652 31.9998 20C31.9998 19.7348 31.8945 19.4805 31.707 19.293ZM21.586 28H20V26.414L25 21.414L26.586 23L21.586 28ZM28 21.586L26.414 20L28 18.414L29.586 20L28 21.586ZM16 22C12.636 22 10 19.364 10 16C10 12.636 12.636 10 16 10C19.364 10 22 12.636 22 16C22 19.364 19.364 22 16 22ZM16 12C13.72 12 12 13.72 12 16C12 18.28 13.72 20 16 20C18.28 20 20 18.28 20 16C20 13.72 18.28 12 16 12Z" ></path>
    <path d="M27.547 12L29.28 11L26.944 6.956C26.7128 6.55568 26.3499 6.24783 25.9173 6.08484C25.4847 5.92185 25.0089 5.91378 24.571 6.062L22.137 6.885C21.7175 6.60263 21.2792 6.34937 20.825 6.127L20.322 3.607C20.2312 3.15363 19.986 2.74574 19.6283 2.45275C19.2706 2.15976 18.8224 1.99977 18.36 2H13.64C13.1775 1.99982 12.7292 2.15995 12.3715 2.45314C12.0137 2.74633 11.7687 3.15444 11.678 3.608L11.175 6.127C10.715 6.351 10.269 6.596 9.84801 6.88L7.42801 6.062C6.9901 5.91378 6.51435 5.92185 6.08172 6.08484C5.64908 6.24783 5.28627 6.55568 5.05501 6.956L2.69501 11.044C2.46394 11.4444 2.37871 11.9125 2.45383 12.3686C2.52894 12.8248 2.75976 13.2408 3.10701 13.546L5.03801 15.243C5.02101 15.495 5.00001 15.745 5.00001 16C5.00001 16.258 5.01001 16.513 5.02801 16.766L3.10801 18.454C2.76059 18.759 2.52959 19.175 2.45429 19.6312C2.37899 20.0873 2.46406 20.5555 2.69501 20.956L5.05501 25.044C5.28631 25.4445 5.64929 25.7525 6.08214 25.9155C6.51499 26.0785 6.99096 26.0865 7.42901 25.938L9.86301 25.115C10.281 25.397 10.719 25.65 11.175 25.873L11.678 28.392C11.7687 28.8456 12.0137 29.2537 12.3715 29.5469C12.7292 29.84 13.1775 30.0002 13.64 30H16V28H13.64L12.93 24.45C11.9478 24.0851 11.0361 23.5533 10.235 22.878L6.78801 24.044L4.42801 19.956L7.15301 17.561C6.96664 16.5269 6.96427 15.468 7.14601 14.433L4.42701 12.043L6.78801 7.956L10.215 9.116C11.0218 8.43968 11.9406 7.90969 12.93 7.55L13.64 4H18.361L19.071 7.55C20.0531 7.91495 20.9649 8.44676 21.766 9.122L25.213 7.956L27.547 12Z" ></path>
  </symbol>
</svg>
