<svg width="0" height="0" class="hidden">
  <symbol xmlns="http://www.w3.org/2000/svg" viewBox="0 0 16 16" id="prime_comment">
    <path d="M1.78487 15.9043C1.68214 15.9142 1.57855 15.899 1.48295 15.8602C1.38736 15.8214 1.3026 15.76 1.23593 15.6813C1.16925 15.6026 1.12264 15.509 1.10008 15.4084C1.07752 15.3078 1.07967 15.2032 1.10636 15.1036L2.11543 10.5404C1.7593 9.79743 1.54538 8.99449 1.48472 8.17294C1.41233 7.26965 1.52108 6.36099 1.80461 5.50016C2.0843 4.67575 2.5173 3.91149 3.08085 3.24755C3.64735 2.58215 4.33919 2.03443 5.11706 1.63552C5.92108 1.21735 6.80114 0.965222 7.70475 0.894171C8.60836 0.823119 9.51702 0.934599 10.3765 1.22196C11.6361 1.64758 12.7435 2.43185 13.5625 3.47825C14.3814 4.52464 14.8763 5.78748 14.986 7.11133C15.1213 8.90028 14.5447 10.6705 13.3813 12.0374C12.813 12.6972 12.125 13.2439 11.3536 13.6487C9.7999 14.4472 7.99871 14.6194 6.32177 14.1298L1.96779 15.8387C1.91013 15.8689 1.84857 15.891 1.78487 15.9043ZM7.80261 2.19301C6.72682 2.28228 5.70064 2.68407 4.85055 3.34885C4.00046 4.01363 3.36363 4.91235 3.01854 5.93423C2.56363 7.33746 2.68362 8.86348 3.35225 10.1784C3.41387 10.3142 3.42591 10.4674 3.38629 10.6113L2.61952 14.233L6.06155 12.8863C6.19759 12.8247 6.3509 12.8126 6.49489 12.8522C7.19014 13.0785 7.9233 13.1655 8.65232 13.1082C9.38134 13.0508 10.0919 12.8503 10.7432 12.5181C11.3847 12.1869 11.9545 11.7326 12.4199 11.1811C12.8854 10.6296 13.2374 9.99181 13.4557 9.30424C13.674 8.61667 13.7544 7.89284 13.6923 7.17422C13.6302 6.4556 13.4267 5.75631 13.0936 5.1164C12.5944 4.16574 11.8271 3.38218 10.8867 2.8626C9.94634 2.34303 8.8741 2.11024 7.80261 2.19301Z"></path>
  </symbol>
</svg>