<svg width="0" height="0" class="hidden">
    <symbol id="credit-card" xmlns="http://www.w3.org/2000/svg" viewBox="0 0 24 24">
        <path
                d="M2 9H22M2 9V5.6C2 5.44087 2.06321 5.28826 2.17574 5.17574C2.28826 5.06321 2.44087 5 2.6 5H21.4C21.5591 5 21.7117 5.06321 21.8243 5.17574C21.9368 5.28826 22 5.44087 22 5.6V9H2ZM2 9V18.4C2 18.5591 2.06321 18.7117 2.17574 18.8243C2.28826 18.9368 2.44087 19 2.6 19H21.4C21.5591 19 21.7117 18.9368 21.8243 18.8243C21.9368 18.7117 22 18.5591 22 18.4V9H2Z"
                stroke-width="1.5"
                stroke-linecap="round"
                stroke-linejoin="round"
        ></path>
    </symbol>
</svg>