<svg width="0" height="0" class="hidden">
    <symbol id="map-marker" xmlns="http://www.w3.org/2000/svg" viewBox="0 0 16 16">
        <path
                d="M7.99923 0.888916C6.61487 0.890072 5.28722 1.439 4.30625 2.4158C3.32529 3.39261 2.77072 4.71791 2.76367 6.10225C2.76367 8.1778 3.92812 9.91558 4.78145 11.1822L4.93701 11.4134C5.78602 12.6439 6.69682 13.8306 7.66589 14.9689L8.00367 15.3645L8.34145 14.9689C9.31041 13.8305 10.2212 12.6438 11.0703 11.4134L11.2259 11.1778C12.0748 9.91114 13.2392 8.1778 13.2392 6.10225C13.2322 4.71714 12.677 3.39117 11.6951 2.41424C10.7131 1.43731 9.38435 0.888898 7.99923 0.888916ZM7.99923 8.44447C7.42259 8.44447 6.85889 8.27348 6.37943 7.95311C5.89997 7.63275 5.52628 7.1774 5.30561 6.64465C5.08493 6.1119 5.0272 5.52568 5.13969 4.96012C5.25219 4.39456 5.52987 3.87505 5.93762 3.46731C6.34537 3.05956 6.86487 2.78188 7.43043 2.66938C7.99599 2.55688 8.58221 2.61462 9.11496 2.83529C9.64771 3.05597 10.1031 3.42966 10.4234 3.90912C10.7438 4.38858 10.9148 4.95227 10.9148 5.52892C10.9148 6.30217 10.6076 7.04375 10.0608 7.59053C9.51406 8.1373 8.77248 8.44447 7.99923 8.44447Z"
        ></path>
        <path
                d="M8.00055 7.18665C8.91612 7.18665 9.65833 6.44444 9.65833 5.52887C9.65833 4.61331 8.91612 3.87109 8.00055 3.87109C7.08499 3.87109 6.34277 4.61331 6.34277 5.52887C6.34277 6.44444 7.08499 7.18665 8.00055 7.18665Z"
        ></path>
    </symbol>
</svg>