<svg width="0" height="0" class="hidden">
  <symbol xmlns="http://www.w3.org/2000/svg" viewBox="0 0 16 16" id="map-marker">
    <path fill-rule="evenodd" clip-rule="evenodd" d="M7.62968 15.8878C7.73745 15.9619 7.8672 16.0012 8 16C8.1328 16.0012 8.26254 15.9619 8.37032 15.8878C8.67742 15.724 15 11.6442 15 6.68462C15 4.91175 14.2625 3.21149 12.9497 1.95788C11.637 0.704271 9.85651 0 8 0C6.14348 0 4.36301 0.704271 3.05025 1.95788C1.7375 3.21149 1 4.91175 1 6.68462C1 11.6442 7.35871 15.724 7.62968 15.8878ZM4.01892 2.89555C5.07734 1.89291 6.50916 1.33234 8 1.33692C9.49084 1.33234 10.9227 1.89291 11.9811 2.89555C13.0395 3.8982 13.638 5.26096 13.6452 6.68462C13.6452 10.3159 9.31871 13.6366 8 14.5595C6.68129 13.6366 2.35484 10.3159 2.35484 6.68462C2.36201 5.26096 2.96051 3.8982 4.01892 2.89555ZM11.6998 6.9998C11.6998 9.04326 10.0433 10.6998 7.9998 10.6998C5.95635 10.6998 4.2998 9.04326 4.2998 6.9998C4.2998 4.95635 5.95635 3.2998 7.9998 3.2998C10.0433 3.2998 11.6998 4.95635 11.6998 6.9998ZM10.3002 7.0002C10.3002 8.27045 9.27045 9.3002 8.0002 9.3002C6.72994 9.3002 5.7002 8.27045 5.7002 7.0002C5.7002 5.72994 6.72994 4.7002 8.0002 4.7002C9.27045 4.7002 10.3002 5.72994 10.3002 7.0002Z" ></path>
  </symbol>
</svg>