<svg width="0" height="0" class="hidden">
  <symbol xmlns="http://www.w3.org/2000/svg" viewBox="0 0 16 16" id="phone">
    <path d="M13.2647 8.72229C13.1102 8.72229 12.9486 8.67297 12.7941 8.63775C12.4811 8.56857 12.1735 8.47674 11.8738 8.36296C11.5478 8.24405 11.1896 8.25023 10.868 8.3803C10.5463 8.51037 10.284 8.75515 10.1315 9.06753L9.97694 9.38459C9.29269 9.00284 8.66392 8.5287 8.10824 7.97545C7.55659 7.41815 7.08383 6.78755 6.70319 6.1013L6.99825 5.90402C7.30973 5.75107 7.55379 5.48799 7.68349 5.16541C7.81318 4.84284 7.81934 4.48355 7.70077 4.15669C7.58923 3.85543 7.4977 3.5471 7.42679 3.23371C7.39166 3.0787 7.36356 2.91665 7.34249 2.7546C7.25718 2.25832 6.99799 1.80889 6.6116 1.48725C6.22521 1.16561 5.73701 0.992902 5.23492 1.00022H3.12735C2.82459 0.997372 2.52477 1.05998 2.2483 1.18379C1.97182 1.30759 1.7252 1.48968 1.5252 1.71767C1.32521 1.94566 1.17655 2.21419 1.08933 2.50498C1.00211 2.79577 0.978395 3.10199 1.01979 3.4028C1.39405 6.35451 2.73818 9.09704 4.83986 11.1972C6.94154 13.2973 9.68098 14.6354 12.6255 15H12.8924C13.4105 15.0008 13.9106 14.8101 14.2975 14.4645C14.5197 14.2652 14.6972 14.0208 14.8184 13.7475C14.9395 13.4742 15.0014 13.1783 15 12.8792V10.7655C14.9914 10.2761 14.8137 9.8049 14.4972 9.43226C14.1807 9.05963 13.7451 8.80869 13.2647 8.72229ZM13.616 12.9497C13.6159 13.0497 13.5945 13.1486 13.5533 13.2397C13.5121 13.3308 13.4521 13.4121 13.3772 13.4781C13.2989 13.5465 13.2071 13.5975 13.1079 13.6278C13.0086 13.6582 12.9041 13.6672 12.8011 13.6543C10.1701 13.3159 7.72623 12.1088 5.85505 10.2232C3.98387 8.33767 2.79184 5.88101 2.46698 3.24075C2.4558 3.13754 2.4656 3.03314 2.49579 2.93383C2.52598 2.83453 2.57592 2.7424 2.64261 2.66301C2.70845 2.58785 2.78948 2.52762 2.88033 2.48631C2.97118 2.44501 3.06976 2.42358 3.16951 2.42345H5.27707C5.44044 2.41981 5.59997 2.47339 5.72819 2.57498C5.85642 2.67658 5.94532 2.81982 5.97959 2.98006C6.00769 3.17264 6.04282 3.36288 6.08497 3.55076C6.16613 3.92217 6.27413 4.28716 6.40813 4.64284L5.4246 5.10081C5.34051 5.13951 5.26486 5.19448 5.20201 5.26258C5.13916 5.33067 5.09034 5.41055 5.05836 5.49762C5.02637 5.58469 5.01185 5.67724 5.01563 5.76996C5.0194 5.86267 5.0414 5.95372 5.08037 6.03789C6.09144 8.2099 7.83232 9.95585 9.99802 10.9699C10.1691 11.0403 10.3609 11.0403 10.5319 10.9699C10.6196 10.9384 10.7001 10.8899 10.7688 10.827C10.8375 10.7641 10.8931 10.6881 10.9324 10.6035L11.3679 9.6171C11.7311 9.74735 12.1018 9.85558 12.4779 9.9412C12.6653 9.98347 12.8549 10.0187 13.047 10.0469C13.2067 10.0813 13.3496 10.1704 13.4509 10.299C13.5522 10.4276 13.6056 10.5876 13.602 10.7515L13.616 12.9497Z"></path>
  </symbol>
</svg>