<svg width="0" height="0" class="hidden">
<symbol xmlns="http://www.w3.org/2000/svg" viewBox="0 0 16 16" id="time">
    <path d="M8 15C6.14348 15 4.36301 14.2625 3.05025 12.9497C1.7375 11.637 1 9.85652 1 8C1 6.14348 1.7375 4.36301 3.05025 3.05025C4.36301 1.7375 6.14348 1 8 1C9.85652 1 11.637 1.7375 12.9497 3.05025C14.2625 4.36301 15 6.14348 15 8C15 9.85652 14.2625 11.637 12.9497 12.9497C11.637 14.2625 9.85652 15 8 15ZM8 13.6C9.48521 13.6 10.9096 13.01 11.9598 11.9598C13.01 10.9096 13.6 9.48521 13.6 8C13.6 6.51479 13.01 5.09041 11.9598 4.0402C10.9096 2.99 9.48521 2.4 8 2.4C6.51479 2.4 5.09041 2.99 4.0402 4.0402C2.99 5.09041 2.4 6.51479 2.4 8C2.4 9.48521 2.99 10.9096 4.0402 11.9598C5.09041 13.01 6.51479 13.6 8 13.6ZM7.3 8.287V3.8H8.7V7.713L11.465 10.478L10.478 11.465L7.3 8.287Z" ></path>
  </symbol>
</svg>