<svg width="24" height="24" viewBox="0 0 24 24" fill="none" xmlns="http://www.w3.org/2000/svg">
<path d="M12.0004 5.38535C11.0171 4.49448 9.72998 4.00004 8.39415 4C7.6871 4.00073 6.98718 4.13921 6.33466 4.40749C5.68215 4.67576 5.08992 5.06853 4.59206 5.56319C2.46856 7.66433 2.46946 10.9508 4.59387 13.043L11.2107 19.5625C11.3642 19.8284 11.6602 20 12.0004 20C12.1401 19.9987 12.2775 19.9651 12.4017 19.9019C12.5258 19.8387 12.6332 19.7478 12.7151 19.6363L19.4069 13.043C21.5313 10.9499 21.5313 7.66433 19.4051 5.55963C18.9075 5.06588 18.3158 4.67391 17.6639 4.40625C17.012 4.1386 16.3129 4.00053 15.6066 4C14.2708 4.00022 12.9838 4.49463 12.0004 5.38535V5.38535ZM18.129 6.81694C19.5396 8.21385 19.5405 10.3959 18.1308 11.7857L12.0004 17.8259L5.86995 11.7857C4.4603 10.3959 4.4612 8.21385 5.86815 6.8205C6.55402 6.14827 7.45107 5.77837 8.39415 5.77837C9.33722 5.77837 10.2307 6.14827 10.9111 6.81872L11.3624 7.26331C11.4461 7.34596 11.5455 7.41152 11.655 7.45626C11.7645 7.50099 11.8819 7.52402 12.0004 7.52402C12.1189 7.52402 12.2363 7.50099 12.3458 7.45626C12.4552 7.41152 12.5547 7.34596 12.6384 7.26331L13.0897 6.81872C14.4542 5.47694 16.7663 5.48049 18.129 6.81694V6.81694Z" fill="#A1A5BE"/>
</svg>
