<?xml version="1.0" ?><svg width="512px" height="512px" viewBox="0 0 512 512" id="Layer_1" style="enable-background:new 0 0 512 512;" version="1.1" xml:space="preserve" xmlns="http://www.w3.org/2000/svg" xmlns:xlink="http://www.w3.org/1999/xlink"><style type="text/css">
	.st0{fill:#231F20;}
</style><g><path class="st0" d="M363.8,77.2h-33.2C328.5,62.8,316,51.7,301,51.7h-94c-15,0-27.5,11.1-29.7,25.5h-29.2c-16.5,0-30,13.5-30,30   v323c0,16.5,13.5,30,30,30h215.7c16.5,0,30-13.5,30-30v-323C393.8,90.7,380.4,77.2,363.8,77.2z M197,81.7c0-5.5,4.5-10,10-10h94   c5.5,0,10,4.5,10,10v11c0,5.5-4.5,10-10,10h-94c-5.5,0-10-4.5-10-10V81.7z M373.8,430.3c0,5.5-4.5,10-10,10H148.2   c-5.5,0-10-4.5-10-10v-323c0-5.5,4.5-10,10-10h29.2c2.2,14.4,14.7,25.5,29.7,25.5h94c15,0,27.5-11.1,29.7-25.5h33.2   c5.5,0,10,4.5,10,10V430.3z"/><path class="st0" d="M345,304.7H166c-5.5,0-10,4.5-10,10s4.5,10,10,10h179c5.5,0,10-4.5,10-10S350.5,304.7,345,304.7z"/><path class="st0" d="M345,259.7H166c-5.5,0-10,4.5-10,10s4.5,10,10,10h179c5.5,0,10-4.5,10-10S350.5,259.7,345,259.7z"/><path class="st0" d="M345,214.7H166c-5.5,0-10,4.5-10,10s4.5,10,10,10h179c5.5,0,10-4.5,10-10S350.5,214.7,345,214.7z"/><path class="st0" d="M345,169.7H166c-5.5,0-10,4.5-10,10s4.5,10,10,10h179c5.5,0,10-4.5,10-10S350.5,169.7,345,169.7z"/></g></svg>