<?xml version="1.0" encoding="iso-8859-1"?>
<!-- Generator: Adobe Illustrator 19.0.0, SVG Export Plug-In . SVG Version: 6.00 Build 0)  -->
<svg version="1.1" id="Layer_1" xmlns="http://www.w3.org/2000/svg" xmlns:xlink="http://www.w3.org/1999/xlink" x="0px" y="0px"
	 viewBox="0 0 496 496" style="enable-background:new 0 0 496 496;" xml:space="preserve">
<g>
	<g>
		<g>
			<path d="M256,320c0-48.52-39.48-88-88-88s-88,39.48-88,88c0,48.52,39.48,88,88,88S256,368.52,256,320z M168,392
				c-39.704,0-72-32.296-72-72c0-39.704,32.296-72,72-72s72,32.296,72,72C240,359.704,207.704,392,168,392z"/>
			<path d="M440,384H336v-53.544c2.888,4.12,6.096,8.088,9.776,11.768c17.16,17.16,39.688,25.736,62.224,25.736
				s45.072-8.576,62.224-25.736c34.312-34.312,34.312-90.144,0-124.456s-90.144-34.312-124.456,0
				c-3.68,3.68-6.88,7.648-9.776,11.768v-28.56c0-20.952-12.88-39.392-32-46.816V144h32V0H0v144h32v10.168
				C12.88,161.6,0,180.032,0,200.984V496h280h8h152c30.872,0,56-25.128,56-56S470.872,384,440,384z M458.912,330.912
				c-26.168,26.168-67.592,27.92-95.84,5.32l101.16-101.16C486.824,263.328,485.072,304.752,458.912,330.912z M357.088,229.088
				c14.04-14.04,32.48-21.056,50.912-21.056c15.92,0,31.832,5.256,44.92,15.728L351.76,324.92
				C329.176,296.672,330.928,255.248,357.088,229.088z M16,128V16h16v96h16V16h16v96h16V16h16v96h16V16h16v96h16V16h16v96h16V16h16
				v96h16V16h16v96h16V16h16v96h16V16h16v96h16V16h16v112H16z M41.936,167.76L48,166.24V144h240v22.24l6.064,1.512
				c14.952,3.736,25.416,16.92,25.856,32.24H16.08C16.52,184.68,26.992,171.496,41.936,167.76z M16,216h304v168h-40
				c-25.312,0-46.736,16.896-53.64,40H16V216z M16,480v-40h208c0,15.664,6.48,29.824,16.888,40H16z M352,480h-64h-8
				c-22.056,0-40-17.944-40-40c0-22.056,17.944-40,40-40h72V480z M440,480h-72v-80h72c22.056,0,40,17.944,40,40
				C480,462.056,462.056,480,440,480z"/>
			<path d="M192,296v-32h-48v32h-32v48h32v32h48v-32h32v-48H192z M208,328h-32v32h-16v-32h-32v-16h32v-32h16v32h32V328z"/>
		</g>
	</g>
</g>
<g>
</g>
<g>
</g>
<g>
</g>
<g>
</g>
<g>
</g>
<g>
</g>
<g>
</g>
<g>
</g>
<g>
</g>
<g>
</g>
<g>
</g>
<g>
</g>
<g>
</g>
<g>
</g>
<g>
</g>
</svg>
