<?xml version="1.0" encoding="utf-8"?>

<svg version="1.1" id="Icons" xmlns="http://www.w3.org/2000/svg" xmlns:xlink="http://www.w3.org/1999/xlink" x="0px" y="0px"
	 viewBox="0 0 32 32" style="enable-background:new 0 0 32 32;" xml:space="preserve">
<style type="text/css">
	.st0{fill:none;stroke:#000000;stroke-width:2;stroke-linecap:round;stroke-linejoin:round;stroke-miterlimit:10;}
</style>
<path d="M20.5,3c-0.6,0-1.1,0.1-1.7,0.2c0,0,0,0,0,0c-1.1-1.1-3.1-1.1-4.2,0C13.8,4,13.2,6.3,13,7.5c-0.7,0.4-1.7,0.4-2.3-0.3
	c-0.4-0.4-1-0.4-1.4,0s-0.4,1,0,1.4C10,9.5,11,9.8,12,9.8c0.8,0,1.6-0.3,2.3-0.8c1.2-0.2,3.7-0.8,4.6-1.6c0.6-0.6,0.9-1.5,0.9-2.4
	C20,5,20.2,5,20.5,5c3.6,0,6.5,2.9,6.5,6.5S24.1,18,20.5,18h-3.2l6.3-4.2c0.4-0.2,0.5-0.7,0.4-1.1c-0.1-0.4-0.5-0.7-1-0.7H5
	c-0.4,0-0.8,0.3-1,0.7c-0.1,0.4,0,0.9,0.4,1.1l6.4,4.2C9.2,18.4,8,19.8,8,21.5c0,1.9,1.6,3.5,3.5,3.5H13v3h-2c-0.6,0-1,0.4-1,1
	s0.4,1,1,1h4.5c1.9,0,3.5-1.6,3.5-3.5S17.4,23,15.5,23H15v-3h5.5c4.7,0,8.5-3.8,8.5-8.5S25.2,3,20.5,3z M10,21.5
	c0-0.8,0.7-1.5,1.5-1.5H13v3h-1.5C10.7,23,10,22.3,10,21.5z M17,26.5c0,0.8-0.7,1.5-1.5,1.5H15v-3h0.5C16.3,25,17,25.7,17,26.5z"/>
</svg>
