<?xml version="1.0" encoding="iso-8859-1"?>
<!-- Generator: Adobe Illustrator 19.0.0, SVG Export Plug-In . SVG Version: 6.00 Build 0)  -->
<svg version="1.1" id="Layer_1" xmlns="http://www.w3.org/2000/svg" xmlns:xlink="http://www.w3.org/1999/xlink" x="0px" y="0px"
	 viewBox="0 0 512 512" style="enable-background:new 0 0 512 512;" xml:space="preserve">
<g>
	<g>
		<path d="M323.811,160.988h-28.953v-28.953c0-5.545-4.496-10.039-10.039-10.039h-56.689c-5.544,0-10.039,4.495-10.039,10.039
			v28.953h-28.953c-5.544,0-10.039,4.495-10.039,10.039v56.688c0,5.545,4.496,10.039,10.039,10.039h28.953v28.955
			c0,5.544,4.496,10.039,10.039,10.039h56.689c5.544,0,10.039-4.496,10.039-10.039v-28.955h28.953
			c5.544,0,10.039-4.495,10.039-10.039v-56.688C333.85,165.482,329.355,160.988,323.811,160.988z M313.772,217.676h-28.953
			c-5.544,0-10.039,4.495-10.039,10.039v28.955h-36.611v-28.955c0-5.545-4.496-10.039-10.039-10.039h-28.953v-36.61h28.953
			c5.544,0,10.039-4.495,10.039-10.039v-28.953h36.611v28.953c0,5.545,4.496,10.039,10.039,10.039h28.953V217.676z"/>
	</g>
</g>
<g>
	<g>
		<path d="M56.223,443.937c0.059-25.514,20.2-46.42,45.385-47.703c0.812-0.041,1.63-0.061,2.453-0.061H465.82
			c5.544,0,10.039-4.495,10.039-10.039V10.039C475.859,4.495,471.363,0,465.82,0h-349.7c-44.1,0-79.978,35.896-79.978,80.019
			v363.894c0,0.015,0.002,0.029,0.002,0.045c0,0.029-0.002,0.06-0.002,0.089C36.141,481.517,66.61,512,104.06,512H465.82
			c5.544,0,10.039-4.496,10.039-10.039s-4.496-10.039-10.039-10.039H104.06c-26.379,0-47.841-21.477-47.841-47.874
			c0-0.035,0.003-0.07,0.003-0.105C56.223,443.94,56.223,443.939,56.223,443.937z M56.219,395.864V80.019
			c0.001-33.051,26.872-59.94,59.901-59.94H455.78v356.015H104.06c-1.167,0-2.325,0.029-3.478,0.088
			c-0.976,0.05-1.943,0.131-2.906,0.221c-0.173,0.017-0.348,0.022-0.521,0.04C81.259,378.055,66.969,385.179,56.219,395.864z"/>
	</g>
</g>
<g>
	<g>
		<path d="M387.879,434.008H93.802c-5.544,0-10.039,4.496-10.039,10.039c0,5.544,4.496,10.039,10.039,10.039h294.077
			c5.544,0,10.039-4.496,10.039-10.039C397.918,438.504,393.423,434.008,387.879,434.008z"/>
	</g>
</g>
<g>
	<g>
		<path d="M465.82,434.008h-47.686c-5.544,0-10.039,4.496-10.039,10.039c0,5.544,4.496,10.039,10.039,10.039h47.686
			c5.544,0,10.039-4.496,10.039-10.039C475.859,438.504,471.363,434.008,465.82,434.008z"/>
	</g>
</g>
<g>
	<g>
		<path d="M84.665,117.459c-5.544,0-10.039,4.495-10.039,10.039v195.148c0,5.544,4.496,10.039,10.039,10.039
			s10.039-4.496,10.039-10.039V127.498C94.704,121.953,90.208,117.459,84.665,117.459z"/>
	</g>
</g>
<g>
	<g>
		<path d="M84.665,64.42c-5.544,0-10.039,4.495-10.039,10.039v22.784c0,5.545,4.496,10.039,10.039,10.039
			s10.039-4.495,10.039-10.039V74.459C94.704,68.914,90.208,64.42,84.665,64.42z"/>
	</g>
</g>
<g>
</g>
<g>
</g>
<g>
</g>
<g>
</g>
<g>
</g>
<g>
</g>
<g>
</g>
<g>
</g>
<g>
</g>
<g>
</g>
<g>
</g>
<g>
</g>
<g>
</g>
<g>
</g>
<g>
</g>
</svg>
