<?xml version="1.0" encoding="utf-8"?>
<!-- Uploaded to SVGRepo https://www.svgrepo.com -->
<svg version="1.2" baseProfile="tiny" id="Layer_1" xmlns="http://www.w3.org/2000/svg" xmlns:xlink="http://www.w3.org/1999/xlink"
	 x="0px" y="0px" viewBox="-116.5 200.5 20 20" xml:space="preserve">
<g>
	<path fill="none" d="M-98.1,214.3H-115c-0.4,0-0.8,0.2-0.8,0.4v3.8c0,0.2,0.4,0.4,0.8,0.4h16.9c0.4,0,0.8-0.2,0.8-0.4v-3.8
		C-97.3,214.5-97.7,214.3-98.1,214.3z M-113.3,218.5c-0.5,0-0.8-0.2-0.8-0.4s0.4-0.4,0.8-0.4s0.8,0.2,0.8,0.4
		S-112.9,218.5-113.3,218.5z M-113.3,217.1c-0.5,0-0.8-0.2-0.8-0.4s0.4-0.4,0.8-0.4s0.8,0.2,0.8,0.4S-112.9,217.1-113.3,217.1z
		 M-113.3,215.7c-0.5,0-0.8-0.2-0.8-0.4s0.4-0.4,0.8-0.4s0.8,0.2,0.8,0.4S-112.9,215.7-113.3,215.7z M-109.9,218.5
		c-0.5,0-0.8-0.2-0.8-0.4s0.4-0.4,0.8-0.4s0.8,0.2,0.8,0.4S-109.5,218.5-109.9,218.5z M-109.9,217.1c-0.5,0-0.8-0.2-0.8-0.4
		s0.4-0.4,0.8-0.4s0.8,0.2,0.8,0.4S-109.5,217.1-109.9,217.1z M-109.9,215.7c-0.5,0-0.8-0.2-0.8-0.4s0.4-0.4,0.8-0.4
		s0.8,0.2,0.8,0.4S-109.5,215.7-109.9,215.7z M-106.5,218.5c-0.5,0-0.8-0.2-0.8-0.4s0.4-0.4,0.8-0.4s0.8,0.2,0.8,0.4
		S-106,218.5-106.5,218.5z M-106.5,217.1c-0.5,0-0.8-0.2-0.8-0.4s0.4-0.4,0.8-0.4s0.8,0.2,0.8,0.4S-106,217.1-106.5,217.1z
		 M-106.5,215.7c-0.5,0-0.8-0.2-0.8-0.4s0.4-0.4,0.8-0.4s0.8,0.2,0.8,0.4S-106,215.7-106.5,215.7z M-103.1,218.5
		c-0.5,0-0.8-0.2-0.8-0.4s0.4-0.4,0.8-0.4s0.8,0.2,0.8,0.4S-102.6,218.5-103.1,218.5z M-103.1,217.1c-0.5,0-0.8-0.2-0.8-0.4
		s0.4-0.4,0.8-0.4s0.8,0.2,0.8,0.4S-102.6,217.1-103.1,217.1z M-103.1,215.7c-0.5,0-0.8-0.2-0.8-0.4s0.4-0.4,0.8-0.4
		s0.8,0.2,0.8,0.4S-102.6,215.7-103.1,215.7z M-99.6,218.5c-0.5,0-0.8-0.2-0.8-0.4s0.4-0.4,0.8-0.4s0.8,0.2,0.8,0.4
		S-99.2,218.5-99.6,218.5z M-99.6,217.1c-0.5,0-0.8-0.2-0.8-0.4s0.4-0.4,0.8-0.4s0.8,0.2,0.8,0.4S-99.2,217.1-99.6,217.1z
		 M-99.6,215.7c-0.5,0-0.8-0.2-0.8-0.4s0.4-0.4,0.8-0.4s0.8,0.2,0.8,0.4S-99.2,215.7-99.6,215.7z"/>
	<path fill="none" d="M-106.2,212.2c0.9,0,1.7-0.6,1.7-1.4v-8.2h-3.4v8.2C-107.9,211.6-107.1,212.2-106.2,212.2z M-105,204.3v1.1
		h-1.1v0.6h1.1v1.1h-1.1v0.6h1.1v1.1h-1.1v0.6h1.1v1.4c0,0.5-0.5,0.8-1.1,0.8s-1.1-0.4-1.1-0.8l0-6.5H-105z"/>
	<path d="M-108.4,210.8c0,1.1,1,2,2.3,2s2.3-0.9,2.3-2v-8.2h0.6v-1.1h-5.7v1.1h0.6V210.8z M-107.9,202.6h3.4v8.2
		c0,0.8-0.8,1.4-1.7,1.4s-1.7-0.6-1.7-1.4V202.6z"/>
	<path d="M-106.2,211.7c0.6,0,1.1-0.4,1.1-0.8v-1.4h-1.1v-0.6h1.1v-1.1h-1.1v-0.6h1.1V206h-1.1v-0.6h1.1v-1.1h-2.3l0,6.5
		C-107.3,211.3-106.8,211.7-106.2,211.7z"/>
	<path d="M-98.1,213.9H-115c-0.8,0-1.5,0.4-1.5,0.8v3.8c0,0.5,0.7,0.8,1.5,0.8h16.9c0.8,0,1.5-0.4,1.5-0.8v-3.8
		C-96.6,214.3-97.3,213.9-98.1,213.9z M-97.3,218.5c0,0.2-0.4,0.4-0.8,0.4H-115c-0.4,0-0.8-0.2-0.8-0.4v-3.8c0-0.2,0.4-0.4,0.8-0.4
		h16.9c0.4,0,0.8,0.2,0.8,0.4V218.5z"/>
	<ellipse cx="-113.3" cy="215.2" rx="0.8" ry="0.4"/>
	<ellipse cx="-109.9" cy="215.2" rx="0.8" ry="0.4"/>
	<ellipse cx="-106.5" cy="215.2" rx="0.8" ry="0.4"/>
	<ellipse cx="-103.1" cy="215.2" rx="0.8" ry="0.4"/>
	<ellipse cx="-99.6" cy="215.2" rx="0.8" ry="0.4"/>
	<ellipse cx="-113.3" cy="216.6" rx="0.8" ry="0.4"/>
	<ellipse cx="-109.9" cy="216.6" rx="0.8" ry="0.4"/>
	<ellipse cx="-106.5" cy="216.6" rx="0.8" ry="0.4"/>
	<ellipse cx="-103.1" cy="216.6" rx="0.8" ry="0.4"/>
	<ellipse cx="-99.6" cy="216.6" rx="0.8" ry="0.4"/>
	<ellipse cx="-113.3" cy="218" rx="0.8" ry="0.4"/>
	<ellipse cx="-109.9" cy="218" rx="0.8" ry="0.4"/>
	<ellipse cx="-106.5" cy="218" rx="0.8" ry="0.4"/>
	<ellipse cx="-103.1" cy="218" rx="0.8" ry="0.4"/>
	<ellipse cx="-99.6" cy="218" rx="0.8" ry="0.4"/>
</g>
</svg>
