<?xml version="1.0" encoding="iso-8859-1"?>
<!-- Generator: Adobe Illustrator 17.1.0, SVG Export Plug-In . SVG Version: 6.00 Build 0)  -->
<!DOCTYPE svg PUBLIC "-//W3C//DTD SVG 1.1//EN" "http://www.w3.org/Graphics/SVG/1.1/DTD/svg11.dtd">
<svg version="1.1" id="Capa_1" xmlns="http://www.w3.org/2000/svg" xmlns:xlink="http://www.w3.org/1999/xlink" x="0px" y="0px"
	 viewBox="0 0 221.692 221.692" style="enable-background:new 0 0 221.692 221.692;" xml:space="preserve">
<path d="M179.339,0H42.353C31.521,0,22.708,8.813,22.708,19.645v182.403c0,10.832,8.813,19.645,19.645,19.645h136.987
	c10.833,0,19.645-8.813,19.645-19.645V19.645C198.984,8.813,190.172,0,179.339,0z M185.513,195.125
	c0,7.015-5.707,12.722-12.721,12.722H48.901c-7.015,0-12.721-5.707-12.721-12.722V26.567c0-7.015,5.707-12.721,12.721-12.721
	h123.891c7.015,0,12.721,5.706,12.721,12.721V195.125z M172.792,23.847H48.901c-1.5,0-2.721,1.221-2.721,2.721v168.558
	c0,1.501,1.221,2.722,2.721,2.722h123.891c1.5,0,2.721-1.221,2.721-2.722V26.567C175.513,25.067,174.292,23.847,172.792,23.847z
	 M149.293,120.847c0,2.762-2.239,5-5,5h-17v18.446c0,2.762-2.239,5-5,5h-20c-2.761,0-5-2.238-5-5v-18.446H77.399
	c-2.761,0-5-2.238-5-5v-20c0-2.762,2.239-5,5-5h19.895V77.399c0-2.762,2.239-5,5-5h20c2.761,0,5,2.238,5,5v18.447h17
	c2.761,0,5,2.238,5,5V120.847z M165.521,183.125c0,2.762-2.239,5-5,5s-5-2.238-5-5v-27.667c0-2.762,2.239-5,5-5s5,2.238,5,5V183.125
	z"/>
<g>
</g>
<g>
</g>
<g>
</g>
<g>
</g>
<g>
</g>
<g>
</g>
<g>
</g>
<g>
</g>
<g>
</g>
<g>
</g>
<g>
</g>
<g>
</g>
<g>
</g>
<g>
</g>
<g>
</g>
</svg>
