<?xml version="1.0" encoding="iso-8859-1"?>
<!-- Generator: Adobe Illustrator 18.1.1, SVG Export Plug-In . SVG Version: 6.00 Build 0)  -->
<svg version="1.1" id="Capa_1" xmlns="http://www.w3.org/2000/svg" xmlns:xlink="http://www.w3.org/1999/xlink" x="0px" y="0px"
	 viewBox="0 0 344.445 344.445" style="enable-background:new 0 0 344.445 344.445;" xml:space="preserve">
<path d="M287.579,85.861v32.365c0,16.417-4.595,32.467-13.287,46.415c-1.517,2.433-4.127,3.77-6.797,3.77
	c-1.445,0-2.907-0.391-4.224-1.212c-3.75-2.337-4.895-7.271-2.558-11.021c7.109-11.406,10.866-24.53,10.866-37.952V93.861h-162.33
	c-4.418,0-8-3.582-8-8s3.582-8,8-8h170.33C283.997,77.861,287.579,81.443,287.579,85.861z M98.133,175.204
	c1.713,0,3.439-0.548,4.898-1.679c3.491-2.709,4.125-7.734,1.417-11.225c-4.755-6.131-8.468-12.917-11.035-20.172
	c-1.474-4.163-6.044-6.342-10.21-4.873c-4.166,1.474-6.347,6.045-4.874,10.211c3.138,8.868,7.672,17.158,13.478,24.641
	C93.383,174.141,95.745,175.204,98.133,175.204z M280.86,336.443c0,4.418-3.582,8-8,8h-92.373c-0.013,0-0.026,0.002-0.039,0.002
	s-0.026-0.002-0.039-0.002H88.035c-4.418,0-8-3.582-8-8s3.582-8,8-8h84.414v-78.287h-10.109c-4.418,0-8-3.582-8-8v-28.218h-28.217
	c-4.418,0-8-3.582-8-8v-36.217c0-4.418,3.582-8,8-8h28.217v-28.218c0-4.418,3.582-8,8-8h36.217c4.418,0,8,3.582,8,8v28.218h28.218
	c4.418,0,8,3.582,8,8v36.217c0,4.418-3.582,8-8,8h-28.218v28.218c0,4.418-3.582,8-8,8h-10.108v78.287h84.412
	C277.279,328.443,280.86,332.025,280.86,336.443z M170.339,205.938v28.218h20.217v-28.218c0-4.418,3.582-8,8-8h28.218v-20.217
	h-28.218c-4.418,0-8-3.582-8-8v-28.218h-20.217v28.218c0,4.418-3.582,8-8,8h-28.217v20.217h28.217
	C166.758,197.938,170.339,201.521,170.339,205.938z M119.357,140.636c1.161,0.59,2.399,0.87,3.619,0.87
	c2.916,0,5.726-1.6,7.138-4.377c2.002-3.938,0.433-8.754-3.506-10.757c-21.119-10.735-36.987-25.662-45.888-43.165
	c-7.278-14.312-9.616-30.188-6.413-43.559C77.045,28.216,84.886,16,98.677,16h24.996c4.418,0,8-3.582,8-8s-3.582-8-8-8H98.677
	c-19.029,0-34.702,14.1-39.93,35.921c-4.136,17.261-1.397,36.63,7.71,54.539C76.905,111.004,95.197,128.354,119.357,140.636z
	 M230.578,279.207c-4.098,1.651-6.082,6.312-4.43,10.41c1.256,3.118,4.255,5.012,7.422,5.012c0.996,0,2.008-0.187,2.988-0.582
	c18.539-7.471,29.171-19.325,29.171-32.523c0-13.199-10.633-25.054-29.171-32.524c-4.096-1.654-8.759,0.331-10.41,4.43
	c-1.652,4.098,0.332,8.759,4.43,10.41c11.813,4.761,19.152,11.537,19.152,17.685C249.73,267.67,242.391,274.446,230.578,279.207z"/>
<g>
</g>
<g>
</g>
<g>
</g>
<g>
</g>
<g>
</g>
<g>
</g>
<g>
</g>
<g>
</g>
<g>
</g>
<g>
</g>
<g>
</g>
<g>
</g>
<g>
</g>
<g>
</g>
<g>
</g>
</svg>
