<?xml version="1.0" encoding="iso-8859-1"?>
<!-- Generator: Adobe Illustrator 18.1.1, SVG Export Plug-In . SVG Version: 6.00 Build 0)  -->
<svg version="1.1" id="Capa_1" xmlns="http://www.w3.org/2000/svg" xmlns:xlink="http://www.w3.org/1999/xlink" x="0px" y="0px"
	 viewBox="0 0 370.736 370.736" style="enable-background:new 0 0 370.736 370.736;" xml:space="preserve">
<g>
	<g id="Layer_5_41_">
		<g>
			<path d="M332.76,134.267c0,0-139.805,0-184.264,0c-4.706,0-7.345-5.34-7.345-5.34l-30.179-69.621
				c0.933-1.55,1.771-3.17,2.495-4.863c4.104-9.596,4.225-20.215,0.342-29.9C107.832,9.633,93.592,0,77.532,0
				c-4.98,0-9.87,0.947-14.527,2.814c-19.996,8.018-29.744,30.809-21.728,50.805c4.668,11.644,14.386,20.044,26.064,23.176
				l21.081,52.108c0,0,0.831,5.364-4.352,5.364c-8.361,0-46.091,0-46.091,0c-10.478,0-19,8.523-19,19v25.965
				c0,10.477,8.268,19,18.432,19c2.943,0,6.343,2.996,6.995,6.164l30.671,148.996c2.002,9.727,11.349,17.344,21.276,17.344h178.031
				c9.93,0,19.274-7.619,21.275-17.344l30.672-148.994c0.652-3.17,4.051-6.166,6.994-6.166c10.164,0,18.433-8.523,18.433-19v-25.965
				C351.76,142.791,343.237,134.267,332.76,134.267z M217.822,267.398h-15.368c-0.201,0.005-2.187,0.096-2.187,1.473v16.083
				c0,8.215-6.683,14.898-14.897,14.898s-14.897-6.684-14.897-14.898v-15.87c0-0.462,0-1.691-1.557-1.691l-0.167,0.006h-15.83
				c-8.216,0-14.898-6.682-14.898-14.896c0-8.216,6.683-14.899,14.898-14.899h15.404c0.002,0,0.004,0,0.006,0
				c1.019,0,2.144-0.332,2.144-1.903v-15.65c0-8.215,6.683-14.897,14.897-14.897s14.897,6.683,14.897,14.897v16.067
				c0,1.142,1.225,1.489,1.533,1.489l16.021-0.003c8.215,0,14.898,6.684,14.898,14.899
				C232.721,260.717,226.037,267.398,217.822,267.398z"/>
		</g>
	</g>
</g>
<g>
</g>
<g>
</g>
<g>
</g>
<g>
</g>
<g>
</g>
<g>
</g>
<g>
</g>
<g>
</g>
<g>
</g>
<g>
</g>
<g>
</g>
<g>
</g>
<g>
</g>
<g>
</g>
<g>
</g>
</svg>
