<?xml version="1.0" encoding="iso-8859-1"?>
<!-- Generator: Adobe Illustrator 16.0.0, SVG Export Plug-In . SVG Version: 6.00 Build 0)  -->
<!DOCTYPE svg PUBLIC "-//W3C//DTD SVG 1.1//EN" "http://www.w3.org/Graphics/SVG/1.1/DTD/svg11.dtd">
<svg version="1.1" id="Capa_1" xmlns="http://www.w3.org/2000/svg" xmlns:xlink="http://www.w3.org/1999/xlink" x="0px" y="0px"
	 width="31.68px" height="31.68px" viewBox="0 0 31.68 31.68" style="enable-background:new 0 0 31.68 31.68;" xml:space="preserve"
	>
<g>
	<path d="M19.573,17.2V9.978h1.313v-3.68c0-0.713-0.578-1.29-1.291-1.29h-0.792V4.992v-1.31C18.803,1.644,17.479,0,15.848,0h-0.019
		c-1.632,0-2.957,1.643-2.957,3.682v1.31v0.017h-0.791c-0.713,0-1.29,0.577-1.29,1.29v3.68h1.542v7.229l-1.739,0.751
		c-1.423,0.614-2.344,2.016-2.344,3.564v8.844c0,0,2.845,1.312,7.391,1.312c4.543,0,7.788-1.312,7.788-1.312v-8.583
		c0-1.714-0.999-3.272-2.558-3.987L19.573,17.2z M17.571,16.566h-3.274v-5.933h3.274V16.566z M19.153,28.624h-6.628v-6.665h6.628
		V28.624z"/>
</g>
<g>
</g>
<g>
</g>
<g>
</g>
<g>
</g>
<g>
</g>
<g>
</g>
<g>
</g>
<g>
</g>
<g>
</g>
<g>
</g>
<g>
</g>
<g>
</g>
<g>
</g>
<g>
</g>
<g>
</g>
</svg>
