<?xml version="1.0" encoding="iso-8859-1"?>
<!-- Generator: Adobe Illustrator 19.0.0, SVG Export Plug-In . SVG Version: 6.00 Build 0)  -->
<svg version="1.1" id="Capa_1" xmlns="http://www.w3.org/2000/svg" xmlns:xlink="http://www.w3.org/1999/xlink" x="0px" y="0px"
	 viewBox="0 0 490 490" style="enable-background:new 0 0 490 490;" xml:space="preserve">
<g>
	<g>
		<path d="M355.65,0h-221.4c-10.9,0-19.8,8.9-19.8,19.8v450.4c0,10.9,8.9,19.8,19.8,19.8h221.5c10.9,0,19.8-8.9,19.8-19.8V19.8
			C375.55,8.9,366.55,0,355.65,0z M183.95,437.5c0,10.5-8.5,18.7-18.7,18.7c-10.5,0-18.7-8.5-18.7-18.7v-34.2h37.7v34.2H183.95z
			 M183.95,383.5h-37.7v-34.2c0-10.5,8.5-18.7,18.7-18.7c10.5,0,18.7,8.5,18.7,18.7v34.2H183.95z M183.95,289.1
			c0,10.5-8.5,18.7-18.7,18.7c-10.5,0-18.7-8.5-18.7-18.7v-34.2h37.7v34.2H183.95z M183.95,234.7h-37.7v-34.2
			c0-10.5,8.5-18.7,18.7-18.7c10.5,0,18.7,8.5,18.7,18.7v34.2H183.95z M183.95,140.7c0,10.5-8.5,18.7-18.7,18.7
			c-10.5,0-18.7-8.5-18.7-18.7v-34.2h37.7v34.2H183.95z M183.95,86.3h-37.7V52.1c0-10.5,8.5-18.7,18.7-18.7
			c10.5,0,18.7,8.5,18.7,18.7v34.2H183.95z M263.65,437.5c0,10.5-8.5,18.7-18.7,18.7l0,0c-10.5,0-18.7-8.5-18.7-18.7v-34.2h37.7
			v34.2H263.65z M263.65,383.5h-37.7v-34.2c0-10.5,8.5-18.7,18.7-18.7l0,0c10.5,0,18.7,8.5,18.7,18.7v34.2H263.65z M263.65,289.1
			c0,10.5-8.5,18.7-18.7,18.7l0,0c-10.5,0-18.7-8.5-18.7-18.7v-34.2h37.7v34.2H263.65z M263.65,234.7h-37.7v-34.2
			c0-10.5,8.5-18.7,18.7-18.7l0,0c10.5,0,18.7,8.5,18.7,18.7v34.2H263.65z M263.65,140.7c0,10.5-8.5,18.7-18.7,18.7l0,0
			c-10.5,0-18.7-8.5-18.7-18.7v-34.2h37.7v34.2H263.65z M263.65,86.3h-37.7V52.1c0-10.5,8.5-18.7,18.7-18.7l0,0
			c10.5,0,18.7,8.5,18.7,18.7v34.2H263.65z M343.65,437.5c0,10.5-8.5,18.7-18.7,18.7l0,0c-10.5,0-18.7-8.5-18.7-18.7v-34.2h37.8
			v34.2H343.65z M343.65,383.5h-37.7v-34.2c0-10.5,8.5-18.7,18.7-18.7l0,0c10.5,0,18.7,8.5,18.7,18.7v34.2H343.65z M343.65,289.1
			c0,10.5-8.5,18.7-18.7,18.7l0,0c-10.5,0-18.7-8.5-18.7-18.7v-34.2h37.8v34.2H343.65z M343.65,234.7h-37.7v-34.2
			c0-10.5,8.5-18.7,18.7-18.7l0,0c10.5,0,18.7,8.5,18.7,18.7v34.2H343.65z M343.65,140.7c0,10.5-8.5,18.7-18.7,18.7l0,0
			c-10.5,0-18.7-8.5-18.7-18.7v-34.2h37.8v34.2H343.65z M343.65,86.3h-37.7V52.1c0-10.5,8.5-18.7,18.7-18.7l0,0
			c10.5,0,18.7,8.5,18.7,18.7v34.2H343.65z"/>
	</g>
</g>
<g>
</g>
<g>
</g>
<g>
</g>
<g>
</g>
<g>
</g>
<g>
</g>
<g>
</g>
<g>
</g>
<g>
</g>
<g>
</g>
<g>
</g>
<g>
</g>
<g>
</g>
<g>
</g>
<g>
</g>
</svg>
