<?xml version="1.0" encoding="iso-8859-1"?>
<!-- Generator: Adobe Illustrator 19.0.0, SVG Export Plug-In . SVG Version: 6.00 Build 0)  -->
<svg version="1.1" id="Layer_1" xmlns="http://www.w3.org/2000/svg" xmlns:xlink="http://www.w3.org/1999/xlink" x="0px" y="0px"
	 viewBox="0 0 489.901 489.901" style="enable-background:new 0 0 489.901 489.901;" xml:space="preserve">
<g>
	<g>
		<path d="M382.602,470.2V177.9c0-5.2-2.1-9.4-5.2-13.5l-51-53.7V20.8c0-11.4-9.4-20.8-20.8-20.8h-117.5c-11.4,0-20.8,9.4-20.8,20.8
			v85.5l-55.1,58c-3.1,3.1-5.2,8.3-5.2,13.5v291.3c0,11.4,9.4,20.8,20.8,20.8h237.1C375.302,490,384.702,480.6,382.602,470.2z
			 M207.802,41.6h77v53.1h-77V41.6z M344.102,449.4h-195.6V185.2l46.9-49.9h101.8l46.9,49.9L344.102,449.4L344.102,449.4z"/>
		<path d="M257.802,261.1c0-6.9-5.6-12.5-12.5-12.5l0,0c-6.9,0-12.5,5.6-12.5,12.5v46.8h-46.8c-6.9,0-12.5,5.6-12.5,12.5
			s5.6,12.5,12.5,12.5h47.9v47.9c0,6.9,5.6,12.5,12.5,12.5h1c6.9,0,12.5-5.6,12.5-12.5v-47.9h46.8c6.9,0,12.5-5.6,12.5-12.5
			s-5.6-12.5-12.5-12.5h-48.9V261.1z"/>
	</g>
</g>
<g>
</g>
<g>
</g>
<g>
</g>
<g>
</g>
<g>
</g>
<g>
</g>
<g>
</g>
<g>
</g>
<g>
</g>
<g>
</g>
<g>
</g>
<g>
</g>
<g>
</g>
<g>
</g>
<g>
</g>
</svg>
