<?xml version="1.0" encoding="iso-8859-1"?>
<!-- Generator: Adobe Illustrator 16.0.0, SVG Export Plug-In . SVG Version: 6.00 Build 0)  -->
<!DOCTYPE svg PUBLIC "-//W3C//DTD SVG 1.1//EN" "http://www.w3.org/Graphics/SVG/1.1/DTD/svg11.dtd">
<svg version="1.1" id="Capa_1" xmlns="http://www.w3.org/2000/svg" xmlns:xlink="http://www.w3.org/1999/xlink" x="0px" y="0px"
	 width="103.278px" height="103.278px" viewBox="0 0 103.278 103.278" style="enable-background:new 0 0 103.278 103.278;"
	 xml:space="preserve">
<g>
	<g>
		<path d="M27.557,58.688h8.476v8.48c0,1.555,1.254,2.802,2.802,2.802h14.121c1.547,0,2.802-1.247,2.802-2.802v-8.48h8.482
			c1.545,0,2.802-1.246,2.802-2.802V41.787c0-1.554-1.257-2.802-2.802-2.802h-8.482V30.5c0-1.541-1.255-2.801-2.802-2.801H38.835
			c-1.547,0-2.802,1.261-2.802,2.801v8.484h-8.476c-1.548,0-2.802,1.248-2.802,2.802v14.099
			C24.755,57.441,26.009,58.688,27.557,58.688z M30.358,44.589h8.477c1.548,0,2.802-1.262,2.802-2.803v-8.484h8.517v8.484
			c0,1.541,1.255,2.803,2.803,2.803h8.478v8.492h-8.478c-1.548,0-2.803,1.261-2.803,2.805v8.48h-8.517v-8.48
			c0-1.544-1.253-2.805-2.802-2.805h-8.477V44.589z"/>
		<path d="M100.477,4.328H22.691c-1.546,0-2.802,1.256-2.802,2.802v10.342H2.801C1.253,17.472,0,18.739,0,20.273v55.858
			c0,1.542,1.253,2.802,2.801,2.802h17.848v17.215c0,1.061,0.598,2.035,1.546,2.507c0.397,0.196,0.824,0.295,1.256,0.295
			c0.593,0,1.187-0.173,1.679-0.559l25.96-19.469H88.99c1.537,0,2.802-1.254,2.802-2.802V58.276h8.685
			c1.55,0,2.802-1.251,2.802-2.801V7.125C103.278,5.57,102.026,4.328,100.477,4.328z M86.188,73.319H50.153
			c-0.604,0-1.193,0.191-1.681,0.558l-22.23,16.668V76.121c0-1.533-1.252-2.802-2.802-2.802H5.598V23.07h80.587L86.188,73.319
			L86.188,73.319z M97.675,52.679h-5.883V20.273c0-1.535-1.265-2.802-2.802-2.802H25.493V9.931h72.182V52.679z"/>
	</g>
</g>
<g>
</g>
<g>
</g>
<g>
</g>
<g>
</g>
<g>
</g>
<g>
</g>
<g>
</g>
<g>
</g>
<g>
</g>
<g>
</g>
<g>
</g>
<g>
</g>
<g>
</g>
<g>
</g>
<g>
</g>
</svg>
