<?xml version="1.0" encoding="iso-8859-1"?>
<!-- Generator: Adobe Illustrator 19.0.0, SVG Export Plug-In . SVG Version: 6.00 Build 0)  -->
<svg version="1.1" id="Layer_1" xmlns="http://www.w3.org/2000/svg" xmlns:xlink="http://www.w3.org/1999/xlink" x="0px" y="0px"
	 viewBox="0 0 512 512" style="enable-background:new 0 0 512 512;" xml:space="preserve">
<g>
	<g>
		<g>
			<path d="M473.21,191.229h-60.836l43.019-43.017c15.121-15.123,15.121-39.731,0-54.857L418.646,56.61
				c-15.125-15.121-39.731-15.121-54.856,0l-43.017,43.019V38.791c0-21.388-17.402-38.79-38.79-38.79h-51.966
				c-21.389,0-38.79,17.402-38.79,38.79v60.836l-43.017-43.019c-15.125-15.121-39.733-15.121-54.857,0L56.607,93.355
				c-15.161,15.162-15.159,39.695,0,54.856l43.017,43.017H38.79C17.4,191.227,0,208.629,0,230.017v51.966
				c0,21.388,17.4,38.79,38.79,38.79h60.836L56.609,363.79c-15.161,15.162-15.161,39.695,0,54.857l36.745,36.745
				c15.125,15.123,39.733,15.123,54.857,0l43.017-43.019v60.836c0,21.388,17.4,38.79,38.79,38.79h51.966
				c21.388,0,38.79-17.402,38.79-38.79v-60.836l43.017,43.019c15.125,15.123,39.733,15.119,54.857,0l36.745-36.745
				c15.123-15.125,15.123-39.733,0-54.857l-43.019-43.017h60.836c21.388,0,38.79-17.402,38.79-38.79v-51.966
				C512,208.631,494.6,191.229,473.21,191.229z M486.14,281.985c0,7.13-5.8,12.93-12.93,12.93h-92.052
				c-11.473,0-17.281,13.932-9.144,22.074l65.091,65.091c5.043,5.041,5.043,13.244,0,18.283l-36.745,36.745
				c-5.044,5.041-13.249,5.041-18.285,0l-65.091-65.091c-8.115-8.111-22.074-2.369-22.074,9.144v92.052
				c0,7.13-5.799,12.93-12.93,12.93h-51.966c-7.13,0-12.93-5.799-12.93-12.93v-92.052c0-11.568-14-17.216-22.072-9.144
				l-65.089,65.091c-5.041,5.044-13.244,5.043-18.286,0l-36.743-36.745c-5.053-5.051-5.053-13.232,0-18.283l65.089-65.091
				c8.111-8.113,2.37-22.074-9.142-22.074H38.79c-7.13,0-12.93-5.799-12.93-12.93v-51.966c0-7.13,5.799-12.93,12.93-12.93h92.052
				c11.475,0,17.283-13.932,9.142-22.074l-65.091-65.091c-5.053-5.051-5.053-13.232,0-18.283l36.745-36.747
				c5.043-5.043,13.245-5.041,18.286,0l65.089,65.091c8.144,8.146,22.072,2.322,22.072-9.144V38.791c0-7.13,5.799-12.93,12.93-12.93
				h51.966c7.13,0,12.93,5.799,12.93,12.93v92.052c0,11.478,13.932,17.281,22.074,9.144l65.091-65.091
				c5.039-5.039,13.242-5.043,18.283,0l36.745,36.745c5.041,5.043,5.043,13.245,0,18.285l-65.091,65.091
				c-8.111,8.115-2.369,22.074,9.144,22.074h92.052c7.13,0,12.93,5.799,12.93,12.93V281.985z"/>
			<path d="M324.558,228.839h-33.525c-4.348,0-7.872-3.524-7.872-7.872v-33.525c0-4.348-3.524-7.872-7.872-7.872h-38.578
				c-4.348,0-7.872,3.524-7.872,7.872v33.525c0,4.348-3.526,7.872-7.872,7.872h-33.525c-4.348,0-7.872,3.524-7.872,7.872v38.579
				c0,4.348,3.526,7.872,7.872,7.872h33.525c4.348,0,7.872,3.524,7.872,7.872v33.525c0,4.348,3.524,7.872,7.872,7.872h38.578
				c4.348,0.002,7.872-3.524,7.872-7.872v-33.525c0-4.348,3.524-7.872,7.872-7.872h33.525c4.348,0,7.873-3.524,7.873-7.872v-38.579
				C332.431,232.363,328.907,228.839,324.558,228.839z"/>
		</g>
	</g>
</g>
<g>
</g>
<g>
</g>
<g>
</g>
<g>
</g>
<g>
</g>
<g>
</g>
<g>
</g>
<g>
</g>
<g>
</g>
<g>
</g>
<g>
</g>
<g>
</g>
<g>
</g>
<g>
</g>
<g>
</g>
</svg>
