<?xml version="1.0" encoding="iso-8859-1"?>
<!-- Generator: Adobe Illustrator 19.0.0, SVG Export Plug-In . SVG Version: 6.00 Build 0)  -->
<svg version="1.1" id="Layer_1" xmlns="http://www.w3.org/2000/svg" xmlns:xlink="http://www.w3.org/1999/xlink" x="0px" y="0px"
	 viewBox="0 0 489.58 489.58" style="enable-background:new 0 0 489.58 489.58;" xml:space="preserve">
<g>
	<path d="M480.45,368.922l-61.9-128.1c0.8-1,78.4-95.9-2.6-197.9c-22.5-28.3-57.3-42.7-91.7-42.7s-67.7,14.6-91.7,42.7l-6.2,7.3
		l-6.2-7.3c-24-27.1-57.3-42.7-91.7-42.7s-67.7,15.6-91.7,42.7c-49,55.2-49,145.8,0,201l172.9,197.9c10.9,15.3,27.6,6.4,32.3,1
		l57.3-63.5l30.2,62.5c32.5,62,92.2,48.9,112.5,39.6C461.85,472.322,509.45,435.822,480.45,368.922z M290.95,267.922
		c-5.2-10.4-12.7-40.7,19.8-58.3c6.1-3.3,39.6-13.9,58.3,20.8l28.8,59.6l-78.2,37.3L290.95,267.922z M227.35,398.122l-158.3-181.2
		c-35.4-40.6-35.4-106.2,0-146.9c15.6-18.7,37.5-29.2,60.4-29.2c21.9,0,43.7,10.4,60.4,29.2l19.8,22.9c11.1,14.2,27.1,8.3,32.3,2.1
		l21.9-25c15.6-18.7,37.5-29.2,60.4-29.2c21.9,0,43.7,10.4,60.4,29.2c29.7,34.4,34.6,88.7,12.3,128.8c-15.5-21.7-54.9-49.5-105-26.8
		c-19.9,9-65.7,48.4-38.5,112.5l26.4,54.6L227.35,398.122z M425.25,446.022c-6.6,2.3-37.1,14.4-58.3-20.8l-29.6-61.3l78.2-37.3
		l29.6,61.1C459.75,418.722,436.45,442.222,425.25,446.022z"/>
</g>
<g>
</g>
<g>
</g>
<g>
</g>
<g>
</g>
<g>
</g>
<g>
</g>
<g>
</g>
<g>
</g>
<g>
</g>
<g>
</g>
<g>
</g>
<g>
</g>
<g>
</g>
<g>
</g>
<g>
</g>
</svg>
