<?xml version="1.0" encoding="iso-8859-1"?>
<!-- Generator: Adobe Illustrator 18.1.1, SVG Export Plug-In . SVG Version: 6.00 Build 0)  -->
<svg version="1.1" id="Capa_1" xmlns="http://www.w3.org/2000/svg" xmlns:xlink="http://www.w3.org/1999/xlink" x="0px" y="0px"
	 viewBox="0 0 55.615 55.615" style="enable-background:new 0 0 55.615 55.615;" xml:space="preserve">
<g>
	<path style="fill:#010002;" d="M24.078,19.507V9.021h1.573v10.486C25.651,19.507,24.078,19.507,24.078,19.507z M28.273,19.507
		V9.021h-1.574v10.486C26.699,19.507,28.273,19.507,28.273,19.507z M18.245,11.503c-0.197,0.677-0.369,1.417-0.493,2.226
		l-0.885,5.778h1.378V11.503z M30.894,19.507V9.021h-1.573v10.486C29.321,19.507,30.894,19.507,30.894,19.507z M20.408,9.021h-1.114
		v10.486h1.114V9.021z M23.029,19.507V9.021h-1.572v10.486C21.457,19.507,23.029,19.507,23.029,19.507z M33.515,19.507V9.021h-1.572
		v10.486C31.943,19.507,33.515,19.507,33.515,19.507z M31.523,3.44c0-1.9-0.795-3.44-3.716-3.44c-2.921,0-3.716,1.54-3.716,3.44
		c0,0-0.315,0.688-0.714,1.562h8.481C31.664,4.531,31.523,4.003,31.523,3.44z M41.033,22.324c0-0.964-0.475-1.747-1.062-1.747
		h-1.062c0,0-0.002-0.012-0.004-0.021h-22.2l-0.003,0.021c0,0-0.471,0-1.051,0c-0.581,0-1.052,0.783-1.052,1.747v1.028h26.433
		C41.033,23.062,41.033,22.71,41.033,22.324z M41.8,24.599v4.281c0,0.29-0.159,0.524-0.35,0.524c-0.195,0-0.351,0.234-0.351,0.524
		v0.35c0,0.289,0.078,0.523,0.175,0.523c0.098,0,0.176,0.235,0.176,0.524v21.67c0,1.448-1.174,2.62-2.623,2.62H16.806
		c-1.447,0-2.621-1.172-2.621-2.62V31.322c0-0.288,0.078-0.523,0.175-0.523s0.175-0.234,0.175-0.523v-0.35
		c0-0.29-0.161-0.524-0.36-0.524c-0.199,0-0.36-0.234-0.36-0.524v-4.281c0-0.07,0.01-0.136,0.029-0.197h27.928
		C41.787,24.461,41.799,24.527,41.8,24.599z M39.306,42.398L39.306,42.398l-0.001-8.912c0-0.868-0.704-1.572-1.573-1.572H17.897
		c-0.869,0-1.573,0.704-1.573,1.572v8.912c0,0.869,0.704,1.574,1.573,1.574h19.836C38.602,43.972,39.306,43.267,39.306,42.398z
		 M37.861,13.729c-0.16-1.042-0.399-1.969-0.676-2.788v8.566h1.56C38.561,18.292,38.234,16.161,37.861,13.729z M34.565,19.507h1.572
		V9.021h-1.572V19.507z M34.954,6.88c-0.437-0.45-1.259-0.583-1.944-0.83H21.956c-0.38,0.15-0.816,0.371-1.297,0.83
		c-0.225,0.215-0.526,0.582-0.855,1.093h15.981C35.463,7.469,35.168,7.102,34.954,6.88z M31.355,36.91h-2.141
		c-0.142,0-0.257-0.114-0.257-0.256v-2.141c0-0.142-0.114-0.256-0.255-0.256H26.91c-0.141,0-0.255,0.114-0.255,0.256v2.141
		c0,0.142-0.115,0.256-0.257,0.256h-2.141c-0.142,0-0.256,0.113-0.256,0.256v1.792c0,0.142,0.114,0.256,0.256,0.256h2.141
		c0.142,0,0.257,0.113,0.257,0.255v2.143c0,0.141,0.114,0.256,0.255,0.256h1.792c0.141,0,0.255-0.115,0.255-0.256v-2.143
		c0-0.142,0.115-0.255,0.257-0.255h2.141c0.142,0,0.256-0.114,0.256-0.256v-1.792C31.61,37.023,31.496,36.91,31.355,36.91z"/>
</g>
<g>
</g>
<g>
</g>
<g>
</g>
<g>
</g>
<g>
</g>
<g>
</g>
<g>
</g>
<g>
</g>
<g>
</g>
<g>
</g>
<g>
</g>
<g>
</g>
<g>
</g>
<g>
</g>
<g>
</g>
</svg>
