<?xml version='1.0' encoding='utf-8'?>
<!DOCTYPE svg PUBLIC '-//W3C//DTD SVG 1.1//EN' 'http://www.w3.org/Graphics/SVG/1.1/DTD/svg11.dtd'>
<svg version="1.1" xmlns="http://www.w3.org/2000/svg" viewBox="0 0 512 512" xmlns:xlink="http://www.w3.org/1999/xlink" enable-background="new 0 0 512 512">
  <g>
    <g>
      <path d="m188.2,130.7h135.6c11.3,0 20.4-9.1 20.4-20.4v-78.9c0-11.3-9.1-20.4-20.4-20.4h-135.6c-11.3,0-20.4,9.1-20.4,20.4v78.9c2.84217e-14,11.2 9.1,20.4 20.4,20.4z"/>
      <path d="m343.2,218v-49.4c-6.1,2-12.6,3.2-19.4,3.2h-135.6c-6.8,0-13.3-1.1-19.4-3.2v49.4c-48.7,23.8-72.5,55.8-72.5,97.7v164.9c0,11.3 9.1,20.4 20.4,20.4h278.6c11.3,0 20.4-9.1 20.4-20.4v-165c0-41.8-23.7-73.9-72.5-97.6zm-21.7,146.1h-45v45c0,11.3-9.1,20.4-20.4,20.4s-20.4-9.1-20.4-20.4v-45h-45c-11.3,0-20.4-9.1-20.4-20.4 0-11.3 9.1-20.4 20.4-20.4h45v-45c0-11.3 9.1-20.4 20.4-20.4s20.4,9.1 20.4,20.4v45h45c11.3,0 20.4,9.1 20.4,20.4 0,11.3-9.2,20.4-20.4,20.4z"/>
    </g>
  </g>
</svg>
