<?xml version="1.0" encoding="iso-8859-1"?>
<!-- Generator: Adobe Illustrator 19.0.0, SVG Export Plug-In . SVG Version: 6.00 Build 0)  -->
<svg version="1.1" id="Layer_1" xmlns="http://www.w3.org/2000/svg" xmlns:xlink="http://www.w3.org/1999/xlink" x="0px" y="0px"
	 viewBox="0 0 490.077 490.077" style="enable-background:new 0 0 490.077 490.077;" xml:space="preserve">
<g>
	<g>
		<path d="M483.864,198.859l-192.5-192.4c-8.3-7.3-21.8-7.3-29.1,0l-256,254.9c-11.7,13.1-4.2,25,0,29.1l191.4,192.5
			c12.3,11.4,26,4.2,29.1,0l257-254.9C492.164,219.659,492.164,207.259,483.864,198.859z M212.264,439.259l-163.3-163.4l227.8-226.8
			l162.3,163.4L212.264,439.259z"/>
		<path d="M246.664,109.459c-8.3,8.3-8.3,20.8,0,29.1l19.8,19.8c13,11.7,25,4.2,29.1,0c8.3-8.3,8.3-20.8,0-29.1l-19.8-19.8
			C267.464,101.059,254.964,101.059,246.664,109.459z"/>
		<path d="M226.864,226.959c8.3-8.3,8.3-20.8,0-29.1l-19.8-19.8c-8.3-8.3-20.8-8.3-29.1,0s-8.3,20.8,0,29.1l19.8,19.8
			C210.764,238.759,222.664,231.159,226.864,226.959z"/>
		<path d="M138.464,246.759c-8.3-8.3-20.8-8.3-29.1,0s-8.3,20.8,0,29.1l19.8,19.8c13,11.7,25,4.2,29.1,0c8.3-8.3,8.3-20.8,0-29.1
			L138.464,246.759z"/>
		<path d="M350.664,242.559c13,11.7,25,4.2,29.1,0c8.3-8.3,8.3-20.8,0-29.1l-19.7-19.8c-8.3-8.3-20.8-8.3-29.1,0s-8.3,20.8,0,29.1
			L350.664,242.559z"/>
		<path d="M262.264,262.359c-8.3,8.3-8.3,20.8,0,29.1l19.8,19.8c13,11.7,25,4.2,29.1,0c8.3-8.3,8.3-20.8,0-29.1l-19.8-19.8
			C283.064,254.059,270.564,254.059,262.264,262.359z"/>
		<path d="M222.664,330.959c-8.3-8.3-20.8-8.3-29.1,0s-8.3,20.8,0,29.1l19.8,19.8c13,11.7,25,4.2,29.1,0c8.3-8.3,8.3-20.8,0-29.1
			L222.664,330.959z"/>
	</g>
</g>
<g>
</g>
<g>
</g>
<g>
</g>
<g>
</g>
<g>
</g>
<g>
</g>
<g>
</g>
<g>
</g>
<g>
</g>
<g>
</g>
<g>
</g>
<g>
</g>
<g>
</g>
<g>
</g>
<g>
</g>
</svg>
