<?xml version="1.0" encoding="iso-8859-1"?>
<!-- Generator: Adobe Illustrator 19.0.0, SVG Export Plug-In . SVG Version: 6.00 Build 0)  -->
<svg version="1.1" id="Layer_1" xmlns="http://www.w3.org/2000/svg" xmlns:xlink="http://www.w3.org/1999/xlink" x="0px" y="0px"
	 viewBox="0 0 489.5 489.5" style="enable-background:new 0 0 489.5 489.5;" xml:space="preserve">
<g>
	<path d="M399,123.9V20.8C399,9.3,389.6,0,378.2,0H112.5C101,0,91.7,9.4,91.7,20.8v103.1C41.1,124.5,0,165.9,0,216.6v180.2
		c0,51,41.7,92.7,92.7,92.7h304.1c51,0,92.7-41.7,92.7-92.7V216.6C489.6,166.2,449,125,399,123.9z M132.3,40.6h223.9v83.3H132.3
		V40.6z M448.9,396.8c0,29.2-22.9,52.1-52.1,52.1H92.7c-29.2,0-52.1-22.9-52.1-52.1l0,0h200c11.5,0,20.8-9.4,20.8-20.8V237.4
		c0-11.5-9.4-20.8-20.8-20.8h-200l0,0c0-29.2,22.9-52.1,52.1-52.1h304.1c29.2,0,52.1,22.9,52.1,52.1V396.8z M41.7,356.1v-97.9h179.1
		v97.9H41.7z"/>
</g>
<g>
</g>
<g>
</g>
<g>
</g>
<g>
</g>
<g>
</g>
<g>
</g>
<g>
</g>
<g>
</g>
<g>
</g>
<g>
</g>
<g>
</g>
<g>
</g>
<g>
</g>
<g>
</g>
<g>
</g>
</svg>
