<?xml version="1.0" encoding="iso-8859-1"?>
<!-- Generator: Adobe Illustrator 19.0.0, SVG Export Plug-In . SVG Version: 6.00 Build 0)  -->
<svg version="1.1" id="Layer_1" xmlns="http://www.w3.org/2000/svg" xmlns:xlink="http://www.w3.org/1999/xlink" x="0px" y="0px"
	 viewBox="0 0 512 512" style="enable-background:new 0 0 512 512;" xml:space="preserve">
<g>
	<g>
		<path d="M394.485,135.1l-27.118-34.063v-29.31h5.899c11.381,0,20.64-9.259,20.64-20.64V20.641C393.906,9.259,384.647,0,373.266,0
			H138.733c-11.381,0-20.64,9.259-20.64,20.641v30.446c0,11.381,9.259,20.64,20.64,20.64h5.899v29.311l-27.118,34.064
			c-9.572,12.023-14.844,27.109-14.844,42.478v11.255v172.872c0,4.404,3.569,7.974,7.974,7.974c4.405,0,7.974-3.57,7.974-7.974
			V196.807h274.762v215.121H118.618v-24.085v-0.009c0-4.404-3.569-7.974-7.974-7.974c-4.405,0-7.974,3.57-7.974,7.974v0.009v32.059
			v44.457c0,26.269,21.371,47.64,47.64,47.64h211.38c26.269,0,47.64-21.371,47.64-47.64v-44.457v-231.07v-11.255
			C409.329,162.21,404.058,147.124,394.485,135.1z M393.381,464.36c0,17.475-14.217,31.691-31.691,31.691H150.31
			c-17.475,0-31.691-14.217-31.691-31.691v-36.482h274.762V464.36z M138.733,55.778c-2.587-0.001-4.691-2.105-4.691-4.692v-9.864
			h79.029c4.405,0,7.974-3.57,7.974-7.974s-3.569-7.974-7.974-7.974h-79.029v-4.633c0-2.587,2.104-4.692,4.691-4.692h234.533
			c2.587,0,4.691,2.104,4.691,4.692v30.446c0,2.587-2.104,4.691-4.691,4.691h-13.873H152.606H138.733z M393.381,180.86H118.618
			v-0.001v-3.28c0-11.776,4.039-23.333,11.372-32.544l28.855-36.244c1.125-1.412,1.736-3.163,1.736-4.966V71.727h190.837v32.098
			c0,1.804,0.611,3.556,1.736,4.966l28.855,36.244c7.332,9.211,11.372,20.769,11.372,32.544V180.86z"/>
	</g>
</g>
<g>
	<g>
		<path d="M311.103,365.131c-5.429-24.469-28.942-58.598-54.899-58.598h-0.407c-25.957,0-49.469,34.129-54.899,58.598
			c-4.762,21.462,5.169,28.655,9.661,30.75c9.011,4.206,19.529,4.936,30.589,2.135c4.769-1.208,9.697-1.82,14.647-1.82h0.23h0.182
			c4.951,0,9.879,0.612,14.647,1.82c4.403,1.114,8.748,1.68,12.917,1.681c0.001,0,0.001,0,0.001,0
			c6.302,0,12.247-1.284,17.669-3.816C305.933,393.785,315.864,386.592,311.103,365.131z M294.695,381.431
			c-5.672,2.648-12.47,3.014-19.926,1.126c-6.047-1.531-12.292-2.308-18.562-2.308h-0.182h-0.23c-6.27,0-12.515,0.776-18.562,2.308
			c-7.461,1.888-14.257,1.52-19.928-1.126c-1.618-0.757-2.462-5.515-0.837-12.845c4.605-20.754,23.657-46.104,39.329-46.104h0.407
			c15.671,0,34.724,25.35,39.329,46.104C297.158,375.916,296.314,380.674,294.695,381.431z"/>
	</g>
</g>
<g>
	<g>
		<path d="M248.847,243.782c-5.619-12.481-18.094-20.544-31.784-20.544c-4.943,0-9.75,1.036-14.287,3.078
			c-8.485,3.82-14.975,10.716-18.274,19.417c-3.3,8.702-3.012,18.167,0.808,26.653c6.348,14.1,27.543,35.417,45.025,35.418
			c0.001,0,0.001,0,0.002,0c2.977,0,5.784-0.585,8.344-1.736C258.445,297.169,255.444,258.439,248.847,243.782z M232.135,291.523
			c-0.494,0.222-1.083,0.331-1.797,0.331h-0.001c-9.062-0.001-25.644-15.271-30.482-26.017c-2.071-4.601-2.228-9.733-0.438-14.451
			c1.789-4.719,5.308-8.457,9.908-10.528c2.464-1.11,5.068-1.671,7.738-1.671c7.426,0,14.193,4.373,17.241,11.142
			C240.211,263.455,238.894,288.479,232.135,291.523z"/>
	</g>
</g>
<g>
	<g>
		<path d="M204.065,311.459c-4.838-8.786-12.196-17.273-18.743-21.619c-5.097-3.384-11.015-5.173-17.115-5.173
			c-10.418,0.001-20.073,5.177-25.83,13.847c-4.577,6.894-6.196,15.158-4.557,23.268c1.638,8.11,6.338,15.098,13.231,19.674
			c8.038,5.338,22.018,9.212,33.24,9.212c0.002,0,0.001,0,0.003,0c13.31,0,19.521-5.146,22.388-9.462
			C211.534,333.899,210.605,323.336,204.065,311.459z M193.394,332.386c-0.576,0.868-3.14,2.335-9.1,2.335c0,0-0.001,0-0.002,0
			c-8.99-0.001-19.674-3.4-24.419-6.55c-3.345-2.221-5.625-5.611-6.42-9.546c-0.794-3.935-0.01-7.945,2.21-11.289
			c2.793-4.207,7.482-6.719,12.543-6.719c2.951,0,5.819,0.868,8.293,2.51c3.62,2.403,9.418,8.443,13.594,16.025
			C194.114,326.456,194.27,331.068,193.394,332.386z"/>
	</g>
</g>
<g>
	<g>
		<path d="M327.498,245.732c-3.3-8.701-9.79-15.597-18.275-19.416c-4.537-2.041-9.343-3.078-14.286-3.078
			c-13.689,0-26.165,8.064-31.784,20.543c-6.597,14.657-9.598,53.386,10.167,62.286c2.558,1.151,5.366,1.736,8.344,1.736
			c17.481,0,38.677-21.318,45.026-35.418C330.51,263.899,330.797,254.434,327.498,245.732z M312.146,265.837
			c-4.839,10.747-21.42,26.017-30.482,26.017c-0.716,0-1.304-0.108-1.797-0.331c-6.76-3.044-8.079-28.069-2.17-41.195
			c3.047-6.769,9.814-11.142,17.241-11.142c2.672,0,5.275,0.563,7.738,1.671c4.601,2.071,8.12,5.81,9.909,10.528
			C314.372,256.104,314.217,261.237,312.146,265.837z"/>
	</g>
</g>
<g>
	<g>
		<path d="M369.623,298.515c-5.756-8.67-15.412-13.846-25.83-13.846c-6.099,0-12.018,1.788-17.115,5.173
			c-6.549,4.346-13.906,12.832-18.743,21.618c-6.539,11.876-7.468,22.44-2.617,29.748c2.865,4.317,9.077,9.462,22.39,9.462
			c11.222,0,25.201-3.875,33.241-9.212c6.893-4.576,11.593-11.564,13.231-19.674C375.819,313.673,374.201,305.409,369.623,298.515z
			 M358.546,318.625c-0.795,3.935-3.076,7.326-6.42,9.546c-4.744,3.149-15.429,6.55-24.419,6.55c-5.962,0-8.527-1.467-9.103-2.335
			c-0.875-1.319-0.72-5.932,3.3-13.232c4.175-7.581,9.973-13.621,13.594-16.025c2.474-1.643,5.342-2.51,8.293-2.51
			c5.061,0,9.75,2.511,12.543,6.719C358.556,310.681,359.34,314.69,358.546,318.625z"/>
	</g>
</g>
<g>
	<g>
		<path d="M264.082,25.274H239.12c-4.405,0-7.974,3.57-7.974,7.974s3.569,7.974,7.974,7.974h24.962c4.405,0,7.974-3.57,7.974-7.974
			S268.487,25.274,264.082,25.274z"/>
	</g>
</g>
<g>
</g>
<g>
</g>
<g>
</g>
<g>
</g>
<g>
</g>
<g>
</g>
<g>
</g>
<g>
</g>
<g>
</g>
<g>
</g>
<g>
</g>
<g>
</g>
<g>
</g>
<g>
</g>
<g>
</g>
</svg>
