<?xml version="1.0" encoding="utf-8"?>
<!-- Uploaded to SVGRepo https://www.svgrepo.com -->
<svg version="1.2" baseProfile="tiny" id="Layer_1" xmlns="http://www.w3.org/2000/svg" xmlns:xlink="http://www.w3.org/1999/xlink"
	 x="0px" y="0px" viewBox="-371 373 256 256" xml:space="preserve">
<path id="XMLID_32_" d="M-124.2,558.1c-3.9-2-6.8-6-6.8-10.6v-110c0-5.5-4-9.9-9.5-9.9c-0.7,0-1.5,0-1.5,0.2v75.1
	c0,2.1-1.9,3.9-4,3.9s-4-1.8-4-3.9v-81.2c0-5.5-4.5-9.9-10-9.9s-10,4.4-10,9.9v6.9c1,0.7,2,1.4,2.8,2.3c3.4,3.4,5.2,7.8,5.2,12.6
	v59.4c0,2.1-1.9,3.9-4,3.9s-4-1.8-4-3.9v-59.4c0-5.5-4.5-9.9-10-9.9s-10,4.4-10,9.9v85.2c0,2.1-1.9,3.9-4,3.9s-4-1.8-4-3.9v-27.9
	c0-5.5-4.5-9.9-10-9.9s-10,4.4-10,9.9v53.4c0,13.7,8,25.7,19.3,31.6L-115,629v-63.2L-124.2,558.1z"/>
<g>
	<path d="M-247.9,504.7c0-16.6-13.3-29.9-29.9-29.9c-14,0-25.9,9.9-29.2,23.3c-3.3-4.7-6.7-10.6-11.3-16l-6.7,6
		c6,6.7,10.6,14.6,14,21.3c-0.6,0-1.3,0-2,0c-16.6,0-29.9,13.3-29.9,29.9c0,16.6,13.3,29.9,29.9,29.9
		C-277.1,569.1-247.9,540.5-247.9,504.7z"/>
</g>
<path d="M-245.1,423.7v-17.5h-45.2c0.6-1.2,0.6-2.3,0.6-3.5c0-3.5-2.9-6.9-6.9-6.9c-3.5,0-6.9,2.9-6.9,6.9c0,1.2,0.6,2.3,0.6,3.5
	h-45.3v18.1c-6.4,1.7-11,7.6-11,15.1v128c0,8.7,7.6,15.7,16.2,15.7h93.3c8.7,0,16.2-6.9,16.2-16.2V439.3
	C-233.5,431.8-238.8,425.4-245.1,423.7z M-240.5,566.8c0,5.2-4.1,9.3-9.3,9.3h-93.3c-5.2,0-9.3-4.1-9.3-9.3V439.3
	c0-5.2,4.1-9.3,9.3-9.3h93.3c5.2,0,9.3,4.1,9.3,9.3V566.8z"/>
</svg>
