<?xml version="1.0" encoding="iso-8859-1"?>
<!-- Generator: Adobe Illustrator 19.0.0, SVG Export Plug-In . SVG Version: 6.00 Build 0)  -->
<svg version="1.1" id="Layer_1" xmlns="http://www.w3.org/2000/svg" xmlns:xlink="http://www.w3.org/1999/xlink" x="0px" y="0px"
	 viewBox="0 0 512 512" style="enable-background:new 0 0 512 512;" xml:space="preserve">
<g>
	<g>
		<g>
			<path d="M256,0C114.841,0,0.002,114.842,0.002,256.001S114.841,512,256,512s255.998-114.841,255.998-255.999
				C511.998,114.842,397.157,0,256,0z M256,490.663c-129.393,0-234.661-105.269-234.661-234.662
				C21.338,126.606,126.606,21.337,256,21.337s234.661,105.269,234.661,234.663C490.661,385.394,385.393,490.663,256,490.663z"/>
			<path d="M266.669,53.336c0-5.892-4.779-10.669-10.669-10.669c-117.635,0-213.336,95.701-213.336,213.333
				c0,8.066,0.467,16.236,1.39,24.284c0.623,5.442,5.236,9.456,10.585,9.456c0.404,0,0.815-0.023,1.227-0.07
				c5.853-0.67,10.056-5.96,9.385-11.813c-0.829-7.245-1.25-14.598-1.25-21.856c0-105.866,86.128-191.996,191.999-191.996
				C261.89,64.005,266.669,59.228,266.669,53.336z"/>
			<path d="M467.946,231.716c-0.671-5.855-5.972-10.061-11.812-9.386c-5.853,0.669-10.056,5.958-9.387,11.812
				c0.827,7.225,1.246,14.579,1.246,21.858c0,105.866-86.127,191.996-191.993,191.996c-5.892,0-10.669,4.776-10.669,10.669
				s4.776,10.669,10.669,10.669c117.631,0,213.33-95.701,213.33-213.333C469.33,247.915,468.865,239.744,467.946,231.716z"/>
			<path d="M70.406,305.193c-1.653-5.655-7.582-8.899-13.233-7.246c-5.58,1.632-8.81,7.425-7.304,13.013l10.369-2.505l-10.36,2.544
				l-0.004-0.015c0.004,0.011,0.004,0.022,0.009,0.033c1.202,4.857,5.555,8.108,10.348,8.108c0.842,0,1.698-0.1,2.553-0.31
				c5.722-1.405,9.221-7.183,7.816-12.906C70.54,305.671,70.477,305.432,70.406,305.193z"/>
			<path d="M49.867,310.96l0.006,0.025c-0.002-0.009-0.002-0.017-0.004-0.025H49.867z"/>
			<path d="M441.61,206.873c1.384,4.625,5.625,7.611,10.216,7.611c1.012,0,2.044-0.145,3.063-0.45
				c5.577-1.669,8.771-7.489,7.223-13.07c-0.002-0.009-0.004-0.015-0.004-0.017c-1.438-5.711-7.221-9.154-12.934-7.725
				c-5.711,1.431-9.178,7.241-7.754,12.954C441.478,206.407,441.541,206.644,441.61,206.873z"/>
			<path d="M264.662,206.082c1.679,0.971,3.515,1.432,5.324,1.432c3.688,0,7.274-1.913,9.25-5.335l0.1-0.172
				c2.947-5.103,1.198-11.627-3.905-14.574c-5.103-2.948-11.628-1.198-14.573,3.904l-0.098,0.172
				C257.81,196.61,259.558,203.135,264.662,206.082z"/>
			<path d="M304.432,384.623c20.909,0,40.699-2.364,55.727-6.657c19.645-5.613,29.606-14.139,29.606-25.344v-53.225
				c0-0.036,0.004-0.071,0.004-0.108c0-31.106-76.602-32.003-85.337-32.003c-1.892,0-6.972,0.043-13.763,0.425l25.62-44.373
				c8.518-14.755,10.767-31.995,6.331-48.549c-4.436-16.554-15.004-30.36-29.76-38.878c-30.564-17.644-69.784-7.134-87.427,23.425
				l-37.33,64.657c-0.002,0.002-0.002,0.004-0.004,0.007c-0.002,0.003-0.002,0.005-0.004,0.007l-37.33,64.655
				c-8.518,14.755-10.767,31.996-6.333,48.549c4.436,16.552,15.004,30.36,29.759,38.877c9.895,5.712,20.835,8.441,31.698,8.441
				c15.384,0,30.594-5.491,42.417-15.741c4.88,3.618,11.681,6.685,20.4,9.176C263.733,382.259,283.524,384.623,304.432,384.623z
				 M304.433,288.623c33.37,0.001,54.895,6.225,62.133,10.667c-7.239,4.441-28.766,10.667-62.134,10.667
				s-54.894-6.225-62.132-10.667c4.11-2.521,12.825-5.615,25.694-7.821c0.004-0.001,0.011-0.002,0.015-0.003
				c1.448-0.247,2.951-0.484,4.503-0.707c0.169-0.022,0.337-0.041,0.505-0.07C281.866,289.439,292.373,288.623,304.433,288.623z
				 M223.91,170.005c11.76-20.372,37.909-27.375,58.282-15.615c9.818,5.668,16.855,14.874,19.816,25.922
				c2.961,11.047,1.469,22.54-4.199,32.357l-32,55.424l-18.472-10.664l16.482-28.552c2.947-5.103,1.196-11.628-3.907-14.573
				c-5.103-2.948-11.627-1.196-14.571,3.906l-16.482,28.552l-36.949-21.331L223.91,170.005z M219.097,299.29v48.503
				c-13.062,15.798-36.255,20.2-54.237,9.817c-9.818-5.668-16.858-14.873-19.816-25.921c-2.961-11.047-1.469-22.539,4.199-32.358
				l32-55.424l57.792,33.364C227.491,282.011,219.097,288.995,219.097,299.29z M240.434,321.868
				c23.359,9.039,58.269,9.425,63.997,9.425s40.639-0.386,63.995-9.423v29.385c-4.484,4.375-26.911,12.031-63.995,12.031
				c-37.086,0-59.513-7.656-63.997-12.031V321.868z"/>
		</g>
	</g>
</g>
<g>
</g>
<g>
</g>
<g>
</g>
<g>
</g>
<g>
</g>
<g>
</g>
<g>
</g>
<g>
</g>
<g>
</g>
<g>
</g>
<g>
</g>
<g>
</g>
<g>
</g>
<g>
</g>
<g>
</g>
</svg>
