<?xml version="1.0" ?><svg width="100px" height="100px" viewBox="0 0 100 100" data-name="Layer 1" id="Layer_1" xmlns="http://www.w3.org/2000/svg"><path d="M20.37,80a1.24,1.24,0,0,0,1.2.92,1.32,1.32,0,0,0,.34,0,1.26,1.26,0,0,0,.87-1.54A7,7,0,0,1,24,73.7c1.83-2.39,5.53-3.79,10.74-4.09a30.72,30.72,0,0,0-1,5.07l-3.93,3.94a6.22,6.22,0,0,0,0,8.81l.51.51a1.21,1.21,0,0,0,.88.37,1.26,1.26,0,0,0,.89-2.14l-.51-.51a3.72,3.72,0,0,1,0-5.28L35,77a1.21,1.21,0,0,0,.53-.16l3.85,3.85a3.74,3.74,0,0,1,0,5.28,1.25,1.25,0,0,0,0,1.77,1.27,1.27,0,0,0,1.77,0,6.25,6.25,0,0,0,0-8.82l-4.79-4.78a26.46,26.46,0,0,1,.82-3.94,19.69,19.69,0,0,0,13.15,5h0a19.76,19.76,0,0,0,13.9-5.71l.51,0a27.68,27.68,0,0,1,1.12,5.69,5.4,5.4,0,1,0,2.51-.12,30.21,30.21,0,0,0-1-5.4c4.41.47,7.59,1.8,9.24,4a7,7,0,0,1,1.23,5.7,1.25,1.25,0,1,0,2.41.66,9.57,9.57,0,0,0-1.63-7.85c-2.25-3-6.31-4.65-12.09-5a21,21,0,0,0-2.45-4.82,30,30,0,0,0,6.66-13.06c.07-.22.15-.45.21-.69,2.68-.46,4.74-3.13,4.74-6.36s-2-5.78-4.55-6.33c-1.56-11.59-3.33-21.41-20.84-21.41S31,24.3,29.48,35.89a6.26,6.26,0,0,0-4.55,6.32c0,3.22,2.06,5.89,4.74,6.36.06.24.14.47.21.69a29.53,29.53,0,0,0,7.51,14,23.7,23.7,0,0,0-1.84,3.86C29,67.29,24.43,69,22,72.19A9.54,9.54,0,0,0,20.37,80Zm49.88.42a2.93,2.93,0,1,1-2.93-2.92A2.93,2.93,0,0,1,70.25,80.46ZM50.31,17C63.39,17,66.41,22.78,68,31.44c-2.24-1-5,.19-8.12,1.52L58,33.74a9,9,0,1,0-15.29,0L40.79,33c-3.14-1.33-5.87-2.49-8.11-1.52C34.22,22.78,37.23,17,50.31,17Zm0,18.52A6.53,6.53,0,1,1,56.84,29,6.54,6.54,0,0,1,50.31,35.49ZM27.43,42.21a4,4,0,0,1,2-3.68,1.24,1.24,0,0,0,.87.57h.17l.18,0,.21,0,.19-.09a1.64,1.64,0,0,0,.22-.14.34.34,0,0,0,.08-.09,1.17,1.17,0,0,0,.37-.69c.32-2.32.92-3.74,1.77-4.22,1.24-.7,3.59.3,6.32,1.45,3.09,1.31,6.6,2.8,10.49,2.8s7.41-1.49,10.5-2.8c2.73-1.15,5.08-2.15,6.32-1.45.85.48,1.45,1.9,1.77,4.22a1.25,1.25,0,0,0,.49.81l0,0a1.16,1.16,0,0,0,.37.18.61.61,0,0,0,.13,0,1.43,1.43,0,0,0,.22,0h.18a1.24,1.24,0,0,0,.87-.58,4,4,0,0,1,2,3.69,4.11,4.11,0,0,1-1.81,3.59,1.25,1.25,0,0,0-2.48-.3c-.15,1.1-.37,2.17-.62,3.22a3,3,0,0,1-1.16,1.63c-1.24.7-3.59-.29-6.32-1.45-3.09-1.31-6.6-2.79-10.5-2.79s-7.4,1.48-10.49,2.79c-2.73,1.16-5.08,2.15-6.32,1.45a3,3,0,0,1-1.16-1.63c-.25-1-.47-2.12-.62-3.22a1.26,1.26,0,0,0-1.41-1.08,1.25,1.25,0,0,0-1.07,1.37A4.09,4.09,0,0,1,27.43,42.21ZM33.71,53c2,.32,4.41-.68,7.08-1.81,2.88-1.22,6.13-2.6,9.52-2.6S57,50,59.83,51.21c2.34,1,4.45,1.87,6.3,1.87a5.16,5.16,0,0,0,.79-.06c-3.26,8.06-9.63,13.53-16.61,13.53S37,61.08,33.71,53Zm16.6,16a18,18,0,0,0,12-4.93A20.09,20.09,0,0,1,63.8,67h-.1a1.27,1.27,0,0,0-.9.38,17.26,17.26,0,0,1-24.77.2,25.44,25.44,0,0,1,1.26-2.68A17.57,17.57,0,0,0,50.31,69.05Z"/><path d="M57.05,44.86A2.14,2.14,0,1,0,55,42.72,2.11,2.11,0,0,0,57.05,44.86Z"/><path d="M43.57,44.86a2.14,2.14,0,1,0-2.08-2.14A2.11,2.11,0,0,0,43.57,44.86Z"/><path d="M47.91,55.34l1.59-.68a2,2,0,0,1,1.62,0l1.59.68a1.29,1.29,0,0,0,.5.11,1.25,1.25,0,0,0,.5-2.4l-1.59-.69a4.62,4.62,0,0,0-3.61,0l-1.59.69a1.25,1.25,0,0,0-.65,1.64A1.24,1.24,0,0,0,47.91,55.34Z"/><path d="M50.31,25a3.8,3.8,0,1,0,3.8,3.8A3.8,3.8,0,0,0,50.31,25Zm0,5.09a1.3,1.3,0,1,1,1.3-1.29A1.29,1.29,0,0,1,50.31,30.08Z"/><path d="M76.3,57.25a.88.88,0,0,0-.07-.23,1.51,1.51,0,0,0-.11-.22,1.46,1.46,0,0,0-.16-.19.9.9,0,0,0-.19-.15.94.94,0,0,0-.22-.12l-.23-.07a1.27,1.27,0,0,0-1.13.34.9.9,0,0,0-.15.19.94.94,0,0,0-.12.22,1.55,1.55,0,0,0-.07.23,1,1,0,0,0,0,.25,1.28,1.28,0,0,0,.37.88,1.26,1.26,0,0,0,2.14-.88A1,1,0,0,0,76.3,57.25Z"/><path d="M74.83,61.82l-.23.07a.94.94,0,0,0-.22.12.9.9,0,0,0-.19.15,1.28,1.28,0,0,0-.27,1.36,1.13,1.13,0,0,0,.27.41,1.24,1.24,0,0,0,1.77,0,1.13,1.13,0,0,0,.27-.41A1.22,1.22,0,0,0,76,62.16,1.24,1.24,0,0,0,74.83,61.82Z"/><path d="M77.85,61.52a1.2,1.2,0,0,0,.88-.37,1.26,1.26,0,0,0,.28-.4,1.28,1.28,0,0,0,.09-.48,1,1,0,0,0,0-.24,1.09,1.09,0,0,0-.07-.24,1.39,1.39,0,0,0-.11-.21,1,1,0,0,0-.16-.19A1.26,1.26,0,0,0,77.61,59a1.13,1.13,0,0,0-.24.08l-.21.11a1.45,1.45,0,0,0-.35.35,1.39,1.39,0,0,0-.11.21,1.13,1.13,0,0,0-.08.24,1.94,1.94,0,0,0,0,.24,1.22,1.22,0,0,0,.37.88,1.26,1.26,0,0,0,.4.28A1.28,1.28,0,0,0,77.85,61.52Z"/><path d="M71.42,59.39a1,1,0,0,0-.16.19,1.39,1.39,0,0,0-.11.21,1.13,1.13,0,0,0-.08.24,1.94,1.94,0,0,0,0,.24,1.26,1.26,0,0,0,1.25,1.25,1.28,1.28,0,0,0,.48-.09,1.42,1.42,0,0,0,.41-.28,1.26,1.26,0,0,0,0-1.76A1.29,1.29,0,0,0,71.42,59.39Z"/><path d="M23.41,28.85a1.2,1.2,0,0,0,.88-.37,1.13,1.13,0,0,0,.27-.41,1.1,1.1,0,0,0,.1-.47,1.24,1.24,0,0,0-.37-.89,1.29,1.29,0,0,0-1.76,0,1.24,1.24,0,0,0-.37.89,1.22,1.22,0,0,0,.37.88A1.2,1.2,0,0,0,23.41,28.85Z"/><path d="M22.25,33.62a1.46,1.46,0,0,0,.27.41,1.22,1.22,0,0,0,.41.27,1.29,1.29,0,0,0,.48.1,1.22,1.22,0,0,0,.88-.37,1.13,1.13,0,0,0,.27-.41,1.1,1.1,0,0,0,.1-.47,1.22,1.22,0,0,0-.37-.89.7.7,0,0,0-.19-.15.88.88,0,0,0-.21-.12l-.24-.07a1.34,1.34,0,0,0-.49,0l-.23.07a.88.88,0,0,0-.21.12,1,1,0,0,0-.2.15,1.28,1.28,0,0,0-.27,1.36Z"/><path d="M25.3,31.25a1.22,1.22,0,0,0,.88.37,1.28,1.28,0,0,0,.48-.09,1.42,1.42,0,0,0,.41-.28,1.23,1.23,0,0,0,.36-.88,1.25,1.25,0,0,0-.36-.88l-.19-.16-.22-.11a.88.88,0,0,0-.23-.07,1,1,0,0,0-.49,0,.88.88,0,0,0-.23.07l-.22.11-.19.16a1.26,1.26,0,0,0-.37.88,1.29,1.29,0,0,0,.1.48A1.09,1.09,0,0,0,25.3,31.25Z"/><path d="M20.39,29.15a.88.88,0,0,0-.23.07l-.22.11-.19.16a1.26,1.26,0,0,0-.37.88,1.29,1.29,0,0,0,.1.48,1.09,1.09,0,0,0,.27.4,1.3,1.3,0,0,0,.41.28,1.27,1.27,0,0,0,.47.09,1.24,1.24,0,0,0,.89-.37,1.09,1.09,0,0,0,.27-.4,1.29,1.29,0,0,0,.1-.48,1.26,1.26,0,0,0-.37-.88A1.24,1.24,0,0,0,20.39,29.15Z"/></svg>