<?xml version="1.0" encoding="iso-8859-1"?>
<!-- Generator: Adobe Illustrator 16.0.0, SVG Export Plug-In . SVG Version: 6.00 Build 0)  -->
<!DOCTYPE svg PUBLIC "-//W3C//DTD SVG 1.1//EN" "http://www.w3.org/Graphics/SVG/1.1/DTD/svg11.dtd">
<svg version="1.1" id="Capa_1" xmlns="http://www.w3.org/2000/svg" xmlns:xlink="http://www.w3.org/1999/xlink" x="0px" y="0px"
	 width="31.956px" height="31.957px" viewBox="0 0 31.956 31.957" style="enable-background:new 0 0 31.956 31.957;"
	 xml:space="preserve">
<g>
	<path d="M31.296,19.625c-0.562-0.516-1.435-0.479-1.949,0.084l-2.453,2.675l-3.134-2.875l3.171-3.455
		c0.516-0.563,0.479-1.436-0.084-1.951l-0.311-0.283c-0.562-0.516-1.435-0.479-1.95,0.083l-0.401,0.437L12.894,3.981
		c-0.309-0.281-0.74-0.388-1.142-0.273l-4.679,1.31L3.035,1.312C2.298,0.639,1.153,0.684,0.476,1.423
		C-0.2,2.159-0.15,3.305,0.587,3.982l4.087,3.749c0.018,0.017,0.04,0.022,0.06,0.036l-1.006,4.665
		c-0.091,0.419,0.049,0.854,0.364,1.144l11.289,10.356l-0.4,0.438c-0.516,0.562-0.478,1.438,0.084,1.951l0.31,0.283
		c0.27,0.248,0.627,0.378,0.993,0.362c0.364-0.018,0.71-0.178,0.958-0.446l3.169-3.454l3.133,2.875l-2.451,2.673
		c-0.246,0.271-0.378,0.627-0.361,0.992c0.018,0.365,0.179,0.71,0.447,0.958l0.209,0.192c0.562,0.516,1.438,0.479,1.95-0.084
		l8.17-8.903c0.248-0.271,0.38-0.627,0.362-0.993c-0.017-0.365-0.177-0.71-0.446-0.957L31.296,19.625z M7.236,7.612
		c0.044-0.048,0.06-0.108,0.096-0.159l4.425-1.238l10.688,9.805l-5.538,6.036l-2.741-2.516l1.953-2.129
		c0.225-0.244,0.21-0.627-0.037-0.853c-0.243-0.225-0.626-0.209-0.853,0.037l-1.952,2.128l-0.89-0.814l1.951-2.128
		c0.227-0.245,0.209-0.627-0.035-0.852c-0.243-0.224-0.625-0.209-0.852,0.037l-1.953,2.127l-0.89-0.815l1.952-2.128
		c0.226-0.245,0.21-0.627-0.037-0.852c-0.243-0.224-0.625-0.208-0.853,0.037l-1.951,2.128l-0.891-0.817l1.953-2.127
		c0.225-0.246,0.208-0.628-0.037-0.854c-0.243-0.224-0.626-0.208-0.852,0.037L7.939,13.83l-1.704-1.564L7.236,7.612z"/>
</g>
<g>
</g>
<g>
</g>
<g>
</g>
<g>
</g>
<g>
</g>
<g>
</g>
<g>
</g>
<g>
</g>
<g>
</g>
<g>
</g>
<g>
</g>
<g>
</g>
<g>
</g>
<g>
</g>
<g>
</g>
</svg>
