<?xml version="1.0" encoding="iso-8859-1"?>
<!-- Generator: Adobe Illustrator 16.0.0, SVG Export Plug-In . SVG Version: 6.00 Build 0)  -->
<!DOCTYPE svg PUBLIC "-//W3C//DTD SVG 1.1//EN" "http://www.w3.org/Graphics/SVG/1.1/DTD/svg11.dtd">
<svg version="1.1" id="Capa_1" xmlns="http://www.w3.org/2000/svg" xmlns:xlink="http://www.w3.org/1999/xlink" x="0px" y="0px"
	 width="32.047px" height="32.048px" viewBox="0 0 32.047 32.048" style="enable-background:new 0 0 32.047 32.048;"
	 xml:space="preserve">
<g>
	<g>
		<path d="M20.272,10.153h-8.169l-4.468,2.231c-0.871,0.435-1.421,1.325-1.421,2.298v13.944c0,0.931,0.582,1.761,1.457,2.077
			c1.59,0.574,4.408,1.345,8.096,1.345c3.769,0,6.841-0.805,8.563-1.383c0.899-0.302,1.504-1.146,1.505-2.095V14.641
			c0-0.952-0.527-1.826-1.368-2.271L20.272,10.153z M7.521,14.422c0-0.507,0.296-0.97,0.756-1.184l4.354-2.036
			c0.656-0.304,1.434-0.024,1.74,0.63c0.305,0.654,0.022,1.432-0.632,1.738l-3.601,1.684v8.298c0,0.722-0.587,1.308-1.308,1.308
			c-0.722,0-1.308-0.586-1.308-1.308L7.521,14.422L7.521,14.422z M9.052,28.889c-0.782,0-1.416-0.633-1.416-1.416
			s0.633-1.416,1.416-1.416c0.782,0,1.415,0.633,1.415,1.416S9.834,28.889,9.052,28.889z M19.792,26.531
			c0,0.518-0.42,0.938-0.938,0.938h-5.662c-0.518,0-0.938-0.42-0.938-0.938v-8.028c0-0.519,0.42-0.938,0.938-0.938h5.662
			c0.518,0,0.938,0.42,0.938,0.938V26.531z"/>
		<path d="M24.526,0h-1c-1.069,0.186-1.193,0.763-1.193,0.763C22.276,0.256,21.481,0.062,20.821,0h-1.432
			c-1.068,0.186-1.193,0.763-1.193,0.763c-0.057-0.507-0.85-0.701-1.51-0.763h-1.432c-1.068,0.186-1.192,0.763-1.192,0.763
			C14.005,0.256,13.211,0.062,12.551,0h-1.431c-1.069,0.186-1.194,0.763-1.194,0.763C9.871,0.256,9.075,0.062,8.417,0H7.521v7.189
			c0,0.811,0.658,1.47,1.469,1.47h14.067c0.812,0,1.469-0.658,1.469-1.469V0z M11.134,5.797c0,0.722-0.587,1.308-1.309,1.308
			c-0.721,0-1.308-0.586-1.308-1.308V3.535c0-0.722,0.587-1.308,1.308-1.308c0.722,0,1.309,0.586,1.309,1.308V5.797z"/>
	</g>
</g>
<g>
</g>
<g>
</g>
<g>
</g>
<g>
</g>
<g>
</g>
<g>
</g>
<g>
</g>
<g>
</g>
<g>
</g>
<g>
</g>
<g>
</g>
<g>
</g>
<g>
</g>
<g>
</g>
<g>
</g>
</svg>
