<?xml version="1.0" encoding="iso-8859-1"?>
<!-- Generator: Adobe Illustrator 19.0.0, SVG Export Plug-In . SVG Version: 6.00 Build 0)  -->
<svg version="1.1" id="Layer_1" xmlns="http://www.w3.org/2000/svg" xmlns:xlink="http://www.w3.org/1999/xlink" x="0px" y="0px"
	 viewBox="0 0 512.08 512.08" style="enable-background:new 0 0 512.08 512.08;" xml:space="preserve">
<g>
	<g>
		<path d="M473.92,155.458c-41.92-41.92-105.493-49.28-155.093-22.08c-13.12-76.373-80-133.333-158.187-133.333
			C72.32,0.045,0.427,71.725,0,159.832c0,0.107,0,0.107,0,0.213c0,0.107,0,0.107,0,0.107s0,0.32,0,0.533
			c0,78.293,56.96,145.067,133.333,158.187c-34.56,63.253-11.307,142.613,51.947,177.173
			c50.773,27.733,113.707,18.773,154.773-22.08L473.92,340.098C524.8,289.112,524.8,206.552,473.92,155.458z M160.533,21.378
			c69.653,0,128.96,51.947,138.027,120.853c0.213,1.28,0.64,2.56,1.28,3.627c-2.133,1.707-4.16,3.627-6.187,5.44
			c-1.707-1.173-3.627-1.92-5.76-2.027H21.867C27.627,77.805,87.573,21.378,160.533,21.378z M21.867,170.712H273.92L155.307,289.218
			c-3.307,3.413-6.507,6.933-9.493,10.667c-1.067-0.533-2.24-0.96-3.307-1.173C76.8,290.178,26.56,235.992,21.867,170.712z
			 M324.907,458.818c-43.093,42.24-112.213,41.6-154.453-1.387c-41.707-42.453-41.707-110.507,0-152.96l59.413-59.413
			L333.76,348.952l50.56,50.56L324.907,458.818z M458.773,325.058l-59.413,59.413l-50.56-50.56L244.907,230.018l59.413-59.413
			c42.667-42.667,111.787-42.667,154.453,0C501.44,213.272,501.44,282.392,458.773,325.058z"/>
	</g>
</g>
<g>
</g>
<g>
</g>
<g>
</g>
<g>
</g>
<g>
</g>
<g>
</g>
<g>
</g>
<g>
</g>
<g>
</g>
<g>
</g>
<g>
</g>
<g>
</g>
<g>
</g>
<g>
</g>
<g>
</g>
</svg>
