<?xml version="1.0" encoding="utf-8"?>
<!-- Uploaded to SVGRepo https://www.svgrepo.com -->
<svg version="1.2" baseProfile="tiny" id="Vote" xmlns="http://www.w3.org/2000/svg" xmlns:xlink="http://www.w3.org/1999/xlink"
	 x="0px" y="0px" viewBox="0 0 256 210" xml:space="preserve">
<g>
	<path d="M108.7,11.3c-5.9,0-10.9,4.7-10.9,10.6s4.9,10.6,10.6,10.6h14.8c2.5,0,4.4,2,4.4,4.4s-2,4.4-4.4,4.4H87
		c-5.9,0-10.6,4.9-10.6,10.6c0,5.9,4.9,10.6,10.6,10.6h36.3c2.5,0,4.4,2,4.4,4.4c0,2.5-4.4,4.4-4.4,4.4h-57
		c-5.9,0-10.6,4.9-10.6,10.6c0,5.9,4.9,10.6,10.6,10.6h57c2.5,0,4.4,2,4.4,4.4c0,2.5-2,4.4-4.4,4.4H23.3c-5.9,0-10.6,4.9-10.6,10.6
		c0,5.9,4.9,10.6,10.6,10.6h127.5c2.5,0,4.4,2,4.4,4.4s-2,4.4-4.4,4.4h-38.2c-5.9,0-10.6,4.9-10.6,10.6c0,5.9,4.9,10.6,10.6,10.6
		h66.1v-0.2c1.2,0.2,2.5,0.2,3.7,0.2c6.4,0,12.1-2.7,16-7.4l33.1-33.1H251V12.5H108.7V11.3z"/>
	<path d="M3.6,177.8c0,10.1,8.1,18,18,18c10.1,0,18-8.1,18-18c0-10.1-18-36.3-18-36.3S3.6,167.7,3.6,177.8z"/>
</g>
</svg>
