<svg viewBox="0 0 24 24"
  xmlns="http://www.w3.org/2000/svg">
  <path d="M7 18H17V16H7V18ZM17 14H7V12H17V14ZM7 10H11V8H7V10Z"></path>
  <path fill-rule="evenodd" clip-rule="evenodd" d="M6 2C5.20435 2 4.44129 2.31607 3.87868 2.87868C3.31607 3.44129 3 4.20435 3 5V19C3 19.7956 3.31607 20.5587 3.87868 21.1213C4.44129 21.6839 5.20435 22 6 22H18C18.7956 22 19.5587 21.6839 20.1213 21.1213C20.6839 20.5587 21 19.7956 21 19V9C21 7.14348 20.2625 5.36301 18.9497 4.05025C17.637 2.7375 15.8565 2 14 2H6ZM6 4H13V9H19V19C19 19.2652 18.8946 19.5196 18.7071 19.7071C18.5196 19.8946 18.2652 20 18 20H6C5.73478 20 5.48043 19.8946 5.29289 19.7071C5.10536 19.5196 5 19.2652 5 19V5C5 4.73478 5.10536 4.48043 5.29289 4.29289C5.48043 4.10536 5.73478 4 6 4V4ZM15 4.1C15.786 4.26102 16.5218 4.60849 17.1455 5.11315C17.7692 5.61782 18.2625 6.26492 18.584 7H15V4.1Z"></path>
</svg>
