<svg viewBox="0 0 24 24"
  xmlns="http://www.w3.org/2000/svg">
  <path d="M12.0002 4C11.7349 4 11.4806 4.10536 11.293 4.29289C11.1055 4.48043 11.0002 4.73478 11.0002 5C11.0002 6.692 8.95415 7.54 7.75715 6.343C7.6649 6.24749 7.55456 6.17131 7.43256 6.1189C7.31055 6.06649 7.17933 6.0389 7.04655 6.03775C6.91377 6.03659 6.78209 6.0619 6.6592 6.11218C6.5363 6.16246 6.42465 6.23671 6.33076 6.3306C6.23686 6.4245 6.16261 6.53615 6.11233 6.65904C6.06205 6.78194 6.03675 6.91362 6.0379 7.0464C6.03905 7.17918 6.06664 7.3104 6.11905 7.4324C6.17146 7.55441 6.24764 7.66475 6.34315 7.757C7.54015 8.954 6.69315 11 5.00015 11C4.73493 11 4.48058 11.1054 4.29304 11.2929C4.10551 11.4804 4.00015 11.7348 4.00015 12C4.00015 12.2652 4.10551 12.5196 4.29304 12.7071C4.48058 12.8946 4.73493 13 5.00015 13C6.69215 13 7.54015 15.046 6.34315 16.243C6.16099 16.4316 6.0602 16.6842 6.06248 16.9464C6.06476 17.2086 6.16992 17.4594 6.35533 17.6448C6.54074 17.8302 6.79155 17.9354 7.05375 17.9377C7.31595 17.94 7.56855 17.8392 7.75715 17.657C8.95415 16.46 11.0002 17.307 11.0002 19C11.0002 19.2652 11.1055 19.5196 11.293 19.7071C11.4806 19.8946 11.7349 20 12.0002 20C12.2654 20 12.5197 19.8946 12.7073 19.7071C12.8948 19.5196 13.0002 19.2652 13.0002 19C13.0002 17.308 15.0462 16.46 16.2432 17.657C16.3354 17.7525 16.4457 17.8287 16.5677 17.8811C16.6898 17.9335 16.821 17.9611 16.9537 17.9622C17.0865 17.9634 17.2182 17.9381 17.3411 17.8878C17.464 17.8375 17.5757 17.7633 17.6695 17.6694C17.7634 17.5755 17.8377 17.4638 17.888 17.341C17.9383 17.2181 17.9636 17.0864 17.9624 16.9536C17.9612 16.8208 17.9337 16.6896 17.8813 16.5676C17.8288 16.4456 17.7527 16.3352 17.6572 16.243C16.4602 15.046 17.3072 13 19.0002 13C19.2654 13 19.5197 12.8946 19.7073 12.7071C19.8948 12.5196 20.0002 12.2652 20.0002 12C20.0002 11.7348 19.8948 11.4804 19.7073 11.2929C19.5197 11.1054 19.2654 11 19.0002 11C17.3082 11 16.4602 8.954 17.6572 7.757C17.8393 7.5684 17.9401 7.31579 17.9378 7.0536C17.9355 6.7914 17.8304 6.54059 17.645 6.35518C17.4596 6.16977 17.2087 6.0646 16.9466 6.06232C16.6844 6.06005 16.4318 6.16084 16.2432 6.343C15.0462 7.54 13.0002 6.693 13.0002 5C13.0002 4.73478 12.8948 4.48043 12.7073 4.29289C12.5197 4.10536 12.2654 4 12.0002 4V4ZM9.00815 4.777C9.06345 4.02127 9.40269 3.31446 9.9577 2.79858C10.5127 2.28269 11.2424 1.99594 12.0002 1.99594C12.7579 1.99594 13.4876 2.28269 14.0426 2.79858C14.5976 3.31446 14.9368 4.02127 14.9922 4.777C15.566 4.28418 16.3048 4.02631 17.0606 4.05501C17.8164 4.08371 18.5336 4.39686 19.0683 4.93178C19.6031 5.46669 19.9161 6.18387 19.9446 6.93972C19.9732 7.69557 19.7151 8.43431 19.2222 9.008C19.9779 9.06317 20.6848 9.40229 21.2007 9.95722C21.7167 10.5122 22.0036 11.2418 22.0037 11.9995C22.0038 12.7573 21.7172 13.487 21.2014 14.0421C20.6856 14.5972 19.9789 14.9366 19.2232 14.992C19.716 15.5658 19.9738 16.3046 19.9451 17.0604C19.9164 17.8163 19.6033 18.5334 19.0684 19.0682C18.5335 19.603 17.8163 19.916 17.0604 19.9445C16.3046 19.973 15.5658 19.715 14.9922 19.222C14.9368 19.9777 14.5976 20.6845 14.0426 21.2004C13.4876 21.7163 12.7579 22.0031 12.0002 22.0031C11.2424 22.0031 10.5127 21.7163 9.9577 21.2004C9.40269 20.6845 9.06345 19.9777 9.00815 19.222C8.43446 19.715 7.69573 19.973 6.93988 19.9445C6.18402 19.916 5.46684 19.603 4.93193 19.0682C4.39702 18.5334 4.08386 17.8163 4.05516 17.0604C4.02646 16.3046 4.28433 15.5658 4.77715 14.992C4.02142 14.9367 3.31462 14.5975 2.79873 14.0424C2.28284 13.4874 1.99609 12.7577 1.99609 12C1.99609 11.2422 2.28284 10.5126 2.79873 9.95755C3.31462 9.40253 4.02142 9.0633 4.77715 9.008C4.28283 8.43441 4.0237 7.6951 4.05174 6.93842C4.07979 6.18173 4.39294 5.46364 4.92836 4.92821C5.46379 4.39279 6.18188 4.07964 6.93857 4.05159C7.69526 4.02354 8.43456 4.28268 9.00815 4.777V4.777Z"></path>
  <path d="M11.9997 10C11.4692 10 10.9605 10.2107 10.5855 10.5858C10.2104 10.9609 9.99968 11.4696 9.99968 12C9.99968 12.5304 10.2104 13.0391 10.5855 13.4142C10.9605 13.7893 11.4692 14 11.9997 14C12.5301 14 13.0388 13.7893 13.4139 13.4142C13.789 13.0391 13.9997 12.5304 13.9997 12C13.9997 11.4696 13.789 10.9609 13.4139 10.5858C13.0388 10.2107 12.5301 10 11.9997 10ZM9.17168 9.172C9.54066 8.78996 9.98204 8.48523 10.4701 8.2756C10.9581 8.06596 11.483 7.95562 12.0141 7.951C12.5452 7.94639 13.0719 8.04759 13.5635 8.24872C14.0551 8.44984 14.5017 8.74685 14.8773 9.12242C15.2528 9.498 15.5498 9.9446 15.751 10.4362C15.9521 10.9278 16.0533 11.4545 16.0487 11.9856C16.0441 12.5167 15.9337 13.0416 15.7241 13.5296C15.5144 14.0176 15.2097 14.459 14.8277 14.828C14.0733 15.5566 13.0629 15.9598 12.0141 15.9507C10.9653 15.9416 9.96203 15.5209 9.2204 14.7793C8.47877 14.0376 8.05809 13.0344 8.04898 11.9856C8.03987 10.9368 8.44304 9.92641 9.17168 9.172V9.172Z"></path>
</svg>
