<svg width="0" height="0" class="hidden">
  <symbol xmlns="http://www.w3.org/2000/svg" viewBox="0 0 40 40" id="arrow-next">
    <path d="M13.2325 4.08939C12.7638 4.55821 12.5005 5.19398 12.5005 5.85689C12.5005 6.5198 12.7638 7.15557 13.2325 7.62439L25.6075 19.9994L13.2325 32.3744C12.7771 32.8459 12.5251 33.4774 12.5308 34.1329C12.5365 34.7884 12.7994 35.4154 13.2629 35.8789C13.7264 36.3425 14.3535 36.6054 15.009 36.6111C15.6644 36.6168 16.2959 36.3648 16.7675 35.9094L30.91 21.7669C31.3786 21.2981 31.6419 20.6623 31.6419 19.9994C31.6419 19.3365 31.3786 18.7007 30.91 18.2319L16.7675 4.08939C16.2986 3.62071 15.6629 3.35742 15 3.35742C14.337 3.35742 13.7013 3.62071 13.2325 4.08939Z" ></path>
  </symbol>
</svg>