<svg width="0" height="0" class="hidden">
  <symbol xmlns="http://www.w3.org/2000/svg" viewBox="0 0 40 40" id="arrow-prev">
    <path d="M26.7676 4.08939C27.2363 4.55821 27.4996 5.19398 27.4996 5.85689C27.4996 6.5198 27.2363 7.15557 26.7676 7.62439L14.3926 19.9994L26.7676 32.3744C27.223 32.8459 27.475 33.4774 27.4693 34.1329C27.4636 34.7884 27.2007 35.4154 26.7372 35.8789C26.2736 36.3425 25.6466 36.6054 24.9911 36.6111C24.3356 36.6168 23.7041 36.3648 23.2326 35.9094L9.09012 21.7669C8.62144 21.2981 8.35815 20.6623 8.35815 19.9994C8.35815 19.3365 8.62144 18.7007 9.09012 18.2319L23.2326 4.08939C23.7014 3.62071 24.3372 3.35742 25.0001 3.35742C25.663 3.35742 26.2988 3.62071 26.7676 4.08939Z" ></path>
  </symbol>
</svg>