<svg width="0" height="0" class="hidden">
  <symbol xmlns="http://www.w3.org/2000/svg" viewBox="0 0 100 100" id="ai">
    <path fill-rule="evenodd" clip-rule="evenodd" d="M8.43936 1.87078C6.62686 2.88641 4.1043 5.18106 2.83367 6.96969L0.525066 10.2213L0.262533 48.9471L0 87.6719L2.35626 91.554C3.6521 93.689 6.29332 96.3851 8.22447 97.5441C11.7234 99.6439 11.8719 99.6529 47.4521 99.9172C85.7016 100.202 88.5026 99.9542 93.5766 95.8321C99.9027 90.6935 99.983 90.1226 99.9998 50.494C100.009 28.7048 99.6411 13.5623 99.0506 11.5112C98.5199 9.66662 97.0008 6.91196 95.6741 5.39032C90.8897 -0.0991512 91.5745 -0.0188755 49.8551 0.0036741C13.1612 0.0235177 11.6131 0.0929711 8.43936 1.87078ZM62.0755 47.5625C66.5301 59.3451 70.1645 69.312 70.1524 69.7125C70.1393 70.1139 68.3707 70.3169 66.2218 70.1635C62.3773 69.8911 62.2838 69.8027 60.3826 64.6713L58.4505 59.4552L50.1204 59.7104L41.7904 59.9648L40.3105 64.0427C39.4967 66.2859 38.4905 68.6202 38.0748 69.2291C37.332 70.3178 31.6787 70.7994 30.7023 69.8568C30.3258 69.4924 39.8368 43.4405 46.0956 27.6936C46.5337 26.5923 47.7707 26.1404 50.3447 26.1404H53.9762L62.0755 47.5625ZM47.0597 45.1254L44.0812 53.1999H50.198C54.6984 53.1999 56.2007 52.9023 55.884 52.0724C55.6476 51.4528 54.4994 48.1037 53.3334 44.6311C52.1665 41.1585 50.9482 38.0322 50.6249 37.684C50.3026 37.3358 48.6985 40.6849 47.0597 45.1254Z"></path>
  </symbol>

    <symbol xmlns="http://www.w3.org/2000/svg" viewBox="0 0 100 100" id="bi">
        <path fill-rule="evenodd" clip-rule="evenodd" d="M7.9555 1.87016C6.13355 2.88579 3.59786 5.18044 2.32063 6.96997L0 10.2225V49.5914V88.9594L2.49906 92.5863C7.31312 99.5731 7.58453 99.6173 47.6391 99.9176C85.5937 100.203 88.4411 99.9492 93.536 95.8317C99.9081 90.6822 99.9757 90.2006 99.9982 49.7881C100.021 10.7412 99.8996 9.63895 95.0433 4.64466C90.4932 -0.0366372 90.6613 -0.0195002 49.5868 0.00304943C12.7019 0.0228931 11.1458 0.0923465 7.9555 1.87016ZM57.7208 27.4748C64.6038 30.8933 66.5591 38.792 61.8539 44.1633C59.4075 46.9558 59.399 47.0081 61.2548 48.2556C65.6199 51.1915 66.5309 61.0953 62.8015 65.0541C59.1896 68.8876 55.9458 69.7354 44.6094 69.813L33.8092 69.8861L33.5575 48.013L33.3058 26.1398H44.1699C51.9244 26.1398 55.8021 26.5223 57.7208 27.4748ZM41.7919 38.3166V44.1795H46.7478C53.4073 44.1795 55.8791 42.4649 55.8791 37.8458C55.8791 33.4748 54.2009 32.4537 47.0192 32.4537H41.7919V38.3166ZM41.7919 56.8073V63.1212L47.6616 63.1077C50.8904 63.0996 53.9961 62.7956 54.5643 62.4312C58.1021 60.1627 58.3312 53.138 54.9249 51.3882C53.968 50.8957 50.6218 50.4934 47.4888 50.4934H41.7919V56.8073Z"></path>
    </symbol>

    <symbol xmlns="http://www.w3.org/2000/svg" viewBox="0 0 100 100" id="ci">
        <path fill-rule="evenodd" clip-rule="evenodd" d="M8.99823 1.57671C7.22509 2.44254 4.47514 4.70936 2.88722 6.614L0 10.0764V49.4755V88.8747L2.52338 92.529C4.04361 94.73 6.68451 96.9428 9.16652 98.0942C13.1424 99.9385 14.5226 100.005 48.9501 99.9998C69.7248 99.997 86.0214 99.6204 87.9845 99.0979C92.532 97.887 97.779 92.6686 99.1206 88.0214C99.8906 85.3564 100.131 73.4339 99.9348 47.6817L99.6565 11.126L97.0701 7.38162C95.6477 5.32292 92.8084 2.81914 90.7617 1.81817C87.2116 0.0829158 85.3078 -0.00177533 49.6308 2.65982e-05C15.8736 0.000927562 11.9071 0.154992 8.99823 1.57671ZM58.7409 27.2524C63.5639 29.6147 66.0958 32.6068 67.1845 37.2323L67.9629 40.5416H63.9061C60.1953 40.5416 59.7986 40.319 59.2514 37.9324C58.472 34.5321 56.0004 32.4635 52.0602 31.913C44.6226 30.8733 40.9005 36.089 40.8986 47.5529C40.8968 55.8075 42.3173 60.2213 45.7075 62.4972C51.2328 66.2064 59.6999 62.4359 59.6999 56.2661C59.6999 55.3399 60.7989 54.957 63.4605 54.957C66.9692 54.957 67.2211 55.1291 67.2211 57.5265C67.2211 60.5078 64.1017 65.264 60.4435 67.8606C57.7208 69.7941 49.3375 70.9158 45.1472 69.9085C40.8263 68.8688 35.3978 63.2891 33.8512 58.2969C31.1173 49.4746 32.5106 37.7576 37.0149 31.6959C39.5852 28.2353 45.9981 25.227 50.8041 25.2261C52.8922 25.2252 56.4639 26.1379 58.7409 27.2524Z"></path>
    </symbol>

    <symbol xmlns="http://www.w3.org/2000/svg" viewBox="0 0 100 100" id="di">
        <path fill-rule="evenodd" clip-rule="evenodd" d="M10.3288 1.07469C6.73439 2.6426 3.74842 5.4002 1.65355 9.08393C0.149298 11.7287 0 15.4115 0 49.9028V87.8142L2.56906 92.0151C4.35313 94.9325 6.38039 96.7938 9.20391 98.108C13.1185 99.9305 14.6275 100 50.0018 100C73.6717 100 87.6738 99.6588 89.3771 99.0396C92.9744 97.7334 97.1453 93.8385 98.7087 90.3254C99.7379 88.0137 100.002 79.7255 99.9998 49.706C99.9989 7.41312 100.15 8.44124 93.1077 3.02893L89.5011 0.256888L51.3229 0.0510834C20.76 -0.113199 12.5843 0.0907999 10.3288 1.07469ZM56.9033 28.4955C60.955 30.5301 62.4067 31.9256 64.5232 35.8205C66.7664 39.9492 67.1345 41.6724 67.1166 47.9747C67.0922 56.6636 65.3279 61.1616 60.2677 65.432C55.9305 69.0932 51.6967 70.2007 42.0195 70.2071L34.2729 70.2125V48.0975V25.9825H43.0862C50.9023 25.9825 52.4648 26.2668 56.9033 28.4955ZM42.7237 48.2229V64.1457L47.3473 63.6186C56.1963 62.6112 59.1635 58.5773 59.094 47.6462C59.0264 36.91 55.1052 32.3011 46.0402 32.3011H42.7237V48.2229Z"></path>
    </symbol>
    <symbol xmlns="http://www.w3.org/2000/svg" viewBox="0 0 100 100" id="ambulance">
        <path fill-rule="evenodd" clip-rule="evenodd" d="M36.136 1.65326C24.2304 5.37463 15.9416 11.3706 9.17057 21.1601C-5.06776 41.7442 -2.51075 68.5095 15.3416 85.7535C42.2098 111.707 86.1286 100.676 97.9089 65.014C100.862 56.0748 100.67 43.2561 97.4426 33.9924C91.737 17.6114 79.5968 6.01805 63.3024 1.39029C56.4061 -0.567986 42.8211 -0.436952 36.136 1.65326ZM32.7313 24.8002C33.8388 25.871 36.8472 26.162 47.051 26.1873C55.7033 26.209 60.6753 26.5994 62.1099 27.3693C63.2884 28.0019 68.8678 33.5794 74.5089 39.7633L84.765 51.007L84.5155 55.5254C84.3015 59.4094 83.9772 60.0835 82.2015 60.3275C80.5968 60.5489 79.8286 59.8983 78.7529 57.4104C77.1473 53.6945 72.4024 50.5614 68.379 50.5614C64.4173 50.5614 60.093 53.3972 58.2136 57.2261C56.7276 60.2534 56.3042 60.4956 52.4912 60.4956C48.6781 60.4956 48.2547 60.2534 46.7687 57.2261C42.5042 48.5372 30.7024 48.5372 26.4379 57.2261C24.6996 60.7685 23.0809 61.2981 20.7818 59.0759C19.5678 57.9011 19.3136 55.1169 19.3136 42.9904C19.3136 27.3097 19.6238 26.1792 23.9397 26.1268C25.25 26.1114 27.1397 25.5014 28.1369 24.7713C30.4089 23.1094 30.9874 23.113 32.7313 24.8002ZM31.2883 32.7074C31.0313 35.2901 30.6295 35.6787 27.9584 35.9272C25.2874 36.1766 24.921 36.5309 24.921 38.8642C24.921 41.2951 25.1967 41.5183 28.1921 41.5183C31.307 41.5183 31.4631 41.6692 31.4631 44.6812C31.4631 47.5928 31.6855 47.8441 34.2668 47.8441C36.8482 47.8441 37.0706 47.5928 37.0706 44.6812C37.0706 41.6692 37.2267 41.5183 40.3416 41.5183C43.3528 41.5183 43.6127 41.3032 43.6127 38.8073C43.6127 36.3113 43.3528 36.0962 40.3416 36.0962C37.2267 36.0962 37.0706 35.9453 37.0706 32.9333C37.0706 30.037 36.8397 29.7704 34.3257 29.7704C31.9126 29.7704 31.5463 30.1247 31.2883 32.7074ZM52.4201 30.9796C52.1557 31.6456 52.0641 35.4067 52.2155 39.3386L52.4912 46.4885H62.694C68.822 46.4885 73.0239 46.1189 73.2155 45.5632C73.3902 45.0544 70.2715 41.2915 66.2837 37.2005C60.0594 30.8151 58.5996 29.7623 55.9669 29.7659C54.2706 29.7686 52.6856 30.3108 52.4201 30.9796ZM41.2874 56.5691C44.9183 60.079 44.9687 63.71 41.4416 67.4992C37.8575 71.3488 31.308 69.396 29.2921 63.8763C28.5631 61.8801 30.1239 57.6915 32.151 56.2031C34.336 54.5991 39.4622 54.8042 41.2874 56.5691ZM72.5715 55.97C73.5239 56.4634 74.7828 58.2689 75.3669 59.9814C76.2258 62.4964 76.1566 63.607 75.0089 65.7532C71.4594 72.3899 61.3697 69.9319 61.3697 62.4295C61.3697 56.6694 67.3071 53.2463 72.5715 55.97Z"></path>
    </symbol>

    <symbol xmlns="http://www.w3.org/2000/svg" viewBox="0 0 100 100" id="art">
        <path fill-rule="evenodd" clip-rule="evenodd" d="M41.7819 0.55156C34.2224 1.6505 22.0084 7.59742 16.324 12.948C1.64674 26.7659 -3.71512 47.5035 2.62721 65.9225C7.26304 79.3882 15.968 89.1607 28.5791 95.0608C53.4405 106.691 81.741 97.1605 94.0472 73.0125C97.4994 66.2396 100 56.5887 100 50.0428C100 43.4617 97.4929 33.8343 93.9839 26.9424C84.3105 7.94241 63.4624 -2.59755 41.7819 0.55156ZM54.1152 14.882C55.1973 15.8566 56.3353 17.424 56.6447 18.3662C57.3931 20.6433 55.8031 24.4995 53.5588 25.8543C51.8458 26.8884 51.9008 27.0217 54.6176 28.4296C59.1611 30.7842 60.8882 34.8972 60.8882 43.3581C60.8882 49.5203 60.5964 50.9192 59.0241 52.2947C57.5329 53.5991 57.1601 55.0691 57.1601 59.6405V65.356H61.8202H66.4802V73.9133V82.4707H69.7423C72.6007 82.4707 73.0043 82.7499 73.0043 84.7226V86.9745H50.17H27.3358V84.7226C27.3358 82.7499 27.7393 82.4707 30.5978 82.4707H33.8598V73.9133V65.356H38.5199H43.1799V59.6577C43.1799 54.7448 42.8593 53.6684 40.8499 51.8443C38.807 49.9896 38.5199 48.9727 38.5199 43.5987C38.5199 35.7745 40.4678 30.9509 44.4671 28.8692L47.5091 27.2856L45.345 25.194C42.261 22.2134 42.3971 17.4402 45.6358 14.9784C48.718 12.6345 51.5839 12.6021 54.1152 14.882Z"></path>
    </symbol>

    <symbol xmlns="http://www.w3.org/2000/svg" viewBox="0 0 100 100" id="atm">
        <path fill-rule="evenodd" clip-rule="evenodd" d="M40.5545 0.680681C26.7257 3.38472 11.766 14.7106 5.58178 27.1581C0.0603655 38.2716 -1.31858 48.9214 1.23991 60.6866C6.25861 83.7604 26.354 100 49.8888 100C64.3786 100 74.0593 96.1039 84.6574 86.0071C95.4288 75.7459 100 64.9414 100 49.7466C100 28.0166 87.1607 9.89539 66.6787 2.71775C59.3318 0.142945 47.8742 -0.749967 40.5545 0.680681ZM32.2686 48.8329C38.0615 64.2844 37.8387 62.9459 34.624 62.9459C32.3772 62.9459 31.6564 62.4263 30.8653 60.2347C29.975 57.7692 29.5079 57.5234 25.7165 57.5234C21.9251 57.5234 21.4579 57.7692 20.5677 60.2347C19.8244 62.2916 19.0127 62.9459 17.1994 62.9459C15.885 62.9459 14.8103 62.5655 14.8103 62.1009C14.8103 60.6549 22.527 39.9661 23.5278 38.7271C24.0492 38.0818 25.3233 37.6751 26.3587 37.8233C27.8425 38.0357 29.0941 40.3674 32.2686 48.8329ZM56.001 39.9001C56.001 41.9336 55.6265 42.1595 52.2564 42.1595H48.5118V52.6124V63.0662L45.9373 62.7797L43.3629 62.4941L43.098 52.3268L42.8331 42.1595H39.5874C36.75 42.1595 36.3418 41.8757 36.3418 39.9001V37.6407H46.1714H56.001V39.9001ZM67.0634 42.3855C68.0726 44.9955 69.4338 48.8609 70.0891 50.9766C70.7434 53.0923 71.5279 54.5844 71.8312 54.2916C72.1355 53.9988 73.6474 50.2346 75.192 45.9264L78.0005 38.0926H81.277H84.5535V50.2933V62.4941L81.9791 62.7797L79.4047 63.0662L79.3438 55.0977L79.2839 47.1302L76.3631 55.0787C73.9095 61.7566 73.1447 62.9848 71.5832 62.7607C70.1471 62.5546 69.0209 60.5356 66.6431 53.9084L63.5632 45.3227L63.7607 53.9084L63.9582 62.4941L61.3838 62.7797L58.8094 63.0662V50.353V37.6407H62.0185C65.0329 37.6407 65.339 37.929 67.0634 42.3855ZM24.697 47.3561C24.3591 48.7235 23.8639 50.5527 23.5961 51.423C23.2085 52.6829 23.6822 53.0046 25.9243 53.0046H28.7393L27.3033 48.9377C26.5141 46.7009 25.7427 44.8708 25.5892 44.8708C25.4366 44.8708 25.035 45.9887 24.697 47.3561Z"></path>
    </symbol>

    <symbol xmlns="http://www.w3.org/2000/svg" viewBox="0 0 100 100" id="barrier">
        <path fill-rule="evenodd" clip-rule="evenodd" d="M38.9159 1.32264C20.5593 5.60661 5.17725 21.096 1.16199 39.3382C-4.61973 65.6056 11.7354 92.1056 37.7545 98.6303C40.7826 99.3895 46.4379 100.006 50.322 100C64.0462 99.9792 74.6449 95.6889 84.6498 86.1039C95.4509 75.7551 100 65.0033 100 49.8241C100 17.7615 70.123 -5.96127 38.9159 1.32264ZM35.3737 47.7123V69.353H37.7152C39.8685 69.353 40.0567 69.6822 40.0567 73.4386V77.5242L28.5832 77.2709L17.1097 77.0175V73.4107C17.1097 70.3566 17.4328 69.7597 19.2171 69.5154L21.3245 69.2277V47.6492V26.0715H28.3491H35.3737V47.7123ZM52.2327 36.4411C48.5443 40.0587 47.6396 40.4987 43.8819 40.4987H39.6671L43.8032 36.4411C47.4916 32.8235 48.3963 32.3834 52.154 32.3834H56.3688L52.2327 36.4411ZM71.2647 36.4113C68.0343 40.0488 67.2813 40.4428 63.5114 40.469L59.336 40.4987L63.4721 36.4411C66.96 33.02 68.1757 32.3834 71.2254 32.3834H74.8426L71.2647 36.4113ZM88.7606 36.4411V40.4987H83.4144H78.0683L82.2043 36.4411C84.4794 34.2094 86.8855 32.3834 87.5505 32.3834C88.3607 32.3834 88.7606 33.7261 88.7606 36.4411ZM25.4362 34.5719C24.2982 37.4266 25.4868 40.0416 28.0522 40.3274C31.2263 40.68 33.1605 37.8459 31.6272 35.0885C30.4611 32.9912 26.207 32.6359 25.4362 34.5719Z"></path>
    </symbol>

    <symbol xmlns="http://www.w3.org/2000/svg" viewBox="0 0 100 100" id="chapel">
        <path fill-rule="evenodd" clip-rule="evenodd" d="M41.9124 0.549339C7.47564 6.42085 -10.4604 43.961 6.43938 74.7966C13.3867 87.4736 28.3868 97.5612 43.2654 99.5625C61.4826 102.013 80.0176 94.0251 90.4989 79.2081C102.305 62.5168 103.162 41.6724 92.7695 23.993C89.3187 18.1242 81.0183 9.91907 75.2138 6.64061C65.7678 1.30411 52.1236 -1.19167 41.9124 0.549339ZM52.8431 13.565C52.8431 15.2159 53.3411 15.8167 54.7119 15.8167C56.1659 15.8167 56.5807 16.4174 56.5807 18.5187C56.5807 20.6443 56.1715 21.2208 54.6605 21.2208C52.9562 21.2208 52.773 21.6945 53.0253 25.4458C53.2925 29.4025 53.6738 29.96 59.0308 34.2274C68.8346 42.0372 71.4135 49.5299 66.3089 55.3771L63.8897 58.1485H67.7824C70.8389 58.1485 72.262 58.7141 74.4065 60.7811C77.0004 63.2814 77.1377 63.802 77.1377 71.1389V78.864H74.3345H71.5313V72.6232C71.5313 64.6333 70.5212 63.5525 63.0553 63.5525C58.7532 63.5525 57.5151 63.2508 57.5151 62.2015C57.5151 61.1063 56.0098 60.8505 49.5727 60.8505C43.1355 60.8505 41.6302 61.1063 41.6302 62.2015C41.6302 63.2472 40.4052 63.5525 36.2106 63.5525C33.2298 63.5525 30.2864 64.0389 29.6697 64.6333C29.0026 65.2764 28.5484 68.3765 28.5484 72.2891V78.864H25.1818H21.816L22.1449 71.1344C22.4617 63.7137 22.5972 63.2994 25.5266 60.7766C27.6608 58.9384 29.5567 58.1485 31.8338 58.1485C35.507 58.1485 35.9004 57.3334 33.313 55.0772C32.3356 54.2242 31.2732 52.1725 30.9508 50.5161C29.9865 45.5624 32.5393 41.141 40.2538 34.4066C46.4274 29.017 47.2366 27.9425 47.2366 25.1315C47.2366 22.7105 46.7909 21.8404 45.3678 21.482C44.0671 21.1541 43.499 20.2534 43.499 18.5187C43.499 16.784 44.0671 15.8833 45.3678 15.5555C46.4863 15.2736 47.2366 14.327 47.2366 13.1993C47.2366 11.7042 47.8178 11.3133 50.0399 11.3133C52.4067 11.3133 52.8431 11.6637 52.8431 13.565ZM52.8431 73.9103C52.8431 78.8136 52.8151 78.864 50.0399 78.864C47.2647 78.864 47.2366 78.8136 47.2366 73.9103C47.2366 69.007 47.2647 68.9566 50.0399 68.9566C52.8151 68.9566 52.8431 69.007 52.8431 73.9103ZM40.6958 76.162C40.6958 78.6497 40.436 78.864 37.4253 78.864C34.4147 78.864 34.1549 78.6497 34.1549 76.162C34.1549 73.6743 34.4147 73.46 37.4253 73.46C40.436 73.46 40.6958 73.6743 40.6958 76.162ZM65.9248 76.162C65.9248 78.6497 65.6651 78.864 62.6544 78.864C59.6437 78.864 59.384 78.6497 59.384 76.162C59.384 73.6743 59.6437 73.46 62.6544 73.46C65.6651 73.46 65.9248 73.6743 65.9248 76.162Z"></path>
    </symbol>

    <symbol xmlns="http://www.w3.org/2000/svg" viewBox="0 0 100 100" id="parking">
        <path fill-rule="evenodd" clip-rule="evenodd" d="M36.4312 1.56681C3.54875 10.6501 -10.5056 49.4352 8.70707 78.0758C15.5237 88.2384 28.2014 96.6142 40.4749 99.0644C65.0143 103.963 89.7943 89.195 97.8743 64.8583C100.872 55.831 100.682 43.0783 97.4148 33.8786C91.5452 17.3518 78.685 5.2994 62.6158 1.26268C55.4613 -0.534123 43.5351 -0.396046 36.4312 1.56681ZM62.8975 32.3652C67.8574 35.281 69.8348 39.1697 69.4324 45.2171C68.8484 53.999 63.5806 57.6386 51.455 57.6386H44.4063V65.7608V73.883H40.663H36.9197V52.2239V30.5647L48.3836 30.5684C58.1715 30.5711 60.293 30.8337 62.8975 32.3652ZM44.4063 44.1017V51.3214H50.9993C56.8351 51.3214 57.8702 51.0543 60.0011 48.9994C62.0075 47.0636 62.3182 46.1232 61.8587 43.359C61.0314 38.371 58.5 36.882 50.8533 36.882H44.4063V44.1017Z"></path>
    </symbol>

    <symbol xmlns="http://www.w3.org/2000/svg" viewBox="0 0 100 100" id="pedestrian">
        <path fill-rule="evenodd" clip-rule="evenodd" d="M39.7132 1.1871C16.2127 6.11236 0.00280383 26.1925 4.74049e-07 50.383C-0.00373733 78.566 22.097 100.202 50.6809 99.9986C73.8982 99.8338 93.6936 83.6011 98.7013 60.6217C100.433 52.6746 100.433 47.8592 98.7013 39.9121C94.4309 20.3128 79.105 5.19664 59.4582 1.2042C51.5817 -0.396732 47.2869 -0.400334 39.7132 1.1871ZM58.6975 15.3074C61.5644 17.9033 61.5093 21.8102 58.5658 24.6456C55.7643 27.3459 53.473 27.4405 50.2398 24.9895C48.4354 23.6227 47.7775 22.2991 47.7775 20.0373C47.7775 14.0459 54.2206 11.2555 58.6975 15.3074ZM53.2553 30.3488C56.0661 30.8747 56.6436 31.5311 58.7452 36.5941C60.9393 41.8786 61.456 42.427 66.5833 44.9211C69.7306 46.4518 72.0732 48.1878 72.0732 48.9883C72.0732 50.1435 70.6566 53.5039 69.7063 54.6015C69.2961 55.076 55.7428 48.3004 55.4092 47.4549C54.6121 45.4353 53.5945 47.0713 53.0889 51.1862C52.5432 55.6226 52.689 55.9593 60.9019 69.2926C65.504 76.7652 69.2699 82.9447 69.2699 83.0258C69.2699 83.4715 62.6596 86.5122 62.3624 86.2033C62.1681 85.9998 57.0744 77.8016 51.0434 67.9843L40.0795 50.1354L40.7112 45.546C41.2541 41.6013 41.1532 41.1088 39.9898 42.0398C39.2451 42.635 38.3499 45.0328 38.0004 47.3694C36.7678 55.6 36.7772 55.5865 32.9768 55.022C31.0948 54.7428 29.4436 54.4295 29.3072 54.3269C28.9007 54.0207 31.1471 40.0022 31.7788 38.8974C32.0974 38.3391 34.8821 35.8107 37.9658 33.2788C43.9921 28.331 43.2417 28.4751 53.2553 30.3488ZM44.6228 68.0123C44.2434 72.0596 43.3959 73.6984 38.4452 79.9644L32.7086 87.2271L30.0155 85.1796C28.5344 84.0531 27.3 82.7971 27.271 82.3883C27.243 81.9795 29.0474 79.3458 31.2817 76.5356C36.6613 69.7681 37.1491 68.7407 37.934 62.5062C38.9582 54.3737 39.3002 54.1 42.3446 58.9721C44.6723 62.6971 45.0003 63.9973 44.6228 68.0123Z"></path>
    </symbol>
    <symbol xmlns="http://www.w3.org/2000/svg" viewBox="0 0 100 100" id="pi">
        <path fill-rule="evenodd" clip-rule="evenodd" d="M37.2595 1.28212C25.6732 4.29471 16.0219 11.0794 9.09053 21.0861C-12.0806 51.6492 5.64773 93.29 42.4223 99.3793C66.8819 103.429 91.8073 87.2441 98.2879 63.1036C103.132 45.0623 97.5023 25.5861 83.8705 13.2169C76.7202 6.73026 70.5473 3.24807 62.6993 1.27399C55.9325 -0.42827 43.8196 -0.423755 37.2595 1.28212ZM66.9408 52.2669V73.9402H63.1997H59.4585V55.4276V36.9149H50.1057H40.7528V55.4276V73.9402H36.544H32.3352V52.2669V30.5935H49.638H66.9408V52.2669Z"></path>
    </symbol>

    <symbol xmlns="http://www.w3.org/2000/svg" viewBox="0 0 100 100" id="swing">
        <path fill-rule="evenodd" clip-rule="evenodd" d="M37.6269 1.29427C-1.27404 11.5761 -13.1321 60.8321 16.9294 87.2712C36.898 104.833 65.705 104.152 84.9007 85.6631C95.2878 75.6574 99.9338 64.6311 99.9994 49.8311C100.063 35.2891 95.2663 24.14 84.5109 13.8294C74.3421 4.08265 63.7554 -0.127893 49.7426 0.00295363C45.6203 0.0417563 40.1686 0.622894 37.6269 1.29427ZM77.1387 31.61C78.2489 34.4435 78.8934 34.5825 83.1244 32.8959C84.2571 32.4447 84.9138 33.0105 85.6652 35.0851C86.573 37.5956 86.4643 37.9637 84.6056 38.6658C52.8361 50.6658 14.4664 64.8838 13.849 64.8838C13.0751 64.8838 10.4987 60.334 11.0618 59.9595C11.2098 59.8611 12.7004 59.2556 14.3755 58.6131C17.5497 57.3958 18.0752 56.0169 16.4676 53.1248C15.6731 51.6945 15.9738 51.181 18.2832 50.0314C21.0423 48.657 21.0545 48.6625 22.2359 51.8082C23.2037 54.3872 23.7705 54.8583 25.3388 54.3854C28.3546 53.4767 72.014 36.9648 72.4112 36.5831C72.6061 36.3945 72.2398 35.1284 71.5971 33.7694C70.5749 31.6091 70.6527 31.1399 72.2098 30.0426C74.8761 28.1647 75.9179 28.4959 77.1387 31.61ZM55.8323 61.7254L60.9214 66.6886H50.211H39.5006L44.5898 61.7254C47.3882 58.9957 49.9178 56.7623 50.211 56.7623C50.5042 56.7623 53.0338 58.9957 55.8323 61.7254Z"></path>
    </symbol>
    <symbol xmlns="http://www.w3.org/2000/svg" viewBox="0 0 100 100" id="entrance">
        <path fill-rule="evenodd" clip-rule="evenodd" d="M32.811 8.10601C22.636 12.552 13.966 16.509 13.545 16.899C13.123 17.29 12.898 29.821 13.045 44.746L13.311 71.881L17.561 69.978L21.811 68.075L21.821 44.276L21.83 20.477L32.071 16.212C37.703 13.866 42.648 11.953 43.061 11.962C43.474 11.97 43.811 22.327 43.811 34.977C43.811 47.627 44.05 57.977 44.343 57.977C44.636 57.977 46.436 57.325 48.343 56.528L51.811 55.079V27.528C51.811 12.375 51.699 -0.0129898 51.561 1.02223e-05C51.423 0.0130102 42.986 3.66001 32.811 8.10601ZM37.311 63.813L33.311 64.477L32.592 75.977C31.938 86.429 32.042 87.647 33.737 89.345C35.237 90.846 36.163 91.027 38.457 90.265C41.125 89.38 41.349 88.883 41.891 82.651C42.21 78.984 42.743 75.712 43.076 75.379C43.409 75.046 51.677 80.219 61.449 86.875C79.5 99.169 83.111 100.731 85.853 97.427C87.554 95.377 87.774 95.562 67.162 81.597C52.793 71.861 49.402 69.977 46.245 69.977C44.5 69.5 46.245 69.5 46.245 69.5C46.817 68.929 69.045 70.595 73.83 71.538C75.216 71.811 77.222 71.397 78.288 70.617C80.152 69.255 80.102 69.125 76.985 67.229C73.799 65.291 72.693 65.154 47.311 63.533C44.011 63.322 39.511 63.448 37.311 63.813Z"></path>
    </symbol>    
</svg>