<svg width="0" height="0" class="hidden">
  <symbol fill="none" xmlns="http://www.w3.org/2000/svg" viewBox="0 0 44 44" id="Group 805">
    <circle cx="22" cy="22" r="22" fill="white"></circle>
    <circle cx="22" cy="22" r="17.5" fill="white" stroke="#1DA9FF" stroke-width="5"></circle>
    <path d="M34 22.0009L24.1818 23.6542V20.3476L34 22.0009Z" fill="#D9D9D9"></path>
    <path d="M10 22.0011L19.8182 20.3477V23.6544L10 22.0011Z" fill="#D9D9D9"></path>
    <path d="M21.9999 10L23.6532 19.8182H20.3466L21.9999 10Z" fill="#D9D9D9"></path>
    <path d="M22.0001 34L20.3468 24.1818H23.6534L22.0001 34Z" fill="#D9D9D9"></path>
    <path d="M30.5128 13.4123L24.7951 21.5795L22.3456 19.13L30.5128 13.4123Z" fill="#FF4A39"></path>
    <path d="M13.4139 30.2538L19.1317 22.0865L21.5812 24.536L13.4139 30.2538Z" fill="#0088DB"></path>
    <circle cx="22" cy="22" r="3" fill="#00DDF9"></circle>
    <circle cx="21" cy="21" r="1" fill="white"></circle>
    <path d="M17.7977 4.44599C17.6756 3.93574 17.162 3.61878 16.6585 3.76628C13.1871 4.78316 10.0711 6.77235 7.68416 9.50774C5.29721 12.2431 3.74832 15.5998 3.21089 19.1769C3.13294 19.6958 3.51652 20.1617 4.03862 20.2136C4.56071 20.2655 5.02334 19.8837 5.10418 19.3653C5.60067 16.1811 6.98838 13.1949 9.11574 10.757C11.2431 8.31906 14.0139 6.53974 17.1016 5.6166C17.6043 5.46631 17.9199 4.95624 17.7977 4.44599Z" fill="white"></path>
  </symbol>
</svg>