<svg width="0" height="0" >
    <symbol id="edit" xmlns="http://www.w3.org/2000/svg" viewBox="0 0 32 32">
        <path
                d="M13 3C9.145 3 6 6.145 6 10C6 12.41 7.23 14.55 9.094 15.813C5.527 17.343 3 20.883 3 25H5C5 20.57 8.57 17 13 17C15.145 17 17.063 17.879 18.5 19.25L13.781 23.969L13.719 24.281L13.031 27.813L12.719 29.281L14.188 28.969L17.718 28.281L18.031 28.219L28.125 18.125C29.285 16.965 29.285 15.035 28.125 13.875C27.5652 13.3197 26.8103 13.0056 26.0218 12.9998C25.2333 12.994 24.4739 13.297 23.906 13.844L19.938 17.813C19.0565 16.9686 18.0292 16.291 16.906 15.813C17.8575 15.1707 18.637 14.3049 19.1764 13.2915C19.7158 12.2782 19.9986 11.148 20 10C20 6.145 16.855 3 13 3ZM13 5C15.773 5 18 7.227 18 10C18 12.773 15.773 15 13 15C10.227 15 8 12.773 8 10C8 7.227 10.227 5 13 5ZM26 15C26.254 15 26.52 15.082 26.719 15.281C26.8134 15.3721 26.8885 15.4813 26.9398 15.6021C26.9911 15.7229 27.0175 15.8528 27.0175 15.984C27.0175 16.1152 26.9911 16.2451 26.9398 16.3659C26.8885 16.4867 26.8134 16.5959 26.719 16.687L17.031 26.375L15.25 26.75L15.625 24.969L25.313 15.281C25.4022 15.1897 25.5092 15.1177 25.6274 15.0693C25.7455 15.021 25.8724 14.9974 26 15Z"
        ></path>
        <path
                d="M13 3C9.145 3 6 6.145 6 10C6 12.41 7.23 14.55 9.094 15.813C5.527 17.343 3 20.883 3 25H5C5 20.57 8.57 17 13 17C15.145 17 17.063 17.879 18.5 19.25L13.781 23.969L13.719 24.281L13.031 27.813L12.719 29.281L14.188 28.969L17.718 28.281L18.031 28.219L28.125 18.125C29.285 16.965 29.285 15.035 28.125 13.875C27.5652 13.3197 26.8103 13.0056 26.0218 12.9998C25.2333 12.994 24.4739 13.297 23.906 13.844L19.938 17.813C19.0565 16.9686 18.0292 16.291 16.906 15.813C17.8575 15.1707 18.637 14.3049 19.1764 13.2915C19.7158 12.2782 19.9986 11.148 20 10C20 6.145 16.855 3 13 3ZM13 5C15.773 5 18 7.227 18 10C18 12.773 15.773 15 13 15C10.227 15 8 12.773 8 10C8 7.227 10.227 5 13 5ZM26 15C26.254 15 26.52 15.082 26.719 15.281C26.8134 15.3721 26.8885 15.4813 26.9398 15.6021C26.9911 15.7229 27.0175 15.8528 27.0175 15.984C27.0175 16.1152 26.9911 16.2451 26.9398 16.3659C26.8885 16.4867 26.8134 16.5959 26.719 16.687L17.031 26.375L15.25 26.75L15.625 24.969L25.313 15.281C25.4022 15.1897 25.5092 15.1177 25.6274 15.0693C25.7455 15.021 25.8724 14.9974 26 15Z"
        ></path>
    </symbol>
</svg>
