<svg width="0" height="0" class="hidden">
  <symbol xmlns="http://www.w3.org/2000/svg" viewBox="0 0 250 250" id="4">
    <rect width="250" height="250" fill="white"></rect>
    <path fill-rule="evenodd" clip-rule="evenodd" d="M29.2297 24.888C28.0247 25.373 26.3027 26.893 25.4037 28.266C23.9567 30.473 23.8127 34.314 24.1557 61.57C24.5127 89.967 24.7107 92.851 26.6897 98.426C32.8417 115.756 46.3157 129.599 62.2897 135.001L67.4217 136.736L67.9947 162.057C68.6297 190.129 69.5097 194.886 75.9127 204.864C96.1787 236.446 143.431 233.244 159.694 199.186L163.422 191.378L163.922 156.878C164.391 124.503 164.547 122.162 166.456 118.878C169.191 114.171 174.218 111.646 179.734 112.208C186.916 112.938 191.922 119.342 191.922 127.799C191.922 131.385 191.565 131.954 188.352 133.478C179.836 137.519 174.922 145.843 174.922 156.226C174.922 167.644 179.278 174.901 189.068 179.793C197.237 183.875 203.19 183.932 211.484 180.009C221.45 175.294 226.474 167.138 226.35 155.878C226.248 146.59 221.13 137.555 213.874 133.854C210.292 132.026 210.139 131.727 209.44 125.199C208.041 112.14 202.308 103.171 192.198 98.224C187.398 95.876 185.177 95.41 178.928 95.441C166.414 95.501 156.677 101.569 151.202 112.717L148.422 118.378L147.922 152.878L147.422 187.378L144.758 192.378C141.199 199.06 135.674 204.202 128.565 207.448C116.889 212.78 101.431 209.217 93.3267 199.327C86.1047 190.514 85.5097 187.89 85.0967 163.026C84.8387 147.467 85.0647 140.335 85.8407 139.559C86.4537 138.946 89.6667 137.892 92.9797 137.216C109.462 133.854 124.3 122.187 132.2 106.378C137.594 95.585 137.922 92.915 137.922 59.807C137.922 31.167 137.795 28.942 136.029 26.762C133.352 23.456 126.492 23.456 123.815 26.762C122.066 28.922 121.922 31.086 121.916 55.239C121.913 69.615 121.472 84.055 120.936 87.327C119.593 95.528 115.478 103.45 109.48 109.379C88.1737 130.441 53.3347 122.431 43.3627 94.176C41.0507 87.624 40.9627 86.358 40.9427 59.175C40.9207 29.313 40.5987 26.963 36.2647 24.988C33.4297 23.697 32.2297 23.679 29.2297 24.888ZM206.187 148.872C210.052 151.912 211.112 155.989 209.089 160.038C204.485 169.256 191.922 166.178 191.922 155.832C191.922 148.635 200.54 144.43 206.187 148.872Z"></path>
  </symbol>
</svg>