<?xml version="1.0" encoding="utf-8"?>
<!-- Generator: Adobe Illustrator 25.2.0, SVG Export Plug-In . SVG Version: 6.00 Build 0)  -->
<svg version="1.1" id="Layer_1"
	xmlns="http://www.w3.org/2000/svg"
	xmlns:xlink="http://www.w3.org/1999/xlink" x="0px" y="0px" viewBox="0 0 56.7 56.7" xml:space="preserve">
	<path class="st0" d="M51.8,30v-1.6c0-4.8-3.9-8.6-8.6-8.6s-8.7,3.9-8.7,8.6v3.7v2.5v8.6c0,4.7-3.9,8.6-8.6,8.6s-8.6-3.9-8.6-8.6V32
	C25.5,31.4,32,24.4,32,16V2.5C32,1.1,30.9,0,29.6,0c-1.4,0-2.5,1.1-2.5,2.5V16c0,6.1-5,11.1-11.1,11.1S4.9,22.1,4.9,16V2.5
	C4.9,1.1,3.8,0,2.5,0S0,1.1,0,2.5V16c0,7.6,5.3,13.9,12.3,15.6v11.6c0,7.5,6.1,13.5,13.5,13.5s13.5-6.1,13.5-13.5v-8.6v-2.5v-3.7
	c0-2,1.7-3.7,3.7-3.7c2,0,3.7,1.7,3.7,3.7V30c-2.9,1-4.9,3.7-4.9,7c0,4.1,3.3,7.4,7.4,7.4s7.4-3.3,7.4-7.4
	C56.7,33.8,54.6,31,51.8,30z M49.3,39.4c-1.4,0-2.5-1.1-2.5-2.5s1.1-2.5,2.5-2.5s2.5,1.1,2.5,2.5S50.7,39.4,49.3,39.4z"/>
</svg>