<svg width="0" height="0" class="hidden">
  <symbol xmlns="http://www.w3.org/2000/svg" viewBox="0 0 250 250" id="2">
    <rect width="250" height="250" fill="white"></rect>
    <path fill-rule="evenodd" clip-rule="evenodd" d="M74.7832 10.853C69.5562 13.637 68.9202 16.683 68.8552 39.248L68.7992 58.998H54.3192C37.0952 58.998 32.4142 60.282 30.1832 65.621C29.0462 68.343 28.7992 82.375 28.7992 144.329V219.724L22.1792 220.256C14.4932 220.873 10.7762 223.097 9.39719 227.903C8.70619 230.313 8.89219 231.97 10.1492 234.606C13.3822 241.385 7.1172 241.053 126.233 240.761L233.668 240.498L236.653 237.638C240.439 234.01 241.209 230.915 239.401 226.587C237.573 222.212 235.163 220.968 226.941 220.155L220.299 219.498L219.799 142.353C219.319 68.347 219.222 65.122 217.399 63.108C214.426 59.823 209.499 59.01 192.549 59.004L176.799 58.998L176.784 38.248C176.768 15.217 176.409 13.57 170.785 10.75C167.623 9.16302 163.166 9.00102 122.783 9.00002C81.3402 8.99802 78.0272 9.12602 74.7832 10.853ZM155.799 64.998V99.998H122.916H90.0322L89.4292 97.748C88.6392 94.799 88.6172 33.635 89.4062 31.58C89.9422 30.182 93.8342 29.998 122.906 29.998H155.799V64.998ZM120.962 40.571C116.98 42.246 115.799 44.73 115.799 51.432V56.998H109.751C104.496 56.998 103.382 57.345 101.251 59.644C97.8792 63.283 98.0492 67.402 101.722 71.075C104.254 73.607 105.391 73.998 110.222 73.998H115.799V79.575C115.799 84.406 116.19 85.543 118.722 88.075C121.842 91.195 124.593 91.71 128.115 89.835C131.75 87.898 132.734 85.766 132.767 79.748L132.799 73.998H138.222C148.747 73.998 153.563 65.608 146.876 58.921C144.344 56.389 143.207 55.998 138.376 55.998H132.799V50.633C132.799 41.894 127.841 37.679 120.962 40.571ZM68.8052 94.248C68.8112 110.339 69.7302 115.012 73.4682 117.953C76.0032 119.946 77.2392 119.998 122.53 119.998C164.431 119.998 169.272 119.831 171.863 118.301C173.443 117.368 175.07 115.905 175.478 115.051C175.886 114.197 176.462 106.073 176.759 96.998L177.299 80.498L188.549 80.215L199.799 79.932V149.965V219.998H179.799H159.799L159.793 193.748C159.79 178.517 159.348 165.912 158.739 163.721C157.275 158.448 152.55 153.454 147.002 151.313C143.085 149.801 139.293 149.498 124.299 149.498C104.3 149.498 101.078 150.151 95.8152 155.27C89.1622 161.742 88.8452 163.46 88.8212 193.248L88.7992 219.998H69.4062C52.6452 219.998 49.9312 219.783 49.4062 218.416C48.6162 216.358 48.6392 85.199 49.4292 82.248C50.0002 80.117 50.5302 79.998 59.4162 79.998H68.7992L68.8052 94.248ZM74.1102 131.95C70.6062 134.086 68.8102 138.678 68.8102 145.498C68.8102 155.403 72.5492 160.271 80.1552 160.271C83.3922 160.271 84.7092 159.663 86.9832 157.119C89.5582 154.237 89.7992 153.304 89.7952 146.232C89.7912 137.504 87.7152 132.677 83.2332 130.973C79.5292 129.565 77.7012 129.76 74.1102 131.95ZM166.187 130.978C161.644 132.814 159.799 136.744 159.799 144.586C159.799 153.065 161.092 156.581 164.944 158.573C169.338 160.845 173.378 160.346 177.033 157.08C180.271 154.187 180.299 154.084 180.299 144.998C180.299 135.912 180.271 135.809 177.033 132.916C173.705 129.942 170.27 129.328 166.187 130.978ZM139.299 194.998V219.498H124.299H109.299L109.017 196.998C108.861 184.623 108.985 173.474 109.292 172.221C109.846 169.965 109.98 169.947 124.575 170.221L139.299 170.498V194.998Z"></path>
  </symbol>
</svg>
