<svg width="0" height="0" class="hidden">
  <symbol xmlns="http://www.w3.org/2000/svg" viewBox="0 0 250 250" id="3">
    <rect width="250" height="250" fill="white"></rect>
    <path fill-rule="evenodd" clip-rule="evenodd" d="M64.162 54.8146C53.241 58.1366 47.168 66.2956 47.168 77.6426C47.168 85.9656 51.589 93.2106 59.032 97.0876C77.442 106.674 97.542 90.4386 91.784 70.6336C88.385 58.9396 75.278 51.4336 64.162 54.8146ZM172.283 55.3816C164.967 57.6636 158.4 65.4326 156.83 73.6656C155.88 78.6486 157.984 86.4846 161.51 91.0976C175.737 109.708 206.585 96.2966 202.26 73.3806C200.618 64.6766 193.7 57.0076 185.667 54.9846C180.158 53.5976 177.778 53.6686 172.283 55.3816ZM115.783 60.4596C108.548 62.7706 100.814 70.8496 98.623 78.3856C95.792 88.1236 97.911 97.2706 104.753 104.843C109.905 110.547 115.267 113.08 123.423 113.666C129.519 114.103 130.809 113.84 136.638 110.971C147.106 105.817 152.179 97.6406 152.158 85.9526C152.126 67.8356 133.521 54.7956 115.783 60.4596ZM128.768 80.6456C130.805 82.0056 132.343 86.0486 131.739 88.4556C131.031 91.2746 126.066 94.1406 123.481 93.2216C118.288 91.3746 116.414 85.4766 119.823 81.7096C121.486 79.8716 126.684 79.2536 128.768 80.6456ZM43.168 105.816C34.238 108.542 26.31 115.399 22.281 123.881C19.844 129.01 19.645 130.509 19.334 146.124L19 162.867L22.007 165.874C24.074 167.941 25.997 168.881 28.157 168.881C36.368 168.881 38.168 164.757 38.168 145.948V131.951L41.25 128.44C45.183 123.961 49.167 122.894 61.984 122.887C67.657 122.884 73.208 122.395 74.318 121.801C75.429 121.206 76.98 119.181 77.766 117.301C79.004 114.337 79.004 113.425 77.766 110.461C76.98 108.581 75.429 106.556 74.318 105.961C72.028 104.736 47.088 104.62 43.168 105.816ZM173.181 107.715C169.158 111.737 169.127 115.994 173.091 119.958C175.961 122.828 176.211 122.881 186.841 122.887C200.176 122.893 204.121 123.925 208.086 128.44L211.168 131.951L211.174 145.166C211.177 152.434 211.644 160.055 212.212 162.102C214.225 169.349 221.931 171.272 227.329 165.874L230.336 162.867L230.002 146.124C229.69 130.466 229.496 129.014 227.017 123.726C223.877 117.03 217.963 110.983 211.404 107.764C207.215 105.708 204.908 105.397 191.431 105.071L176.193 104.702L173.181 107.715ZM94.668 124.282C82.981 127.16 74.112 134.19 68.949 144.669L65.668 151.327L65.359 170.559C65.02 191.67 65.341 193.22 70.499 195.375C74.384 196.998 78.45 196.331 80.858 193.675C82.421 191.952 82.736 189.198 83.168 173.53C83.729 153.164 84.272 151.34 91.509 145.487L95.35 142.381L122.509 142.066C139.835 141.866 150.986 142.14 153.308 142.824C157.837 144.157 163.684 150.475 165.096 155.56C165.679 157.662 166.159 166.443 166.162 175.075C166.168 190.037 166.276 190.895 168.484 193.462C170.34 195.62 171.665 196.154 175.168 196.154C178.71 196.154 179.991 195.625 181.939 193.361C184.332 190.579 184.34 190.486 183.986 170.474L183.631 150.381L180.503 144.365C174.912 133.611 165.614 126.644 153.34 124.011C146.084 122.455 101.247 122.662 94.668 124.282Z"></path>
  </symbol>
</svg>
