<?xml version="1.0" encoding="utf-8"?>
<!-- Generator: Adobe Illustrator 25.2.0, SVG Export Plug-In . SVG Version: 6.00 Build 0)  -->
<svg version="1.1" id="Layer_1"
	xmlns="http://www.w3.org/2000/svg"
	xmlns:xlink="http://www.w3.org/1999/xlink" x="0px" y="0px" viewBox="0 0 56.7 56.7" xml:space="preserve">
	<g>
		<path class="st0" d="M28.4,25.3c4.1,0,7.4-3.3,7.4-7.4s-3.3-7.4-7.4-7.4S21,13.8,21,17.9S24.3,25.3,28.4,25.3z M28.4,16
		c1.1,0,1.9,0.9,1.9,1.9s-0.9,1.9-1.9,1.9s-1.9-0.9-1.9-1.9S27.3,16,28.4,16z"/>
		<path class="st0" d="M34.2,27.8H22.5c-5.6,0-10.2,4.5-10.2,10V45c0,1.4,1.1,2.5,2.5,2.5s2.5-1.1,2.5-2.5v-7.2
		c0-2.8,2.3-5.1,5.2-5.1h11.7c2.9,0,5.2,2.3,5.2,5.1V45c0,1.4,1.1,2.5,2.5,2.5s2.5-1.1,2.5-2.5v-7.2C44.4,32.2,39.8,27.8,34.2,27.8z
		"/>
		<circle class="st0" cx="13.6" cy="15.4" r="6.2"/>
		<path class="st0" d="M16,25.3c0-1.4-1.1-2.5-2.5-2.5H8.8c-4.8,0-8.8,3.9-8.8,8.7v6.1c0,1.4,1.1,2.5,2.5,2.5S5,39,5,37.6v-6.1
		c0-2,1.7-3.7,3.8-3.7h4.8C14.9,27.8,16,26.7,16,25.3z"/>
		<circle class="st0" cx="43.1" cy="15.4" r="6.2"/>
		<path class="st0" d="M47.9,22.8h-4.8c-1.4,0-2.5,1.1-2.5,2.5c0,1.4,1.1,2.5,2.5,2.5h4.8c2.1,0,3.8,1.7,3.8,3.7v6.1
		c0,1.4,1.1,2.5,2.5,2.5s2.5-1.1,2.5-2.5v-6.1C56.7,26.7,52.8,22.8,47.9,22.8z"/>
	</g>
</svg>
