<?xml version="1.0" encoding="utf-8"?>
<!-- Generator: Adobe Illustrator 25.2.0, SVG Export Plug-In . SVG Version: 6.00 Build 0)  -->
<svg version="1.1" id="Layer_1"
	xmlns="http://www.w3.org/2000/svg"
	xmlns:xlink="http://www.w3.org/1999/xlink" x="0px" y="0px" viewBox="0 0 56.7 56.7" xml:space="preserve">
	<g>
		<path class="st0" d="M50.5,0H6.2C4.8,0,3.7,1.1,3.7,2.5V32c0,7.3,6.2,13.5,11.4,17.4c5.5,4.1,11.1,6.7,11.7,6.9
		c0.5,0.2,1,0.3,1.5,0.3s1-0.1,1.5-0.3c0.6-0.3,6.2-2.8,11.7-6.9C46.8,45.5,53,39.4,53,32V2.5C53,1.1,51.9,0,50.5,0z M48.1,32
		c0,5.5-5.9,10.8-9.4,13.4c-4.3,3.2-8.8,5.5-10.3,6.2c-1.5-0.7-6-2.9-10.3-6.2c-3.5-2.6-9.4-7.9-9.4-13.4V4.9h39.4V32z"/>
		<path class="st0" d="M17.3,31.5h3v3c0,2.5,2,4.4,4.4,4.4H32c2.5,0,4.4-2,4.4-4.4v-3h3c2.5,0,4.4-2,4.4-4.4v-7.4
		c0-2.5-2-4.4-4.4-4.4h-3v-2.9c0-2.4-2-4.4-4.4-4.4h-7.4c-2.5,0-4.4,2-4.4,4.4v2.9h-3c-2.4,0-4.4,2-4.4,4.4v7.4
		c0,1.2,0.5,2.3,1.3,3.1C14.9,31.1,16.1,31.5,17.3,31.5z M17.3,19.7h7.4v-7.4H32v7.4h7.4v7.4H32v7.4h-7.4v-7.4h-7.4L17.3,19.7z"/>
	</g>
</svg>
