<svg width="0" height="0" class="hidden">
  <symbol xmlns="http://www.w3.org/2000/svg" viewBox="0 0 250 250" id="1">
    <rect width="250" height="250" fill="white"></rect>
    <path fill-rule="evenodd" clip-rule="evenodd" d="M37.5002 19.9222C32.8902 22.4642 33.0002 20.8511 33.0002 85.7861C33.0002 152.787 32.9212 151.719 38.7412 163.276C50.3452 186.317 78.7412 210.69 113.472 227.418C123.019 232.016 126.96 231.894 137.343 226.679C160.572 215.012 176.423 203.779 193.105 187.164C203.899 176.414 210.733 166.107 214.551 154.823L217 147.584V85.8551V24.1251L214.42 21.7002L211.839 19.2761L125.67 19.0472C64.3342 18.8842 38.9242 19.1362 37.5002 19.9222ZM199.5 91.8971V146.518L195.119 155.157C190.277 164.704 179.424 177.131 167.306 187.001C159.755 193.152 139.597 206.052 130.851 210.33L125.202 213.094L117.46 209.417C89.7742 196.269 60.9942 170.458 53.3812 151.948L51.0472 146.276L51.0242 91.5201L51.0002 36.7631L125.25 37.0202L199.5 37.2761V91.8971ZM105.684 50.2251C97.7952 53.0381 95.6612 56.5441 95.0002 67.7761L94.5002 76.2761L85.8172 76.7761C76.2492 77.3271 73.3672 78.7172 69.2502 84.7662C67.1202 87.8962 67.0012 89.0331 67.0162 106.174C67.0322 123.058 67.1832 124.539 69.2662 128.182C72.9962 134.704 75.7602 136.101 85.9002 136.586L94.8102 137.012L95.1552 145.644C95.4422 152.816 95.9062 154.845 97.9012 157.643C102.187 163.652 106.281 164.729 124.934 164.754C144.168 164.78 147.626 163.748 152.259 156.603C154.651 152.913 155 151.384 155 144.576V136.776H162.184C171.536 136.776 176.709 134.389 180.063 128.526C182.237 124.725 182.531 122.864 182.848 110.911C183.285 94.4131 182.515 87.8371 179.647 83.5761C176.538 78.9581 172.743 77.3601 163.5 76.7791L155.5 76.2761L154.971 68.1601C154.519 61.2311 154.025 59.4971 151.587 56.3011C146.711 49.9081 142.821 48.8171 125 48.8421C114.513 48.8571 108.266 49.3041 105.684 50.2251ZM139 78.2481V91.7201L152.75 91.9981L166.5 92.2761L166.777 106.526L167.055 120.776H153.027H139V134.776V148.776H125.028H111.056L110.778 135.026L110.5 121.276L96.5002 120.776C88.8002 120.501 82.6122 119.938 82.7502 119.526C82.8882 119.114 83.0002 112.701 83.0002 105.276V91.7761H97.0002H111V78.2761V64.7761H125H139V78.2481Z"></path>
  </symbol>
</svg>
