<svg width="0" height="0" class="hidden">
  <symbol xmlns="http://www.w3.org/2000/svg" viewBox="0 0 24 24" id="attach">
    <path d="M16.0002 2C17.1683 1.99972 18.311 2.34039 19.2882 2.9802C20.2654 3.62001 21.0347 4.53115 21.5015 5.60185C21.9684 6.67254 22.1126 7.85622 21.9164 9.00768C21.7203 10.1591 21.1923 11.2283 20.3972 12.084L20.2072 12.278L11.4802 21.005L11.4272 21.055L11.3712 21.1C10.6603 21.7129 9.74402 22.0344 8.80603 22.0002C7.86803 21.966 6.97761 21.5786 6.31321 20.9156C5.64881 20.2526 5.25952 19.363 5.22336 18.4251C5.1872 17.4871 5.50683 16.5702 6.1182 15.858L6.2672 15.694L6.2822 15.683L13.5722 8.379C13.7596 8.19123 14.0139 8.08558 14.2791 8.0853C14.5444 8.08502 14.7989 8.19013 14.9867 8.3775C15.1745 8.56488 15.2801 8.81917 15.2804 9.08444C15.2807 9.34971 15.1756 9.60423 14.9882 9.792L7.6982 17.096L7.6862 17.104C7.39197 17.4182 7.22617 17.8313 7.22151 18.2617C7.21685 18.6922 7.37367 19.1087 7.66103 19.4292C7.94839 19.7497 8.34543 19.9509 8.77383 19.9931C9.20222 20.0352 9.63087 19.9153 9.9752 19.657L10.0972 19.557L10.0982 19.558L18.8002 10.858L18.9592 10.693C19.6593 9.92346 20.0321 8.91143 19.9984 7.87161C19.9647 6.83179 19.5272 5.84601 18.7787 5.12343C18.0302 4.40084 17.0296 3.99829 15.9893 4.0012C14.9489 4.00411 13.9506 4.41224 13.2062 5.139L13.0512 5.299L13.0332 5.311L3.7072 14.641C3.61429 14.7338 3.504 14.8075 3.38264 14.8577C3.26127 14.9079 3.1312 14.9338 2.99985 14.9337C2.8685 14.9337 2.73845 14.9077 2.61711 14.8574C2.49578 14.8071 2.38555 14.7334 2.2927 14.6405C2.19986 14.5476 2.12622 14.4373 2.076 14.3159C2.02578 14.1946 1.99995 14.0645 2 13.9332C2.00009 13.6679 2.10556 13.4135 2.2932 13.226L11.6022 3.913L11.6482 3.87C12.2083 3.27846 12.8833 2.80749 13.6318 2.48594C14.3803 2.1644 15.1856 1.99904 16.0002 2Z"></path>
  </symbol>
</svg>