<svg width="0" height="0" class="hidden">
  <symbol xmlns="http://www.w3.org/2000/svg" viewBox="0 0 24 25" id="smile">
    <path d="M12 0.386719C5.37097 0.386719 0 5.75769 0 12.3867C0 19.0158 5.37097 24.3867 12 24.3867C18.629 24.3867 24 19.0158 24 12.3867C24 5.75769 18.629 0.386719 12 0.386719ZM12 22.0641C6.6629 22.0641 2.32258 17.7238 2.32258 12.3867C2.32258 7.04962 6.6629 2.7093 12 2.7093C17.3371 2.7093 21.6774 7.04962 21.6774 12.3867C21.6774 17.7238 17.3371 22.0641 12 22.0641ZM16.0645 15.1254C15.0581 16.3351 13.5726 17.0319 12 17.0319C10.4274 17.0319 8.94194 16.3399 7.93548 15.1254C7.52419 14.6319 6.79355 14.569 6.3 14.9754C5.80645 15.3867 5.74355 16.1174 6.15 16.6109C7.60161 18.3528 9.73548 19.3496 12 19.3496C14.2645 19.3496 16.3984 18.3528 17.85 16.6109C18.2613 16.1174 18.1935 15.3867 17.7 14.9754C17.2065 14.569 16.4758 14.6319 16.0645 15.1254ZM6.60484 10.2093C6.97742 9.5464 7.53387 9.16414 8.12903 9.16414C8.72419 9.16414 9.28064 9.5464 9.65323 10.2093L10.1129 11.0319C10.2145 11.2109 10.4129 11.2593 10.5629 11.2109C10.7371 11.1577 10.8532 10.9932 10.8387 10.8093C10.679 8.7722 9.28064 7.35446 8.12903 7.35446C6.97742 7.35446 5.57903 8.7722 5.41935 10.8093C5.40484 10.9883 5.52097 11.1577 5.69516 11.2109C5.85968 11.2641 6.05323 11.1867 6.14516 11.0319L6.60484 10.2093ZM15.871 7.35446C14.7194 7.35446 13.321 8.7722 13.1613 10.8093C13.1468 10.9883 13.2629 11.1577 13.4371 11.2109C13.6065 11.2641 13.7952 11.1867 13.8871 11.0319L14.3468 10.2093C14.7194 9.5464 15.2758 9.16414 15.871 9.16414C16.4661 9.16414 17.0226 9.5464 17.3952 10.2093L17.8548 11.0319C17.9565 11.2109 18.1548 11.2593 18.3048 11.2109C18.479 11.1577 18.5952 10.9932 18.5806 10.8093C18.421 8.7722 17.0226 7.35446 15.871 7.35446Z"></path>
  </symbol>
</svg>