<svg width="0" height="0" class="hidden">
  <symbol xmlns="http://www.w3.org/2000/svg" viewBox="0 0 32 32" id="cart">
    <path d="M3.222 5H3C2.45 5 2 4.55 2 4C2 3.45 2.45 3 3 3H5C5.55 3 6 3.45 6 4C6 4.415 5.744 4.772 5.383 4.923L5.66 6H26.8C28.56 6 30 7.432 30 9.253L29.48 17.748C29.33 20.265 26.96 21.588 24.83 21.757L9.998 22.926C10.026 23.402 9.695 23.854 9.196 23.971C8.624 24.102 8.052 23.778 7.914 23.231L6.85 19.097C5.782 19.431 4.987 20.586 4.987 21.885V22C4.987 23.608 6.191 25 7.622 25H29C29.547 25 30 25.382 30 25.956C30 26.53 29.553 27 29.006 27H26.5C26.8978 27 27.2794 27.158 27.5607 27.4393C27.842 27.7206 28 28.1022 28 28.5C28 28.8978 27.842 29.2794 27.5607 29.5607C27.2794 29.842 26.8978 30 26.5 30C26.1022 30 25.7206 29.842 25.4393 29.5607C25.158 29.2794 25 28.8978 25 28.5C25 28.1022 25.158 27.7206 25.4393 27.4393C25.7206 27.158 26.1022 27 26.5 27H8.5C8.89783 27 9.27935 27.158 9.56066 27.4393C9.84196 27.7206 10 28.1022 10 28.5C10 28.8978 9.84196 29.2794 9.56066 29.5607C9.27935 29.842 8.89783 30 8.5 30C8.10217 30 7.72065 29.842 7.43934 29.5607C7.15804 29.2794 7 28.8978 7 28.5C7 28.1022 7.15804 27.7206 7.43934 27.4393C7.72065 27.158 8.10217 27 8.5 27H7.581C5.057 27 3 24.756 3 22V21.885C3 19.617 4.424 17.705 6.351 17.157L3.221 5H3.222ZM10.384 16H12V12H9.395L10.384 16ZM9.148 11H12V8.007L10.05 8.009C9.21 8.009 8.6 8.785 8.8 9.591L9.148 11ZM13 8.006V11H17.38V8L13 8.006ZM18.38 7.999V11H22.98V7.994L18.38 7.999ZM23.98 7.993V11H27.889L28 9.193C28 8.527 27.46 7.989 26.79 7.989L23.98 7.993ZM27.827 12H23.98V16H27.58L27.827 12ZM27.519 17H23.98V19.83L24.66 19.777C26 19.667 27.4 18.902 27.48 17.628L27.519 17ZM22.98 19.91V17H18.38V20.272L22.98 19.909V19.91ZM17.38 20.35V17H13V20.62C13 20.646 12.998 20.671 12.994 20.696L17.38 20.35ZM12 20.6V17H10.631L11.31 19.747C11.3543 19.9315 11.4393 20.1039 11.5586 20.2514C11.678 20.399 11.8288 20.5181 12 20.6ZM17.38 12H13V16H17.38V12ZM22.98 12H18.38V16H22.98V12Z"></path>
  </symbol>
</svg>