<svg width="0" height="0" class="hidden">
  <symbol xmlns="http://www.w3.org/2000/svg" viewBox="0 0 24 24" id="close">
    <path d="M13.414 12L16.243 9.172C16.4306 8.98436 16.5361 8.72986 16.5361 8.4645C16.5361 8.19914 16.4306 7.94464 16.243 7.757C16.0554 7.56936 15.8009 7.46394 15.5355 7.46394C15.2701 7.46394 15.0156 7.56936 14.828 7.757L12 10.586L9.172 7.757C8.98436 7.56936 8.72986 7.46394 8.4645 7.46394C8.19914 7.46394 7.94464 7.56936 7.757 7.757C7.56936 7.94464 7.46394 8.19914 7.46394 8.4645C7.46394 8.72986 7.56936 8.98436 7.757 9.172L10.586 12L7.757 14.828C7.56936 15.0156 7.46394 15.2701 7.46394 15.5355C7.46394 15.8009 7.56936 16.0554 7.757 16.243C7.94464 16.4306 8.19914 16.5361 8.4645 16.5361C8.72986 16.5361 8.98436 16.4306 9.172 16.243L12 13.414L14.828 16.243C15.0156 16.4306 15.2701 16.5361 15.5355 16.5361C15.8009 16.5361 16.0554 16.4306 16.243 16.243C16.4306 16.0554 16.5361 15.8009 16.5361 15.5355C16.5361 15.2701 16.4306 15.0156 16.243 14.828L13.414 12ZM12 22C6.477 22 2 17.523 2 12C2 6.477 6.477 2 12 2C17.523 2 22 6.477 22 12C22 17.523 17.523 22 12 22Z"></path>
  </symbol>
</svg>