<svg width="0" height="0" class="hidden">
  <symbol xmlns="http://www.w3.org/2000/svg" viewBox="0 0 20 20" id="delete">
    <g clip-path="url(#clip0_2691_6385)">
      <path d="M8.84615 -0.0234375C7.33999 -0.0234375 6.12999 1.2281 6.12999 2.74118V3.07733H3.07691C2.65307 3.07733 2.30768 3.42272 2.30768 3.84656V4.61579H1.53845V6.15425H3.07691V17.6927C3.07691 18.9581 4.11922 20.0004 5.38461 20.0004H14.6154C15.8808 20.0004 16.9231 18.9581 16.9231 17.6927V6.15425H18.4615V4.61579H17.6923V3.84656C17.6923 3.42272 17.3469 3.07733 16.9231 3.07733H13.87V2.74041C13.87 1.2281 12.66 -0.0234375 11.1538 -0.0234375H8.84615V-0.0234375ZM8.84615 1.56272H11.1538C11.7723 1.56272 12.2838 2.06733 12.2838 2.74041V3.07733H7.71538V2.74041C7.71538 2.06733 8.22691 1.56349 8.84538 1.56349L8.84615 1.56272ZM4.61538 6.15425H8.55768C8.65307 6.16425 8.74768 6.1781 8.84615 6.1781H11.1538C11.2523 6.1781 11.3461 6.16425 11.4423 6.15425H15.3846V17.6927C15.3846 18.1258 15.0485 18.4619 14.6154 18.4619H5.38461C4.95153 18.4619 4.61538 18.1258 4.61538 17.6927V6.15425ZM6.15384 7.69272V16.9235H7.6923V7.69272H6.15384ZM9.23076 7.69272V16.9235H10.7692V7.69272H9.23076ZM12.3077 7.69272V16.9235H13.8461V7.69272H12.3077Z"></path>
    </g>
    <defs>
      <clipPath id="clip0_2691_6385">
        <rect width="20" height="20" fill="white"></rect>
      </clipPath>
    </defs>
  </symbol>
</svg>