<svg width="0" height="0" class="hidden">
  <symbol xmlns="http://www.w3.org/2000/svg" viewBox="0 0 24 24" id="double-arrow">
    <path d="M12.8081 24C12.3999 24 12.1103 23.6926 11.9392 23.0777C11.7674 22.464 11.7958 21.8714 12.0244 21.3L15.8204 12L12.0244 2.7C11.7958 2.12857 11.7674 1.53543 11.9392 0.920572C12.1103 0.306857 12.3999 0 12.8081 0C12.9877 0 13.151 0.0782859 13.2979 0.234857C13.4448 0.392572 13.5673 0.585714 13.6652 0.814286L17.8041 11.0143C17.8694 11.1571 17.9184 11.3143 17.951 11.4857C17.9837 11.6571 18 11.8286 18 12C18 12.1714 17.9837 12.3354 17.951 12.492C17.9184 12.6497 17.8694 12.8143 17.8041 12.9857L13.6652 23.1857C13.5673 23.4143 13.4448 23.6074 13.2979 23.7651C13.151 23.9217 12.9877 24 12.8081 24ZM6.97945 24C6.57128 24 6.28164 23.6926 6.11054 23.0777C5.93878 22.464 5.96719 21.8714 6.19576 21.3L9.99173 12L6.19576 2.7C5.96719 2.12857 5.93878 1.53543 6.11054 0.920572C6.28164 0.306857 6.57128 0 6.97945 0C7.15904 0 7.32231 0.0782859 7.46925 0.234857C7.61619 0.392572 7.73864 0.585714 7.8366 0.814286L11.9754 11.0143C12.0407 11.1571 12.0897 11.3143 12.1224 11.4857C12.155 11.6571 12.1714 11.8286 12.1714 12C12.1714 12.1714 12.155 12.3429 12.1224 12.5143C12.0897 12.6857 12.0407 12.8429 11.9754 12.9857L7.8366 23.1857C7.73864 23.4143 7.61619 23.6074 7.46925 23.7651C7.32231 23.9217 7.15904 24 6.97945 24Z" ></path>
  </symbol>
</svg>