<svg width="0" height="0" class="hidden">
  <symbol xmlns="http://www.w3.org/2000/svg" viewBox="0 0 24 24" id="excel">
    <path d="M21.17 3.25C21.39 3.25 21.5867 3.33333 21.76 3.5C21.92 3.66 22 3.85333 22 4.08V19.92C22 20.1467 21.92 20.34 21.76 20.5C21.5867 20.6667 21.39 20.75 21.17 20.75H7.83C7.61 20.75 7.41333 20.6667 7.24 20.5C7.08 20.34 7 20.1467 7 19.92V17H2.83C2.61 17 2.41333 16.92 2.24 16.76C2.08 16.5867 2 16.39 2 16.17V7.83C2 7.61 2.08 7.41333 2.24 7.24C2.41333 7.08 2.61 7 2.83 7H7V4.08C7 3.85333 7.08 3.66 7.24 3.5C7.41333 3.33333 7.61 3.25 7.83 3.25M7 13.06L8.18 15.28H9.97L8 12.06L9.93 8.89H8.22L7.13 10.9L7.09 10.96L7.06 11.03C6.88667 10.6767 6.7 10.32 6.5 9.96C6.33333 9.60667 6.15667 9.25 5.97 8.89H4.16L6.05 12.08L4 15.28H5.78M13.88 19.5V17H8.25V19.5M13.88 15.75V12.63H12V15.75M13.88 11.38V8.25H12V11.38M13.88 7V4.5H8.25V7M20.75 19.5V17H15.13V19.5M20.75 15.75V12.63H15.13V15.75M20.75 11.38V8.25H15.13V11.38M20.75 7V4.5H15.13V7H20.75Z"></path>
  </symbol>
</svg>