<svg width="0" height="0" class="hidden">
  <symbol xmlns="http://www.w3.org/2000/svg" viewBox="0 0 20 20" id="eye">
    <path d="M19.3203 9.75C19.2969 9.6875 18.6328 8.21875 17.1641 6.74219C15.2031 4.78906 12.7266 3.75 10 3.75C7.27345 3.75 4.79689 4.78906 2.83595 6.74219C1.3672 8.21875 0.703138 9.6875 0.6797 9.75C0.64482 9.82873 0.626801 9.91389 0.626801 10C0.626801 10.0861 0.64482 10.1713 0.6797 10.25C0.703138 10.3125 1.3672 11.7812 2.83595 13.2578C4.79689 15.2109 7.27345 16.25 10 16.25C12.7266 16.25 15.2031 15.2109 17.1641 13.2578C18.6328 11.7812 19.2969 10.3125 19.3203 10.25C19.3552 10.1713 19.3732 10.0861 19.3732 10C19.3732 9.91389 19.3552 9.82873 19.3203 9.75ZM10 15C7.59376 15 5.4922 14.125 3.75783 12.3984C3.04105 11.6925 2.43288 10.8843 1.95314 10C2.43223 9.11298 3.04043 8.30205 3.75783 7.59375C5.4922 5.875 7.59376 5 10 5C12.4063 5 14.5078 5.875 16.2422 7.59375C16.9596 8.30205 17.5678 9.11298 18.0469 10C17.4844 11.0547 15.0313 15 10 15ZM10 6.25C9.25833 6.25 8.53331 6.46993 7.91662 6.88199C7.29994 7.29404 6.81929 7.87971 6.53547 8.56494C6.25164 9.25016 6.17737 10.0042 6.32207 10.7316C6.46676 11.459 6.82392 12.1272 7.34836 12.6517C7.87281 13.1761 8.541 13.5333 9.26842 13.6779C9.99585 13.8226 10.7499 13.7484 11.4351 13.4645C12.1203 13.1807 12.706 12.7001 13.118 12.0834C13.5301 11.4667 13.75 10.7417 13.75 10C13.75 9.00544 13.3549 8.05161 12.6517 7.34835C11.9484 6.64509 10.9946 6.25 10 6.25ZM10 12.5C9.50556 12.5 9.02221 12.3534 8.61109 12.0787C8.19997 11.804 7.87953 11.4135 7.69031 10.9567C7.50109 10.4999 7.45159 9.99723 7.54805 9.51227C7.64451 9.02732 7.88261 8.58186 8.23225 8.23223C8.58188 7.8826 9.02734 7.6445 9.51229 7.54804C9.99724 7.45157 10.4999 7.50108 10.9567 7.6903C11.4135 7.87952 11.804 8.19995 12.0787 8.61107C12.3534 9.0222 12.5 9.50555 12.5 10C12.498 10.6624 12.2339 11.2971 11.7655 11.7655C11.2971 12.2339 10.6624 12.4979 10 12.5Z"></path>
  </symbol>
</svg>