<svg width="0" height="0" class="hidden">
  <symbol xmlns="http://www.w3.org/2000/svg" viewBox="0 0 20 20" id="eye-closed">
    <path d="M18.0391 12.7183C18.1214 12.8614 18.1438 13.0312 18.1014 13.1908C18.0589 13.3503 17.9551 13.4866 17.8125 13.5698C17.7183 13.6269 17.6101 13.6567 17.5 13.6558C17.3893 13.6568 17.2804 13.6284 17.1843 13.5735C17.0882 13.5186 17.0084 13.4391 16.9531 13.3433L15.5156 10.8589C14.6721 11.4263 13.7439 11.8561 12.7656 12.1323L13.2187 14.7027C13.2461 14.8661 13.2083 15.0338 13.1133 15.1697C13.0183 15.3056 12.8739 15.3988 12.7109 15.4292H12.6016C12.4545 15.4297 12.3119 15.3782 12.199 15.2839C12.0861 15.1895 12.0101 15.0584 11.9844 14.9136L11.5391 12.3823C11.0295 12.4583 10.5152 12.4975 10 12.4995C9.48243 12.4998 8.9655 12.4632 8.45312 12.3902L8.00781 14.9214C7.98207 15.0662 7.90606 15.1974 7.79317 15.2917C7.68027 15.386 7.53773 15.4375 7.39062 15.437H7.28125C7.11831 15.4066 6.97383 15.3134 6.87887 15.1775C6.78391 15.0417 6.74605 14.874 6.77343 14.7105L7.23437 12.1323C6.25298 11.8579 5.32191 11.428 4.47656 10.8589L3.03125 13.3589C2.97541 13.4526 2.8966 13.5304 2.80227 13.5851C2.70793 13.6398 2.6012 13.6695 2.49218 13.6714C2.38266 13.671 2.27516 13.6419 2.18046 13.5868C2.08575 13.5318 2.00716 13.4529 1.95257 13.358C1.89797 13.263 1.86929 13.1554 1.86939 13.0459C1.86948 12.9363 1.89836 12.8288 1.95312 12.7339L3.47656 10.0933C2.9442 9.63672 2.45514 9.13198 2.01562 8.58547C1.96368 8.52214 1.92486 8.4491 1.90143 8.37062C1.87801 8.29213 1.87043 8.20977 1.87916 8.12833C1.88789 8.04689 1.91273 7.968 1.95226 7.89626C1.99178 7.82451 2.04519 7.76136 2.10937 7.71047C2.17222 7.65809 2.24485 7.61873 2.32304 7.59467C2.40124 7.57061 2.48343 7.56234 2.56485 7.57034C2.64627 7.57833 2.72529 7.60244 2.79731 7.64125C2.86933 7.68006 2.93292 7.7328 2.98437 7.79641C3.47341 8.4061 4.03187 8.95669 4.64843 9.43703H4.65625C6.18183 10.6271 8.06522 11.2659 10 11.2495C12.2891 11.2495 14.0469 10.4448 15.3359 9.44484H15.3516C15.9681 8.96451 16.5266 8.41391 17.0156 7.80422C17.0665 7.74004 17.1297 7.68663 17.2014 7.64711C17.2731 7.60758 17.352 7.58273 17.4335 7.57401C17.5149 7.56528 17.5973 7.57285 17.6758 7.59628C17.7543 7.61971 17.8273 7.65853 17.8906 7.71047C17.9548 7.76136 18.0082 7.82451 18.0477 7.89626C18.0873 7.968 18.1121 8.04689 18.1208 8.12833C18.1296 8.20977 18.122 8.29213 18.0986 8.37062C18.0751 8.4491 18.0363 8.52214 17.9844 8.58547C17.5448 9.13198 17.0558 9.63672 16.5234 10.0933L18.0391 12.7183Z"></path>
  </symbol>
</svg>