<svg width="0" height="0" class="hidden">
  <symbol xmlns="http://www.w3.org/2000/svg" viewBox="0 0 22 22" id="food">
    <path d="M7.73438 4.125V1.375C7.73438 1.23825 7.7887 1.1071 7.8854 1.0104C7.9821 0.9137 8.11325 0.859375 8.25 0.859375C8.38675 0.859375 8.51791 0.9137 8.6146 1.0104C8.7113 1.1071 8.76563 1.23825 8.76563 1.375V4.125C8.76563 4.26175 8.7113 4.3929 8.6146 4.4896C8.51791 4.5863 8.38675 4.64062 8.25 4.64062C8.11325 4.64062 7.9821 4.5863 7.8854 4.4896C7.7887 4.3929 7.73438 4.26175 7.73438 4.125ZM11 4.64062C11.1368 4.64062 11.2679 4.5863 11.3646 4.4896C11.4613 4.3929 11.5156 4.26175 11.5156 4.125V1.375C11.5156 1.23825 11.4613 1.1071 11.3646 1.0104C11.2679 0.9137 11.1368 0.859375 11 0.859375C10.8632 0.859375 10.7321 0.9137 10.6354 1.0104C10.5387 1.1071 10.4844 1.23825 10.4844 1.375V4.125C10.4844 4.26175 10.5387 4.3929 10.6354 4.4896C10.7321 4.5863 10.8632 4.64062 11 4.64062ZM13.75 4.64062C13.8868 4.64062 14.0179 4.5863 14.1146 4.4896C14.2113 4.3929 14.2656 4.26175 14.2656 4.125V1.375C14.2656 1.23825 14.2113 1.1071 14.1146 1.0104C14.0179 0.9137 13.8868 0.859375 13.75 0.859375C13.6133 0.859375 13.4821 0.9137 13.3854 1.0104C13.2887 1.1071 13.2344 1.23825 13.2344 1.375V4.125C13.2344 4.26175 13.2887 4.3929 13.3854 4.4896C13.4821 4.5863 13.6133 4.64062 13.75 4.64062ZM21.6219 8.6625L19.0781 10.5703V15.8125C19.0781 16.4963 18.8065 17.152 18.323 17.6355C17.8395 18.119 17.1838 18.3906 16.5 18.3906H5.5C4.81624 18.3906 4.16048 18.119 3.67699 17.6355C3.1935 17.152 2.92188 16.4963 2.92188 15.8125V10.5703L0.378127 8.6625C0.268725 8.58045 0.196399 8.4583 0.177059 8.32292C0.15772 8.18754 0.192951 8.05003 0.275002 7.94063C0.357053 7.83122 0.479204 7.7589 0.614582 7.73956C0.74996 7.72022 0.887475 7.75545 0.996877 7.8375L2.92188 9.28125V7.5625C2.92188 7.24341 3.04863 6.93739 3.27426 6.71176C3.49989 6.48613 3.80591 6.35938 4.125 6.35938H17.875C18.1941 6.35938 18.5001 6.48613 18.7257 6.71176C18.9514 6.93739 19.0781 7.24341 19.0781 7.5625V9.28125L21.0031 7.8375C21.1125 7.75545 21.25 7.72022 21.3854 7.73956C21.5208 7.7589 21.643 7.83122 21.725 7.94063C21.8071 8.05003 21.8423 8.18754 21.8229 8.32292C21.8036 8.4583 21.7313 8.58045 21.6219 8.6625ZM18.0469 7.5625C18.0469 7.51692 18.0288 7.4732 17.9965 7.44097C17.9643 7.40873 17.9206 7.39062 17.875 7.39062H4.125C4.07942 7.39062 4.0357 7.40873 4.00347 7.44097C3.97124 7.4732 3.95313 7.51692 3.95313 7.5625V15.8125C3.95313 16.2228 4.1161 16.6162 4.4062 16.9063C4.69629 17.1964 5.08975 17.3594 5.5 17.3594H16.5C16.9103 17.3594 17.3037 17.1964 17.5938 16.9063C17.8839 16.6162 18.0469 16.2228 18.0469 15.8125V7.5625Z" ></path>
  </symbol>
</svg>