<svg width="0" height="0" class="hidden">
  <symbol xmlns="http://www.w3.org/2000/svg" viewBox="0 0 24 24" id="heart">
    <path d="M19.4048 5.52713C18.9072 5.04367 18.3155 4.65987 17.6636 4.39779C17.0117 4.13571 16.3126 4.00052 15.6064 4C14.2706 4.00021 12.9836 4.48432 12.0002 5.35648C11.0169 4.48417 9.72986 4.00004 8.39404 4C7.68701 4.00071 6.9871 4.13631 6.3346 4.39899C5.6821 4.66168 5.08988 5.04626 4.59203 5.53061C2.46857 7.58796 2.46947 10.8059 4.59384 12.8545L12.0002 20L19.4066 12.8545C21.531 10.8059 21.5319 7.58796 19.4048 5.52713Z" ></path>
    <path d="M12.0004 5.38535L12.3361 5.75594C13.2268 4.94915 14.3939 4.50025 15.6065 4.5C16.2478 4.50051 16.8824 4.6259 17.474 4.86878C18.0656 5.11169 18.6021 5.46721 19.0529 5.91456L19.0534 5.91498C20.9825 7.82458 20.9811 10.7901 19.056 12.6869L12.3642 19.2802L12.3359 19.308L12.3124 19.3401C12.2769 19.3882 12.23 19.4282 12.1749 19.4563C12.1205 19.484 12.0599 19.499 11.9979 19.5C11.8279 19.4992 11.7029 19.415 11.6438 19.3126L11.6099 19.2539L11.5617 19.2064L4.94479 12.6869L4.94471 12.6868C3.01947 10.7907 3.01771 7.82436 4.94374 5.91861L4.94374 5.91861L4.94447 5.91788C5.39557 5.46968 5.93258 5.11341 6.52479 4.86993C7.11693 4.62647 7.75234 4.50069 8.39439 4.5C9.60698 4.5001 10.7741 4.94901 11.6647 5.75589L12.0004 5.38535ZM18.4818 12.1419L18.4819 12.1418C20.0908 10.5555 20.0883 8.05354 18.4809 6.46167L18.129 6.81694L18.4791 6.45996C16.9224 4.93323 14.2986 4.9287 12.7391 6.4622L12.7387 6.46255L12.2875 6.90715L12.2872 6.90744C12.2502 6.94393 12.2059 6.97326 12.1566 6.99341C12.1073 7.01356 12.0542 7.02402 12.0004 7.02402C11.9466 7.02402 11.8935 7.01356 11.8442 6.99341C11.7949 6.97326 11.7505 6.94393 11.7136 6.90744L11.7133 6.90715L11.262 6.46255C10.4896 5.70151 9.47078 5.27837 8.39415 5.27837C7.31765 5.27837 6.29566 5.70139 5.51816 6.46341L5.51816 6.4634L5.51631 6.46523C3.91217 8.05388 3.91029 10.5558 5.51891 12.1418L5.51903 12.1419L11.6495 18.1821L12.0004 18.5279L12.3513 18.1821L18.4818 12.1419Z" ></path>
  </symbol>
  <!-- <symbol xmlns="http://www.w3.org/2000/svg" viewBox="0 0 24 24" id="heart">
    <path d="M12.0004 5.38535C11.0171 4.49448 9.72998 4.00004 8.39415 4C7.6871 4.00073 6.98718 4.13921 6.33466 4.40749C5.68215 4.67576 5.08992 5.06853 4.59206 5.56319C2.46856 7.66433 2.46946 10.9508 4.59387 13.043L11.2107 19.5625C11.3642 19.8284 11.6602 20 12.0004 20C12.1401 19.9987 12.2775 19.9651 12.4017 19.9019C12.5258 19.8387 12.6332 19.7478 12.7151 19.6363L19.4069 13.043C21.5313 10.9499 21.5313 7.66433 19.4051 5.55963C18.9075 5.06588 18.3158 4.67391 17.6639 4.40625C17.012 4.1386 16.3129 4.00053 15.6066 4C14.2708 4.00022 12.9838 4.49463 12.0004 5.38535ZM18.129 6.81694C19.5396 8.21385 19.5405 10.3959 18.1308 11.7857L12.0004 17.8259L5.86995 11.7857C4.4603 10.3959 4.4612 8.21385 5.86815 6.8205C6.55402 6.14827 7.45107 5.77837 8.39415 5.77837C9.33722 5.77837 10.2307 6.14827 10.9111 6.81872L11.3624 7.26331C11.4461 7.34596 11.5455 7.41152 11.655 7.45626C11.7645 7.50099 11.8819 7.52402 12.0004 7.52402C12.1189 7.52402 12.2363 7.50099 12.3458 7.45626C12.4552 7.41152 12.5547 7.34596 12.6384 7.26331L13.0897 6.81872C14.4542 5.47694 16.7663 5.48049 18.129 6.81694Z" ></path>
  </symbol> -->
</svg>