<svg width="0" height="0" class="hidden">
  <symbol xmlns="http://www.w3.org/2000/svg" viewBox="0 0 24 24" id="save">
    <path d="M5 21H19C19.5304 21 20.0391 20.7893 20.4142 20.4142C20.7893 20.0392 21 19.5305 21 19V8.00002C21.0008 7.86841 20.9755 7.73795 20.9258 7.61611C20.876 7.49427 20.8027 7.38346 20.71 7.29002L16.71 3.29002C16.6166 3.19734 16.5057 3.12401 16.3839 3.07425C16.2621 3.02448 16.1316 2.99926 16 3.00002H5C4.46957 3.00002 3.96086 3.21073 3.58579 3.5858C3.21071 3.96088 3 4.46958 3 5.00002V19C3 19.5305 3.21071 20.0392 3.58579 20.4142C3.96086 20.7893 4.46957 21 5 21ZM15 19H9V14H15V19ZM13 7.00002H11V5.00002H13V7.00002ZM5 5.00002H7V9.00002H15V5.00002H15.59L19 8.41002V19H17V14C17 13.4696 16.7893 12.9609 16.4142 12.5858C16.0391 12.2107 15.5304 12 15 12H9C8.46957 12 7.96086 12.2107 7.58579 12.5858C7.21071 12.9609 7 13.4696 7 14V19H5V5.00002Z"></path>
  </symbol>
</svg>
