<?xml version="1.0" ?><svg width="512px" height="512px" viewBox="0 0 512 512" id="Layer_1" style="enable-background:new 0 0 512 512;" version="1.1" xml:space="preserve" xmlns="http://www.w3.org/2000/svg" xmlns:xlink="http://www.w3.org/1999/xlink"><style type="text/css">
	.st0{fill:#231F20;}
</style><g><path class="st0" d="M256,70.1c-76,0-137.8,61.8-137.8,137.8c0,31.3,22.1,79.8,65.6,144.1c31.9,47,64.2,85.9,64.5,86.3   c1.9,2.3,4.7,3.6,7.7,3.6s5.8-1.3,7.7-3.6c0.3-0.4,32.6-39.3,64.5-86.3c43.6-64.3,65.6-112.8,65.6-144.1   C393.8,131.9,332,70.1,256,70.1z M311.7,340.6c-22.1,32.6-44.4,61.2-55.7,75.4c-11.4-14.2-33.7-42.8-55.7-75.4   c-40.6-60-62.1-105.9-62.1-132.7c0-65,52.9-117.8,117.8-117.8s117.8,52.9,117.8,117.8C373.8,234.8,352.4,280.6,311.7,340.6z"/><path class="st0" d="M256,134.9c-40.3,0-73,32.7-73,73s32.7,73,73,73s73-32.7,73-73S296.3,134.9,256,134.9z M256,260.9   c-29.2,0-53-23.8-53-53s23.8-53,53-53s53,23.8,53,53S285.2,260.9,256,260.9z"/><path class="st0" d="M266,197.9v-22.5c0-5.5-4.5-10-10-10s-10,4.5-10,10v22.5h-22.5c-5.5,0-10,4.5-10,10s4.5,10,10,10H246v22.5   c0,5.5,4.5,10,10,10s10-4.5,10-10v-22.5h22.5c5.5,0,10-4.5,10-10s-4.5-10-10-10H266z"/></g></svg>