<?xml version="1.0" encoding="utf-8"?>
<!-- Uploaded to SVGRepo https://www.svgrepo.com -->
<svg version="1.2" baseProfile="tiny" id="Layer_1" xmlns="http://www.w3.org/2000/svg" xmlns:xlink="http://www.w3.org/1999/xlink"
	 x="0px" y="0px" viewBox="0 0 256 256" xml:space="preserve">
<path id="XMLID_8_" fill="none" d="M80.5,115.8V43.2c0-2.7-2.2-5-5-5H22.3c-2.7,0-5,2.2-5,5v72.6c0,2.7,2.2,5,5,5h53.3
	C78.3,120.8,80.5,118.6,80.5,115.8z"/>
<path id="XMLID_7_" fill="none" d="M90,171.4l-32.3,0l0-0.2c-1-0.2-2.3-0.8-3.8-2.2c-1.9-1.7-1.8-5.2-1.8-5.3l0-38.4h-6.3v38.2
	c0,0.1-0.3,6.2,3.8,10c4.4,4.1,8.7,4.1,10.1,4l30.3,0v0h33v-6.1H90V171.4z"/>
<g>
	<path id="XMLID_6_" d="M23.8,60.2v0.3c0-0.1,0.1-0.2,0.1-0.3H23.8z"/>
	<path id="XMLID_5_" d="M23.7,60.6C23.7,60.6,23.8,60.6,23.7,60.6L23.7,60.6C23.8,60.5,23.7,60.5,23.7,60.6z"/>
</g>
<g id="XMLID_10_">
	<circle id="XMLID_11_" cx="171" cy="78.4" r="29.6"/>
	<path id="XMLID_14_" d="M206.8,113h-68.2c-21.1,0-41.7,14.4-41.7,38.9V169l-38.2,0.1l0,0c-0.3,0-1.6-0.1-3.3-1.7
		c-0.9-0.8-1.1-2.9-1-3.4l0-34.4l21,0c7.5,0,13.5-6.1,13.5-13.6V43.2C89,35.7,83.1,30,75.6,30H54.4c2.2-5,3-11.3,3-12.4
		c0-4.8-4.1-8.8-9.1-8.8s-9.1,4.1-9.1,8.8c0,1,0.8,7.3,3,12.3h-20C14.8,30,9,35.7,9,43.2v72.6c0,7.5,6,13.6,13.5,13.6l21,0l0,34.2
		c0,0.3-0.4,7.2,4.5,11.8c4.4,4.1,8.7,4.6,11,4.6c0.4,0,0.7-0.1,0.8-0.1H97v45c0,18,24,18,24,0v-45h4v-11h-4v-15h11.9l0.1,94h79.7
		l-0.1-94H225v70c0,18,23,18,23,0v-72.1C248,126.9,228,113,206.8,113z M48.4,14.8c1.7,0,3,1.2,3,2.6c0,2.3-1.6,8.4-3,10.8
		c-1.4-2.4-3-8.4-3-10.8C45.3,16,46.7,14.8,48.4,14.8z M24,60.2c-0.1,0.1,0,0.2,0,0.3v0.1v49.2c0,3.6,1.5,5.2,5.1,5.2h11.4l2.4,6
		H22.3c-2.7,0-5.3-2.4-5.3-5.2V43.2c0-2.7,2.6-5.2,5.3-5.2h53.3c2.7,0,5.4,2.5,5.4,5.2v72.6c0,2.7-2.7,5.2-5.4,5.2H55.7l2.4-6H69
		c3.6,0,5.4-1.7,5.4-5.3l0-49.2c0-0.1-13.2,3-25.8-0.2C36,57.1,24,60.2,24,60.2z M123,171.5v6.1l-63.3,0c-1.4,0.1-5.6,0.1-10-4
		c-4.1-3.8-3.7-9.9-3.7-10V157h6v6.8c0,0,0,3.5,1.9,5.3c1.5,1.4,2.9,2,3.8,2.2l0,0.2L123,171.5z"/>
</g>
</svg>
