<?xml version="1.0" ?><!DOCTYPE svg  PUBLIC '-//W3C//DTD SVG 1.1//EN'  'http://www.w3.org/Graphics/SVG/1.1/DTD/svg11.dtd'><svg width="100px" height="100px" viewBox="0 0 100 100" enable-background="new 0 0 100 100" id="Layer_1" version="1.1" xml:space="preserve" xmlns="http://www.w3.org/2000/svg" xmlns:xlink="http://www.w3.org/1999/xlink"><g><path d="M58.7,36.3c2.4-2.4,3.7-5.5,3.7-8.9c0-3.4-1.3-6.5-3.7-8.9s-5.5-3.7-8.9-3.7c-3.4,0-6.5,1.3-8.9,3.7L20.2,39.3   c-2.4,2.4-3.7,5.5-3.7,8.9s1.3,6.5,3.7,8.9c2.4,2.4,5.5,3.7,8.9,3.7c3.4,0,6.5-1.3,8.9-3.7L58.7,36.3z M26.6,38.6l1.9-1.9v20   c-0.7,0-1.3-0.2-1.9-0.3V38.6z M32.5,33.6l2.5,2.5v18.2c-0.7,0.7-1.6,1.3-2.5,1.7V33.6z M41,48.3l-2,2V40.1l2,2V48.3z M43.8,21.3   c1.6-1.6,3.8-2.5,6-2.5c2.3,0,4.4,0.9,6,2.5c1.6,1.6,2.5,3.8,2.5,6c0,2.3-0.9,4.4-2.5,6l-9,9L34.9,30.3L43.8,21.3z M22.6,42.7v11   c-1.3-1.5-2-3.5-2-5.5S21.3,44.2,22.6,42.7z"/><path d="M70.9,39.3c-3.4,0-6.5,1.3-8.9,3.7L41.3,63.7c-2.4,2.4-3.7,5.5-3.7,8.9c0,3.4,1.3,6.5,3.7,8.9s5.5,3.7,8.9,3.7   c3.4,0,6.5-1.3,8.9-3.7l20.8-20.8c2.4-2.4,3.7-5.5,3.7-8.9s-1.3-6.5-3.7-8.9C77.4,40.6,74.3,39.3,70.9,39.3z M62,72.8l-2,2V64.6   l2,2V72.8z M56,78.8c-0.7,0.7-1.6,1.3-2.5,1.7V58.1l2.5,2.5V78.8z M47.6,63.1l1.9-1.9v20c-0.7,0-1.3-0.2-1.9-0.3V63.1z M43.6,67.1   v11c-1.3-1.5-2-3.5-2-5.5C41.6,70.6,42.3,68.6,43.6,67.1z M77,57.9l-9,9L55.9,54.8l9-9c1.6-1.6,3.8-2.5,6-2.5c2.3,0,4.4,0.9,6,2.5   c1.6,1.6,2.5,3.8,2.5,6S78.6,56.3,77,57.9z"/></g></svg>