<?xml version="1.0" ?><svg width="512px" height="512px" viewBox="0 0 512 512" id="Layer_1" style="enable-background:new 0 0 512 512;" version="1.1" xml:space="preserve" xmlns="http://www.w3.org/2000/svg" xmlns:xlink="http://www.w3.org/1999/xlink"><style type="text/css">
	.st0{fill:none;stroke:#000000;stroke-width:15;stroke-linejoin:round;stroke-miterlimit:10;}
	.st1{fill:#FFFFFF;stroke:#000000;stroke-width:15;stroke-linejoin:round;stroke-miterlimit:10;}
	.st2{fill:#FFFFFF;stroke:#000000;stroke-width:10;stroke-linecap:round;stroke-linejoin:round;stroke-miterlimit:10;}
	.st3{fill:#FFFFFF;stroke:#000000;stroke-width:15;stroke-linecap:round;stroke-linejoin:round;stroke-miterlimit:10;}
	.st4{fill:none;stroke:#000000;stroke-width:15;stroke-linecap:round;stroke-linejoin:round;stroke-miterlimit:10;}
	.st5{fill:none;stroke:#000000;stroke-width:10;stroke-linecap:round;stroke-linejoin:round;stroke-miterlimit:10;}
	.st6{fill:#FFFFFF;stroke:#000000;stroke-width:8;stroke-linecap:round;stroke-linejoin:round;stroke-miterlimit:10;}
	.st7{fill:#FFFFFF;stroke:#000000;stroke-width:10;stroke-linejoin:round;stroke-miterlimit:10;}
	.st8{fill:#FFFFFF;stroke:#000000;stroke-width:12;stroke-linecap:round;stroke-linejoin:round;stroke-miterlimit:10;}
	.st9{fill:none;stroke:#000000;stroke-width:8;stroke-linecap:round;stroke-linejoin:round;stroke-miterlimit:10;}
	.st10{fill:none;stroke:#000000;stroke-width:7;stroke-linecap:round;stroke-linejoin:round;stroke-miterlimit:10;}
	.st11{fill:none;stroke:#000000;stroke-width:12;stroke-linejoin:round;stroke-miterlimit:10;}
	.st12{fill:#FFFFFF;stroke:#000000;stroke-width:10;stroke-miterlimit:10;}
	.st13{fill:none;stroke:#000000;stroke-width:12;stroke-linecap:round;stroke-linejoin:round;stroke-miterlimit:10;}
	.st14{fill:none;stroke:#000000;stroke-width:10;stroke-linejoin:round;stroke-miterlimit:10;}
	.st15{fill:#FFFFFF;stroke:#000000;stroke-width:15;stroke-miterlimit:10;}
	.st16{fill:#FFFFFF;stroke:#000000;stroke-width:15;stroke-linecap:round;stroke-miterlimit:10;}
</style><g><g><g><path d="M148.5,153h-50c-6.9,0-12.5-5.6-12.5-12.5c0-15.2,12.3-27.5,27.5-27.5h20c15.2,0,27.5,12.3,27.5,27.5     C161,147.4,155.4,153,148.5,153z M101.3,138h44.5c-1.2-5.7-6.2-10-12.2-10h-20C107.5,128,102.4,132.3,101.3,138z"/></g><g><path d="M413.5,153h-50c-6.9,0-12.5-5.6-12.5-12.5c0-15.2,12.3-27.5,27.5-27.5h20c15.2,0,27.5,12.3,27.5,27.5     C426,147.4,420.4,153,413.5,153z M366.3,138h44.5c-1.2-5.7-6.2-10-12.2-10h-20C372.5,128,367.4,132.3,366.3,138z"/></g></g><g><path d="M415.5,429h-23c-4.1,0-7.5-3.4-7.5-7.5s3.4-7.5,7.5-7.5h23c21.5,0,39-17.5,39-39V192c0-21.5-17.5-39-39-39h-319    c-21.5,0-39,17.5-39,39V375c0,21.5,17.5,39,39,39H361c4.1,0,7.5,3.4,7.5,7.5s-3.4,7.5-7.5,7.5H96.5c-29.8,0-54-24.2-54-54V192    c0-29.8,24.2-54,54-54h319c29.8,0,54,24.2,54,54V375C469.5,404.8,445.3,429,415.5,429z"/></g><g><g><path d="M282.9,357h-53.7c-4.1,0-7.5-3.4-7.5-7.5v-33h-33c-4.1,0-7.5-3.4-7.5-7.5v-53.7c0-4.1,3.4-7.5,7.5-7.5h33v-33     c0-4.1,3.4-7.5,7.5-7.5h53.7c4.1,0,7.5,3.4,7.5,7.5v33h33c4.1,0,7.5,3.4,7.5,7.5V309c0,4.1-3.4,7.5-7.5,7.5h-33v33     C290.4,353.6,287,357,282.9,357z M236.6,342h38.7v-33c0-4.1,3.4-7.5,7.5-7.5h33v-38.7h-33c-4.1,0-7.5-3.4-7.5-7.5v-33h-38.7v33     c0,4.1-3.4,7.5-7.5,7.5h-33v38.7h33c4.1,0,7.5,3.4,7.5,7.5V342z"/></g></g><g><path d="M336.5,153h-43v-23c0-2.8-2.2-5-5-5h-67c-2.8,0-5,2.2-5,5v23h-41v-30.5c0-21.8,17.7-39.5,39.5-39.5h82    c21.8,0,39.5,17.7,39.5,39.5V153z M308.5,138h13v-15.5c0-13.5-11-24.5-24.5-24.5h-82c-13.5,0-24.5,11-24.5,24.5V138h11v-8    c0-11,9-20,20-20h67c11,0,20,9,20,20V138z"/></g></g></svg>