<?xml version="1.0" encoding="utf-8"?>
<!-- Uploaded to SVGRepo https://www.svgrepo.com -->
<svg version="1.2" baseProfile="tiny" id="Layer_1" xmlns="http://www.w3.org/2000/svg" xmlns:xlink="http://www.w3.org/1999/xlink"
	 x="0px" y="0px" viewBox="0 0 256 256" xml:space="preserve">
<path id="XMLID_12_" d="M43.4,143.9c0-9.3,7.6-16.9,16.9-16.9c9.3,0,16.9,7.5,16.9,16.9c0,9.3-7.6,16.9-16.9,16.9
	C51,160.8,43.4,153.3,43.4,143.9 M84.5,133.6v48.8h135.7l0-35.7c-0.1-7.4-6.1-13.2-13.5-13.2L84.5,133.6z M68.9,182.4
	c4.6,0,8.3-3.7,8.3-8.3c0-4.6-3.7-8.3-8.3-8.3h-24c-4.6,0-8.3,3.7-8.3,8.3c0,4.6,3.7,8.3,8.3,8.3H68.9z M228.3,217.5v37.2h22V136.8
	c0-6.1-4.9-11-11-11c-6.1,0-11,4.9-11,11v54.1H30.6v-76.4c0-6.1-5.3-11-11.4-11v0c-6.1,0-10.8,4.9-10.8,11v140.2h22.2v-37.2H228.3z
	 M158.5,2c-7.3,0-17.6,2.9-25,10.4l8.8,16.1c3.8-4.8,9.6-7.9,16.2-7.9c6.7,0,12.6,3.1,16.4,8l8.7-16.6C177.1,5,165.5,2,158.5,2
	 M156,13.9h-4.9V8.9h4.9V4h4.9v4.9h4.9v4.9h-4.9v4.9H156V13.9z M174.3,42.3c0-8.8-7.1-15.9-15.9-15.9c-8.8,0-15.9,7.1-15.9,15.9
	c0,8.8,7.1,15.9,15.9,15.9C167.2,58.2,174.3,51.1,174.3,42.3 M143.2,62.8c-11.1,0.1-17.5,9.1-19,14.2l-13.5,44.4h13.7l10-34.1h7.1
	l-9.9,34h53.9l-9.9-34h7.1l10.2,34.1h13.5l-13.6-44.4c-1.4-5-7.7-13.9-18.6-14.1L143.2,62.8z M42,73c19.5,0,35.3-15.8,35.3-35.3
	C77.3,18.1,61.5,2.3,42,2.3C22.5,2.3,6.7,18.1,6.7,37.6C6.7,57.1,22.5,73,42,73 M42,64.2c-14.7,0-26.6-11.9-26.6-26.6
	C15.4,23,27.3,11,42,11C56.7,11,68.6,23,68.6,37.6C68.6,52.3,56.7,64.2,42,64.2 M59.6,34c1.3-0.6,1.9-2.2,1.3-3.5
	c-0.6-1.3-2.2-1.9-3.5-1.3l-13.6,6.4V19.7c0-1.5-1.2-2.7-2.7-2.7c-1.5,0-2.7,1.2-2.7,2.7l0,20.5c0.1,0.7,0.5,1.4,1.2,1.8
	c0.8,0.5,1.8,0.6,2.5,0.2L59.6,34z"/>
</svg>
