<?xml version="1.0" ?><svg width="34.018px" height="34.018px" viewBox="-8.76 0 34.018 34.018" xmlns="http://www.w3.org/2000/svg"><g transform="translate(-617.424 -385.057)"><path d="M625.673,419.075a8.247,8.247,0,0,1-8.249-8.226V386.057a1,1,0,0,1,2,0v24.792a6.249,6.249,0,0,0,12.5,0V386.057a1,1,0,0,1,2,0v24.792A8.246,8.246,0,0,1,625.673,419.075Z"/><path d="M621.572,391.337h-3.148a1,1,0,0,1,0-2h3.148a1,1,0,0,1,0,2Z"/><path d="M621.572,400.656h-3.148a1,1,0,0,1,0-2h3.148a1,1,0,0,1,0,2Z"/><path d="M621.572,409.545h-3.148a1,1,0,0,1,0-2h3.148a1,1,0,0,1,0,2Z"/></g></svg>