<?xml version="1.0" encoding="iso-8859-1"?>
<!-- Generator: Adobe Illustrator 19.0.0, SVG Export Plug-In . SVG Version: 6.00 Build 0)  -->
<svg version="1.1" id="Layer_1" xmlns="http://www.w3.org/2000/svg" xmlns:xlink="http://www.w3.org/1999/xlink" x="0px" y="0px"
	 viewBox="0 0 490 490" style="enable-background:new 0 0 490 490;" xml:space="preserve">
<g>
	<g>
		<path d="M447.348,115.8c-4-5.8-28.2-44.1,0.5-82.5c6.2-6.2,9.6-30.7-15.6-33.3h-320.4c-41.6,0-74.9,34.3-74.9,74.9
			c0,4.2,1,325.6,1,325.6c0,48.9,40.6,89.5,89.5,89.5h304.8c10.4,0,19.8-9.4,20.8-19.8V130
			C453.148,124.5,450.948,119.5,447.348,115.8z M111.848,41.6h286.1c-7.3,25-5.2,48.9,1,67.6h-287.1c-17.7,0-33.3-14.6-33.3-33.3
			S94.248,41.6,111.848,41.6z M128.548,449.4c-27,0-48.9-21.8-48.9-48.9V142.4c9.8,4.7,20.8,7.4,32.3,7.4h299.6v299.6H128.548z"/>
		<path d="M325.648,283h-64v-64c0-9.5-7.7-17.2-17.2-17.2l0,0c-9.5,0-17.2,7.7-17.2,17.2v64h-64c-9.5,0-17.2,7.7-17.2,17.2l0,0
			c0,9.5,7.7,17.2,17.2,17.2h64v64c0,9.5,7.7,17.2,17.2,17.2l0,0c9.5,0,17.2-7.7,17.2-17.2v-64h64c9.5,0,17.2-7.7,17.2-17.2l0,0
			C342.848,290.7,335.148,283,325.648,283z"/>
	</g>
</g>
<g>
</g>
<g>
</g>
<g>
</g>
<g>
</g>
<g>
</g>
<g>
</g>
<g>
</g>
<g>
</g>
<g>
</g>
<g>
</g>
<g>
</g>
<g>
</g>
<g>
</g>
<g>
</g>
<g>
</g>
</svg>
