<?xml version="1.0" ?><svg width="512px" height="512px" viewBox="0 0 512 512" id="fill" xmlns="http://www.w3.org/2000/svg"><title/><path d="M398.592,14H115.409A100.522,100.522,0,0,0,15,114.409V397.592A100.522,100.522,0,0,0,115.409,498H398.592A100.522,100.522,0,0,0,499,397.592V114.409A100.522,100.522,0,0,0,398.592,14ZM487,397.592A88.509,88.509,0,0,1,398.592,486H115.409A88.509,88.509,0,0,1,27,397.592V114.409A88.509,88.509,0,0,1,115.409,26H398.592A88.509,88.509,0,0,1,487,114.409Z"/><path d="M403.98,174H331V154.87A28.9,28.9,0,0,0,302.13,126H209.87A28.9,28.9,0,0,0,181,154.87V174H108.02A25.048,25.048,0,0,0,83,199.02V360.979A25.049,25.049,0,0,0,108.02,386H403.98A25.049,25.049,0,0,0,429,360.979V199.02A25.048,25.048,0,0,0,403.98,174ZM170,186H342V374H170ZM158,374H132V186h26ZM354,186h26V374H354ZM193,154.87A16.889,16.889,0,0,1,209.87,138h92.26A16.889,16.889,0,0,1,319,154.87V174H193ZM95,360.979V199.02A13.035,13.035,0,0,1,108.02,186H120V374H108.02A13.035,13.035,0,0,1,95,360.979Zm322,0A13.035,13.035,0,0,1,403.98,374H392V186h11.98A13.035,13.035,0,0,1,417,199.02Z"/><path d="M303.12,244H292V232.88A19.9,19.9,0,0,0,272.12,213H239.88A19.9,19.9,0,0,0,220,232.88V244H208.88A19.9,19.9,0,0,0,189,263.88v32.24A19.9,19.9,0,0,0,208.88,316H220v11.12A19.9,19.9,0,0,0,239.88,347h32.24A19.9,19.9,0,0,0,292,327.12V316h11.12A19.9,19.9,0,0,0,323,296.12V263.88A19.9,19.9,0,0,0,303.12,244ZM311,296.12a7.889,7.889,0,0,1-7.88,7.88H286a6,6,0,0,0-6,6v17.12a7.889,7.889,0,0,1-7.88,7.88H239.88a7.889,7.889,0,0,1-7.88-7.88V310a6,6,0,0,0-6-6H208.88a7.889,7.889,0,0,1-7.88-7.88V263.88a7.889,7.889,0,0,1,7.88-7.88H226a6,6,0,0,0,6-6V232.88a7.889,7.889,0,0,1,7.88-7.88h32.24a7.889,7.889,0,0,1,7.88,7.88V250a6,6,0,0,0,6,6h17.12a7.889,7.889,0,0,1,7.88,7.88Z"/></svg>