<?xml version='1.0' encoding='utf-8'?>
<!DOCTYPE svg PUBLIC '-//W3C//DTD SVG 1.1//EN' 'http://www.w3.org/Graphics/SVG/1.1/DTD/svg11.dtd'>
<svg version="1.1" xmlns="http://www.w3.org/2000/svg" viewBox="0 0 512 512" xmlns:xlink="http://www.w3.org/1999/xlink" enable-background="new 0 0 512 512">
  <g>
    <g>
      <path d="m462.7,140h-92.1l99.1-71.7c9.1-6.6 11.2-19.4 4.6-28.5-6.6-9.1-19.4-11.2-28.5-4.6l-144.9,104.8h-251.6c-29.7,0.1-39.4,27.5-38.2,43.4 8.3,107.3 71.4,200 161.8,236.4-0.1,0-0.1,0.1-0.1,0.4v19.8c0,22.4 17.2,40.6 38.3,40.6h89.9c21.1,0 38.3-18.2 38.3-40.6l.2-20.2c90.3-36.5 154.8-129 161.5-236.3 1.1-18.8-10.6-43.8-38.3-43.5zm-139.6,242.3c-14.8,5.9-24.7,21.1-24.7,38l-.2,19.5h-84.5v-19.5c0-16.8-9.9-32.1-24.7-38-76.3-30.3-130-109.1-137-201.4h408.1c-6.9,92-60.6,171-137,201.4z"/>
      <path d="m208.2,312.1h27.4v27.4c0,11.3 9.1,20.4 20.4,20.4 11.3,0 20.4-9.1 20.4-20.4v-27.4h27.4c11.3,0 20.4-9.1 20.4-20.4s-9.1-20.4-20.4-20.4h-27.4v-27.4c0-11.3-9.1-20.4-20.4-20.4-11.3,0-20.4,9.1-20.4,20.4v27.4h-27.4c-11.3,0-20.4,9.1-20.4,20.4s9.1,20.4 20.4,20.4z"/>
    </g>
  </g>
</svg>
