<?xml version="1.0" encoding="iso-8859-1"?>
<!-- Generator: Adobe Illustrator 18.0.0, SVG Export Plug-In . SVG Version: 6.00 Build 0)  -->
<!DOCTYPE svg PUBLIC "-//W3C//DTD SVG 1.1//EN" "http://www.w3.org/Graphics/SVG/1.1/DTD/svg11.dtd">
<svg version="1.1" id="Capa_1" xmlns="http://www.w3.org/2000/svg" xmlns:xlink="http://www.w3.org/1999/xlink" x="0px" y="0px"
	 viewBox="0 0 488.656 488.656" style="enable-background:new 0 0 488.656 488.656;" xml:space="preserve">
<g>
	<path d="M332.928,111.802l-42.411-49.345h5.8c2.348,0,4.25-1.902,4.25-4.25V30.996C300.566,13.904,286.662,0,269.57,0h-50.484
		c-17.091,0-30.996,13.904-30.996,30.996v27.211c0,2.348,1.903,4.25,4.25,4.25h5.799l-42.411,49.345
		c-12.262,1.031-21.926,11.341-21.926,23.864v329.041c0,13.206,10.744,23.949,23.95,23.949h173.151
		c13.207,0,23.951-10.743,23.951-23.949V135.666C354.855,123.143,345.19,112.833,332.928,111.802z M142.302,388.92H278.44
		c2.348,0,4.25-1.902,4.25-4.25c0-2.348-1.902-4.25-4.25-4.25H142.302V212.344h204.053v5.01h-75.691c-2.348,0-4.25,1.902-4.25,4.25
		c0,2.348,1.902,4.25,4.25,4.25h75.691v171.984H142.302V388.92z M196.59,30.996c0-12.404,10.092-22.496,22.496-22.496h50.484
		c12.404,0,22.496,10.092,22.496,22.496v22.961h-11.599v-20.07c0-2.348-1.902-4.25-4.25-4.25c-2.348,0-4.25,1.902-4.25,4.25v20.07
		h-20.717v-36.07c0-2.348-1.902-4.25-4.25-4.25c-2.347,0-4.25,1.902-4.25,4.25v36.07h-22.283v-20.07c0-2.348-1.903-4.25-4.25-4.25
		c-2.347,0-4.25,1.902-4.25,4.25v20.07H196.59V30.996z M279.309,62.457l42.338,49.26H167.009l42.339-49.26H279.309z
		 M157.752,120.217c0.076,0,0.148-0.021,0.224-0.024c0.082,0.005,0.159,0.024,0.242,0.024h172.686
		c8.52,0,15.451,6.931,15.451,15.449v68.178H142.302v-68.178C142.302,127.147,149.233,120.217,157.752,120.217z M330.903,480.156
		H157.752c-8.519,0-15.45-6.931-15.45-15.449v-58.369h204.053v58.369C346.355,473.226,339.423,480.156,330.903,480.156z"/>
	<path d="M238.3,225.854h17.403c2.348,0,4.25-1.902,4.25-4.25c0-2.348-1.902-4.25-4.25-4.25H238.3c-2.347,0-4.25,1.902-4.25,4.25
		C234.05,223.951,235.953,225.854,238.3,225.854z"/>
	<path d="M297.507,274.939h-29.221v-29.221c0-2.348-1.902-4.25-4.25-4.25h-46.349c-2.347,0-4.25,1.902-4.25,4.25v29.221h-29.22
		c-2.347,0-4.25,1.902-4.25,4.25v46.348c0,2.348,1.903,4.25,4.25,4.25h29.22v29.221c0,2.348,1.903,4.25,4.25,4.25h46.349
		c2.348,0,4.25-1.902,4.25-4.25v-29.221h29.221c2.348,0,4.25-1.902,4.25-4.25v-46.348
		C301.757,276.842,299.855,274.939,297.507,274.939z M293.257,321.287h-29.221c-2.348,0-4.25,1.902-4.25,4.25v29.221h-37.849
		v-29.221c0-2.348-1.903-4.25-4.25-4.25h-29.22v-37.848h29.22c2.347,0,4.25-1.902,4.25-4.25v-29.221h37.849v29.221
		c0,2.348,1.902,4.25,4.25,4.25h29.221V321.287z"/>
</g>
<g>
</g>
<g>
</g>
<g>
</g>
<g>
</g>
<g>
</g>
<g>
</g>
<g>
</g>
<g>
</g>
<g>
</g>
<g>
</g>
<g>
</g>
<g>
</g>
<g>
</g>
<g>
</g>
<g>
</g>
</svg>
