<?xml version="1.0" encoding="iso-8859-1"?>
<!-- Generator: Adobe Illustrator 19.0.0, SVG Export Plug-In . SVG Version: 6.00 Build 0)  -->
<svg version="1.1" id="Layer_1" xmlns="http://www.w3.org/2000/svg" xmlns:xlink="http://www.w3.org/1999/xlink" x="0px" y="0px"
	 viewBox="0 0 512 512" style="enable-background:new 0 0 512 512;" xml:space="preserve">
<g>
	<g>
		<g>
			<path d="M424.533,0H85.045C62.069,0,42.667,20.384,42.667,44.501v40.832C42.667,91.224,47.442,96,53.333,96H64v348.32
				C64,486.069,91.797,512,136.533,512h236.299C418.496,512,448,485.44,448,444.32V96h10.667c5.891,0,10.667-4.776,10.667-10.667
				V44.501C469.333,21.216,448,0,424.533,0z M426.667,444.32c0,29.024-20.128,46.347-53.835,46.347H136.533
				c-19.125,0-51.2-6.016-51.2-46.347V96h341.333V444.32z M448,74.667H64V44.501c0-12.341,9.835-23.168,21.045-23.168h339.488
				c11.84,0,23.467,11.477,23.467,23.168V74.667z"/>
			<path d="M117.333,426.667h277.333c5.891,0,10.667-4.776,10.667-10.667V149.333c0-5.891-4.776-10.667-10.667-10.667H117.333
				c-5.891,0-10.667,4.776-10.667,10.667V416C106.667,421.891,111.442,426.667,117.333,426.667z M128,160h256v245.333H128V160z"/>
			<path d="M352,234.667h-42.667V192c0-5.891-4.776-10.667-10.667-10.667h-85.333c-5.891,0-10.667,4.776-10.667,10.667v42.667H160
				c-5.891,0-10.667,4.776-10.667,10.667V320c0,5.891,4.776,10.667,10.667,10.667h42.667v42.667c0,5.891,4.776,10.667,10.667,10.667
				h85.333c5.891,0,10.667-4.776,10.667-10.667v-42.667H352c5.891,0,10.667-4.776,10.667-10.667v-74.667
				C362.667,239.442,357.891,234.667,352,234.667z M341.333,309.333h-42.667c-5.891,0-10.667,4.776-10.667,10.667v42.667h-64V320
				c0-5.891-4.776-10.667-10.667-10.667h-42.667V256h42.667c5.891,0,10.667-4.776,10.667-10.667v-42.667h64v42.667
				c0,5.891,4.776,10.667,10.667,10.667h42.667V309.333z"/>
		</g>
	</g>
</g>
<g>
</g>
<g>
</g>
<g>
</g>
<g>
</g>
<g>
</g>
<g>
</g>
<g>
</g>
<g>
</g>
<g>
</g>
<g>
</g>
<g>
</g>
<g>
</g>
<g>
</g>
<g>
</g>
<g>
</g>
</svg>
