<?xml version="1.0" encoding="iso-8859-1"?>
<!-- Generator: Adobe Illustrator 16.0.0, SVG Export Plug-In . SVG Version: 6.00 Build 0)  -->
<!DOCTYPE svg PUBLIC "-//W3C//DTD SVG 1.1//EN" "http://www.w3.org/Graphics/SVG/1.1/DTD/svg11.dtd">
<svg version="1.1" id="Capa_1" xmlns="http://www.w3.org/2000/svg" xmlns:xlink="http://www.w3.org/1999/xlink" x="0px" y="0px"
	 width="111.146px" height="111.146px" viewBox="0 0 111.146 111.146" style="enable-background:new 0 0 111.146 111.146;"
	 xml:space="preserve">
<g>
	<path d="M103.88,20.826c-12.104-7.384-36.717,3.812-43.142,6.972c-1.541-0.75-4.421-2.074-7.967-3.497
		C51.797,10.758,40.591,0,26.824,0C12.399,0,0.668,11.727,0.668,26.151c0,9.062,4.636,17.045,11.666,21.74
		c4.648,25.772,23.035,63.255,48.418,63.255c27.445,0,49.727-46.38,49.727-76.665C110.479,28.087,108.257,23.494,103.88,20.826z
		 M6.271,26.156c0-11.325,9.217-20.547,20.554-20.547c10.836,0,19.654,8.48,20.388,19.146c-0.065,0.117-0.162,0.208-0.205,0.336
		c-0.309,0.812-0.185,1.658,0.217,2.358c-0.677,10.72-9.519,19.253-20.399,19.253C15.488,46.703,6.271,37.48,6.271,26.156z
		 M60.752,105.544c-18.289,0-36.125-27.927-42.104-54.677c2.583,0.854,5.295,1.434,8.176,1.434c12.999,0,23.723-9.581,25.72-22.038
		c2.317,0.971,4.188,1.839,5.403,2.416v38.435c0,1.544,1.25,2.802,2.805,2.802c1.541,0,2.802-1.258,2.802-2.802V32.663
		c8.829-4.298,28.978-12.194,37.415-7.051c2.627,1.604,3.907,4.506,3.907,8.87C104.876,61.253,84.247,105.544,60.752,105.544z
		 M24.022,28.958H12.069c-1.552,0-2.803-1.256-2.803-2.802s1.25-2.802,2.803-2.802h11.954V11.42c0-1.548,1.247-2.801,2.802-2.801
		c1.541,0,2.801,1.253,2.801,2.801v11.94h11.929c1.55,0,2.802,1.256,2.802,2.802c0,1.545-1.251,2.803-2.802,2.803H29.625v11.939
		c0,1.548-1.261,2.802-2.801,2.802c-1.555,0-2.802-1.253-2.802-2.802V28.958z"/>
</g>
<g>
</g>
<g>
</g>
<g>
</g>
<g>
</g>
<g>
</g>
<g>
</g>
<g>
</g>
<g>
</g>
<g>
</g>
<g>
</g>
<g>
</g>
<g>
</g>
<g>
</g>
<g>
</g>
<g>
</g>
</svg>
