<?xml version="1.0" encoding="iso-8859-1"?>
<!-- Generator: Adobe Illustrator 19.0.0, SVG Export Plug-In . SVG Version: 6.00 Build 0)  -->
<svg version="1.1" id="Layer_1" xmlns="http://www.w3.org/2000/svg" xmlns:xlink="http://www.w3.org/1999/xlink" x="0px" y="0px"
	 viewBox="0 0 489 489" style="enable-background:new 0 0 489 489;" xml:space="preserve">
<g>
	<g>
		<path d="M250.7,125.9h-29.1V20.8c0-11.4-9.4-20.8-20.8-20.8H69.7C58.3,0,48.9,9.4,48.9,20.8v105.1H20.8C9.4,125.9,0,135.3,0,146.7
			v321.5C0,479.6,9.4,489,20.8,489h228.9c11.4,0,20.8-9.4,21.8-20.8V146.7C271.5,135.3,262.2,125.9,250.7,125.9z M90.5,40.6H181
			v85.3H90.5V40.6z M229.9,448.4H40.6v-38.5h29.1c11.4,0,20.8-9.4,20.8-20.8s-9.4-20.8-20.8-20.8H40.6v-40.6h29.1
			c11.4,0,20.8-8.3,20.8-20.8c0-11.4-9.4-20.8-20.8-20.8H40.6v-40.6h29.1c11.4,0,20.8-9.4,20.8-20.8c0-11.4-9.4-20.8-20.8-20.8H40.6
			v-36.4h189.3V448.4z"/>
		<path d="M489,149.8C489,80.1,451.5,26,405.8,26c-45.8,0-83.2,55.1-83.2,124.8c0,59,26.1,106.8,62.4,120.1v197.2
			c0,11.4,9.4,20.8,20.8,20.8s20.8-9.4,20.8-20.8V270.9C462.9,257.3,489,208.8,489,149.8z M405.8,234.1c-20.8,0-42.7-35.4-42.7-83.2
			c0-47.9,22.9-83.2,42.7-83.2s42.7,35.4,42.7,83.2C448.4,198.7,425.5,234.1,405.8,234.1z"/>
	</g>
</g>
<g>
</g>
<g>
</g>
<g>
</g>
<g>
</g>
<g>
</g>
<g>
</g>
<g>
</g>
<g>
</g>
<g>
</g>
<g>
</g>
<g>
</g>
<g>
</g>
<g>
</g>
<g>
</g>
<g>
</g>
</svg>
