<?xml version="1.0" encoding="iso-8859-1"?>
<!-- Generator: Adobe Illustrator 16.0.0, SVG Export Plug-In . SVG Version: 6.00 Build 0)  -->
<!DOCTYPE svg PUBLIC "-//W3C//DTD SVG 1.1//EN" "http://www.w3.org/Graphics/SVG/1.1/DTD/svg11.dtd">
<svg version="1.1" id="Capa_1" xmlns="http://www.w3.org/2000/svg" xmlns:xlink="http://www.w3.org/1999/xlink" x="0px" y="0px"
	 width="399.947px" height="399.947px" viewBox="0 0 399.947 399.947" style="enable-background:new 0 0 399.947 399.947;"
	 xml:space="preserve">
<g>
	<path d="M365.226,34.693C342.854,12.321,313.108,0,281.468,0s-61.386,12.321-83.759,34.693L34.665,197.737
		c-46.184,46.186-46.184,121.332,0.001,167.518c22.373,22.373,52.119,34.692,83.758,34.692c31.639,0,61.386-12.319,83.759-34.692
		l163.044-163.044c22.373-22.374,34.694-52.12,34.694-83.759C399.92,86.811,387.599,57.066,365.226,34.693 M191.125,354.197
		c-19.419,19.421-45.239,30.115-72.702,30.115c-27.463,0-53.284-10.694-72.703-30.115c-40.088-40.088-40.088-105.315,0-145.405
		l81.522-81.521c0,0,84.958-84.262,86.215-85.234c1.271-0.953,2.592-1.841,3.879-2.759c5.226-3.572,10.659-6.743,16.269-9.34
		c11.204-5.233,23.011-8.215,34.29-9.053c5.647-0.362,11.15-0.256,16.408,0.298c1.311,0.17,2.608,0.339,3.896,0.506
		c1.281,0.198,2.541,0.455,3.791,0.678c1.251,0.208,2.474,0.502,3.682,0.798c1.204,0.304,2.411,0.54,3.569,0.916
		c1.161,0.353,2.311,0.702,3.447,1.047c1.135,0.339,2.224,0.783,3.315,1.162c2.19,0.744,4.251,1.671,6.264,2.531
		c1.011,0.425,1.965,0.943,2.925,1.4c0.949,0.481,1.906,0.908,2.81,1.414c0.902,0.501,1.791,0.994,2.667,1.479
		c0.436,0.245,0.867,0.488,1.296,0.729c0.417,0.261,0.833,0.521,1.242,0.778c6.596,4.059,11.907,8.118,16.125,11.597
		c5.406,4.459,8.096,6.934,10,9.125c0.953,1.097,2.596,3.101,2.083,3.625c-0.43,0.44-2.131-0.802-4.427-2.563
		c-2.273-1.768-5.523-4.245-9.982-7.139c-4.515-2.813-10.118-5.986-16.807-8.849c-6.666-2.896-14.476-5.357-23.101-6.779
		c-4.32-0.642-8.824-1.161-13.49-1.151c-4.659-0.008-9.453,0.284-14.307,1.044c-9.7,1.536-19.602,4.814-29.036,9.834
		c-4.693,2.555-9.305,5.463-13.732,8.768c-1.089,0.85-81.806,79.059-86.154,83.503c-1.547,1.581-1.463,3.415,0.412,5.29
		c30.383,30.383,115.171,115.08,129.719,129.613c1.39,1.388,1.706,2.559,0.271,4.002
		C245.332,300.136,191.125,354.197,191.125,354.197z"/>
</g>
<g>
</g>
<g>
</g>
<g>
</g>
<g>
</g>
<g>
</g>
<g>
</g>
<g>
</g>
<g>
</g>
<g>
</g>
<g>
</g>
<g>
</g>
<g>
</g>
<g>
</g>
<g>
</g>
<g>
</g>
</svg>
