<?xml version="1.0" encoding="iso-8859-1"?>
<!-- Generator: Adobe Illustrator 18.1.1, SVG Export Plug-In . SVG Version: 6.00 Build 0)  -->
<svg version="1.1" id="Capa_1" xmlns="http://www.w3.org/2000/svg" xmlns:xlink="http://www.w3.org/1999/xlink" x="0px" y="0px"
	 viewBox="0 0 56.057 56.057" style="enable-background:new 0 0 56.057 56.057;" xml:space="preserve">
<g>
	<path style="fill:#030104;" d="M53.454,50.199L36.749,13.383c-0.19-0.445-0.344-1.198-0.344-1.682V8.307
		c0-0.484,0.385-0.976,0.809-1.21c1.162-0.646,1.955-1.877,1.955-3.301C39.169,1.703,37.466,0,35.372,0H21.359
		c-2.093,0-3.796,1.703-3.796,3.796c0,1.293,0.651,2.432,1.642,3.115c0.397,0.275,0.771,0.804,0.771,1.287v3.918
		c0,0.484-0.165,1.232-0.37,1.67L2.669,50.218c-0.679,1.461-0.656,2.943,0.061,4.068c0.718,1.125,2.054,1.771,3.664,1.771h43.19
		c1.602,0,2.946-0.646,3.688-1.771C54.017,53.162,54.083,51.673,53.454,50.199z M14.919,34.345L6.294,52.22
		c-0.086,0.178-0.265,0.281-0.45,0.281c-0.073,0-0.147-0.016-0.218-0.05c-0.248-0.12-0.352-0.419-0.232-0.668l8.625-17.875
		c0.119-0.248,0.42-0.353,0.668-0.233C14.935,33.796,15.039,34.095,14.919,34.345z M40.792,31.609H15.095
		c-0.484,0-0.711-0.355-0.507-0.794l7.646-16.447c0.204-0.438,0.317-1.186,0.317-1.67V5.964c0-0.553-0.268-1-0.597-1h-0.597
		c-0.644,0-1.168-0.523-1.168-1.168c0-0.644,0.524-1.168,1.168-1.168H35.37c0.646,0,1.168,0.524,1.168,1.168
		s-0.522,1.168-1.168,1.168c0,0-0.35,0-0.782,0s-0.783,0.447-0.783,1v6.274c0,0.483,0.125,1.236,0.315,1.682l7.201,16.884
		C41.513,31.249,41.277,31.609,40.792,31.609z"/>
</g>
<g>
</g>
<g>
</g>
<g>
</g>
<g>
</g>
<g>
</g>
<g>
</g>
<g>
</g>
<g>
</g>
<g>
</g>
<g>
</g>
<g>
</g>
<g>
</g>
<g>
</g>
<g>
</g>
<g>
</g>
</svg>
