<?xml version="1.0" encoding="iso-8859-1"?>
<!-- Generator: Adobe Illustrator 19.0.0, SVG Export Plug-In . SVG Version: 6.00 Build 0)  -->
<svg version="1.1" id="Layer_1" xmlns="http://www.w3.org/2000/svg" xmlns:xlink="http://www.w3.org/1999/xlink" x="0px" y="0px"
	 viewBox="0 0 218.182 218.182" style="enable-background:new 0 0 218.182 218.182;" xml:space="preserve">
<g>
	<g>
		<g>
			<path d="M179.8,0h-0.002h-40.404H78.788h-8.081H18.182v218.182h52.525h8.081H179.8c11.139,0,20.2-9.051,20.2-20.178V20.178
				C200,9.051,190.939,0,179.8,0z M70.707,210.101H26.263V8.081h44.444V210.101z M147.475,8.081h24.242v54.893l-12.121-12.121
				l-12.121,12.121V8.081z M191.919,198.004c0,6.672-5.437,12.097-12.119,12.097H78.788V8.081h60.606v74.4l20.202-20.202
				l20.202,20.202v-74.4h0.002c6.682,0,12.119,5.425,12.119,12.097V198.004z"/>
			<path d="M147.474,113.131h-24.241v24.242H98.99v24.242h24.242v24.242h24.242v-24.242h24.242v-24.242h-24.242V113.131z
				 M163.636,145.455v8.081h-24.242v24.242h-8.081v-24.242h-24.242v-8.081h24.242v-24.242h8.081v24.242H163.636z"/>
		</g>
	</g>
</g>
<g>
</g>
<g>
</g>
<g>
</g>
<g>
</g>
<g>
</g>
<g>
</g>
<g>
</g>
<g>
</g>
<g>
</g>
<g>
</g>
<g>
</g>
<g>
</g>
<g>
</g>
<g>
</g>
<g>
</g>
</svg>
