<?xml version="1.0" encoding="iso-8859-1"?>
<!-- Generator: Adobe Illustrator 19.0.0, SVG Export Plug-In . SVG Version: 6.00 Build 0)  -->
<svg version="1.1" id="Layer_1" xmlns="http://www.w3.org/2000/svg" xmlns:xlink="http://www.w3.org/1999/xlink" x="0px" y="0px"
	 viewBox="0 0 489.688 489.688" style="enable-background:new 0 0 489.688 489.688;" xml:space="preserve">
<g>
	<path d="M483.682,340.59l-171.6-171.6c-10.4-10.4-23.9-16.6-39.5-17.7l-46-2.6c-1.8-19.4-9.9-36.8-23.7-50.5
		c-8.3-8.3-17.2-16-28.1-18.7c-31.4-7.9-78-62.4-78-62.4c-11.5-10.4-43.1-29.6-76-4.2c-37,33.8-15.6,71.8-4.2,82.2
		c0,0,51.2,46.8,62.4,80.1c3.6,10.6,10.4,19.8,18.7,28.1c13.9,13.9,31.2,22.1,49.6,23.6l3.5,46.1c1,14.6,7.3,28.1,17.7,38.5
		l171.7,171.7c8.5,8.3,18.7,6.2,21.8,5.2c94.7-31.2,125.9-122.8,126.9-126.9C490.982,354.09,488.882,345.79,483.682,340.59z
		 M116.482,161.69c-19.9-51.7-71.8-94.7-71.8-94.7c-3.1-3.1-7.7-14.1,1.1-22.9c9.9-6.9,18.7-1,21.8,2.1c0,0,40.1,49.2,92.6,71.8
		c39.3,16.9,22.6,53.8,15.6,59.3C167.382,183.79,130.382,197.89,116.482,161.69z M191.382,269.89l-3.8-50.6
		c6.6-3.3,12.7-7.6,18.4-12.9c4.9-5.3,9.1-11.1,12.5-17.4l51,2.8c5.2,1,10.4,3.1,13.5,6.2l51.2,51.6c-20.2,49.9-63.9,76.7-83.7,86.5
		l-52.8-52.8C193.482,279.19,191.382,275.09,191.382,269.89z M359.882,445.69l-79.7-79.7c24.8-14.2,61.2-41.1,84.5-85.6l79.5,80
		C434.782,381.19,409.882,424.89,359.882,445.69z"/>
</g>
<g>
</g>
<g>
</g>
<g>
</g>
<g>
</g>
<g>
</g>
<g>
</g>
<g>
</g>
<g>
</g>
<g>
</g>
<g>
</g>
<g>
</g>
<g>
</g>
<g>
</g>
<g>
</g>
<g>
</g>
</svg>
