<?xml version="1.0" encoding="iso-8859-1"?>
<!-- Generator: Adobe Illustrator 16.0.0, SVG Export Plug-In . SVG Version: 6.00 Build 0)  -->
<!DOCTYPE svg PUBLIC "-//W3C//DTD SVG 1.1//EN" "http://www.w3.org/Graphics/SVG/1.1/DTD/svg11.dtd">
<svg version="1.1" id="Capa_1" xmlns="http://www.w3.org/2000/svg" xmlns:xlink="http://www.w3.org/1999/xlink" x="0px" y="0px"
	 width="426.39px" height="426.39px" viewBox="0 0 426.39 426.39" style="enable-background:new 0 0 426.39 426.39;"
	 xml:space="preserve">
<g>
	<g>
		<path d="M246.857,273.355v-13.173h25.09c22.702,0,41.152-18.475,41.152-41.152V41.15c0-22.692-18.466-41.15-41.152-41.15H154.445
			c-22.696,0-41.154,18.466-41.154,41.15V219.03c0,22.69,18.464,41.152,41.154,41.152h25.088v13.173
			c0,9.196,7.458,16.667,16.667,16.667h9.011c0.276,18.338,3.61,55.014,25.131,69.012c16.65,10.824,16.358,45.953,14.843,58.572
			c-0.521,4.292,2.553,8.199,6.854,8.725c0.32,0.044,0.645,0.06,0.957,0.06c3.912,0,7.29-2.93,7.783-6.9
			c0.276-2.253,6.375-55.243-21.873-73.629c-14.03-9.121-17.597-38.002-17.969-55.839h9.269
			C239.386,290.022,246.857,282.551,246.857,273.355z M179.833,61.059h-12.427c-4.332,0-7.851,3.521-7.851,7.851
			c0,4.332,3.519,7.851,7.851,7.851h12.427v6.218h-7.364c-2.166,0-3.925,1.759-3.925,3.925s1.759,3.926,3.925,3.926h7.364v8.832
			h-7.364c-2.166,0-3.925,1.759-3.925,3.925s1.759,3.925,3.925,3.925h7.364v6.869h-12.427c-4.332,0-7.851,3.519-7.851,7.851
			c0,4.33,3.519,7.851,7.851,7.851h12.427v7.364h-7.364c-2.166,0-3.925,1.759-3.925,3.925c0,2.164,1.759,3.923,3.925,3.923h7.364
			v8.832h-7.364c-2.166,0-3.925,1.76-3.925,3.926s1.759,3.925,3.925,3.925h7.364v11.013h-8.871c-9.706,0-17.603-7.896-17.603-17.597
			V58.296c0-9.702,7.896-17.599,17.603-17.599h8.871V61.059z M195.534,172.98v-11.012h15.214c2.164,0,3.926-1.759,3.926-3.925
			s-1.762-3.925-3.926-3.925h-15.214v-8.83h15.214c2.164,0,3.926-1.76,3.926-3.926s-1.762-3.925-3.926-3.925h-15.214v-7.364h29.896
			c4.332,0,7.851-3.519,7.851-7.851s-3.519-7.851-7.851-7.851h-29.896v-6.861h15.214c2.164,0,3.926-1.759,3.926-3.925
			s-1.762-3.925-3.926-3.925h-15.214v-8.832h15.214c2.164,0,3.926-1.76,3.926-3.926s-1.762-3.925-3.926-3.925h-15.214V76.76h29.896
			c4.332,0,7.851-3.519,7.851-7.851c0-4.33-3.519-7.851-7.851-7.851h-29.896V40.688h58.656c9.698,0,17.597,7.898,17.597,17.601
			v97.088c0,9.702-7.898,17.599-17.597,17.599h-58.656V172.98z"/>
	</g>
</g>
<g>
</g>
<g>
</g>
<g>
</g>
<g>
</g>
<g>
</g>
<g>
</g>
<g>
</g>
<g>
</g>
<g>
</g>
<g>
</g>
<g>
</g>
<g>
</g>
<g>
</g>
<g>
</g>
<g>
</g>
</svg>
