<?xml version="1.0" encoding="iso-8859-1"?>
<!-- Generator: Adobe Illustrator 19.0.0, SVG Export Plug-In . SVG Version: 6.00 Build 0)  -->
<svg version="1.1" id="Layer_1" xmlns="http://www.w3.org/2000/svg" xmlns:xlink="http://www.w3.org/1999/xlink" x="0px" y="0px"
	 viewBox="0 0 489.85 489.85" style="enable-background:new 0 0 489.85 489.85;" xml:space="preserve">
<g>
	<g>
		<circle cx="202.227" cy="137.714" r="21.5"/>
		<circle cx="351.127" cy="286.614" r="21.5"/>
		<circle cx="276.127" cy="212.714" r="21.5"/>
		<circle cx="138.127" cy="201.714" r="21.5"/>
		<circle cx="287.127" cy="350.714" r="21.5"/>
		<circle cx="212.127" cy="276.714" r="21.5"/>
		<path d="M477.227,270.814l-259.4-258.3c-7.8-8.8-36.9-23.1-62.5,0l-142.7,142.7c-23.6,28.2-8.3,54.2,0,62.5l259.3,259.3
			c23.9,23.1,54.2,9.9,62.5,0l142.7-143.7C486.727,324.714,500.027,296.114,477.227,270.814z M448.027,305.214l-142.7,142.7
			c-1,2.1-2.1,2.1-4.2,0l-259.3-259.3c-1-1-1-3.1,0-4.2l142.7-142.7c1-1,3.2-1.3,4.2,0l259.3,259.3
			C449.027,302.114,449.027,304.214,448.027,305.214z"/>
	</g>
</g>
<g>
</g>
<g>
</g>
<g>
</g>
<g>
</g>
<g>
</g>
<g>
</g>
<g>
</g>
<g>
</g>
<g>
</g>
<g>
</g>
<g>
</g>
<g>
</g>
<g>
</g>
<g>
</g>
<g>
</g>
</svg>
