<?xml version="1.0" encoding="iso-8859-1"?>
<!-- Generator: Adobe Illustrator 19.0.0, SVG Export Plug-In . SVG Version: 6.00 Build 0)  -->
<svg version="1.1" id="Layer_1" xmlns="http://www.w3.org/2000/svg" xmlns:xlink="http://www.w3.org/1999/xlink" x="0px" y="0px"
	 viewBox="0 0 511.998 511.998" style="enable-background:new 0 0 511.998 511.998;" xml:space="preserve">
<g>
	<g>
		<g>
			<path d="M489.165,0H22.833c-6.887,0-12.47,5.582-12.47,12.47v78.192c0,6.887,5.583,12.47,12.47,12.47h15.182v358.219
				c0,27.926,22.72,50.647,50.647,50.647h334.674c27.926,0,50.647-22.72,50.647-50.647V103.132h15.182
				c6.887,0,12.47-5.583,12.47-12.47V12.47C501.635,5.582,496.053,0,489.165,0z M449.043,461.353
				c0,14.174-11.532,25.707-25.707,25.707H88.662c-14.174,0-25.707-11.532-25.707-25.707V103.132h386.087V461.353z M476.695,78.192
				c-7.595,0-433.653,0-441.391,0V24.94h441.391V78.192z"/>
			<path d="M120.296,391.22h271.408c6.888,0,12.47-5.582,12.47-12.47V211.442c0-6.888-5.582-12.47-12.47-12.47H120.296
				c-6.887,0-12.47,5.582-12.47,12.47V378.75C107.826,385.637,113.408,391.22,120.296,391.22z M132.766,223.912h246.468V366.28
				H132.766V223.912z"/>
			<path d="M297.143,278.799h-20.118c-2.609,0-4.725-2.115-4.725-4.724v-20.118c0-2.609-2.115-4.724-4.724-4.724h-23.151
				c-2.609,0-4.724,2.115-4.724,4.724v20.118c0,2.609-2.115,4.724-4.724,4.724h-20.118c-2.609,0-4.724,2.115-4.724,4.724v23.151
				c0,2.609,2.115,4.724,4.724,4.724h20.118c2.609,0,4.724,2.115,4.724,4.724v20.118c0,2.609,2.115,4.724,4.724,4.724h23.151
				c2.609,0,4.724-2.115,4.724-4.724v-20.118c0-2.609,2.115-4.724,4.725-4.724h20.118c2.609,0,4.724-2.115,4.724-4.724v-23.151
				C301.867,280.913,299.752,278.799,297.143,278.799z"/>
		</g>
	</g>
</g>
<g>
</g>
<g>
</g>
<g>
</g>
<g>
</g>
<g>
</g>
<g>
</g>
<g>
</g>
<g>
</g>
<g>
</g>
<g>
</g>
<g>
</g>
<g>
</g>
<g>
</g>
<g>
</g>
<g>
</g>
</svg>
