<?xml version="1.0" encoding="iso-8859-1"?>
<!-- Generator: Adobe Illustrator 19.0.0, SVG Export Plug-In . SVG Version: 6.00 Build 0)  -->
<svg version="1.1" id="Capa_1" xmlns="http://www.w3.org/2000/svg" xmlns:xlink="http://www.w3.org/1999/xlink" x="0px" y="0px"
	 viewBox="0 0 490 490" style="enable-background:new 0 0 490 490;" xml:space="preserve">
<g>
	<g>
		<g>
			<rect x="138.9" width="212.2" height="57.1"/>
			<rect x="176.2" y="76.9" width="137.6" height="37.7"/>
			<path d="M329.7,134.4H160.3c0,0-43.9,47.6-43.9,61.8V471c0,10.5,8.5,19,19,19h219.2c10.5,0,19-8.5,19-19V195.8
				C373.6,180.3,329.7,134.4,329.7,134.4z M279.2,232.4c12.4-1.9,23.7,6.6,25.6,19s-6.6,23.7-19,25.6l-28.4,4.3l-6.6-44.7
				L279.2,232.4z M190.6,438.3c-5.1,11.3-18.3,16.7-29.5,11.7c-11.3-5.1-16.7-18.3-11.7-29.5l11.3-26.4l41.2,17.9L190.6,438.3z
				 M221.3,367.6L210,394l-41.2-17.9l11.3-26.4c5.1-11.3,18.3-16.7,29.5-11.7C221.3,343.1,226.3,356.3,221.3,367.6z M209.3,287.9
				c-12.4,1.9-23.7-6.6-25.6-19s6.6-23.7,19-25.6L231,239l6.6,44.7L209.3,287.9z M276.9,436c-9.3,8.2-23.7,7.4-31.9-1.9
				c-8.2-9.3-7.4-23.7,1.9-31.9l21.4-19l29.5,33.8L276.9,436z M334.8,385.1l-21.4,19l-29.5-33.8l21.4-19c9.3-8.2,23.7-7.4,31.9,1.9
				C344.9,362.5,344.1,376.9,334.8,385.1z"/>
		</g>
	</g>
</g>
<g>
</g>
<g>
</g>
<g>
</g>
<g>
</g>
<g>
</g>
<g>
</g>
<g>
</g>
<g>
</g>
<g>
</g>
<g>
</g>
<g>
</g>
<g>
</g>
<g>
</g>
<g>
</g>
<g>
</g>
</svg>
