<?xml version="1.0" encoding="iso-8859-1"?>
<!-- Generator: Adobe Illustrator 19.0.0, SVG Export Plug-In . SVG Version: 6.00 Build 0)  -->
<svg version="1.1" id="Layer_1" xmlns="http://www.w3.org/2000/svg" xmlns:xlink="http://www.w3.org/1999/xlink" x="0px" y="0px"
	 viewBox="0 0 487.253 487.253" style="enable-background:new 0 0 487.253 487.253;" xml:space="preserve">
<g>
	<path d="M412,123.977c-29.1-10.4-62.4-4.2-93.6,16.6c-28.8-19.8-61.3-26.4-89.5-18c-0.2-10.3-8.4-19.5-19.8-19.5H181v-82.1
		c0-10.4-8.3-19.8-19.8-19.8H68.7c-10.4,0-19.8,8.3-19.8,19.8v82.2H19.8c-10.4,0-19.8,8.3-19.8,19.8v343.3
		c0,10.4,8.3,19.8,19.8,19.8h190.4c21-0.8,19.8-21.2,19.8-21.2c4.4,4.2,8.5,8.7,13.5,11.8c19,12,42.8,5.6,42.7-27
		c-0.2-46.8,19.8-75.9,33.3-75.9s33.4,29.1,33.3,75.9c-0.1,28.1,23.3,39,40.6,27c34.3-28.1,62.4-71.8,79.1-122.8
		C506.6,248.777,479.6,147.877,412,123.977z M89.5,40.677h52v61.4h-52C89.5,102.077,89.5,40.677,89.5,40.677z M40.6,445.377v-302.7
		h148.8v3.8c-40.3,41.2-51.6,123.3-25,207.4c6.9,21.4,15.6,41.4,26,59.4v32.1H40.6z M435.9,341.377c-10.4,32.3-26,60.3-44.7,82.2
		c-7.3-53.1-35.4-90.5-71.8-90.5s-64.5,38.5-70.7,90.5c-18.7-21.8-34.3-51-44.7-82.2c-26-81.1-10.4-164.4,35.4-180
		c19.8-7.3,44.7,0,67.6,19.8c7.3,6.2,18.7,6.2,26,0c23.9-19.8,47.9-27,67.6-19.8C445.3,176.977,461.9,260.177,435.9,341.377z"/>
</g>
<g>
</g>
<g>
</g>
<g>
</g>
<g>
</g>
<g>
</g>
<g>
</g>
<g>
</g>
<g>
</g>
<g>
</g>
<g>
</g>
<g>
</g>
<g>
</g>
<g>
</g>
<g>
</g>
<g>
</g>
</svg>
