<svg width="24px" height="24px" viewBox="0 0 24 24" xmlns="http://www.w3.org/2000/svg"><defs><style>.cls-1{fill:none;stroke:#000;stroke-linecap:round;stroke-linejoin:round;stroke-width:1.5px;}</style></defs><g id="ic-medicine-dna"><path class="cls-1" d="M16.6,2.45,12,7.05a3.49,3.49,0,0,0,0,5h0A3.49,3.49,0,0,0,17,12l4.6-4.6"/><path class="cls-1" d="M7.4,21.55,12,17A3.49,3.49,0,0,0,12,12h0a3.49,3.49,0,0,0-4.95,0l-4.6,4.6"/><line class="cls-1" x1="12.35" y1="6.7" x2="17.3" y2="11.65"/><line class="cls-1" x1="15.18" y1="3.87" x2="20.13" y2="8.82"/><line class="cls-1" x1="6.7" y1="12.35" x2="11.65" y2="17.3"/><line class="cls-1" x1="3.87" y1="15.18" x2="8.82" y2="20.13"/></g></svg>