<?xml version="1.0" encoding="iso-8859-1"?>
<!-- Generator: Adobe Illustrator 16.0.0, SVG Export Plug-In . SVG Version: 6.00 Build 0)  -->
<!DOCTYPE svg PUBLIC "-//W3C//DTD SVG 1.1//EN" "http://www.w3.org/Graphics/SVG/1.1/DTD/svg11.dtd">
<svg version="1.1" id="Capa_1" xmlns="http://www.w3.org/2000/svg" xmlns:xlink="http://www.w3.org/1999/xlink" x="0px" y="0px"
	 width="286.959px" height="286.959px" viewBox="0 0 286.959 286.959" style="enable-background:new 0 0 286.959 286.959;"
	 xml:space="preserve">
<g>
	<path style="fill:#030303;" d="M274.099,12.94c-8.291-8.297-19.327-12.863-31.055-12.863S220.287,4.644,211.99,12.94
		l-56.929,56.931l5.854,5.861L21.769,214.892l-10.532,42.656L0,268.79l18.092,18.092l10.984-10.979l43.065-10.63l139.162-139.162
		l5.86,5.86l56.935-56.931c8.291-8.297,12.86-19.327,12.86-31.055C286.959,32.256,282.39,21.231,274.099,12.94z M66.175,254.678
		l-43.065,10.63l-5.012,5.015l-1.532-1.532l5.263-5.272l10.533-42.656L169.219,84.007l33.811,33.813L66.175,254.678z
		 M265.819,66.761l-48.649,48.646l-45.538-45.541l48.644-48.646c6.078-6.084,14.175-9.432,22.774-9.432
		c8.601,0,16.686,3.348,22.77,9.432s9.435,14.169,9.435,22.772C275.254,52.592,271.903,60.68,265.819,66.761z"/>
</g>
<g>
</g>
<g>
</g>
<g>
</g>
<g>
</g>
<g>
</g>
<g>
</g>
<g>
</g>
<g>
</g>
<g>
</g>
<g>
</g>
<g>
</g>
<g>
</g>
<g>
</g>
<g>
</g>
<g>
</g>
</svg>
