<?xml version="1.0" encoding="utf-8"?>
<!-- Uploaded to SVGRepo https://www.svgrepo.com -->
<svg version="1.1" id="Layer_1" xmlns="http://www.w3.org/2000/svg" xmlns:xlink="http://www.w3.org/1999/xlink" x="0px" y="0px"
	 width="256px" height="256px" viewBox="0 0 256 256" enable-background="new 0 0 256 256" xml:space="preserve">
<path d="M220.94,236.761c-0.627,8.306-7.836,14.418-16.142,13.792c-2.664-0.157-4.545-1.097-6.896-2.194
	c0,0-42.628-28.993-45.136-31.031c-4.232-3.605-8.463-7.836-10.344-13.948c-0.627-2.194-9.247-31.501-9.247-31.501L129.306,254H42.8
	l2.09-33.068H24.411C12.03,220.932,2,210.901,2,198.52c0-2.978,0.47-5.799,1.567-8.306c0,0,23.195-52.032,27.583-60.495
	c6.426-12.695,17.71-18.18,33.538-17.71h41.845l-87.608,62.845l-7.836,18.336c-0.784,1.567-1.097,3.448-1.097,5.328
	c0,7.836,6.426,14.262,14.262,14.262H97.13c12.381,0,22.411-10.03,22.411-22.411c0-10.971-7.836-20.217-18.18-22.098l21.314-56.577
	h5.015c11.754,0,21.001,7.993,23.665,17.083l16.769,60.495c0.313,0.94,1.411,2.821,2.821,3.918
	c1.724,1.254,44.195,30.404,44.195,30.404C219.06,226.574,221.411,231.432,220.94,236.761z M92.272,101.666
	c18.336,1.411,34.322-12.224,35.733-30.561c1.41-18.336-12.224-34.322-30.561-35.733c-18.336-1.411-34.322,12.224-35.733,30.561
	C60.301,84.27,73.935,100.256,92.272,101.666z M111.392,190.214c0-7.366-5.642-13.321-12.695-14.105l-10.344,28.523l8.776-0.157
	C104.966,204.476,111.392,198.05,111.392,190.214z M243.174,21.69v-1.586v-4.106h1.493h3.453V2h-3.453h-62.149h-3.453v13.997h3.453
	h1.493v4.106v1.586C177.759,22.25,173,27.475,173,33.821v74.614c0,4.759,2.8,8.865,6.719,10.918c1.586,0.84,3.453,1.306,5.412,1.306
	h56.736c1.96,0,3.733-0.467,5.412-1.306c4.013-1.96,6.719-6.159,6.719-10.918V33.821C254.092,27.475,249.333,22.25,243.174,21.69z
	 M192.13,21.596V20.01v-4.013h1.306h40.313h1.306v4.013v1.586v0.093H192.13V21.596z M247.373,108.435
	c0,2.986-2.426,5.412-5.412,5.412h-56.737c-2.986,0-5.412-2.426-5.412-5.412v-6.346h67.561V108.435z M232.463,66.903v11.204h-13.269
	v13.268h-11.204V78.108h-13.269V66.903h13.269V53.635h11.204v13.268H232.463z M247.467,44.086h-67.655V33.728
	c0-2.986,2.426-5.412,5.412-5.412h55.243c0.093,0,0.28,0,0.373,0s0.093,0,0.187,0c0.187,0,0.373,0,0.56,0h0.467
	c2.986,0,5.412,2.426,5.412,5.412V44.086z"/>
</svg>
