<?xml version="1.0" encoding="iso-8859-1"?>
<!-- Generator: Adobe Illustrator 19.0.0, SVG Export Plug-In . SVG Version: 6.00 Build 0)  -->
<svg version="1.1" id="Layer_1" xmlns="http://www.w3.org/2000/svg" xmlns:xlink="http://www.w3.org/1999/xlink" x="0px" y="0px"
	 viewBox="0 0 469.333 469.333" style="enable-background:new 0 0 469.333 469.333;" xml:space="preserve">
<g>
	<g>
		<path d="M437.333,0H138.667c-17.643,0-32,14.357-32,32v42.667c0,17.643,14.357,32,32,32v330.667c0,17.643,14.357,32,32,32h234.667
			c17.643,0,32-14.357,32-32V106.667c17.643,0,32-14.357,32-32V32C469.333,14.357,454.976,0,437.333,0z M416,373.333h-32
			c-5.888,0-10.667-4.789-10.667-10.667v-64c0-5.877,4.779-10.667,10.667-10.667h32V373.333z M416,224h-32
			c-5.888,0-10.667-4.789-10.667-10.667V192c0-5.877,4.779-10.667,10.667-10.667h32V224z M416,160h-32c-17.643,0-32,14.357-32,32
			v21.333c0,17.643,14.357,32,32,32h32v21.333h-32c-17.643,0-32,14.357-32,32v64c0,17.643,14.357,32,32,32h32v42.667
			c0,5.877-4.779,10.667-10.667,10.667H170.667c-5.877,0-10.667-4.789-10.667-10.667v-42.667h128c17.643,0,32-14.357,32-32V192
			c0-17.643-14.357-32-32-32H160v-53.333h256V160z M263.115,330.667H160V288h32c5.888,0,10.667-4.779,10.667-10.667
			s-4.779-10.667-10.667-10.667h-32v-43.552h103.115c5.899,0,10.667-4.779,10.667-10.667s-4.768-10.667-10.667-10.667H160v-20.448
			h128c5.888,0,10.667,4.789,10.667,10.667v74.667h-64c-5.888,0-10.667,4.779-10.667,10.667S228.779,288,234.667,288h64v74.667
			c0,5.877-4.779,10.667-10.667,10.667H160V352h103.115c5.899,0,10.667-4.779,10.667-10.667S269.013,330.667,263.115,330.667z
			 M448,53.333v21.333c0,5.877-4.779,10.667-10.667,10.667h-10.667H149.333h-10.667c-5.877,0-10.667-4.789-10.667-10.667V53.333V32
			c0-5.877,4.789-10.667,10.667-10.667h298.667C443.221,21.333,448,26.123,448,32V53.333z"/>
	</g>
</g>
<g>
	<g>
		<circle cx="138.667" cy="53.333" r="10.667"/>
	</g>
</g>
<g>
	<g>
		<circle cx="181.333" cy="53.333" r="10.667"/>
	</g>
</g>
<g>
	<g>
		<circle cx="224" cy="53.333" r="10.667"/>
	</g>
</g>
<g>
	<g>
		<circle cx="266.667" cy="53.333" r="10.667"/>
	</g>
</g>
<g>
	<g>
		<circle cx="309.333" cy="53.333" r="10.667"/>
	</g>
</g>
<g>
	<g>
		<circle cx="352" cy="53.333" r="10.667"/>
	</g>
</g>
<g>
	<g>
		<circle cx="394.667" cy="53.333" r="10.667"/>
	</g>
</g>
<g>
	<g>
		<circle cx="437.333" cy="53.333" r="10.667"/>
	</g>
</g>
<g>
	<g>
		<path d="M91.957,370.944l-15.531-15.531l-20.704-20.715c-12.341-12.341-33.845-12.331-46.155,0C3.392,340.864,0,349.056,0,357.781
			c0,8.715,3.392,16.907,9.557,23.072l20.715,20.715l15.541,15.531c6.165,6.176,14.357,9.568,23.072,9.568
			s16.907-3.392,23.072-9.557c6.165-6.165,9.557-14.368,9.557-23.083C101.515,385.301,98.123,377.109,91.957,370.944z
			 M37.813,378.944L24.64,365.771c-2.133-2.133-3.307-4.971-3.307-7.989s1.173-5.856,3.317-8c2.133-2.133,4.971-3.317,7.989-3.317
			s5.856,1.173,7.989,3.317l13.173,13.173L37.813,378.944z M76.875,402.016c-4.267,4.277-11.723,4.267-15.979,0l-8-7.989l7.989-8
			l7.989-7.989l7.989,8c2.133,2.133,3.317,4.971,3.317,7.989C80.192,397.045,79.019,399.883,76.875,402.016z"/>
	</g>
</g>
<g>
	<g>
		<path d="M85.333,208.384C64.971,196.64,38.816,203.627,27.051,224c-11.755,20.384-4.747,46.528,15.616,58.293
			C49.376,286.165,56.693,288,63.936,288c14.752,0,29.131-7.659,37.024-21.333C112.715,246.293,105.717,220.149,85.333,208.384z
			 M82.475,256c-2.848,4.939-7.445,8.469-12.949,9.941c-5.525,1.472-11.264,0.725-16.192-2.133
			c-6.805-3.925-10.539-11.072-10.571-18.411l6.667,3.851c1.675,0.971,3.52,1.429,5.323,1.429c3.691-0.011,7.275-1.92,9.248-5.344
			c2.944-5.099,1.195-11.627-3.904-14.571l-6.731-3.883c3.243-1.867,6.933-2.869,10.677-2.869c3.616,0,7.285,0.917,10.635,2.859
			C84.864,232.747,88.363,245.813,82.475,256z"/>
	</g>
</g>
<g>
	<g>
		<path d="M85.845,106.389l-16.48-26.667c-1.952-3.147-5.376-5.056-9.077-5.056H27.307c-3.701,0-7.125,1.909-9.077,5.056
			L1.739,106.389c-2.123,3.435-2.123,7.776,0,11.221l16.491,26.667c1.952,3.147,5.376,5.056,9.077,5.056h32.981
			c3.701,0,7.125-1.909,9.077-5.056l16.48-26.667C87.968,114.176,87.968,109.835,85.845,106.389z M54.336,128H33.259l-9.899-16
			l9.899-16h21.088l9.888,16L54.336,128z"/>
	</g>
</g>
<g>
</g>
<g>
</g>
<g>
</g>
<g>
</g>
<g>
</g>
<g>
</g>
<g>
</g>
<g>
</g>
<g>
</g>
<g>
</g>
<g>
</g>
<g>
</g>
<g>
</g>
<g>
</g>
<g>
</g>
</svg>
