<?xml version="1.0" encoding="iso-8859-1"?>
<!-- Generator: Adobe Illustrator 19.0.0, SVG Export Plug-In . SVG Version: 6.00 Build 0)  -->
<svg version="1.1" id="Layer_1" xmlns="http://www.w3.org/2000/svg" xmlns:xlink="http://www.w3.org/1999/xlink" x="0px" y="0px"
	 viewBox="0 0 512.001 512.001" style="enable-background:new 0 0 512.001 512.001;" xml:space="preserve">
<g>
	<g>
		<path d="M511.901,372.022c-0.01-0.262-0.019-0.523-0.03-0.785c-0.071-1.627-0.172-3.246-0.302-4.856
			c-0.009-0.11-0.02-0.221-0.029-0.331c-0.284-3.365-0.7-6.692-1.242-9.979c-0.019-0.115-0.031-0.232-0.05-0.347
			c-0.008-0.05-0.023-0.098-0.032-0.15c-10.159-60.164-62.626-106.139-125.636-106.139s-115.476,45.975-125.636,106.139
			c-0.009,0.05-0.023,0.098-0.031,0.15c-0.02,0.115-0.031,0.232-0.05,0.347c-0.542,3.286-0.957,6.614-1.242,9.979
			c-0.009,0.11-0.021,0.221-0.029,0.331c-0.132,1.61-0.231,3.229-0.302,4.856c-0.012,0.262-0.02,0.523-0.03,0.785
			c-0.061,1.606-0.102,3.216-0.102,4.837s0.041,3.231,0.102,4.837c0.009,0.262,0.018,0.522,0.029,0.784
			c0.071,1.627,0.172,3.247,0.303,4.858c0.009,0.109,0.02,0.218,0.029,0.326c0.284,3.367,0.701,6.696,1.243,9.985
			c0.019,0.114,0.031,0.229,0.05,0.343c0.008,0.05,0.022,0.098,0.031,0.148c10.16,60.165,62.626,106.141,125.636,106.141
			s115.477-45.976,125.636-106.141c0.009-0.049,0.023-0.097,0.031-0.148c0.017-0.113,0.029-0.229,0.048-0.343
			c0.542-3.289,0.958-6.618,1.243-9.985c0.009-0.109,0.02-0.218,0.029-0.326c0.132-1.611,0.232-3.23,0.303-4.858
			c0.011-0.262,0.02-0.523,0.03-0.784c0.061-1.606,0.1-3.217,0.1-4.837C512.001,375.239,511.96,373.628,511.901,372.022z
			 M384.577,488.588c-52.053,0-95.904-35.782-108.255-84.039h216.509C480.481,452.806,436.63,488.588,384.577,488.588z
			 M496.265,379.829c-0.003,0.116-0.009,0.231-0.014,0.347c-0.026,0.884-0.06,1.768-0.107,2.653
			c-0.004,0.072-0.009,0.143-0.014,0.216c-0.051,0.927-0.112,1.854-0.186,2.78c-0.005,0.063-0.012,0.126-0.017,0.189
			c-0.075,0.924-0.161,1.847-0.26,2.768c-0.003,0.024-0.006,0.048-0.008,0.072H273.493c-0.002-0.024-0.005-0.048-0.008-0.072
			c-0.098-0.922-0.184-1.845-0.259-2.768c-0.005-0.063-0.011-0.126-0.017-0.189c-0.074-0.926-0.135-1.853-0.186-2.78
			c-0.004-0.072-0.009-0.143-0.014-0.216c-0.047-0.884-0.081-1.769-0.107-2.653c-0.003-0.116-0.01-0.231-0.014-0.347
			c-0.026-0.99-0.04-1.98-0.04-2.968c0-0.988,0.014-1.977,0.04-2.968c0.003-0.118,0.01-0.235,0.014-0.354
			c0.026-0.882,0.06-1.764,0.107-2.647c0.004-0.075,0.01-0.15,0.015-0.225c0.051-0.924,0.112-1.847,0.186-2.77
			c0.005-0.067,0.013-0.134,0.018-0.201c0.075-0.92,0.161-1.838,0.258-2.756c0.003-0.025,0.006-0.05,0.008-0.075h50.909
			c4.335,0,7.847-3.513,7.847-7.847s-3.512-7.847-7.847-7.847h-48.079c12.349-48.258,56.2-84.039,108.254-84.039
			c52.053,0,95.904,35.782,108.254,84.039H350.167c-4.335,0-7.847,3.513-7.847,7.847s3.512,7.847,7.847,7.847H495.66
			c0.003,0.025,0.006,0.05,0.008,0.075c0.098,0.918,0.183,1.836,0.258,2.756c0.005,0.067,0.013,0.134,0.018,0.201
			c0.074,0.923,0.135,1.847,0.185,2.77c0.004,0.075,0.01,0.15,0.015,0.225c0.047,0.882,0.081,1.765,0.107,2.647
			c0.003,0.118,0.01,0.235,0.014,0.354c0.026,0.99,0.04,1.98,0.04,2.968C496.305,377.848,496.291,378.838,496.265,379.829z"/>
	</g>
</g>
<g>
	<g>
		<path d="M362.399,40.469c-43.667-43.666-114.716-43.666-158.382,0l-12.575,12.575c-3.065,3.065-3.065,8.033,0,11.097
			c3.065,3.065,8.033,3.065,11.098,0l12.574-12.575c37.547-37.546,98.639-37.545,136.186,0c37.546,37.546,37.546,98.638,0,136.186
			l-90.657,90.657c9.395-37.037-0.363-77.975-29.287-106.899c-21.152-21.153-49.276-32.801-79.191-32.801
			c-9.434,0-18.69,1.161-27.605,3.411l59.766-59.766c3.065-3.065,3.065-8.033,0-11.097c-3.065-3.065-8.033-3.065-11.097,0
			L56.239,188.246l-23.441,23.44c-0.17,0.169-0.332,0.342-0.499,0.513c-0.499,0.505-0.998,1.012-1.487,1.526
			c-0.15,0.157-0.294,0.317-0.442,0.475c-0.512,0.544-1.021,1.089-1.52,1.641c-0.055,0.062-0.11,0.126-0.165,0.187
			C10.145,236.613,0,262.962,0,290.874c0,27.967,10.185,54.369,28.796,74.971c0.016,0.017,0.03,0.034,0.046,0.051
			c0.555,0.613,1.118,1.219,1.688,1.822c0.093,0.098,0.183,0.199,0.276,0.297c0.656,0.69,1.321,1.373,1.997,2.049
			s1.36,1.342,2.05,1.998c0.091,0.087,0.184,0.171,0.276,0.256c0.609,0.577,1.222,1.147,1.843,1.708
			c0.014,0.011,0.027,0.023,0.04,0.036c20.605,18.617,47.01,28.804,74.982,28.804c27.972,0,54.377-10.188,74.982-28.804
			c0.014-0.012,0.027-0.023,0.04-0.036c0.619-0.561,1.233-1.131,1.843-1.708c0.091-0.086,0.185-0.169,0.276-0.256
			c0.691-0.657,1.374-1.323,2.05-1.998l171.216-171.215C406.064,155.184,406.064,84.134,362.399,40.469z M220.264,318.789
			l-40.178,40.178c-1.163,1.163-2.35,2.29-3.557,3.382c-0.176,0.159-0.36,0.306-0.537,0.464c-1.054,0.939-2.117,1.862-3.201,2.747
			c-0.037,0.03-0.074,0.057-0.111,0.087c-35.229,28.637-86.139,28.638-121.371,0.003c-0.038-0.03-0.077-0.059-0.115-0.09
			c-1.084-0.883-2.145-1.807-3.199-2.744c-0.178-0.158-0.362-0.306-0.539-0.466c-1.207-1.091-2.394-2.218-3.557-3.382
			C11.362,326.429,7.043,276.216,30.9,238.961c0.231-0.36,0.443-0.729,0.679-1.087c0.517-0.783,1.072-1.547,1.614-2.319
			c0.381-0.543,0.742-1.095,1.136-1.631c0.635-0.865,1.311-1.709,1.979-2.557c0.335-0.425,0.649-0.86,0.991-1.281
			c0.612-0.751,1.265-1.48,1.903-2.218c0.432-0.498,0.843-1.009,1.287-1.499c0.556-0.615,1.148-1.207,1.721-1.811
			c0.564-0.592,1.108-1.196,1.69-1.778l40.174-40.172c18.189-18.188,42.371-28.205,68.093-28.205s49.903,10.017,68.092,28.206
			C257.803,220.153,257.805,281.243,220.264,318.789z"/>
	</g>
</g>
<g>
</g>
<g>
</g>
<g>
</g>
<g>
</g>
<g>
</g>
<g>
</g>
<g>
</g>
<g>
</g>
<g>
</g>
<g>
</g>
<g>
</g>
<g>
</g>
<g>
</g>
<g>
</g>
<g>
</g>
</svg>
