<?xml version="1.0" encoding="utf-8"?>
<!-- Uploaded to SVGRepo https://www.svgrepo.com -->
<svg version="1.2" baseProfile="tiny" id="Layer_1" xmlns="http://www.w3.org/2000/svg" xmlns:xlink="http://www.w3.org/1999/xlink"
	 x="0px" y="0px" viewBox="0 0 256 256" xml:space="preserve">
<path id="XMLID_15_" d="M196.1,41.2c0,2.4-2,4.4-4.5,4.4H68.4c-2.5,0-4.5-2-4.5-4.4V9.3c0-2.4,2-4.4,4.5-4.4h123.2
	c2.5,0,4.5,2,4.5,4.4V41.2z M186.1,10.6H180v29.2h6.1V10.6z M158.9,10.6h-6.1v29.2h6.1V10.6z M172.5,10.6h-6.1v29.2h6.1V10.6z"/>
<path id="XMLID_10_" d="M186.1,53.8v191.4c0,4.6-3.8,8.4-8.6,8.4H82.5c-4.8,0-8.7-3.8-8.7-8.4V53.8H186.1z M175.1,66.2H85v123.9
	h90.1V66.2z M153,180.5l-9.5-17.3l-9.5,17.3h-8.8l14-25.3l-16.8-30.6c-0.9,0.1-1.7,0.2-2.6,0.2h-11.1v32.7H96V78.4h25.1
	c15.2,0,21.8,9.5,21.8,23c0,8.9-3.3,15.8-9.3,19.8l12.1,22.2l9.2-16.7h8.8l-13.6,24.7l15.9,29.1H153z M130.3,101.7
	c0-8.5-3.4-13.7-13.5-13.7h-8.1v27.4h9C124.4,115.3,130.3,111.6,130.3,101.7"/>
</svg>
