<?xml version="1.0" encoding="utf-8"?>
<!-- Uploaded to SVGRepo https://www.svgrepo.com -->
<svg version="1.2" baseProfile="tiny" id="Layer_1" xmlns="http://www.w3.org/2000/svg" xmlns:xlink="http://www.w3.org/1999/xlink"
	 x="0px" y="0px" viewBox="0 0 256 256" xml:space="preserve">
<g id="XMLID_3_">
	<path id="XMLID_6_" fill="none" d="M25,171h167.2l-7.8-21.3c-0.5-1.4-3.1-7.8-3.1-10.2c0-5.8,4.7-10.4,10.4-10.4
		c4.4,0,8.1,2.7,9.7,6.6c0,0,0,0,0,0l12.9,35.3H230V14H25V171z M75.9,69H118V57H78.5c-2.2,0-3.9-1.8-3.9-4c0-2.2,1.8-4,3.9-4H118V36
		H87.1c-2.2,0-3.9-1.8-3.9-4c0-2.2,1.7-4,3.9-4H118v-6h20v6h30.7c2.2,0,3.9,1.8,3.9,4c0,2.2-1.8,4-3.9,4H138v13h39.5
		c2.2,0,3.9,1.8,3.9,4c0,2.2-1.8,4-3.9,4H138v12h42.1c2.2,0,3.9,1.8,3.9,4c0,2.2-1.8,4-3.9,4H138v12h37.2c2.2,0,3.9,1.8,3.9,4
		c0,2.2-1.8,4-3.9,4H138v12h35.8c1.5,0,3.7,1.5,3.7,3.9c0,21.1-2.5,31.1-13.6,31.1c-11.5,0-13.9-24.9-25.9-26.5V141h-20v-23.6
		c-13,1-14.8,26.7-26.8,26.7c-11.1,0-13.1-10.1-13.1-31.2c0-2.4,2.3-3.9,3.8-3.9H118V97H80.6c-2.2,0-3.9-1.8-3.9-4
		c0-2.2,1.8-4,3.9-4H118V77H75.9c-2.2,0-3.9-1.8-3.9-4C72,70.8,73.7,69,75.9,69z"/>
	<path id="XMLID_12_" d="M241,4H14v178h122.2l13.3,34.6c3.8,10.4,12.7,17.5,22.8,19.4l6.2,18.9l52.3,0l-12.4-35.7
		c6.5-8,8.8-19.3,5-29.6L220,182h21V4z M230,171h-15.7l-12.9-35.3c0,0,0,0,0,0c-1.5-3.8-5.3-6.6-9.7-6.6c-5.8,0-10.4,4.7-10.4,10.4
		c0,2.4,2.6,8.8,3.1,10.2l7.8,21.3H25V14h205V171z"/>
	<path id="XMLID_13_" d="M75.9,77H118v12H80.6c-2.2,0-3.9,1.8-3.9,4c0,2.2,1.8,4,3.9,4H118v12H81.9c-1.5,0-3.7,1.5-3.7,3.9
		c0,21.1,1.9,31.1,13,31.1c12,0,13.8-25.6,26.8-26.6V141h20v-23.5c12,1.6,14.4,26.6,25.9,26.6c11.1,0,13.7-10.1,13.7-31.2
		c0-2.4-2.3-3.9-3.8-3.9H138V97h37.2c2.2,0,3.9-1.8,3.9-4c0-2.2-1.8-4-3.9-4H138V77h42.1c2.2,0,3.9-1.8,3.9-4c0-2.2-1.8-4-3.9-4H138
		V57h39.5c2.2,0,3.9-1.8,3.9-4c0-2.2-1.8-4-3.9-4H138V36h30.7c2.2,0,3.9-1.8,3.9-4c0-2.2-1.8-4-3.9-4H138v-6h-20v6H87.1
		c-2.2,0-3.9,1.8-3.9,4c0,2.2,1.7,4,3.9,4H118v13H78.5c-2.2,0-3.9,1.8-3.9,4c0,2.2,1.8,4,3.9,4H118v12H75.9c-2.2,0-3.9,1.8-3.9,4
		C72,75.2,73.7,77,75.9,77z"/>
</g>
</svg>
