<?xml version="1.0" encoding="utf-8"?>
<!-- Uploaded to SVGRepo https://www.svgrepo.com -->
<svg version="1.2" baseProfile="tiny" id="Layer_1" xmlns="http://www.w3.org/2000/svg" xmlns:xlink="http://www.w3.org/1999/xlink"
	 x="0px" y="0px" viewBox="0 0 256 256" xml:space="preserve">
<g id="XMLID_4_">
	<path id="XMLID_5_" d="M195.5,195.1c-1.3-0.5-2.8-0.8-4.3-0.8c-6.9,0-12.5,5.6-12.5,12.5c0,6.9,5.6,12.5,12.5,12.5
		c6.9,0,12.5-5.6,12.5-12.5c0-2.1-0.5-4.1-1.5-5.9C200.8,198.3,198.4,196.2,195.5,195.1z"/>
	<circle id="XMLID_33_" cx="128.5" cy="70" r="55"/>
	<path id="XMLID_34_" d="M249.6,189.1c-3.8-8.4-11.7-14.8-19.4-20.5c-3.1-2.3-6.3-4.5-9.5-6.5c-0.9,3.6-1.9,7.2-3.1,10.6
		c-2.6,7.3-5.9,14.2-9.8,20.5c3.1,3.7,5,8.5,5,13.7c0,6.3-2.8,12.1-7.2,16c-3.8,3.4-8.8,5.4-14.2,5.4c-0.5,0-1.1,0-1.6,0
		c-11.1-0.8-19.9-10-19.9-21.3c0-11.8,9.6-21.4,21.4-21.4c3.4,0,6.6,0.8,9.4,2.2c4-6.4,7.1-13.5,9.5-21.1c0.9-2.9,1.7-6,2.5-9.1
		c-3.3-1.8-6.5-3.5-9.5-5l-2.3-1.2c-3.4-1.7-6.8-3.5-10.2-5.1c-0.1,0-0.1-0.1-0.2-0.1c-3.6-1.7-7.3-3.2-11-4.3
		c-0.6-0.2-1.3-0.5-1.9-0.7c0,0-0.1,0.1-0.1,0.2c-1.1,1.7-21.7,30.2-26.5,36.2c-1.6,2.1-4.9,5.7-6.9,8.4V140h-30v46.6
		c-2-2.7-5.4-6.4-7-8.4c-5-6.4-26-35.4-27.2-37.2c0-0.1-0.1-0.1-0.2-0.2c-0.6,0.2-1.3,0.5-1.9,0.7c-3.8,1.1-7.5,2.7-11.1,4.3
		c0,0-0.1,0-0.2,0.1c-3.4,1.6-6.8,3.4-10.2,5.1l-2.2,1.2c-1.6,0.8-3.1,1.6-4.7,2.4c1.2,2.6,2.4,5.2,3.8,7.8c1.1,2.3,2.4,4.6,3.7,6.9
		c1.2-0.2,2.5-0.3,3.8-0.3c14.4,0,28.8,12.9,35.1,31.2c0.2,0.6,0.4,1.1,0.6,1.7c0.6,1.8,1.3,3.6,1.7,5.7c0.3,1.4,0.4,2.7,0.4,3.9
		c0,3.7-1.4,6.1-4.2,7.2c-0.8,2-2.4,3.4-4.5,4.1c-0.8,0.3-1.6,0.4-2.4,0.4c-3.2,0-6-2-7-5c-1.3-3.9,0.8-8.1,4.6-9.4
		c1.3-0.5,2.8-0.6,4.1-0.2c-0.3-1.2-0.7-2.4-1.2-3.7l0-0.1c-0.2-0.6-0.4-1.2-0.6-1.8c-5-14.6-16.1-25.2-26.5-25.2
		c-1.4,0-2.7,0.2-4,0.6c-10.8,4.2-14.9,21.3-9.2,38.2c0.2,0.6,0.4,1.3,0.6,1.9c0.3,1.1,0.6,2.1,1,3c0.2,0.5,0.4,0.9,0.6,1.3
		c0.1,0.3,0.3,0.6,0.4,0.8c0,0.1,0.1,0.2,0.2,0.3c0.8-3.2,3.8-5.6,7.2-5.6c4.1,0,7.4,3.4,7.4,7.5c0,0.5,0,1-0.1,1.4c0,0,0,0,0.1,0
		c-0.5,2.6-2.3,4.8-5,5.7c-1.9,0.6-4,0.5-5.8-0.5c-0.9,0.3-1.4,0.4-2.4,0.6l-0.2,0.1c-0.6,0.1-1.2,0.2-1.8,0.2c-4.6,0-7.2-5.1-8-6.8
		c-0.9-1.9-1.5-3.8-2.1-5.6c-0.2-0.6-0.4-1.1-0.6-1.7c-0.5-1.3-0.9-2.7-1.2-4.1c-4.4-16.8-0.5-33.7,9.8-41.8c-1-1.7-1.9-3.4-2.8-5.1
		c-1.5-2.9-3-5.9-4.3-8.8c-4.6,2.7-9.3,5.6-13.6,8.9c-7.8,5.7-15.6,12.1-19.4,20.5c-3.4,7.4-3,16.3-2.8,24.8l0.1,2.6
		c0,0.9,0.1,24.5,0.1,38.5h247.3c0-14,0-37.5,0-38.5l0.1-2.6C252.6,205.4,252.9,196.6,249.6,189.1z"/>
</g>
</svg>
