<?xml version="1.0" encoding="utf-8"?>
<!-- Uploaded to SVGRepo https://www.svgrepo.com -->
<svg version="1.2" baseProfile="tiny" id="Layer_1" xmlns="http://www.w3.org/2000/svg" xmlns:xlink="http://www.w3.org/1999/xlink"
	 x="0px" y="0px" viewBox="0 0 256 256" xml:space="preserve">
<path id="XMLID_6_" d="M132.2,100.8c7.8-2.5,16.1,1.8,18.6,9.6c2.5,7.8-1.8,16.1-9.6,18.6L101,141.9c-4.7,1.5-9.8,0.6-13.6-2.4
	l-16.7-13l36.2,130.1H1.5V91.2c0-9.8,7.9-17.7,17.7-17.7h26.4c3.8,0,7.2,1.2,10.1,3.4c0,0,34.4,26.9,43.9,34.3L132.2,100.8z
	 M55.8,153.2H44.3v-11.6H30.4v11.6H18.9v13.8h11.5v11.5h13.8v-11.5h11.6V153.2z M35.8,65.6c17.6,0,31.8-14.2,31.8-31.8
	C67.6,16.2,53.4,2,35.8,2C18.2,2,4,16.2,4,33.8C4,51.4,18.2,65.6,35.8,65.6 M223,65.7c17.6,0,31.8-14.3,31.8-31.8
	C254.8,16.3,240.5,2,223,2c-17.6,0-31.9,14.3-31.9,31.9C191.1,51.5,205.4,65.7,223,65.7 M213.3,74.3c-13,0-18.9,4.5-23.9,12.2
	l-3.2,6.2l-18.6-5.4l0.8-5.1l-44.4-10l-1.2,5.5l-8.3-1.9l1.2-5.6l-3.3-0.7l-3.8,17l3.3,0.7l1.3-5.6l8.3,1.9l-1.2,5.6l44.5,10
	l1.4-5.2l18,2.9L137.6,186c-3.6,7.2-0.7,15.9,6.5,19.5c7.2,3.6,15.9,0.7,19.5-6.5l38.7-75.1h6.3v132.6h45.6V74.3H213.3z"/>
</svg>
