<?xml version="1.0" ?><svg width="512px" height="512px" viewBox="0 0 512 512" id="fill" xmlns="http://www.w3.org/2000/svg"><title/><path d="M398.592,14H115.409A100.522,100.522,0,0,0,15,114.409V397.592A100.522,100.522,0,0,0,115.409,498H398.592A100.522,100.522,0,0,0,499,397.592V114.409A100.522,100.522,0,0,0,398.592,14ZM487,397.592A88.509,88.509,0,0,1,398.592,486H115.409A88.509,88.509,0,0,1,27,397.592V114.409A88.509,88.509,0,0,1,115.409,26H398.592A88.509,88.509,0,0,1,487,114.409Z"/><path d="M311.757,223.292c-3.759-3.767-6.008-9.514-6.171-15.815l-.262-7.724a14.448,14.448,0,0,0,7.456-12.633V169.45a14.446,14.446,0,0,0-14.43-14.43H279V108.34a24,24,0,0,0-48,0v46.68H212.4a14.446,14.446,0,0,0-14.43,14.43v17.67a14.447,14.447,0,0,0,7.41,12.6l-.572,8.616A23.436,23.436,0,0,1,199,223.066l-3.241,3.442c-15.285,16.242-24.051,39.868-24.051,64.822v91.609c0,24.66,16.522,44.721,36.83,44.721h94.92c20.309,0,36.83-20.061,36.83-44.721V292.66c0-25.852-9.3-50.029-25.514-66.328ZM243,108.34a12,12,0,1,1,24,0v46.68H243Zm-33.03,61.11a2.433,2.433,0,0,1,2.43-2.43h85.95a2.433,2.433,0,0,1,2.43,2.43v17.67a2.439,2.439,0,0,1-2.43,2.44H212.4a2.438,2.438,0,0,1-2.43-2.44ZM250,201.56h10V376.34a5,5,0,0,1-10,0Zm78.29,181.379c0,18.042-11.139,32.721-24.83,32.721H208.54c-13.691,0-24.83-14.679-24.83-32.721V291.33c0-21.93,7.578-42.559,20.788-56.6l3.245-3.445a35.034,35.034,0,0,0,9.044-22.242l.5-7.487H238V376.34a17,17,0,0,0,34,0V201.56h21.379l.213,6.275c.24,9.292,3.764,18.015,9.661,23.923l3.013,3.034c14,14.07,22.024,35.163,22.024,57.868Z"/></svg>