<?xml version="1.0" encoding="iso-8859-1"?>
<!-- Generator: Adobe Illustrator 17.1.0, SVG Export Plug-In . SVG Version: 6.00 Build 0)  -->
<!DOCTYPE svg PUBLIC "-//W3C//DTD SVG 1.1//EN" "http://www.w3.org/Graphics/SVG/1.1/DTD/svg11.dtd">
<svg version="1.1" id="Capa_1" xmlns="http://www.w3.org/2000/svg" xmlns:xlink="http://www.w3.org/1999/xlink" x="0px" y="0px"
	 viewBox="0 0 386.813 386.813" style="enable-background:new 0 0 386.813 386.813;" xml:space="preserve">
<path d="M79.561,179.811v-75.177C79.561,46.938,126.5,0,184.196,0c57.697,0,104.638,46.938,104.638,104.634v75.177
	c0,25.974-21.131,47.104-47.104,47.104c-4.971,0-9-4.029-9-9s4.029-9,9-9c16.048,0,29.104-13.057,29.104-29.104v-75.177
	c0-47.771-38.865-86.634-86.637-86.634s-86.636,38.863-86.636,86.634v75.177c0,16.048,13.056,29.104,29.104,29.104
	c4.971,0,9,4.029,9,9s-4.029,9-9,9C100.692,226.915,79.561,205.784,79.561,179.811z M153.408,121.639
	c-3.79,1.998-7.708,4.064-11.506,6.2c-7.95,4.47-15.575,9.746-17.521,18.019c-1.705,7.25,1.713,13.534,4.882,18.199
	c7.24,10.657,26.896,35.45,53.003,35.492c8.065-0.013,16.05-2.576,25.894-8.313c23.503-13.699,38.103-39.743,38.103-67.969
	c0-11.783-1.896-22.656-5.634-32.316c-1.794-4.637-7.008-6.939-11.642-5.146c-4.636,1.794-6.939,7.006-5.146,11.642
	c2.934,7.58,4.421,16.268,4.421,25.82c0,21.846-11.176,41.932-29.166,52.417c-6.947,4.048-12.146,5.856-16.831,5.864
	c-14.289-0.023-29.058-14.276-38.114-27.606c-1.642-2.418-2.071-3.596-2.183-4.033c0.387-0.606,2.062-2.618,8.753-6.381
	c3.587-2.017,7.396-4.024,11.08-5.967c20.514-10.815,41.727-21.998,45.406-44.243c3.29-19.9-3.794-31.984-10.316-38.617
	c-10.505-10.684-27.475-15.185-46.567-12.362c-4.917,0.729-8.313,5.305-7.584,10.222c0.729,4.918,5.308,8.304,10.222,7.585
	c13.335-1.979,24.668,0.641,31.095,7.176c5.229,5.317,7.042,13.076,5.392,23.061C187.229,103.809,170.8,112.47,153.408,121.639z
	 M205.924,367.457h-46.931l-68.626-85.958c25.28-6.608,67.802-21.455,80.2-48.601c2.065-4.521,0.074-9.861-4.448-11.926
	c-4.521-2.065-9.86-0.073-11.925,4.447c-9.306,20.376-49.62,35.193-81.39,41.711c-0.666,0.122-1.321,0.321-1.954,0.598
	c-1.184,0.515-2.22,1.269-3.059,2.191c-0.697,0.763-1.242,1.625-1.631,2.542c-0.615,1.445-0.859,3.064-0.637,4.714
	c0.093,0.702,0.27,1.397,0.532,2.07c0.361,0.932,0.869,1.778,1.49,2.518l80.084,100.31c1.029,1.289,2.339,2.22,3.773,2.775
	c0.666,0.259,1.371,0.44,2.103,0.534c0.385,0.051,0.774,0.075,1.163,0.075c0.051,0,0.103,0,0.154-0.001h51.102c4.971,0,9-4.029,9-9
	S210.895,367.457,205.924,367.457z M221.037,257.935c2.835,1.89,5.957,3.765,9.278,5.574c1.367,0.744,2.843,1.098,4.297,1.098
	c3.189,0,6.279-1.699,7.912-4.697c2.377-4.366,0.766-9.831-3.6-12.209c-2.854-1.554-5.514-3.149-7.907-4.745
	c-8.486-5.652-14.175-11.552-16.907-17.535c-2.065-4.52-7.402-6.514-11.926-4.447c-4.521,2.065-6.513,7.404-4.447,11.926
	C201.883,241.975,209.723,250.398,221.037,257.935z M321.37,329.46c0,14.552-11.839,26.391-26.39,26.391h-4.572v4.572
	c0,14.552-11.839,26.39-26.391,26.39s-26.391-11.838-26.391-26.39v-4.572h-4.571c-14.552,0-26.39-11.839-26.39-26.391
	s11.838-26.391,26.39-26.391h4.571v-4.571c0-14.552,11.839-26.391,26.391-26.391s26.391,11.839,26.391,26.391v4.571h4.572
	C309.531,303.069,321.37,314.908,321.37,329.46z M303.37,329.46c0-4.627-3.764-8.391-8.39-8.391h-13.572c-4.971,0-9-4.029-9-9
	v-13.571c0-4.627-3.764-8.391-8.391-8.391s-8.391,3.764-8.391,8.391v13.571c0,4.971-4.029,9-9,9h-13.571
	c-4.626,0-8.39,3.764-8.39,8.391s3.764,8.391,8.39,8.391h13.571c4.971,0,9,4.029,9,9v13.572c0,4.626,3.764,8.39,8.391,8.39
	s8.391-3.764,8.391-8.39v-13.572c0-4.971,4.029-9,9-9h13.572C299.607,337.851,303.37,334.087,303.37,329.46z"/>
<g>
</g>
<g>
</g>
<g>
</g>
<g>
</g>
<g>
</g>
<g>
</g>
<g>
</g>
<g>
</g>
<g>
</g>
<g>
</g>
<g>
</g>
<g>
</g>
<g>
</g>
<g>
</g>
<g>
</g>
</svg>
