<?xml version="1.0" encoding="utf-8"?>
<!-- Uploaded to SVGRepo https://www.svgrepo.com -->
<svg version="1.2" baseProfile="tiny" id="Layer_1" xmlns="http://www.w3.org/2000/svg" xmlns:xlink="http://www.w3.org/1999/xlink"
	 x="0px" y="0px" viewBox="0 0 256 256" xml:space="preserve">
<path id="XMLID_9_" d="M198.9,225.2c0,6.6-5.4,11.9-11.9,11.9c-6.6,0-11.9-5.3-11.9-11.9v-10.4h23.9V225.2z M167.4,214.8H88.2v38.8
	h34l0-16.7h11.4l0,16.7h33.9V214.8z M80.3,214.8H56.4v10.4c0,6.6,5.4,11.9,11.9,11.9c6.6,0,11.9-5.3,11.9-11.9V214.8z M127.7,2
	c-17,0-30.8,13.8-30.8,30.8c0,17,13.8,30.8,30.8,30.8c17,0,30.8-13.8,30.8-30.8C158.5,15.8,144.7,2,127.7,2 M215.4,100.3H40v102.5
	h175.4V100.3z M188,194.4H68v-85.7H188V194.4z M156.3,159.4c1.3,0,2.4-1.1,2.4-2.4c0-1.3-1.1-2.4-2.4-2.4h-22.8v-7.5h25.8
	c1.3,0,2.4-1.1,2.4-2.4c0-1.3-1.1-2.4-2.4-2.4h-25.8v-7.5h24.2c1.3,0,2.4-1.1,2.4-2.4c0-1.3-1.1-2.4-2.4-2.4h-24.2v-7.5h18.9
	c1.3,0,2.4-1.1,2.4-2.4c0-1.3-1.1-2.4-2.4-2.4h-18.9v-4.2h-11.7v4.2h-18.9c-1.3,0-2.4,1.1-2.4,2.4c0,1.3,1.1,2.4,2.4,2.4h18.9v7.5
	H97.6c-1.3,0-2.4,1.1-2.4,2.4c0,1.3,1.1,2.4,2.4,2.4h24.1v7.5H96.1c-1.3,0-2.4,1.1-2.4,2.4c0,1.3,1.1,2.4,2.4,2.4h25.7v7.5H98.9
	c-1.3,0-2.4,1.1-2.4,2.4c0,1.3,1.1,2.4,2.4,2.4h22.8v7.5H99.7c-0.9,0-2.3,0.8-2.3,2.2c0,12.8,1.2,18.8,8,18.8
	c7.3,0,8.5-15.6,16.3-16.2v14.5h11.7v-14.5c7.4,1,8.9,16.2,15.9,16.2c6.7,0,8.4-6,8.4-18.8c0-1.4-1.3-2.2-2.3-2.2h-22v-7.5H156.3z
	 M163.6,71.2H92.8c-12.8,0-24.7,6.8-31.3,17h132.5C187.7,78.1,176.4,71.2,163.6,71.2"/>
</svg>
